<?xml version="1.0" encoding="UTF-8"?><svg id="dårlige" xmlns="http://www.w3.org/2000/svg" width="97.88" height="96.94" viewBox="0 0 97.88 96.94"><defs><style>.cls-1{fill:#c9152a;}.cls-1,.cls-2,.cls-3{stroke-width:0px;}.cls-2{fill:#e84928;}.cls-3{fill:#eb5b27;}</style></defs><path class="cls-2" d="m48.81.39c-.24,0-.49-.31-.73-.3s-.49-.1-.73-.08-.48.1-.71.13-.42.45-.66.49-.51-.19-.74-.15-.5-.05-.73,0-.42.3-.65.36-.47.09-.7.15-.48.06-.71.13-.36.43-.59.5-.5,0-.73.07-.56-.13-.78-.04-.42.25-.64.35-.28.55-.5.64-.47.1-.69.2-.56-.07-.78.04-.37.32-.58.43-.44.2-.64.31-.41.25-.61.37-.42.22-.62.35-.51.09-.71.22-.16.63-.35.76-.6-.03-.79.11-.15.61-.34.75-.65-.07-.84.07-.4.27-.59.41-.05.7-.24.85-.7-.11-.89.04-.2.51-.38.66-.39.27-.57.43-.41.26-.59.41-.34.34-.52.49-.32.35-.5.51-.44.22-.62.38-.42.24-.6.4.03.73-.15.9-.62.03-.8.19-.4.27-.57.43-.25.43-.43.59-.24.44-.41.61-.5.16-.68.33-.42.25-.6.41-.3.38-.48.54c-.17.16-.17.5-.35.67-.17.16-.22.45-.39.62s-.42.24-.59.41-.54.12-.71.29-.01.66-.18.83-.65,0-.82.18-.3.37-.47.54-.39.28-.56.45-.08.59-.24.76-.41.26-.58.43-.48.2-.65.37-.19.47-.35.65-.2.46-.36.64-.58.11-.74.29-.15.51-.31.69-.24.42-.4.6-.45.23-.61.42-.13.52-.28.7-.39.29-.55.48-.23.43-.38.61-.44.26-.59.44-.48.22-.63.41-.02.59-.17.78-.32.35-.47.54-.59.15-.73.34.07.65-.07.85-.54.2-.68.39-.42.29-.55.49.16.7.02.89-.44.27-.58.47-.38.32-.51.52-.21.43-.34.63-.04.54-.17.74-.42.3-.55.5-.2.44-.32.64-.29.39-.41.59-.26.4-.38.61-.4.32-.52.53.02.56-.09.77-.43.31-.54.53-.35.36-.46.58.11.59,0,.81-.2.43-.3.65-.38.35-.48.57,0,.52-.1.74-.43.34-.53.56-.14.46-.23.69.07.54-.02.76-.06.49-.14.71-.52.33-.6.55-.26.42-.33.65.21.57.14.8-.39.39-.45.62.29.57.23.8-.21.44-.27.67-.25.43-.3.67-.11.47-.15.7-.09.47-.13.71-.2.45-.24.69,0,.48-.03.72.06.49.04.73-.11.47-.13.71.06.48.05.72-.12.47-.13.71-.18.47-.18.71S0,54.85,0,55.09s.35.48.36.72-.12.48-.11.72-.18.49-.16.73.36.46.38.69.11.47.13.71-.42.53-.38.77.3.45.33.68.25.44.29.68-.15.52-.1.75c.05.24.29.44.34.67s.19.45.24.69-.03.5.03.74.2.44.27.68-.11.54-.04.77.54.33.62.56.11.47.19.69-.21.59-.12.82.53.31.62.53-.21.61-.12.83.58.27.68.49.1.48.21.7.19.45.29.66.19.45.31.66.37.35.49.56.24.42.36.63-.14.65-.02.85.4.33.52.53.11.51.24.71.59.19.72.38.21.45.35.64.4.31.54.5.12.51.27.7.38.32.53.5.36.33.52.51.11.55.26.73.44.26.6.44.23.44.39.62.33.36.49.53c.17.18.18.5.35.67.17.18.5.2.66.36.17.18.32.37.49.53.18.18.28.41.45.57.18.18.66.03.82.19.17.17.14.54.31.71s.22.46.4.62.61.03.79.19.44.22.62.37.12.59.31.74.59.03.78.18.36.31.55.46.17.55.36.7.43.23.62.37.33.35.53.49.58.01.77.15.12.67.32.81.52.09.72.22.44.2.64.33.42.23.62.36.46.16.67.28.29.45.5.57.34.37.55.49.42.23.63.35.4.27.61.38.56-.04.78.07.31.45.52.55.54-.01.75.09.46.15.67.25.33.42.55.52.49.08.71.17.39.31.61.4.5.04.73.12.4.3.62.39.56-.12.78-.04.43.22.65.3.48.06.71.14.38.37.61.45.39.36.62.43.53-.09.76-.02.39.4.62.46.48.06.72.12.46.16.69.21.56-.29.79-.23.4.39.64.44.45.19.69.23.48.04.72.08.48.06.71.1.51-.16.75-.12.42.43.66.46.48.05.72.08.49-.02.72,0,.47.15.71.17.51-.36.75-.34.47.18.71.19.47.26.71.27.49-.29.73-.28.48-.08.72-.08.48.39.72.39.47-.29.71-.3.48.13.72.11.46-.34.7-.35.52.51.76.49.44-.41.68-.44.47-.1.71-.13.49.08.73.05.5.09.74.06.4-.48.64-.53.55.34.79.29.44-.26.67-.31.5.02.73-.04.35-.53.59-.59.56.24.79.17.44-.21.67-.28.41-.3.63-.37.57.17.8.09.29-.58.52-.67.62.25.84.16c.23-.09.32-.49.54-.59s.4-.29.62-.39.58.09.8-.02.24-.6.45-.71.56.02.77-.1.33-.39.54-.51.41-.25.62-.38.6.03.8-.1.42-.26.61-.4.32-.39.51-.54.14-.61.33-.76.52-.12.7-.28.38-.29.57-.45.56-.1.74-.26.08-.63.26-.79.47-.2.65-.37.48-.2.65-.37.31-.37.48-.55.06-.61.23-.78.33-.34.5-.52.48-.21.65-.39.41-.28.57-.46.03-.61.19-.8.68-.05.84-.23-.04-.66.12-.85.32-.35.48-.54.64-.09.79-.28.03-.6.18-.79.5-.21.65-.4.36-.32.52-.52.09-.55.24-.74.37-.33.52-.52.21-.45.36-.64.24-.42.39-.61.43-.27.58-.46.13-.51.28-.7.68-.08.83-.28-.05-.65.1-.85.59-.15.74-.35.11-.53.26-.72.53-.2.68-.4.32-.38.47-.57c.15-.19.31-.37.46-.56s.15-.49.3-.68.37-.33.51-.52.29-.38.44-.57.22-.44.37-.63.35-.34.49-.53.07-.55.22-.74.32-.36.47-.55.51-.21.66-.4.04-.57.19-.76.56-.18.71-.37.27-.4.41-.59.25-.41.39-.6.22-.44.36-.63.14-.49.28-.68.37-.32.51-.51.42-.3.55-.49.16-.48.3-.67.46-.27.6-.46.08-.53.22-.72.43-.29.56-.49.32-.37.45-.57-.11-.64.02-.84.52-.24.64-.44-.09-.62.03-.82.51-.25.63-.46-.02-.56.09-.77.66-.19.77-.39,0-.54.11-.75.23-.42.33-.63.03-.51.13-.72.1-.47.19-.69.33-.38.41-.6.11-.46.19-.69.59-.31.66-.53-.39-.61-.33-.84.64-.32.7-.55-.09-.51-.05-.75.27-.43.31-.67-.18-.51-.15-.75.07-.47.1-.7.15-.46.17-.7.05-.47.07-.71.15-.47.15-.71.03-.48.03-.72c0-.24-.37-.47-.38-.71s.13-.49.11-.73-.23-.46-.26-.7-.1-.47-.13-.71-.08-.47-.12-.7-.12-.46-.17-.7.11-.51.05-.75-.26-.43-.32-.66.02-.5-.05-.73-.09-.48-.16-.7-.2-.44-.28-.66-.02-.51-.11-.73-.51-.31-.6-.53-.18-.44-.28-.66.11-.59,0-.8-.55-.26-.66-.47,0-.54-.12-.75-.42-.31-.54-.52-.06-.52-.19-.73-.37-.33-.5-.54-.35-.34-.48-.54.13-.67,0-.87-.61-.16-.75-.35.02-.61-.12-.81-.64-.11-.79-.3-.02-.59-.17-.78-.42-.28-.57-.46-.46-.24-.61-.42-.14-.51-.3-.69-.38-.3-.54-.48-.16-.5-.32-.68-.58-.11-.75-.29-.04-.62-.2-.8-.47-.21-.64-.39-.34-.34-.51-.51-.55-.12-.72-.29-.06-.62-.24-.79-.54-.13-.71-.3-.17-.52-.34-.69-.39-.28-.57-.44-.42-.25-.6-.41-.41-.26-.59-.43-.09-.61-.27-.78-.33-.35-.51-.51-.68.03-.85-.12-.29-.4-.47-.56-.3-.39-.48-.54-.48-.18-.66-.34-.39-.28-.57-.44-.12-.6-.3-.75-.54-.11-.72-.27-.24-.46-.42-.62-.41-.26-.59-.42c-.18-.16-.24-.47-.42-.62s-.33-.36-.51-.52-.63-.01-.81-.17-.4-.28-.58-.44-.2-.51-.38-.67-.49-.17-.68-.32-.25-.45-.44-.6-.4-.27-.59-.43-.24-.46-.43-.61-.6-.03-.78-.18-.12-.61-.31-.76-.46-.19-.65-.34-.5-.15-.69-.3-.26-.45-.44-.6-.45-.21-.64-.36-.34-.35-.53-.49-.49-.15-.68-.29-.23-.5-.43-.64-.36-.32-.56-.46-.54-.06-.74-.2-.37-.31-.57-.44-.35-.35-.55-.48-.53-.06-.73-.18-.25-.51-.46-.63-.46-.17-.67-.29-.49-.11-.7-.22-.31-.44-.53-.55-.63.2-.85.1-.4-.26-.62-.35-.26-.6-.48-.69-.45-.17-.68-.26-.62.28-.84.2-.37-.38-.6-.46-.39-.36-.62-.43-.59.31-.82.24-.41-.31-.64-.36-.46-.12-.69-.17-.47-.07-.71-.12-.47-.07-.71-.11-.45-.19-.69-.21-.48-.02-.72-.04-.48.07-.72.06-.47.05-.71.04-.47-.05-.71-.05-.47.11-.71.12Z"/><path class="cls-3" d="m69.71,78.9c.2-.13.23-.52.42-.66s.41-.25.6-.4.37-.3.55-.46.41-.26.59-.43.33-.35.5-.52.49-.22.64-.4-.09-.7.06-.89.54-.19.68-.38.03-.56.16-.76.4-.3.53-.51.14-.46.26-.67.57-.25.68-.46.29-.41.39-.63-.3-.64-.21-.86.41-.36.48-.59.19-.45.25-.68.04-.49.09-.72.05-.48.08-.71.28-.46.29-.7.03-.49.03-.73-.43-.46-.45-.7.23-.5.19-.74.02-.5-.03-.73-.4-.38-.47-.61.23-.6.13-.83c-.1-.22-.36-.38-.47-.59s-.52-.24-.65-.44.06-.63-.09-.82-.62-.09-.79-.27-.22-.44-.4-.6-.34-.33-.53-.47-.36-.3-.57-.44-.33-.38-.54-.5-.57.06-.78-.05-.28-.53-.5-.63-.55.11-.78.03-.38-.38-.61-.45-.49,0-.73-.05-.49.06-.73.02-.45-.15-.69-.19-.46-.13-.7-.15-.48.16-.72.15-.47-.5-.71-.5-.48.24-.72.25-.47.08-.71.11-.46.18-.7.21-.49-.07-.73-.03-.49-.01-.73.04-.4.36-.63.42-.58-.27-.81-.19-.36.44-.59.52-.54-.07-.77.02-.43.23-.65.33-.39.31-.6.42-.33.38-.54.5-.43.2-.63.33-.54.05-.74.2c-.19.14-.14.6-.33.75s-.56.07-.74.23-.36.32-.53.48-.52.17-.68.34-.34.36-.5.54-.07.58-.22.76-.39.31-.53.5-.04.55-.17.75-.53.23-.66.43-.32.38-.44.59-.27.41-.38.62.24.64.15.86-.4.35-.48.57-.1.47-.18.7,0,.49-.07.72-.36.4-.41.64.11.5.08.74-.44.44-.46.67-.08.49-.08.73.39.48.41.72.14.46.17.69-.42.56-.38.79.18.47.25.7.11.48.2.71.27.42.38.64.19.45.31.66c.12.21.19.46.32.66s.38.33.53.51.28.4.45.57.63.02.81.18.05.69.24.84.57.02.77.14.39.26.6.38.44.17.66.27.45.12.68.2.32.53.54.61.46.15.69.21.55-.28.78-.23.42.33.66.37.47.04.71.07.48.02.71.04.48.06.71.06.47-.27.7-.28.49.27.73.24.45-.27.68-.3.51.18.74.13.46-.14.69-.19.42-.27.65-.33.57.25.79.18.39-.36.61-.44.41-.26.63-.35.39-.28.61-.38.41-.23.62-.33.53,0,.74-.12.49-.11.7-.23.42-.24.62-.37Z"/><path class="cls-1" d="m70.37,79.11c.2-.13.23-.5.42-.64s.28-.39.47-.54.49-.15.66-.31.58-.09.74-.26.19-.49.35-.67.25-.42.4-.6.42-.27.57-.46.07-.54.2-.73.5-.24.62-.44-.08-.6.03-.8.29-.37.39-.59.37-.35.46-.57.06-.48.15-.71.35-.39.41-.61.3-.42.35-.65-.01-.5.03-.73-.13-.5-.1-.74.35-.46.36-.7-.51-.47-.52-.71.17-.48.14-.71-.18-.44-.24-.67-.19-.42-.27-.64.17-.56.08-.78c-.1-.22-.47-.3-.59-.51s.04-.58-.1-.78-.5-.22-.65-.41-.33-.32-.5-.49-.3-.36-.49-.51-.15-.59-.35-.73-.45-.22-.66-.34-.51-.07-.73-.18-.46-.13-.68-.23-.46-.1-.69-.18-.35-.48-.58-.55-.45-.21-.69-.26-.53.2-.77.16-.47-.12-.71-.14-.48-.05-.72-.06-.48-.11-.72-.11-.48.01-.73.02-.5-.18-.74-.16-.42.57-.66.6-.52-.23-.76-.19-.41.39-.64.44-.5-.05-.73.01-.42.24-.65.32-.59-.21-.81-.12-.49.1-.71.2-.21.67-.43.78-.54,0-.75.11-.44.2-.65.33-.36.33-.56.47c-.19.14-.36.31-.54.45s-.51.13-.69.29-.36.32-.53.49-.03.63-.19.8-.52.17-.67.35-.39.3-.53.49-.05.55-.18.74-.62.16-.74.36-.11.5-.22.7.07.57-.04.78-.58.25-.67.47.21.59.12.81-.3.39-.37.61-.15.44-.21.67-.13.45-.18.68-.22.45-.25.68.27.49.26.73-.38.46-.38.7.33.45.35.69-.19.5-.15.73.22.43.28.66.28.39.36.62.09.45.19.67.13.45.25.65c.12.21.41.29.54.49s-.1.68.06.86.5.21.67.37.39.28.57.43.45.18.65.32.32.37.53.49.37.32.59.42.53-.04.76.05.31.55.54.63.54-.16.78-.1.41.36.65.4.49.04.73.07.49-.06.73-.04.48-.15.72-.14.47.05.71.05.49.23.73.22.43-.44.67-.47.51.23.75.19.47-.09.71-.14.53.12.76.06.47-.13.7-.21.35-.46.58-.54.49-.06.71-.16.32-.45.54-.56.57.08.79-.04.47-.16.68-.28.41-.26.61-.4Z"/><path class="cls-3" d="m51.52,4.49c-.24-.04-.48-.13-.71-.16s-.5.14-.74.12-.48-.13-.72-.14-.49-.12-.72-.12-.48.26-.72.27-.46.2-.7.22-.52-.4-.76-.37-.4.57-.64.61-.49-.08-.73-.03-.45.18-.68.24-.47.06-.71.12-.52-.05-.74.02-.35.45-.57.54-.6-.23-.83-.14-.41.28-.62.38-.45.19-.66.3-.41.26-.62.38-.28.46-.48.59-.56,0-.76.14-.47.18-.66.32-.41.27-.6.42-.39.3-.57.46-.29.4-.46.57-.29.4-.45.57-.14.52-.29.7-.29.37-.44.56-.31.36-.45.55-.23.41-.35.62-.6.21-.72.42-.04.52-.15.74-.17.45-.27.67-.41.36-.49.59c-.08.23-.18.47-.25.7s.07.53,0,.76-.08.48-.13.72.1.5.06.74-.25.46-.26.7-.28.48-.29.72.44.49.44.73.02.47.04.72-.35.52-.32.76.43.43.46.67-.04.49.01.73.35.41.41.64-.36.6-.29.83.46.36.54.59.09.48.18.7.05.5.15.72.15.47.25.69.22.43.34.65.48.28.6.49.36.33.49.54.1.51.24.71.02.59.16.78.46.26.62.45.38.31.54.49.21.47.37.64.52.16.69.33.15.54.33.7.61.04.79.19.32.36.51.51.27.43.47.58.46.17.67.31.3.43.51.55.34.4.55.51.49.13.7.23.52.03.74.12.33.48.55.57.63-.31.86-.24.39.34.62.41.49.02.72.07.48.02.72.06.41.43.65.46c.24.03.51-.24.76-.22s.46.37.7.38.49-.26.74-.26.48-.04.72-.05.48.02.72,0,.52.32.77.29.48-.14.72-.18.44-.27.68-.32.45-.18.69-.24.44-.2.67-.27.57.19.8.11.49-.08.72-.17.34-.46.56-.56.46-.16.68-.26.44-.21.65-.33.47-.16.68-.28.41-.26.62-.4.53-.1.73-.24.08-.71.28-.85.57-.06.76-.22.16-.54.34-.71.47-.2.64-.38.25-.42.42-.6.62-.11.77-.3.38-.33.53-.52-.14-.7,0-.9.48-.26.61-.47.29-.39.41-.61.16-.46.27-.68.17-.45.27-.68.39-.37.47-.6.17-.47.24-.7-.27-.58-.21-.81c.06-.24.38-.41.42-.64s.2-.46.23-.7-.22-.51-.2-.75.46-.46.47-.7-.15-.49-.15-.73-.34-.47-.35-.71.38-.51.35-.75-.47-.42-.51-.66.07-.49.02-.73-.08-.47-.14-.7-.1-.47-.17-.7-.01-.5-.09-.73-.47-.33-.56-.56.15-.59.05-.81-.48-.3-.59-.52,0-.54-.13-.75-.36-.35-.48-.55-.39-.31-.53-.51-.21-.43-.35-.63-.22-.43-.37-.62-.45-.25-.61-.43.05-.68-.12-.86-.5-.19-.67-.36-.38-.3-.56-.46-.44-.22-.62-.38-.28-.41-.46-.56-.32-.38-.51-.52-.54-.07-.74-.2-.18-.61-.38-.74-.57.01-.78-.11-.3-.46-.51-.57-.45-.18-.67-.28-.49-.1-.71-.19-.51-.02-.73-.1-.43-.21-.66-.28-.39-.39-.62-.45-.56.26-.79.21-.37-.6-.61-.64Z"/><path class="cls-1" d="m51.15,3.73c-.24-.04-.47-.11-.71-.14s-.5.16-.74.14-.48,0-.72,0-.48-.42-.72-.42-.47.45-.71.46-.47.05-.71.08-.53-.36-.77-.32-.44.31-.68.35-.52-.09-.75-.04-.4.37-.63.44-.47.1-.7.17-.51.02-.73.1-.4.29-.62.39-.57-.07-.78.03-.25.58-.46.69-.39.27-.6.39-.4.25-.6.38-.54.07-.73.21-.43.24-.61.39-.3.4-.48.56-.21.48-.38.65-.58.11-.74.29-.36.34-.51.52-.31.38-.45.58-.1.52-.24.72-.25.41-.37.62-.4.34-.51.55.17.6.07.82-.18.43-.26.66c-.08.22-.63.3-.69.52s.06.52,0,.75.15.51.11.74-.55.4-.58.64.04.49.03.73.34.49.34.72-.28.48-.27.72.02.48.04.72.1.47.14.7.42.4.47.64-.07.49,0,.72-.22.56-.16.78.46.35.53.58.33.37.42.6-.11.55,0,.77.07.49.18.71.18.45.29.66.2.44.32.65.42.3.55.5.2.45.34.64.21.45.36.63.5.21.66.39.44.24.6.41.01.65.18.82.7-.04.87.12.24.43.42.59.42.23.6.38.34.33.53.47.28.43.48.56.57-.02.77.1.2.61.41.72.47.13.69.23.43.22.65.31.46.14.68.22.53-.09.75-.03.38.41.61.47.44.23.68.28.47.12.71.15c.24.03.49.08.74.1s.5-.06.75-.05.49-.07.74-.07.48-.26.72-.27.48-.04.72-.07.48-.02.72-.06.47-.12.71-.17.57.3.8.24.42-.32.66-.39.46-.18.69-.26.55.06.77-.03.47-.17.69-.27.36-.39.58-.5.42-.25.64-.36.33-.4.54-.52.51-.1.71-.24.55-.08.75-.23.11-.65.3-.8.36-.32.54-.48.63-.05.8-.22.07-.6.24-.78.41-.28.56-.47.1-.53.24-.72.7-.11.83-.31-.02-.59.1-.8.3-.39.41-.6.34-.38.44-.6.25-.43.33-.66.16-.47.23-.7-.14-.54-.08-.78c.06-.23-.03-.49.02-.72s.28-.43.31-.66.38-.44.4-.68-.18-.5-.17-.73-.09-.48-.09-.71.13-.49.12-.72-.31-.44-.34-.68.21-.52.16-.75-.46-.38-.52-.61-.04-.47-.11-.7.03-.51-.05-.73-.28-.4-.37-.62,0-.52-.1-.73-.06-.51-.17-.72-.33-.37-.45-.58-.42-.31-.54-.51,0-.57-.14-.77-.69-.08-.84-.27-.13-.5-.28-.68-.39-.28-.55-.46-.38-.28-.55-.45-.09-.58-.27-.74-.55-.09-.73-.25-.15-.56-.34-.71-.54-.07-.73-.21-.4-.24-.6-.37-.37-.29-.57-.42-.23-.56-.44-.67-.46-.16-.67-.27-.51-.03-.73-.13-.46-.11-.69-.2-.47-.09-.69-.16-.35-.48-.58-.54-.45-.21-.68-.26-.5.03-.73,0Z"/><path class="cls-1" d="m29.75,22.56c0-.23-.08-.49-.14-.71s-.02-.55-.13-.74c-.12-.2-.48-.27-.64-.41-.18-.15-.45.02-.67-.03-.23-.05-.4-.29-.63-.22s-.47.12-.65.27c-.17.14-.37.32-.5.52s-.03.49-.1.72-.07.42-.07.65c0,.24-.37.55-.3.77s.57.28.69.47.27.31.46.44.28.6.52.63c.28.03.56-.26.8-.39s.59-.17.77-.39c.17-.2.08-.59.18-.84s.41-.48.42-.75Z"/><path class="cls-1" d="m5.03,42.64c-.08.21.09.26,0,.5-.08.21-.24.41-.32.64-.08.22-.19.43-.27.67-.07.22-.03.48-.1.72-.07.22-.16.44-.23.68-.06.23-.47.36-.53.6s.24.55.18.79-.48.38-.53.62-.17.46-.21.7.15.51.1.75-.12.46-.16.7-.13.47-.16.71-.17.46-.2.71-.11.48-.13.72.53.52.51.77-.08.47-.09.71-.33.47-.33.71-.08.48-.08.72.42.48.43.72-.01.48,0,.72-.03.48-.01.72-.35.51-.33.76.11.48.14.72c.03.24.05.49.08.73s.04.49.08.73.3.44.34.68-.25.54-.21.78.11.48.16.71.46.39.52.63.11.47.18.7.27.42.34.65-.28.59-.21.82.21.44.28.67.01.51.09.74.39.37.48.59.45.34.54.56-.05.54.04.76.12.48.22.7.18.46.28.67.41.34.52.55.25.41.36.62c.12.22-.13.63,0,.83.12.22.62.21.74.4.13.21.27.41.39.6.13.21-.09.64.04.83.14.21.45.28.58.46-.03-.24.14-.49.11-.73s-.32-.45-.34-.69-.01-.48-.04-.72.09-.5.07-.74-.18-.47-.2-.71.24-.51.22-.75-.46-.44-.49-.68-.09-.48-.12-.72-.05-.48-.08-.72.2-.51.17-.75.01-.49-.01-.73-.16-.47-.19-.71-.26-.46-.29-.7.28-.52.25-.76,0-.49-.03-.73-.05-.48-.07-.72-.27-.46-.29-.7-.06-.48-.09-.72.13-.5.11-.74-.46-.44-.49-.68-.05-.48-.07-.72.44-.53.41-.77-.24-.46-.27-.7-.31-.45-.34-.69.42-.53.4-.77-.14-.47-.17-.71-.42-.44-.44-.68.23-.51.2-.75-.04-.48-.06-.72-.1-.47-.13-.72-.4-.44-.43-.68.11-.5.09-.74.3-.52.28-.76-.38-.44-.41-.69-.23-.46-.26-.7.26-.51.23-.75.09-.5.06-.74,0-.49-.03-.73,0-.49-.03-.73-.25-.46-.27-.7.04-.49,0-.73.05-.49.02-.73-.31-.45-.34-.69-.13-.24-.15-.48Z"/><path class="cls-3" d="m44.92,82.53c.22-.04.35-.33.56-.41s.44-.07.63-.2.28-.33.44-.49.55-.1.69-.28.24-.4.35-.6.22-.41.29-.63.2-.44.23-.67,0-.48,0-.71c0-.24,0-.51-.04-.74s-.05-.52-.13-.74-.18-.49-.3-.69-.69-.1-.84-.28-.25-.37-.43-.53-.3-.35-.49-.48-.38-.27-.59-.36-.46-.04-.69-.1-.42-.11-.66-.11-.51-.33-.74-.27c-.23.05-.33.48-.55.58s-.61-.09-.8.06-.44.28-.6.46-.13.53-.26.73-.28.4-.38.62-.23.44-.28.68-.2.48-.22.72-.07.52-.04.76c.03.25.63.37.7.6s.1.44.2.65-.04.58.11.77.26.44.43.61.62,0,.82.13.36.26.58.36.4.22.63.28.42.47.66.48.49-.19.73-.23Z"/><path class="cls-1" d="m45.07,82.77c.23-.04.49-.07.71-.17s.37-.32.56-.46.18-.47.34-.64.29-.31.42-.51.33-.32.42-.55.16-.42.2-.66.07-.45.07-.69c0-.24.18-.51.13-.74s-.33-.4-.42-.62-.19-.43-.32-.63-.24-.42-.4-.59-.49-.15-.68-.29-.31-.36-.52-.47-.45-.08-.68-.14-.41-.42-.64-.43-.5.04-.73.09c-.24.05-.5.13-.73.25s-.49.21-.68.38-.35.39-.5.59-.34.4-.45.63-.29.46-.36.7-.15.53-.17.78.51.49.54.74c.03.25.02.46.09.7s.09.47.21.69.22.43.38.62.41.26.6.42.35.3.57.42.31.54.55.61.55-.24.79-.22.49.27.74.22Z"/><path class="cls-1" d="m94.33,42.81c-.05-.22.25-.58.15-.77s-.33-.37-.49-.53c-.17-.17-.54.02-.74-.08-.21-.1-.32-.44-.54-.44-.24,0-.54,0-.74.13s-.32.38-.46.58c-.13.18-.29.39-.37.62s0,.48-.01.72.26.4.32.63c.06.23.11.39.23.59s.15.43.33.58.35.28.56.36.42.12.65.08c.27-.04.62.01.82-.17s.19-.53.31-.79c.11-.24.19-.48.22-.76s-.17-.48-.23-.75Z"/></svg>