<?xml version="1.0" encoding="UTF-8"?><svg id="dårlige" xmlns="http://www.w3.org/2000/svg" width="100" height="100" viewBox="0 0 100 100"><defs><style>.cls-1{fill:#c9152a;}.cls-1,.cls-2,.cls-3{stroke-width:0px;}.cls-2{fill:#e84928;}.cls-3{fill:#eb5b27;}</style></defs><path class="cls-2" d="m65.28,31.09c-.19-.16-.25-.45-.43-.6s-.54-.13-.71-.29-.12-.57-.29-.74-.55-.14-.71-.31-.24-.44-.4-.61-.41-.28-.57-.46-.19-.47-.33-.66-.15-.49-.29-.68-.42-.29-.55-.48-.35-.35-.48-.55-.4-.32-.52-.53.03-.58-.09-.78-.29-.39-.4-.6-.32-.38-.43-.59-.03-.52-.14-.74-.12-.47-.22-.69-.26-.4-.36-.62-.23-.43-.32-.64-.3-.39-.4-.61-.01-.52-.11-.74-.24-.42-.33-.64-.59-.26-.69-.48-.09-.48-.19-.7-.27-.4-.37-.61-.25-.4-.36-.61.06-.57-.06-.78-.2-.44-.32-.64-.23-.42-.35-.63-.36-.33-.5-.53-.12-.5-.26-.69-.39-.31-.53-.5-.4-.28-.56-.47-.15-.5-.31-.68-.28-.4-.45-.57-.3-.38-.48-.55-.57-.09-.75-.25-.14-.57-.33-.72-.38-.3-.57-.45-.53-.1-.72-.24-.24-.49-.44-.63-.63.1-.84-.03c-.1-.06-.35-.12-.66-.3-.18-.1-.39-.2-.64-.33-.2-.1-.28-.46-.51-.58-.2-.1-.34-.39-.57-.5-.21-.1-.42-.23-.65-.33-.21-.1-.42-.24-.66-.33-.22-.09-.5-.04-.74-.13s-.56.12-.79.04-.44-.2-.67-.28-.33-.55-.56-.63-.58.25-.82.18-.37-.46-.61-.53-.5,0-.74-.05-.53.18-.77.13-.4-.45-.64-.49-.5.08-.75.04-.48-.08-.72-.11-.51.18-.75.16-.45-.36-.7-.37-.49.17-.74.16-.48-.03-.72-.03-.48-.03-.72-.03-.49-.18-.73-.17-.49-.01-.73,0-.51-.16-.75-.14-.44.44-.68.48-.45.24-.69.28c-.24.04-.49-.06-.72,0s-.46.13-.69.18-.46.12-.69.18-.51-.07-.74,0-.42.24-.65.32-.45.16-.67.24-.57-.14-.79-.05-.3.52-.52.62-.39.28-.61.38-.45.16-.66.27-.61-.13-.82-.02-.25.53-.46.65-.4.26-.6.38-.56,0-.76.14-.17.6-.37.74-.5.12-.69.26-.46.18-.65.32-.38.29-.57.44-.25.45-.43.61-.58.07-.75.22-.03.67-.21.83-.35.31-.53.48-.66,0-.83.17,0,.67-.16.85-.66.04-.82.21-.11.54-.27.72-.2.45-.36.63-.34.33-.49.51-.38.3-.53.49-.56.17-.71.36-.04.57-.19.76-.35.34-.49.53-.36.33-.49.53-.33.36-.46.55-.28.39-.41.59-.09.51-.21.72-.18.45-.3.65-.3.38-.42.58-.08.5-.2.71-.63.2-.75.41.02.56-.09.77-.43.31-.54.53.21.64.1.85-.27.39-.38.61-.48.3-.58.52-.03.51-.13.73-.45.33-.55.54-.15.46-.24.68-.24.42-.33.65.07.54-.01.77-.24.42-.32.64-.11.47-.19.7-.18.44-.26.67-.42.36-.5.59.01.51-.06.74-.21.44-.28.67.05.52-.02.75-.32.41-.38.64.08.52.02.75-.4.39-.46.63.38.58.33.81-.27.43-.32.66-.32.43-.36.66.04.49,0,.72c-.04.24-.06.48-.1.71s-.15.46-.18.7-.02.48-.05.72-.1.47-.13.71.28.51.26.75-.16.47-.17.7-.04.48-.06.71-.37.46-.38.7-.08.48-.08.72.17.49.16.73-.05.48-.05.72.04.48.05.72.09.48.1.72-.02.48-.01.72.02.48.03.72.24.46.26.7-.04.48-.01.72.06.47.09.71.12.47.15.7.1.47.13.7-.33.53-.29.77.36.43.4.66.17.45.21.69-.34.55-.29.79.47.39.52.63-.03.5.02.73.04.48.1.72-.02.5.04.73.16.46.23.69.09.48.16.71.37.39.44.62.29.41.36.64.21.43.29.66-.23.58-.15.81.46.35.54.57-.15.56-.06.79.07.49.16.71.5.32.59.54.19.44.28.66.35.37.45.59.18.44.28.66-.14.59-.04.81.39.34.5.56.21.43.32.64.07.5.18.72.54.26.65.47.16.46.27.67.16.46.28.66.3.38.42.58.18.45.3.65,0,.56.12.77.19.45.32.65.66.14.8.34.18.45.31.65.08.52.22.72.49.24.63.43.05.56.19.75.29.39.43.58.2.46.34.65.31.37.46.56.64.09.8.28.05.59.2.77.27.41.42.59.64.07.8.25.01.64.17.81.46.23.63.4.33.35.49.52.28.4.45.57.55.12.72.29.38.29.55.46.12.57.29.74.33.35.51.51.26.44.44.6.66-.03.84.12.12.6.31.76.51.14.7.28.45.2.64.35.26.45.45.59.46.18.66.32.3.4.5.54.56.03.76.17.42.23.62.36.31.4.51.53.38.3.58.42.4.26.61.38.45.19.65.31.36.34.57.46.4.26.61.38.55-.02.77.09.27.52.49.63.54,0,.76.1.29.51.5.62.6-.15.82-.05c.22.1.27.57.49.67s.51.04.73.13.51.02.73.11.44.2.66.28.44.19.67.27.51,0,.74.07.29.65.52.72.6-.28.82-.21.43.22.66.29.39.39.62.45.48.08.71.14.53-.15.77-.09.42.31.65.36.51-.08.75-.03.44.23.67.28.48.07.71.12.48.02.72.06.43.33.67.37.48.04.72.07.5-.06.73-.03.45.28.69.31.48.09.71.12.51-.24.75-.21.45.35.69.37.48.05.72.07.49-.14.73-.13.48.06.72.07.47.18.71.19.48.05.72.06.49-.31.73-.31.48.05.72.05.48.06.72.05.49.23.73.22.48-.16.72-.17.47-.25.71-.26.47-.09.71-.1.47-.09.71-.11.48.05.72.03.49.04.72.01.47-.07.71-.1.52.27.76.24.47-.16.7-.19.43-.35.67-.39.47-.09.71-.13.49.03.73-.01.43-.28.67-.33.51.11.75.06.47-.11.7-.16.47-.11.7-.16.51.07.75,0,.5,0,.73-.06.33-.61.56-.67.57.25.8.18.34-.52.57-.59.49-.05.71-.13.56.16.79.08.48-.08.71-.16.44-.2.67-.29.32-.52.54-.61.53.04.76-.05.36-.38.58-.48.38-.33.6-.42.56.08.78-.02.46-.15.68-.26.37-.33.59-.44.48-.12.69-.23.31-.44.52-.55.43-.21.64-.33.55,0,.76-.12.33-.38.54-.51.49-.12.69-.25.38-.3.58-.43.34-.35.54-.48.59.01.79-.12.14-.63.33-.77.58-.02.77-.17.4-.27.59-.42.16-.58.34-.73.63,0,.81-.15.27-.43.45-.59.31-.38.49-.54.44-.24.61-.4.07-.62.24-.79.59-.09.76-.26.38-.3.55-.47.39-.3.55-.48.36-.33.52-.51.15-.5.31-.69.28-.39.43-.58.12-.51.26-.7.24-.41.38-.6.32-.36.45-.55.55-.21.68-.41.25-.41.38-.61.36-.35.48-.55-.02-.57.1-.78c.12-.21.22-.43.33-.64s.54-.26.65-.48-.11-.59,0-.81.11-.48.21-.7.26-.41.35-.63.34-.38.43-.6.05-.5.14-.72.1-.47.19-.7.5-.33.58-.56-.23-.59-.16-.82.51-.34.58-.57.03-.5.09-.73.27-.43.33-.66.22-.45.28-.68.14-.47.2-.7-.08-.52-.03-.75-.04-.5,0-.74.37-.42.41-.66-.19-.52-.15-.76.03-.48.06-.72.12-.47.15-.71.24-.46.26-.7-.34-.52-.32-.76.52-.44.53-.68-.41-.51-.4-.75.05-.48.06-.72-.08-.48-.07-.72.08-.48.08-.72.23-.49.22-.73.16-.49.14-.73-.34-.46-.36-.7-.05-.48-.07-.72.16-.5.13-.74.09-.5.05-.74-.16-.47-.2-.71.02-.5-.02-.74-.49-.39-.54-.63.12-.53.06-.76.02-.51-.05-.75-.54-.34-.61-.57-.23-.43-.31-.65-.17-.44-.26-.67.04-.54-.06-.76-.31-.39-.41-.6-.05-.52-.16-.73-.25-.42-.37-.63-.1-.51-.23-.71-.33-.37-.47-.57-.27-.41-.41-.6-.64-.1-.8-.28-.19-.46-.36-.64c-.17-.18-.21-.48-.38-.64s-.3-.4-.48-.56-.31-.41-.5-.56-.71.13-.9,0-.11-.72-.31-.85-.46-.21-.67-.33-.64.18-.85.07-.35-.4-.57-.49-.45-.19-.67-.27-.52.03-.75-.04-.39-.4-.62-.46-.5.03-.74-.03-.47-.13-.7-.18-.44-.34-.68-.37-.48-.07-.72-.1-.48-.08-.72-.11-.49.05-.73.02-.5.15-.74.12-.46-.22-.7-.24-.5.19-.75.16-.47-.15-.71-.18-.44-.35-.68-.38-.52.24-.76.2-.45-.24-.69-.28-.54.3-.79.26-.38-.6-.62-.65-.55.24-.78.19-.39-.42-.63-.48-.45-.16-.68-.23-.58.25-.81.18-.45-.18-.68-.26-.43-.25-.65-.34-.52-.03-.74-.13-.46-.18-.68-.28-.24-.61-.46-.72-.52-.05-.73-.17-.33-.39-.54-.52-.39-.28-.59-.42-.52-.09-.72-.23-.45-.21-.65-.35-.46-.21-.65-.36-.31-.4-.5-.55Z"/><path class="cls-3" d="m25.47,10.69c-.22-.12-.29-.58-.52-.65s-.53.06-.78.03-.49-.04-.74-.03-.43.34-.68.38-.55-.3-.79-.23-.38.4-.61.49-.55-.07-.78.03-.41.27-.63.38-.37.33-.59.45-.37.32-.57.46-.63-.05-.83.09-.42.27-.62.42-.09.68-.27.83-.44.24-.62.4-.42.27-.6.44-.22.47-.39.65-.3.38-.46.56-.61.13-.76.31-.1.55-.24.74c-.14.18-.44.27-.58.47-.13.19-.21.43-.35.64-.13.2-.43.31-.55.52s-.3.39-.42.61.12.61.01.83-.17.45-.27.67-.44.34-.53.56,0,.52-.08.75-.33.41-.39.64-.08.49-.13.72-.29.46-.32.69.3.52.29.76-.4.51-.37.75.21.49.27.72.33.4.43.62.06.53.22.72c.16.2.42.31.6.47s.37.36.58.48.51.07.75.15.41.42.65.47.51.15.75.18c.26.03.54-.2.77-.19.27.01.52.07.75.06.32,0,.58.08.75.06.24-.02.45-.27.69-.31s.53.22.76.17.45-.19.68-.26.41-.28.64-.36.54.05.76-.04.23-.62.45-.72.44-.17.65-.29.64.13.84,0,.4-.29.59-.43.08-.67.27-.82.51-.12.69-.28.51-.17.67-.34,0-.66.16-.83.46-.23.61-.41.3-.36.45-.56.26-.4.39-.6.25-.4.37-.61.34-.36.45-.57.18-.44.28-.66.08-.48.17-.7.09-.46.16-.69.17-.44.22-.67.21-.44.25-.67.36-.44.39-.68.05-.49.05-.73-.49-.47-.51-.71c0-.13.1-.38.06-.7-.02-.21.32-.5.27-.76-.04-.22-.21-.44-.27-.68-.06-.22-.15-.45-.23-.68s-.41-.34-.51-.56-.03-.51-.15-.72-.29-.38-.44-.56-.4-.26-.58-.41-.41-.19-.62-.3Z"/><path class="cls-1" d="m23.62,10.49c-.21-.12-.47-.06-.7-.13s-.42-.25-.66-.27-.48-.07-.72-.05-.46.1-.7.16-.51-.04-.74.04-.32.49-.55.59-.43.18-.64.29-.59-.08-.8.04-.21.57-.41.7-.54.06-.74.2-.26.45-.44.6-.51.14-.69.3-.27.42-.45.58-.27.4-.44.57-.69.01-.85.19-.02.63-.17.81-.61.14-.75.33c-.14.18.08.64-.07.85-.13.19-.56.21-.69.42-.13.2-.12.49-.25.71s-.07.52-.18.73-.42.33-.52.55-.13.48-.22.71-.39.38-.47.61.18.57.11.81-.51.39-.56.63.1.53.08.77-.03.5-.02.74.34.43.39.67-.25.58-.15.8.46.28.61.48c.16.2.15.56.34.71s.46.24.69.35.5.1.74.17.5.05.74.09c.26.04.47.46.71.48.27.02.55.06.77.05.32,0,.56-.5.73-.51.24-.02.47.06.71.02s.48,0,.71-.05.4-.3.63-.37.42-.19.64-.28.58.16.8.05.3-.45.5-.57.51-.07.71-.2.36-.32.55-.46.5-.13.69-.29.41-.27.58-.43.07-.61.23-.79.28-.37.44-.55.51-.2.65-.38.13-.49.26-.69.41-.3.53-.5.19-.44.3-.65.39-.35.49-.56-.15-.57-.07-.79.53-.33.59-.56-.02-.5.03-.74-.11-.5-.08-.73.24-.46.25-.7-.1-.48-.12-.71c0-.13.05-.38,0-.7-.02-.2-.23-.41-.27-.66-.04-.22.17-.51.1-.74-.06-.22-.09-.48-.18-.7s-.42-.33-.53-.54-.19-.43-.34-.62-.23-.44-.41-.59-.46-.17-.67-.28Z"/><path class="cls-1" d="m82.17,38.41c.18-.02.14-.28.43-.29.21,0,.46.52.73.52.22,0,.47-.2.72-.18.23.02.44.21.7.24.23.03.5-.2.75-.15.23.04.47.1.71.15.23.05.44.22.67.29s.45.16.68.25.39.29.62.38.41.21.63.32.59-.1.81.02.33.38.54.52c.21.13.51.12.71.26s.42.27.61.42.39.31.56.47.39.32.55.49.18.51.33.69.43.28.58.47c.15.2.17.49.3.68.14.2.22.44.34.64.13.21.29.4.4.61.12.22.08.51.18.72.11.23.53.31.61.52.1.25.18.49.25.69.1.29-.04.44,0,.6-.2-.14-.51.06-.7-.07s-.25-.48-.45-.62-.52-.1-.72-.24-.28-.45-.48-.59-.47-.16-.67-.3-.46-.19-.66-.32-.12-.67-.32-.81-.63.06-.83-.08-.18-.59-.38-.72-.65.09-.85-.05-.2-.56-.4-.7-.48-.15-.68-.28-.51-.11-.71-.25-.27-.46-.47-.59-.44-.2-.64-.34-.27-.45-.47-.59-.6.02-.79-.12-.17-.6-.37-.74-.51-.12-.7-.25-.4-.27-.6-.41-.57-.02-.77-.16-.17-.6-.37-.74-.19-.22-.39-.35Z"/><path class="cls-3" d="m37.42,37.89c-.24,0-.48-.16-.72-.14s-.5-.15-.73-.12-.48.1-.71.13-.41.45-.65.49-.46.08-.7.13-.51-.1-.74-.05-.5,0-.73.07-.35.5-.57.57-.61-.31-.83-.23-.29.6-.51.68-.44.16-.66.25-.61-.2-.83-.1-.27.53-.49.64-.54,0-.75.12-.46.17-.66.29-.27.48-.47.61-.45.19-.64.32-.32.37-.51.51-.34.34-.52.49-.48.16-.66.32-.22.47-.4.62-.68-.03-.85.13-.03.65-.2.82-.6.09-.76.27-.14.52-.29.7-.54.18-.68.37-.31.37-.45.57-.3.39-.43.58-.12.5-.24.7-.33.37-.44.58-.23.43-.34.64-.13.47-.23.69-.26.41-.35.63.08.54,0,.77-.19.43-.27.66-.41.38-.47.61.18.54.13.77-.44.4-.48.64-.05.48-.09.72c-.03.24-.01.49-.03.73s.05.49.04.73.16.48.16.72-.11.48-.1.72-.14.49-.12.73.19.47.22.71-.16.52-.12.75.31.44.36.67-.08.52-.02.75.07.49.14.72.56.33.64.56-.13.56-.05.78.55.3.64.52-.09.56,0,.78.47.3.58.51-.21.66-.09.87.46.3.58.5.24.42.37.62.42.29.56.49.35.33.5.52.16.48.31.66.35.33.5.51-.02.66.14.84.73-.03.9.15-.04.72.14.88.5.18.68.34.25.45.43.61.54.11.73.26.37.3.56.45.33.37.52.51.38.29.58.43.34.38.54.5.4.28.61.4.6-.08.81.04.35.37.57.47.51.04.73.14.45.16.67.25.44.17.67.26.46.13.68.21.39.36.62.43.5,0,.73.05.43.27.66.32.46.16.69.21.48.04.72.08.46.23.7.26.51-.3.75-.28.47.04.71.06.47.37.71.37.48-.38.72-.39.49.24.73.22c.24-.02.45-.25.69-.27s.5.16.73.12.45-.21.68-.25.44-.19.67-.24.58.37.81.31.35-.51.58-.58.57.22.8.15.31-.57.53-.65.57.15.79.06.38-.33.6-.42.35-.37.56-.48.52-.01.73-.12.38-.3.59-.42.52-.05.73-.18.22-.55.41-.68.62.07.82-.07.28-.43.47-.58.38-.29.56-.44.17-.53.35-.69.62-.02.8-.18.16-.53.33-.69.52-.15.69-.32.28-.39.44-.57.23-.43.38-.61.23-.42.38-.61.6-.15.74-.34.31-.38.44-.57-.14-.66-.02-.86.33-.35.45-.56.31-.37.42-.58.05-.5.15-.72.15-.44.25-.66.52-.3.61-.52-.09-.54-.02-.76.33-.39.39-.62.06-.48.12-.71.3-.42.35-.66.15-.47.19-.7-.33-.53-.3-.76,0-.47.02-.71.29-.46.3-.7c0-.24-.18-.49-.18-.73s.17-.49.16-.73-.08-.48-.1-.72.15-.51.11-.75-.42-.43-.46-.66.3-.55.25-.79-.25-.45-.31-.68-.32-.41-.39-.64.04-.52-.04-.75-.27-.42-.36-.64-.12-.48-.22-.7-.35-.37-.46-.58.02-.56-.09-.77-.19-.46-.32-.66-.47-.28-.6-.49-.22-.43-.36-.63-.2-.46-.34-.65-.48-.24-.63-.43-.07-.57-.23-.76-.38-.31-.55-.49-.43-.26-.6-.43-.18-.52-.35-.68-.67.01-.85-.15-.32-.36-.51-.51-.1-.65-.29-.8-.4-.29-.59-.43-.68.12-.88-.02-.27-.46-.47-.59-.3-.45-.51-.57-.65.16-.86.04-.33-.4-.55-.51-.43-.22-.65-.33-.45-.18-.67-.28-.45-.18-.67-.27-.41-.28-.64-.37-.47-.13-.7-.2-.49-.04-.73-.1-.48-.06-.71-.12-.46-.15-.69-.2-.45-.21-.69-.25-.43-.38-.67-.41-.49-.08-.73-.11-.53.44-.77.42-.47-.16-.71-.17-.48-.4-.72-.4-.48.44-.72.45Z"/><path class="cls-1" d="m36.78,37c-.24,0-.49-.21-.73-.2s-.51-.18-.75-.15-.45.3-.69.34-.53-.19-.77-.14-.47.17-.7.22-.49.08-.72.14-.35.52-.58.6-.55-.13-.78-.05-.49.08-.72.17-.43.23-.65.33-.43.22-.65.33-.33.43-.54.54-.6-.09-.81.03-.42.26-.62.39-.37.33-.57.46-.46.19-.66.34-.15.61-.34.75-.47.19-.65.34-.52.14-.7.3-.15.55-.32.72-.27.4-.44.58-.62.09-.78.27-.1.55-.25.74-.41.29-.56.49-.03.57-.16.77-.73.1-.86.31.06.6-.06.82-.19.44-.3.66-.34.37-.44.59-.35.38-.44.61.21.59.13.82-.57.33-.63.56.03.51-.03.75-.24.45-.28.69.34.54.31.78c-.03.24-.44.43-.46.67s.04.49.03.72.14.48.15.72-.34.49-.33.73.48.44.5.68-.4.53-.37.77.4.42.45.65.19.44.25.67-.2.55-.14.78.54.33.62.55-.12.54-.03.77.33.38.43.6.19.43.29.65-.11.59,0,.8.21.44.33.65.36.35.48.55.59.18.72.38.08.52.22.71.26.4.41.58.07.56.23.74.62.09.78.27.19.47.36.64.2.47.38.64.38.3.55.46.6.03.79.19.36.3.54.45.24.46.44.6.32.38.51.51.61-.05.81.07.15.67.35.79.64-.16.85-.05.4.24.62.34.24.6.45.7.58-.13.8-.04.35.41.57.5.42.24.65.32.54-.11.76-.04.43.21.66.27.49,0,.72.05.47.03.71.07.44.25.67.28.49-.15.73-.13.44.52.68.54.49-.42.73-.41.48.37.72.37.47-.26.7-.27c.24-.02.51.26.75.23s.49-.04.73-.07.49-.06.72-.1.44-.27.67-.33.49-.03.72-.09.47-.14.7-.21.43-.24.66-.32.48-.11.7-.2.33-.44.55-.54.45-.16.66-.27.56.03.77-.08.27-.5.48-.62.59.05.79-.08.39-.29.59-.42.37-.32.56-.46.33-.36.52-.51.26-.44.44-.6.43-.23.61-.39.47-.21.64-.38.24-.45.4-.62.5-.2.65-.39.14-.51.29-.7.45-.26.6-.45.34-.36.47-.56-.1-.64.03-.84.52-.25.64-.46-.12-.61,0-.82.49-.29.6-.5-.07-.55.02-.77.64-.27.72-.49-.07-.54,0-.77.16-.45.22-.69-.06-.51-.01-.74,0-.48.04-.72.23-.44.26-.68,0-.48.01-.72.49-.45.5-.7c0-.24-.54-.49-.55-.73s.52-.5.5-.74-.25-.47-.27-.71.11-.51.08-.75-.34-.44-.38-.67-.09-.47-.15-.71-.02-.49-.09-.73-.12-.47-.2-.7-.04-.51-.13-.73-.16-.47-.26-.69-.53-.29-.64-.5-.08-.5-.19-.71-.4-.32-.52-.53-.28-.38-.42-.58-.27-.39-.41-.58-.31-.36-.46-.55-.13-.51-.28-.69-.43-.26-.59-.44-.21-.46-.38-.63-.3-.38-.47-.55-.38-.3-.56-.46-.26-.44-.45-.59-.59-.03-.78-.17-.37-.29-.57-.43-.19-.57-.39-.7-.61.06-.81-.07-.28-.47-.49-.59-.52-.05-.73-.16-.33-.41-.55-.51-.49-.08-.71-.18-.48-.09-.7-.18-.28-.63-.5-.71-.59.22-.82.15-.35-.51-.59-.57-.58.3-.81.24-.39-.45-.63-.5-.5.06-.74.02-.5.12-.74.09-.45-.28-.69-.3-.49.05-.73.03-.48-.24-.72-.24-.47.43-.72.44Z"/><path class="cls-3" d="m83.61,83.23c.17-.16.22-.45.39-.62s.42-.26.58-.44.32-.35.48-.54.47-.24.62-.43.12-.52.26-.71.31-.37.44-.57.35-.35.47-.55-.12-.63,0-.84.5-.26.61-.47.39-.34.49-.55-.14-.6-.04-.81.07-.48.16-.7.52-.31.6-.53-.19-.56-.11-.79.15-.44.21-.67.44-.38.49-.61.02-.48.06-.72.16-.46.18-.7-.28-.5-.27-.73.5-.47.49-.71-.23-.48-.25-.71-.12-.46-.16-.7-.12-.46-.18-.68-.23-.41-.31-.64.04-.53-.06-.74-.09-.51-.22-.71c-.13-.2-.28-.41-.42-.6s-.29-.41-.45-.58-.55-.12-.73-.27-.23-.5-.42-.63-.53-.04-.74-.16-.44-.16-.66-.25-.35-.4-.58-.48-.49-.02-.72-.08-.44-.23-.67-.28-.49.08-.73.05-.46-.18-.7-.2-.48.29-.72.28-.46-.05-.7-.04-.46.12-.69.14-.49-.19-.73-.16-.51-.15-.74-.11-.42.33-.65.38-.53-.16-.76-.1-.44.2-.67.26-.47.11-.7.18-.31.54-.53.63-.55-.1-.77,0-.47.11-.69.21-.41.25-.62.36-.41.24-.62.36-.29.44-.5.56-.6-.06-.8.07-.39.28-.59.41-.35.34-.54.48-.44.21-.63.36-.11.61-.29.76-.45.21-.62.37-.51.16-.68.33c-.17.17-.11.55-.27.72s-.24.4-.4.58-.61.11-.75.29-.07.54-.21.73-.39.3-.53.49,0,.56-.13.76-.72.11-.84.32.08.59-.03.8-.18.44-.28.65-.34.36-.43.58-.35.37-.43.59.21.58.13.8-.57.31-.64.53.02.5-.04.73-.25.43-.3.66.32.54.29.77-.45.41-.47.65.03.48.02.72.14.48.14.71-.34.49-.32.72.48.43.52.66-.38.55-.33.78.43.38.5.61.24.4.33.62-.11.57,0,.78.6.19.73.38.03.55.18.73c.16.19.44.25.62.42s.34.32.53.47.19.58.39.71.42.28.64.39.51.09.74.18.58-.21.81-.14.4.34.64.4.47.12.71.15.46.35.7.37.5-.39.75-.38.48.18.73.17.5.16.75.14.49-.09.73-.13.42-.45.66-.49.47-.09.71-.14.52.09.75.03.5-.02.74-.09.33-.51.56-.6.63.29.85.2.27-.61.49-.71.44-.18.66-.29.63.17.85.05.25-.55.47-.67.55-.03.75-.16.46-.2.66-.33.25-.5.45-.64.44-.22.63-.37.31-.39.49-.55.32-.36.5-.53.58-.09.76-.26Z"/><path class="cls-1" d="m84.32,83.29c.18-.17.44-.26.61-.44s.08-.6.24-.78.42-.28.57-.47.47-.26.62-.45.03-.59.17-.79.22-.44.35-.64.66-.17.79-.38.04-.55.16-.76.07-.52.17-.73.43-.34.52-.56.01-.53.1-.75.09-.48.17-.71.29-.42.36-.65.05-.49.1-.73.36-.43.4-.67-.34-.54-.32-.78.08-.47.09-.71.4-.49.39-.73-.41-.46-.44-.7.35-.56.29-.8-.53-.36-.61-.59-.06-.48-.16-.7-.19-.44-.32-.65c-.13-.2-.23-.41-.38-.59s-.42-.24-.59-.41-.33-.31-.52-.45-.13-.65-.33-.78-.5-.1-.72-.2-.37-.37-.6-.46-.57.21-.8.14-.43-.2-.67-.25-.48.06-.72.03-.44-.26-.68-.27-.47.09-.71.08-.46.08-.7.09-.49-.24-.73-.21-.45.22-.69.25-.49-.05-.72,0-.47.09-.7.15-.52-.08-.75-.02-.39.35-.62.43-.46.12-.69.21-.48.09-.7.18-.26.59-.47.69-.56-.06-.77.05-.51.06-.72.18-.22.57-.42.7-.32.36-.52.49-.6-.04-.79.1-.16.57-.35.72-.37.28-.55.44-.58.06-.75.23-.29.38-.46.55c-.17.17-.4.29-.56.47s-.07.57-.23.76-.68.07-.83.26-.12.52-.26.71-.22.43-.35.64-.23.42-.36.63-.15.47-.26.68-.43.32-.54.53-.35.38-.45.6-.19.45-.28.68-.21.45-.29.67.13.55.07.78-.38.41-.43.64.14.53.1.76-.02.48-.05.72-.29.46-.3.7.11.49.11.73-.11.5-.09.73.21.46.25.7-.04.51.03.74.43.36.51.59.12.45.23.67.3.35.43.56.07.52.23.71c.15.18.16.51.33.68s.52.14.7.28.24.51.44.63.46.18.68.28.43.23.66.31.57-.24.8-.18.39.39.63.43.46.16.7.19.48-.01.72,0,.48-.02.72-.02.46-.26.69-.28.51.31.75.28.47-.09.71-.13.45-.17.69-.22.49-.02.72-.08.34-.51.57-.59.49-.01.71-.1.53.05.75-.04.32-.46.53-.56.38-.28.6-.39.6.13.81.02.27-.48.48-.6.48-.12.68-.25.22-.52.41-.65.71.17.9.02.15-.58.33-.73.33-.34.51-.5.5-.15.68-.32Z"/><path class="cls-3" d="m57.28,91.76c.25-.02.42-.45.66-.54s.58.03.79-.11.11-.62.3-.8.39-.27.53-.48.38-.33.5-.56.21-.44.29-.68.14-.47.18-.72.2-.48.21-.74c.01-.24-.07-.49-.09-.72s-.18-.45-.23-.69-.06-.47-.14-.7-.26-.4-.36-.61-.14-.46-.27-.66-.15-.49-.3-.67-.25-.46-.43-.62-.59-.03-.79-.16-.35-.35-.57-.43-.43-.35-.66-.38-.48.29-.72.33c-.23.03-.4.15-.62.25s-.66-.19-.85-.05c-.19.13-.23.49-.4.66-.16.17-.16.46-.3.66s-.46.27-.57.48-.02.5-.1.73-.05.45-.11.69-.23.43-.25.67.05.46.06.7c0,.25-.23.51-.19.75s.49.38.56.61.1.45.19.67-.15.62-.03.82.57.19.72.38,0,.66.18.82.63-.02.83.11.34.33.56.42.43.18.67.22.49.37.73.35Z"/><path class="cls-1" d="m57.37,91.63c.22-.02.5.15.71.07s.52-.07.71-.2.14-.56.31-.72.29-.32.43-.51.42-.27.52-.48,0-.49.07-.71.39-.37.43-.6.03-.47.04-.7c.01-.24-.25-.47-.28-.71s-.17-.43-.23-.66.24-.57.16-.79-.09-.51-.21-.72-.56-.23-.7-.42-.1-.56-.26-.72-.62,0-.81-.14c-.2-.14-.32-.32-.53-.42s-.39-.29-.62-.33-.47-.05-.7-.01c-.24.04-.46.11-.68.21-.21.1-.49.13-.69.29-.18.15-.32.37-.48.56-.15.18-.19.44-.32.66s-.28.39-.37.62-.06.47-.12.71-.18.44-.21.69-.19.48-.18.72c0,.25-.09.53-.05.76s.44.41.51.63.04.5.15.72.06.55.2.75.55.2.71.37.38.28.57.42c.2.15.18.68.39.78.23.11.57-.03.8.02s.48-.1.72-.12Z"/><path class="cls-1" d="m63.67,31.99c-.19-.13-.28-.38-.49-.45s-.44-.05-.66-.06c-.23,0-.44-.03-.65.03-.22.07-.42.15-.57.31-.17.17-.45.31-.51.54s.21.48.25.72c.03.22-.13.51-.03.73s.13.53.28.71.58.07.78.2c.2.13.39.21.62.27s.45.29.68.28.43-.25.64-.35.58-.04.73-.23c.17-.22.25-.57.28-.84s-.27-.5-.36-.76c-.09-.25-.29-.38-.45-.6s-.3-.35-.53-.5Z"/><path class="cls-1" d="m2.58,43.03c0,.23-.14.52-.09.74s.63.25.74.44c.12.2.07.47.23.62.18.15.32.38.54.43.23.05.49-.02.71-.09s.26-.39.45-.54c.17-.14.45-.16.58-.36s.17-.41.24-.63.15-.42.15-.66c0-.24,0-.46-.07-.69s0-.55-.13-.74-.5-.19-.69-.32-.33-.44-.57-.46c-.28-.03-.67-.1-.92.03s-.25.59-.42.81c-.17.2-.29.41-.38.67s-.35.48-.37.75Z"/></svg>