<?xml version="1.0" encoding="UTF-8"?><svg id="uuid-64856fe9-4bb7-4ea0-84ec-f832bbdba516" xmlns="http://www.w3.org/2000/svg" width="170" height="170" viewBox="0 0 170 170"><defs><style>.uuid-b375c0cf-3510-4fac-bb21-f30eb19a0a93{fill:#0071bc;stroke-width:0px;}</style></defs><g id="uuid-fb6e7e64-8713-4daa-9c8f-85d7b428542f"><path class="uuid-b375c0cf-3510-4fac-bb21-f30eb19a0a93" d="m94.77,149.46c-.29-.34-.53-.15-.82-.49s.23-.79-.06-1.13-.62-.07-.91-.42.05-.63-.24-.98-.32-.32-.61-.67-.25-.38-.54-.72-.69-.01-.98-.36-.16-.45-.45-.8-.25-.37-.54-.72-.05-.54-.34-.89-.27-.36-.56-.7-.72.02-1.01-.33-.47-.2-.76-.54.12-.69-.17-1.04-.22-.4-.51-.75-.27-.37-.56-.71-.23-.39-.52-.74-.89.16-1.18-.19-.22-.41-.51-.75.04-.63-.25-.97-.36-.29-.65-.63-.64-.05-.93-.4-.05-.54-.34-.88-.02-.57-.3-.92-.43-.22-.72-.57-.03-.57-.32-.91-.45-.21-.74-.56-.71,0-1-.34.05-.63-.24-.98-.1-.51-.39-.85-.27-.37-.56-.71-.43-.23-.72-.58-.21-.41-.5-.76-.53-.15-.82-.49-.01-.58-.31-.93-.33-.31-.62-.66-.77.06-1.06-.29,0-.59-.29-.94,0-.59-.3-.94-.58-.11-.87-.46-.27-.37-.56-.72-.37-.29-.66-.64c-.19-.23-.2-.7-.43-.89s-.73-.03-.99-.16-.44-.55-.72-.64-.62-.18-.92-.21-.64.07-.93.1c-.45.04-.39.61-.84.65s-.52-.73-.97-.68-.39.68-.84.72-.45.03-.9.07-.49-.37-.94-.33-.41.41-.86.45-.45.04-.9.09-.49-.36-.93-.32-.43.2-.88.25-.45.02-.9.06-.42.29-.87.34-.5-.47-.95-.42-.41.48-.86.53-.45,0-.9.04-.41.43-.86.47-.47-.15-.92-.11-.48-.26-.93-.22-.43.19-.88.23-.46-.07-.91-.03-.47-.21-.92-.16-.39.61-.84.65-.43.21-.88.25-.46-.02-.91.02-.43.21-.88.25-.51-.6-.96-.55-.46-.07-.91-.03-.4.56-.85.6-.45.05-.9.09-.49-.41-.94-.37-.39.63-.84.67-.47-.18-.92-.13-.49-.35-.94-.31-.44.12-.89.16-.39.69-.84.73-.54-.87-.99-.82-.39.69-.84.74-.47-.2-.92-.16-.4.53-.85.57-.45.08-.9.12-.48-.23-.93-.19-.45.07-.91.11-.47-.11-.92-.06c-.32.03-.64-.05-.94-.08-.31-.03-.69.11-.97.02s-.47-.51-.74-.66-.63-.19-.86-.39-.43-.46-.62-.71,0-.69-.13-.97-.9-.33-.98-.62-.08-.68-.1-.99.34-.62.39-.93.26-.54.37-.83.47-.38.64-.65c.24-.38-.53-.86-.29-1.24s.51-.21.75-.6.27-.36.51-.74.71-.09.95-.47.2-.4.44-.79-.32-.73-.09-1.11.82-.02,1.06-.4-.12-.61.11-.99.09-.47.33-.85,0-.53.24-.91.28-.35.52-.74.66-.12.9-.5.23-.39.47-.77.29-.35.53-.73-.13-.61.11-1,.77-.05,1.01-.43-.29-.71-.05-1.09.63-.14.87-.52-.06-.57.18-.95.59-.17.83-.55.15-.44.39-.82-.24-.68,0-1.07.96.07,1.2-.32-.11-.6.13-.99-.09-.58.15-.96.18-.42.42-.8.79-.04,1.03-.42.33-.33.57-.71.2-.41.44-.79-.3-.72-.06-1.1.31-.34.55-.72.68-.11.92-.5.28-.36.52-.74.22-.4.46-.78-.36-.76-.12-1.14.53-.21.77-.59.52-.21.76-.59-.29-.72-.05-1.1.43-.26.67-.65.34-.33.58-.71.66-.13.9-.52.05-.51.29-.89c.16-.25-.22-.76-.11-1.03s.93-.37.98-.66.07-.67.07-.97-.42-.59-.48-.88.07-.68-.04-.95c-.18-.41-.29-.36-.47-.78s-.02-.48-.2-.9-.97-.07-1.15-.49.17-.57,0-.98.22-.59.04-1-.08-.46-.26-.87-.61-.23-.79-.64-.09-.45-.27-.86-.32-.35-.5-.76.19-.57.01-.99-.77-.16-.95-.57-.09-.45-.27-.87.43-.68.25-1.09-.25-.38-.43-.8-.34-.34-.52-.76.01-.5-.17-.91-.39-.32-.57-.74-.45-.29-.63-.71.27-.61.09-1.03-.17-.42-.35-.83-.57-.24-.75-.66-.07-.46-.25-.88-.06-.46-.24-.88-.59-.24-.77-.65-.3-.36-.48-.78.22-.59.04-1,.05-.51-.13-.93-.86-.12-1.04-.53-.18-.41-.36-.83.55-.73.37-1.14-.14-.43-.32-.84-.97-.07-1.15-.49.69-.79.51-1.21-.21-.4-.39-.82-.85-.12-1.03-.54.25-.6.07-1.02-.24-.39-.42-.81-.41-.31-.59-.73-.43-.31-.61-.72-.16-.42-.35-.84,0-.5-.19-.91.09-.53-.1-.95c-.13-.29-.22-.57-.29-.86-.07-.31-.1-.6-.1-.9s-.44-.7-.38-.99.58-.5.7-.78.24-.56.41-.82.24-.62.46-.83.65-.16.91-.33.57-.12.86-.23.51-.22.82-.27.56-.32.87-.3.72-.44,1.03-.37c.44.11.35.47.79.58s.5-.12.93-.01.26.82.7.93.62-.62,1.06-.51.24.91.68,1.02.53-.26.96-.15.35.44.79.55.42.16.86.26.45.05.89.16.58-.49,1.02-.38.42.17.86.28.34.52.77.63.45.06.89.17.5-.14.94-.04.43.12.87.23.33.55.76.66.46,0,.9.11.44.1.88.21.62-.62,1.06-.52.35.47.79.58.32.6.75.71.65-.73,1.08-.62.26.84.69.95.47,0,.9.11.4.25.84.35.51-.2.95-.09.37.41.8.51.43.13.87.24.5-.13.93-.02.42.17.86.28.4.27.84.37.46.02.9.13.63-.65,1.07-.54.42.17.86.28.45.05.89.16.36.42.8.52.45.06.89.17.43.12.87.23.28.74.72.85.58-.45,1.02-.34.41.23.85.34.36.45.8.56c.29.07.64.13.94.14s.58-.5.87-.55.7.33.98.23.63-.18.89-.33.05-.92.28-1.12c.34-.3.44-.19.77-.49s.18-.48.52-.78.96.4,1.29.1.02-.66.36-.95.16-.49.5-.79.6,0,.94-.3.15-.51.48-.81.26-.39.59-.69.7.12,1.04-.18.18-.48.51-.78.65.05.99-.25-.18-.89.16-1.19.61,0,.95-.29.21-.45.55-.75.44-.18.78-.48.38-.25.72-.55.54-.07.88-.37.3-.35.63-.64-.03-.72.3-1.02.68.08,1.01-.22.16-.5.49-.8.49-.13.83-.43.45-.17.78-.47-.16-.86.18-1.15.49-.12.83-.42.44-.19.77-.49.5-.12.84-.42.37-.26.71-.56.33-.31.67-.61.29-.36.63-.65-.05-.74.29-1.04.71.11,1.05-.19.19-.46.53-.76.13-.54.47-.84.84.27,1.18-.03.16-.5.5-.8-.15-.85.19-1.15.64.04.98-.26.53-.09.87-.39.35-.29.69-.59.31-.34.65-.64.45-.18.79-.48c.24-.21.16-.82.41-.97.27-.16.65-.11.94-.21s.55-.54.85-.58.62.79.92.82.75-.71,1.04-.62.47.56.74.71.66.14.9.33.53.4.73.64.45.51.59.78.41.58.49.88-.63.74-.61,1.05c.03.45.83.39.86.84s-.41.48-.38.93-.32.48-.29.93.79.4.82.85.09.44.12.89.02.45.05.9-.39.48-.35.93-.32.47-.29.92.1.44.14.89.49.42.52.87-.36.48-.33.93.26.43.3.88-.1.46-.07.91-.3.47-.26.92.16.44.19.89.46.42.49.87-.23.47-.2.92.02.45.05.9.11.45.14.9-.12.46-.09.91.68.4.71.86-.37.48-.34.93,0,.45.02.9-.38.48-.35.93.55.41.58.87.28.43.31.88-.11.46-.08.91,0,.45.03.9.3.43.33.88-.16.46-.13.91-.54.49-.5.94.64.41.68.86-.5.49-.47.94.2.44.23.89-.26.47-.23.93.23.44.26.89.48.42.51.87-.19.47-.16.92-.43.49-.39.94.36.43.39.88-.13.47-.1.92.19.44.22.9c.02.3-.29.7-.22.98s.99.25,1.12.52-.3.86-.13,1.09.34.57.56.77.48.47.73.62c.39.23.45.12.84.35s.61-.15,1,.08.53-.02.92.21.14.66.53.88.47.09.86.32.16.61.55.84.55-.05.94.18.57-.08.96.15.3.38.68.61.13.66.52.89.36.27.75.5.62-.17,1.01.06.18.58.57.81.4.2.79.43.63-.18,1.02.05.23.5.62.73.34.31.73.54.38.24.77.47.42.18.81.41.64-.19,1.03.04.42.17.81.4.3.38.69.61.35.29.74.52.57-.08.96.15.06.78.45,1.01.67-.25,1.06-.02.22.52.61.75.26.45.65.68.63-.18,1.02.04.36.28.75.51.28.41.67.64.61-.14,1,.09.37.26.76.49.29.4.68.63.49.06.88.29,0,.88.4,1.11.74-.36,1.13-.14.05.81.44,1.03.74-.37,1.14-.14.37.27.76.5.43.17.82.4,0,.91.39,1.14c.27.16.52.22.74.42.24.21.51.3.69.55s.43.43.55.71.77.43.84.73-.7.72-.69,1.03.07.56.01.87-.2.52-.31.81.16.74,0,1-.39.49-.61.71-.24.76-.5.93-.69.13-.99.25c-.42.17-.46.07-.87.24s-.56-.18-.98-.01-.25.59-.67.76-.64-.37-1.06-.2-.32.42-.73.59-.3.47-.71.64-.37.28-.79.45-.5-.04-.92.13-.45.08-.87.25-.55-.15-.96.02-.33.39-.75.56-.25.59-.67.76-.47.03-.89.2-.55-.14-.96.03-.36.32-.78.49-.61-.3-1.03-.13-.2.72-.61.89-.38.26-.8.43-.57-.2-.99-.03-.53-.11-.95.06-.17.78-.59.95-.34.36-.76.53-.62-.32-1.04-.15-.43.13-.85.3-.43.15-.85.32-.28.52-.7.69-.54-.13-.96.04-.47.04-.89.21-.49,0-.91.16-.39.23-.81.4-.13.87-.55,1.04-.41.2-.83.37-.71-.55-1.13-.38-.26.56-.68.73-.39.25-.81.42-.59-.25-1.01-.08-.45.1-.87.27-.09.98-.51,1.15-.51-.05-.93.12-.47.04-.89.22-.33.41-.75.58-.37.3-.79.47c-.28.11-.53.09-.78.25s-.78-.05-.99.16-.03.73-.2.97-.28.45-.4.72-.2.49-.27.78c-.1.44-.09.44-.19.88s-.24.41-.34.85.17.5.08.94-.09.44-.19.88-.64.32-.74.76-.38.38-.48.82.11.49.02.93-.2.42-.29.86-.19.42-.29.86.14.49.04.93-.2.42-.29.86.32.53.22.97.22.51.12.95-.2.42-.29.86-.26.4-.36.84-.38.38-.48.82-.1.44-.2.88.15.5.06.94.15.5.06.94-.67.32-.76.76.08.48-.02.92.2.51.1.95-.67.31-.77.76.45.56.36,1.01-.87.27-.97.71.79.64.69,1.08-.82.28-.92.72.57.59.47,1.03-.71.3-.81.74.35.54.26.98-.17.42-.27.86.22.51.12.95-.05.45-.15.89-.6.33-.7.77.24.52.15.96-.32.39-.41.84-.67.31-.77.76,0,.46-.1.9.3.53.21.98-.33.39-.43.84,0,.47-.09.91.11.49.01.94c-.07.31-.2.61-.32.89-.13.29-.19.64-.36.89s-.24.71-.46.91-.84-.04-1.11.12-.47.44-.76.54-.56.48-.87.53-.64-.78-.95-.79-.6.25-.9.17-.75.21-1.03.07-.25-.74-.5-.94-.58-.24-.78-.49Z"/></g></svg>