<?xml version="1.0" encoding="UTF-8"?><svg id="falder_på_mars" xmlns="http://www.w3.org/2000/svg" width="200" height="200" viewBox="0 0 200 200"><defs><style>.cls-1{fill:#ec6535;}.cls-1,.cls-2{stroke-width:0px;}.cls-2{fill:#f9b03d;}</style></defs><path class="cls-2" d="m44.98,130.19c.28.1.66-.06.95.05s.59.08.88.18.26,1.06.55,1.16.74-.35,1.03-.26.39.74.67.83.59.11.88.2.81-.6,1.1-.51.35.9.64.98.59.12.88.21.59.11.88.19.63-.04.92.04.58.15.87.22.49.48.78.55.59.09.88.16.65-.16.94-.09.62-.06.91,0,.48.58.77.64.55.27.84.34.6.03.9.09.72-.57,1.01-.51.45.82.74.88.64-.18.94-.13.62-.08.91-.03.56.27.85.32.66-.35.95-.3.56.26.86.3.6,0,.9.04.6-.06.9-.02.56.24.86.28.59.06.89.1.53.64.83.67.59.06.89.09.64-.44.94-.42.59.06.89.09.56.53.86.55.64-.62.94-.6.55.83.85.85.64-.81.94-.79.58.36.88.37.59.07.89.08.61-.38.91-.37.59.54.89.55.6-.51.91-.51.59.73.89.73.6-.27.9-.27.6-.17.9-.18.6.13.9.12.61.15.91.14c.3,0,.59-.22.89-.24s.62.43.92.41.58-.35.88-.37.59-.08.89-.09.59-.06.89-.08.61.16.91.13.58-.28.87-.31.61.1.9.07.56-.37.86-.4.58-.18.87-.22.58-.13.88-.17.59-.04.89-.07.68.58.97.54.57-.3.86-.34.61.03.91-.02.62.05.91,0,.46-.92.75-.97.64.19.93.14.57-.18.87-.23.72.58,1.01.53.58-.17.87-.23.52-.44.81-.5.62.05.91-.01.48-.59.77-.66.69.33.98.26.61-.02.9-.09.42-.78.71-.85.72.41,1.01.34.4-.84.68-.92.66.18.95.1.71.33,1,.25.38-.85.66-.93.79.58,1.07.49.48-.48.77-.57.45-.58.73-.67.8.54,1.08.45.36-.82.64-.92.52-.31.8-.4.61-.04.89-.14.54-.24.82-.34.65.03.92-.07.47-.44.74-.55.54-.25.81-.35.56-.19.83-.3.62-.05.89-.16.5-.48.77-.6c.3,0,.66.13.96.12s.6-.06.91-.07.61.64.91.63.6-.45.9-.45.61.4.91.4.6-.57.9-.58.61.26.91.25.6.04.91.03.6-.65.9-.65.61.48.91.48.61.38.91.37.59-.7.9-.7.61.69.92.69.6-.54.9-.54.6-.37.9-.37.61.34.91.34.61.08.91.08.6-.02.91-.02.61.13.91.12.61.2.91.2.61.09.91.09.6-.33.9-.33.6-.17.9-.17.6-.14.9-.14.6-.07.9-.08.6-.07.91-.07.6-.14.9-.14.62.93.92.93.6-.37.9-.38.6-.16.9-.17.61.18.91.17.61.27.91.27.59-.76.9-.76.61.29.91.28.61.46.91.45.6-.28.9-.28.6-.27.9-.27.61.57.91.56.6-.38.9-.38.6-.03.91-.03.61.11.91.1.6-.63.9-.64.72.75,1.03.75c.25-.19.49-.58.71-.76.25-.2.15-.78.37-.97.24-.22.79-.07,1-.28.23-.23.5-.42.69-.64.21-.25.28-.61.44-.84.2-.27.17-.64.31-.88.17-.3.51-.47.61-.72.12-.33.41-.62.45-.87.06-.42-.42-.74-.45-.93-.04-.29.2-.67.08-.96-.12-.27-.42-.46-.61-.71-.17-.23-.23-.59-.46-.81-.2-.2-.79.02-1.03-.17-.23-.18-.1-.87-.36-1.04-.24-.16-.7.02-.98-.13-.26-.14-.6-.09-.88-.22-.26-.12-.25-.92-.54-1.03-.27-.11-.83.52-1.12.41s-.36-.78-.66-.87-.64.06-.94-.03-.58-.12-.88-.2-.65.2-.95.13-.53-.34-.83-.4-.62.1-.92.05-.6.03-.9-.01-.54-.41-.85-.44-.56-.35-.87-.39-.64.41-.94.39-.57-.35-.88-.37-.58-.36-.89-.37-.61.23-.92.22-.61.26-.91.26-.39-.38-.69-.38c.22-.18-.08-.59.12-.79s1.01.14,1.19-.08-.07-.78.09-1.02.2-.53.34-.78.35-.45.46-.71.32-.49.4-.76.13-.56.18-.84.38-.54.4-.83.06-.6.05-.89-.61-.52-.65-.81.55-.7.47-.98c-.08-.29-.18-.61-.28-.88-.11-.28-.72-.34-.85-.59-.14-.27.2-.83.04-1.07-.17-.25-.44-.47-.62-.68-.2-.23-.74-.13-.95-.33-.22-.21-.69-.07-.91-.24-.25-.19-.13-.84-.35-.99-.28-.18-.72.02-.94-.1-.41-.21-.39-.53-.48-.57.16-.26.47-.38.61-.64s.17-.61.29-.88-.31-.77-.21-1.05.36-.5.44-.78.36-.53.42-.82-.03-.61,0-.91.12-.59.14-.89-.02-.6-.03-.9.43-.65.4-.94-.81-.49-.87-.78-.21-.53-.3-.82.13-.65.03-.93.13-.71,0-.98-.45-.46-.6-.72-.04-.72-.21-.96-.56-.36-.76-.58-.26-.63-.48-.83c-.23-.22-.58-.34-.82-.52s-.51-.42-.76-.58-.91.36-1.18.23-.34-.75-.63-.85-.65-.04-.94-.12-.57-.34-.87-.4-.62-.15-.92-.18c-.32-.03-.63-.28-.93-.28-.32,0-.65.39-.94.4-.33.01-.62.29-.9.32-.35.04-.62.19-.88.24-.51.09-.94-.12-1-.1-.1-.29-.03-.65-.14-.93s-.16-.6-.27-.87-.63-.39-.75-.67.06-.7-.07-.97-.69-.33-.83-.6.36-.88.21-1.15-.33-.52-.49-.78-.25-.57-.41-.83-.57-.36-.74-.61-.35-.5-.53-.74-.32-.52-.5-.77-.62-.29-.81-.52-.58-.3-.77-.53.09-.88-.11-1.11-.87-.01-1.08-.23-.07-.77-.29-.99-.52-.34-.74-.54-.53-.31-.76-.51-.56-.27-.79-.46-.5-.33-.74-.51,0-1-.25-1.18-.71-.06-.96-.23-.38-.53-.63-.69-.61-.19-.86-.34-.76.11-1.03-.04-.35-.6-.62-.74-.44-.48-.71-.62-.82.33-1.1.21-.33-.74-.61-.85-.42-.6-.7-.71-.77.31-1.05.21-.45-.58-.73-.67-.62-.07-.91-.16-.57-.25-.86-.33-.55-.35-.85-.42-.75.67-1.05.62-.5-.68-.8-.72-.63.12-.93.09-.63.27-.93.24-.58-.25-.89-.27-.59-.41-.9-.41-.61.33-.91.34-.59.25-.9.26c-.3.01-.65-.69-.94-.66s-.52.93-.82.96-.71-.81-1-.77-.58.23-.88.28-.62.02-.91.08-.51.51-.8.58-.53.34-.82.42-.74-.38-1.03-.29-.45.56-.74.66-.69-.13-.97-.02-.41.61-.69.72-.66-.01-.94.11-.34.69-.61.82-.57.19-.83.33-.66.03-.93.18-.68.04-.94.19-.46.42-.71.58-.15.85-.4,1.02-.85-.17-1.09,0-.47.39-.7.57-.31.57-.55.76-.67.14-.9.34.04.94-.18,1.14-.73.09-.95.3-.74.12-.95.33-.09.74-.29.97-.59.29-.78.51-.27.56-.46.8.01.77-.17,1.01-.78.16-.96.4-.41.45-.57.7.14.81-.02,1.06-.26.53-.41.79-.68.29-.83.55-.47.43-.61.7-.41.47-.54.74.41.86.28,1.13-.88.27-1,.54.21.73.1,1.02-.75.36-.85.65.49.8.4,1.09-.32.52-.41.81-.52.48-.6.77.34.7.27.99-.95.41-1.01.7.61.73.56,1.03.08.61.04.91-.26.56-.29.86-.59.54-.62.84.42,1.07.41,1.37c-.23-.2-.45-1.1-.69-1.27s-.83.18-1.09.03-.21-.89-.47-1.02-.83.44-1.11.33-.33-.96-.62-1.03-.72.43-1.01.39-.55-.52-.84-.55-.63-.13-.92-.12-.56.64-.86.67-.61-.1-.9-.03-.43.57-.72.66-.5.23-.77.35c-.27.12-.89-.49-1.14-.35s-.25.71-.48.88-.68.08-.9.27-.37.47-.57.68-.22.57-.4.8-.1.61-.26.86-.91.12-1.05.38-.23.56-.35.83-.29.54-.38.81.23.67.17.96-.71.48-.74.77.04.62.03.92-.11.62-.09.91.65.89.69,1.18c-.19-.23-.31-.98-.5-1.2s-.49-.38-.7-.58-.85.08-1.08-.11.06-1.05-.18-1.22-.72,0-.98-.16-.34-.62-.6-.76-.56-.26-.83-.38-.66.02-.94-.08-.5-.41-.79-.49-.68.25-.97.19-.5-.63-.79-.68-.66.48-.95.46-.58-.2-.87-.2-.59,0-.89.03-.61-.08-.9-.04-.49.57-.79.63-.68-.35-.97-.27-.43.58-.71.68-.6.04-.88.16-.8-.27-1.06-.14c-.27.14-.33.69-.59.85s-.39.5-.64.68-.75.03-.99.23-.56.33-.77.54-.27.61-.47.84-.68.26-.86.5.38,1.02.21,1.28-.73.25-.88.52-.16.6-.3.88-.64.4-.75.68.27.75.18,1.04-.78.43-.85.73.45.72.4,1.02-.08.59-.11.9-.03.6-.03.9-.49.62-.48.93.03.63.07.94-.03.65.03.95.4.46.48.76c-.17-.06-.25-.39-.65-.5-.26-.07-.57-.17-.9-.24-.27-.06-.7.57-1.02.51-.28-.05-.58.01-.89-.02-.29-.03-.52-.99-.83-1.01-.29-.02-.63.78-.94.78-.3,0-.59-.13-.9-.12s-.59.04-.9.07-.54.32-.85.37-.59,0-.89.07-.68-.24-.98-.15-.57.2-.86.31-.71-.09-.99.03-.48.43-.76.57c-.26.14-.29.67-.54.82s-.83-.19-1.06-.03-.56.26-.79.44-.06.87-.27,1.05c-.22.2-.38.44-.58.64-.22.21-.29.52-.48.73-.2.22-.56.28-.73.5-.19.24-.33.48-.49.7-.18.25-.91.11-1.06.33-.18.28-.08.46-.2.67-.31-.04-.48.51-.78.51s-.61-.22-.91-.17-.49.47-.77.56-.67-.14-.94-.01-.73,0-.98.16-.08.87-.3,1.08-.4.38-.58.61-.62.29-.75.56-.17.58-.24.87c-.07.29-.43.56-.44.87s.46.58.51.88.11.55.2.84-.2.75-.06,1.02.53.4.71.64.69.16.9.37.29.51.53.69.47.3.74.45.55.11.84.22.37.79.67.86.63-.15.94-.13c.3,0,.61-.36.92-.35s.61.02.91.02.59.74.9.75.62-.62.93-.62.6.54.9.55.61.1.91.1.61-.09.91-.09.6.24.91.25.61-.04.91-.04.62-.56.93-.56.61-.21.92-.2.6.28.91.29.61.14.91.15.61-.1.91-.09.61.04.91.05.61-.22.92-.22.59.81.89.82.61-.23.92-.22.62-.33.92-.32.59.69.9.7.62-.52.92-.51.61.03.91.03.62-.41.92-.4.6.56.9.57.62-.31.92-.3.61.17.92.18Z"/><path class="cls-2" d="m51.5,80.56c-.08.3.61.34.57.64s-.41.57-.4.88.05.61.11.91.34.53.43.82.34.47.48.75-.22.83-.04,1.08.48.43.69.64.69.11.94.28.52.18.8.31c.28.13.47.28.76.35s.49.67.79.7.61-.25.91-.27.52-.34.82-.41.49-.26.77-.37.95.57,1.21.42.2-.81.44-1,.87.02,1.08-.2.37-.55.55-.79-.37-.92-.23-1.19.78-.05.89-.34c.3.08.42.13.72.17s.66.01.96.02.63-.22.93-.26.62-.1.91-.18.73.14,1.01.02.59-.32.85-.48.37-.6.61-.79.32-.54.53-.77.77-.2.93-.46.47-.53.58-.82c.11-.29.13-.68.18-.99s-.61-.68-.61-.99.7-.67.65-.98-.41-.57-.5-.87-.38-.51-.51-.79-.12-.63-.29-.89-.7-.22-.9-.46-.26-.54-.5-.75-.5-.3-.76-.48-.55-.18-.83-.32-.45-.39-.74-.5-.75-.31-1.06-.38c.09-.3.68-.73.73-1.03s.07-.65.08-.96-.52-.59-.55-.9-.08-.58-.16-.88.28-.75.16-1.03-.84-.26-1-.53.33-.96.14-1.21-1.02.08-1.24-.14-.21-.64-.46-.83-.47-.39-.74-.54-.68.1-.97-.02-.4-.7-.71-.77c-.3-.07-.65.4-.95.37s-.58-.76-.89-.74-.59.32-.89.37-.54.29-.83.39-.61.08-.89.21-.63.14-.88.31-.38.52-.61.72-.78.11-.98.33-.15.69-.32.94-.29.54-.42.81-.23.56-.33.85-.3.42-.36.72c-.29-.03-.46.15-.74.15s-.6-.13-.88-.09-.51.4-.78.47-.49.27-.75.38-.46.27-.71.41-.48.24-.71.41-.88-.15-1.08.05-.26.58-.44.81-.45.42-.59.67-.42.49-.51.76.63.75.59,1.03c-.05.3-.36.52-.35.83s.12.56.18.86-.52.8-.41,1.09.32.59.47.86.61.37.8.61.27.6.49.82.76.05,1.01.24.24.75.51.9.52.41.81.53.78-.41,1.08-.34.49.69.8.73.24.09.56.09Z"/><path class="cls-2" d="m21.87,99.54c0,.3.34.54.39.83s-.4.69-.3.97.74.31.88.57-.5,1.01-.33,1.25,1.02-.08,1.23.13.18.66.42.84.5.32.77.45.6.04.89.13.56,0,.85.04.52.66.83.66.61-.14.9-.19.48-.49.76-.58.45-.31.72-.44.51-.19.75-.37.82.07,1.03-.14.21-.62.38-.86.08-.61.21-.87.11-.52.21-.81,1.05-.36,1.1-.65-.5-.66-.5-.96.55-.67.51-.96-.21-.63-.3-.91-.95-.25-1.09-.51.36-.91.18-1.15-.43-.47-.64-.68-.5-.39-.74-.56-.62-.17-.88-.3-.54-.24-.83-.34-.52-.5-.82-.54-.64-.02-.94-.02-.6.33-.89.37-.53.31-.8.4-.74-.22-1-.08-.64.19-.88.37-.45.48-.66.69.13.89-.04,1.13-.94.11-1.08.38.01.68-.08.96.03.61-.02.9-.16.56-.16.87Z"/><path class="cls-2" d="m158.6,106.87c0,.32-.05.63.02.92s.21.58.35.86-.12.87.08,1.11.82.12,1.07.32.64.06.92.2.38.72.68.79.64-.48.96-.48.74.89,1.03.82.34-.98.61-1.11.7.02.95-.17.45-.43.65-.67.16-.6.29-.88.06-.56.13-.86.69-.52.69-.84-.15-.65-.22-.94-.53-.45-.67-.73-.37-.4-.56-.65-.3-.46-.54-.65-.19-.82-.47-.96-.67.01-.98-.06-.59.17-.91.17-.53.14-.82.21-.9-.69-1.18-.55-.27.81-.51,1-.9.03-1.09.28-.34.63-.48.91.53.83.46,1.14-.43.51-.43.83Z"/><path class="cls-1" d="m59.39,134.74c-.03-.08-.16-.61-.28-1.1-.06-.25.04-.59-.02-.94-.05-.27-.06-.58-.1-.9-.04-.29-.31-.57-.33-.88-.02-.29-.36-.6-.37-.91,0-.3.56-.61.57-.93s.27-.58.3-.89-.33-.64-.29-.95-.31-.69-.25-.99.11-.63.19-.93.6-.47.7-.76.17-.59.29-.88.37-.5.51-.78.67-.3.83-.57-.28-.89-.11-1.15.83-.13,1.03-.38c.19-.24.25-.56.46-.79s.53-.32.74-.53-.07-.98.16-1.18.77-.04,1.01-.22.23-.75.48-.92.81.14,1.08-.01.46-.42.74-.55.45-.5.73-.62.81.42,1.09.32.44-.6.73-.69.63.07.93,0,.54-.43.84-.47.62.1.93.07.6-.35.9-.35.6.5.91.52.61-.21.92-.18.55-.45.86-.4c-.01-.09-.1.04-.12-.45-.01-.26-.12-.56-.12-.91,0-.28.59-.56.6-.89.01-.28-.43-.6-.4-.92.02-.29.14-.58.17-.89.03-.29.03-.59.08-.9.05-.29.62-.48.68-.78s-.4-.69-.32-.99-.16-.67-.07-.97.68-.42.78-.71-.35-.78-.24-1.06,1.09-.19,1.21-.46-.51-.91-.37-1.18.6-.36.76-.63.29-.52.46-.78.16-.63.34-.88.24-.59.44-.83.84-.08,1.04-.3.32-.51.54-.73.17-.71.39-.91.38-.51.62-.7c.23-.19.53-.32.77-.49s.81.11,1.06-.05.36-.55.61-.7.39-.54.65-.68.5-.38.77-.51.91.6,1.18.49.35-.75.63-.84.73.37,1.01.29.54-.23.82-.3.41-.93.7-.98.72.64,1,.6.58-.12.86-.15.58-.1.87-.12c.31-.02.59-.23.88-.23.31,0,.6,0,.89,0,.31,0,.59.37.87.39.32.02.6,0,.87.03.33.04.66-.22.91-.18.42.07.58,0,.72.03.08-.3.57-.38.66-.67s.33-.51.44-.79.13-.58.26-.86-.36-.86-.22-1.13.92-.18,1.08-.43.07-.67.24-.92.2-.61.39-.85.52-.36.72-.59.09-.76.3-.98.56-.32.79-.52.41-.48.65-.67.41-.5.66-.68.61-.22.87-.38.53-.33.8-.48.8.23,1.07.1.54-.25.82-.36.39-.69.68-.78.6-.18.89-.25.7.32.99.27.5-.76.8-.8.68.72.98.7.58-.87.89-.87.61.34.92.36.61.1.91.15.69-.29.98-.23c.3.06.47.66.76.74s.75-.31,1.03-.21.29.9.57,1.02.65.01.92.15.61.15.87.31.43.44.68.62.38.49.61.68.59.23.82.43.11.73.32.95.64.21.84.44.42.43.6.67.38.47.54.72.15.61.31.87.5.41.64.67.13.6.25.88.53.44.63.72.32.54.41.83.24.58.32.87.11.61.16.91-.55.7-.51,1,.29.56.31.86-.08.6-.07.9-.15.58-.16.88.8.66.77.96-.37.58-.42.88-.03.62-.1.91-.82.41-.9.7-.12.77-.22,1.06c.16,0,.83-.02,1.23.02.25.02.51.23.82.29.26.05.65-.36.94-.28.27.07.41.61.69.7.26.09.46.3.74.43.26.12.81-.34,1.07-.19.25.14.18.78.43.95s.91-.21,1.13-.02.2.66.41.87c.2.21,0,.76.17.99s.93.06,1.08.3-.38.87-.25,1.13.53.37.63.64.6.42.68.7-.59.73-.54,1.02.76.46.79.75.17.59.18.88-.17.6-.18.89,0,.6-.04.89-.34.53-.41.82.1.63.01.91-.17.37-.28.65c.24-.06.3-.21.64-.28.27-.06.6.06.92.01.28-.05.54-.35.86-.39.28-.03.61.08.92.05.29-.02.59-.09.9-.1.29,0,.59.63.89.64s.6-.43.9-.41.54.45.85.49.66-.49.96-.44.54.36.84.42.56.17.86.25.76-.46,1.05-.37.42.65.71.76c.28.1.4.57.67.68s.83-.39,1.09-.26.21.89.47,1.02.78-.17,1.03-.02.71.02.95.18.3.63.53.81.42.44.64.62.46.38.68.57.35.5.55.7.26.56.46.78.32.5.5.72.62.25.8.48c.19.24.49.38.66.61.18.25.46.43.61.66.17.26.39.49.53.73.16.27.36.51.49.75.16.29.42.51.53.74.17.35-.42.47-.35.64-.3,0-.31.27-.61.28s-.59.16-.89.16-.6-.18-.89-.18-.6-.28-.89-.28-.59.75-.89.76-.6-.29-.89-.29-.6-.46-.89-.46-.59.28-.89.28-.59.26-.89.27-.6-.57-.9-.57-.59.37-.89.38-.59.03-.89.03-.59-.11-.89-.11-.59.63-.89.63-.6-.77-.9-.77-.59.18-.89.18-.59.5-.89.5-.6-.48-.89-.48-.59-.06-.89-.06-.59.18-.89.18-.59.22-.89.22-.6-.24-.89-.24-.6-.21-.89-.2-.59.47-.89.47-.6-.34-.89-.34-.59.18-.89.18-.6-.18-.89-.18-.59.56-.89.56-.6-.64-.9-.64-.59.39-.89.39-.59.2-.89.21-.6-.73-.9-.73-.52.78-.81.78c-.27.11-.71-.36-.99-.25s-.46.44-.73.56-.54.25-.82.36-.43.54-.71.64-.63,0-.91.11-.49.4-.77.51-.52.32-.8.42-.67-.11-.95-.01-.65-.08-.94.02-.41.64-.7.73-.66-.1-.94,0-.66-.12-.95-.03-.49.43-.77.51-.49.44-.77.52-.71-.32-1-.24-.39.8-.68.89-.79-.64-1.08-.56-.44.67-.73.75-.55.26-.84.33-.61.03-.9.11-.61.01-.9.08-.57.15-.87.22-.64-.16-.94-.09-.59.09-.88.15-.47.68-.76.74-.71-.53-1.01-.47-.58.11-.88.17-.49.63-.79.68-.69-.47-.99-.42-.58.17-.87.22-.52.55-.82.6c-.3.05-.53.5-.83.54s-.68-.51-.98-.47-.54.47-.84.51-.65-.39-.95-.35-.62-.13-.91-.09-.58.19-.88.22-.54.65-.83.68-.61-.12-.91-.1-.62-.16-.91-.14-.59.19-.88.21-.61-.02-.9,0-.6.07-.9.09-.62-.43-.92-.42-.57.77-.86.78-.6.12-.9.13-.61-.3-.91-.29-.61-.37-.91-.37-.6.2-.89.2-.6-.35-.9-.34-.6.23-.9.23-.59-.24-.89-.25-.6.12-.9.12-.6-.06-.89-.07-.62.75-.92.74-.58-.56-.87-.57-.61.14-.9.13-.59-.23-.88-.25-.59-.08-.89-.1-.58-.26-.87-.29-.63.35-.92.32-.62.2-.91.18-.61.06-.9.03-.57-.33-.87-.37-.58-.26-.87-.29-.59-.14-.88-.17-.65.35-.94.31-.55-.42-.84-.46-.66.38-.95.34-.48-.81-.77-.85-.59-.06-.88-.1-.57-.17-.86-.22-.64.18-.93.13-.59-.09-.88-.15-.57-.16-.86-.22-.65.19-.94.14-.64.14-.92.08-.62-.26-.9-.32Z"/></svg>