<?xml version="1.0" encoding="UTF-8"?><svg id="uuid-ecde2853-3cc8-40f4-b966-512718621139" xmlns="http://www.w3.org/2000/svg" width="170" height="170" viewBox="0 0 170 170"><defs><style>.uuid-4810dcdf-52c7-4338-8f6a-f663ea4d09ff{fill:#56bf7c;stroke-width:0px;}</style></defs><g id="uuid-0bdc7e6c-722c-4ab7-9804-567f49704a61"><path class="uuid-4810dcdf-52c7-4338-8f6a-f663ea4d09ff" d="m140.41,133.72c-.44-.1-.47.02-.9-.08s-.38-.34-.82-.44-.59.55-1.03.45-.38-.36-.82-.46-.43-.15-.87-.25-.45-.04-.89-.14-.33-.59-.76-.69-.53.29-.97.19-.5.19-.94.09-.27-.84-.7-.94-.45-.06-.88-.17-.51.2-.95.1-.46-.01-.9-.11-.51.19-.95.09-.41-.23-.85-.33-.41-.21-.85-.32-.3-.68-.74-.79-.43-.13-.87-.23-.62.7-1.06.6-.44-.12-.87-.22-.47.03-.91-.07-.31-.68-.75-.78-.55.36-.98.26-.44-.09-.88-.19-.39-.32-.83-.42-.41-.24-.85-.34-.51.2-.95.1-.44-.1-.88-.21-.45-.05-.89-.15-.36-.43-.8-.53-.35-.48-.79-.58-.41-.21-.85-.31-.54.31-.98.2-.43-.13-.87-.23-.39-.33-.83-.43-.56.39-1,.29-.48.07-.92-.03-.34-.52-.78-.62-.43-.13-.87-.23-.57.43-1.01.33-.27-.86-.71-.97-.47-.01-.91-.11-.47.02-.92-.08c-.3-.07-.61-.14-.91-.15s-.61.15-.9.2-.53.29-.81.4-.54.19-.8.35-.38.41-.61.62c-.33.3-.54.08-.87.38s-.51.11-.84.41-.31.33-.65.63-.26.38-.6.69-.06.6-.39.91-.42.21-.75.51-.59.03-.92.33.02.69-.31.99-.85-.26-1.18.04.15.83-.18,1.13-.7-.09-1.03.21-.15.51-.48.81-.19.46-.53.76-.57.04-.9.35-.38.25-.71.56.04.71-.29,1.02-.46.16-.79.47-.21.44-.54.74-.42.2-.76.51-.7-.1-1.03.21-.28.36-.62.66-.36.27-.7.58.13.81-.2,1.11-.55.07-.88.37-.17.47-.5.78-.21.44-.54.74-.5.12-.83.42-.6.02-.93.32-.48.15-.81.45-.37.27-.7.57.25.94-.08,1.25-.92-.34-1.25-.03.26.96-.07,1.26-.54.08-.87.39-.48.14-.81.45-.58.04-.91.35.25.95-.08,1.26-.8-.2-1.13.11,0,.68-.33.98-.62,0-.95.3-.38.26-.72.56-.21.44-.55.75-.05.62-.39.93c-.22.2-.6.25-.83.4-.25.16-.68-.08-.94.02s-.4.71-.68.76-.63.1-.91.1-.51-.68-.79-.74-.53-.03-.8-.13-.81.32-1.06.17-.55-.34-.76-.54-.17-.67-.35-.9-.7-.29-.83-.56-.03-.66-.11-.95-.2-.59-.23-.88c-.04-.45-.06-.45-.1-.89s.11-.46.07-.91-.14-.44-.18-.89.53-.5.49-.95-.41-.42-.45-.86-.06-.45-.1-.89-.04-.45-.08-.9-.01-.45-.05-.9.25-.47.21-.92-.23-.43-.27-.88.17-.47.13-.91-.13-.44-.17-.89.12-.46.08-.91-.79-.38-.83-.83-.02-.45-.06-.9.48-.49.44-.94-.64-.4-.68-.84.14-.46.1-.91.42-.49.38-.94.28-.48.24-.93-.97-.37-1.01-.82.31-.48.27-.93.51-.5.47-.95-.24-.43-.28-.88-.3-.43-.34-.88.01-.45-.03-.9.02-.45-.02-.9-.24-.43-.28-.88.45-.49.41-.94.09-.46.06-.91-.98-.37-1.02-.81.51-.5.48-.95-.22-.43-.26-.89.49-.5.45-.95-.86-.38-.9-.83.37-.49.33-.94.17-.47.13-.92-.76-.39-.8-.84.85-.53.81-.98-.59-.4-.63-.86-.1-.45-.14-.9.23-.48.19-.93-.36-.43-.4-.88c-.03-.3.08-.6,0-.89s-.48-.41-.61-.68.41-.98.22-1.22-.77-.15-1-.35-.37-.55-.63-.7c-.39-.22-.58.12-.98-.1s-.26-.45-.65-.68-.62.18-1.01-.05-.18-.6-.57-.82-.57.1-.97-.12-.24-.5-.63-.72-.29-.4-.68-.62-.25-.47-.64-.7-.73.38-1.12.16-.35-.29-.74-.52-.45-.11-.85-.33-.49-.04-.89-.26-.32-.35-.71-.57-.37-.27-.76-.49-.28-.43-.67-.65-.38-.24-.77-.47-.46-.1-.85-.32-.07-.79-.46-1.01-.73.38-1.12.16-.16-.64-.55-.86-.77.44-1.16.22-.22-.53-.61-.76-.1-.74-.49-.96-.76.43-1.16.21-.28-.43-.67-.65-.14-.68-.53-.9-.39-.22-.78-.44-.77.45-1.17.23-.43-.16-.82-.38-.4-.2-.79-.43-.29-.39-.69-.62-.17-.61-.56-.83-.45-.13-.84-.36-.57.1-.97-.13-.37-.26-.77-.48-.06-.81-.46-1.03-.49-.05-.88-.27-.34-.32-.73-.54-.6.15-.99-.08-.2-.56-.6-.79-.59.13-.99-.1-.6.14-1-.08-.18-.61-.58-.83c-.26-.15-.33-.52-.55-.7-.23-.19-.29-.45-.47-.67s-.37-.37-.5-.62-.15-.49-.24-.76-.84-.4-.88-.69.71-.59.72-.88-.56-.65-.5-.93.69-.35.81-.62-.08-.67.08-.91.66-.14.87-.34.15-.66.39-.82.32-.67.59-.79c.41-.18.57.2.99.02s.51.04.92-.13.3-.46.71-.63.46-.07.88-.24.2-.67.62-.85.62.31,1.03.13.33-.37.74-.55.29-.46.71-.63.51.05.92-.13.3-.44.72-.61.69.47,1.1.3.23-.6.65-.78.4-.22.81-.39.46-.07.88-.25.68.45,1.09.27.2-.68.62-.85.46-.06.88-.23.21-.66.62-.83.51.05.93-.12.42-.17.83-.35.67.41,1.08.23.38-.26.8-.44.22-.64.63-.82.63.32,1.04.15.18-.73.6-.91.33-.39.74-.56.68.44,1.09.27.36-.3.78-.48.34-.36.75-.54.48-.03.89-.21.22-.63.63-.81.4-.21.81-.39.42-.16.84-.34.66.39,1.07.21.44-.12.86-.29.26-.55.68-.73.56.16.98-.02.31-.42.73-.6.63.34,1.05.16.13-.85.55-1.03.7.49,1.12.31.09-.96.51-1.14.43-.16.85-.34c.28-.12.63-.02.87-.18s.68-.14.89-.35.2-.62.37-.88.37-.47.49-.75.47-.51.53-.81c.09-.44-.23-.51-.14-.95s.51-.35.6-.8,0-.46.1-.9-.46-.55-.37-1,.56-.35.65-.79-.37-.54-.28-.98.65-.33.74-.77.29-.4.38-.84-.33-.53-.24-.97-.11-.48-.02-.92-.23-.51-.14-.95.79-.3.88-.74.18-.42.27-.86-.53-.57-.44-1.01.77-.3.86-.74-.43-.55-.34-.99.4-.38.49-.82-.23-.51-.14-.95.11-.44.2-.88.69-.32.78-.76-.35-.53-.26-.97.51-.36.6-.8-.2-.5-.11-.94-.09-.48,0-.92.25-.41.34-.85,0-.46.09-.9.34-.39.43-.83.12-.44.21-.88-.06-.47.03-.92-.47-.55-.38-1,.58-.34.67-.78.14-.43.23-.87-.58-.58-.49-1.02.66-.33.75-.77-.37-.54-.28-.98.33-.4.42-.84.53-.35.62-.8-.22-.51-.13-.95.24-.41.33-.85.34-.39.43-.84-.77-.62-.68-1.07.45-.37.54-.82.68-.33.77-.77c.06-.29-.54-.75-.44-1.01.11-.27.87-.18,1.02-.42s.04-.63.23-.84.35-.44.59-.61.24-.81.5-.93.78.39,1.06.31.48-.77.77-.79.65.06.94.09.65.09.93.17.25.91.51,1.04.36.35.59.53.56.15.76.37c.29.34.42.23.71.57s.35.3.64.64.06.55.35.89.89-.17,1.18.17.04.56.34.9.38.26.68.6-.18.76.11,1.1.86-.15,1.15.19-.07.66.22.99.69,0,.99.33-.2.77.09,1.11.15.46.45.8.65.03.94.37.01.59.31.93.53.14.82.48.05.55.35.89.65.03.94.37-.07.66.22,1,.59.09.88.43.43.22.73.56.03.57.33.91.28.35.58.69.09.52.38.86,1-.27,1.29.07-.38.93-.09,1.26.66.02.95.36.17.45.46.79.39.26.69.6.2.43.49.77.38.27.68.61.34.3.64.64.04.57.33.91.69,0,.99.34-.12.7.18,1.04.79-.09,1.09.25-.32.88-.02,1.22.86-.14,1.15.2.45.21.74.55.02.59.31.93.46.2.76.54.41.24.71.59-.21.79.09,1.13.28.36.58.71c.2.23.41.53.64.71s.52.44.79.57.84-.52,1.13-.43.46.62.77.65.65.32.95.29c.45-.05.39-.57.83-.62s.48.2.92.15.48.26.93.21.43-.24.87-.29.37-.74.82-.79.5.39.94.34.45,0,.9-.05.46.08.91.03.38-.63.83-.68.5.43.95.38.48.28.93.23.36-.86.8-.92.46.08.91.03.44-.16.89-.21.52.58.97.53.37-.76.82-.81.5.44.95.39.41-.41.85-.46.51.51.96.46.46.05.91,0,.39-.54.84-.59.46.08.91.03.48.25.93.2.41-.4.86-.45.46.02.91-.03.4-.45.85-.5.53.63.97.58.4-.52.84-.57.47.15.92.1.44-.13.89-.18.41-.37.86-.42.5.39.94.33.47.12.92.07.46.05.91,0,.43-.18.88-.24.47.14.92.09.36-.86.81-.91.51.53.96.48.39-.58.84-.63.48.18.93.12.48.18.93.12.49.26.94.2.41-.41.86-.46c.3-.03.59-.15.87-.13.29.02.68-.26.96-.19s.24,1.02.5,1.14.68-.1.91.07.82,0,1.02.21.18.66.34.9.34.51.45.78.01.62.07.9-.17.58-.16.87.54.62.49.91-.62.43-.73.71.03.63-.13.89c-.23.39-.7.1-.93.49s.03.54-.2.93-.26.37-.49.76-.44.26-.67.65-.23.39-.46.77-.18.41-.41.8-.03.5-.27.89.27.69.04,1.07-.4.28-.63.67-.5.23-.73.61-.12.45-.35.84-.47.24-.71.63.03.55-.2.93.07.57-.16.96-.37.31-.6.69-.76.07-.99.46.09.58-.14.97-.4.28-.64.67-.08.48-.32.86-.66.13-.9.51-.25.38-.48.76.6.89.37,1.28-.38.3-.61.68-.92-.03-1.15.36-.19.41-.42.8-.11.46-.34.84.28.69.05,1.08-.29.35-.52.74-.72.09-.95.48-.23.39-.47.77,0,.52-.24.91.17.63-.07,1.01-.47.24-.71.63-.14.45-.37.83-.13.45-.37.83-.17.42-.41.81-.29.35-.53.74-.16.43-.39.82-.27.37-.5.75-.68.12-.91.51-.38.3-.62.69.43.79.2,1.18-.66.14-.89.53c-.16.26-.49.47-.59.75s-.36.6-.41.89-.03.68-.02.98.07.67.14.96.9.32,1.02.6c.19.41-.43.69-.25,1.1s.36.33.54.74.17.42.35.83.2.41.39.82.45.29.64.7.04.48.22.89.13.43.32.84.26.37.45.78.31.35.5.76.33.35.51.75.21.4.4.81-.38.67-.2,1.08.67.19.86.6.37.33.56.74-.43.69-.25,1.1-.06.52.12.93.38.32.56.73.69.18.88.59,0,.49.19.9.53.25.72.67-.22.59-.03,1.01-.14.56.04.97.04.48.22.89.69.18.88.59.11.45.29.86.32.35.51.76.14.43.33.84.25.38.44.79-.38.67-.19,1.08,1.06.01,1.25.42.13.43.32.84-.39.67-.21,1.08.27.37.46.79.04.48.22.89.19.41.38.82.4.31.59.73-.02.5.17.92.52.26.71.67.14.43.32.85.03.49.22.9.65.2.84.62-.28.63-.09,1.04.37.33.56.75c.12.27.25.55.32.82.07.29-.38.62-.36.9s-.03.5-.06.78.5.68.41.96-.31.52-.45.77-.42.41-.61.63-.23.59-.45.78-.55.25-.8.39-.45.44-.73.54-.58.22-.87.26-.61-.1-.9-.11-.55-.21-.84-.27Z"/></g></svg>