<?xml version="1.0" encoding="UTF-8"?><svg id="uuid-f6a6b874-1cb8-41c4-867e-820433329916" xmlns="http://www.w3.org/2000/svg" width="300" height="140" viewBox="0 0 300 140"><defs><style>.uuid-10cdbcc2-ddea-4bb3-952e-743a8be993e2{fill:#0071bc;}.uuid-10cdbcc2-ddea-4bb3-952e-743a8be993e2,.uuid-38616e54-3477-45a1-a82b-bc40dd6bf3fb{stroke-width:0px;}.uuid-2690785e-9c3b-48b5-889d-3328b941eafa{fill:#f7931e;stroke:#f7931e;stroke-miterlimit:10;stroke-width:1.65px;}.uuid-38616e54-3477-45a1-a82b-bc40dd6bf3fb{fill:#2e3192;}</style></defs><g id="uuid-9409dcc3-cacf-4e32-b0ab-3a41097f1564"><path class="uuid-10cdbcc2-ddea-4bb3-952e-743a8be993e2" d="m249.14,104.59c.22.2,1.02-.22,1.24-.03s-.1,1.02.12,1.21.17.7.4.9.75.05.97.25.92-.14,1.14.06-.2,1.12.03,1.32.46.38.69.57.1.79.32.99.57.25.8.45,1.37-.64,1.59-.45.07.82.3,1.01.67.15.89.34-.48,1.44-.25,1.64,1.5-.8,1.73-.6-.21,1.13.01,1.33.16.71.39.91.4.45.62.64.88-.1,1.1.1.65.17.87.37.81-.02,1.04.18-.02.92.2,1.12-.24,1.17-.02,1.37.41.43.64.63.58.24.81.43.35.5.57.7,1.26-.53,1.49-.33.55.28.77.48-.33,1.28-.11,1.47.28.58.51.78,1.33-.6,1.55-.41-.5,1.47-.28,1.67,1.51-.81,1.73-.61-.23,1.16-.01,1.36.3.56.52.76,1.45-.74,1.67-.54c0,0-.62.93-.62.93.46.02.45.25.91.26s.48-.68.94-.67.46-.08.92-.07.43.73.89.75.48-.46.93-.44.49-.89.95-.88.43.86.88.88.45.36.9.37.47-.4.93-.38.46.05.92.07.48-.53.94-.52.42,1.1.88,1.12.45.33.91.34.45.18.91.2.49-.83.95-.82.46,0,.92,0,.44.48.91.5.5-1.02.96-1,.71,1.31,1.13,1.1.33-.61.58-.98-.64-.97-.39-1.34.32-.32.56-.69,1.02.16,1.27-.21.49-.2.74-.57.1-.47.35-.83.34-.31.59-.68.05-.5.3-.87.7-.06.95-.43.48-.75.48-1.2-1.44-.05-1.69-.43,0-.55-.24-.94-.14-.46-.39-.85-.34-.33-.59-.72.84-1.09.59-1.47-.41-.28-.66-.67-.26-.38-.51-.77-.71-.09-.96-.48-.62-.15-.87-.54-.29-.44-.3-.9-.08-.59.17-.98.04-.53.29-.92,1.16.18,1.41-.22.32-.35.57-.75-.18-.66.07-1.06.38-.31.63-.71-.42-.82-.17-1.21.12-.48.37-.88.1-.5.35-.9,2.24.13,2.23-.34-1.55-.09-1.83-.46-.62-.11-.89-.48.56-1,.28-1.36-.8.03-1.07-.34-.53-.17-.8-.54.25-.77-.02-1.14-.78.01-1.06-.36.98-1.32.7-1.69-1.64.27-1.67-.19.45-.54.67-.93.56-.19.78-.58-.23-.66,0-1.04.11-.45.34-.84.17-.42.4-.81.38-.3.61-.68-.06-.55.16-.94,1.47.34,1.69-.05-1.02-1.12-.79-1.51,1.27.22,1.5-.17-.41-.51-.46-.96-.22.01-.53-.32.34-.93.04-1.26-.27-.36-.58-.69-.4-.25-.71-.58-.79.11-1.1-.22.3-.89,0-1.22-.05-.56-.36-.9-1.33.61-1.64.28.21-.81-.1-1.14-.31-.33-.62-.66-.27-.22-.29-.67-.24-.5.04-.87,1.23.34,1.51-.04-1-1.34-.72-1.71.16-.46.44-.83.26-.39.54-.76.36-.31.64-.68,1.33.42,1.61.04-.85-1.22-.57-1.59.77,0,1.05-.38,1,.17,1.28-.21-.7-1.12-.42-1.49.71.04.69-.43c-.01-.43-.19-.14-.49-.45s.08-.69-.22-1-.51-.1-.81-.41-.1-.51-.41-.82-.85.25-1.16-.06-.67.06-.98-.24.58-1.19.28-1.5.08-.69-.23-1-.37-.24-.68-.55-.77.16-1.08-.15-1.41-.1-1.43-.54,1.54.03,1.82-.31.41-.24.69-.58.19-.41.47-.75.14-.45.42-.79-.04-.6.24-.94.98.24,1.26-.1-1.19-1.55-.91-1.89.31-.31.59-.65.35-.28.64-.62.25-.37.53-.71,1.03.28,1.31-.06,1.44-.38,1.42-.82-2.01.34-2.32,0,.91-1.43.6-1.77-.97.25-1.27-.1-.76.06-1.07-.28.71-1.25.4-1.59-.1-.52-.41-.87-1.52.74-1.83.4,1.04-1.54.73-1.88-.56-.12-.87-.46-.34-.31-.65-.66-1.65.13-1.63-.33.67-.57,1-.88.81.19,1.14-.12.65.03.99-.29-.75-1.48-.41-1.79,1.21.62,1.54.31-.11-.79.23-1.1.39-.26.73-.57.48-.16.82-.48.15-.51.49-.83,1.07.18,1.3-.23c-.2-.22-1.15-.5-1.36-.71s.33-1.13.13-1.35-.76-.11-.96-.32-.11-.72-.31-.94-1.45.54-1.66.32-.33-.51-.53-.73.1-.91-.1-1.13.32-1.11.11-1.33-1.53.62-1.73.4-.69-.17-.89-.39-.33-1.04-.53-1.25c.17-.25.98-.52,1.15-.77s-.18-.86,0-1.11.14-.65.31-.9,1.72.46,1.89.21-1.01-1.45-.84-1.7.47-.41.65-.66.39-.47.56-.72.21-.6.38-.85,1.58.36,1.75.11.19-.61.36-.86.4-.46.58-.71.63-1.18.8-1.43c-.3,0-1.33.69-1.62.69s-.6.45-.89.45-.6-.48-.89-.48-.6-.22-.89-.22-.6-.28-.89-.28-.6.29-.89.29-.6-.17-.89-.17-.6.53-.89.53-.6-.36-.89-.36-.6.62-.89.62-.6-.29-.89-.29-.6-.58-.89-.58-.6.73-.89.73-.6-1.34-.89-1.34-.6,1.3-.89,1.3-.6-.92-.89-.92-.6-.11-.89-.11-.6-.24-.89-.24-.6.02-.89.02-.6,1.33-.89,1.33-.6.12-.89.12-.6-.5-.89-.5-.6-.26-.89-.26-.6.84-.89.84-.24-1.36-.53-1.36c-.38-.24-.16-.3-.49-.6s-.25-.39-.58-.69-.56-.05-.89-.35-.46-.16-.78-.46,0-.67-.32-.97-1.13.56-1.45.26.32-1-.01-1.31-.65.05-.98-.26-1.08.51-1.41.21.47-1.17.14-1.47-.36-.26-.69-.57-.86.27-1.19-.03.51-1.21.18-1.52-.24-.4-.57-.7-.65.04-.98-.26-.48-.14-.8-.45-.32-.31-.65-.61.02-.67-.31-.97-.37-.26-.69-.56-.42-.2-.74-.51-.85.27-1.18-.04.41-1.1.08-1.4-.39-.24-.72-.54-.46-.16-.78-.47-1.13.57-1.46.27-.2-.45-.52-.75-.45-.17-.78-.48.54-1.25.21-1.55-1.28.73-1.61.43-.2-.45-.53-.76.44-1.14.11-1.45-.41-.22-.74-.53-.19-.46-.52-.76-.33-.31-.66-.61-.1-.55-.43-.86-.39-.25-.72-.55-.81.2-1.23.03-.42-.95-.87-.96-.45.39-.9.38-.46,1.34-.91,1.33-.44-1.15-.89-1.16-.46.75-.91.74-.44-.58-.89-.59-.46.71-.91.7-.43-1.36-.88-1.37-.47,1.76-.92,1.76-.43-1.31-.88-1.31-.45.19-.9.18-.45-.19-.9-.19-.45.26-.9.26-.44-.77-.89-.77-.46.85-.91.85-.44-.48-.89-.48-.45.27-.9.26-.46.87-.91.87-.43-1.7-.88-1.7-.45.02-.89.02-.45.37-.9.36-.45-.02-.89-.03-.45.38-.9.37-.45.53-.9.52-.44-.33-.89-.34-.46.88-.9.87-.45-.03-.89-.03-.44-.83-.88-.83-.44-.4-.89-.4-.46.84-.9.83-.44-.41-.89-.41-.46.88-.9.88-.43-1.54-.88-1.55-.45.19-.9.19-.45.5-.9.49-.46.77-.9.77-.44-.69-.89-.7-.44-.47-.89-.48-.46,1.11-.91,1.11-.44-1.01-.88-1.02-.45.1-.9.1-.44-.44-.89-.44-.44-.48-.89-.48-.45.61-.9.61-.46.73-.9.72-.44-.48-.89-.48-.46.71-.9.7-.43-1.59-.88-1.6-.47,1.66-.92,1.65-.45-.27-.89-.27-.44-.62-.89-.62-.45.25-.9.24-.44-.89-.89-.9-.45.24-.9.24-.46,1.11-.91,1.11-.44-1.19-.89-1.2-.46,1.32-.91,1.32-.44-.87-.89-.87-.46.45-.91.45-.44-.54-.89-.55-.46.78-.91.77-.45.32-.9.31-.44-1.09-.89-1.09-.45-.06-.9-.06-.46,1.08-.91,1.07-.43-1.38-.88-1.39-.47,1.47-.92,1.47-.45-.28-.9-.29-.44-.75-.89-.75-.45-.23-.9-.24-.45.36-.9.36-.46.62-.91.62-.45.25-.9.24-.44-.81-.89-.81-.44-1.08-.88-1.08-.46.67-.9.66-.45.32-.9.32-.44-.75-.89-.76-.45.23-.9.23-.46.68-.9.67-.45.11-.9.11-.43-1.29-.88-1.3-.46,1.33-.91,1.32-.44-.43-.89-.44-.45.14-.9.14-.45.24-.9.23-.44-.34-.89-.35-.45-.07-.9-.07-.44-.52-.89-.52-.44-.4-.89-.41-.46.63-.91.63-.45-.21-.9-.21-.45.34-.9.33-.45.31-.9.3-.44-1.03-.89-1.03-.45.17-.9.16-.47,1.32-.91,1.31-.45-.41-.9-.42-.46.54-.91.54-.43-1.72-.88-1.72-.45.1-.9.09-.47,1.28-.92,1.27-.45-.43-.9-.43-.45.1-.9.09-.45.29-.9.29-.44-.57-.89-.58-.45-.15-.9-.16-.45,0-.9,0-.46,1.24-.91,1.24-.43-1.52-.88-1.52-.46.74-.91.73-.44-.67-.89-.68-.47,1.42-.92,1.42-.44-.41-.89-.41-.44-1.22-.88-1.23-.47,1.46-.92,1.45-.43-1.64-.88-1.65-.46.98-.91.97-.44-.51-.89-.51-.47,1.34-.91,1.33-.45-.38-.9-.38-.45,0-.9,0-.45.35-.9.35-.44-.92-.89-.92-.45-.15-.9-.15-.46.75-.91.75-.44-.56-.9-.57-.44-.57-.9-.57-.46.33-.91.33-.46.78-.91.77-.44-1.28-.89-1.28-.46.8-.91.79-.45.09-.9.08-.44-1.06-.89-1.07-.46.6-.91.6-.45-.27-.9-.28-.46,1.09-.91,1.08-.45-.11-.9-.12-.43-1.5-.88-1.5-.45.41-.91.41-.46.43-.91.42-.44-.94-.89-.94-.45.28-.9.27-.46,1.11-.91,1.1-.45.13-.9.12-.45-.07-.9-.07-.44-.87-.89-.88-.46,1.12-.92,1.12-.44-.62-.9-.63-.44-.77-.89-.78-.46.87-.91.87-.45.2-.9.2-.45-.03-.9-.03-.45-.15-.9-.16-.45.19-.9.19-.45-.01-.9-.02-.45-.36-.9-.37-.44-.65-.89-.65-.46.75-.91.74-.44-.65-.9-.65-.45.04-.9.04-.45-.4-.9-.41-.45-.21-.9-.22-.47,1.36-.92,1.36-.45.23-.9.23-.44-.6-.89-.61-.45.07-.9.07-.44-.43-.89-.44-.45.23-.9.23-.45-.08-.9-.09-.45-.14-.9-.15-.44-.59-.89-.59-.47,1.58-.92,1.57-.43-1.45-.88-1.45-.47,1.65-.92,1.64-.43-1.49-.89-1.49-.47,1.51-.92,1.5-.44-.97-.89-.98-.46.53-.91.53-.45-.46-.9-.46-.45-.41-.9-.42-.44-.51-.9-.51-.46.77-.91.77-.44-.53-.9-.53-.47,1.5-.92,1.5-.43-1.65-.88-1.66-.47,1.48-.92,1.48-.44-1.1-.89-1.1-.46.76-.91.76-.45-.43-.9-.44-.45.07-.9.07-.44-.7-.9-.7-.46,1.11-.92,1.1-.44-.78-.9-.78-.46.25-.91.25-.45-.18-.9-.19-.46.29-.91.29-.44-.96-.89-.97-.47,1.34-.92,1.34-.45-.57-.9-.57-.45.08-.91.07-.46.63-.91.63-.45-.39-.9-.39-.45.28-.91.28-.44-.87-.89-.87-.46.29-.91.28-.46.41-.91.4-.45-.21-.9-.21-.45-.39-.9-.4-.45-.08-.91-.09-.45-.12-.91-.12-.45-.57-.9-.58-.45.12-.91.11-.46.04-.91.04-.47.95-.92.94-.45-.18-.91-.18-.47-.15-.92-.07c-.22.2-.14.79-.36.99s-.23.64-.45.84-.45.4-.67.6-1.08-.3-1.31-.1-.04.85-.27,1.05-.88-.08-1.11.12-.17.71-.39.91-1.16-.38-1.38-.18-.06.83-.28,1.04-.85-.04-1.07.17.74,1.7.51,1.9-1.27-.5-1.49-.3-.44.41-.66.61-.08.81-.3,1.01-1.2-.42-1.42-.22.72,1.68.49,1.88-1.19-.41-1.41-.21-.29.58-.51.78-.4.45-.63.65-.25.62-.47.82-.89-.08-1.11.12.14,1.04-.09,1.25-1.15-.37-1.37-.17.37,1.3.15,1.5-.85-.04-1.07.16.11,1.02-.11,1.22-.95-.15-1.17.05.13,1.04-.09,1.24-1.19-.41-1.41-.21-.53.32-.75.52-.65.18-.87.38-.61.22-.83.42.24,1.16.02,1.36-.77.05-.99.25.33,1.25.11,1.46-1.08-.29-1.3-.09-.69-.17-.91.03c-.3.04-.25,1.25-.55,1.29s-.65-.37-.95-.33-.64-.22-.93-.18-.56.4-.86.43-.69-.67-.99-.64-.54.58-.83.62-.48.99-.78,1.03-.58.25-.88.29-.78-1.39-1.08-1.36-.45,1.29-.75,1.33-.72-.9-1.02-.87-.69-.62-.98-.59-.48.98-.78,1.02-.66-.41-.96-.37-.48,1.05-.78,1.09-.78-1.37-1.08-1.34-.59.13-.89.17-.38,1.79-.68,1.82-.62-.07-.92-.03-.33,0-.63.04c-.17.25-.33.17-.49.42s-.98.07-1.15.32.02.73-.15.98-.5.39-.66.64.34.95.17,1.2-.93.1-1.1.35-.19.59-.36.84,0,.72-.17.97-1.56.21-1.73.46c.17.25.49.92.66,1.17s.43.44.59.69.86.15,1.02.4-.35.95-.18,1.2,1.44-.24,1.61,0,.58.33.75.58-.6,1.12-.43,1.37.8.19.96.44-.43.5-.26.75c-.1.44.51.61.31,1.02s-.92.05-1.12.46.6.81.39,1.21-.63.2-.83.6.29.66.09,1.06-.02.5-.22.91-.53.24-.74.65-.94.04-1.14.45-.28.37-.49.78.2.61,0,1.02-.67.51-.64.97,0,.82.26,1.2,1.77-.64,2.02-.26-1.36,1.45-1.11,1.82,1.77-.64,2.02-.27-.33.76-.08,1.13.42.26.67.64.49.21.74.59.02.53.27.91,1.06.51,1.06.96-1.09.4-1.34.77.47.85.22,1.23-1.81-.66-2.06-.29-.21.4-.46.77-.02.53-.26.9.41.81.16,1.19-.79.02-1.04.39-.13.46-.38.83-.16.49-.16.94.59.1.84.47-.7,1.01-.45,1.38.76.04,1.01.41,1.09-.19,1.34.19-1.03,1.22-.78,1.6.28.35.53.73.74.05.99.42,0,.55.24.92.2.14.19.59.69.73.41,1.1-.81-.03-1.09.35.14.69-.14,1.06-.75.02-1.03.39.22.75-.06,1.13-.38.3-.66.67-.15.47-.44.85-.84,0-.88.46c-.03.43-.7.88-.48,1.25s1.27-.26,1.5.12.5.21.73.58-.11.57.11.95-.32.7-.09,1.07,1.12-.16,1.34.21-.23.65,0,1.02.57.17.79.55-.67.92-.45,1.29.74,0,.72.43c-.02.47.09.47-.17.86s-.2.43-.46.81.3.77.04,1.15-.18.44-.44.83-1.57-.51-1.84-.12.46.88.2,1.27.08.62-.18,1.01-1-.08-1.02.39-.46.75-.23,1.16,1.19-.15,1.42.26-.58.88-.35,1.28,1.08-.09,1.31.32.69.14.92.54,0,.55.22.95-.86,1.04-.63,1.44.25.4.48.81,1.41.07,1.39.54-.75.33-1.01.72-.37.32-.63.71-.68.11-.94.5.27.75.01,1.14.05.6-.21.99-.5.23-.76.63.1.64-.16,1.03-.76.06-.78.53.89-.07,1.13.33-.43.79-.2,1.19.54.22.77.62-1.02,1.13-.79,1.53.88.02,1.11.42,1.08-.1,1.31.3.1.48.34.88.21.41.45.82-1.02.62-1.03,1.09.62.32.37.71.66.97.41,1.36-.66.12-.91.5-.33.33-.58.71-.02.53-.27.91-.38.3-.62.69-.58.17-.83.56-.25.39-.5.78-.67.27-.67.73,1.09-.15,1.34.21.17.42.42.78.07.48.32.85-.75,1.05-.5,1.41,1.06-.2,1.31.16.49.2.74.56-.96,1.2-.71,1.56,1.54-.52,1.79-.15-.52.96-.13,1.17.45.18.91.18.45.02.9.02.45.43.9.43.45-.18.9-.18.45.13.9.13.45-.58.9-.58.45.45.9.45.45.39.9.39.45-.63.9-.63.45.62.9.62.45-.8.9-.8.45.82.9.82.45-1.39.9-1.39.45.47.9.47.45-.26.9-.26.45,1.3.9,1.3.45-1.59.9-1.59.45,1.09.9,1.09.45-.17.9-.17.45-.1.9-.1.45.79.91.79.45-1.81.91-1.81.45,1.05.91,1.05c0,0-.34-.6-.34-.6.22-.2.82.03,1.04-.17s.91.13,1.13-.06.3-.55.52-.75.58-.24.8-.44.38-.47.6-.67.38-.46.6-.66.1-.77.33-.97.72-.08.94-.28-.21-1.12.01-1.32.64-.17.86-.37,0-.88.23-1.08.84.06,1.06-.14.9.12,1.12-.08.78-.02,1-.22-.44-1.38-.22-1.58.6-.21.82-.41-.02-.91.2-1.1.75-.05.97-.24.61-.21.83-.4-.07-.97.15-1.17.65-.16.87-.36,1.2.45,1.42.26.36-.49.58-.68.22-.65.44-.84.9.11,1.12-.08-.29-1.21-.07-1.41.01-.88.23-1.07.46-.37.68-.57.59-.22.81-.42,1.17.42,1.39.22.57-.24.8-.44.47-.37.69-.56-.53-1.48-.31-1.67.88.1,1.1-.1.24-1.08.46-1.27c.3,0,.89.26,1.19.26s.59,1.15.89,1.16.62-1.49.92-1.49.58,1.75.88,1.75.61-.78.91-.78.6-.13.9-.12.61-.57.91-.56.6.16.9.17.59,1.19.89,1.2.61-1.11.91-1.11.6.2.9.2.6-.28.9-.28.59.54.89.54.61-.44.9-.44.6-.18.9-.18.6.1.9.1.59,1.25.89,1.25.61-.69.91-.69.6.39.9.4.6-.35.9-.34.59.89.89.9.6-.1.9-.1.62-1.35.92-1.35.59,1.03.89,1.04.61-1.05.91-1.04.6.21.9.22.59.56.89.57.61-.49.91-.48.6-.26.9-.25.59.94.89.94.61-.78.91-.78.59,1.28.89,1.28.62-1.74.92-1.74.6.25.9.26.6.18.9.18.59.88.89.88.61-.84.91-.84.6-.09.9-.09.59.61.89.61.61-.8.91-.8.59,1.1.89,1.11.61-1.16.91-1.16.59.47.89.48.59,1.08.89,1.08.61-1.18.91-1.18.6-.38.9-.38.6-.07.9-.07.58,1.9.88,1.9.61-1.05.91-1.05.59,1.03.89,1.03.61-.73.91-.73.6.38.9.39.6.11.9.11.6-.12.9-.12.6-.37.9-.37.59.84.89.84.61-.69.91-.68.61-.53.91-.53.59.71.89.72.6.12.9.12.61-.93.91-.93.6-.13.9-.12.6-.23.9-.23.59.51.89.51.61-.7.91-.7.59,1.26.89,1.27.6.09.9.09.6-.16.9-.15.59.49.89.49.6-.39.9-.39.61-.71.91-.71.6.08.9.08.6.13.9.14.6-.1.9-.09.6-.42.9-.41.58,1.52.88,1.52.61-1.09.91-1.08.6.28.9.29.6.32.9.33.6.07.9.08.62-1.31.91-1.31.6.16.9.16.59,1.07.89,1.08.59.64.89.64.62-1.32.92-1.31.6-.28.9-.28.58,1.44.88,1.44.6,0,.9,0,.6.02.9.02.6,0,.9,0,.6-.1.9-.09.6.4.9.4.61-1.05.91-1.05.59.76.89.77.6-.05.9-.05.61-.97.91-.96.59.89.89.9.61-.51.91-.5.6-.33.9-.33.59.84.89.85.6-.29.9-.28.59.68.89.68.61-.82.91-.81.6-.35.9-.35.6.31.9.32.59.71.89.71.6,0,.9.01.61-.95.91-.95.59.88.89.88.6-.43.9-.43.59.76.89.77.62-1.72.92-1.71.59,1.06.89,1.07.59.63.89.63.61-.65.91-.64.6.24.9.25.6.25.9.25.6-.23.9-.23.6-.1.9-.1.61-1,.91-.99.6.24.9.24.59,1.05.89,1.05.61-1.25.91-1.25.6-.01.9,0,.59.58.89.58.6.26.9.27.6-.34.9-.34.6.15.9.16.59.76.89.76.61-.5.91-.5.59.6.89.6.61-.68.91-.67.6-.41.9-.4.6.09.9.1.6.24.9.24.6.01.9.02.6-.08.9-.07.61-.88.91-.87.59.48.89.49.59.93.89.93.61-.96.91-.96.59.75.89.75.61-.72.91-.72.58,1.45.88,1.45.61-1.08.91-1.08.6-.38.9-.38.6-.09.9-.09.6.27.9.28.59.69.89.69.6-.4.9-.4.61-.9.91-.89.58,1.57.88,1.57.61-.63.91-.62.61-.89.91-.89.6.1.9.11.58,1.78.88,1.78.61-.6.91-.6.6.26.9.27.61-.96.91-.96.6.4.9.41.59.87.89.88.61-.92.91-.91.59.79.89.8.6-.02.9-.01.61-.88.91-.88.6.06.9.06.59.67.89.67.62-1.47.92-1.47.58,1.5.88,1.5.6.27.9.27.6,0,.9,0,.6-.33.9-.33.6-.06.9-.05.6.36.9.36.6.12.9.13.6-.27.9-.27.61-.65.91-.65.6-.44.9-.43.59.79.89.79.61-.95.91-.95.6.12.9.12.6.06.9.06.58,1.37.88,1.37.62-1.32.92-1.31.59,1.09.89,1.09.6-.07.9-.07.61-.92.91-.91.6-.09.9-.09.59,1.1.89,1.1.6-.08.9-.07.59.48.89.48.6-.42.9-.42.61-.54.91-.54.61-.69.91-.69.59.43.89.44.59.76.89.77.61-.45.91-.45.6.03.9.04.59.92.89.92.6-.21.9-.2.6-.18.9-.17.62-1.49.92-1.49.58,1.79.88,1.79.61-.98.91-.97.6.42.9.42.6.17.9.17.6-.18.9-.18.59.55.89.55.6-.3.9-.3.6.14.9.15.6.29.9.29.62-1.86.92-1.86.59.92.89.93.61-.77.91-.76.59,1.28.89,1.29.59.57.89.57.63-1.04.93-1.04Z"/><path class="uuid-38616e54-3477-45a1-a82b-bc40dd6bf3fb" d="m273.28,125.45c-.22-.2-1.48-.16-1.71-.36s.38-1.33.16-1.53-.85.07-1.08-.13-.67-.14-.9-.34-.22-.65-.44-.85-.06-.83-.29-1.02-1.52.82-1.74.62.21-1.13-.01-1.33-1.12.36-1.34.17-.08-.81-.3-1-.87.09-1.1-.11.58-1.55.36-1.75-1.1.34-1.32.14-.47-.36-.7-.56-.43-.41-.65-.61-.25-.62-.47-.82.04-.95-.18-1.15-.56-.27-.78-.47-.31-.54-.54-.74-1.44.73-1.67.54.69-1.68.47-1.88-.41-.43-.64-.63-1.48.78-1.7.58.19-1.12-.03-1.31-.06-.83-.28-1.03-1.17.42-1.39.23-.88.09-1.1-.11-.41-.44-.63-.64.02-.93-.2-1.12-.45-.39-.67-.59.15-1.07-.07-1.27-1.43.72-1.65.52.15-1.06-.08-1.26-.06-.83-.28-1.03-1.11.52-1.33.32c-.3,0-.5.61-.8.61s-.59-.45-.89-.46-.6.27-.9.27-.6.24-.9.23-.58-1.5-.88-1.5-.6.2-.9.2-.59-.45-.89-.45-.61.47-.91.47-.6-.31-.9-.31-.6.04-.9.04-.6-.18-.9-.18-.61.93-.91.92-.59-.96-.89-.96-.6-.07-.9-.08-.6.34-.9.34-.6-.08-.9-.08-.61.77-.91.77-.6-.26-.9-.26-.59-.66-.89-.66-.6-.27-.9-.27-.61.99-.91.99-.59-1.07-.89-1.08-.61,1.3-.91,1.29-.58-1.32-.88-1.32-.62,1.68-.92,1.67-.59-.77-.89-.77-.61.94-.91.94-.59-.81-.89-.81-.6-.35-.9-.35-.6.37-.9.36-.6-.21-.9-.22-.61.72-.91.71-.58-1.46-.88-1.47-.61,1.3-.91,1.3-.59-1.17-.89-1.18-.6.16-.9.16-.61,1.21-.91,1.2-.6.04-.9.04-.59-.72-.89-.72-.61.62-.91.61-.59-1.3-.88-1.3-.61.52-.91.52-.61,1.03-.91,1.02-.59-.85-.89-.85-.59-.82-.89-.82-.62,1.46-.92,1.46-.58-1.45-.88-1.45-.6.41-.9.4-.61.76-.91.75-.6-.14-.9-.15-.6.12-.9.12-.58-1.31-.88-1.31-.6-.06-.9-.07-.6-.07-.9-.07-.6-.08-.9-.08-.62,1.43-.92,1.42-.59-.56-.89-.56-.6.24-.9.24-.59-1.04-.89-1.04-.61.63-.91.63-.61,1.11-.91,1.1-.6-.32-.9-.32-.58-1.56-.88-1.56-.61,1.16-.91,1.15-.6-.34-.9-.35-.59-.8-.89-.81-.62,1.37-.92,1.37-.61.53-.91.53-.59-.91-.89-.91-.6-.09-.9-.1-.6.15-.9.14-.59-.94-.89-.94-.62,1.42-.92,1.42-.58-1.6-.88-1.61-.62,1.88-.92,1.88-.59-1.02-.89-1.02-.59-.48-.89-.49-.6-.08-.9-.09-.61,1.24-.91,1.24-.59-.56-.89-.57-.6-.17-.9-.18-.6.29-.9.28-.61.45-.91.45-.6-.05-.9-.05-.58-1.3-.88-1.31-.61,1.19-.91,1.19-.6.35-.9.34-.59-.75-.89-.75-.6.03-.9.03-.6-.34-.9-.34-.6.16-.9.15-.6.12-.9.12-.6.11-.9.11-.61.49-.91.48-.6-.29-.9-.29-.59-.99-.89-1-.61,1.21-.91,1.21-.6.27-.9.26-.6-.04-.9-.05-.59-.75-.89-.75-.6-.13-.9-.13-.6-.07-.9-.07-.59-.59-.89-.59-.61.55-.91.54-.59-.47-.89-.48-.6.39-.9.38-.6.38-.9.37-.59-.5-.89-.5-.61,1.2-.91,1.2-.58-1.88-.88-1.88-.61.61-.91.6-.6-.07-.9-.07-.6.11-.9.11-.59-.55-.89-.56-.6.24-.9.24-.6-.21-.9-.22-.6-.13-.9-.14-.6.2-.9.2-.6-.29-.9-.29-.61,1.27-.91,1.27-.6.01-.9,0-.6-.41-.9-.41-.6.38-.9.38-.59-.88-.89-.88-.61.7-.91.69-.59-1.02-.89-1.03-.62,1.66-.92,1.66-.6-.43-.89-.43-.6.19-.9.19-.6.3-.9.3-.58-1.63-.88-1.63-.61.96-.91.95-.59-.98-.89-.98-.61.99-.91.99-.6.1-.9.09-.61.57-.91.56-.58-1.54-.88-1.54-.6-.03-.9-.03-.6.24-.9.24-.61.54-.91.53-.59-.87-.89-.87-.6-.37-.9-.37-.61.6-.91.6-.6-.42-.9-.43-.62,1.47-.92,1.47-.58-1.51-.88-1.51-.61,1.17-.91,1.17-.59-.78-.89-.79-.6-.21-.9-.21-.61,1.22-.91,1.22-.59-1.09-.89-1.1-.62,1.35-.92,1.35-.6-.31-.9-.31-.59-1.12-.89-1.12-.61,1.25-.91,1.25-.6-.16-.9-.16-.58-1.36-.88-1.36-.6.09-.9.09-.6.12-.9.12-.61.9-.91.9-.59-.66-.89-.66-.6-.16-.9-.16-.6.17-.9.17-.61,1.05-.91,1.05-.6-.26-.9-.26-.59-1.28-.89-1.28-.61.96-.91.96-.59-.65-.89-.65-.59-.6-.89-.6-.62,1.37-.92,1.36-.59-1.05-.89-1.05-.61.68-.91.67-.6-.02-.9-.03-.61.78-.91.77-.59-1.08-.89-1.08-.61.79-.91.79-.59-.46-.89-.46-.59-.66-.89-.66-.61.66-.91.65-.6.02-.9.01-.61.56-.91.55-.59-.75-.89-.75-.61.57-.91.56-.6.1-.9.1-.59-.87-.89-.87-.61,1.13-.91,1.13-.6.11-.9.11-.59-.77-.89-.77-.59-.52-.89-.52-.59-.47-.89-.47-.61.67-.91.67-.6-.2-.9-.2-.61,1.17-.91,1.17-.58-1.84-.88-1.84-.61.64-.91.64-.6-.31-.9-.32-.61,1.01-.91,1.01-.59-.5-.89-.51-.61.51-.91.51-.6-.09-.9-.1-.59-.71-.89-.71-.59-.45-.89-.45-.6-.26-.9-.26-.61,1.25-.91,1.25-.6.13-.9.13-.58-1.38-.88-1.38-.61,1.03-.91,1.03-.61.76-.91.76-.6-.31-.9-.31-.58-1.35-.88-1.35-.6-.13-.9-.14-.61.7-.91.7-.6,0-.9,0-.6.06-.9.05-.61,1.08-.91,1.08-.59-1.11-.89-1.12-.61.14-.91.14c-.22.2.02.91-.2,1.11s-.38.46-.6.66-1.09-.33-1.31-.14-.11.76-.33.96-.61.2-.83.4-.01.87-.23,1.07-.56.27-.78.46-.49.34-.71.54-.89-.11-1.11.09.11,1.01-.11,1.21-.6.21-.83.41-.74.06-.96.26-.13.74-.35.94-1.09-.33-1.31-.13-.46.37-.68.57.1,1-.12,1.2-.27.59-.49.79-.7.1-.92.3-.2.66-.42.86-.6.21-.83.41-1.12-.36-1.34-.16-.36.49-.58.69.5,1.45.28,1.65-1.07-.31-1.29-.12-.54.28-.76.48-.62.2-.84.39-.07.81-.29,1.01-.61.2-.83.4-.35.5-.57.7-.05.84-.27,1.04-.55.27-.77.47-.25.61-.47.81-1.34-.61-1.56-.41-.43.41-.65.61.93.93.71,1.13c.26.16-.55.81-.29.97s.46.4.72.56,1.09-.61,1.35-.45.13.94.39,1.1.31.66.56.82.56.25.82.41.27.72.53.88.99-.44,1.25-.28.42.48.68.64.24.76.5.92.78-.11,1.04.05.52.31.78.47.73-.03.99.13.49.36.75.52.13.94.39,1.1.95-.38,1.21-.22.91-.31,1.17-.15-.31,1.65-.05,1.81,1.12-.66,1.38-.5.21.81.47.97.77-.08,1.03.08.03,1.11.29,1.27.99-.45,1.25-.29.3.67.56.83.04,1.09.3,1.25.92-.32,1.17-.16.84-.6,1.1-.44c.3,0,.38.18.68.18s.59,1.13.89,1.14.61-.87.91-.87.61-.52.91-.51.58,1.67.88,1.68.61-.88.91-.88.6.04.9.05.61-.86.91-.85.59.81.89.82.6.07.9.07.6,0,.9.01.59.72.89.72.62-1.5.92-1.5.6-.02.9-.02.59.82.89.82.61-.71.91-.71.59.72.89.72.6-.24.9-.24.6.15.9.16.59.8.89.81.6-.21.9-.21.61-.75.91-.75.6-.28.9-.27.59,1.2.89,1.2.6-.2.9-.2.61-.59.91-.59.59.76.89.77.6.19.9.19.61-.56.91-.56.59.85.89.85.62-1.9.92-1.9.6.11.9.11.58,1.62.88,1.62.61-.95.91-.95.6.05.9.05.6.06.9.06.59.98.89.98.62-1.57.92-1.57.58,1.39.88,1.39.61-.52.91-.51.59.61.89.61.6-.43.9-.43.59.66.89.66.6-.39.9-.39.61-.73.91-.73.6-.14.9-.14.59,1.04.89,1.04.61-1.17.91-1.17.6.22.9.22.6-.27.9-.27.6.06.9.06.6.36.9.36.59,1.12.89,1.12.61-1.19.91-1.19.61-.6.91-.6.59.46.89.46.6.04.9.05.6.21.9.22.6-.02.9-.02.61-.63.91-.63.59.98.89.98.61-.76.91-.76.6-.35.9-.34.59,1.29.89,1.29.6.02.9.03.59.65.89.66.61-1.24.91-1.23.6-.41.9-.4.58,1.56.88,1.56.61-1.05.91-1.05.59.69.89.7.6-.39.9-.39.6-.42.9-.42.6-.35.9-.35.59.83.89.84.61-.9.91-.89.58,1.51.88,1.52.6.11.9.11.61-.95.91-.95.59.86.89.86.6-.25.9-.24.6-.18.9-.17.61-.94.91-.94.58,1.41.88,1.42.6.09.9.09.61-1.22.91-1.21.6-.21.9-.21.6.43.89.43.6.4.9.4.6-.17.9-.17.6.17.9.17.59.73.89.73.61-1.23.91-1.22.61-.52.91-.52.6.41.9.41.58,1.42.88,1.42.62-1.68.92-1.68.58,1.38.88,1.39.61-.83.91-.83.6.24.9.24.6-.04.9-.04.59.65.89.65.6-.23.9-.23.61-.57.91-.56.6.41.9.41.61-.68.91-.67.59.75.89.75.61-.59.91-.59.59.6.89.6.61-.75.91-.74.6-.02.9-.01.6.36.9.37.6-.16.9-.16.59.61.89.61.6-.34.9-.33.6.24.9.25.61-1.13.91-1.13.6.27.9.27.58,1.31.88,1.32.61-.84.91-.84.59,1.19.89,1.19.62-1.63.92-1.63.6.17.9.17.59.59.89.59.6-.2.9-.2.61-.77.91-.77.6.11.9.11.58,1.61.88,1.61.62-1.37.92-1.37.59.93.89.93.6.42.9.42.62-1.62.92-1.61.6-.03.9-.03.58,1.76.88,1.76.6-.33.9-.33.61-.86.91-.86.59,1.05.89,1.05.6-.16.9-.16.6-.14.9-.13.61-1.03.91-1.03.59,1.13.89,1.13.6.09.9.09.6.2.9.2.62-1.42.92-1.41.6.23.9.23.59.9.89.9.6-.34.9-.34.61-.64.91-.63.59.87.89.87.59.62.89.62.6-.33.9-.33.61-1.05.91-1.05.6-.01.9-.01.6.23.9.23.6.08.9.08.61-.47.91-.47.6.29.9.29.6.41.9.41.6-.26.9-.25.59,1.23.89,1.23.62-1.65.92-1.65.59,1.23.89,1.23.61-1.08.91-1.08.59.67.89.67.59.63.89.63.61-1.26.91-1.25.59.7.89.71.61-.85.91-.84.59.7.89.71.59.69.89.69.61-1.11.91-1.1.59.5.89.51.59.95.89.95.6-.35.9-.35.61-.68.91-.68.59,1,.89,1,.6-.07.9-.06.6-.24.9-.24.6.07.9.07.61-.46.91-.45.59.76.89.76.61-.58.91-.58.6-.23.9-.23.6.35.9.35.6-.39.9-.39.6.02.9.02.61-.78.91-.77.6.39.9.39.6-.28.9-.28.59,1.16.89,1.17.6-.44.9-.43.6-.12.9-.12.6.11.9.11.59.48.89.48.6.3.9.31.6,0,.9,0,.6.23.9.23.62-1.68.92-1.68.6.43.89.43.6.14.9.14.6-.19.9-.19.6-.36.9-.36.6-.2.9-.19.59.96.89.96.61-.84.91-.83.59,1.2.89,1.21.6.21.9.21.61-.65.91-.65.61-.78.91-.78.59.5.89.51.59,1.16.89,1.16.6-.2.9-.2.62-1.54.92-1.54.59.52.89.52.6-.19.9-.19.6.16.9.16.51.14.81.14c.27-.13.73.31,1,.18s.62-.1.89-.24.64-.06.91-.2,0-1.34.26-1.47.49-.36.76-.5,1.01.67,1.28.54.27-.79.54-.92.44-.46.71-.6,1.03.71,1.3.58.3-.73.57-.87.3-.73.57-.86.67,0,.94-.13.29-.75.56-.89.37-.59.64-.73,1,.64,1.26.51.56-.21.83-.35.84.33,1.11.2.44-.45.71-.59.32-.69.59-.82.59-.16.86-.29.67-.01.93-.15.08-1.17.35-1.31.36-.61.63-.75,1.25,1.14,1.51,1-.06-1.44.21-1.57.74.15,1.01.01.26-.82.53-.95,1.04.73,1.31.6.54-.26.81-.4.18-.97.45-1.11.27-.79.54-.93,1.69.64,1.96.51Z"/><path class="uuid-38616e54-3477-45a1-a82b-bc40dd6bf3fb" d="m246.81,97.91c-.04-.33.07-.63.02-.95,0-.2.14-.38.25-.48.42-.45.12-.41-.36-.87-.08-.1-.13-.23-.14-.36-.02-.06,0-.01-.03-.03-.26-.2-.57-.13-.87-.48-.4-.51.04-1.02.34-1.29.01-.04-.02.03-.03-.06-.23-.18-.49-.66-.39-1.08.1-.42.4-.6.51-.7.14-.1.11-.15.05-.03-.02.07-.02.05-.02.05,0,.01,0,.05,0,.04-.01,0-.06-.05-.15-.16-.42-.45-.38-1.3.19-1.63.34-.2.64-.31.89-.44.02,0-.02-.02-.11.1-.04.06-.08.15-.09.26,0,.06,0-.05,0-.07l-.02-.49c0-.12-.02-.4-.02-.25.02.1.08.18-.16-.13-.16-.22-.24-.57-.26-.83-.01,0,.05.16-.13-.2-.21-.53-.19-.97-.02-1.44.07-.2.08-.18.03-.13,0,0-.01-.06,0,.12.03.13.06.23.13.32.21.25.15.14.04.13-.35-.1-.73-.23-1.09-.63-.55-.61-.27-1.69.36-2.03.29-.18.61-.31.91-.42.11-.04.23-.12.08-.03-.08.05-.33.27-.36.7-.01.17.03.31.11.46.18.24.15.17-.12,0-.3-.22-.67-.82-.64-1.29,0,0,0,.12.01.17.04.27.24.49.28.53.07.06.08.06.04.05-1.41-.43-1.84-2.1-.65-3.13.03-.03-.04.02-.13.16-.08.13-.12.32-.12.42-.02-.41.2-.91.44-1.15.22-.31.79-.53.88-.63-.03.02-.1.04-.27.26-.23.31-.27.85-.03,1.17.08.11.1.12.03.07-.32-.21-.73-.91-.72-1.36,0,0-.01-.21-.01-.14,0,.11.02.2.05.31.06.16.16.29.16.29-.21-.19-.58-.66-.65-1.08-.05-.25-.09-.63-.02-.18.04.21.18.41.25.48.14.11-.09.03-.5-.49-.49-.63-.45-1.68-.09-2.32.06-.11,0-.04-.02.06-.03.1-.04.18-.04.2-.02-.36.2-1.02.54-1.31.25-.34.99-.61,1.18-.71-.02.02-.19.08-.38.36-.13.2-.24.49-.23.76,0,0,0-.12,0-.12-.03-.55.45-1.32.8-1.58.03-.03-.04.02-.15.19-.11.16-.18.43-.19.58,0,0,0,.15.01.29.05.25.13.46.28.65.06.08.08.11.14.16.19.17.22.17.25.19-.37-.17-.58-.09-1.22-.55-.28-.14-.82-.93-.8-1.56,0,0,0,.05,0,.05,0,0,.01.11.01.11.01.08.04.18.07.27.07.19.19.32.17.3,0-.01-.15-.14-.33-.4-.83-1.26-.16-2.82,1.13-3.32.18-.08.29-.15.13-.06-.08.06-.29.17-.5.62-.06.15-.11.33-.12.5,0,.05,0,.15,0,.07-.02-.47.24-1.15.51-1.45.45-.49.13-.24-.02.15-.08.26-.1.33-.08.65.02.42.38.87.56.99-.56-.26-1.29-1.08-1.31-1.86,0,0-.01-.18-.01-.18,0-.12,0,.07,0,.09.03.4.23.79.5,1.05.31.26.26.17.1.12-2.42-.95-2.06-3.91.38-4.44.19-.04.69-.18.84-.23-.1.06-.28.04-.69.61-.34.45-.37,1.41.02,1.83-.24-.15-.74-1.08-.71-1.64,0,0,0-.12,0-.12-.07.46.44,1.26.64,1.33.21.15.12.08-.08,0-2.19-.95-1.85-3.58-.25-4.41-.22.09-.67.87-.61,1.27,0,0,0-.09,0-.09l.02-.23c-.03-.37.46-1.3.63-1.44-.06.02-.31.56-.29.74-.01.07,0,.18,0,.1,0,0-.02-.43-.02-.43,0-.1,0-.31-.01-.41-.02.14.1.63.24.79.1.15.11.15-.02,0-.37-.42-.7-1.29-.6-1.96-.01-.61.59-1.56,1.01-1.82.08-.07.05-.06-.07.07-.33.33-.54,1.07-.35,1.6.09.32.3.58.39.67.09.09.08.08-.04-.02-.45-.29-1.06-1.4-.97-2.03-.02.37.17.88.39,1.12.42.45.42.34.2.24-.67-.34-1.4-1.26-1.38-2.23-.02-.52.21-1.17.54-1.56.37-.51,1.22-.89,1.58-1.01-.67.36-1.02,1.11-.93,1.89.06.49.31.95.68,1.27.05.05.11.09.17.12.3.17.2.1.13.09-.53-.13-1.21-.29-1.78-.74-1.2-.87-1.23-2.9.02-3.8.5-.42,1.24-.59,1.84-.76,0,0-.08.04-.08.04-1.26.65-1.34,2.66-.12,3.34-.34-.18-.99-.44-1.42-1.12-.25-.31-.43-1.04-.41-1.35,0,.07,0,.14.02.21,0,.37.42,1,.54,1.05-1.23-.85-1.53-2.85-.37-3.92.56-.57,1.45-.78,2.07-.95-.12.05-.24.13-.35.21-.66.47-1.03,1.76-.47,2.53.16.24.27.32.23.29-.36-.26-.94-1.08-.98-1.7-.06-.55-.02-.51-.03-.65.01-.18.03-.48.04-.66-.07.45.43,1.37.79,1.52-.68-.27-1.69-1.37-1.61-2.45,0-.47.16-1.1.41-1.48.16-.26.23-.34.15-.22-.17.26-.29.7-.22,1.05.02.19.13.49.23.64.1.15.1.14-.04-.05-.29-.33-.59-1.16-.56-1.69,0,.28.1.62.26.87.13.19.19.24.1.14-1.25-1.25-.87-3.43.54-4.22-.28.16-.71.93-.65,1.38,0,0,0-.17,0-.17.03-1.01.83-1.87,1.54-2.21.02,0-.09.04-.27.23-.8.77-.6,2.46.51,2.99.05.02.03,0-.01,0l-.47-.16c-1.18-.35-2.13-1.56-1.9-2.85,0-.48.55-1.37.8-1.57-.12.07-.41.71-.39.97,0,.01,0,.21,0-.05.02-.58.32-1.21.72-1.61.64-.59.89-.59.99-.67.05-.02.04-.02-.06.04-.98.63-.95,2.37,0,2.98.22.14.13.07-.07-.01-.72-.26-1.67-1.24-1.65-2.28,0-.1,0-.3,0-.4,0,0,0-.51,0-.51,0,0,0-.06,0-.06,0-.49.17-1.03.44-1.4.47-.68,1.11-.91,1.52-1.08.02,0,.04-.02-.07.05-.02.01-.14.1-.21.17-.64.57-.76,1.65-.28,2.39.14.23.43.51.65.6.15.06.05.01-.06-.02-.42-.12-.87-.26-1.28-.5-.58-.32-1.09-1.03-1.16-1.73-.08-.44.06-1.14.19-1.44-.02.08-.04.17-.04.25,0-.62.32-1.35.82-1.75.49-.44,1.17-.61,1.55-.72-.41.24-.82.54-.91,1.52-.06.43.33,1.17.62,1.32-.57-.28-1.35-1.3-1.28-2.13-.03-.64.34-1.35.66-1.65.62-.57.88-.57,1.05-.67.15-.05.22-.14-.09.11-.31.25-.59.86-.55,1.25,0,0,0-.02,0-.02,0,0,0,0,0,0,0,0,.01.05,0,0-.01-.06-.05-.27-.06-.43-.03-.4,0-.74-.02-1.12.03-.35-.06-.57-.05-1.09-.01.2.07.58.19.79.12.26.41.57.65.67.11.05.01,0-.1-.03,0,0-.48-.14-.48-.14-.2-.08-.93-.31-1.26-.67-.41-.37-.69-1.01-.67-1.54,0-.29.05-.68.12-.85,0-.69.37-1.39.94-1.76.73-.44.79-.35,1.35-.53.04,0,.04-.01.01,0-.03.01-.08.04-.11.07-.14.12-.16.12-.31.3-.2.23-.34.68-.32.95,0,0,0-.06,0-.06,0-.25.04-.49.12-.76.18-.51.06-.14.07-.09-.01.42.22.91.5,1.12.06.05.13.1.16.11.11.05,0,0-.15-.07-.17-.08-.38-.12-.86-.47-.36-.25-.69-.77-.76-1.26-.06-.62-.02-.3,0-.7.02-.17.07-.38.1-.48.03-.1.02-.04.02-.03,0,.02,0,.03,0-.02-.01-1.22,1.19-1.88,1.85-2.01-.3.15-.64.78-.58,1.1,0-.08.04.13-.03-.2-.04-.23-.05-.45-.05-.67-.06.39.38,1.01.56,1.06.04.02.04.02,0,0-.35-.15-.63-.24-.99-.53-1.4-1.16-.56-3,1.04-3.3.12-.03.23-.09.07.02-.39.31-.57.91-.34,1.42.06.15.16.28.27.4.29.22.19.1.11.08l-.44-.16c-.21-.1-.41-.1-.9-.5-.28-.19-.57-.8-.54-1.2,0-.03,0-.05,0-.04,0,0,.01.01-.02-.11-.05-.19-.07-.45-.07-.66-.03-.44.22-1,.49-1.25.37-.34.56-.39.53-.38-.32.25-.36.9-.06,1.18.07.07.08.06.03.02-.05-.04-.16-.12-.3-.27-.25-.21-.52-.79-.49-1.18,0,.06.05.21.09.25.03.03,0-.02-.11-.18-.21-.34-.31-.79-.23-1.23.14-.87,1.12-1.19,1.8-1.32.03,0,.04-.01,0,.02-.15.14-.25.27-.29.53,0,.04,0,.09,0,.12v-.09c.01-.06.01-.11.03-.17.03-.3.32-.73.49-.86.23-.18.11-.13.05.09-.03.11,0,.34.07.46.13.24.22.24.22.25-.27-.15-.83-.31-1.17-.6-.16-.11-.44-.49-.41-.9,0-.34.2-.65.37-.8.26-.28.64-.34.86-.44.04-.01.07-.03.03,0-.03.02-.12.16-.13.32-.03.18.14.43.17.43.06.04.03.01,0,0-.28-.13-1.07-.34-1.35-.88-.22-.44,0-1,.3-1.29.02-.02,0,0,.02,0,0,0,0,0,0-.02l.02-.17c.04-.31.26-.62.33-.68.02-.02,0,0,.05-.28.16-.43.45-.53.6-.61l.31-.14s0,.04,0,.06c0,0,.01-.18.04-.27.09-.35.21-.39.23-.62-.01.03.08.13.04.08-.11-.11-.47-.23-.75-.33-.25-.09-.5-.17-.72-.36-.08-.07-.18-.24-.12-.4.13-.3.34-.29.49-.36.41-.18,1.06-.04,1.29-.46-.02.6-2.56.81-.8,1.08,1,.16,1.58.29,1.17,1.51,0,.07,0,.05,0,.21,0,.41-.48.72-.7.84-.12.07-.13.15-.07.04.02-.11.02.06,0,.2-.02.14-.07.3-.13.4-.13.23-.09.18-.08.22.03.21-.05.53-.18.73-.17.25-.12.21-.1.19.03.04,0-.15-.03-.19-.08-.14-.1-.13-.08-.14.2.07.91.18,1.26.5.16.1.4.51.35.84-.01.32-.21.59-.35.72-.22.25-.61.35-.78.48-.04.02-.03.04.01,0,.06-.04.17-.2.17-.38.03-.26-.17-.48-.19-.5-.05-.05-.03-.03,0-.03.39.1.57.12,1.01.33,1.02.55.75,1.79.1,2.31-.02.02.04-.02.09-.11.02-.05.04-.1.05-.14v-.06s.01-.03.01-.03c0,.05,0,.12-.01.17-.04.26-.13.45-.25.61-.31.41-.85.6-1.24.75-.19.06-.32.18-.12.04.25-.21.38-.66.24-.93.13.13.38.57.4.85.03.23.06.41,0,.09-.04-.16-.15-.3-.18-.34-.03-.04-.01-.02.07.03,1.32.9.8,2.44-.09,2.93.11-.06.27-.47.26-.6.09.16.17.65.16.88.04-.29-.19-.7-.35-.84-.24-.19-.14-.1-.04-.09.57.13,1.5.38,1.84,1.21.32.73,0,1.61-.6,2.02-.52.34-.77.38-1.07.54.02-.01.04,0,.23-.16.5-.42.45-1.47-.08-1.85-.11-.09-.11-.08-.1-.08l.4.14c.48.24.76.28,1.18.98.15.21.19.66.22.87.45,1.42-.3,2.45-1.58,2.87-.1.03-.19.13.09-.07.15-.11.47-.52.46-1.02.02.17-.05.75-.1.89-.01.06,0,0,0-.01,0-.04.02.15,0-.23-.05-.37-.27-.68-.5-.88-.22-.16-.13-.08,0-.05.14.05.34.1.72.31.58.32,1.05.99,1.06,1.74,0,.12,0,.17,0,.28,0,.36-.25,1.03-.17.82.02-.06.03-.15.04-.17,0,0,0,.17-.02.25-.11,1.12-1.17,1.72-2.12,1.99-.1.02-.19.11.06-.04.15-.12.51-.34.65-1.11.01-.05,0-.24,0-.17,0,0,0,.05,0,.05,0,.21-.03.6-.07.77-.01.09,0,0,0,.04,0,.11,0-.12,0-.2-.02-.19-.09-.4-.18-.55-.11-.24-.31-.46-.53-.61-.23-.14-.12-.07-.04-.06.48.15.65.11,1.23.38.71.3,1.32,1.13,1.3,1.97.05.27.1.91.09,1.04.02.2.02.62.04.78,0,0,0-.06.01.04.02.09.06.3.07.46.12.75-.21,1.65-.78,2.1-.56.45-.79.48-.93.56-.12.03-.16.15.23-.2.21-.18.52-.74.48-1.22.06-.39-.35-1.1-.6-1.24,1.56.82,1.73,3.04.4,3.98-.33.27-.96.52-1.28.61-.12.04-.22.1-.05.01.4-.21.71-.68.81-1.16.02-.09.03-.18.03-.27,0-.14,0-.1,0-.07,0,.08,0,.18-.01.28-.01.2-.07.48-.13.67-.06.2-.06.2-.03.1.02-.08.03-.16.03-.18.05-.53-.34-1.32-.85-1.6-.03-.03-.12-.06-.12-.06-.03-.02-.02-.01.01,0,.74.15,1.78.5,2.25,1.3,1,1.61-.18,3.26-1.52,3.69.31-.09.88-.95.84-1.44,0-.16,0-.11,0-.04,0,.18.01.54.02.71,0,.02,0,.2,0,.05.05-.59-.57-1.4-.85-1.49,2.27.79,2.55,3.77.27,4.83-.18.07-.23.18.18-.18.11-.11.24-.29.33-.47.11-.23.17-.47.19-.72,0-.22,0,.01,0,.07-.02.29-.08.59-.2.88-.17.41-.43.71-.53.83-.12.12-.08.1.04-.06.64-.85.15-2.25-.71-2.65,2.79.6,3.34,3.67.9,5.02.34-.15.82-.97.77-1.48.04.91-.66,1.91-1.31,2.28.54-.38.89-1.41.51-2.11-.12-.26-.26-.4-.24-.38.01.02.19.18.4.51.27.42.41.96.42,1.44,0,.05,0-.05,0-.07,0-.07-.02-.19-.05-.3-.1-.4-.52-.9-.01-.21.37.58.51,1.35.38,2.04-.05.35-.23.76-.39,1.01-.17.25-.2.29-.12.17.26-.42.3-.98.12-1.47-.19-.54-.58-.81-.67-.88.36.21.67.35,1.1.9.5.62.57,1.55.46,2.33,0,.02.02.22-.02-.18-.04-.29-.21-.65-.35-.82-.14-.17-.19-.19-.1-.12,1.55,1.29,1.18,3.78-.74,4.45-.3.12-.91.28-1.09.32.69-.3,1.2-1.21,1.06-2.05-.02-.39-.43-.96-.53-1.01.41.27,1.03,1.13,1.07,1.8.01.11.02.22.03.33,0,.11,0-.07,0-.1.03-.49-.54-1.33-.83-1.43,1.68.6,2.6,3,.79,4.41-.53.41-1.25.58-1.8.72.44-.2.94-.77,1.03-1.4.18-.79-.3-1.77-.94-2.08-.18-.09-.1-.04,0-.01.57.18,1.08.24,1.75.76,1.32,1.02,1.09,3.15-.31,3.96-.21.14-.52.27-.71.34-.19.07-.31.12-.2.07.51-.26.94-1.02.9-1.64.03-.58-.42-1.27-.75-1.43.04.07.34.09.97.79.32.37.56,1.03.55,1.56,0-.24-.08-.6-.24-.86-.16-.26-.3-.37-.3-.37,1.17.8,1.45,2.78.41,3.84-.23.25-.38.36-.42.39-.04.03.04-.02.19-.22.3-.4.41-.98.25-1.45-.17-.46-.46-.73.02-.1.34.5.45,1.18.41,1.78,0,.22.01.57-.02.86-.01.43-.36,1.16-.57,1.38-.13.15-.1.13,0-.02.1-.15.19-.42.2-.59,0,0,0-.11,0-.11,0-.13-.01.16-.01.16.01.61-.6,1.52-.96,1.73-.4.28-.53.35-.32.2.66-.51.73-1.84.05-2.44-.07-.09-.32-.25-.28-.21.47.18,1.34.71,1.61,1.63.07.22.1.46.11.69,0,0,0-.06,0-.06,0-.24-.2-.71-.31-.81-.07-.07,0-.01.16.19,1,1.23.52,3.05-.8,3.59-.54.26-.99.3-1.5.42-.08,0-.18.07.06-.06.09-.07.11-.06.34-.29.68-.71.53-2.09-.3-2.53-.03-.01.01.01.07.04.13.08.38.11.93.58.06.05.14.14.22.24.31.33.52,1.01.5,1.36.04-.37-.34-1.06-.59-1.17-.02-.01.03.02.14.09,1.26.7,1.55,2.59.5,3.63-.14.14-.16.17-.09.08.12-.13.3-.56.27-.8,0-.06,0,.06,0,.13-.02.23-.07.47-.17.67-.27.6-.61.81-.82.96-.42.26-.62.3-.72.35-.05.02-.07.03-.02,0,.2-.11.6-.62.62-1,.04-.45,0-.55-.19-.89-.09-.13-.12-.14-.03-.04.27.22.64,1.07.6,1.53,0,.07,0,.04,0-.05-.06-.61-.39-.94-.55-1.05-.26-.17-.17-.08-.07-.05.7.2,1.74.86,1.82,1.8.16.71-.28,1.59-.76,1.97-.09.07-.08.07,0-.03.11-.13.24-.45.24-.67,0,0,0-.06,0-.06,0,.35-.13.77-.32,1.04-.44.65-.98.78-1.4.95-.1.02-.11.05-.04,0,.07-.05.07-.05.18-.15.19-.21.31-.45.35-.73.02-.11.01-.27.01-.16.04.28-.2,1-.33,1.16.12-.25.05-.7-.15-.96-.23-.26-.17-.18.19.16.28.25.57.93.54,1.38.01-.18-.13-.51-.22-.6-.06-.06-.04-.03.08.09.25.22.57.93.54,1.35,0,.05,0,.07,0,.03,0,0,0-.05,0-.05,0-.13-.08-.35-.18-.47-.09-.12-.13-.14-.08-.09.05.05.19.17.36.41.42.58.46,1.48.05,2.07-.33.52-.83.68-1.11.81.19-.11.43-.53.41-.85.05.44-.35,1.19-.66,1.39-.1.08-.11.1-.06.04.05-.06.15-.23.17-.38.09-.32-.18-.86-.38-.95-.07-.03.07.05.27.16.1.06.25.14.44.3.23.15.6.78.56,1.21,0-.11-.04-.23-.09-.34-.08-.16-.17-.23-.18-.23,1.24.86,1.04,2.63-.57,2.99,0,0-.4.11-.4.11-.04,0-.07.02-.02,0,0-.02.2-.12.3-.45.12-.42-.09-.82-.31-.92.37.23,1.27.51,1.37,1.33.04.26.01.29.01.36-.01.15-.05.33-.11.5-.07.17-.13.27-.13.28,0,0,0-.04,0-.04-.01.03-.01.05-.04,0-.05-.07.19.37.2.69,0,.08,0,.15,0,.22,0,.01,0,0,0-.02-.06-.16-.11-.16.05.05.37.45.23,1.23.2,1.68,0,.21-.06.5-.18.65-.31.46-.69.48-1.04.62,0,0-.29.09-.29.09-.02,0,.06-.03.11-.19.06-.24,0-.14.01-.18-.04-.06-.07-.07.12.19.19.27.26.63.16.99-.14.44-.46.59-.57.66-.15.08-.13.1-.11,0,0-.05-.01-.01-.01,0,0,.01-.01,0,0,.04,0,.04.24.31.27.6.05.22-.03.65-.25.83-.19.18-.32.24-.34.27-.02,0-.03.02-.05-.02-.02.01.11.11.24.18.13.09.3.16.48.36.09.09.14.3.13.4,0,.04,0,.05,0,.09.02.07.15.16.29.3.15.13.24.41.18.61-.15.48-.59.47-.6.74-.01.32-.18.62-.2.93h0Z"/><path class="uuid-38616e54-3477-45a1-a82b-bc40dd6bf3fb" d="m53.7,93.42c-.06-.32.15-.63.08-.91-.04-.23-.38-.26-.69-.48-.17-.11-.29-.4-.18-.65.12-.24.3-.33.43-.42.13-.09.34-.21.22-.25-.26-.2-.72-.25-.8-.8-.05-.27.08-.6.23-.76.14-.17.13-.18.11-.19-.02-.14-.02-.29-.01-.43.04-.37-.04-.39.03-.8.04-.17.14-.33.22-.43.18-.2.21-.26.16-.21-.01,0-.02.09-.03,0-.04-.28.1-.57.08-.81,0-.04,0-.05,0-.01,0,.04.02.11.04.14.04.04-.09-.03-.32-.26-.17-.12-.33-.58-.33-.79,0,.03,0,.07.01.11.07.19.12.17-.04.08-1.04-.64-.83-1.83.22-2.39.01-.01-.03,0-.1.1-.03.04-.07.12-.08.18-.02.07-.01.14-.02.1-.03-.05.05.16-.06-.04-.15-.2-.25-.76-.24-.85-.04-.03.07.22-.04.03-.19-.25-.31-.75-.26-1.09.06-.54.52-.96.94-1.13.22-.1.38-.16.51-.21.12-.04.23-.12.14-.08-.3.17-.45.72-.28,1.04.18.29.2.23,0,.13-.34-.21-.75-.69-.78-1.19,0,0-.03-.32-.03-.32l-.02-.15c-.09-.4-.06-1.09.03-1.44,0,.02,0-.09,0-.01-.01.28.22.6.33.7-1.49-.55-1.67-2.49-.2-3.27.16-.07.15-.18-.13.17-.22.37-.23.7-.04,1.04.18.23.07.16-.29-.28-.21-.29-.34-.7-.35-1.06,0-.06,0,.06,0,.09.01.08.04.21.08.31.23.44.35.41.14.3-1.08-.63-1.2-2.32-.24-3.12.29-.23.23-.28,0,.08-.11.18-.15.44-.14.53,0,0,0,.07.01.15.02.08.06.16,0,.06-.41-.71-.34-1.87.25-2.42.48-.47.71-.51.81-.59.05-.03.06-.04,0,0-.04.03-.23.16-.37.45-.07.16-.11.32-.13.48,0,.14,0,.02,0,0,0-.25.04-.52.13-.78.17-.42.09-.28.05-.08-.02.09,0,.22.01.31.03.35.48.89.56.89.13.08.02.02-.12-.02-1.87-.49-2.32-2.72-.73-3.88.01-.01-.07.04-.2.22-.13.16-.23.49-.23.68-.01-.26.17-.97.52-1.3.24-.35.94-.67,1.18-.78-.17.08-.41.25-.61.76-.32.89.31,1.56.45,1.63.11.07-.01.02-.37-.21-1.53-1.05-1.17-3.2.39-3.95-.5.28-.84,1.18-.49,1.9.18.4.39.6.69.77-.59-.2-.67-.09-1.52-.65-.5-.36-.84-1.08-.83-1.7,0,0,0-.21,0-.21l-.02-.47c0-.06,0-.23,0-.2,0,.02,0,.09.02.18.02.09.05.15-.01,0-.36-.82-.22-2.05.4-2.67.49-.5.72-.57.6-.52-.04.03-.23.18-.39.48-.16.21-.23,1.14-.15.37.1-.9.83-1.56,1.41-1.87-.38.2-.76.95-.67,1.48-.01.19.22.66.27.7-.31-.28-.71-1.2-.66-1.73-.03.19.15.73.28.86.07.09.04.06-.12-.13-.28-.3-.59-1.06-.58-1.56,0-.02,0-.13,0-.04-.03.55.42,1.2.7,1.35-2.2-1.05-1.97-4,.44-4.67,0,0,.48-.15.48-.15.1-.03.18-.08-.03.02-.06.05-.42.19-.72.82-.47,1.1.08,2.05.78,2.45-.78-.24-1.49-.51-1.98-1.27-.99-1.54.1-3.3,1.53-3.74.14-.04.23-.13-.05.05-1.06.74-.89,2.39-.03,2.97-2.04-1-2-3.78.05-4.7,0,0,.28-.13.28-.13.06-.03.07-.04.03-.01,0,0-.09.05-.12.08-.86.6-1,1.95-.33,2.76.19.22.22.24.4.37.32.2.22.11.15.11-.58-.16-1.22-.36-1.7-.81-1.15-.95-1.01-2.93.15-3.73.65-.48,1.16-.55,1.71-.72.11-.03.19-.07.04,0-1.27.65-1.31,2.57-.26,3.26-.04-.02-.15-.08-.34-.2-.55-.29-1.28-1.37-1.21-2.17,0,.52.25,1.08.63,1.41.37.3.33.2.18.16-1.45-.5-2.5-2.42-1.33-3.94.49-.77,1.8-1.1,2.47-1.26.02,0-.05.01-.14.07-1.18.62-1.33,2.55-.19,3.29-.09-.03-.88-.45-1.25-1.09-.23-.36-.38-.88-.38-1.33,0,0,0,.06,0,.08,0,.15.06.4.16.59.1.2.18.27.08.15-.58-.68-.8-2.13-.26-2.95.3-.67,1.25-1.2,1.74-1.35.01,0-.03,0-.15.09-1.04.66-1.09,2.58.14,3.25.14.07.04.02-.1-.03-.16-.06-.36-.11-.82-.36-1.3-.67-1.8-2.68-.62-3.9.26-.3.69-.56.93-.67.19-.08.27-.17-.05.07-.24.13-.73.98-.63,1.5,0,.05.03.18.04.19-.32-.75-.22-2.17.37-2.85.13-.17.11-.16.02,0-.12.21-.2.49-.21.72,0,.31.05.61.19.9.22.47.57.68.63.71,0,0-.27-.14-.27-.14-.72-.3-1.51-1.43-1.44-2.28-.02.13.1.53.15.58-.14-.16-.44-1.15-.38-1.51,0-.01.01.09.01.06-.12-.52-.16-1.31.07-1.82.26-.75,1.09-1.35,1.68-1.54.18-.07.29-.12.16-.05-.03.03-.27.14-.5.47-.6.71-.42,2.34.68,2.79-.01-.01-.15-.05-.3-.1-3.02-.68-3.03-4.2-.14-4.93.09,0,.16-.1-.19.15-.19.09-.68.79-.64,1.38,0,0,0-.03,0-.03,0,0,0-.06,0-.06v-.12s0-.47,0-.47v-.12s0-.06,0-.06c0,0,0-.03,0-.03,0,.18.05.46.18.69.11.21.22.3.18.26-.03-.04-.21-.21-.4-.52-.24-.4-.36-.88-.36-1.32,0,.02,0,.08,0,.11,0,.22.23.73.33.8-.43-.36-.9-1.5-.69-2.26.07-.6.6-1.29.95-1.54.06-.04,0,0-.14.16-.55.65-.28,1.85.36,2.23.1.05,0,0-.34-.2-.32-.15-.93-.8-1.06-1.33-.39-1.1.33-2.39,1.26-2.82.02,0-.07.04-.22.2-.14.14-.36.55-.38.87-.02.33,0-.08.03-.23.04-.5.53-1.22.81-1.42.42-.34.1-.13-.08.21-.38.56-.06,1.63.35,1.89.38.28.27.15-.14-.02-.64-.24-1.47-1.15-1.42-2.05,0,.06.01.15.04.24.03.16.14.36.18.41-.65-.74-.73-2.3.06-3.08.41-.39.44-.44.18-.1-.12.17-.2.47-.2.64v.07c-.05-.72.6-1.62,1.12-1.85.18-.1.27-.14.35-.18.15-.05.17-.13-.14.17-.18.18-.38.6-.35.97,0,.57.37,1,.51,1.1.11.07.12.1.21.13,0,0-.03-.02-.08-.04-.45-.15-1.12-.44-1.49-.94-.83-1-.27-2.61.95-3,.46-.19.68-.18,1.08-.29.08,0,.19-.08-.02.06-.07.05-.11.08-.28.27-.37.46-.39,1.25,0,1.67.29.31.29.21.12.14-.37-.2-.69-.41-1-.94-.42-.91-.18-1.6.22-2.21-.03.03-.13.32-.1.41,0-.23.07-.64.22-.93.13-.26.28-.42.31-.46.04-.04-.03.04-.08.17-.13.29-.03.77.15,1.01.07.11.18.23.28.3.23.14.13.05.05.03-.64-.21-1.48-.41-1.88-1.07-.52-.72-.16-1.9.61-2.26.47-.26.86-.29,1.31-.41-.08.08-.47.32-.47.91,0,.5.31.79.46.84-.3-.11-.56-.22-.99-.45-.39-.21-.76-.75-.75-1.26.03-.5,0-1.03.11-1.55,0,0,.04-.15.04-.15,0-.02.01-.06.02-.11,0-.08.02-.37.11-.58.08-.23.23-.43.31-.52.09-.1.11-.12.08-.07-.03.07-.07.16-.06.24,0,0,0,.04,0-.06,0-.13.04-.28.09-.42.16-.42.46-.64.73-.8.15-.08,0-.04-.08.26-.01.04-.01.16,0,.11.05-.59.12-1.16.18-1.75,0-.06.01.06.05.11.03.07.07.09.06.07,0-.04-.32-.24-.47-.69-.06-.22-.08-.38-.04-.62,0-.41.59-.88.75-.94.01,0-.02.03-.05.11-.01.09-.05.07.03.31.19.29.15.13.05.11-.22-.13-.5-.16-.97-.48-.12-.1-.32-.27-.36-.59-.02-.2,0-.17,0-.24l.03-.17c.02-.12.07-.25.11-.33l.06-.14s.02-.07.03-.13c0,.01,0-.07.02-.14.11-.71,1.23-.75,1.58-.9-.01.02-.04.09-.03.13,0-.06,0-.14,0-.2,0-.07-.1-.28-.1-.5-.03-.32.07-.09,0-.2-.36-.3-1.05-.28-1.2-.88.01-.35.08-.64.1-.95.06-.28-.16-.58-.1-.91,0,.32.28.55.29.91.03.31.02.65.06.92.41.34,1.39.14,1.5.89,0,.04.01.1.02.14.05.15.24.54.22.78-.02.75-1.01.79-1.39,1.1,0,0,.04-.02.05-.06,0-.02.03-.05.03-.08,0-.03,0-.08,0-.03.04.26-.11.58-.1.82,0,0,0,.11,0-.01-.03-.16-.1-.22-.1-.22.06.02.4.1.76.2,1.22.39,1,1.58.19,2.13.03-.02.08-.11.1-.18.07-.16-.2-.42.12-.14.45.35.49,1.05.46,1.55.02.34.02.78.03,1.12,0,0,0,.1,0,.1,0,.03,0,.23-.03.35-.15.61-.58.85-.68.95-.16.1-.06.14.08-.15.03-.07.04-.13.05-.19.05.31-.21.91-.43,1.15-.01.02.05-.04.08-.12.03-.06.04-.19.04-.12.02.17-.02.48-.05.67,0,.05,0,.06,0,.09,0,0,.05.85.05.85,0,0,0,.12,0,.12,0,0,0,.04,0,0,0-.13-.04-.28-.08-.39-.14-.31-.29-.35-.3-.38.72.17,1.79.49,1.83,1.7-.07,1.39-1.35,1.55-2.02,1.85.69-.36.67-1.6-.04-1.97.01,0,.13.03.25.05,0,0,.49.11.49.11,1.48.3,2.13,1.84,1.15,3.11-.06.08-.02.05.05-.07.06-.12.1-.27.1-.34,0,0,0-.08,0-.02v.16c0,.31-.19.82-.33,1.03-.09.15-.07.13-.02.04.19-.47.06-.69-.05-.95-.14-.26-.27-.35-.32-.39.11.08.4.08.93.67.71.8.49,2.2-.41,2.74-.69.4-.81.37-1.37.55-.29.07-.31.17,0-.06.78-.59.62-1.94-.15-2.35,0,0,.34.1.34.1,2.3.71,2.13,3.28.18,4.11.02-.02.13-.06.32-.29.16-.19.31-.59.3-.88,0,.38-.11.86-.35,1.21-.43.6-.68.71-.48.56.33-.3.47-1.09.18-1.5-.06-.1-.04-.07.09.11.23.3.45.92.44,1.36,0,.05,0,.07,0-.03,0-.12-.02-.24-.06-.36-.17-.58-.48-.77-.66-.9,2.06.59,2.47,2.98.83,4.21.11-.01.45-.61.45-.84.02-.08.03-.4,0,0-.03.74-.66,1.51-1.14,1.78-.31.18-.19.18.08-.12.59-.61.39-1.91-.31-2.32,1.69.66,2.15,2.94.6,4.19-.07.06-.03.04.09-.1.12-.13.28-.44.33-.7.09-.42-.07-.9-.27-1.16-.07-.09-.03-.05.12.12.32.32.65,1.12.62,1.66,0-.04,0-.08,0-.13,0-.18-.09-.46-.21-.64-.11-.18-.18-.24-.1-.16.47.41.82,1.37.76,2.03,0,0,.01.47.01.47,0,.1,0,.24,0,.34-.05,1.33-1.2,2.03-1.9,2.26-.23.08-.38.16-.21.08.96-.46,1.22-2.26.16-3.04-.19-.13-.16-.11-.28-.18.18.03.48.12.81.23,2.76,1.04,2.13,4.14-.21,4.83.48-.18.98-1.11.9-1.62,0-.03-.01-.08.01.05.06.23.09.6.09.86,0-.09-.01-.24-.07-.42-.05-.15-.11-.23-.02-.08.18.31.36.95.35,1.37.06-.41-.39-1.32-.82-1.51.23.11.31.14.63.35,1.26.8,1.47,2.75.49,3.89.15-.16.37-.8.27-1.07-.02-.08-.04-.16.01.01.16.48.21,1.09.1,1.6-.14.99-1.24,1.77-1.7,1.93-.02.03.27-.18.35-.29.86-.87.5-2.47-.4-2.95-.19-.1-.09-.04.04,0,1.44.37,2.59,1.81,2.01,3.41-.52,1.16-1.06,1.33-1.89,1.71.41-.22.88-.73.94-1.55.05-.31-.16-.89-.29-1.02.2.18.67,1.21.62,1.59,0,0,0,.2,0,.2.08-.5-.47-1.39-.78-1.52,1.47.59,2.34,2.8.84,4.21-.51.55-1.67.81-2.14.91-.06,0-.15.09.21-.13.05-.04.1-.07.15-.12,1.16-.97.72-2.66-.14-3.16.16.02,1.24.64,1.49,1.2.23.37.35.82.36,1.27,0,.05,0-.08,0-.11-.02-.31-.15-.68-.31-.91-.21-.31-.41-.42-.44-.45-.05-.03-.03-.02.06.04.08.05.25.14.49.33,1.26.91,1.33,3.12-.06,4.02-.62.43-1.13.51-1.68.66-.07,0-.17.08.1-.07.18-.12.18-.12.37-.3.92-.91.6-2.64-.48-3.13.53.18,1.06.26,1.7.82,1.49,1.3.81,3.65-.96,4.26,0,0-.14.06-.14.06.09-.06.09-.05.21-.14.87-.63.93-2.26-.03-2.92,2.07,1.01,2.03,4.02-.45,4.81-.12.03-.2.12.12-.11.95-.7.88-2.42-.14-3.04-.04-.03-.09-.05-.13-.07-.05-.02-.05-.02,0,0,2.99.72,3.11,4.24.16,4.98,0,0-.41.11-.41.11-.02,0-.06.02-.02,0,.65-.33,1.03-1.1.96-1.82-.03-.51-.43-1.09-.72-1.23.69.33,1.52,1.21,1.5,2.24,0,.11,0,.02,0,.02,0-.1-.02-.22-.06-.35-.06-.32-.54-.86-.08-.28.29.33.54,1.11.51,1.56,0,0,0-.05,0-.05-.01-.21-.1-.5-.22-.68-.1-.15-.12-.16,0-.01,1.04,1.28.58,3.2-.9,3.87-.03.01.06-.03.2-.17.18-.12.51-.8.46-1.12.05.66-.53,1.62-.95,1.87-.36.25-.41.32-.14.05.26-.26.52-.93.33-1.34.25.5.23,1.48.21,2.07.02-.47-.25-1.02-.61-1.3-.36-.25-.26-.14-.2-.13.53.17,1.13.36,1.56.78,1.17,1.02.72,2.95-.51,3.55,0,0-.22.12-.22.12-.03.01.04-.02.16-.14.61-.53.55-1.81-.15-2.24-.1-.05.06.03.42.29.19.15.48.4.7.86.21.48.27.93.09,1.57-.22.61-.58.89-.8,1.06-.27.22-.74.37-.84.41.12-.1.15-.09.29-.25.22-.26.36-.6.36-.95,0-.08,0,.06,0,.08.03.64-.62,1.56-.98,1.71.3-.38.48-.65.29-1.39-.15-.45-.45-.64-.5-.68-.18-.11-.08-.03.05.02.51.19,1.1.44,1.51,1.26.25.54.2,1.2-.02,1.74-.17.38-.03.07-.04-.03,0,0,0-.02,0-.02,0,.01,0-.07,0,.11-.02.24-.07.48-.18.7-.32.62-.68.82-1.08,1.03-.17.07-.24.16.03-.09.17-.15.4-.65.3-.98-.02-.07-.07-.18-.05-.13.02.04.12.27.18.49.12.6.12.99-.17,1.59-.39.63-.73.75-.67.73.02-.02.14-.14.22-.33.21-.39,0-1.05-.28-1.23.03.07.44.21.8.94.1.24.14.49.15.73,0-.03,0-.06,0-.09-.01-.13-.09-.32-.17-.42-.19-.19-.02-.08.32.42.16.25.25.6.26.86.03.24-.06.78-.27,1.07-.3.46-.68.65-.9.74.44-.34.42-1.2-.02-1.5-.11-.07,0,.02.23.15.12.08.27.17.48.4.43.4.5,1.32.28,1.86-.04.11-.03.02-.04.13,0,.14-.01.17,0,.34,0,0,.01.31.01.31,0,0,0,.15,0,.15v.07c.01-.13-.11-.4-.2-.49-.07-.07-.09-.07-.06-.05.06.08.37.17.69.75.26.49.18,1.19-.19,1.59-.43.44-.93.54-1.39.66-.03,0-.04.01,0-.02.14-.14.24-.27.28-.52,0-.04.01-.09,0-.12,0-.01-.06-.15-.04-.08.06.07.29.62.25.9,0,.22-.04-.03-.04.05.05.07.25.58.22.84,0,.04,0,.19-.03.34-.05.49-.69.94-.98,1.03,0,0,.06-.05.1-.16.05-.13.05-.24.02-.3-.07-.22-.2-.23-.06-.13.09.09.41.25.59.74.04.12.05.23.05.34,0,.08,0,0-.01-.02-.02-.06-.07-.13-.08-.13-.03,0,.12.09.35.38.15.21.24.55.21.78-.02.21-.08.48-.17.67-.01.03-.02.07-.03.12,0,.06-.02.3-.1.45-.17.35-.41.48-.43.51-.02.06,0-.16-.03.06-.04.38-.11.66-.15,1.01-.09.39-.37.54-.46.68-.03-.04-.05,0,.07.08.1.09.26.16.43.37.18.21.21.6,0,.82-.18.21-.36.25-.5.32-.9.36.45.55.38,1.09,0,.36-.26.6-.27.91h0Z"/><path class="uuid-38616e54-3477-45a1-a82b-bc40dd6bf3fb" d="m269.9,115.86c-.05-.31.22-.54.21-.83.06-.48-.8-.48-.73-1.02.01-.42.86-.53.78-.87-.04-.24-.65-.33-.81-.64-.12-.24-.04-.55.05-.77.11-.26,0-.62.19-.87.28-.49,0-.52-.33-.76-.34-.21-.34-.71-.21-1.06.11-.46.11-.36-.43-.76-.29-.27-.19-.64-.27-1,0,0-.02-.24-.02-.24,0-.08-.02-.13.02-.32.21-.46.52-.49.86-.68.11-.05.14-.13.1-.06,0,0,0,.01,0,.02v-.07c-.03-.23.21-.6.24-.75,0-.12,0-.08-.01-.1-.03-.03-.14-.1-.3-.23-.17-.11-.34-.49-.31-.7-.03-.32.19-.55.19-.83-.01-.04.02.03-.04-.04-.06-.06-.23-.14-.4-.38-.16-.24-.18-.52-.11-.79.14-.47.31-.35.31-.68,0-.21.13-.52.21-.62.06-.11.04-.08.05-.17,0-.07.01-.27.08-.4.05-.18.44-.52.45-.53,0,0-.01.03-.01.02,0,0,.02.1.03.12-.27-.11-.95-.4-.97-.94,0,0,0-.11,0-.06,0,.02,0,.05.02.07.06.09.02.02-.1-.02-.24-.13-.67-.32-.76-.72-.17-.42.2-1,.42-1.13.11-.1.04-.06.04-.02,0,.07,0-.13.04-.29.04-.16.13-.31.22-.41.21-.2.29-.33.22-.2,0-.13.02-.27.08-.39.17-.35.41-.47.5-.55.12-.08.1-.11.06-.01-.01.05-.02.06,0,.11.01.05.04.09.04.09-.23-.14-.4-.25-.58-.5-.33-.42-.1-1.18.25-1.39.42-.31.06-.17.21.11.08.11.03.04-.09-.02-1.01-.42-1.04-1.55-.15-2.06.12-.08.07-.1.01.04-.03.17,0-.05,0-.14.02-.17.11-.35.2-.48.19-.25.31-.33.27-.3-.04.04-.04.19-.04-.02-.03-.33-.05-.91-.06-1.28,0,0,0-.24,0-.24v-.12c0-.06,0,.05.01.07.08.22.15.19.04.15-.98-.36-1.3-1.51-.35-2.15.15-.1.2-.17.13-.08-.11.13-.05.36.03.46.09.09,0,.01-.11-.03-.57-.19-1.19-.87-.83-1.6.26-.5.68-.62.81-.72-.03.02-.12.19-.11.29-.01.13.07.31.15.38.12.1.02.02-.08,0-.35-.12-.7-.16-1.05-.36-.87-.44-.73-1.58.14-1.93.26-.12.73-.26.82-.3-.02.02-.17.16-.18.38-.03-.1-.21-.47-.2-.75-.05-.24.09-.76.16-.96-.02-.26.11-.65.28-.85.23-.27.37-.34.36-.34-.04-.02-.11.31-.09.2-.09-.27-.19-.53-.18-.85-.02.04.1.23.05.15-.04-.05-.34-.3-.45-.7-.04-.16-.06-.48-.03-.23.06.26.31.31-.06.14-.14-.09-.35-.13-.65-.5-.32-.41-.25-.98-.08-1.41.07-.18,0-.41.15-.69.22-.41.47-.53.54-.6.04-.03.04-.04,0,0-.03.04-.08.13-.08.19,0,.12,0-.06,0-.1,0-.12,0-.52-.01-.65,0-.12,0-.08.01,0,.01.06.06.12.07.14-.09-.03-.6-.61-.57-.95-.02-.18-.01-.4.07-.61.19-.45.49-.61.58-.68.12-.08.03-.06-.04.13-.02.09-.03.11.01.19-.06-.02-.41-.65-.35-.98,0-.13,0-.5-.01-.64,0-.18-.01-.41.05-.6.1-.43.7-.78.87-.83.15-.07.27-.12.29-.13.02,0-.03,0-.09.1-.1.11-.1.39-.09.27,0-.25-.03-.55-.03-.82-.01.05.04.27.14.38.08.08.07.07.1.09-.4-.17-1.06-.19-1.59-.61-.23-.17-.4-.56-.38-.87-.02-.12-.14-.61-.12-.8-.07-.43.44-1.05.59-1.1.15-.1.09-.11.02.05-.02.03-.02.08-.02.1-.02-.14.15-.65.34-.79.27-.26.44-.31.54-.38.1-.05.05-.09-.06.15-.08.15.04.49.15.54-.24-.14-.5-.17-.87-.56-.36-.36-.32-1.1-.07-1.52.06-.1.05-.09.04-.08,0,.1,0-.34.14-.55.28-.45.54-.51.69-.6.49-.24.12-.11.11.19,0,.12,0-.11.01-.13.01-.32.28-.72.35-.79.06-.1-.03.07,0,.06-.01,0,.02.2.08.26.06.08.08.09.07.08l-.34-.19c-.98-.55-.72-1.77.01-2.16-.13.16-.07.46.06.59.15.13.05.04-.04.02-.34-.13-1.04-.24-1.37-.77-.31-.4-.08-1.17.3-1.4.21-.18.44-.23.65-.35.02-.01.02-.02-.03.04-.04.04-.12.23-.1.28-.02-.27.11-.62.13-.86-.01-.03.03.22.09.25.06.07.06.06.05.06-.04-.03-.16-.08-.32-.16-.15-.1-.4-.15-.67-.6-.26-.39-.02-1.1.32-1.3.31-.25.6-.28.77-.39,0,0-.08.06-.11.18-.04.11-.03.14-.01.22.05.12.11.13-.03.03-.1-.08-.42-.35-.5-.76-.1-.32.09-.88.34-1.06.22-.2.37-.26.4-.3.02-.01,0,0-.04.06-.03.03-.05.21-.03.1-.02-.28.2-.7.34-.82.14-.17.04-.05.06-.02-.02.15.1.33.17.38-.34-.15-1.08-.24-1.53-.61-.58-.47-.26-1.37.33-1.59.18-.09.33-.14.43-.19.1-.03.17-.11.07,0-.21.35.27.53-.2.25-.13-.1-.42-.23-.57-.66-.04-.12-.04-.24-.05-.35,0-.03,0-.05,0-.07,0,0-.19-.5-.17-.69,0,0,0-.08,0-.08,0-.84,1.16-.98,1.61-1.17,0,0-.06.04-.11.19-.01.14,0,.14.03.2.06.07,0,0-.12-.06-.23-.08-.74-.51-.72-.91,0,0,0-.16,0-.16,0-.05-.03-.1-.11-.36-.03-.11-.04-.23-.05-.33,0-.03,0-.35.12-.52.39-.49.59-.4,1.01-.6.11-.03.18-.12.1-.01-.03.05-.05.16,0,.24.04.08.07.08.04.06-.04-.03-.16-.08-.28-.13-.41-.2-1-.24-1.05-.99,0,0,0-.05,0-.05,0-.03,0-.05-.02-.09-.03-.06-.17-.34-.17-.55-.04-.38.08-.78.09-.94,0-.33.05-.09-.21-.63-.08-.29-.1-.51.05-.79.23-.38.53-.38.73-.56-.03.12,0-.18.04-.28.12-.3.27-.39.31-.51.01-.03,0-.07.01-.05.02.03,0-.02-.11-.09-.1-.08-.25-.14-.42-.33-.14-.12-.19-.43-.18-.6,0-.09-.04-.14-.11-.35-.12-.4-.04-.73.01-1.02.02-.12.03-.23.04-.39,0-.31.11-.55.12-.87,0-.24.18-.47.31-.56.29-.21.31-.25.27-.4-.13-.17-.54-.44-.51-.77.04-.43-.03-.78.11-1.18.17-.34.67-.34.82-.62,0-.07.03-.34.14-.46.11-.14.2-.22.23-.32.02-.08.07-.18-.03-.25-.34-.35-1.45-.26-1.33-.97.03-.16.12-.29.2-.41.16-.39.15-.85.21-1.26.02.29-.06.58-.04.86.06.3-.2.55-.24.82-.08.29.26.35.51.44.27.09.56.12.85.31.5.54-.25.8-.19,1.3-.05.23-.23.35-.36.42-.28.17-.51.26-.45.43,0,.29,0,.6,0,.86.06.27.35.26.5.57.11.21.11.44,0,.66-.14.27-.43.34-.46.55.01.49-.2,1.61-.08,2.03.04.07.19.42.18.61,0,.06,0,.09,0,.07.03.02.14.09.29.18.67.38.55,1.02.17,1.54,0,.17-.04.42-.17.55-.19.27-.55.36-.64.48.01,0,.02-.08.02-.03,0,.04,0,.06.02.08,0,.03.1.12.21.37.2.47-.04,1.08.01,1.4.07.21.25.51.23.83,0,0,0-.04,0-.06-.09-.19-.06-.09.04-.06.29.14.56.14.88.36.74.48.33,1.32-.28,1.52,0,0-.4.17-.4.17-.1.03-.19.13-.1.04.08-.26.03-.02.06,0,0,.02.11.23.15.47.02.1.02.26.03.27,0-.04-.03-.11-.05-.13-.02-.02.06.04.2.11.63.25,1,1.12.32,1.61-.35.22-.98.39-1.2.5.01,0,.02,0,.04-.03.04-.04.05-.07.08-.15.01-.03.01-.09,0-.1,0,.01,0,.06,0,.08,0,.05.02.04.12.3.04.12.07.25.08.36v.16s0-.05,0-.08c-.06-.15-.08-.11.02-.05,1,.43,1.08,1.59.02,2.02-.17.07-.34.16-.39.19.08-.01.17-.37.06-.49-.01-.06-.08-.12-.09-.13-.03-.03-.02-.02.01,0,.61.22,1.85.27,1.88,1.25.05.33-.28.87-.38.94-.06.09.02-.05,0-.04,0,.03-.03.37-.13.52-.1.19-.23.31-.32.38-.2.15-.31.22-.3.22.03.01.12-.24.08-.27-.02-.12-.12-.17,0-.08.89.64.67,1.81-.42,2.16-.13.05-.24.11-.22.1.03.03.24-.35.1-.54-.13-.19-.1-.1,0-.07.1.05.25.1.46.23.58.31.69,1.03.5,1.61-.04.28-.04.7-.27.92-.23.28-.58.43-.8.53-.11.03-.07.11.06-.14.06-.13.02-.37-.05-.46-.1-.14-.12-.13-.12-.13.37.22.92.14,1.41.67.18.2.29.54.24.82.02.38-.52.91-.65.98-.01.03.12-.16.09-.29,0-.1-.07-.23-.11-.27-.04-.04-.03-.03-.01-.02.06.04.2.1.41.24.68.4.7,1.4.23,1.91-.11.15,0,.01-.02-.02.05.58-.6,1.07-1,1.21-.1.04-.12.12.02-.08.07-.08.07-.36.06-.12,0,.13-.03.28-.08.43-.05.15-.12.26-.14.31-.02.05-.01.03-.01.02,0,0,0,0,0,.02.02-.11-.07-.29-.12-.33-.11-.11-.03-.02.08.02,1.43.53,1.21,1.97.1,2.44.04-.02.14-.21.12-.31,0-.03,0,.08,0,.11.03.41-.53.97-.63,1-.12.09,0,.03.04-.14,0-.03,0-.07,0-.07,0,.19.1.35.12.69,0,.04,0,.16,0,.19,0-.01,0-.06,0-.09-.01-.15-.15-.36-.24-.41.04.03.35.11.63.18.59.11,1.4.49,1.37,1.25,0,.08,0,.24.01.33.03.38.07.84-.17,1.16-.25.36-.64.51-.91.63-.11.04-.18.12-.05-.01.06-.03.14-.32.12-.32,0,.24,0,.63,0,.87-.04-.12-.08-.16.15.19.17.32.22.68.12,1.03-.14.48-.48.69-.58.77-.14.09-.09.11-.01-.06.14-.29-.29-.6.21-.11.34.33.33.97.32,1.36,0,.26.02.22-.01.56-.03.34-.31.72-.55.88-.16.11-.16.16-.07,0,.03-.05.05-.21.04-.13.02.31-.13.62-.18.84.02-.02-.04-.24-.1-.29-.13-.13-.06-.05.05,0,.28.11.82.44.92.94.06.39.03.21.02.2-.03-.12-.11-.16.05,0,.16.12.43.58.41.92,0,.18,0,.09.02.16.04.08.17.45.16.67,0,.08.01.29-.06.5-.03.27-.56.76-.57.74.02-.02.06-.1.07-.16,0-.01,0-.08,0-.04.02.21-.13.73-.16.77,0,.02-.02.06-.01.13.01.07-.03-.04.05.14.25.45.16,1.28-.25,1.53-.34.29-.98.43-1.18.5.01-.01.18-.18.16-.39.02-.28-.19-.43-.21-.45.55.24.91.17,1.48.66.39.35.33,1.12-.04,1.44-.26.26-.43.3-.54.37-.12.05-.11.11,0-.06.09-.12,0-.45-.09-.5.17.11.5.19.82.55.29.32.31.9.06,1.27-.24.33-.45.41-.53.48-.04.03-.05.04-.04.02.02-.02.07-.09.07-.16.04-.07-.07-.33-.11-.34.3.14.83.45.93.92.06,1.06.07,1.35.06,2.23.03.27-.45.84-.5.83,0,0,.03-.06.03-.08,0,0,0-.04,0,0,.04.4-.45.92-.6.96-.14.08-.17.14-.11.04.06-.09.02-.29-.05-.34.94.41,1.28,1.45.24,2.12-.06.06.04-.06.02-.12,0-.09-.1-.2-.04-.13.14.05.64.49.67.8.04.18.03.35-.03.54-.14.38-.41.53-.52.61-.14.08-.16.13-.11.05.01-.03.02-.05.01-.08,0,.19-.05.4-.16.56-.18.26-.35.36-.35.38,0,.01,0-.01,0-.03,0-.01,0-.07-.01.14-.04.34-.31.61-.42.69-.13.11-.11.11-.09.06.02.04-.04-.2-.06-.16.26.19.87.4.89.97,0,0,0,.07,0,.07.01-.04-.06-.16-.05-.14.01.02.13.08.26.15.24.06.77.53.69.94.05.3-.41.78-.53.84-.05.08,0-.06-.02.04,0,.2-.1.51-.21.65-.08.13-.07.1-.08.18.01.08-.05.48-.2.64-.15.19-.17.21-.17.23,0,0,0,.05,0,.05,0,0,0,0,0,0,0,0,.09.08.24.21.16.12.35.46.32.71,0,.18-.06.45-.14.59-.06.13-.07.14-.08.25,0,.08-.03,0,.02.07.05.06.2.14.36.33.33.38.14.97-.06,1.23-.02.04-.03.06-.04.1,0,0-.03.23-.03.23-.1.36-.35.45-.49.53l-.4.17c-.12.05-.17.12-.15.07,0-.05,0,.05,0,.11,0,0,0,.19,0,.19.02.17.03.42.03.6.05.13.18.15.34.3.14.09.32.37.29.59.02.29-.17.57-.18.85-.05.12.15.21.45.45.15.11.26.4.22.57,0,.18-.11.38-.18.49-.16.25-.06.55-.21.8-.09.22-.21.42,0,.6.17.17.57.2.68.64.05.4-.37.55-.64.68-.26.1-.33.39-.1.57.21.17.57.35.5.69-.02.31-.29.52-.27.82h0Z"/><path class="uuid-2690785e-9c3b-48b5-889d-3328b941eafa" d="m103.25,31.58c.37,0,.52.32.83.45s.13.53.38.79c.26.26,1.72-.36,1.85-.04s-1.05.9-1.05,1.27.79.79.66,1.1-.04,1-.3,1.26c-.26.26-.91.28-1.22.42s-.79-.93-1.16-.93-.53.35-.85.21-.05-.64-.31-.9c-.26-.26-.55-.1-.68-.4s-.15-.4-.15-.76-.12-.52.01-.83.27-.39.52-.65c.26-.26.15-.82.45-.95s.63-.04.99-.04Zm-1.45,10.24c.27-.3.25.36.66.36s.4.44.8.44.4-1.58.81-1.58.05.78.33,1.08c.3.33.71,0,.71.46s.47.45.47.89-.35.45-.35.89-1.15.45-1.15.89.38.45.38.89-.57.45-.57.89.34.45.34.89,0,.45,0,.89.14.45.14.89-.07.45-.07.89.54.45.54.89.08.45.08.89-.89.45-.89.89,1.53.45,1.53.89.25.45.25.89-.25.45-.25.89-.02.45-.02.89-1.03.45-1.03.9-.36.45-.36.89-.1.45-.1.89,1.68.45,1.68.9-.5.45-.5.9-.42.45-.42.89-.17.45-.17.89.23.45.23.9.29.45.29.9.51.45.51.9-.13.87-.43,1.2c-.27.3-.74-1.06-1.14-1.06s-.4,1.43-.8,1.43-.4-1.63-.81-1.63-.65,1.36-.92,1.06c-.3-.33.36-.55.36-.99s-.54-.45-.54-.89-.28-.45-.28-.89.34-.45.34-.89-.65-.45-.65-.89,1.44-.45,1.44-.89-.81-.45-.81-.89,1.1-.45,1.1-.89-1.72-.45-1.72-.89,1.48-.45,1.48-.89-1.52-.45-1.52-.89.16-.45.16-.89,1.4-.45,1.4-.89-1.05-.45-1.05-.89-.55-.45-.55-.89.57-.45.57-.89-.25-.45-.25-.89,1.61-.45,1.61-.9-1.04-.45-1.04-.89-.01-.45-.01-.89.36-.45.36-.9-.64-.45-.64-.9.96-.45.96-.89-1.3-.45-1.3-.89,1.03-.45,1.03-.9.06-.45.06-.9.26-.52.21-.97c-.05-.41-.74-.37-.44-.7Z"/><path class="uuid-2690785e-9c3b-48b5-889d-3328b941eafa" d="m133.3,41.82c.27-.3.26.36.66.36s.4.44.8.44.4-1.58.81-1.58.05.78.32,1.08c.3.34.71.02.71.47s.47.45.47.9-.35.45-.35.9-1.15.45-1.15.91.38.45.38.91-.57.45-.57.91.34.45.34.91,0,.45,0,.91.14.45.14.9-.07.45-.07.9.54.45.54.9.08.45.08.91-.89.45-.89.91,1.53.45,1.53.91.25.45.25.91-.25.45-.25.91-.02.45-.02.91-1.03.45-1.03.91-.36.46-.36.91-.1.46-.1.91,1.68.46,1.68.91-.5.46-.5.91c0,.3-.43.58-.43.87,0,.3-.18.58-.19.86,0,.3.21.59.19.87-.02.3.25.61.23.89-.02.3.46.65.43.93-.03.3-.38.57-.42.84-.04.3-1.29.37-1.34.64-.06.3,1.26.9,1.19,1.17-.08.3-1.71.06-1.81.31-.1.28.82.95.7,1.21s-.61.35-.75.6.16.79,0,1.03-.14.68-.33.9-.66.24-.87.45-.01.92-.24,1.11-1.35-.76-1.59-.59-.03,1-.29,1.15c-.25.15-1.01-.68-1.27-.55s.19,1.82-.08,1.93-1.07-1.17-1.35-1.08-.12,1.63-.41,1.71-.65,0-.94.05-.81-1.27-1.1-1.23-.44,1.11-.74,1.14-.57.6-.87.61-.62-.55-.92-.55-.59.25-.87.24-.46-1.63-.74-1.65-.65.98-.92.95-.56-.06-.84-.11-.48-.45-.75-.52-.71.49-.98.41-.24-1.07-.5-1.16c-.31-.11-1.09.97-1.39.85s-.17-1.21-.45-1.35-.52-.36-.79-.53-.38-.51-.64-.71-.96.15-1.19-.07c-.21-.2-.49-.37-.69-.6-.19-.22-.73-.22-.92-.47-.17-.23.54-1.1.38-1.36-.16-.25-.26-.51-.41-.77-.14-.26-1.04-.11-1.18-.39-.13-.26.04-.8-.09-1.08.41-.15.47.34.91.34s.44-1.2.87-1.2.44,1.86.88,1.86.6-1.62,1.03-1.51c.15.26.92.59,1.08.82s-.34.94-.16,1.16.54.28.74.49-.01.88.21,1.07.11.94.36,1.1.76.03,1.02.16c.28.15,1.17-1.05,1.47-.93s.2,1.31.51,1.4.67-.01,1,.05.58.57.9.61.66.31.99.33.68-.66,1.01-.66.7.83,1.02.81.61-.88.92-.92.69.1,1,.03.73.1,1.03.01.4-.87.69-.99.65-.11.93-.26c.27-.15.17-.86.42-1.02.26-.17.42-.36.64-.54.24-.2,1.14.36,1.35.15s.65-.33.83-.58-.14-.85,0-1.12c.13-.24.44-.45.54-.74.09-.26-.38-.69-.31-.99.06-.27.47-.48.51-.78.04-.28.36-.54.39-.84.03-.28.59-.55.61-.85.02-.28-.89-.63-.88-.93,0-.28-.85-.58-.85-.88,0-.64.64-.58.52-1.21-.2.25-.04.37-.25.6s-.88-.01-1.11.2-.01.92-.26,1.11-.84-.11-1.1.06-.09,1.04-.36,1.19-.85-.29-1.14-.16c-.29.14-.72-.19-1.02-.07s-.53.23-.83.32-.54.18-.86.25-.44.96-.76,1.01-.68-.58-1-.55-.59.97-.91.97c-.29,0-.53-.83-.81-.84s-.73,1.51-1.01,1.48-.36-1.46-.64-1.52-.58.08-.85,0-.48-.31-.75-.4-.3-.69-.56-.8-.54-.04-.8-.16-.68.16-.93.02c-.28-.16-1.04.45-1.3.28s-.46-.53-.71-.72-.13-.86-.36-1.07-.46-.42-.68-.65-.81-.15-1.01-.39.1-.87-.08-1.13-.62-.35-.78-.63c-.16-.28-.32-.56-.45-.84s.7-.96.58-1.25-.22-.52-.31-.82-1.86-.17-1.93-.48-.25-.66-.3-.98.5-.73.48-1.05.76-.66.76-.98c0-.28-.97-.6-.95-.88s.29-.57.32-.85,1-.4,1.05-.68.45-.42.52-.7-.66-.75-.57-1.02.72-.3.83-.56-1.09-1.12-.96-1.37,1.12-.06,1.26-.31c.14-.25.39-.41.54-.65s-.47-1.04-.29-1.27,1.18.22,1.36,0-.02-.79.18-.99.86.11,1.07-.08.64-.03.87-.2-.53-1.73-.3-1.89,1.05.6,1.3.46c.28-.16.21-1.01.49-1.15s.54-.47.84-.59,1.1,1.16,1.4,1.07.37-.97.68-1.04.6-.32.92-.36.74,1.08,1.06,1.06.57-1.33.89-1.33c.3,0,.64-.21.94-.19s.63.15.93.19.69-.18.98-.12.41.93.7,1.02.44.51.72.62.85-.45,1.12-.32c.26.12.64.1.89.25s.48.39.72.56.44.42.67.61.08.8.31,1,.81-.01,1.02.19.4.43.6.65.63.81.82,1.04c.12-.41.39-.58.39-1.01s-1.47-.43-1.47-.87.28-.44.28-.87.13-.41.08-.85c-.05-.39.08-.44.38-.77Zm-9.65,2.13c-.3,0-.63-.28-.93-.26s-.7-.37-.99-.32-.26,1.66-.55,1.73-.95-1.08-1.23-.98-.24,1.03-.51,1.15-.28.66-.54.8c-.26.15-.65-.02-.89.14s-1.18-.56-1.41-.38-.23.7-.44.91-.87.08-1.06.31-.14.72-.31.96-.35.53-.5.79c-.15.26-.18.63-.3.89s-.32.56-.42.83.32.74.24,1.03-.06.59-.11.88-.97.5-1,.8,1.49.65,1.49.95c0,.32.26.56.28.87s-.19.59-.14.9.09.56.17.86-.8.92-.68,1.21-.05.79.09,1.06.27.67.44.93,1.7-.5,1.9-.26.01.76.24.99c.21.2.14.71.36.89s.37.5.61.66.62.12.88.26.63,0,.9.1.67-.29.95-.2.43.45.71.51.37,1.31.66,1.35.72-1.35,1.01-1.33.53,1.65.83,1.65.58-1.12.86-1.14.63.35.91.31.49-.62.76-.68.46-.4.74-.48.63.15.9.04.21-.8.46-.94,1.22.96,1.47.8,0-.99.23-1.18,1.19.42,1.4.22c.21-.2-.87-1.58-.69-1.8s1.53.46,1.69.22-.99-1.26-.86-1.51.37-.36.48-.63,1.52-.04,1.61-.32-.85-.83-.79-1.11-.44-.6-.4-.89.63-.46.65-.75-.23-.54-.23-.84,1.59-.66,1.57-.95-1.09-.51-1.13-.79-.11-.57-.18-.85.19-.67.1-.95-.8-.31-.91-.58.6-.96.46-1.22c-.14-.25-1.38.2-1.54-.03s.51-1.06.33-1.28-.34-.49-.54-.69-.29-.57-.51-.75-.89.22-1.12.06-.5-.22-.75-.36c-.25-.14-.67.13-.92,0s-.11-1.22-.37-1.32-.57-.24-.84-.31-.74.71-1.02.66-.51-.36-.79-.38-.56-.33-.85-.33Z"/><path class="uuid-2690785e-9c3b-48b5-889d-3328b941eafa" d="m164.32,58.62c.5.1.26.48.71.72s.25.63.7.87,1.42-1.17,1.79-.82c-.14.27-1.29.67-1.43.92s.46.95.31,1.2.05.78-.11,1.01-.65.29-.83.51-1.23-.31-1.43-.11-.11.66-.32.85c-.23.21-.8-.05-1.04.14s-.24.62-.5.79-.48.31-.75.47-.44.41-.72.54-.56.17-.85.29c-.26.1-.33.69-.6.77s-.52.23-.79.29-.69-.77-.97-.72-.35,1.6-.63,1.63-.58.3-.86.31-.6-.23-.89-.23c-.3,0-.64-.03-.93-.05s-.53-1.07-.82-1.1-.51-.43-.81-.47-.52-.2-.81-.26-1.02,1.47-1.3,1.38-.44-.67-.72-.78-.39-.62-.66-.75-.44-.42-.69-.57-.62-.12-.86-.29-.66-.13-.89-.33-.82-.05-1.03-.26-.21-.67-.41-.9c-.2-.23.56-1.22.38-1.46s-1.52.35-1.68.11,1.05-1.37.89-1.63-1.26.03-1.39-.23.1-.71-.02-.98-.73-.37-.83-.65-.47-.52-.55-.81.18-.69.12-.98-.76-.52-.8-.82,1.36-.74,1.35-1.05-.84-.56-.84-.87,1.1-.56,1.12-.87-1.67-.77-1.63-1.07,1.55-.38,1.61-.68-1.35-.95-1.27-1.24.34-.6.44-.88,1.52-.08,1.63-.36-.7-.99-.57-1.26-.17-.84-.01-1.11.82-.25,1-.5.17-.67.36-.91c.18-.23,1.6.58,1.79.36s-.37-1.13-.17-1.33.42-.42.64-.61.67-.09.9-.26.12-.87.37-1.03.97.53,1.23.4-.02-1.43.25-1.55.92.74,1.2.65.55-.11.84-.18.58.08.87.03.45-.81.74-.84.58-.15.88-.17.59-.45.89-.45.58,1.09.88,1.1.57.09.87.12.73-.77,1.02-.72.55.4.84.47.48.5.76.59,1.02-.91,1.3-.8-.24,1.93.03,2.07,1.27-1.05,1.53-.89.73.1.97.28,0,1.03.23,1.23.61.24.83.46-.05.87.16,1.1-.15.85.04,1.09c.19.24.65.21.82.46s1.58-.25,1.73.02-.73,1.09-.59,1.37.41.47.52.76-.24.7-.15.99-.08.6,0,.9.8.43.85.73-.74.68-.71.99.89.51.9.82.05.29.06.6c-.42.15-.34-.28-.79-.28s-.45.7-.9.7-.45-.16-.9-.16-.45.67-.9.67-.45.06-.9.06-.45-1.03-.9-1.03-.45-.27-.9-.27-.45.59-.9.59-.45-.21-.9-.21-.45.57-.9.57-.45-.36-.9-.36-.45-.28-.9-.28-.45-.54-.9-.54-.45.92-.9.92-.45.86-.9.86-.45-.51-.9-.51-.45-.49-.9-.49-.45-.65-.9-.65-.45.67-.9.67-.45-.6-.9-.6-.45.82-.9.82-.45-.66-.9-.66-.45-.47-.91-.47-.45.03-.91.03-.76-.08-1.19.07c0,.3.27,1.44.29,1.72s-.59.69-.55.97,1.02.42,1.09.69-.64.8-.55,1.08,1.65-.02,1.76.25-1.03,1.11-.89,1.37.47.43.64.67.21.6.4.83,0,.85.2,1.06c.22.23.62.36.86.56s.8.07,1.05.25.99-.44,1.26-.29.42.42.71.54.36.77.66.86.61.15.92.21.66-.4.98-.38.58.65.9.65.63-.34.94-.37.62-.08.93-.13.88.87,1.19.79.67-.23.97-.34c.28-.1-.1-1.83.16-1.95s.42-.33.67-.48.77.22,1.01.05.97.26,1.19.07c.21-.18-.26-1.09-.04-1.32.19-.21.55-.25.74-.5.18-.22,1.1.09,1.28-.17.17-.24.64-.32.81-.58.16-.24-.53-.83-.37-1.1Zm.11-6.75c-.08-.3.24-.93.16-1.21-.09-.3.21-.78.1-1.05-.11-.29-1.69.05-1.82-.21-.14-.28.85-1.17.69-1.42-.16-.27-1.07-.03-1.25-.26-.17-.21-.67-.07-.87-.27s-.12-.6-.33-.78.24-1.27.01-1.43-.7,0-.95-.14-.27-.79-.52-.91c-.27-.12-.73.05-1.01-.05s-.61-.21-.89-.28-.65,0-.94-.06-.62-.16-.91-.19-.63.5-.93.5-.58.09-.86.12-.72-.82-1-.78-.26,1.61-.53,1.68-.41.37-.68.47-.56-.05-.82.08-.47.21-.71.36-1.05-.55-1.28-.38-.72.11-.94.3c-.21.19-.55.38-.74.6s.94,1.48.77,1.72-.71.15-.86.41-.65.29-.77.55c-.12.25-.4.45-.51.72s0,.62-.09.9-.06.31-.14.59c.42.15.36-.53.8-.53s.44.31.89.31.44,1.21.89,1.21.44-1.43.89-1.43.44,1.63.89,1.63.44-1.11.89-1.11.44.4.89.4.44-.54.89-.54.44-.28.88-.28.44.34.89.34.44-.65.89-.65.44,1.44.89,1.44.44-.81.89-.81.45,1.1.89,1.1.44-1.72.89-1.72.44,1.48.89,1.48.44-1.52.89-1.52.45.16.89.16.45,1.4.89,1.4.55-1.14.99-1.04c.49.12.45.74.87.59Z"/><path class="uuid-2690785e-9c3b-48b5-889d-3328b941eafa" d="m174.06,41.82c.27-.3.25.36.66.36s.4.44.8.44.4-1.58.81-1.58.05.78.32,1.08c.3.33.71.01.71.46s.47.45.47.9-.35.45-.35.9-1.15.45-1.15.9.27.59.4,1.02c.2-.26,1.56,0,1.76-.25s.14-.68.36-.91.42-.43.66-.65.36-.51.61-.71.52-.31.79-.48.25-.79.53-.94c.26-.14.49-.35.76-.46s.84.62,1.12.52.12-1.65.41-1.72.59-.39.89-.43.68.16.98.14.64-.01.94-.01.56,1.04.85,1.07.49.41.77.46.48.2.76.27,1.09-1.41,1.36-1.31.39.7.65.84.31.65.55.81c.24.16.35.45.57.63s.57.18.77.38.61.22.79.43.79.18.95.41.07.69.2.94-.84,1.02-.73,1.28c.12.27,1.56.08,1.66.41.09.29-1.41.99-1.34,1.31.06.3,1.21.38,1.26.71.05.3-.31.67-.27,1,.03.31.6.57.62.9.02.31.33.62.34.95.01.31-.32.65-.31.98,0,.31.66.64.66.97,0,.46-1.44.46-1.44.92s.81.46.81.92-1.1.46-1.1.92,1.72.46,1.72.92-1.48.46-1.48.92,1.52.46,1.52.92-.16.46-.16.92-1.4.46-1.4.92,1.05.46,1.05.92.55.46.55.92-.57.46-.57.92.25.46.25.92-1.61.46-1.61.93,1.32.63,1.02.98c-.26.3-.46.04-.86.04s-.4-.36-.8-.36-.4.64-.81.64-.11-.46-.37-.76c-.3-.34-1.15-.07-1.15-.53s1.03-.46,1.03-.91.06-.46.06-.92.22-.46.22-.92-.72-.46-.72-.92-.09-.46-.09-.92-.43-.46-.43-.92,1.08-.46,1.08-.92.05-.46.05-.92-.86-.46-.86-.92.28-.46.28-.92.35-.46.35-.92-1.2-.46-1.2-.92c0-.34,1.86-.67,1.86-.98,0-.34-1.54-.64-1.55-.94,0-.34-.33-.64-.34-.95-.01-.35.79-.7.77-1-.03-.36-.28-.64-.31-.93-.05-.38.54-.81.47-1.06-.07-.3.48-.82.4-1.09-.09-.29-.59-.51-.71-.76-.13-.27-1.53.19-1.69-.05s.61-1.15.41-1.36-.56-.31-.79-.49-.27-.76-.53-.9-.52-.52-.81-.62-.8.47-1.1.41c-.28-.06-.51-.94-.81-.97-.28-.03-.67.79-.97.79-.32,0-.68-.18-.99-.14s-.73-.16-1.04-.09-.44.84-.73.95-.64.09-.93.24-.18.86-.45,1.04-.42.37-.67.58c-.25.21-1.17-.34-1.39-.11s-.67.33-.87.58.07.88-.1,1.15-.52.46-.66.75.25.8.14,1.1-.54.48-.62.8c-.06.24-.39.48-.44.8-.04.26-.61.5-.64.81-.03.26.87.64.85.94-.02.27.82.59.81.89-.01.27-.54.52-.54.82,0,.27-.51.54-.51.84,0,.28-.66.56-.66.85,0,.28.67.57.67.87,0,.46-.6.46-.6.92s.82.46.82.92-.66.46-.66.92-.47.46-.47.92.03.46.03.92.02.46.02.91.86.46.86.92-.66.46-.66.92.94.46.94.92-.38.2-.68.55c-.26.3.03,1.37-.37,1.37s-.4-1.4-.8-1.4-.4.2-.81.2-.26.25-.53-.05c-.3-.33.65-.19.65-.64s-.18-.45-.18-.89-.45-.45-.45-.89-.91-.45-.91-.89.18-.45.18-.89.59-.45.59-.89-.01-.45-.01-.89-.5-.45-.5-.89.61-.45.61-.89-.32-.45-.32-.89-.01-.45-.01-.89,1.03-.45,1.03-.89-.03-.45-.03-.89-1.75-.45-1.75-.89-.12-.45-.12-.89.59-.45.59-.89.79-.45.79-.89-.98-.45-.98-.9.24-.45.24-.89.93-.45.93-.89.35-.45.35-.9-.84-.45-.84-.9.58-.45.58-.89-1.45-.45-1.45-.89.96-.45.96-.9.12-.45.12-.9-.92-.38-.97-.83c-.05-.41.49-.51.79-.84Z"/><path class="uuid-2690785e-9c3b-48b5-889d-3328b941eafa" d="m206.01,61.86c.39,0,.56.33.9.47s.17.55.44.83c.28.28,1.75-.32,1.88.02s-1.04.95-1.04,1.34.79.84.65,1.18-.06,1.05-.33,1.33c-.28.28-.94.32-1.28.46s-.83-.91-1.22-.91-.59.34-.93.2-.09-.66-.37-.94c-.28-.28-.59-.14-.72-.47s-.16-.45-.16-.84-.11-.57.02-.91.28-.43.56-.71c.28-.28.19-.85.52-.99s.68-.04,1.07-.04Zm1.49-29.71c.31.33-.35.32-.35.77s-.44.45-.44.9,1.58.45,1.58.9-1.3.45-1.3.9.88.45.88.9.47.45.47.9-.35.45-.35.9-1.15.45-1.15.9.38.45.38.9-.57.45-.57.9.34.45.34.9,0,.45,0,.9.14.45.14.9-.07.45-.07.9.54.45.54.9.08.45.08.9-.89.45-.89.9,1.53.45,1.53.9.25.45.25.91-.25.45-.25.9-.02.45-.02.9-1.03.45-1.03.91-.36.45-.36.91-.1.45-.1.91,1.68.45,1.68.9-.5.45-.5.91-.42.45-.42.91-.17.46-.17.91.54.55.24.89c-.28.31-.39.28-.81.28s-.42.51-.83.51-.42-.31-.84-.31,0-.66-.28-.97c-.31-.33-1.23.06-1.23-.39s1.63-.45,1.63-.9-1.11-.45-1.11-.9.4-.45.4-.9-.54-.45-.54-.9-.28-.45-.28-.9.34-.45.34-.9-.65-.45-.65-.9,1.44-.45,1.44-.9-.81-.45-.81-.9,1.1-.45,1.1-.9-1.72-.45-1.72-.9,1.48-.45,1.48-.9-1.52-.45-1.52-.9.16-.45.16-.9,1.4-.45,1.4-.9-1.05-.45-1.05-.9-.55-.45-.55-.9.57-.45.57-.91-.25-.45-.25-.9,1.61-.45,1.61-.9-1.04-.45-1.04-.91-.01-.45-.01-.91.36-.45.36-.91-.64-.45-.64-.9.96-.45.96-.91-1.3-.45-1.3-.91,1.03-.46,1.03-.91-.34-.32-.04-.66c.28-.31.14.34.55.34s.42-.72.83-.72.39-.03.81-.09c.37-.05.44.04.72.35Z"/></g></svg>