<?xml version="1.0" encoding="UTF-8"?><svg id="start_skærm" xmlns="http://www.w3.org/2000/svg" width="464" height="326" viewBox="0 0 464 326"><defs><style>.cls-1{fill:#0071bc;}.cls-1,.cls-2{stroke-width:0px;}.cls-3{fill:#f7931e;stroke:#f7931e;stroke-miterlimit:10;stroke-width:1.65px;}.cls-2{fill:#2e3192;}</style></defs><g id="info_knap"><path class="cls-1" d="m319.85,207.21c.22.2.79-.24,1.01-.04s.77.03.99.23.27.59.49.79.19.68.41.88,0,.9.22,1.1.22.65.45.84.98-.21,1.21-.02,1.04-.27,1.26-.08-.74,1.73-.51,1.93,1-.23,1.22-.03,1.1-.35,1.32-.15.43.41.66.6-.46,1.41-.23,1.61,1.4-.68,1.62-.49.46.38.68.58-.42,1.38-.2,1.57.74.07.96.26.31.54.54.74.48.35.71.55.85-.06,1.07.14.65.17.87.36-.1,1.01.12,1.21.4.44.63.64.45.39.67.59.69.11.92.31.36.49.59.69.32.54.54.74-.16,1.08.06,1.28.46.38.68.57,1.17-.43,1.4-.23.96-.19,1.19,0-.03.93.2,1.12.17.7.4.9.59.23.81.43.72.09.94.28c0,0-.34,1.3-.34,1.3.46.02.48-.73.94-.71s.44.65.9.67.48-.65.94-.63.47-.17.92-.15.47-.31.93-.29.42,1.11.88,1.12.5-1.23.96-1.21.42,1.18.87,1.2.47-.27.93-.25.45.25.91.26.49-.9.95-.89.46.01.92.03.48-.6.94-.58.39,1.88.85,1.9.52-1.67.98-1.65.46-.08.92-.07.46.11.92.13.41,1.55.87,1.57.7-.24,1.12-.44-.59-1.16-.34-1.52,1.62.56,1.86.2-.11-.61.14-.98-.56-.91-.31-1.28.15-.43.4-.8.33-.31.58-.68.51-.19.76-.56,1.06.18,1.31-.19.44-.24.69-.61.28-.82.28-1.26-.27-.73-.52-1.12-1.14.19-1.39-.2-.33-.34-.58-.72-.43-.27-.68-.66,1.06-1.23.81-1.62-1.7.54-1.95.16.7-1,.45-1.39-.78-.05-1.03-.44-.64-.14-.89-.53.91-.8.91-1.26.42.14.67-.26.24-.4.49-.8,0-.55.25-.95.07-.51.32-.9-.7-1-.46-1.39.95.05,1.2-.35-.55-.9-.3-1.3,1.07.12,1.32-.28-.48-.86-.23-1.26.13.06.11-.42-.09.17-.36-.19.47-.93.19-1.3-.44-.24-.72-.61-.52-.18-.8-.55.16-.69-.12-1.06-.22-.41-.5-.78-1.14.29-1.42-.08.17-.71-.11-1.07.09-.56.06-1.02-.81-.82-.58-1.21.89,0,1.12-.38.5-.23.73-.61-.24-.66-.02-1.05-.09-.57.14-.96,1.04.09,1.27-.3.32-.33.54-.72.59-.17.82-.56.21-.4.44-.78-.01-.53.22-.92.17-.57.12-1.02.13-.79-.18-1.12-1.39.67-1.69.33-.17-.46-.47-.79-.07-.55-.37-.89-.03-.59-.33-.92-1.11.41-1.42.08.55-1.12.25-1.45-.34-.3-.65-.63-1.08.38-1.39.05.32-.91,0-1.24-1.29-.24-1.3-.69,1.23-.25,1.51-.62.02-.57.3-.95.11-.5.39-.87.86.06,1.14-.31-.42-.9-.14-1.27,1.32.41,1.6.04.34-.33.62-.7.15-.47.43-.85.39-.3.67-.67-.06-.63.22-1.01-.35-.85-.07-1.23,1.2-.12,1.18-.59c-.01-.43-.99.01-1.3-.29s.55-1.16.25-1.47-1.54.93-1.85.63,1.06-1.67.75-1.98-.8.19-1.1-.11-1.14.53-1.44.22.89-1.5.59-1.81-1.37.76-1.68.45-.04-.58-.34-.88.18-.79-.13-1.1-.42.04-.44-.39-.06-.25.22-.59.39-.25.67-.59.19-.41.47-.75.63-.05.91-.39.54-.13.82-.47.32-.3.6-.64-.52-1-.24-1.34.4-.24.68-.58-.48-.97-.2-1.31,1.59.74,1.87.4-1.07-1.45-.78-1.8,1.34.37,1.33-.08-.59-.11-.9-.45.12-.72-.19-1.06-.05-.57-.36-.91-1,.27-1.3-.07.22-.81-.08-1.16-1.17.43-1.47.08.21-.81-.09-1.15-.49-.18-.79-.53.1-.71-.21-1.05-.18-.46-.49-.8-1.64-.03-1.62-.49.98-.39,1.32-.7.67.04,1-.27.14-.52.48-.84.73.11,1.07-.2.26-.4.59-.71-.62-1.34-.29-1.65.98.38,1.32.06.58-.05.92-.37.22-.44.56-.76.51-.28.73-.69c-.2-.22-.39-.79-.6-1.01s-.31-.52-.52-.74-.61-.25-.81-.47-.33-.51-.53-.73-.62-.23-.83-.45.16-.97-.05-1.18-1.63.71-1.83.49.26-1.06.05-1.28.13-.94-.08-1.16-.62-.23-.83-.45-1.68-.06-1.88-.28c.17-.25,1.16-.64,1.33-.89s.25-.57.42-.82.65-.28.83-.53.6-.32.77-.57.22-.59.4-.84.33-.51.5-.76.42-.45.6-.7-.14-.84.03-1.09,1.35.2,1.53-.05-.94-1.4-.76-1.65.61-.31.79-.56.12-.09.29-.34c-.3,0-.12-.19-.42-.19s-.6-.94-.89-.94-.6.22-.89.22-.6-.28-.89-.28-.6.55-.89.55-.6.21-.89.21-.6-.51-.89-.51-.6,1.33-.89,1.33-.6-.6-.89-.6-.6-.03-.89-.03-.6.76-.89.76-.6-1.28-.89-1.28-.6-.46-.89-.46-.6,1.3-.89,1.3-.6-.31-.89-.31-.6-.07-.89-.07-.6-.05-.89-.05-.6-.34-.89-.34-.6-.23-.89-.23-.6-.02-.89-.02-.6,1.26-.89,1.26-.6-.18-.89-.18-.6-.4-.89-.4-.6-.29-.89-.29-.53.2-.83.2c-.38-.24-.28-.32-.61-.62s-.31-.32-.64-.62-.12-.53-.44-.83-.46-.16-.79-.46-.04-.61-.37-.91-.66.05-.98-.25-.28-.35-.61-.66-.28-.35-.61-.66-.47-.15-.79-.46.18-.85-.15-1.15-.42-.2-.75-.5-1.2.65-1.53.34.11-.78-.22-1.08-.17-.47-.5-.77-1.19.63-1.52.32.45-1.15.13-1.45-.9.32-1.23.02-.58-.03-.91-.33.28-.96-.05-1.26-.59-.01-.92-.31-.26-.37-.59-.67-.51-.11-.83-.41.57-1.28.24-1.58-.56-.05-.89-.36-.34-.29-.67-.59-.14-.51-.47-.81-.45-.17-.78-.48-.14-.51-.47-.81-.43-.19-.76-.5-.56-.05-.89-.36.2-.88-.13-1.18-.72.11-1.05-.19-1.12.56-1.45.25.36-1.05.03-1.35-.4-.23-.74-.53-.58-.04-.91-.34-.25-.22-.67-.39-.29-.76-.74-.77-.46.91-.91.91-.45.4-.9.4-.44-.39-.89-.4-.45-.07-.9-.07-.44-.86-.89-.87-.45-.28-.89-.29-.47,1.47-.92,1.46-.44-.9-.89-.9-.46.59-.9.58-.45.4-.9.39-.43-1.86-.88-1.87-.45.08-.9.08-.45.38-.9.38-.45-.02-.9-.03-.45-.2-.9-.21-.45.51-.9.5-.46.7-.91.7-.43-1.26-.88-1.27-.47,1.64-.91,1.63-.44-.57-.89-.58-.45.12-.89.12-.44-.42-.89-.43-.44-.5-.89-.51-.45.36-.9.36-.44-.8-.88-.8-.45.24-.9.23-.45.64-.9.63-.45.17-.9.16-.44-.82-.88-.83-.44-.31-.89-.32-.45.48-.9.47-.46,1.31-.91,1.31-.43-1.62-.87-1.63-.45.3-.9.29-.45-.05-.89-.06-.46,1.44-.91,1.43-.44-.75-.89-.75-.44-.32-.89-.32-.45.33-.9.32-.45-.11-.89-.11-.46.67-.9.67-.45-.14-.89-.14-.45.22-.9.21-.44-1.01-.88-1.02-.45.27-.9.26-.44-.42-.89-.43-.44-.58-.89-.58-.47,1.77-.92,1.76-.44-.43-.89-.43-.44-.59-.89-.6-.46.55-.9.55-.45-.05-.9-.06-.43-1.28-.88-1.29-.47,1.54-.92,1.53-.44-1.01-.89-1.01-.45-.06-.9-.06-.44-.59-.89-.59-.45-.11-.9-.12-.45.1-.9.09-.46.52-.91.51-.46.99-.91.99-.45.32-.9.32-.43-1.76-.88-1.76-.45,0-.9-.01-.45.23-.9.23-.46.74-.91.73-.46.63-.91.63-.43-1.32-.88-1.32-.45-.26-.9-.26-.46.76-.91.76-.45.43-.9.43-.45.27-.9.26-.44-.37-.89-.37-.43-1.19-.88-1.2-.45.17-.9.17-.45-.04-.9-.05-.46,1.22-.91,1.22-.45.22-.9.22-.45-.03-.9-.03-.44-.89-.89-.9-.44-.41-.89-.42-.45.34-.9.33-.44-.45-.89-.46-.45.08-.9.08-.44-.39-.89-.39-.45.08-.9.07-.45.52-.9.52-.46,1.09-.91,1.08-.43-1.67-.88-1.67-.45-.05-.9-.05-.45,0-.9,0-.46.75-.91.75-.45.38-.9.38-.45.17-.9.17-.45.07-.9.06-.45.2-.9.2-.44-.83-.89-.84-.46.6-.91.59-.45-.18-.9-.18-.45.34-.91.33-.44-1.36-.89-1.37-.45.31-.91.3-.46,1.04-.91,1.04-.45.12-.9.11-.43-1.68-.88-1.68-.46.53-.91.53-.45-.15-.9-.15-.45-.42-.89-.42-.45.45-.9.44-.46.69-.91.68-.44-.6-.89-.61-.47,1.36-.91,1.35-.45-.2-.9-.21-.44-.72-.89-.72-.45.16-.9.16-.45.36-.9.36-.44-.8-.89-.81-.44-.6-.89-.6-.46.71-.91.7-.44-.45-.89-.45-.46,1.2-.91,1.2-.43-1.39-.88-1.39-.47,1.61-.92,1.6-.44-.64-.89-.64-.44-1.07-.89-1.07-.46.89-.91.89-.44-.74-.89-.74-.46.64-.91.63-.46.61-.91.6-.43-1.5-.88-1.5-.46.43-.91.43-.46.82-.91.81-.44-1.3-.89-1.3-.47,1.41-.92,1.4-.45.16-.9.15-.44-.92-.89-.92-.45.37-.9.37-.45.11-.9.1-.45-.14-.9-.15-.45.23-.9.23-.45-.1-.9-.1-.44-.49-.9-.5-.46.38-.91.38-.44-.9-.89-.91-.45,0-.9,0-.45-.27-.9-.27-.46.68-.91.68-.46,1.09-.91,1.09-.44-1.38-.89-1.38-.47,1.49-.92,1.48-.44-1.06-.89-1.07-.46.86-.91.86-.45.02-.9.01-.45-.2-.9-.2-.44-1.14-.89-1.14-.46.58-.91.57-.46.97-.91.97-.45-.12-.9-.12-.45-.1-.9-.11-.45-.24-.9-.25-.44-1.27-.89-1.28-.46.82-.91.81-.45.12-.9.12-.45.3-.9.3-.44-.54-.89-.54-.46.91-.91.9-.43-1.47-.88-1.47-.46.55-.9.55-.45.14-.9.13-.45.34-.9.33-.44-.46-.89-.46-.45.01-.9,0-.45.3-.9.3-.44-1.04-.89-1.05-.46.37-.91.37-.46.64-.91.64-.44-1.23-.89-1.24-.46.94-.91.94-.45.14-.9.14-.45.31-.91.31-.45-.22-.9-.22-.45.05-.9.04-.44-.66-.89-.67-.45.28-.91.27-.45-.49-.9-.49-.47,1.21-.92,1.21-.44-1.5-.89-1.51-.46.38-.91.38-.45-.41-.9-.41-.45.3-.91.29-.46.8-.91.79-.45-.24-.9-.25-.46.45-.91.45-.45-.33-.9-.34-.44-.7-.9-.7-.46.71-.91.7-.44-.81-.9-.82-.47,1.39-.92,1.39-.45-.32-.9-.33-.45-.34-.9-.34-.46.73-.91.73-.45-.22-.9-.22-.44-1-.89-1.01-.46.78-.91.77-.44-.9-.89-.9-.47,1.07-.92,1.06-.45-.43-.9-.44-.45.08-.91.07-.45-.62-.9-.62-.45-.09-.91-.1-.46.34-.91.33-.45-.18-.9-.19-.45-.68-.9-.68-.46.55-.92.54-.47.79-.92.79-.57-1.26-1.02-1.19c-.22.2,0,1.45-.23,1.66s-.26.61-.48.81-.45.4-.67.6-1.44-.69-1.67-.49-.02.87-.24,1.07.26,1.18.04,1.38-.76.05-.99.25-1.39-.64-1.61-.44.55,1.49.32,1.7-1.16-.38-1.38-.18.33,1.25.1,1.46-.64.19-.86.39-1.18-.41-1.41-.21.37,1.3.15,1.51-.54.3-.77.5-.91-.11-1.13.1-.42.43-.64.63.07.97-.15,1.17-1.06-.27-1.28-.07-.35.51-.57.71-.1.78-.32.99-.7.12-.92.33.17,1.08-.06,1.28-.96-.16-1.18.04-.51.34-.73.54-.86-.05-1.08.15-.58.26-.8.46.34,1.26.11,1.47,0,.89-.23,1.09-1.65-.92-1.87-.72.18,1.1-.04,1.3-.96-.17-1.19.03.4,1.34.18,1.54-.32.54-.55.74-.74.08-.96.29-.15.73-.37.94-1.17-.71-1.39-.51c-.3.04-.29.79-.59.83s-.55.47-.85.5-.6.03-.9.07-.57.27-.87.31-.57.31-.87.35-.65-.37-.95-.33-.76-1.2-1.06-1.17-.55.44-.85.48-.54.53-.84.56-.59.13-.89.16-.58.2-.88.23-.52.71-.82.75-.68-.6-.98-.56-.67-.53-.97-.49-.42,1.51-.72,1.55-.66-.43-.96-.39-.58.21-.88.25-.59.15-.89.19-.64-.25-.94-.21-.92-.7-1.22-.66c-.17.25-.62.58-.79.83s-.49.4-.65.65,1.02,1.4.85,1.65-.42.44-.58.69-.34.49-.51.74-.22.57-.38.82-.3.52-.47.77-1.38-.2-1.54.05-.55.74-.72.99c.17.25.6.72.76.96s-.16.83,0,1.08,1.17-.06,1.34.19.25.55.42.8.73.23.9.48-.25.88-.08,1.13.18.6.35.85,1.12-.02,1.28.23-.39.69-.23.94c-.1.44.62.73.42,1.14s-.1.46-.3.87-1.14-.06-1.34.35-.17.43-.37.83.24.63.03,1.04-.27.38-.47.78-.84.09-1.05.49.04.53-.16.94-.37.33-.57.74-.43.3-.64.71-.61.76-.59,1.22,1.67-.04,1.92.34-.8,1.08-.56,1.45.78.02,1.03.39-.11.61.14.98.6.14.85.51.46.23.71.61.22.39.47.77.76.04,1.01.41.18.77.18,1.22-.73.31-.97.68-.78.02-1.03.4-.26.37-.51.74,1.09,1.26.84,1.64-1.59-.52-1.84-.15-.44.25-.69.62.22.69-.03,1.07-.59.15-.84.53-.8.75-.8,1.2.63.77.88,1.15.4.28.65.65,1.46-.44,1.71-.06-.44.83-.19,1.2-.24.7.01,1.07.51.2.76.57.51.2.76.57.72.07.97.44.65.72.63,1.17-.26.9-.54,1.27-1.21-.33-1.49.04-.2.43-.48.8-.49.21-.77.58-.32.34-.61.71.08.65-.2,1.02-.7.06-.98.44.06.61.02,1.08c-.03.43.67,0,.89.37s-1.15,1.19-.92,1.57,1.82-.58,2.04-.2-1.06,1.14-.84,1.52.69.09.91.47-.63.88-.4,1.26,1.63-.47,1.86-.09-.1.57.13.95-.61.88-.39,1.26.64-.06.62.38c-.02.47-.09.24-.35.63s-.44.27-.7.65.3.77.04,1.15,0,.56-.26.95.16.67-.1,1.06-1.75-.62-2.01-.24.41.85.15,1.24.03.32,0,.79.36-.01.59.39-1.25,1.26-1.01,1.66,1.86-.53,2.09-.13-1.37,1.33-1.14,1.73.42.3.65.7.02.53.25.93,1.44-.29,1.68.11-.71.95-.47,1.36,1.3.03,1.29.5.25.9-.02,1.29-1.06-.14-1.32.25.4.84.14,1.23-1.3-.3-1.56.09.04.6-.22.99.16.67-.11,1.07-.84,0-1.11.4.41.51.39.98.06.08.29.48.23.4.47.8-.47.81-.23,1.21.42.29.66.69.88.02,1.12.42-.51.84-.28,1.24-.27.7-.04,1.1,1.18-.15,1.41.25-.84.51-.85.97,1.5.89,1.26,1.27-.29.36-.54.74-.23.4-.48.78-1.03-.12-1.28.26-.69.1-.93.48.86,1.11.62,1.49-1.53-.44-1.78-.06,1.01,1.21.76,1.59-1.66-.08-1.66.38,1.6-.19,1.85.17-.5.88-.25,1.24.88-.07,1.13.29.18.41.43.77-.48.86-.24,1.23.73.03.98.4.67.08.92.44.03.52.28.88-.48.97-.09,1.18.48.89.93.89.45-1.47.9-1.47.45,1.04.9,1.04.45-1.4.9-1.4.45.12.9.12.45.69.9.69.45,1.05.9,1.05.45-1.46.9-1.46.45,1.26.9,1.26.45-.75.9-.75.45-.26.9-.26.45.99.9.99.45-1.52.9-1.52.45,1.36.9,1.36.45.38.9.38.45-.58.9-.58.45-.82.9-.82.45.97.9.97.45-.54.9-.54.45.5.9.5.45-.07.91-.07.45-.59.91-.59.45.3.91.3c0,0,.62.55.62.55.22-.2.05-.83.28-1.03s.83.04,1.05-.16.06-.82.28-1.02-.08-.98.14-1.18.93.16,1.16-.04.47-.36.69-.56.26-.6.48-.8.94.16,1.16-.04-.16-1.07.06-1.26.09-.79.31-.99,1,.23,1.22.03.61-.2.83-.4,0-.88.23-1.08.02-.87.24-1.06,1.04.28,1.26.08.48-.36.7-.55.12-.76.34-.95.21-.65.43-.85.38-.47.6-.66.58-.24.8-.43.84.05,1.06-.14-.16-1.07.06-1.26,1.1.35,1.33.15-.23-1.15-.01-1.35,1.04.27,1.26.07,1.09.33,1.31.13.36-.49.58-.69-.53-1.48-.31-1.68,1.14.38,1.36.19.57-.25.79-.45-.49-1.44-.27-1.63,1.29.56,1.51.36.56-.26.78-.46-.11-1.02.11-1.21.51-.36.73-.56c.3,0,.63-.03.93-.03s.61-.77.91-.77.58,1.53.88,1.53.61-.71.91-.71.59,1,.89,1,.6-.17.9-.17.61-.87.91-.87.6-.09.9-.09.6-.11.9-.1.59.94.89.95.61-.5.91-.5.6.08.9.08.59.47.89.47.61-.44.91-.44.61-1.03.91-1.02.6-.06.9-.06.59.79.89.79.61-.45.91-.45.59.76.89.77.61-.95.91-.94.59,1.19.89,1.19.61-.83.91-.83.59,1.27.89,1.27.6-.1.9-.1.6-.36.9-.36.61-.78.91-.77.6-.18.9-.17.6-.15.9-.15.58,1.71.88,1.71.62-1.7.92-1.7.59,1.14.89,1.15.6-.3.9-.3.6.31.9.31.61-.74.91-.74.6-.28.9-.27.59,1.17.89,1.17.59.56.89.56.61-.78.91-.78.61-.55.91-.54.61-.52.91-.52.59.96.89.97.61-.66.91-.66.6-.32.9-.32.58,1.35.88,1.36.6.15.9.16.62-1.4.92-1.4.59.95.89.95.59.65.89.65.62-1.52.92-1.51.6-.17.9-.17.58,1.76.88,1.76.6-.12.9-.11.6-.31.9-.31.6.29.9.3.61-.57.91-.57.6-.1.9-.1.6-.14.9-.13.59,1.02.89,1.03.62-1.48.92-1.48.6-.08.9-.07.59,1.05.89,1.05.61-.86.91-.86.6-.12.9-.12.6.25.9.25.59.62.89.62.61-.52.91-.52.6-.32.9-.32.6-.15.9-.15.58,1.73.88,1.74.6-.29.9-.28.6-.35.9-.35.61-.93.91-.93.6.18.9.18.59,1.25.89,1.26.6-.24.9-.24.6-.23.9-.22.59.72.89.73.62-1.87.92-1.86.59.6.89.61.59,1.1.89,1.1.62-1.68.92-1.67.6.21.9.21.59.75.89.75.61-.91.91-.91.58,1.43.88,1.43.61-1.17.91-1.17.6.27.9.27.59.51.89.52.59.56.89.57.61-.72.91-.71.6-.24.9-.24.59,1,.89,1.01.6-.44.9-.43.6.31.9.31.6.01.9.01.6-.08.9-.07.59.56.89.56.61-1.22.91-1.22.6-.32.9-.31.6.04.9.05.6.08.9.08.6-.02.9-.01.6.16.9.16.6.42.9.42.61-.49.91-.49.6-.36.9-.36.59.84.89.85.59.62.89.62.61-.95.91-.95.6-.1.9-.09.6.19.9.19.59.6.89.6.59.59.89.59.6-.28.9-.28.6-.35.9-.34.59.52.89.52.62-1.42.92-1.41.58,1.56.88,1.57.6-.13.9-.12.62-1.39.92-1.39.6.33.9.33.59,1.09.89,1.09.62-1.72.92-1.72.58,1.49.88,1.5.61-1.26.91-1.26.58,1.67.88,1.68.61-.57.91-.57.61-.85.91-.85.59,1.02.89,1.03.6.31.9.31.61-.72.91-.72.59.73.89.73.62-1.59.92-1.59.59.95.89.95.59.68.89.68.61-.46.91-.46.6.16.9.17.6-.31.9-.3.61-.71.91-.71.58,1.42.88,1.42.61-.75.91-.74.6-.11.9-.11.61-.78.91-.78.59.72.89.73.59.8.89.8.6-.39.9-.39.6-.36.9-.36.6.27.9.27.59.59.89.6.61-.45.91-.44.61-.45.91-.44.61-.68.91-.68.59.99.89.99.6-.24.9-.23.6.05.9.06.6.05.9.05.61-.69.91-.68.58,1.34.88,1.35.61-.74.91-.73.59.62.89.63.6.17.9.18.61-.55.91-.55.61-.74.91-.73.59,1.12.89,1.13.61-1.23.91-1.23.6-.21.9-.21.6.17.9.17.59.68.89.68.59.6.89.61.61-1.12.91-1.12.59.7.89.7.6-.04.9-.04.59.7.89.71.62-1.67.92-1.66.59.46.89.46.59,1.28.89,1.29.6-.27.9-.26.61-.59.91-.58.61-.87.91-.87.59.68.89.68.6.14.9.14.6.1.9.1.6-.11.9-.11.6.02.9.02.6-.36.9-.36.59.89.89.89.6.31.9.31.6-.41.9-.41.61-.71.91-.71.6-.32.9-.32.6-.1.9-.09.59,1.28.89,1.29.61-.6.91-.59.6-.14.9-.14.6-.33.9-.33.59.7.89.7.59.48.89.48.6-.08.9-.07.61-1.19.91-1.19.6.34.9.35.59.55.89.55.59.9.89.9.6-.07.9-.07.62-1.73.92-1.72.6.02.9.02.58,1.71.88,1.72.6-.09.9-.09.62-1.66.92-1.66.58,1.42.88,1.42.61-1.11.91-1.1.6-.23.9-.22.6.35.9.35.59,1.15.89,1.15.61-1.26.91-1.26.59.7.89.7.6.33.9.33.44.06.74.07Z"/><path class="cls-2" d="m343.78,227.53c-.22-.2-.5-.77-.73-.97s-1.34.62-1.57.42.24-1.17.02-1.37-1.04.27-1.26.08-.07-.82-.29-1.02-.65-.16-.88-.36-.35-.5-.58-.7-.02-.88-.24-1.08-.87.08-1.09-.12-.26-.6-.48-.8-.76-.04-.99-.23-.71-.1-.93-.3-.34-.51-.57-.71,0-.9-.22-1.1-.65-.17-.87-.36-.19-.68-.41-.88-.29-.57-.51-.77-.4-.44-.62-.64-.24-.62-.47-.82-.66-.16-.88-.35-1.19.44-1.41.25.08-.99-.14-1.19-.44-.4-.67-.59-.12-.76-.34-.96-1.25.52-1.48.32.17-1.1-.05-1.29-.38-.47-.61-.66-.1-.79-.32-.99-1.14.39-1.36.19-.18-.69-.41-.89-.31-.54-.54-.74-.19-.68-.42-.88-.97.19-1.19,0-.51-.32-.73-.52-.33-.51-.55-.7c-.3,0-.58-.58-.88-.58s-.62,1.39-.92,1.39-.6,0-.9-.01-.59-.49-.89-.5-.59-.9-.89-.9-.6.09-.9.08-.61.53-.91.52-.6.42-.9.42-.59-1.11-.89-1.12-.62,1.38-.92,1.38-.6-.21-.9-.21-.6.09-.9.08-.59-.44-.89-.44-.59-.44-.89-.45-.6-.04-.9-.04-.61.45-.91.44-.59-.95-.89-.95-.6.15-.9.14-.62,1.44-.92,1.44-.59-1.14-.89-1.15-.6-.16-.9-.16-.6.39-.9.38-.61.7-.91.69-.59-.67-.89-.67-.6-.09-.9-.1-.6.19-.9.19-.61.5-.91.49-.6-.26-.9-.26-.6-.07-.9-.08-.59-.48-.89-.48-.59-.68-.89-.68-.61.8-.91.8-.6-.4-.9-.4-.6-.12-.9-.13-.61.73-.91.72-.61.48-.91.47-.6-.27-.9-.27-.6-.39-.9-.39-.59-.68-.89-.69-.6-.34-.9-.35-.61.81-.91.8-.61.88-.91.88-.58-1.79-.88-1.79-.61.82-.91.82-.61.98-.91.98-.6-.02-.9-.03-.58-1.37-.88-1.37-.62,1.43-.92,1.43-.6.02-.9.01-.58-1.32-.88-1.32-.6.43-.9.43-.6-.21-.9-.21-.6.05-.9.05-.61.6-.91.6-.6.3-.9.3-.59-.83-.89-.84-.6-.07-.9-.08-.6,0-.9,0-.6.37-.9.36-.6-.13-.9-.14-.6-.2-.9-.21-.59-.93-.89-.93-.6.02-.9.01-.61,1.09-.91,1.09-.61.77-.91.77-.59-.72-.89-.72-.6-.42-.9-.42-.6.21-.9.21-.6.4-.9.4-.58-1.43-.88-1.43-.61.74-.91.74-.59-.64-.89-.65-.61.66-.91.65-.6.18-.9.17-.6.32-.9.32-.59-1.1-.89-1.1-.61,1.24-.91,1.23-.59-1.17-.89-1.18-.6.28-.9.28-.6-.24-.9-.24-.61.91-.91.91-.6,0-.9,0-.61.61-.91.6-.58-1.87-.88-1.87-.62,1.68-.92,1.67-.6.09-.9.09-.6-.1-.9-.11-.58-1.54-.88-1.55-.6.43-.9.43-.61,1.18-.91,1.17-.58-1.66-.88-1.66-.6.43-.9.43-.61.97-.91.96-.6.11-.9.11-.6-.1-.9-.11-.6-.33-.9-.33-.59-.99-.89-.99-.6-.24-.9-.24-.6.38-.9.37-.6-.08-.9-.09-.61,1.05-.91,1.05-.6.09-.9.09-.6.21-.9.21-.58-1.56-.88-1.57-.62,1.72-.92,1.72-.59-1.14-.89-1.14-.61.63-.91.62-.61.46-.91.45-.58-1.56-.88-1.56-.6-.33-.9-.34-.6,0-.9,0-.6.29-.9.28-.6.2-.9.2-.61,1.12-.91,1.12-.59-.84-.89-.84-.61.94-.91.93-.59-.98-.89-.98-.61.86-.91.86-.6.28-.9.28-.6,0-.9,0-.59-.95-.89-.95-.6.2-.9.19-.6.3-.9.29-.59-.55-.89-.55-.6-.08-.9-.08-.61,1.08-.91,1.08-.59-.56-.89-.57-.59-.71-.89-.71-.61,1.15-.91,1.15-.59-.78-.89-.78-.6-.32-.9-.33-.61.54-.91.53-.6.36-.9.36-.59-.95-.89-.95-.6-.11-.9-.11-.59-.43-.89-.44-.6,0-.9,0-.6.27-.9.27-.6.39-.9.39-.59-.62-.89-.62-.62,1.46-.92,1.46-.6-.19-.9-.2-.6-.33-.9-.34-.6-.39-.9-.39-.61,1.09-.91,1.09-.59-1.17-.89-1.17-.6.04-.9.04-.61,1.05-.91,1.04-.59-.86-.89-.86-.61.66-.91.66-.59-1.01-.89-1.02-.6.32-.9.32-.6.2-.9.2-.59-.73-.89-.73-.61.87-.91.86-.58-1.31-.88-1.31-.6-.09-.9-.09-.6.16-.9.16-.6-.14-.9-.14-.6.42-.9.42-.61.78-.91.78-.59-.68-.89-.69-.61.8-.91.8-.59-1.22-.89-1.23-.62,1.75-.92,1.74-.58-1.94-.88-1.94-.61.69-.91.69-.61,1.17-.91,1.17-.58-1.7-.88-1.71-.62,1.5-.92,1.5-.6-.39-.9-.39-.59-.69-.89-.69-.6-.08-.9-.09-.6.31-.9.31-.6-.15-.9-.15-.6.1-.9.1-.59-.46-.89-.46-.6-.34-.9-.35-.6-.06-.9-.07-.61,1.03-.91,1.03-.6-.16-.9-.16-.61.98-.91.98-.58-1.7-.88-1.7-.62,1.74-.92,1.74-.59-.99-.89-.99-.6.37-.9.37-.59-.57-.89-.57-.6-.34-.9-.35-.61.92-.91.92-.59-.71-.89-.72-.61,1.15-.91,1.14-.59-.7-.89-.71-.6.23-.9.23-.59-.55-.89-.56-.6-.17-.9-.18-.61,1.09-.91,1.08-.59-.61-.89-.61-.59-.49-.89-.5-.6.28-.9.27-.59-.59-.89-.59-.6.11-.9.1-.62,1.39-.92,1.39-.59-.95-.89-.96-.6-.37-.9-.37-.6.17-.9.16-.6-.02-.9-.02-.6-.08-.9-.08-.6-.14-.9-.14-.6.26-.9.26-.6-.12-.9-.12-.6.29-.9.29-.59-.78-.89-.79-.62,1.67-.92,1.66-.59-.92-.89-.92-.59-.74-.89-.74-.6.29-.9.29-.28,1.33-.58,1.33c-.22.2-.67-.37-.89-.17s-.36.49-.58.68-.69.12-.91.31-.64.17-.87.36-.34.51-.56.71-.42.41-.65.61-.5.33-.72.52-.04.84-.27,1.04-1.26-.52-1.48-.32.6,1.56.38,1.76-.66.15-.88.35-.29.57-.51.76-.77.03-.99.23-1.07-.3-1.29-.11-.29.56-.51.76-.63.19-.85.38-.08.8-.3,1-.3.55-.52.75-.78.02-1,.21.45,1.39.23,1.58-.84-.06-1.06.14-.46.37-.68.57.06.96-.16,1.16-1.29-.56-1.52-.36-.75.05-.97.25.43,1.37.21,1.56-.65.16-.87.36-.49.34-.71.54-.47.36-.69.56-.67.14-.89.34-.59.22-.81.42-.45.38-.67.58.4,1.33.18,1.53-.56.26-.78.46-.71.11-.94.3c.26.16.37.58.63.74s.61.16.87.32.49.36.75.52.5.34.76.5.35.58.61.74.62.15.88.31.3.67.56.83.77-.09,1.03.07.48.38.74.54.48.38.74.54.62.15.88.31.12.95.38,1.11.59.2.85.36,1.2-.78,1.46-.62.18.87.43,1.03.4.51.66.67,1.18-.76,1.44-.6-.09,1.3.17,1.46.96-.4,1.22-.24.71,0,.97.16.05,1.08.3,1.24.72-.01.98.15.47.4.73.56.65.1.91.26-.18,1.45.08,1.61.7.03.95.19.61.34.86.5c.3,0,.68.3.98.31s.6-.17.9-.17.6.28.9.29.6-.14.9-.14.6-.33.9-.33.59.79.89.79.61-.56.91-.56.61-1.16.91-1.16.59,1.02.89,1.02.6-.1.9-.1.6-.36.9-.36.6-.19.9-.19.59.79.89.8.61-.91.91-.91.6-.4.9-.4.6.4.9.4.6.07.9.07.59.86.89.87.6.28.9.29.62-1.47.92-1.46.59.9.89.9.61-.59.91-.58.6-.39.9-.39.58,1.86.88,1.87.6-.08.9-.08.6-.38.9-.38.6.03.9.03.6.21.9.21.61-.51.91-.5.61-.7.91-.7.59,1.26.89,1.27.62-1.63.92-1.63.59.58.89.58.6-.12.9-.12.6.43.89.43.59.51.89.51.6-.36.9-.36.59.8.89.8.6-.24.9-.23.61-.64.91-.63.6-.17.9-.16.59.82.89.83.6.31.9.32.61-.47.91-.47.62-1.31.91-1.31.58,1.63.88,1.63.6-.3.9-.29.6.06.9.06.62-1.44.92-1.43.59.75.89.75.6.32.9.32.6-.33.9-.32.6.11.9.11.61-.67.91-.67.6.14.9.14.6-.21.9-.21.59,1.01.89,1.02.6-.27.9-.26.6.42.9.43.59.58.89.58.62-1.76.92-1.76.6.43.89.43.59.6.89.6.61-.55.91-.55.6.05.9.06.59,1.28.89,1.29.62-1.54.92-1.53.59,1.01.89,1.01.6.06.9.06.59.59.89.59.6.11.9.12.6-.09.9-.09.61-.51.91-.51.61-.99.91-.99.6-.32.9-.32.58,1.76.88,1.76.6,0,.9.01.6-.23.9-.23.61-.74.91-.73.61-.63.91-.63.58,1.32.88,1.32.6.26.9.26.61-.76.91-.76.6-.43.9-.43.6-.26.9-.26.6.37.9.37.59,1.2.89,1.2.6-.17.9-.17.6.05.9.05.61-1.22.91-1.22.6-.22.9-.22.6.03.9.03.59.89.89.9.6.41.9.42.6-.34.9-.33.59.46.89.46.6-.08.9-.08.6.39.9.39.6-.07.9-.07.61-.52.91-.52.61-1.08.91-1.08.58,1.67.88,1.67.6.05.9.05.6,0,.9,0,.61-.75.91-.75.6-.38.9-.38.6-.17.9-.17.6-.07.9-.06.6-.2.9-.2.59.83.89.84.61-.6.91-.59.6.18.9.18.6-.33.9-.33.58,1.36.88,1.37.6-.31.9-.3.61-1.04.91-1.04.6-.11.9-.11.58,1.68.88,1.68.61-.53.91-.53.6.15.9.15.6.42.9.42.61-.44.91-.44.61-.69.91-.68.59.6.89.61.62-1.36.92-1.35.6.2.9.21.59.72.89.72.6-.16.9-.16.6-.36.9-.36.59.81.89.81.59.6.89.6.61-.71.91-.7.59.45.89.45.61-1.2.91-1.2.58,1.39.88,1.39.62-1.6.92-1.6.59.64.89.64.59,1.07.89,1.07.61-.89.91-.89.59.74.89.74.61-.64.91-.63.61-.6.91-.6.58,1.5.88,1.5.6-.43.9-.43.61-.82.91-.81.59,1.3.88,1.3.62-1.41.92-1.4.6-.15.9-.15.59.92.89.92.6-.37.9-.37.6-.1.9-.1.6.14.9.15.6-.23.9-.23.6.1.9.1.59.49.89.5.6-.38.9-.38.59.91.89.91.6,0,.9,0,.6.27.9.27.61-.68.91-.68.61-1.09.91-1.09.58,1.38.88,1.38.62-1.49.92-1.48.59,1.06.89,1.07.61-.86.91-.86.6-.02.9-.01.6.2.9.2.59,1.14.89,1.14.61-.58.91-.57.61-.97.91-.97.6.12.9.12.6.1.9.11.6.24.9.25.59,1.28.89,1.28.61-.81.91-.81.6-.12.9-.12.6-.3.9-.3.59.54.89.54.61-.91.91-.9.58,1.47.88,1.47.61-.55.91-.55.6-.13.9-.13.6-.33.9-.33.59.46.89.46.6-.01.9,0,.6-.3.9-.3.59,1.04.89,1.05.6-.37.9-.37.61-.64.91-.64.59,1.23.89,1.24.61-.94.91-.94.6-.14.9-.14.6-.31.9-.31.6.22.9.22.6-.05.9-.04.59.66.89.67.6-.28.9-.27.59.49.89.49.61-1.21.91-1.21.58,1.5.88,1.51.6-.38.9-.38.6.41.9.41.6-.29.9-.29.61-.79.91-.79.6.25.9.25.61-.45.91-.45.6.33.9.34.59.7.89.7.61-.71.91-.7.59.82.89.82.62-1.39.92-1.39.6.32.9.33.6.34.9.34.61-.73.91-.73.6.22.9.22.59,1,.89,1.01.49-.76.79-.76c.27-.13.82.57,1.09.43s.05-1.23.32-1.36.73.11.99-.02.5-.35.76-.48.81.28,1.08.14.57-.19.84-.33.38-.57.65-.71.61-.11.88-.25.84.33,1.1.19.29-.76.55-.9.18-.98.44-1.12,1.07.79,1.34.65,0-1.33.27-1.46.41-.52.68-.65.54-.26.8-.4,1.2,1.06,1.47.92.25-.83.52-.97.06-1.21.33-1.34.75.15,1.02.02,1.17.99,1.44.85-.13-1.58.14-1.72,1.01.68,1.28.54.02-1.29.28-1.43.67,0,.93-.14,1.03.71,1.3.58-.01-1.36.25-1.49.6-.14.87-.27.85.35,1.11.21.52-.3.79-.43.19-.95.46-1.09.95.54,1.21.41.66-.68.92-.81Z"/><path class="cls-2" d="m317.88,200.04c-.11-.49-.91-.31-.98-.88-.1-.57-.18-1.16-.23-1.72-.02-.12-.01-.42.11-.6.12-.19.18-.26.17-.3,0-.03,0-.14-.03-.2-.01-.05-.08-.11-.19-.34-.1-.25-.15-.6.03-.84.35-.45.6-.4.99-.61.12-.05.24-.11.29-.15.02-.02.02-.04-.04.03-.03.04-.05.08-.07.16,0,.12,0,0-.01,0-.02-.12-.03-.14-.08-.31-.04-.11-.06-.3-.08-.43,0-.01-.01-.17,0,0,.05.22.14.27.15.29,0,.02-.01,0-.06,0-.61-.18-.89-.08-1.5-.56-.38-.35-.39-1.04-.04-1.41.32-.38,1.19-.61,1.44-.76,0,0-.01,0-.06.03-.01.01-.09.08-.14.17-.14.17-.12.6,0,.77.25.31.18.18.11.19-.75-.13-2-.43-1.92-1.59-.03-.6.6-1.16.9-1.35,0,0-.07.03-.14.14-.08.1-.14.34-.13.38-.04-.36.25-.99.5-1.19.21-.19.11-.18-.01.07-.05.08-.06.29-.06.21-.03-.19.07-.65.09-.79-.05-.27.05-.66.03-.92,0,0,0-.03,0-.03,0,.01,0,.16.02.24.05.2.1.31.2.43.3.32.25.2.18.21-.46-.14-.57-.11-1.13-.44-.72-.46-.95-1.54-.46-2.26.57-.72.84-.67,1.2-.91,0,0-.04.01-.05.03-.24.18-.46.47-.46.9-.04.35.24.8.44.93.02.02-.1-.03-.34-.15-.13-.08-.28-.15-.5-.37-.79-.69-.68-2.12.05-2.75.31-.27.35-.33.17-.14-.1.11-.2.32-.23.51-.03.22-.02.21-.01.32.01.22.25.53.02.21-.33-.49-.45-1.18-.35-1.76.02-.17.08-.36.1-.43.02-.06,0-.01,0,.02-.09-.64.49-1.49,1.03-1.81.04-.03.02-.03-.08.07-.25.19-.45.85-.32,1.21.16.54.5.7.37.63-.05-.06-.46-.2-.86-.93-.3-.69-.27-1.08-.1-1.73.08-.26.22-.49.26-.56.05-.09,0-.02-.05.1-.1.32-.12.32-.03.73.14.45.43.63.2.44-.4-.29-.81-1.21-.76-1.68-.02.22.14.61.24.73-.31-.22-.74-1.2-.67-1.7-.02-.22.08-.82.16-1,.02-.07-.01,0-.02.06-.01.06-.02.09-.02.09,0,0,0-.14,0-.14.02-.32.11-.65.25-.93.46-.78.87-.89.93-.98.06-.04.02-.02-.06.05-.08.07-.28.28-.38.57-.12.31-.1.6-.09.62,0,.11.04.27.1.41.06.14.11.19.04.1-.06-.09-.22-.34-.32-.63-.35-.81-.02-2.1.49-2.57-.1.09-.27.5-.27.7,0,0,0,.1,0,.1-.04-.33.18-1.13.34-1.36.03-.05-.04.06-.07.18-.04.12-.05.23-.05.27,0-.05,0-.44.04-.65.03-.2,0-.09.01-.18,0,.05,0-.27.04-.53,0-.27.38-1.03.44-1.08-.2.31-.27.78-.11,1.17.06.17.15.29.12.25-.02-.03-.17-.22-.31-.51-.14-.29-.21-.61-.23-.88,0-.07-.03-.42,0,0,.05.52.44,1.05.81,1.26-.36-.12-1.11-.46-1.42-.9-1.16-1.34-.36-3.21.94-3.81-.35.14-.78.98-.73,1.36,0-.49-.07-.96.05-1.45.08-.38.3-.81.5-1.04.41-.46.5-.54.2-.2-.13.18-.25.47-.28.71-.11.74.27,1.51.9,1.86-.34-.13-.77-.26-1.15-.56-1.73-1.3-1.03-3.7.69-4.38.12-.04.12-.12-.24.2-.31.26-.57.95-.53,1.29,0,0,0-.1,0-.1,0-.19.07-.72.09-.8,0,.03,0,.05,0,.04-.06-.77.51-1.78,1.04-2.15-.24.16-.59.87-.53,1.34.02.57.35,1.16.77,1.45.21.13.14.08,0,.03-.16-.09-.41-.12-.98-.59-1.18-.99-1.03-2.87-.1-3.79-.15.14-.39.72-.36,1.01-.03-.31.14-1.09.28-1.33.04-.09-.02.04-.05.16-.03.14-.04.22-.04.28,0,.02,0,0,0-.05-.04-.63.44-1.59.71-1.82-.5.57-.39,1.69.12,2.21.39.39.4.3.22.23-.45-.27-.9-.59-1.24-1.3-.25-.5-.23-1.27-.22-1.06,0,.03.03.18-.01-.02-.15-.6-.11-1.49.12-2.05.02-.05-.02.06-.03.14-.02.08-.02.14-.02.15,0-.17.06-.8.28-1.18.26-.53.63-.84.9-1.05-.95.75-.7,2.53.38,3.06.13.06.04.02-.07-.02-.31-.1-.71-.22-1.12-.49-.21-.14-.68-.45-.99-1.16-.13-.33-.2-.72-.19-1.08,0-.14,0-.5,0-.64-.09-.74.44-1.82.96-2.2-.17.13-.5.75-.47,1.14-.05-.82.69-1.97,1.52-2.31.22-.11.3-.17.1-.03-.08.06-.34.26-.52.64-.13.21-.22.79-.2.84,0,0,0,0,0,.03,0,.03.01.05-.02-.09-.04-.19-.07-.48-.07-.69,0,0,0-.09,0-.09,0,0,0-.05,0-.03-.05.33.3,1.1.54,1.24-.51-.38-1.04-1.2-1.05-1.95,0-.07,0-.26,0-.16-.05.2.26.95.4,1.03-1.52-1.56-.81-3.87,1.2-4.48-1.04.53-1.28,2.38-.1,3.17.27.17.22.11.14.09l-.45-.16c-1.56-.49-2.32-2.17-1.56-3.71.03-.06-.03.07-.05.18-.02.11-.03.2-.03.23,0,.03,0-.03,0,0,0,0,.01.05,0,.03-.18-.76-.09-1.87.47-2.52.4-.43.3-.4.05.05-.11.22-.16.52-.15.66,0,0,0-.12,0-.12,0,0,.02-.24.02-.24.02-.52.56-1.38.79-1.52-.1.1-.34.55-.35.79,0,0-.01.13-.01.13,0,.05,0,.09,0,.05,0-.24.04-.62.05-.86,0,.07.02.33.11.55.22.47.45.59.12.27-1.26-1.37-.61-3.46,1.05-4.02-.02.02-.06.03-.22.16-.24.17-.67.97-.48,1.43.04.12-.17-.51-.17-.83v-.24c-.05.4.31,1.17.75,1.39.19.1.13.05.04.03-.64-.25-.66-.12-1.5-.76-1.45-1.38-.48-3.45,1.21-3.85-.1.08-.16.09-.27.2-.17.15-.46.57-.47,1.06,0,.07,0,.12,0,.07,0,0,0-.05,0-.05,0-.28.08-.67.16-.9.07-.21,0,.07.01.08,0-.05,0,.12.04.28.04.17.14.37.21.45.07.08.06.06-.05-.06-.28-.26-.61-1.13-.56-1.55-.01.19.09.55.23.75.31.41.4.35.22.26-1.4-.8-1.54-2.97.05-3.84-.22.14-.48.68-.45.97,0-.1.06-.67.12-.84,0-.09.01.11.07.21.02.11-.29-.82-.23-1.09,0-.07,0-.03,0,.02.01.2.11.47.23.61.21.22.11.13-.22-.23-.16-.19-.34-.52-.41-.83-.19-.53.1-1.54.3-1.75,0,0-.1.31-.07.34,0-.25.06-.63.1-.87,0,.02,0-.14.02-.27.03-.38.31-.91.53-1.12.29-.27.24-.28.07.02-.07.14-.1.31-.09.41,0,.08,0-.08.01-.14.02-.25.11-.53.24-.74.38-.59.72-.69.78-.76.13-.06-.11.02-.26.46-.13.32.07.93.31,1.07-.33-.21-1.12-.74-1.09-1.67,0-.34.11-.73.3-1.01.29-.38.32-.4.2-.2-.04.1-.06.22-.06.27,0,.09.02-.23.02-.25.03-.27.14-.6.12-.54,0,0,0,0,.01-.03,0,0,0-.08,0,0,0,.08.02.17.06.26.18.38.34.37.22.31-.07-.07-.32-.15-.65-.58-.17-.22-.29-.57-.29-.86,0-.12,0-.04,0-.03v.06c.01.21.37.51.05.19-.55-.48-.63-1.55-.2-2.15.12-.2.01.03.04.04.02-.2.11-.67.28-.87.24-.31.27-.32.2-.18-.02.06-.03.14-.02.15,0,.03,0-.09,0-.09,0-.06.01-.12.03-.18.03-.13.08-.26.14-.37.28-.46.56-.54.65-.61.13-.06.04-.06-.05.18-.02.07-.03.12-.02.18,0,0,0-.06,0-.06.01-.21.07-.42.17-.62.2-.33.28-.39.23-.3-.01.04,0,.08,0,.08,0-.02.02.19.08.25.13.17.12.09,0,.03-.1-.08-.29-.15-.55-.44-.12-.15-.25-.39-.25-.63,0-.19,0-.02.01,0,0,.05.05.11.06.13.11.12.07.04-.04-.02-.11-.07-.27-.14-.5-.35-.22-.2-.56-.75-.13-1.31.33-.33.51-.31.69-.38.41-.12.81-.12,1.13-.23.02,0-.04.02-.08.19,0,.1.02.1.04.13.05.03-.03-.06-.15-.13-.2-.1-.63-.44-.61-.79,0-.12,0-.03,0-.04,0,.01.02.02.02.02.02,0-.07-.09-.19-.15-.2-.11-.48-.26-.63-.5-.07-.11-.08-.31-.06-.35l.1-.87c.18-.73,1.28-.33,1.54-.89-.04.32-.42.41-.65.54-.13.02-.57.27-.54.37,0,0,.06.85.06.85,0,.1.02.04.02.06.34.18.89.22,1.07.72.03.09.03.27.04.13.31.16.47.15.78.51.1.15.16.29.14.54-.05.32-.23.44-.33.52-.44.27-.92.39-1.32.55-.09.03-.2.14-.06.03.35-.48-.28-.69.27-.46.14.08.36.12.64.49.06.08.12.21.15.33.03.09.04.33.04.21,0-.09-.05-.2-.09-.24-.06-.07,0-.02.16.05.98.43.99,1.47.51,2.15.02-.03.04-.08.04-.1.08.52-.5,1.12-.69,1.22-.14.09-.12.16.02-.04.04-.07.07-.16.08-.24,0,0,0-.04,0-.04,0,.18-.02.42-.11.63-.18.41-.39.58-.3.51.05-.04.09-.18.1-.24.06.29-.2.97-.26,1.03,0,.03.07-.16.06-.13.04-.12-.14-.46-.14-.43-.02,0,.31.19.54.68.08.17.12.35.13.53,0,.04,0,.16,0,.07,0-.15-.07-.35-.15-.46-.16-.2-.14-.14.02-.06.12.09.54.25.82.91.09.21.1.46.11.69,0,.12,0,.25-.03.39-.07.34-.06.29-.05.31,0,.07,0,0,0,.18,0,.2-.05.46-.16.69-.24.47-.44.63-.31.49.14-.19.17-.49.09-.72-.08-.24-.2-.37-.26-.43-.06-.06-.06-.05-.03-.04.74.27,1.48,1.27,1.14,2.23-.24.73-.72.99-.83,1.08-.17.1-.09.15.15-.19.07-.12.13-.29.14-.44,0-.03,0-.15,0-.04,0,.24-.06.56-.19.82-.3.56-.59.73-.49.67.07-.03.25-.4.25-.54.01-.06,0-.15,0-.06-.04.66.03,1.42-.31,2.01-.12.25.07-.13.06-.21.05-.17-.1-.64-.24-.77-.15-.14,0-.08.38.38.25.27.43,1.01.41,1.19.02-.07-.12-.4.04-.02.26.66.21,1.23.13,1.77.04.37-.09.91-.33,1.26-.2.31-.4.47-.54.58-.26.18-.32.26-.1.06.3-.28.46-.91.28-1.38-.24-.59-.53-.65-.4-.6.06.06.41.15.88.8.23.32.35.83.35,1.16,0-.11-.01-.27-.08-.44-.17-.37-.29-.46.05-.05.52.65.56,1.75.3,2.46,0,.02.03-.07.03-.11,0,0,0-.04,0-.04,0,0,0,0,0,0,.03.6-.37,1.32-.67,1.56-.27.28-.9.61-1.17.69-.1.05.01,0,.04-.03.34-.25.64-.6.69-1.25.07-.6-.36-1.21-.52-1.32-.38-.31-.34-.21-.29-.22.46.13.81.21,1.37.58.51.31.97,1.2.93,1.78,0,0,0-.03,0-.03.02-.04-.09-.39.04,0,.1.32.15.68.14,1.02.02.6-.45,1.4-.76,1.63-.25.27-.82.53-.89.58.34-.16.72-.73.74-1.27.05-.35-.16-.92-.36-1.11.38.25.91,1.31.84,1.9,0,.16,0,.55-.01.71,0,.26,0,.64-.15,1.07-.1.38-.57.93-.63.99.15-.11.41-.71.38-.99,0,0,0,.09,0,.09.05.48-.4,1.46-.73,1.73-.1.11-.1.12-.01.01.09-.1.22-.34.28-.57.06-.21.05-.46.05-.36,0,.01,0,0,0-.02,0-.02,0-.04.02.09.06.28.09.59.08.88.03.27-.15,1.03-.27,1.24.18-.29.06-1.08-.19-1.44-.14-.29-.61-.63-.68-.64.52.14,1.21.37,1.75.95,1.41,1.62.25,3.64-1.37,4.12.03-.01.09-.05.12-.07.35-.16.88-1.01.79-1.65,0-.27-.19-.74-.33-.89-.09-.11-.09-.1.03.02.34.29.79,1.29.74,1.8,0,.14,0-.01,0-.05-.02-.2-.07-.41-.16-.61-.12-.27-.29-.45-.35-.5-.05-.05-.02-.02.11.09.49.34,1.01,1.41.95,2.06.08.41.26,1.07-.17,2.01-.25.51-.61.81-.81.95-.44.31-.63.36-.65.39,0,0,.02,0,.15-.1.39-.29.69-.88.69-1.4,0-.09,0-.05,0,0,0,.15-.01.26-.04.41-.05.56-.58,1.34-.91,1.59-.05.05.01,0,.13-.16.12-.15.27-.47.31-.72.02-.12.03-.26.03-.31,0,.05,0,.47,0,.54,0,.08,0,.25,0,.32.01-.15-.05-.56-.16-.76-.25-.58-.61-.79-.7-.86-.15-.09-.16-.09-.18-.1.38.12.87.26,1.34.58,1.49.96,1.4,3.22.04,4.2-.11.09-.14.11-.08.06.06-.05.24-.22.38-.51.15-.25.2-.73.19-.76.02.27-.11.92-.2,1.14-.03.09.01-.03.02-.11.02-.09.02-.15.02-.17,0-.02,0,.02,0-.01-.03-.19.03.08.05.27.03.22.04.39.04.58,0,0,0,.08,0,0,.05-.46-.4-1.26-.67-1.41-.11-.09-.14-.09-.1-.07.07.07.34.11.92.72.4.37.73,1.4.62,1.98,0,.53-.51,1.46-.7,1.58.14-.16.35-.67.33-.95.04.18-.15,1.13-.3,1.33-.02.05.04-.09.06-.2.03-.12.03-.21.03-.25,0,0,0-.03,0,0v.12c0,.53-.33,1.32-.63,1.64-.14.17-.18.21-.11.13.06-.08.21-.32.28-.55.15-.49.04-1.07-.24-1.5-.09-.15-.25-.32-.32-.38-.35-.28-.33-.21-.23-.18.13.04.9.42,1.17.75.54.51.85,1.51.67,2.26-.07.6-.62,1.34-.98,1.6-.07.06-.04.04.06-.07.21-.18.46-.82.42-1.13.02.23-.06.75-.11.93,0,0,0-.05,0-.05,0-.01,0,0,0,.01,0,.41-.11.83-.31,1.19-.22.56-1.25,1.2-1.4,1.22-.12.04-.12.11.23-.21.86-.8.59-2.47-.41-2.93.69.24,1.39.62,1.78,1.27.52.78.44,2-.11,2.75-.46.58-.62.65-.39.42.17-.19.37-.68.35-.99,0-.06,0,.05,0,.06v.43s-.02.21-.02.21c.08.94-.59,1.97-1.28,2.32-.25.14-.36.21-.14.05.79-.62.79-2.11-.1-2.73-.34-.21-.16-.08.17.05.75.3,1.49,1.05,1.58,1.94.05.5.02.22.02.22,0-.12-.05-.31-.13-.46-.07-.16-.14-.23-.08-.15.61.76.69,2.21.11,3.03-.12.18-.14.21-.08.12.05-.09.13-.29.15-.43.02-.12.02-.3.01-.11,0,.19-.05.59-.07.67-.03.17-.02.62-.13.9-.07.26-.2.51-.24.58-.05.08.02-.03.05-.15.04-.13.05-.23.05-.28,0,0,0-.06,0-.01,0,0-.01.2-.01.2.01.48-.44,1.3-.66,1.49.04-.04.15-.22.21-.41.13-.41.03-.81-.14-1.05.01.02.14.2.26.47.12.27.19.57.21.82.01.16.04.6-.13,1.05-.22.61-.66.98-1.03,1.22-.17.07-.02.11.3-.41.11-.21.18-.46.17-.7.01.28-.1.82-.2,1.05-.02.06,0-.02,0-.07,0-.05,0-.09,0-.09,0-.02-.01-.21-.07-.38-.06-.17-.17-.34-.21-.38-.04-.04.01.02.14.19.13.17.31.48.39.79.09.32.08.47.09.66,0-.17-.07-.43-.18-.62-.1-.17-.19-.24-.18-.23.22.16.6.69.71,1.11.22.76.03,1.49-.34,2.05-.03.04.03-.06.07-.18.08-.33.07-.49-.1-.89-.27-.47-.43-.44-.25-.34.1.09.68.44.91,1.27.31.89-.35,2.09-1.02,2.38.1-.06.36-.46.38-.69.01-.06.02-.1.02-.16,0-.05,0-.12,0-.04,0,.24-.08.7-.16.89-.02.07,0,.01,0-.01,0-.03,0-.05,0-.03.02,0-.08-.43-.16-.48.26.42.53.9.41,1.72-.06.34-.22.68-.41.9-.37.42-.57.5-.47.43.04-.04.15-.16.23-.36.2-.41-.02-1.17-.43-1.36,1.79.8,1.79,3.05-.19,3.64-.08,0-.05.09.23-.28.32-.46.19-1.22-.27-1.52-.14-.08-.07-.02.03.02.48.17,1.01.38,1.35.82.39.45.38,1.22.21,1.75-.02.26-.06.73-.17.93,0,0-.01.02-.01.05,0,.06-.02.41-.13.63-.12.34-.38.57-.56.72-.02.04.19-.3.15-.43,0,.18-.08.57-.24.79-.15.23-.33.37-.44.45-.24.16-.35.21-.3.16.08-.06.23-.36.19-.52.05-.24-.26-.68-.36-.68-.03-.01,0,0,.02.02.34.13,1.11.36,1.46.73.47.41.41,1.36-.11,1.7-.4.31-1,.4-1.24.46-.18.02-.26.11-.12-.03.19-.2.19-.64-.03-.83-.14-.1-.04,0,.05.02.37.15.79.25,1.17.52.12.1.33.26.39.63.03.23,0,.14,0,.2-.03.26.05.45.03.75,0,.07,0,.03-.02.22-.03.15-.08.26-.16.36-.14.18-.27.24-.37.29-.34.17-.59.16-.9.26-.11.02-.21.09-.15.01.01-.02.03-.06.03-.12,0-.08,0,.01,0,.01,0,.04,0,.07,0,.1,0,.04.1.22.15.45.03.21.03.4-.06.65-.11.24-.27.36-.31.41-.09.02-.09.37-.12.65-.06.45-.04.85-.06,1.29-.02.08.04.18.16.26.19.16.57.3.56.63h0Z"/><path class="cls-2" d="m123.78,195.55c-.06-.29.13-.57.09-.83-.01-.27-.08-.54-.12-.84-.02-.12-.04-.34.06-.52.12-.26.23-.27.22-.46-.06-.5.55-.74.86-.93.1-.06.09-.12.04-.02-.01-.01-.02-.04-.06-.07-.3-.22-.56-.78-.34-1.25.13-.28.31-.41.33-.47.02-.06-.03.05-.03,0-.17-.47-.37-.9-.13-1.53.1-.23.06-.17.06-.2,0,0-.02-.09,0,.05,0,.1.08.18.09.19.04.04-.07-.02-.21-.08-.13-.08-.4-.16-.66-.57-.09-.15-.14-.36-.14-.53,0,0,0,.03,0,.03,0,.04.02.13.05.17.06.08,0,.04-.22-.15-.3-.28-.46-.67-.4-1.15.15-.89,1.2-1.04,1.66-1.31,0,0-.12.04-.23.26-.11.17-.12.46-.04.64.12.3.36.34-.03.19-.3-.09-1.02-.62-1.02-1.25,0-.05-.01-.13-.01-.17,0-.12,0-.27.03-.42.03-.16.09-.32.11-.4.03-.08.01-.06,0-.04,0,.02-.01.03-.02.02,0,0,0-.02,0,0,0,.14.03.28.1.41.19.3.24.25.13.22-.49-.17-1.18-.79-1.14-1.55,0,0,0-.08,0-.08l-.05-.33c-.07-.8-.27-2,.34-2.63.16-.21-.08.05-.1.25-.02.1-.02.13-.02.14,0,.02,0,.1.02.16.02.06.03.07-.04-.04-.77-1.56.23-2.55,1.58-2.95.1-.03.17-.09.03-.02-.05.03-.28.16-.44.54-.07.16-.11.37-.1.49-.06-.15-.14-.64-.13-.88-.04.44.31.99.64,1.16-.54-.13-1.31-.25-1.86-.88-.33-.32-.6-1.18-.33-1.8.29-.9,1.27-1.27,1.98-1.48.1-.03.17-.08.06-.03-.03,0-.21.15-.26.2-.64.55-.51,1.88.25,2.29.08.05.07.04.07.04l-.28-.07c-2.41-.42-2.82-2.96-.9-4.14,0,0-.07.04-.21.19-.16.16-.36.61-.34.91-.03-.5.26-1.22.56-1.53.35-.36.33-.38.09-.06-.13.21-.21.48-.21.7,0,0,0-.09,0-.09v-.22c.02-.31.16-.79.11-.66,0,0-.02.1-.02.07-.03-.23.07-.82.07-.87,0,.01-.02-.15.02.27.06.31.16.51.29.7.19.25.26.29.46.43.13.07,0,0-.17-.04-.16-.02-.69-.24-.94-.41-1.4-.83-1.36-2.92-.07-3.75.2-.16.73-.4.79-.43.06,0-.03-.1-.47.43-.36.48-.41,1.25-.12,1.77.07.14.2.3.26.36.32.3.32.23.19.19-1.9-.8-2.05-3.19-.49-4.31-.47.32-.71,1.35-.35,1.85.06.11.06.1-.05-.06-.11-.15-.27-.46-.35-.76-.17-.63-.12-1.23.04-1.8.03-.1,0-.03,0,.04l-.02.11s0,.02,0,0c-.05-.85.62-1.82,1.22-2.17.05-.03.03-.03-.06.05-.61.46-.72,1.74-.18,2.3.31.35.33.3.04.11-1.06-.7-1.37-2.42-.69-3.5.25-.42-.06.04-.08.33-.07.3.04.82.25,1.11.27.36.26.32-.15-.11-.34-.37-.62-1.12-.6-1.67,0,.19.06.53.2.75.1.19.19.27.14.22-.26-.25-.71-1.06-.72-1.52-.08-.45.03-1.19.17-1.53-.02.07-.05.19-.05.26-.06-.77.58-1.82,1.16-2.16,0,0,.19-.13.19-.13-.23.13-.62.68-.66,1.11-.06.57,0,.64.17,1.04.07.11.05.09-.06-.09-.27-.38-.49-1.16-.44-1.65-.05-.46.36-1.45.67-1.73.11-.12.08-.1-.01.03-.15.21-.29.62-.28.9,0-.05,0-.19,0-.24-.02-.26.26-1.11.38-1.26,0-.01-.08.16-.11.3-.09.67-.03-.15,0-.42.02-.17,0-.04.01-.13-.05-.52.31-1.48.53-1.71-.32.43-.27,1.27.03,1.65-.29-.31-.63-1.24-.58-1.74-.03.62.42,1.41.96,1.66,0,0-.4-.16-.4-.16-1.75-.66-2.29-3.04-.83-4.33.48-.42.72-.48.74-.51-.35.17-.84.95-.79,1.52,0-.78-.05-1.61.41-2.31.45-.65.74-.79.51-.6-.68.7-.49,2.12.3,2.68.28.21.39.19,0,.07-2.75-.96-2.33-4.16-.24-4.92-.34.17-.83,1.02-.76,1.53-.01-.23.05-.73.1-.92,0-.04,0,.02,0,.04-.07-.53.42-1.66.87-1.97.32-.26.23-.28-.09.2-.38.63-.26,1.49.15,2.02.48.54.56.43.5.44-.27-.09-.99-.49-1.27-.83-.84-.77-.84-2.56-.02-3.42.13-.15.16-.19.09-.1-.06.08-.2.31-.26.52-.04.15-.06.27-.06.41,0,.07,0-.06,0-.08-.02-.28.17-1.01.29-1.22.03-.07-.02.05-.05.16-.03.11-.03.2-.03.24,0-.01,0,.07,0-.02,0-.23.03-.46.1-.7.07-.39.49-1,.6-1.09-.56.66-.29,1.93.41,2.36.09.04-.08-.03-.43-.28-.51-.29-1.14-1.38-1.04-2.03-.06-.38-.19-1.11.08-1.94.06-.16.05-.14.03-.06-.02.07-.02.15-.02.18,0,0,0,.07,0-.02-.02-.54.31-1.3.64-1.62.43-.44.58-.5.4-.35-.7.66-.52,2.06.29,2.58.13.08.17.1.19.1-.3-.12-.93-.31-1.32-.61-.58-.41-.97-1.11-.97-1.85,0,0,.02-.85.02-.85v-.07s.02-.24.02-.24c.02-.46.35-1.13.62-1.39.37-.35.33-.37.08,0-.13.22-.21.53-.2.73,0-.38.11-.78.3-1.11.54-.81.97-.89,1.13-1.01.18-.08.24-.14.05,0-.33.22-.61.93-.56,1.2,0-.07.03.13-.01-.12-.04-.19-.06-.43-.06-.63,0-.03,0-.2,0-.03-.03.21.28.87.44.93-.44-.28-1.03-1.31-.94-1.91-.04.15.2.77.32.83-1.29-1.31-.75-3.41,1.09-3.89.07,0,.07-.09-.29.27-.16.18-.4.63-.35,1.08.03.46.22.79.52,1.06.31.22.25.13.19.12-.5-.2-.58-.16-1.22-.58-.5-.36-.87-1.07-.8-1.73.01-.4.16-.82.26-.98-.04.13-.03.29-.03.19,0-.08.03.06,0-.15-.04-.25-.06-.5-.05-.8-.03-.42.33-1.18.61-1.41.23-.22,0-.04-.1.31-.03.11-.04.19-.04.29,0-.34.08-.68.26-1,.32-.51.55-.66.41-.51-.06.08-.14.24-.17.39-.03.15-.02.29-.02.14,0-.27.04-.59.07-.77-.03.2.25.65.26.6.03,0-.37-.3-.57-.9-.04-.14-.07-.28-.08-.4-.09-.42.21-1.25.51-1.46.41-.38.64-.42.78-.49.13-.05.2-.11.03.04-.06.06-.25.27-.3.54-.05.38,0,.19-.02.24,0,0,.07.18-.03-.16-.06-.22-.08-.44-.08-.66,0-.18-.01.17.07.33.07.21.29.48.43.5-.74-.32-1.58-.46-1.83-1.54-.19-.98.67-1.66,1.38-1.83.12-.03.21-.08.12-.02-.05.02-.3.35-.3.57,0,.05,0,.17,0,.1v-.18c.03-.13.05-.28.09-.41.04-.14.08-.22.08-.23,0,0,0,.01.01,0,0,.01.01-.09.02-.01,0,.09.17.35.11.24-.05-.05-.39-.48-.42-.89-.06-.6,0,.09.18.16.08.05-.01-.03-.2-.16-.1-.08-.22-.17-.36-.35-.13-.17-.25-.45-.26-.69-.11-.63.51-1.27.86-1.38-.04.05-.14.24-.12.34,0,0,0-.07,0-.07,0-.32.14-.63.16-.93-.04-.08-.16-.45-.15-.66v-.13s.02.05.02.05c.01.04.05.09.06.09.03,0-.1-.09-.29-.34-.36-.48-.19-1.18.06-1.5.04-.06.04-.02.06-.12.01-.15.03-.35.07-.5.03-.14.05-.22.07-.35-.01-.14.1-.56.28-.7.17-.16.25-.22.26-.22,0,0,.01,0,.02-.02,0,.01,0-.05.02-.13.01-.07.04-.15.07-.21.23-.38.41-.38.67-.55.01-.02.04-.02.03-.06-.02-.05-.13-.13-.25-.21-.12-.09-.27-.17-.38-.38-.11-.23-.05-.42.02-.59.22-.34.42-.37.41-.68.03-.31.2-.55.21-.83.05.29-.06.58-.02.84.02.13.01.33-.08.48-.09.15-.18.24-.2.34-.04.24.02.25.29.38.38.12.79.53.58,1-.11.33-.48.45-.53.61,0,0,.01,0,.01,0,0-.01,0,0,0,.08.05.25-.34.73-.4.79-.02.07.02-.06.02.09.01.15,0,.36,0,.5,0,.32.06.73-.12,1.04-.09.19-.04.12-.04.17.01.11.02-.06,0-.08.28.13.61.63.61,1.06.02.07,0-.03.08.15.26.5.15,1.06.14,1.58,0,.19-.02.35-.08.53-.07.32-.61.7-.68.78.02.03.22-.25.18-.43,0-.1-.06-.25-.11-.31-.06-.07-.06-.08-.04-.07.05.03.21.08.49.33.22.18.46.65.44,1,0-.02,0-.03,0-.07,0-.13-.15-.32-.01-.17.13.1.46.61.47.99.03.31.01.54-.06.82-.08.27-.03.14-.03.18v.03s0,.12-.01.21c-.01.1-.03.2-.07.29-.22.61-.79.9-1.16,1.06-.3.12-.26.21-.02-.05.13-.17.25-.41.2-.78-.1-.46-.31-.56-.41-.67.52.13,1.09.24,1.53.68.12.12.27.32.35.54.18.75.07.5.11.55-.03-.24.15.34.18.61,0,.18.06.13-.02.66-.09.4-.35.74-.52.89-.38.33-.57.39-.69.46-.11.05-.15.13.06-.05.21-.13.42-.79.29-1.08-.11-.32-.29-.43-.06-.23.41.34.66,1.11.62,1.65,0,0,0,.27,0,.27,0,.16,0,.21,0,.34.05.26-.15,1.06-.4,1.33-.32.37-.31.4-.13.14.08-.13.13-.31.14-.42v-.07s0,.19,0,.19c0,.12-.03.27-.07.41-.18.63-.62,1-.59.99,0,0,.09-.09.16-.24.08-.14.11-.33.11-.42,0-.06,0,.04,0,.02.04.04.11.49.11.71.01.18.01.63-.13,1.03-.07.19-.11.29-.1.26.21-.49-.11-1.15-.49-1.42-.22-.15-.15-.09-.07-.08.57.21.62.08,1.36.62.41.36.67.81.72,1.41.04.52-.18,1.13-.49,1.46-.68.68-.89.61-1.26.84,0,0,.09-.03.22-.15.55-.42.67-1.46.23-1.95.3.18.8,1.17.74,1.7.06-.21-.23-.89-.4-.99-.04-.04.01,0,.13.1.37.27.86,1.11.84,1.65,0,0,0,.18,0,.18,0,0,0,.01,0,.01,0,0,0-.03,0-.01.04.13.13.71.1.97,0,.47-.22,1.01-.52,1.35-.21.31-.96.75-1.03.77-.09.01.08.08.47-.49.14-.23.22-.53.22-.81,0,0-.01.21-.01.21-.02.31-.14.72-.32,1.02-.39.61-.68.76-.5.61.07-.07.21-.27.29-.5.05-.16.08-.3.08-.45,0,0,0,.03,0,.04l.02.85c.01-.55-.27-1.11-.7-1.42-.04-.04-.12-.08-.17-.11.09,0,.42.12.72.23,1.66.59,2.11,2.73.86,3.96-.38.35-.48.43-.23.2.11-.11.29-.39.35-.66.04-.15.05-.26.05-.38.03.24-.11.97-.19,1.13.09-.33.04-.25.06-.27.06.21.12.66.11.9,0,0,0-.12,0-.12.02-.43-.41-1.12-.66-1.27-.12-.08-.03-.04.29.16,1.27.74,1.56,2.68.61,3.81-.13.17-.16.2-.1.12.06-.08.19-.3.25-.51.04-.15.05-.25.06-.39,0-.06,0,.06,0,.09.03.26-.16,1.02-.28,1.22-.03.06.03-.05.05-.16.03-.11.03-.2.04-.24,0,.14-.02.5-.11.75-.08.39-.51,1.01-.63,1.11.53-.57.41-1.75-.13-2.27-.16-.17-.22-.21-.37-.31,2.17.71,2.54,3.3.89,4.61.23-.13.58-.94.52-1.23.02.24-.06.82-.09.91.02.27-.12.93-.35,1.26-.36.65-1.11,1.06-1.44,1.2-.01,0,0,0,.1-.06.97-.63,1.02-2.35.04-3.06-.31-.22-.28-.16-.2-.14.81.23,1.88.96,2.07,1.97.24.79-.08,1.88-.61,2.41-.41.4-.37.41-.07,0,.13-.21.24-.53.26-.75,0-.05,0-.11,0-.16,0,.02,0,.12,0,.15,0,.21,0,.56,0,.76.05.68-.49,1.64-.9,1.93-.25.22-.4.3-.52.37-.22.11-.24.17.03-.06.16-.14.39-.42.52-.86.3-.79-.26-1.97-.89-2.21.7.27,1.37.63,1.77,1.38.19.33.3.77.31,1.18,0-.03-.01-.11,0-.14-.01-.14-.07-.36-.15-.53-.08-.17-.15-.24-.08-.15.45.58.69,1.62.48,2.4-.07.31-.23.66-.35.85-.13.2-.15.23-.09.13.09-.15.2-.49.21-.69,0-.02,0-.07,0-.06,0,.21-.04.66-.06.79.02.38-.15,1.22-.36,1.53-.07.12-.02.05.03-.09.05-.14.08-.29.08-.38,0-.02,0-.06,0-.08.01.51-.18,1.15-.47,1.55-.41.52-.29.45-.05-.02.15-.42.17-.59.08-1-.04-.17-.14-.38-.18-.43.92,1.23.6,3.2-.84,3.99.31-.21.72-.9.67-1.39,0,.32-.05.68-.15.99-.06.18-.07.22-.05.15.04-.19.04-.23.02-.44-.02-.18-.1-.43-.21-.61-.1-.17-.18-.24-.12-.18.37.34.77,1.32.72,1.86.02-.32-.19-.84-.38-1.04-.23-.21,0-.09.43.51.54.82.53,1.94.1,2.76-.38.69.06-.11.02-.33.08-.42-.29-1.22-.62-1.41,1.51.93,1.72,3.32-.01,4.39.16-.11.62-.78.57-1.27.02.27-.09.86-.18,1.07.07-.17-.06-.77-.21-.93.35.45.63,1.3.49,2.03-.06.61-.57,1.33-.98,1.61-.22.14,0,.1.27-.44.28-.52.1-1.43-.29-1.79-.34-.34-.37-.26-.25-.22,2.06.91,2.03,3.63-.03,4.44-.28.11-.33.16-.16.04.9-.61.82-2.14,0-2.68-.1-.09-.37-.18-.04-.06.87.25,1.82.89,1.98,1.93.07.64,0,.88-.07,1.23-.01.24-.02.51-.09.76-.11.41-.06.2-.07.17-.02.33-.11.87-.35,1.22-.38.56-.65.7-.49.55.11-.11.31-.53.3-.76,0-.03,0-.1,0-.1,0,.1-.01.2-.03.3-.06.65-.59,1.3-1.03,1.56-.25.15-.28.2-.08,0,.12-.12.28-.36.34-.65.15-.58-.17-1.37-.7-1.63-.08-.04-.05-.02-.05-.01.51.19,1.12.33,1.61.75,1.36,1.2.54,3.16-1.12,3.47,0,0-.4.1-.4.1-.08.01-.17.06,0-.04.23-.17.39-.35.51-.67.27-.57-.11-1.51-.6-1.69-.03-.01-.04,0,0,0,.32.09,1.25.39,1.62.78.31.25.58.86.56,1.3,0,.02,0,.07-.01.07-.01-.03.08.38.07.61,0,.28-.02.6-.13.87-.47.96-1.13,1.04-1.86,1.25-.07,0-.14.08.09-.11.28-.24.51-.81.3-1.13.32.58.38,1.55-.05,2.15-.12.18-.22.28-.24.3-.02.06.16-.31.12-.41-.02.16-.02.51-.04.79-.03.3.02.61,0,.98.02-.22-.18-.57-.28-.63-.13-.09-.05-.02.09.06.16.03.93.68.94,1.21.06.4-.03.82-.19,1.15-.03.05-.02.02-.02,0,0-.02,0-.03-.01,0,.01-.03-.06-.36-.15-.45-.2-.22-.19-.13-.09-.09,1.27.52,1.54,2.18.05,2.67-.37.12-.65.16-.8.2-.03,0-.04.01-.01-.02.04-.03.16-.13.22-.4.01-.17,0-.15,0-.18,0-.04-.1-.23-.11-.21-.02.01.16.12.38.45.13.2.19.47.19.7,0,0,0-.05,0-.07-.01-.05-.03-.11-.06-.15-.12-.17-.13-.1-.02-.04.23.09.74.51.8.92.04.28.01.33,0,.47-.03.25-.21.57-.23.59-.15.05.1.77.04.95.05.32-.34.88-.54.93,0-.04-.02.02-.03.03-.02,0,0,.05.14.23.13.19.22.45.18.72-.18.69-.74.59-1.14.83,0-.11-.02.2-.13.37-.27.36-.37.31-.37.63-.02.26,0,.56-.05.85-.04.32-.27.52-.27.82h0Z"/><path class="cls-2" d="m339.36,218c-.02-.46.82-.5.67-.98-.2-.34-1.02-.4-.84-.97.12-.37.48-.46.45-.7,0-.05.03-.22.1-.28.31-.3,1.01-.35,1.25-.64-.35-.28-1-.2-1.46-.4-.32-.07-.77-.42-.4-.81.34-.28.78-.33,1.14-.44.67-.31.73.11.1-.75-.08-.25-.07-.43,0-.65.12-.3.22-.39.2-.52,0,0-.1-.07-.23-.13-.13-.07-.29-.12-.48-.3-.12-.09-.21-.41-.21-.48-.85-.47-.98-1.17-.16-1.78.01-.05,0-.15.04-.24.1-.34.35-.48.46-.57.13-.09.2-.16.18-.13,0,.03-.01,0-.01.07.03.1.06.12.05.11-1.01-.39-1.8-.43-1.29-1.84.02-.28-.06-.75-.05-1.05-.06-.26.32-.78.36-.82-.05-.44.44-.82.68-.9.15-.08.36-.16.39-.19-.01,0-.08.12-.06.17-.33-.27-.63-1.02-.21-1.54.2-.22.32-.37.24-.25,0,.03,0-.07,0-.09,0-.07-.03-.08-.11-.34-.06-.25-.07-.42-.05-.66.02-.32.19-.53.2-.63,0-.01,0-.1,0,0,.05.17.11.14,0,.09-.09-.06-.25-.11-.47-.29-.2-.12-.4-.58-.38-.73.02.08.07.11-.06,0-.11-.08-.41-.37-.46-.74-.18-.91.93-1.19,1.46-1.37.1-.02.2-.13.06,0-.2.3,0,.54.02.55-.35-.21-.49-.14-.88-.62-.28-.4-.16-.97,0-1.36,0,0,0-.08,0-.08,0,.08.04.19.08.24.07.07,0,0-.14-.06-.13-.09-.34-.13-.61-.49-.13-.15-.2-.51-.18-.61,0-.22-.03-.33-.05-.63,0-.34-.02-.8-.02-1.14-.06-.34.33-.95.39-.98-.03.03-.03.13-.03.05-.15-.23-.31-.76-.2-1.11.17-.71,1.03-.84,1.55-1.06.03-.01.02-.02-.04.04-.03.03-.09.1-.11.19-.02.05-.03.1-.03.15,0,.07,0,0,0,0-.01-.24-.11-.55-.1-.82,0-.03,0-.06,0,.03.05.27.18.35.19.37.02.02,0,0-.04-.01-.62-.25-.95-.1-1.57-.75-.21-.23-.25-.75-.08-1.04.39-.65,1.14-.7,1.61-.89-.01.01-.19.14-.2.41-.03.26.17.47.19.48.09.06-.02,0-.13-.04-.31-.1-1.04-.24-1.37-.61-.39-.37-.34-1.14.03-1.49.12-.15.61-.47.49-.37-.04.04-.09.16-.09.23,0,.1,0-.08.01-.15.02-.1.04-.2.08-.29.17-.41.45-.58.46-.62.03-.07-.09.18-.07.18-.02-.29.11-.62.12-.87-.02-.25.08-.62.08-.88,0-.09-.01.1.04.19.02.08.09.17.11.19.07.07.07.06.05.05-.22-.11-.52-.15-.81-.3-1.26-.63-.78-1.96.41-2.31.1-.02.1-.13-.07.15-.11.2,0,.52.11.6-.38-.24-.58-.16-.97-.83-.19-.41-.06-.98.23-1.28.24-.26.38-.33.35-.32-.06,0-.13.33-.1.27-.01.02.09.18-.05-.03-.32-.42-.33-1.1-.16-1.57.03-.11.02-.08.03-.19-.04-.33.26-.87.53-1.03.41-.28.16-.17.12.07,0,.07,0,.14.03.23.09.18.13.14-.02.04-.16-.05-.71-.65-.64-1.12,0-.22.05-.48.16-.68.17-.3.14-.24.12-.2,0,.18.23.37-.19-.06-.17-.16-.31-.64-.29-.8,0,.07.12.2-.03.03-.15-.13-.39-.6-.36-.91-.03-.29.1-.66.15-.91,0-.18.04-.39.12-.55.1-.31.6-.61.67-.66-.03,0-.14.24-.12.29-.01,0,.08.16-.05-.05-.37-.47-.31-1.4.1-1.78.14-.17.04-.05.04.01,0-.08.04-.46.12-.61.14-.3.12-.24.12-.23,0,.05,0-.19.02-.38.02-.23.05-.32.05-.41-.03-.35.13-.88.32-1.07-.02.08,0,0,0,.05.02.06.06.1-.12-.18-.12-.19-.19-.47-.19-.69,0-.07,0-.02,0,.03,0,.04.02.08.03.11.15.3.19.19.08.17l-.4-.17c-1.1-.44-1.09-1.76.08-2.26.1-.06-.05,0-.09.23,0,0,0-.35,0-.35,0-.23-.02-.67.07-.91.06-.19.18-.36.28-.45.2-.19.25-.25.18-.16-.1.14.04.43.1.47.09.07-.01,0-.12-.04-.23-.08-.52-.19-.78-.37-.87-.66-.33-1.71.55-1.99.11-.04.1-.11-.02.1-.01.05-.03.11-.03.16v-.14c.03-.37.11-.57.12-.97-.01-.3.51-.83.57-.85-.07.09-.07.21-.02.32.13.22.13.13.02.09-.21-.08-.53-.23-.76-.44-.43-.3-.38-1.21-.02-1.53.17-.19.13-.16.12-.1,0,.13-.01-.2.07-.45.05-.17.11-.26.14-.35.01-.13.02-.41.11-.57.15-.32.33-.45.3-.44-.01.04,0,.07.01.14.08.14.08.08-.03.02-.11-.07-.28-.13-.52-.39-.17-.17-.25-.51-.24-.77,0-.08-.03-.17-.06-.4-.02-.21-.03-.37,0-.59.02-.23.13-.48.14-.51,0-.03.01-.06.02-.1v-.1c-.03-.35.4-.83.53-.88.12-.09.08-.09.06-.01-.01.05.02.17.05.21.06.08.06.06.04.05-.19-.08-.5-.2-.75-.29-.16-.09-.39-.11-.64-.54-.1-.26-.06-.43-.06-.66,0,0,0-.44,0-.44v-.11c0-.07,0-.14.03-.22.02-.31.41-.61.48-.69,0,0,0,.03,0,.01,0-.12.04-.29.11-.4.28-.44.59-.43.84-.61,0-.04-.05.22-.03,0,0-.18-.1-.55-.08-.78.01.02.03,0-.11-.11-.11-.08-.35-.32-.4-.63-.02-.19-.01-.19-.01-.19-.02-.11-.19-.15-.33-.47-.13-.3-.09-.69.13-.89.33-.33.6-.3.89-.47.1-.06.03-.05.03.1.08.16.05.05-.07.02-.41-.21-1.08-.25-1.26-.79-.07-.25.03-.58.13-.78.24-.57-.27-1.28.24-1.77.13-.14.19-.19.21-.24.01-.05.01-.02.02-.16.01-.11.04-.23.1-.32.12-.2.26-.29.3-.35.09-.1.09-.87.1-1.11,0-.08-.05-.14-.16-.25-.2-.16-.37-.58-.18-.85.18-.32.81-.41.89-.6.03-.02.01-.24-.01-.33-.03-.11-.1-.29-.1-.45-.01-.21.02-.19-.09-.28-.38-.23-.82-.25-1.2-.56-.16-.14-.09-.43.05-.51.13-.1.28-.15.42-.21.25-.11.62-.17.63-.47,0-.31.19-.56.18-.87.04.3-.14.58-.12.87.02.36-.4.45-.64.58-1.19.55.42.66.84.93.18.07.25.34.24.48.02.23.24.52.14.94-.23.42-.58.42-.77.59-.1.08-.11.1-.1.18.06.27.42.36.46.72.04.3,0,.64,0,.93.01.1,0,.4-.13.57-.12.18-.24.26-.26.33-.04.08,0,.22-.05.38-.07.24-.25.39-.31.47-.18.28.09.74.05,1.08.04.3-.17.6-.17.87-.12-.15.12.05.41.1.14.04.29.08.45.15.45.14.78.69.42,1.12-.24.28-.74.42-.96.57,0,0,.05-.07.04-.11,0,.09.05.05.24.29.11.08.23.58.21.61,0-.02-.02-.02.1.08.13.07.48.47.45.8,0,.26.08.43.1.75.05.21-.08.67-.28.8-.2.18-.36.23-.48.3-.12.06-.18.13-.13.07.02-.02.02-.05.03-.07,0,0,0-.05,0-.01,0,.18-.05.38-.16.54-.17.24-.32.33-.32.36,0,.01,0,0,0-.01,0,0,0,0,0,0v.11c0,.22,0,.56.01.77,0,.05,0-.1-.03-.12-.11-.17-.04-.06.06-.04.59.18,1.57.43,1.37,1.31-.08.37-.36.59-.47.67-.17.14-.08.09-.06,0,.03.21-.12.69-.14.8-.03.22.13.74.11.97,0-.05-.04-.14-.06-.15-.04-.03.06.04.2.11.16.04.69.51.66.93.01.23-.04.48-.17.67-.18.26-.24.32-.21.28,0-.01.01-.04.01-.02,0,.05,0,.2-.02.32-.02.14-.12.39-.15.48-.02.04.02,0-.04.42-.08.35-.35.59-.36.63-.02.02,0,0,.01-.02,0-.01,0-.02,0-.03,0-.02,0,.04,0-.05-.02-.12-.08-.22-.11-.24-.02-.02-.01,0,.03.01l.38.16c.95.38,1,1.48.19,2.06.05-.01.06-.31.05.02-.01.31-.08.45-.08.65,0,.15,0,.31-.07.45-.23.5-.52.57-.67.67-.16.08-.29.14-.31.16-.05.04.19-.12.11-.44-.15-.33-.18-.21-.08-.2.41.2.57.12,1.02.52.31.27.4.88.17,1.28-.2.36-.41.47-.41.49,0,.05.09-.24.06-.11,0,.23,0,.55,0,.77.05.43-.3.93-.63,1.1-.18.11-.3.17-.28.17,0,0,.06-.05.1-.15.04-.12.03-.24-.01-.36-.16-.27-.16-.16-.06-.14.45.16,1.22.47,1.23,1.24-.11-.22.19.19.28.53.14.38-.05,1.08-.26,1.3.03-.15,0,.2,0,.19,0,.2-.05.41-.05.47-.02.1.01.16-.03.5-.04.31-.24.62-.21.58.07.33-.28.94-.41,1.02-.05.08.05-.1.03-.1.02.04-.03-.09-.01-.05.19.17.44.93.26,1.32-.07.35-.6.75-.73.82,0,0,.03-.02.07-.1.02-.04.04-.09.04-.13,0-.02,0-.04,0-.06,0-.01,0,.04,0,.06.02.3-.14.6-.15.82.02-.01-.08-.2-.03-.12.05.05.37.41.4.78.02.07.03.33.01.17,0-.05-.05-.12-.06-.14-.04-.02.13.08.36.41.2.31.23.69.16,1.03-.07.34-.34.73-.24.54,0,0,0-.06-.01-.1-.06-.2-.17-.23-.04-.15.08.08.38.21.59.66.19.42.1.95-.19,1.28-.26.29-.43.36-.47.4-.02.01.01,0,.05-.07.04-.06.07-.19.07-.22.03.27-.11.62-.14.87.02.06-.04-.11-.02-.06.03.03.31.44.32.76.07.29-.09.88-.34,1.08-.23.23-.36.3-.31.27.09-.1.12-.32.05-.46-.15-.25-.16-.17-.06-.13.51.2,1.26.8.89,1.68-.42.7-.67.6-1.11.85-.03.02-.02.02,0-.02.06-.04.14-.19.15-.35.03-.2-.13-.43-.17-.45-.07-.06-.05-.04-.03-.03.05.03.18.07.31.12.3.1.63.19.93.5.17.12.34.66.3.78,0,.31-.09.57-.09.87.02.28-.11.62-.13.87.03.27-.2.8-.41.96-.19.17-.16.18-.1.06,0-.03.02-.05.02-.08,0,0,0-.1,0,.07.03.45-.58.99-.79,1.07-.04.03-.04.03-.02,0,.2-.19.08-.64-.11-.75.37.15.92.21,1.41.57.14.09.42.44.39.85-.03.42-.3.67-.43.77-.46.32-.66.29-1.08.44-.12.03-.24.08-.24.08-.02,0,.05,0,.14-.18.12-.16.05-.52-.04-.62-.19-.2-.09-.08,0-.07.68.24,1.67.35,1.68,1.37.07.48.22,1.13-.2,1.52-.41.41-.93.43-1.34.61,0,0,.04-.03.05-.05.07-.05.14-.25.13-.35,0,.01,0,.03,0,.04.18.24.38,1.11.02,1.57-.24.31-.21.3-.17.18,0,.46-.02,1.03.04,1.49,0,0,0,.27,0,.27.01.05-.03-.16-.07-.19-.1-.11-.03-.03.09.03.26.07.87.61.81,1.08.01.26-.08.59-.18.81,0,.01,0,.03-.01.07,0,.05,0-.01-.01-.07,0-.05-.04-.1-.06-.13-.1-.12-.05-.03.07.02.5.21,1.25.79.71,1.63-.5.58-1.02.47-1.45.69-.02,0-.02.02.05-.06.03-.04.06-.1.08-.2,0-.12,0-.06,0-.09,0-.08-.1-.13.02-.03.08.08.38.31.46.69.02.09.02.17.03.25,0-.02,0-.06-.02-.1-.03-.08-.07-.11-.06-.1.27.18.68.28.87.88.05.41.01.5-.1.82-.12.24-.1.18-.11.24,0,.05,0,.18,0,.21,0,.03.11.28.13.51,0,.12.02.17,0,.35-.02.15-.07.32-.16.46-.18.26-.33.35-.33.36,0-.01.01-.06,0-.03,0-.01-.05-.05.09.11.14.13.32.5.29.76.02.35-.28.7-.54.81-.18.1-.33.15-.44.2-.11.04-.18.12-.1.02.01-.03.02-.06.03-.1,0-.04,0,.1-.01.14-.02.13-.07.29-.14.4-.27.4-.24.2-.24.51.04.46.06,1.09-.15,1.45-.04.03.02.26-.07.01.15.08.67.21,1.08.47.1.09.26.22.3.47.03.22-.01.34-.09.5-.17.29-.37.37-.48.45-.12.08-.14.12-.12.07,0,0,0-.01,0,0,0,.07,0,.14-.03.21-.04.15-.12.29-.21.37-.2.19-.31.26-.36.3-.02-.03,0,.02.12.1.1.08.29.17.44.44.04.06.06.14.08.21,0,.05.01.19.01.15,0-.01-.02-.04-.01-.02.02.03.13.1.26.17.13.08.31.14.48.39.26.33,0,.91-.16,1.12-.03.06-.03.19-.02.22,0,.04.07.1.2.24.13.14.26.38.22.65-.04.23-.19.3-.27.36-.47.27-1.07.26-1.53.44-.06.02-.1.05-.12.06,0,.02.01-.03,0-.07.46.31,1.44.26,1.85.77.16.53-.5.66-.83.76-.26.08-.61.16-.59.35-.05.42-.47.51-.52.73-.11.25.17.41.42.55.12.08.27.17.33.34.05.16-.02.34-.15.43-.22.19-.59.25-.61.58h0Z"/><path class="cls-3" d="m183.49,135.14c.29-.31.28-.84.7-.84s.42,1.22.85,1.22.42-.41.85-.41.14-.01.43.29-.06.05-.06.49,1.2.44,1.2.89-1.57.44-1.57.89,1.18.44,1.18.89-1.09.44-1.09.89-.07.44-.07.89-.04.44-.04.89,1.72.44,1.72.89-.73.45-.73.89.83.45.83.89-.51.44-.51.89-1.41.44-1.41.89,1.94.44,1.94.89-1.87.44-1.87.89.46.45.46.89-.28.45-.28.89.87.45.87.89.68.44.68.89-.57.45-.57.89-.68.45-.68.89,1.37.45,1.37.89-.18.45-.18.89.04.45.04.89-.38.45-.38.89-1.03.44-1.03.89.4.44.4.89-.47.44-.47.89.16.45.16.89-.23.45-.23.89.83.45.83.89.52.45.52.89-1.48.45-1.48.89.93.45.93.89-.19.45-.19.89.85.45.85.9.06.45.06.9,0,.45,0,.9-.18.86-.49,1.19c-.29.31-.73.37-1.16.37s-.42-1.43-.85-1.43-.42.1-.85.1-1.22,1.61-1.51,1.3,1.28-1.08,1.28-1.52-1.58-.44-1.58-.89.71-.44.71-.89.48-.44.48-.89.12-.44.12-.89.09-.44.09-.89-1.36-.44-1.36-.89,1.04-.44,1.04-.89-.89-.45-.89-.89.57-.45.57-.89-.32-.44-.32-.89.14-.44.14-.89.65-.44.65-.89-.63-.44-.63-.89.28-.45.28-.89-.48-.45-.48-.89-.39-.45-.39-.89.15-.44.15-.89.68-.45.68-.89-.31-.45-.31-.89.38-.45.38-.89.24-.45.24-.89.07-.45.07-.89.3-.45.3-.89-.32-.44-.32-.89-1.12-.44-1.12-.89.8-.44.8-.89,0-.45,0-.89.49-.45.49-.89-1.22-.45-1.22-.89.94-.45.94-.89.1-.45.1-.89.53-.45.53-.89-1.05-.45-1.05-.89.4-.45.4-.9.2-.45.2-.9.43-.54.37-.99c-.05-.41-.86-.35-.55-.68Z"/><path class="cls-3" d="m194.1,143.95c.27-.3.26-.83.66-.83s.4,1.22.8,1.22.4-.41.81-.41.11-.02.38.28c.3.33-.05.06-.05.5s1.2.45,1.2.9-1.57.45-1.57.9,1.18.45,1.18.9-1.18.69-1.05,1.12c.2-.26,1.75-.21,1.95-.45s.42-.43.64-.66-.75-1.69-.51-1.9.99.1,1.24-.09.06-1.09.33-1.27.86.05,1.14-.1c.26-.14,1.13,1,1.4.88s-.16-2.03.12-2.13,1.09,1.61,1.38,1.54.43-.57.72-.62.57.2.87.17.53-.91.83-.91.66-.66.95-.64.56.64.85.69.42.77.7.85,1.02-1.11,1.29-1.01.54.43.8.57.6.29.85.45c.24.16.29.67.51.84s-.26,1.13-.06,1.33.66.1.84.32-.05.69.11.92.41.34.55.59.03.55.14.81c.12.27.99.26,1.09.58.09.29.67.49.74.82.06.3-1.33.87-1.28,1.2.05.3,1,.48,1.04.81.03.31-.12.64-.1.97.02.31.89.58.9.91.01.31.08.65.09.98,0,.31.02.65.02.98,0,.46-.37.46-.37.92s.23.46.23.92-1.43.46-1.43.92.1.46.1.92,1.59.46,1.59.92-1.54.46-1.54.92,1.58.46,1.58.92-.71.46-.71.92-.48.46-.48.92-.12.46-.12.92-.09.46-.09.92,1.36.46,1.36.92-1.04.46-1.04.93,1.01,1.08.7,1.43c-.26.3-.98-.3-1.38-.3s-.4.32-.8.32-.4-.14-.81-.14-.33-.25-.6-.55c-.3-.34-.57-.28-.57-.73s.28-.46.28-.91-.48-.46-.48-.92-.39-.46-.39-.92.15-.46.15-.92.68-.46.68-.92-.31-.46-.31-.92.38-.46.38-.92.24-.46.24-.92.07-.46.07-.92.3-.46.3-.92-.32-.46-.32-.92-1.12-.46-1.12-.92c0-.34.8-.66.79-.97,0-.34,0-.66-.01-.97,0-.34.47-.69.46-.99-.01-.35-1.25-.59-1.27-.89-.03-.36.88-.75.84-1.03-.05-.38,0-.73-.07-.98-.07-.3.35-.77.26-1.04-.09-.29-1.18-.2-1.3-.46-.13-.27.09-.71-.07-.95s-.2-.63-.39-.85-.21-.75-.44-.94-.95.28-1.21.14-.54-.16-.82-.26-.49-.32-.79-.38c-.28-.06-.51-.67-.82-.7-.28-.03-.63,1.36-.93,1.36-.32,0-.54,0-.85.04s-.64-.4-.95-.33-.88-.68-1.18-.57-.6.35-.88.49-.29.77-.56.95-.23.68-.48.89c-.25.21-1.24-.38-1.46-.16s.6,1.39.41,1.63-.51.33-.68.6-.21.53-.36.82-.64.36-.76.66-.62.47-.7.78c-.06.24-.15.53-.19.85-.04.26.38.59.34.9-.03.26-.99.47-1.01.77-.02.27.12.58.1.88-.01.27,1.42.61,1.41.91,0,.27-1.15.52-1.16.82,0,.28-.16.56-.16.86,0,.28.39.57.39.86,0,.46.71.46.71.92s-.66.46-.66.92-.09.46-.09.92.2.46.2.92.5.46.5.92-.25.46-.25.91-.07.46-.07.92-.47.46-.47.92-.67.46-.67.92,1.1.61.8.95c-.26.3-.44-.37-.84-.37s-.4-.12-.8-.12-.4.73-.81.73-1.1.53-1.37.24c-.3-.33.07-.95.07-1.4s.38-.45.38-.89.68-.45.68-.89.34-.45.34-.89-.81-.45-.81-.89-.89-.45-.89-.89,1.78-.45,1.78-.89-.83-.45-.83-.89-.99-.45-.99-.89.02-.45.02-.89,1.36-.45,1.36-.89-1.44-.45-1.44-.89-.02-.45-.02-.89,1.31-.45,1.31-.89-.44-.45-.44-.89.2-.45.2-.89-.06-.45-.06-.89-.61-.45-.61-.9-.31-.45-.31-.89.83-.45.83-.89.07-.45.07-.9,0-.45,0-.9-.37-.45-.37-.89.13-.45.13-.89.2-.45.2-.9.92-.45.92-.9.02-.56-.03-1.01c-.05-.41-1.07-.33-.77-.67Z"/><path class="cls-3" d="m232.83,134.22c.13.37.89.33.89.72s-1.22.39-1.22.79.41.39.41.79-.3.22-.44.59c-.25-.11.2-.45-.03-.54-.26-.09-.86.97-1.1.91-.27-.07-.2-1.66-.45-1.7-.27-.04-.67,1.11-.91,1.11-.29,0-.73-1.04-.97-.98-.28.06-.8.19-1.02.33-.42.25-1.06.98-1.17,1.31-.05.16,1.58.77,1.55,1.19-.02.25-.76.49-.77.83,0,.27.83.56.83.89,0,.42-.51.42-.51.84s-1.41.42-1.41.84,1.94.43,1.94.85-1.91,1.18-1.61,1.48,1.05-.21,1.49-.21.43.28.87.28.44-.87.87-.87.44-.68.87-.68.44.57.87.57.29.23.59.55c.32.34,1.26.19,1.26.66s-.18.46-.18.93.13,1.16-.18,1.5c-.3.32-1.04-.12-1.47-.12s-.43-1.03-.87-1.03-.44.4-.87.4-.44-.47-.87-.47-.44.16-.88.16-1.08-.33-1.39-.01.62.95.62,1.39.52.44.52.89-1.48.44-1.48.89.93.44.93.89-.19.44-.19.89.85.44.84.89.05.44.05.89,0,.44,0,.89-.37.44-.37.89.23.44.23.89-1.43.44-1.43.89.1.44.1.89,1.59.44,1.58.89-1.54.44-1.54.89,1.58.45,1.58.89-.71.44-.71.89-.48.44-.49.89-.12.45-.12.89-.09.45-.09.89,1.36.45,1.36.89-1.04.44-1.04.89.89.45.89.89-.57.45-.57.89.32.45.31.9.06.81-.24,1.15c-.27.3-.68-.52-1.08-.52s-.4.63-.8.63-.4-.28-.81-.28-.95.59-1.22.3c-.3-.33-.54-.82-.54-1.26s.15-.44.15-.89.68-.44.68-.89-.31-.44-.31-.89.38-.44.38-.89.24-.44.24-.89.07-.44.07-.89.3-.44.3-.89-.32-.44-.32-.89-1.12-.44-1.12-.89.8-.45.8-.89,0-.44,0-.89.49-.44.49-.89-1.22-.44-1.22-.89.94-.45.94-.89.1-.44.1-.89.53-.44.53-.89-1.05-.45-1.05-.89.4-.45.4-.89.2-.45.2-.89.38-.44.38-.89-.79-.45-.79-.89-.1-.45-.1-.89.16-.45.16-.9.74-.93.43-1.26c-.28-.3-.81,1.22-1.22,1.22s-.41,0-.82,0-.41-.49-.82-.49-.16-.41-.44-.72c-.31-.35.04-.12.04-.58s-.53-.46-.53-.93-.6-.93-.29-1.28c.27-.31.81.92,1.22.92s.41-1.39.82-1.39.41.2.82.2.01.48.28.16c.31-.37.26-.03.26-.51s.44-.49.44-.98.03-.49.03-.98-.45-.49-.45-.98c0-.35.95-.65.96-.95.01-.35-.12-.65-.09-.95.03-.36-1.35-.91-1.29-1.2.07-.37,1.27-.41,1.37-.66s.35-.38.52-.61.04-.67.26-.86c.21-.18.08-.96.33-1.11.28-.17.94.26,1.26.15.3-.1.65-.09.99-.14.32-.04.64-.27.99-.27.3,0,.69-.48,1.02-.45.3.03.62.33.95.39.3.06.62.19.95.27.3.07.34.59.66.68Z"/><path class="cls-3" d="m249.35,143.37c.3,0,.65-.89.94-.87s.5,1.26.79,1.3.64-.33.93-.27.46.58.75.66.57.06.85.15,1.01-.91,1.28-.79-.14,1.66.13,1.8,1.1-.74,1.35-.58-.12,1.22.12,1.39.39.38.62.58.38.38.6.59,1.66-.77,1.86-.54c.2.23-.14.95.05,1.19s1.06,0,1.23.25-.06.82.09,1.07-.94,1.19-.8,1.45,2.02-.28,2.14,0-1.52,1.23-1.43,1.51.61.39.69.69-.13.61-.08.9.96.44,1,.74.74.57.76.87-.55.65-.55.95-.68.59-.7.9,1.31.77,1.27,1.07-.28.64-.34.94-.11.67-.19.96-.55.52-.66.81-1.18.18-1.3.46.11.71-.03.98-.69.27-.85.54-.18.57-.36.82-.52.32-.72.56.24,1,.03,1.23c-.2.22-.06.81-.27,1s-1.4-.72-1.63-.54.12,1.08-.11,1.25-.58.17-.83.32-.12,1.04-.38,1.17-.56.32-.83.43-.59.24-.87.33-.7-.18-.98-.11-.55.36-.84.42-.77-1.32-1.07-1.29-.53.15-.82.17-.54,1.61-.84,1.61-.56-1.54-.84-1.56-.73,1.54-1.02,1.5-.52-.78-.8-.83-.48-.59-.76-.66-.51-.26-.79-.35-.5-.26-.77-.37-1.11,1-1.37.87-.05-1.2-.3-1.35-1,.43-1.24.26-.15-.82-.38-1-.67-.16-.89-.36-.34-.53-.54-.74c-.21-.23.07-.89-.12-1.12s-.89-.1-1.07-.34-.13-.67-.29-.93-.74-.31-.89-.58-.66-.42-.78-.7-.12-.68-.22-.97.44-.82.36-1.11-.45-.54-.52-.84.27-.68.23-.99.17-.62.15-.93.04-.6.04-.91.31-.57.33-.87-.28-.6-.24-.9-1.02-.79-.96-1.08.91-.44.98-.73.17-.58.26-.87.66-.38.77-.65-.85-1.07-.72-1.34,1.11-.09,1.27-.35.39-.44.56-.69.75-.14.94-.38-.43-1.13-.22-1.35c.2-.23.7-.17.92-.38s.56-.26.79-.45.67-.06.92-.24.03-.99.28-1.15.48-.4.74-.54.61-.13.89-.25.75.31,1.03.21.17-1.53.46-1.6.64-.15.94-.21.7.37,1.01.33.67.82.97.81.57-.35.87-.35Zm-.01,2.77c-.29,0-.52.91-.8.93s-.72-1.15-1-1.1-.5.52-.78.59-.73-.28-.99-.18-.54.33-.79.46.08,1.31-.16,1.46-1.36-.99-1.6-.81.28,1.28.06,1.47-1.18-.39-1.38-.18c-.21.21-.5.43-.69.65s-.44.5-.61.74,1.12,1.41.98,1.66-.91.14-1.03.41.56.8.46,1.08-.65.35-.72.64-1.51.31-1.56.61,1.85.8,1.82,1.1-1.9.51-1.9.81.47.63.5.92-.21.67-.16.96.97.42,1.04.7.79.32.89.6-.34.72-.22.99-.35.84-.2,1.1c.14.25,1.44-.24,1.6,0s.14.52.32.74.35.35.55.56.1.64.32.82-.18,1.18.05,1.35.72,0,.97.14c.25.14.32.71.58.82s.63.1.9.19.53.41.8.48.75-.68,1.03-.63.59-.44.88-.42.52,1.51.81,1.51.57-.94.85-.96.59.13.87.08.36-.93.64-1,.47-.19.74-.28.46-.18.72-.3.63.11.88-.04c.25-.14.33-.46.56-.63s1.34.79,1.55.6.41-.5.61-.7-.8-1.46-.62-1.68,1.57.47,1.74.23-1.05-1.3-.91-1.55c.15-.26.89-.16,1.01-.42s.68-.36.78-.63.31-.55.38-.83.23-.59.28-.88-1.26-.73-1.24-1.02,1.07-.51,1.07-.81-.9-.54-.92-.83.51-.62.47-.9-.41-.49-.48-.77,0-.57-.11-.85.39-.79.27-1.06-.82-.24-.97-.49-.06-.64-.23-.88-.71-.16-.9-.39-.63-.14-.84-.35-.26-.47-.47-.66.02-.88-.21-1.04-.62-.07-.86-.22-.29-.62-.55-.74-.43-.46-.7-.56-.54-.26-.82-.34-.52-.44-.81-.49-.64.23-.93.2-.59.02-.88.02Z"/></g></svg>