<?xml version="1.0" encoding="UTF-8"?><svg id="tryk_på_dårlig" xmlns="http://www.w3.org/2000/svg" width="200" height="200" viewBox="0 0 200 200"><defs><style>.cls-1{fill:#8fafdd;}.cls-1,.cls-2,.cls-3{stroke-width:0px;}.cls-2{fill:#1d71b8;}.cls-3{fill:#f9b03d;}</style></defs><path class="cls-1" d="m152.71,93.18c0-.24.16-.49.16-.73s-.4-.48-.41-.72-.06-.47-.08-.72.44-.52.41-.76.09-.51.05-.75-.67-.39-.72-.63.4-.57.35-.81-.51-.38-.57-.62-.03-.49-.1-.72-.12-.47-.2-.7-.01-.51-.09-.73-.07-.49-.16-.72-.32-.39-.42-.62.09-.58,0-.8-.41-.35-.52-.56-.45-.31-.57-.52-.01-.55-.14-.76-.26-.41-.39-.62-.26-.41-.4-.61-.3-.38-.45-.58-.09-.55-.24-.74-.47-.25-.63-.43-.42-.28-.58-.46-.36-.33-.53-.5-.1-.59-.27-.76-.53-.15-.71-.32-.6-.05-.78-.21-.23-.47-.42-.62-.34-.35-.53-.5-.32-.39-.52-.52-.39-.3-.59-.43-.57,0-.78-.12-.38-.31-.59-.43-.22-.62-.44-.73-.63.18-.85.07-.44-.19-.66-.29-.34-.45-.56-.54-.43-.25-.66-.33-.49-.1-.72-.17-.49-.02-.73-.08c-.03-.14.06-.39-.01-.7-.05-.2-.17-.42-.23-.67-.05-.21-.41-.36-.48-.6-.06-.21.27-.56.19-.8-.07-.22-.29-.4-.37-.63-.08-.22.09-.53,0-.76-.08-.21-.71-.22-.8-.45s-.21-.41-.31-.63.38-.69.28-.91-.37-.35-.48-.56-.2-.43-.31-.64-.38-.33-.5-.54-.39-.31-.52-.51-.15-.46-.28-.66-.25-.4-.39-.59-.21-.43-.36-.61-.23-.42-.38-.6-.5-.2-.65-.37-.17-.48-.34-.65-.28-.39-.45-.56-.59-.06-.77-.22-.38-.26-.57-.41-.36-.28-.55-.43-.33-.33-.52-.47-.06-.75-.26-.88-.56-.01-.76-.14-.33-.38-.54-.5-.57.06-.78-.05c-.21-.11-.47-.12-.69-.22s-.23-.68-.45-.77-.49-.09-.72-.17-.59.23-.81.16-.45-.13-.68-.2-.33-.63-.57-.69-.51.04-.74,0-.55.34-.78.3-.45-.16-.69-.19-.48.07-.72.04-.45-.4-.69-.41-.48.05-.72.04-.48.08-.72.08-.47.05-.71.07-.51-.4-.75-.38-.44.49-.67.52-.46.13-.7.16-.51-.17-.74-.13-.5-.07-.74-.02-.48.08-.71.13-.42.3-.65.36-.47.12-.69.19-.44.2-.67.27-.44.19-.67.27-.36.37-.59.46-.45.14-.67.24-.47.1-.69.21-.55-.03-.76.08-.25.55-.46.67-.59-.08-.8.04-.4.26-.61.39-.19.59-.39.72-.42.22-.62.36-.56.04-.75.18-.24.46-.43.61-.3.38-.49.53-.78-.18-.97-.02-.01.7-.19.86-.3.37-.47.54-.32.35-.49.52-.48.21-.64.38-.26.41-.41.59-.36.32-.52.51-.39.25-.54.44c-.17-.07-.34-.15-.61-.25-.2-.07-.53.17-.77.09-.21-.07-.33-.47-.57-.54-.22-.06-.48,0-.72-.07-.22-.06-.41-.27-.65-.33-.22-.05-.44-.18-.68-.23-.23-.05-.48.02-.72-.03s-.52.27-.76.24-.41-.43-.65-.46-.47-.05-.71-.07-.48.15-.72.13-.45-.37-.69-.38-.47-.06-.71-.06-.47.46-.7.46-.47-.04-.7-.02-.48-.11-.72-.09-.43.4-.66.43-.56-.58-.8-.54-.42.37-.65.42-.43.22-.66.28-.51-.08-.74-.01-.36.42-.59.49-.45.11-.68.2-.43.18-.65.27-.45.13-.67.23-.44.18-.65.28c-.21.11-.63-.14-.84-.03s-.13.73-.33.86-.54.04-.74.17-.32.38-.51.52-.67-.08-.86.07-.29.42-.47.58-.26.44-.44.6-.57.11-.74.28-.33.36-.5.54-.06.6-.22.78-.2.46-.35.64-.56.16-.71.35-.2.45-.34.65-.44.28-.58.48.08.62-.05.83-.15.46-.27.67-.62.19-.74.41.05.57-.06.78-.53.27-.63.49.1.57,0,.79-.15.45-.24.67-.48.33-.56.55-.3.41-.37.64.2.57.13.8-.54.35-.6.58-.15.47-.2.7.34.57.29.81.08.5.04.74-.3.43-.34.67.1.5.07.73-.08.47-.11.71-.07.47-.09.71-.15.46-.17.7.14.48.13.72-.08.47-.08.71,0,.47.01.71-.52.49-.51.74.34.47.35.71-.09.49-.07.73.1.48.12.71.1.47.13.71.33.43.37.67-.01.49.03.72-.33.56-.28.79.2.45.25.69.43.39.49.63.26.62.33.85c-.22.1-.55.37-.77.48s-.52.04-.72.16-.39.27-.59.39-.62-.08-.82.05-.23.51-.43.65-.61-.01-.8.13-.06.7-.25.85-.58.05-.76.2-.23.46-.41.62-.53.14-.7.3-.1.58-.26.75-.62.08-.78.26-.15.51-.3.69,0,.61-.14.8-.4.29-.54.48-.32.36-.45.55-.38.32-.5.52-.53.24-.65.45-.09.51-.2.72-.11.48-.22.7-.16.45-.26.67-.5.31-.59.53.08.55,0,.77-.14.46-.22.68-.27.41-.34.64-.13.46-.19.69.03.5-.03.73-.49.38-.54.62.01.5-.03.73.47.55.44.79-.25.44-.27.68-.52.44-.53.68,0,.49,0,.73.06.49.06.72.17.48.18.72.41.45.43.69-.33.5-.3.74-.13.5-.1.74.31.44.35.67.2.44.25.68-.27.56-.21.79c.06.23.28.43.35.66s.29.42.37.64.05.49.14.72.03.51.12.74.22.44.32.66.46.31.57.53.16.46.28.67.43.3.56.51.2.43.33.63.16.46.3.66.02.58.16.78.7.07.85.26.03.6.18.78.24.44.4.62.63.06.8.23.05.64.22.8.67-.02.85.14.11.61.29.76.38.29.57.44.58.02.77.17.12.67.32.8.47.18.67.3.43.22.64.34.6-.09.81.03.33.39.55.49.39.29.61.39.48.09.71.18.29.58.51.67.63-.33.86-.25.45.15.68.22.4.34.63.41.47.11.7.16.44.25.68.29.53-.23.77-.19.4.58.64.61.53-.35.77-.33.47.1.71.12.47.14.71.15.48-.24.72-.24.49.43.73.42.49.04.73.03.44-.51.68-.54.53.42.77.39.42-.28.66-.32c.13.2.09.48.23.68s.48.24.63.44.09.54.24.73.43.27.58.46.48.22.63.41.44.24.6.42-.1.74.07.91.73-.04.9.13-.1.78.07.95.55.12.72.28.44.22.62.38.25.44.43.6.41.25.6.4.24.47.43.62.31.39.5.54.72-.18.91-.04.38.28.58.41.15.66.35.78.51.09.72.21.41.24.62.36.46.15.67.27.55-.04.77.07.23.62.44.72.38.34.59.44.53-.02.75.07.34.44.57.53.5.05.72.13.56-.16.79-.09.39.36.62.42.56-.25.79-.18.34.59.57.64.45.21.68.26.51-.1.75-.05.53-.28.77-.24.42.41.66.44.46.21.7.23.5-.26.74-.24.47.13.71.15.47.22.71.23.48-.34.72-.34.47-.03.71-.03.47-.03.71-.04.49.13.72.11.5.16.74.13.46-.16.7-.2.45-.24.68-.28.54.28.78.24c.24-.05.41-.39.65-.45s.47-.13.7-.19.52.06.75,0,.33-.55.56-.62.65.39.87.31.33-.49.56-.58.41-.28.63-.37.4-.28.62-.38.42-.22.64-.33.47-.14.68-.25.39-.28.6-.4.56,0,.76-.12.32-.4.52-.53.47-.16.67-.3.41-.26.6-.4.53-.09.73-.24.23-.5.42-.65.56-.09.74-.24.03-.7.21-.86.32-.35.5-.52.72.06.89-.11.34-.35.51-.52.23-.45.4-.63.38-.31.54-.5.44-.26.6-.45.11-.54.26-.73.15-.49.3-.69.2-.44.35-.64.63-.15.76-.35.18-.46.32-.66.22-.43.35-.64.01-.55.13-.76.46-.29.58-.5.23-.42.35-.64.5-.29.6-.51-.23-.65-.13-.87.12-.47.21-.69.45-.33.55-.55.42-.36.51-.58.09-.49.17-.72.13-.47.2-.7-.14-.55-.07-.78.35-.4.42-.63.01-.5.07-.73.08-.47.14-.71-.12-.51-.07-.75.55-.39.59-.62.15-.47.19-.71-.45-.55-.42-.79.5-.43.52-.67-.14-.5-.12-.74.35-.46.37-.7-.4-.5-.4-.75.48-.47.48-.72-.14-.49-.14-.73-.26-.48-.27-.72.2-.49.19-.73.14-.5.12-.74-.35-.47-.37-.71c.24-.03.47-.18.71-.21s.52.2.76.15.51.07.75.02.4-.43.63-.49.39-.4.62-.46.52.08.75,0,.38-.37.61-.45.68.44.91.35.2-.78.42-.87.58.11.79,0,.34-.39.56-.5.55.01.76-.11.39-.29.6-.41.29-.45.49-.58.65.1.85-.03.21-.55.4-.69.42-.25.61-.4.32-.36.51-.52.57-.08.75-.24.42-.27.59-.44.38-.32.55-.49-.05-.72.11-.9.45-.24.61-.42.17-.48.32-.67.59-.15.73-.35.26-.41.4-.61.24-.43.37-.63.48-.28.6-.48.19-.46.31-.67.11-.49.23-.71.15-.46.26-.68.4-.35.5-.57.2-.45.29-.67.14-.47.23-.7.16-.46.23-.69-.34-.6-.27-.84.4-.39.46-.62.25-.44.3-.68.16-.47.2-.7-.1-.51-.06-.75.02-.48.04-.72.26-.46.28-.71-.13-.49-.12-.74Z"/><path class="cls-1" d="m150.6,68.96c.18-.19.64-.17.78-.37.15-.21-.2-.73-.08-.95.12-.23.31-.39.4-.62.1-.24.11-.48.18-.72.07-.26.39-.44.43-.68.05-.26.25-.51.27-.74.02-.28-.24-.55-.24-.77,0-.35-.02-.7-.03-.84.25.06.56-.04.8,0s.47.24.72.26.51.36.76.35.47-.46.72-.49.46-.17.7-.23.5,0,.74-.08.5-.08.72-.19.37-.35.58-.48.67.07.86-.08.03-.71.2-.89.34-.32.49-.53c.14-.19.68-.12.79-.31.12-.21.27-.43.36-.63.09-.22.15-.48.22-.69.07-.23-.41-.58-.37-.8.04-.25.69-.4.7-.61.02-.27-.3-.53-.3-.71.16-.15.53-.09.71-.25.16-.15-.02-.7.16-.85.17-.15.51-.11.69-.26s.3-.35.49-.5.57,0,.76-.15.35-.28.54-.42.12-.62.32-.75.6.08.8-.05.12-.68.32-.8.48-.09.68-.21.58.1.79,0,.23-.56.44-.67c.22-.11.44-.24.66-.34s.51-.08.74-.17.52-.05.74-.14.34-.49.57-.57.61.23.84.15.3-.67.54-.74.47-.18.71-.25.54.08.78.02.46-.23.7-.28.55.2.79.16.43-.42.67-.46c.25-.04.51-.03.74-.07.25-.04.56.42.79.39.25-.03.46-.34.7-.37.25-.02.48-.27.72-.29.26-.02.59.21.82.2-.22-.04-.56.09-.8.05-.22-.04-.46-.03-.7-.06-.23-.03-.43-.26-.67-.29-.23-.03-.46-.05-.7-.07-.23-.02-.47.17-.71.15s-.45-.26-.69-.27-.47.18-.71.18-.46-.04-.7-.04-.46.04-.7.05-.45.14-.69.15-.49-.36-.73-.34-.44.37-.67.39-.47-.03-.71,0-.52-.36-.76-.33-.49,0-.72.04-.41.4-.64.45c-.24.05-.52-.1-.75-.04s-.5.04-.73.1-.38.47-.61.53-.51-.02-.74.06-.43.24-.66.32-.38.37-.61.45-.53-.04-.75.04-.34.44-.56.53-.45.16-.67.26-.42.23-.63.34c-.22.11-.45.18-.66.28-.22.11-.63-.16-.84-.05-.22.12-.3.59-.5.71-.18-.02-.49-.33-.8-.34-.22,0-.48-.24-.75-.23-.23,0-.5.03-.76.05-.24.02-.42.63-.68.66-.24.03-.52-.23-.77-.18-.24.04-.41.38-.66.44-.24.06-.46.11-.71.18s-.46.13-.7.22-.65-.31-.88-.21-.49.16-.71.27-.34.44-.56.57-.51.13-.72.27c-.2.13-.4.27-.58.4s-.47.18-.64.32-.35.34-.52.49-.2.48-.37.64-.25.41-.4.58-.59.12-.73.29c-.15.18-.04.58-.17.76-.14.19-.44.27-.57.46-.13.2-.34.36-.46.55-.13.21.15.63.04.83-.12.22-.33.36-.42.56-.11.23-.44.35-.52.54-.11.26.07.8,0,.96-.22-.07-.55-.27-.78-.31s-.42-.47-.65-.48-.5.06-.72.07-.47.14-.7.18-.34.49-.55.56-.46.01-.66.12-.52.04-.7.18-.37.31-.51.48c-.17.2-.47.34-.58.56s-.07.55-.13.79.15.52.13.77-.26.5-.24.75.08.51.14.75.05.52.14.76.26.45.37.67.41.35.54.56.42.29.58.48c.16.2.33.33.51.5.17.16.15.52.35.66s.52.02.73.13.21.68.43.76.46.21.69.27.5.07.73.1.49.07.73.08.49-.08.73-.09.47-.18.7-.21.49,0,.72-.06.42-.25.65-.32.35-.37.57-.46.49-.04.7-.15.31-.36.5-.5.49-.12.67-.27.31-.35.47-.53Z"/><path class="cls-1" d="m63.51,90.84c.03-.22-.11-.49-.1-.74,0-.23-.06-.47-.07-.71-.01-.23-.46-.42-.49-.66s.3-.51.26-.74-.44-.38-.49-.62.03-.48-.03-.71.11-.53.03-.75-.04-.5-.13-.72-.64-.23-.74-.43.22-.67.1-.87-.31-.39-.45-.57-.43-.27-.59-.44-.52-.11-.7-.25c-.19-.15-.3-.32-.49-.43-.21-.11-.28-.53-.49-.59-.22-.07-.51.3-.73.29s-.4-.06-.62-.01-.45-.02-.66.08-.59-.03-.77.12c-.17.14-.14.57-.29.76-.11-.15-.27-.4-.45-.63-.14-.17-.35-.31-.52-.51-.15-.17-.43-.24-.6-.44-.15-.17-.12-.53-.3-.71-.16-.17-.42-.25-.6-.43-.17-.17-.5-.17-.68-.33s0-.71-.2-.87-.33-.38-.52-.53-.44-.24-.63-.39-.53-.09-.73-.23-.38-.3-.59-.43-.56,0-.77-.11-.4-.25-.62-.35-.24-.67-.47-.76c-.24-.1-.47-.26-.7-.34-.25-.08-.65.39-.88.34-.25-.06-.45-.29-.69-.33-.26-.04-.48-.42-.72-.44-.26-.02-.53.49-.76.49-.26,0-.56-.5-.79-.47-.26.03-.44.52-.67.58-.26.06-.57-.11-.79-.03-.26.1-.49.23-.68.33-.28.14-.45.49-.59.59-.22-.08-.48-.24-.73-.31-.23-.07-.49-.05-.73-.11s-.37-.53-.62-.59-.5-.04-.75-.08-.54.21-.78.17-.45-.3-.7-.32-.5.07-.75.05-.49.08-.74.07-.49-.35-.74-.34-.51-.07-.76-.05-.46.5-.71.52c-.25.03-.56-.4-.8-.36s-.47.28-.7.33-.55-.1-.78-.03-.47.21-.7.29-.28.69-.51.77-.67-.31-.89-.21-.21.71-.42.82c-.23.12-.45.2-.65.32-.22.13-.56.04-.76.17-.21.14-.61.02-.8.16-.21.15-.23.54-.41.69-.2.17-.37.35-.54.5.2-.08.48.02.72-.06.21-.07.31-.54.54-.61.21-.06.48-.01.71-.07.22-.05.5.16.74.12.22-.04.41-.41.64-.44.22-.03.47-.04.71-.06.23-.02.47-.06.71-.07s.47.03.71.03.47.02.71.04.41.54.65.56.47-.1.71-.06.52-.28.75-.24.4.34.64.4.4.3.63.36c.24.07.58-.22.82-.15s.42.33.65.41.43.27.66.36.42.28.65.37.7-.35.93-.25.37.41.59.52.42.29.64.41.41.3.62.42.31.46.52.58.61-.04.81.09c.22.14.57.16.78.3.08.18-.21.69-.08.95.1.2.22.43.36.67.12.2.48.28.62.5.13.2.28.4.43.61s.11.55.27.75.44.29.62.47.25.48.44.64c.19.16.57.09.76.23.2.15.34.39.55.51.22.12.48.16.7.25.23.1.48.1.71.16.24.06.44.42.68.44s.54.08.78.06.49-.24.73-.3.27-.58.49-.69.6.1.8-.05.33-.37.5-.55c.05.13.15.36.28.64.08.18-.08.52.03.75.09.19.43.29.54.5.1.19.42.28.54.48.11.19-.21.66-.08.86s.41.28.55.48.55.15.7.34.02.58.17.76.61.06.77.22.15.5.32.65.32.34.51.47c.2.15.46.18.66.3.21.13.44.18.65.28.23.1.39.33.61.4.24.08.48.09.71.13.24.04.47.22.71.23s.51.05.75.02.42-.35.64-.43.6.1.8-.02.47-.26.65-.43.04-.61.18-.81c.13-.19.47-.28.57-.51.09-.21.37-.41.44-.65.06-.22.11-.51.14-.76Z"/><path class="cls-1" d="m157.57,127.95c-.06-.17-.13-.48-.24-.76-.08-.21-.06-.48-.17-.73-.1-.21.07-.58-.05-.81-.11-.21-.36-.37-.49-.6-.12-.21-.44-.3-.59-.51-.13-.2-.3-.38-.45-.59-.15-.19-.31-.37-.48-.57s-.45-.25-.62-.43.07-.76-.12-.94-.35-.38-.54-.55-.74.12-.94-.03-.2-.57-.41-.72c-.2-.13-.31-.41-.5-.53s-.5-.09-.7-.2-.6.16-.81.07-.37-.3-.58-.39-.36-.38-.57-.45-.41-.27-.63-.34c-.23-.07-.43-.25-.65-.3-.23-.06-.5.05-.72,0-.24-.04-.51.2-.73.17-.24-.03-.46-.09-.68-.11-.25-.02-.47-.05-.69-.06-.26,0-.49-.13-.7-.13-.28,0-.69.2-.86.21-.03-.23,0-.6-.05-.82s-.31-.37-.38-.58.07-.51-.03-.71-.4-.28-.52-.47-.16-.42-.31-.59-.35-.26-.52-.4-.22-.46-.42-.57-.39-.27-.61-.33c-.25-.07-.5-.24-.74-.25s-.52.11-.77.15-.42.32-.66.4-.36.32-.58.44-.77-.27-.97-.12-.03.74-.21.91-.32.35-.48.54-.54.21-.68.41-.51.3-.63.52c-.12.23.19.65.11.88-.08.22-.39.37-.44.6s.23.5.21.74-.44.46-.43.7-.09.51-.05.74.71.33.77.56.1.43.19.65-.17.58-.07.79.42.3.55.5.29.35.43.54.32.32.48.49.09.55.27.71.46.18.65.32.41.2.61.33.35.31.56.41.33.44.56.51c.25.09.56-.05.8,0,.25.05.48.27.73.29.26.02.51-.42.76-.43.26,0,.53.33.77.3.26-.04.52-.07.76-.12.26-.06.54-.04.77-.11.27-.09.33-.62.53-.71.32-.14.91-.22,1.04-.29.04.25-.35.78-.29,1.01s.65.32.73.55-.12.58-.02.81.06.55.19.76.25.46.4.66.57.2.73.38.15.57.33.74.69-.07.89.07.2.6.42.72.4.39.63.47.57-.12.82-.06c.23.06.43.36.65.38.24.03.49-.34.72-.34.24,0,.51.41.73.39.24-.03.38-.59.59-.64.25-.06.57.26.77.19.26-.09.43-.28.59-.35.2.08.43.11.65.21.2.09.39.23.61.33.2.1.31.4.52.5s.42.16.63.27.45.12.66.23.3.39.5.51.36.26.56.39.6-.09.8.04.18.55.37.69.33.32.51.46.69-.14.87,0,.28.39.46.54c.19.16.35.36.53.52s.56.13.74.29-.06.78.11.95.75-.05.92.13.03.65.19.83.32.37.48.56.67.09.82.28.19.49.34.68-.05.65.09.85.56.21.69.41.17.48.3.68c.14.21.43.32.55.53.13.22.4.35.52.55.13.22-.23.7-.12.91.12.23.8.15.9.36.12.23-.1.48,0,.69-.05-.22-.11-.31-.17-.55-.06-.22.11-.51.04-.74-.06-.22-.15-.44-.22-.68-.07-.22-.41-.35-.49-.58s-.32-.38-.4-.6.35-.63.27-.85-.6-.26-.69-.49,0-.51-.09-.73-.12-.46-.23-.68-.04-.51-.14-.72-.2-.43-.31-.64-.4-.32-.51-.53-.48-.26-.6-.47-.25-.39-.38-.59.05-.59-.08-.79-.48-.24-.62-.44c-.14-.2-.22-.44-.36-.63s-.31-.37-.46-.56-.27-.4-.42-.59-.43-.27-.59-.45.07-.71-.09-.89-.5-.21-.67-.38-.3-.39-.47-.56-.58-.11-.75-.27-.23-.46-.41-.62-.14-.59-.31-.74c-.19-.16-.66.02-.84-.13-.19-.16-.09-.67-.28-.81-.2-.15-.74.07-.92-.07Z"/><path class="cls-2" d="m60.19,104.34c-.02.06.09.36,0,.75-.05.19-.5.33-.56.59-.05.21,0,.47-.06.72-.04.22-.32.42-.36.66-.03.22-.03.47-.06.72-.03.23.03.48.01.72-.02.23-.12.46-.14.71s.55.5.54.74-.16.46-.16.7-.06.47-.05.71-.41.49-.39.73.11.47.14.71.33.44.36.68-.25.51-.21.75.6.37.64.61-.32.55-.27.78.07.48.13.71.31.4.38.63-.03.51.05.74.35.38.44.6.08.48.17.7.42.33.52.54-.14.6-.03.81.39.33.51.53.36.33.49.53.26.39.4.59-.06.63.09.82.4.3.55.49.26.41.42.59c.16.18.6.11.77.28s.28.4.44.57.31.37.49.53.48.18.66.34.37.29.56.44.2.53.39.67.58,0,.78.14.27.47.47.59.51.08.72.19.28.5.49.61.58-.1.8,0,.46.11.68.21.35.41.57.5.4.3.63.38.52-.04.75.03.49.02.72.08.4.38.63.43.5-.06.73,0,.44.29.67.33.46.23.69.26.48.11.72.13c.25.02.5-.04.73-.03.25.02.5-.32.74-.31.25,0,.48.46.71.46.25,0,.49-.42.72-.43.26,0,.49-.03.71-.04.27-.02.53.28.74.26.38-.04.61-.23.69-.24-.21-.07-.38-.32-.62-.41-.21-.08-.56.14-.8.04-.21-.09-.33-.43-.57-.53-.22-.09-.53.03-.76-.07-.21-.1-.5-.08-.72-.18-.21-.1-.26-.57-.48-.68s-.48-.12-.7-.23-.51-.07-.73-.19-.42-.24-.63-.37-.29-.45-.5-.58-.34-.36-.54-.5-.49-.13-.69-.26-.44-.21-.64-.35-.43-.22-.63-.37-.28-.43-.47-.58-.55-.08-.74-.24-.24-.46-.43-.62-.28-.41-.47-.57-.4-.27-.58-.44-.21-.47-.39-.64-.67,0-.84-.18-.46-.23-.63-.41.14-.79-.03-.97-.63-.09-.79-.27-.49-.23-.65-.42-.04-.6-.19-.79c-.15-.19-.49-.24-.63-.43s0-.6-.14-.8-.29-.38-.43-.58-.35-.35-.48-.55-.56-.22-.69-.43.13-.65.01-.86-.11-.49-.23-.7-.26-.4-.37-.62-.33-.37-.44-.58-.29-.39-.4-.61,0-.54-.09-.75-.48-.32-.57-.53-.05-.5-.14-.73-.27-.42-.35-.64.01-.52-.07-.75-.6-.31-.67-.54.35-.62.28-.84-.48-.36-.54-.59c-.07-.24.09-.53.03-.76-.06-.24-.13-.47-.19-.7-.06-.24-.57-.38-.62-.6-.05-.25-.02-.5-.06-.73-.05-.25.14-.54.11-.75Z"/><path class="cls-2" d="m85.37,131.73c.1.16.42.25.56.46.11.17.2.37.34.56.14.19.33.33.48.52s.05.56.2.74.47.22.63.4-.1.72.06.9.37.32.54.49.54.14.71.31.2.48.38.65.36.32.54.48.66-.04.84.11.06.69.24.83.64-.06.83.09.15.61.34.74.63-.08.83.05.37.29.57.42.45.17.65.29.15.69.35.81.57-.04.78.07.45.15.67.26.25.59.46.69.63-.25.85-.15.44.17.66.26.4.28.62.36.37.38.6.45.43.23.66.3.59-.35.82-.29.31.7.54.76.57-.38.81-.33.42.3.66.35.51-.18.74-.15.47.04.7.06.43.56.67.58.48.13.72.14.49-.15.73-.15.47-.44.71-.44.5.45.74.43.46-.21.7-.24.51.21.75.17c.24-.04.47-.11.71-.15s.45-.22.68-.28.36-.5.59-.56.55.2.77.13.41-.27.64-.35.5-.02.72-.1.31-.49.53-.58.59.16.81.06.28-.5.5-.61.5-.06.71-.17.56.02.77-.1.43-.23.63-.36.11-.69.31-.82.63.06.82-.08.09-.66.28-.81.67.07.85-.08.33-.35.51-.51.32-.36.49-.52.31-.37.48-.53.15-.51.32-.68.57-.12.73-.3.43-.26.59-.44.26-.41.41-.6,0-.6.15-.79.65-.11.79-.31.23-.43.36-.63-.18-.68-.06-.89.36-.33.49-.53.13-.47.25-.67.66-.18.77-.39.23-.42.34-.63.13-.47.23-.68-.05-.54.04-.76.6-.27.69-.49-.2-.59-.12-.81.06-.48.14-.7.24-.42.31-.64.23-.43.29-.66-.17-.53-.11-.76.21-.43.26-.67.22-.44.27-.67.26-.44.3-.67.05-.48.08-.71,0-.48.02-.72-.08-.49-.06-.72.41-.45.43-.68-.32-.5-.31-.73-.08-.48-.08-.71.19-.67.19-.91c-.03.24.24.71.21.95s-.53.41-.57.65.33.55.29.79-.51.39-.56.62-.25.43-.31.66.42.61.36.84-.61.32-.69.55-.18.44-.26.67.27.61.19.83-.46.34-.55.56-.23.42-.33.64-.06.5-.17.71-.34.36-.45.58.26.68.14.89-.24.43-.36.64-.23.44-.35.64-.69.14-.82.34-.36.33-.5.53-.29.37-.43.57-.24.41-.39.6-.09.54-.24.73-.16.5-.32.68-.33.36-.49.53-.4.29-.57.46-.44.25-.61.41-.52.14-.7.3-.15.55-.33.71-.3.4-.49.55-.38.3-.57.44-.47.18-.66.32-.26.48-.45.61-.37.32-.58.45-.54.05-.75.17-.54.02-.75.14-.32.4-.54.51-.35.38-.57.48-.39.31-.61.41-.42.27-.64.36-.68-.42-.91-.34-.34.46-.57.54-.55-.14-.78-.07-.41.3-.64.37-.37.52-.61.57-.6-.48-.83-.44c-.24.05-.44.21-.68.25s-.42.43-.66.46-.52-.3-.76-.27-.48-.03-.72-.01-.48-.03-.72-.02-.47.4-.71.41-.49.11-.73.11-.49.06-.73.05-.48-.21-.72-.23-.44-.43-.68-.45-.55.46-.79.43-.47-.15-.71-.19-.39-.52-.63-.57-.56.31-.8.26-.37-.48-.61-.54-.6.33-.83.26-.33-.56-.56-.64-.58.19-.81.11-.36-.42-.58-.51-.37-.36-.59-.45-.66.3-.88.19-.28-.54-.49-.65-.44-.19-.65-.31-.46-.17-.67-.29-.51-.09-.72-.21-.26-.5-.46-.63-.52-.1-.72-.23-.36-.33-.56-.47-.44-.22-.63-.37-.16-.57-.35-.72-.69.06-.87-.1-.21-.49-.39-.66-.26-.43-.43-.6-.53-.15-.7-.33-.16-.52-.32-.7-.39-.33-.55-.51Z"/><path class="cls-3" d="m183.44,49.57c-.29,0-.58-.17-.82-.03s-.34.43-.48.67-.42.46-.42.75.16.59.3.82.36.46.61.6.53-.02.82-.02.56.12.8-.02.66-.22.8-.46-.19-.63-.19-.93.15-.59.02-.83-.54-.15-.78-.29-.35-.27-.65-.27Z"/><path class="cls-3" d="m21.86,80.38c-.2.09-.36.45-.45.68-.08.19.18.47.18.71,0,.21-.09.42-.03.65.05.21.18.38.28.59.1.21.29.32.42.49.14.19.25.33.41.46.19.16.24.45.44.51.23.07.33-.22.53-.31s.63.07.72-.15c.08-.19-.21-.48-.21-.72,0-.21-.08-.38-.14-.61-.05-.21-.14-.36-.24-.57-.1-.21-.03-.48-.16-.65-.14-.19-.09-.58-.25-.71-.19-.16-.52-.13-.71-.19-.23-.07-.58-.27-.78-.18Z"/><path class="cls-3" d="m133,103.81c-.26-.23-.65.22-.91,0s-.13-.39-.39-.61-.17-.33-.44-.56-.31-.17-.58-.4-.39-.08-.66-.31.11-.67-.15-.9-.6.16-.86-.07-.2-.3-.47-.53-.14-.38-.4-.61-.18-.33-.44-.56-.48.02-.74-.21-.11-.41-.38-.64-.24-.25-.51-.48-.23-.28-.49-.5-.43-.03-.7-.26-.35-.13-.62-.36.02-.57-.24-.8-.69.26-.96.03.1-.67-.16-.9-.41-.07-.68-.3c-.17-.14-.41-.22-.54-.4s-.36-.34-.44-.54.15-.5.12-.72-.1-.42-.08-.63c.04-.35.34-.31.38-.66s-.57-.41-.53-.76.39-.31.43-.65-.22-.37-.19-.72.15-.34.19-.68.14-.34.17-.69-.08-.36-.04-.71.2-.33.23-.68-.2-.37-.16-.72-.13-.37-.09-.72.31-.32.35-.67.34-.32.38-.67-.4-.4-.36-.75.34-.32.38-.67-.35-.39-.31-.74.62-.29.66-.64-.19-.38-.16-.73.26-.33.3-.68-.57-.42-.53-.77.06-.35.09-.7c.03-.26.33-.49.29-.72-.04-.25.08-.6-.03-.82s-.29-.5-.45-.68-.68.02-.89-.12-.3-.49-.54-.56-.5-.38-.75-.39-.55.18-.8.25c-.23.07-.58.08-.8.22-.3.18-.29.2-.58.38s-.05.59-.35.77-.47-.09-.76.09-.34.11-.64.29-.34.11-.64.29-.17.39-.47.57-.11.49-.41.68-.54-.21-.84-.03-.13.47-.42.65-.22.31-.52.49-.42-.01-.72.17-.44-.05-.74.13-.03.62-.33.8-.35.09-.65.28-.53-.19-.83,0-.19.37-.49.55-.42,0-.72.18-.21.33-.51.52-.21.33-.52.52-.37.08-.67.26c-.19.11-.43.05-.64.12s-.35.59-.57.6-.42-.51-.64-.55-.46.1-.66,0c-.32-.14-.28-.23-.6-.37s-.39.02-.71-.12-.31-.16-.63-.3-.38,0-.7-.15-.13-.57-.45-.72-.34-.09-.66-.24-.38-.02-.7-.16-.31-.16-.63-.3-.44.12-.76-.03-.18-.45-.5-.6-.41.06-.73-.08-.19-.43-.51-.57-.33-.12-.65-.27-.48.22-.8.07-.15-.52-.47-.67-.4.03-.72-.12-.32-.14-.65-.28-.31-.16-.64-.31-.36-.06-.68-.21-.41.05-.73-.1c-.24-.11-.38-.35-.62-.39-.25-.04-.47.08-.71.11s-.65-.37-.87-.27-.12.77-.31.92-.81-.07-.95.14.25.69.17.93-.47.39-.48.65c0,.24.16.48.22.73.08.34-.22.41-.14.75s.23.3.31.64.36.27.44.61-.23.41-.15.75.15.33.23.67.33.28.41.62-.41.46-.33.8.66.2.74.54-.52.48-.44.82.25.3.33.64-.06.37.03.72.09.34.18.68.09.34.17.68.32.29.4.63.15.33.23.67.16.32.24.66-.21.41-.13.76.1.34.18.68.32.29.4.63-.04.37.04.72c.05.21.41.42.41.64s-.06.5-.12.71-.21.45-.31.64-.36.31-.51.48c-.23.26-.39.12-.62.37s-.1.38-.34.63-.03.44-.27.7-.58-.06-.82.2.02.49-.22.75-.61-.07-.84.19.16.62-.07.88-.2.29-.43.55-.66-.12-.9.14.17.63-.06.89-.62-.08-.85.18.21.66-.03.92-.56-.04-.8.22-.2.29-.43.55.06.53-.18.79-.62-.08-.85.18-.06.42-.3.69-.06.43-.3.69-.5.03-.74.29.03.51-.2.77c-.18.19-.66.14-.77.36-.11.23.08.56.04.8s-.16.47-.14.72.09.48.18.71.12.51.27.71.55.12.75.27.28.42.52.51c.23.08.45.21.71.23.35.03.35.04.69.07s.37-.28.72-.25.3.55.65.58.36-.15.71-.12.35-.02.7.01.38-.32.73-.3.33.21.68.24.33.22.68.25.37-.23.72-.2.34.12.69.15.33.26.68.29.37-.27.72-.24.35.09.7.11.32.37.67.4.37-.22.72-.2.35.03.7.05.33.35.68.38.39-.5.75-.47.33.26.69.29.37-.13.72-.1c.22.02.34.45.55.52s.35.15.53.26.62-.09.78.07.02.53.13.72c.17.3.09.35.26.65s.31.22.48.52.4.17.58.47.15.31.33.62.25.26.43.56-.28.57-.11.87.47.13.65.44.07.37.24.67.37.19.54.5.22.28.39.59.27.25.45.55-.21.52-.03.83.23.28.4.58.03.39.21.69.21.28.39.59.08.36.25.67.22.28.39.59.38.19.56.49.39.19.56.49.05.38.22.69c.13.23.29.39.47.55.18.18.25.52.46.64s.55-.02.79.03.47.14.72.12.6.27.84.19.42-.4.63-.55.42-.32.58-.52c.15-.19.2-.48.3-.72.13-.32-.13-.43,0-.75s.06-.35.19-.67.4-.21.53-.53-.04-.4.09-.72.26-.27.4-.59.33-.24.47-.57-.2-.46-.07-.79.67-.1.8-.42-.25-.48-.11-.81.29-.26.43-.58.28-.27.41-.59-.03-.39.1-.72-.05-.4.09-.73.26-.27.4-.6.32-.25.46-.57.12-.33.26-.65.22-.29.36-.61.06-.36.19-.69.06-.36.2-.68.33-.25.47-.57c.08-.2-.28-.65-.16-.82s.39-.28.56-.42.34-.33.54-.43.45-.13.66-.17c.34-.07.39.17.73.1s.34-.09.68-.17.25-.49.59-.56.35-.03.69-.1.36.01.7-.06.37.05.71-.02.35-.03.69-.1.39.14.73.07.28-.37.62-.44.33-.15.67-.22.43.32.77.25.26-.45.61-.52.44.36.78.29.34-.1.68-.18.36,0,.7-.07.33-.11.68-.19.31-.26.65-.34.34-.09.69-.17.3-.31.64-.38.44.37.79.3c.26-.05.4-.48.62-.59.23-.12.42-.26.59-.43s.52-.25.64-.46-.19-.6-.13-.84.5-.43.49-.68-.17-.5-.24-.74-.44-.29-.58-.5c-.13-.2.12-.75-.08-.92Z"/><path class="cls-3" d="m168.34,147.69c-.27.12-.12.77-.28.99s-.44.32-.47.6.17.43.28.7.06.58.28.74.49.2.77.23.62.28.89.16c.27-.12.48-.43.65-.65s-.1-.58-.06-.86.38-.56.27-.83c-.12-.27-.38-.46-.6-.62s-.47-.48-.75-.51-.7-.07-.97.05Z"/><path class="cls-2" d="m98.59,118.89c-.19.15-.48.15-.67.29s-.3.41-.5.55-.57-.01-.78.11-.21.6-.42.72-.49.11-.71.21-.46.17-.68.26-.43.23-.66.31-.39.36-.62.43-.59-.27-.82-.21-.43.25-.67.3-.49-.01-.73.03-.44.27-.68.3-.46.33-.7.35-.5-.32-.74-.31-.49.25-.73.24-.47-.34-.71-.36-.47-.11-.7-.15-.44-.2-.68-.25-.48.02-.72-.04-.58.28-.81.21-.47-.15-.7-.23-.37-.39-.59-.49-.5-.08-.72-.19-.25-.54-.46-.67c-.21-.12-.61.08-.81-.05s-.17-.59-.36-.73-.73.14-.91-.02-.29-.42-.46-.58-.38-.32-.54-.5-.1-.56-.26-.74-.23-.42-.37-.62-.61-.16-.75-.36.09-.63-.03-.83-.16-.45-.27-.66-.73-.17-.83-.39-.02-.52-.11-.75-.23-.43-.31-.66.15-.55.08-.78-.2-.44-.26-.67-.45-.39-.5-.63-.12-.48-.15-.72.05-.5.03-.74.07-.49.06-.73.28-.48.28-.72-.23-.47-.22-.72-.23-.5-.21-.74.26-.46.29-.7.39-.42.44-.66-.18-.52-.13-.75.19-.44.25-.68,0-.5.07-.73-.1-.55-.02-.77.17-.46.26-.68.15-.47.25-.69.56-.3.68-.52c-.2-.14-.26-.51-.45-.66s-.53-.1-.72-.26-.35-.33-.52-.5-.38-.31-.54-.49-.31-.37-.46-.56-.21-.45-.35-.64-.31-.37-.44-.58-.11-.48-.23-.7-.44-.32-.54-.53-.42-.36-.51-.58.18-.58.1-.81-.46-.38-.52-.61-.16-.48-.21-.71.37-.55.34-.79.01-.47,0-.72-.57-.47-.57-.72.21-.49.23-.73-.03-.5,0-.74.45-.41.5-.65c.05-.24-.04-.5.03-.73s-.05-.52.03-.75.54-.3.64-.53-.15-.6-.04-.81.33-.38.45-.58.39-.32.52-.52.14-.49.29-.68.35-.33.51-.52.3-.38.46-.55.12-.59.3-.75.55-.11.74-.26.33-.37.53-.51.63.1.84-.03.12-.76.33-.87.69.31.91.21.39-.27.62-.36.3-.58.53-.66.53.06.76,0,.51.12.75.07.45-.15.69-.18.43-.54.67-.56.62.44.86.43c.1-.21.12-.58.23-.78s.4-.29.53-.49-.17-.7-.03-.88.67-.06.82-.23.39-.24.56-.4.34-.29.52-.43.32-.32.51-.45.36-.27.56-.39.33-.36.54-.46.43-.15.65-.23.4-.27.63-.33.45-.16.68-.2.5.29.73.26.43-.51.67-.51.48-.02.72,0c.23.02.48.08.7.12s.5-.04.73.02.47.13.69.21.39.33.6.43.25.53.45.65.44.13.64.26.45.16.63.3.6.02.78.18.03.64.19.81.65.06.8.25-.15.69-.02.88.48.24.59.44.47.3.56.51-.12.56-.03.78-.03.49.03.72.5.35.55.58-.03.42,0,.65c.24-.04.41-.11.65-.13s.49-.14.72-.14.48.37.71.38.45.16.69.2.48-.06.71-.01.56-.26.79-.19.51.04.74.12.36.42.58.52.27.51.48.63.45.15.65.28.5.11.69.26.51.15.69.3.23.46.4.63.48.23.63.41.25.43.39.63.06.54.18.74.47.28.58.5.32.4.41.62-.04.54.03.77-.11.52-.05.75c.06.23.49.38.53.62s-.29.52-.27.76-.02.46-.01.7.02.46,0,.7.12.48.09.72.21.52.16.76-.39.4-.45.63.18.56.09.79-.27.42-.37.64-.28.4-.4.61-.43.3-.56.5.12.67-.02.86-.29.41-.44.59-.7,0-.87.18-.09.61-.27.76-.39.29-.58.44-.59-.03-.8.1-.3.42-.51.53-.51.02-.73.11-.32.39-.55.47c.17.18.48.21.63.4s.12.54.26.74.52.26.65.46-.15.66-.03.87.12.47.22.7.65.25.74.48-.24.61-.16.84.26.43.32.66.36.42.41.66.27.47.29.71-.25.53-.24.77.23.5.23.74,0,.51-.02.75,0,.51-.05.75-.2.48-.26.72-.25.45-.32.68-.48.34-.57.57.35.68.24.91-.37.38-.49.59c-.12.21-.14.5-.27.7s-.58.18-.73.36-.1.55-.26.73-.52.16-.7.32-.32.36-.51.51-.39.28-.58.42-.3.44-.5.56-.57-.02-.78.09c-.22.11-.43.2-.65.3-.23.1-.44.18-.66.26-.24.09-.31.66-.52.72-.25.08-.55-.09-.77-.03-.26.07-.49.2-.69.24-.35.07-.59,0-.7,0Z"/></svg>