<?xml version="1.0" encoding="UTF-8"?><svg id="tryk_på_god" xmlns="http://www.w3.org/2000/svg" width="200" height="200" viewBox="0 0 200 200"><defs><style>.cls-1{fill:#f9b03d;stroke-width:0px;}</style></defs><path class="cls-1" d="m79.63,155.01c.29-.34.67-.02.96-.37s-.06-.64.24-.98.93.2,1.22-.14.13-.48.42-.82.2-.42.5-.76.31-.32.61-.66-.11-.68.19-1.02.86.14,1.16-.2.05-.56.34-.9-.04-.63.26-.97.25-.38.55-.72.97.24,1.26-.11-.43-.97-.14-1.31.78.07,1.08-.27.35-.3.64-.64-.2-.77.1-1.11.94.21,1.24-.13-.23-.79.07-1.13.51-.16.8-.5.3-.34.6-.69.05-.56.34-.91.76.05,1.06-.3-.24-.81.06-1.16c.21-.25.5-.55.76-.74s.72-.18,1.02-.29.69,0,1.01-.04.67-.4.99-.36c.45.05.36.85.81.9s.47-.17.92-.12.48-.23.93-.18.46-.08.91-.03.4.51.85.56.44.13.89.18.53-.69.98-.64.37.75.82.8.44.13.89.17.48-.29.93-.25.45.07.89.12.43.24.88.28.47-.12.92-.07.47-.14.92-.1.4.52.85.56.54-.8.99-.76.36.93.81.98.53-.75.98-.7.39.6.84.65.48-.27.94-.22.49-.33.94-.28.4.55.85.6.45.03.91.08c.31.03.65.43.94.4.3-.03.43-.86.7-.96s.88.43,1.12.28.31-.64.52-.85.27-.54.42-.79.08-.57.18-.85.21-.49.25-.79.56-.58.53-.88-.23-.6-.33-.88c-.09-.27-.14-.62-.3-.88-.24-.39-.76-.06-1-.45s.38-.76.14-1.14-.55-.19-.79-.58-.14-.44-.38-.83-.46-.25-.69-.64.13-.61-.1-.99-.59-.17-.82-.55,0-.53-.23-.92-.4-.29-.64-.67.09-.59-.14-.97-.7-.1-.94-.48-.19-.41-.42-.8-.02-.52-.26-.91-.1-.47-.33-.86-.72-.09-.95-.48.03-.55-.2-.94-.56-.19-.79-.58.14-.61-.1-1-.56-.18-.8-.57-.06-.49-.3-.88.03-.55-.21-.94-.8-.05-1.04-.43.52-.85.28-1.24c-.17-.28-.98-.26-1.07-.57s.03-.72,0-1.04-.03-.69.02-1.01.41-.56.54-.86c.18-.41.28-.37.46-.78s-.05-.52.14-.93.4-.32.58-.73.29-.36.48-.78-.04-.51.15-.92.15-.43.34-.84.35-.34.53-.75.05-.47.23-.88-.1-.54.08-.95.24-.39.42-.8,0-.49.18-.9.94-.07,1.13-.48-.04-.51.14-.93.42-.31.61-.72-.14-.56.04-.97.25-.39.43-.8.33-.35.51-.76-.26-.61-.08-1.03.34-.34.52-.76.5-.27.69-.69-.22-.6-.04-1.01-.13-.56.06-.97.25-.39.44-.8c.13-.28.51-.41.57-.7.06-.3.45-.59.45-.88s-.36-.58-.43-.87-.45-.42-.59-.69.04-.7-.15-.93-.7-.07-.94-.25-.08-1-.35-1.13-.71.16-1.01.09-.57.22-.87.23c-.29,0-.67-.66-.97-.59-.44.1-.35.49-.79.59s-.54-.33-.98-.23-.26.86-.7.97-.49-.1-.93,0-.36.42-.8.53-.55-.35-.99-.25-.52-.21-.95-.11-.33.55-.77.66-.5-.15-.94-.05-.5-.14-.93-.03-.3.67-.74.78-.43.14-.87.24-.57-.45-1.01-.34-.31.66-.75.76-.55-.37-.99-.26-.44.09-.88.2-.37.38-.81.49-.47-.04-.91.07-.44.1-.88.2-.47,0-.91.1-.5-.13-.94-.02-.3.7-.75.8-.42.19-.87.29c-.32.08-.69-.4-1.01-.4s-.65.28-.96.2-.39-.63-.67-.78-.99.32-1.23.1c-.34-.3.05-.73-.28-1.04s-.43-.2-.76-.5-.51-.11-.85-.41-.43-.19-.76-.49.04-.71-.29-1.01-.61,0-.94-.3-.07-.59-.41-.89-.58-.03-.92-.33-.31-.33-.65-.63-.14-.51-.48-.82-.28-.36-.62-.66-.7.1-1.04-.2-.26-.39-.59-.7-.2-.45-.54-.75-.49-.14-.82-.44-.37-.27-.7-.58.01-.69-.32-1-.4-.23-.74-.54-.66.05-.99-.25.16-.86-.17-1.17-.6-.01-.94-.32-.6-.02-.94-.33-.42-.22-.76-.52c-.23-.21-.3-.48-.55-.62-.26-.15-.3-.84-.58-.92s-.66-.12-.96-.14-.58.55-.87.6-.57.03-.84.13-.61.09-.86.25-.43.41-.63.63-.62.3-.77.56.41.79.32,1.08c-.08.27-.19.46-.22.77-.04.45-.45.42-.49.87s.23.47.19.92-.18.44-.21.89.28.48.25.93-.29.43-.33.88-.43.42-.47.87.55.5.51.95.04.46,0,.91-.22.44-.26.89-.64.4-.68.85.7.51.66.96-.06.45-.09.9-.37.42-.41.88-.54.41-.58.86.28.48.25.93-.19.44-.22.89-.11.45-.15.9.17.47.13.92.41.49.38.94-.09.45-.13.9-.63.41-.67.86.68.51.65.97-.29.43-.32.89c-.03.33.05.71-.05,1.01s-.31.62-.48.9-.67.28-.91.5-.55.21-.83.37c-.39.23-.39.23-.78.45s-.26.46-.65.68-.28.43-.67.65-.45.12-.84.35-.29.4-.68.62-.42.17-.81.4-.41.18-.8.41-.66-.24-1.05-.02-.03.86-.42,1.08-.29.39-.68.62-.86-.59-1.25-.37-.03.85-.42,1.08-.74-.38-1.13-.15-.09.75-.48.97-.29.4-.68.63-.6-.13-.99.09-.37.27-.76.49-.28.41-.68.64-.24.49-.63.71-.61-.16-1.01.07-.25.48-.64.71-.65-.21-1.04.01-.54-.02-.93.21c-.27.15-.04.98-.26,1.17-.23.2-.87.02-1.04.26s-.02.69-.13.96-.55.49-.6.78.7.61.72.9-.58.67-.5.96.82.27.96.53-.15.77.05.99.3.59.55.77c.24.16.64.1.92.22.42.17.42.18.83.35s.51-.05.93.12.45.1.87.27.16.8.57.97.4.21.82.38.71-.52,1.13-.35.16.79.58.97.56-.16.97.01.4.22.82.39.56-.18.98,0,.21.68.62.85.3.46.71.63.58-.22,1-.05.61-.28,1.02-.11.35.34.77.51.13.87.55,1.04.7-.51,1.12-.33.14.84.56,1.01.52-.08.94.09.36.33.77.5.71-.52,1.13-.34.38.28.8.46.18.76.6.93c.3.13.72-.04.98.15s.16.7.36.95.94.13,1.08.42.48.6.55.92c.09.44.01.46.11.9s-.12.49-.02.93-.21.51-.12.95.39.38.48.82-.23.51-.14.95-.18.5-.08.94.89.27.98.72-.36.54-.26.98.34.39.44.83-.12.49-.03.93.06.45.15.89.3.4.4.84-.1.49-.01.93.66.32.75.77-.06.47.04.92-.07.48.02.92.27.41.36.85.12.44.21.88-.62.59-.53,1.03.63.33.72.78-.28.52-.18.97-.02.47.08.92.02.46.11.91c.06.3.52.51.63.77.13.28.58.31.75.54s.34.38.57.57.15.81.41.95.73-.33,1.02-.26.47.74.77.75.68.17.97.11.42-.73.69-.85.56-.14.8-.33c.23-.17.19-.58.39-.81Z"/><path class="cls-1" d="m116.75,78.2c-.03-.35-.15-.34-.17-.69s-.09-.34-.11-.69.1-.36.08-.71-.09-.35-.12-.7.12-.36.1-.71-.02-.35-.05-.7-.04-.35-.06-.7-.29-.33-.31-.68-.1-.35-.12-.7.05-.36.03-.71.14-.36.11-.72-.17-.34-.19-.69.16-.37.13-.72.04-.36.01-.71c-.02-.21-.11-.37-.06-.56s-.15-.53-.04-.7.32-.34.48-.47c.27-.22.27-.23.54-.45s.25-.24.53-.46.31-.17.59-.39.39-.07.67-.29.1-.43.38-.65.29-.2.57-.42.41-.05.68-.28.23-.28.5-.5.45,0,.73-.22.24-.26.51-.48.19-.33.46-.55.31-.18.59-.4.34-.14.62-.37.29-.2.57-.43c.19-.16.13-.56.24-.75.12-.21.23-.39.27-.62s.25-.51.2-.74-.41-.35-.54-.55-.23-.4-.43-.53c-.18-.13-.35-.41-.59-.47-.34-.08-.37.02-.71-.06s-.35-.04-.69-.13-.32-.19-.66-.27-.33-.13-.67-.21-.34-.07-.69-.16-.35-.03-.7-.12-.39.1-.73.02-.32-.17-.66-.25-.32-.18-.66-.26-.35-.04-.69-.13-.38.09-.73,0-.28-.34-.63-.42-.42.23-.77.15-.31-.25-.65-.33c-.2-.05-.28-.3-.45-.41s-.31-.17-.44-.33-.27-.26-.35-.46c-.13-.33-.15-.32-.27-.65s.01-.38-.11-.71-.4-.22-.53-.55.03-.39-.1-.72-.07-.35-.2-.68-.37-.23-.5-.56.08-.41-.05-.74-.07-.35-.19-.68-.28-.27-.41-.6-.2-.3-.33-.63-.19-.31-.32-.63.19-.45.06-.78-.46-.2-.58-.54.19-.45.06-.78c-.09-.23-.34-.4-.49-.57-.16-.18-.37-.32-.57-.42s-.46-.14-.69-.16-.41.2-.64.27-.47-.01-.66.13c-.18.14-.47.21-.6.42-.18.3.09.47-.09.77s-.49.11-.67.41.05.44-.13.74-.08.36-.26.67-.23.27-.41.57-.25.26-.43.56-.43.15-.62.45-.11.34-.29.64-.09.36-.27.66-.35.2-.54.5-.01.41-.2.71-.39.18-.57.48.04.44-.15.74-.04.39-.22.7c-.11.18-.36.3-.51.43s-.32.35-.51.43-.47-.19-.68-.18c-.35.02-.35.02-.7.03s-.34.24-.69.26-.35,0-.7.01-.36-.11-.71-.09-.35.08-.7.1-.35-.02-.7,0-.36-.08-.71-.06-.36-.1-.71-.08-.33.42-.68.43-.36-.14-.71-.13-.36-.09-.71-.08-.34.26-.69.28-.37-.24-.72-.22-.35.05-.71.07c-.25.01-.52.07-.72.16-.22.1-.25.45-.41.62s-.3.3-.39.52-.04.4-.05.64-.37.51-.29.74c.07.21.33.39.49.57.23.27.3.21.53.47s.35.17.57.43.13.35.36.61.1.38.33.64.13.35.36.62.31.2.54.47.21.28.44.54.28.22.51.49.19.3.42.57.24.25.47.52.36.16.59.43.16.33.39.6.29.22.52.49.13.36.36.63c.13.16.16.34.23.53s.06.35.07.55.05.35,0,.55c-.09.34.15.4.06.74s0,.36-.09.7-.28.29-.37.63-.2.31-.3.65-.04.35-.13.69-.2.31-.29.65.05.38-.04.72.15.41.06.75-.38.26-.47.6-.01.36-.1.7.08.39-.01.73-.36.27-.45.61.09.39,0,.73,0,.37-.08.71c-.06.24-.43.44-.41.66.03.24.27.44.38.64s.33.3.51.45.25.48.47.56.49.12.73.11c.22,0,.54.07.77-.02.32-.13.23-.37.55-.5s.36-.04.69-.17.33-.11.66-.25.25-.32.57-.46.28-.25.6-.38.49.25.81.12.3-.19.63-.33.24-.34.57-.47.39.03.72-.1.28-.24.61-.37.33-.13.65-.27.42.1.75-.04.21-.41.54-.55.41.06.74-.07c.19-.08.32-.42.53-.43s.36.39.56.44.41-.05.59.07c.29.19.34.12.63.31s.22.3.52.49.37.07.67.26.31.17.61.36.36.1.65.29.3.19.59.38.2.35.49.54.35.11.64.3.32.15.62.35.33.13.63.32.1.49.4.69.44-.02.74.17.15.42.45.62.28.23.57.42c.21.14.5.21.72.26.23.05.47-.3.7-.34s.37-.12.57-.24.54-.04.69-.23.24-.42.3-.65c.06-.21.21-.47.19-.71Z"/><path class="cls-1" d="m133.18,98.22c.28-.21.4-.05.68-.26s.16-.38.44-.58.36-.11.64-.32.23-.28.51-.48.26-.23.55-.44.35-.12.63-.33.25-.26.53-.47.25-.26.53-.47c.29-.21.69-.13,1.02-.02.33.11.39-.06.73.05s.34.1.67.22.31.18.64.3.35.07.68.19.32.15.65.27.35.05.69.17.28.28.61.4.31.19.65.3c.28.1.62,0,.86-.09.25-.11.52-.32.63-.57.1-.23.01-.55-.08-.83-.11-.33.02-.38-.09-.71s-.15-.32-.26-.65-.29-.27-.4-.61.02-.38-.09-.71-.19-.31-.3-.64-.04-.36-.15-.69-.22-.3-.33-.64-.05-.36-.17-.69c-.11-.34.06-.63.28-.92.21-.28,0-.44.21-.72s.33-.19.54-.47.31-.21.52-.49.15-.32.36-.6.26-.25.47-.53.2-.29.41-.57.1-.37.31-.65.29-.22.51-.51c.18-.23.09-.53.06-.78-.03-.27-.14-.43-.34-.61-.19-.17-.35-.31-.65-.31-.35,0-.35-.18-.71-.18s-.35.04-.7.04-.35.08-.7.09-.35.11-.7.11-.35-.03-.71-.03-.35-.16-.71-.16-.35.07-.71.08-.35.08-.71.08c-.36,0-.69-.22-.89-.51-.2-.29-.32-.21-.52-.5s-.14-.33-.34-.62-.23-.27-.43-.56-.06-.39-.26-.68-.36-.18-.56-.47-.02-.42-.22-.71-.32-.21-.52-.5-.25-.26-.45-.55c-.17-.24-.33-.5-.58-.55-.26-.06-.53.11-.77.24-.22.13-.44.28-.53.56-.11.34-.19.31-.3.64s-.06.35-.17.68-.14.32-.25.66-.14.32-.24.66-.04.36-.14.69-.03.36-.14.7-.05.35-.16.69-.14.33-.24.67c-.11.34-.42.57-.76.67-.34.1-.36.03-.69.14s-.27.33-.6.43-.34.09-.67.2-.38-.05-.72.05-.36.04-.69.14-.31.21-.64.31-.36.05-.69.15-.33.15-.66.25c-.28.09-.55.24-.67.46-.14.23-.08.54-.03.8.05.25.23.39.47.56.29.2.28.21.57.42s.16.38.44.58.34.13.63.33.26.24.55.44.26.25.54.45.31.17.6.37.28.21.57.42.4.05.69.26c.29.21.39.64.39.99,0,.35.01.35,0,.7s-.12.35-.13.7.14.35.13.7.08.35.07.7-.13.35-.14.7-.12.35-.12.7.18.36.18.71-.21.35-.21.7c0,.29.15.62.32.8.18.2.52.15.79.18.25.03.46.02.7-.16Z"/></svg>