<?xml version="1.0" encoding="UTF-8"?><svg id="uuid-31cb0f4f-9338-41a0-8146-242db973383a" xmlns="http://www.w3.org/2000/svg" width="420" height="250" viewBox="0 0 420 250"><defs><style>.uuid-61f02b76-7cd8-408f-b238-6519526218eb{fill:#feef61;}.uuid-61f02b76-7cd8-408f-b238-6519526218eb,.uuid-9de34bd5-b186-43a6-b01c-0e30a955e517,.uuid-245a214f-bf1a-4130-a062-3200ae6e1c33,.uuid-98f47e46-faed-4c15-92e8-0bd096743b66,.uuid-a8c9dfc1-1a05-4994-bddb-d95486f8647d,.uuid-463ad1f1-0bed-41c1-81c8-95efee025b05,.uuid-4ab45060-57c3-49bc-9f55-0b37bb35d100,.uuid-54e83ce3-1ada-4bea-92a4-71edec9a5d18,.uuid-1434acc7-2cbe-45ef-b08a-188207b32432{stroke-width:0px;}.uuid-9de34bd5-b186-43a6-b01c-0e30a955e517{fill:#8fafdd;}.uuid-245a214f-bf1a-4130-a062-3200ae6e1c33{fill:#fbc349;}.uuid-98f47e46-faed-4c15-92e8-0bd096743b66{fill:#ec6535;}.uuid-a8c9dfc1-1a05-4994-bddb-d95486f8647d{fill:#f9b03d;}.uuid-463ad1f1-0bed-41c1-81c8-95efee025b05{fill:#c9152a;}.uuid-4ab45060-57c3-49bc-9f55-0b37bb35d100{opacity:.33;}.uuid-4ab45060-57c3-49bc-9f55-0b37bb35d100,.uuid-54e83ce3-1ada-4bea-92a4-71edec9a5d18{fill:#0d71b9;}.uuid-1434acc7-2cbe-45ef-b08a-188207b32432{fill:#f39323;}</style></defs><path class="uuid-98f47e46-faed-4c15-92e8-0bd096743b66" d="m157.52,178.2c6.05,10.08,8.89,14.83,8.89,14.83,0,0,0,0,0,0,0,0,0,0,0,0,27.44,15.3,42.46,14.92,42.46,14.92,16.62-.43,30.46-9.13,39.64-14.9,0,0,0,0,0,0,2.96-4.94,5.93-9.88,8.89-14.83-33.3,0-66.6-.01-99.9-.02Z"/><path class="uuid-1434acc7-2cbe-45ef-b08a-188207b32432" d="m133.13,160.54c9.01,9.36,13.24,13.76,13.24,13.76,0,0,0,0,0,0,0,0,0,0,0,0,40.88,14.2,63.25,13.84,63.25,13.84,24.76-.39,45.38-8.47,59.05-13.83,0,0,.01,0,.01,0,4.41-4.59,8.83-9.17,13.24-13.76-49.6,0-99.21-.01-148.81-.02Z"/><path class="uuid-a8c9dfc1-1a05-4994-bddb-d95486f8647d" d="m100.66,147.52c12.75,8.06,18.74,11.85,18.74,11.85,0,0,0,0,.01,0,0,0,.01,0,.01,0,57.84,12.23,89.5,11.92,89.5,11.92,35.04-.34,64.21-7.29,83.56-11.9,0,0,.02,0,.02,0,6.25-3.95,12.49-7.9,18.74-11.85-70.19,0-140.39,0-210.58-.01Z"/><path class="uuid-463ad1f1-0bed-41c1-81c8-95efee025b05" d="m359.09,121.8c-9.23-4.64-17.66-5.01-21.78-4.92-2.42-2.79-7.44-7.82-15.46-11.01-6.35-2.52-12-2.87-15.46-2.81-16.74-35.99-51.62-60-90.49-62.11-42.82-2.33-83.43,22.27-102.12,62.07-3.46-.06-9.11.29-15.46,2.81-8.02,3.19-13.04,8.22-15.46,11.01-4.12-.09-12.56.28-21.78,4.92-9.36,4.7-14.72,11.38-17.1,14.76,43.09,10.73,100.97,20.71,169.57,20.38,65.4-.32,120.79-9.92,162.63-20.33-2.38-3.38-7.74-10.05-17.1-14.76Z"/><path class="uuid-54e83ce3-1ada-4bea-92a4-71edec9a5d18" d="m337.21,116.96c-2.42-2.79-7.44-7.82-15.46-11.01-6.35-2.52-12-2.87-15.46-2.81-22.82,6.98-56.11,14.45-96.72,14.39-40.21-.06-73.19-7.48-95.89-14.44-3.46-.06-9.11.29-15.46,2.81-8.02,3.19-13.04,8.22-15.46,11.01,33.44,7.3,76.07,13.6,125.64,13.74,50.99.14,94.74-6.26,128.81-13.69Z"/><path class="uuid-9de34bd5-b186-43a6-b01c-0e30a955e517" d="m306.36,102.91c-16.74-35.99-51.62-60-90.49-62.11-42.82-2.33-83.43,22.27-102.12,62.07,22.53,7.02,55.52,14.6,95.82,14.67,40.78.07,74.13-7.57,96.8-14.63Z"/><path class="uuid-245a214f-bf1a-4130-a062-3200ae6e1c33" d="m66.87,133.79c2.72,4.76,10.2,5.32,15.22,3.32,5.05-2.02,10.05-7.61,8.75-12.89-1.45-5.88-10.19-9.17-16.64-6.52-6.33,2.59-10.32,10.84-7.33,16.09Z"/><path class="uuid-61f02b76-7cd8-408f-b238-6519526218eb" d="m70.17,126.34c1.23,3.07,7,4.05,10.5,1.69,2.34-1.58,4.18-4.99,3-7.5-1.39-2.94-6.36-3.42-9.56-1.69-2.74,1.48-4.95,4.98-3.94,7.5Z"/><path class="uuid-1434acc7-2cbe-45ef-b08a-188207b32432" d="m66.87,133.79c.35.56.93,1.35,1.8,2.11,3.77,3.24,9.61,2.74,13.41,1.21,3.87-1.55,8.43-5.27,8.9-10.21.1-1.11-.02-2.04-.15-2.67-.18.74-2.01,7.89-9.23,10.92-7.55,3.17-14.2-1-14.74-1.36Z"/><path class="uuid-245a214f-bf1a-4130-a062-3200ae6e1c33" d="m354.78,133.85c-2.72,4.76-10.2,5.32-15.22,3.32-5.05-2.02-10.05-7.61-8.75-12.89,1.45-5.88,10.19-9.17,16.64-6.52,6.33,2.59,10.32,10.84,7.33,16.09Z"/><path class="uuid-61f02b76-7cd8-408f-b238-6519526218eb" d="m351.48,126.4c-1.23,3.07-7,4.05-10.5,1.69-2.34-1.58-4.18-4.99-3-7.5,1.39-2.94,6.36-3.42,9.56-1.69,2.74,1.48,4.95,4.98,3.94,7.5Z"/><path class="uuid-1434acc7-2cbe-45ef-b08a-188207b32432" d="m354.78,133.85c-.35.56-.93,1.35-1.8,2.11-3.77,3.24-9.61,2.74-13.41,1.21-3.87-1.55-8.43-5.27-8.9-10.21-.1-1.11.02-2.04.15-2.67.18.74,2.01,7.89,9.23,10.92,7.55,3.17,14.2-1,14.74-1.36Z"/><path class="uuid-245a214f-bf1a-4130-a062-3200ae6e1c33" d="m270.73,143.55c-1.28,5.33-8.31,7.96-13.69,7.44-5.41-.53-11.78-4.5-12-9.93-.25-6.05,7.23-11.64,14.16-10.9,6.8.73,12.94,7.53,11.53,13.4Z"/><path class="uuid-61f02b76-7cd8-408f-b238-6519526218eb" d="m265.48,137.32c-.33,3.29-5.59,5.84-9.61,4.55-2.69-.86-5.41-3.63-4.97-6.37.51-3.21,5.16-5.05,8.71-4.29,3.04.66,6.14,3.4,5.87,6.1Z"/><path class="uuid-1434acc7-2cbe-45ef-b08a-188207b32432" d="m270.73,143.55c-.18.64-.51,1.56-1.14,2.53-2.72,4.16-8.46,5.31-12.54,4.91-4.15-.41-9.57-2.71-11.39-7.33-.41-1.04-.55-1.97-.6-2.61.37.66,4.13,7.02,11.91,7.92,8.13.94,13.35-4.92,13.78-5.42Z"/><path class="uuid-245a214f-bf1a-4130-a062-3200ae6e1c33" d="m143.38,143.13c1.28,5.33,8.31,7.96,13.69,7.44,5.41-.53,11.78-4.5,12-9.93.25-6.05-7.23-11.64-14.16-10.9-6.8.73-12.94,7.53-11.53,13.4Z"/><path class="uuid-61f02b76-7cd8-408f-b238-6519526218eb" d="m148.63,136.9c.33,3.29,5.59,5.84,9.61,4.55,2.69-.86,5.41-3.63,4.97-6.37-.51-3.21-5.16-5.05-8.71-4.29-3.04.66-6.14,3.4-5.87,6.1Z"/><path class="uuid-1434acc7-2cbe-45ef-b08a-188207b32432" d="m143.38,143.13c.18.64.51,1.56,1.14,2.53,2.72,4.16,8.46,5.31,12.54,4.91,4.15-.41,9.57-2.71,11.39-7.33.41-1.04.55-1.97.6-2.61-.37.66-4.13,7.02-11.91,7.92-8.13.94-13.35-4.92-13.78-5.42Z"/><path class="uuid-54e83ce3-1ada-4bea-92a4-71edec9a5d18" d="m284.52,71.63c-6.42-6.36-29.8-27.95-66.52-30.68-6.58-.49-32.51-1.78-59.96,13.82-27.78,15.79-40.27,39.31-44.38,48.01,7.61-8.98,32.63-36.19,75.53-45.44,48.2-10.39,85.84,9.03,95.33,14.29Z"/><path class="uuid-4ab45060-57c3-49bc-9f55-0b37bb35d100" d="m121.5,101.84c59.1.31,118.2.62,177.3.94-22.97,6.07-54.94,11.95-93.22,11.24-34.06-.63-62.71-6.29-84.08-12.18Z"/></svg>