<?xml version="1.0" encoding="UTF-8"?><svg id="gode" xmlns="http://www.w3.org/2000/svg" width="180" height="280" viewBox="0 0 180 280"><defs><style>.cls-1{fill:#8fafdd;}.cls-1,.cls-2,.cls-3,.cls-4,.cls-5,.cls-6{stroke-width:0px;}.cls-2{fill:#f9b03d;}.cls-3{fill:none;}.cls-7{fill:#f39323;stroke:#f39323;stroke-miterlimit:10;stroke-width:1.14px;}.cls-4{fill:#c9152a;}.cls-5{fill:#0d71b9;}.cls-6{fill:#30358c;}</style></defs><path class="cls-3" d="m50.52,61.77c.11-.04.52-.2.63-.23-.11.03-.51.2-.62.23,0,0-.01,0-.01,0Z"/><path class="cls-3" d="m52.3,61.02c-.24.07-.37.14-.61.22s-.56-.04-.8.03c0,.02.14.51.14.53.24-.08.47-.28.72-.36s.31-.34.55-.42Z"/><path class="cls-6" d="m60.64,77.92c-.26-.03-.75.17-1.01.15s-.5-.2-.75-.23-.56.44-.82.41-.52,0-.77-.02-.51-.08-.77-.11-.51-.66-.76-.68c-.24.1-.49.33-.73.43s-.52.1-.77.2-.48.21-.72.31-.5.16-.74.27-.47.24-.71.34-.34.52-.58.62-.45.28-.69.38-.48.21-.72.31-.71-.32-.95-.21-.28.65-.52.76-.48.22-.71.33-.47.23-.71.34-.68-.22-.92-.11-.39.41-.63.52-.45.27-.69.38-.56.06-.79.17-.26.67-.5.79-.71-.25-.94-.13-.3.59-.54.71c-.23.11-.52.09-.74.21s-.38.37-.6.48-.27.28-.49.39c.02.27-.42.44-.41.71s.11.53.13.8.62.5.64.76-.28.56-.26.83,0,.54.02.81.14.53.16.8-.3.56-.28.83.31.52.33.78-.42.57-.4.83.05.53.06.8.39.51.41.78-.03.54-.01.81.43.51.45.78-.17.55-.15.82-.28.56-.26.83.51.5.53.77.05.53.07.8.07.53.09.8-.57.58-.55.84.3.52.32.79.06.53.07.8.24.52.25.79-.5.57-.48.84.67.49.69.76-.12.55-.1.81-.38.56-.36.83.59.5.61.77.09.53.11.8-.23.55-.21.82-.05.54-.03.81,0,.54.02.81.13.53.15.8.18.53.19.79-.49.57-.47.84.53.5.55.77-.12.55-.11.81.16.53.17.8-.42.57-.4.83.09.53.11.8.18.53.2.79.35.51.37.78-.26.56-.25.82-.11.55-.1.81.35.51.37.78-.18.55-.17.82.17.53.18.79-.2.55-.19.82.33.52.35.78-.41.57-.39.83.2.52.22.79.46.51.48.77.04.54.05.8.04.54.05.8-.5.57-.48.84.66.49.68.76-.08.54-.06.81-.38.56-.36.83.18.53.2.79.4.51.41.78.05.53.07.8-.2.55-.18.82-.23.55-.22.82.69.49.71.76-.6.58-.58.85.34.51.36.78-.14.55-.12.82.56.5.58.77-.69.59-.67.85.43.51.45.78-.35.56-.33.83.52.5.54.77-.55.58-.53.84.11.53.13.8.65.49.67.76-.32.56-.3.83.17.53.19.79-.23.55-.21.82.32.52.34.78.03.54.05.8-.26.56-.24.82.56.5.57.77.05.53.07.8-.09.54-.07.81.24.52.26.79-.67.58-.65.85.08.53.1.8.35.51.37.78-.26.56-.24.82.16.53.18.79.3.52.32.79.31.52.33.78-.31.56-.29.83.15.53.17.8-.56.58-.54.84.48.51.5.77-.04.54-.03.81-.08.54-.06.81-.08.54-.06.81-.09.54-.08.81.6.5.62.76-.09.54-.07.81,0,.54.03.81.12.53.14.8.25.52.26.79-.56.58-.54.84.68.49.7.76-.52.57-.5.84.1.53.12.8.5.5.52.77-.48.57-.46.84.47.51.49.77-.59.58-.58.85.06.53.08.8.81.48.83.75-.35.56-.33.83-.32.56-.3.83.11.53.13.8-.09.54-.08.81.36.51.38.78.14.53.16.8.17.53.18.79-.53.57-.51.84.2.52.22.79.04.54.06.8-.06.54-.04.81.66.49.68.76-.42.57-.4.84.32.52.34.78-.04.54-.02.81-.02.54,0,.81-.25.56-.23.82.36.51.38.78-.32.56-.3.83.22.52.24.79.02.54.04.8.43.51.45.78.07.53.09.8.1.53.12.8.12.53.14.8-.15.55-.13.82.04.54.06.8.23.52.25.79-.19.55-.17.82-.13.55-.12.82-.29.56-.27.83.23.52.25.79.18.52.2.79c.12.24.52.33.64.57s.06.57.18.81.35.42.47.66-.28.74-.16.98.37.41.49.65.45.38.57.62-.16.68-.04.92.4.4.52.64.52.34.64.58.44.38.56.62.19.51.31.75-.4.79-.28,1.03.72.24.83.48.31.44.43.68-.31.75-.19.99.88.16,1,.4.32.44.43.68-.29.74-.17.98.73.24.85.48.18.51.3.75-.29.74-.17.98.85.18.97.42.13.54.24.78-.31.75-.19.99.85.18.97.42-.06.28.06.52c.14-.24.19-.17.33-.41s.69-.23.83-.47-.33-.82-.19-1.05.51-.33.65-.57.2-.52.33-.75.46-.36.59-.6.33-.44.46-.67-.11-.7.02-.93.8-.16.94-.4.25-.49.38-.72-.12-.7.02-.94.51-.33.65-.57.34-.43.48-.67.29-.46.43-.69-.23-.76-.09-1,.28-.47.41-.7.56-.3.7-.54.53-.32.67-.56-.28-.79-.14-1.03.68-.24.82-.47.31-.45.44-.69-.18-.73-.05-.97.63-.27.76-.5.24-.49.37-.73.64-.26.77-.49.26-.48.4-.71-.35-.83-.22-1.07.68-.28.82-.51c-.02-.27-.19-.56-.21-.83s.3-.56.28-.83-.56-.5-.58-.77,0-.54-.03-.81.4-.57.38-.83-.7-.49-.72-.76.16-.55.14-.82.07-.54.05-.81.29-.56.27-.83-.53-.5-.55-.77.51-.57.49-.84-.14-.53-.16-.8-.33-.52-.35-.78.08-.54.06-.81.08-.54.07-.81.09-.54.07-.81-.57-.5-.59-.77.46-.57.44-.84.12-.55.1-.81-.13-.53-.15-.8-.35-.51-.37-.78-.27-.52-.29-.79.33-.56.31-.83-.27-.52-.29-.79-.04-.54-.06-.8.38-.56.36-.83-.2-.52-.22-.79-.24-.52-.26-.79.1-.55.08-.81.19-.55.17-.82-.27-.52-.29-.79-.16-.53-.17-.79-.08-.53-.1-.8-.22-.52-.24-.79.39-.57.37-.83-.55-.5-.57-.77.69-.59.67-.85-.36-.51-.38-.78.08-.54.06-.81-.27-.52-.29-.79.24-.55.22-.82-.42-.51-.44-.78.25-.56.23-.82.27-.56.26-.83-.4-.51-.42-.78-.39-.51-.4-.78.29-.56.27-.83.21-.55.19-.82-.53-.5-.54-.77.09-.54.07-.81.42-.57.4-.83-.1-.53-.12-.8-.69-.49-.71-.76.11-.55.1-.81.17-.55.15-.82-.34-.51-.35-.78.57-.58.55-.85-.36-.51-.37-.78.29-.56.27-.83-.6-.5-.62-.76.25-.56.23-.82.05-.54.03-.81-.42-.51-.44-.78.4-.57.38-.83-.26-.52-.28-.79.26-.56.24-.82-.52-.5-.53-.77-.11-.53-.13-.8-.14-.53-.16-.8.67-.58.65-.85-.27-.52-.29-.79-.3-.52-.32-.78-.11-.53-.13-.8.43-.57.41-.84-.66-.49-.68-.76.37-.56.35-.83-.41-.51-.43-.78.18-.55.16-.82-.18-.53-.19-.79.38-.56.36-.83-.46-.51-.48-.77-.02-.54-.04-.8.59-.58.57-.85-.61-.5-.63-.76-.19-.52-.21-.79.48-.57.46-.84.03-.54,0-.81.14-.55.12-.82-.46-.51-.48-.77.32-.56.3-.83-.1-.53-.12-.8-.44-.51-.46-.78.13-.55.11-.81.19-.55.17-.82-.22-.52-.24-.79-.37-.51-.39-.78.33-.56.31-.83.16-.55.14-.82.02-.54,0-.81-.78-.48-.8-.75.16-.55.14-.82.48-.57.46-.84-.09-.53-.11-.8-.68-.49-.7-.76.34-.56.33-.83-.05-.53-.07-.8-.37-.51-.38-.78.27-.56.26-.83-.18-.53-.19-.79-.23-.52-.25-.79.14-.55.12-.82.06-.54.04-.81-.09-.53-.1-.8.05-.54.03-.81.25-.56.23-.82-.16-.53-.18-.79.08-.54.06-.81-.41-.51-.43-.78.34-.56.33-.83-.09-.53-.11-.8-.3-.52-.32-.78.17-.55.15-.82.13-.55.11-.81-.21-.52-.23-.79-.04-.54-.06-.8.11-.55.09-.81-.24-.52-.26-.79-.25-.52-.27-.79.38-.56.36-.83.1-.55.08-.81-.45-.51-.47-.77.05-.54.03-.81-.24-.52-.25-.79.16-.55.14-.82-.13-.53-.15-.8.11-.55.09-.81-.53-.5-.55-.77-.07-.53-.09-.8.61-.58.59-.85-.2-.52-.22-.79-.25-.52-.27-.79.23-.55.22-.82-.54-.5-.56-.77.06-.54.04-.81.17-.55.15-.82-.07-.53-.09-.8-.09-.53-.1-.8-.05-.53-.07-.8.04-.54.02-.81.04-.54.03-.81,0-.54-.02-.81-.07-.53-.09-.8-.21-.52-.23-.79.37-.77.35-1.04Z"/><path class="cls-6" d="m117.11,70.41c-.25.09-.6.16-.85.24s-.24.92-.49,1-.64-.22-.89-.13-.37.54-.63.63-.49.22-.74.31-.57-.02-.82.07-.55.03-.8.12-.43.37-.68.46-.62-.15-.87-.07-.43.37-.68.46-.5.17-.75.26-.62-.17-.87-.08-.47.27-.72.35-.4.46-.65.55-.6-.1-.85,0-.38.52-.63.6-.46.31-.71.4-.59-.08-.84,0-.56,0-.81.09-.48.23-.73.32-.35.62-.6.71-.51.16-.76.25-.7-.39-.95-.3-.41.44-.66.53-.41.43-.66.51-.6-.12-.86-.03-.45.31-.7.4-.67-.29-.92-.21-.52.11-.77.2-.28.8-.53.89-.67-.31-.92-.22-.56.02-.81.11-.28.82-.53.91-.73-.47-.98-.39-.25.9-.5.98-.68-.34-.93-.25-.49.2-.75.29-.38.53-.63.62-.52.31-.77.4c.26-.09.5-.39.75-.47s.57.02.82-.06.53-.1.78-.18.37-.63.62-.71.56-.01.81-.09.55-.04.8-.12.38-.66.64-.73.63.27.89.2.49-.27.75-.34.51-.22.77-.28.63.33.89.27.42-.64.68-.69.66.57.92.52.39-.89.65-.93.62.47.88.44.56.11.82.08.51-.27.77-.3.54.01.8-.01.52-.26.78-.28.54.06.8.05.53-.06.8-.06.54-.19.8-.19.53.53.79.54.53-.01.79,0,.59-.65.85-.63.53.23.78.27c.27.03.56-.06.82-.02s.45.57.7.62c.27.05.62-.32.88-.26.27.06.36.73.61.8.26.08.7-.44.95-.36.26.09.45.35.69.45.26.1.52.18.75.29.25.12.53.18.75.3.25.13.57.14.78.27.24.15.06.89.27,1.03.23.17.49.23.68.38.23.19.6.14.78.3.2.19.52.25.7.44s-.05.74.12.95.51.27.66.49.66.22.79.45.32.45.44.69.08.56.19.81.15.52.24.77-.1.59-.02.85.51.4.58.67-.09.57-.03.83.37.46.43.73-.51.63-.46.9.2.49.24.76.39.47.44.74-.35.58-.31.85.28.49.31.76-.16.55-.13.82.6.45.63.72-.13.55-.1.82.49.47.52.74-.22.56-.19.83.15.51.18.78.08.52.11.79-.53.59-.5.86.15.51.18.78.44.48.47.74.23.5.26.77-.2.56-.17.82,0,.53.02.8.07.53.1.79.34.49.38.76.09.52.12.79.19.51.22.77-.49.6-.45.86.63.45.67.72.03.53.07.8-.35.58-.31.85-.09.55-.06.82.09.53.13.8c.04.27.17.52.21.78s.06.53.1.79.02.54.06.8-.09.55-.05.82.4.48.43.74.31.49.35.75-.4.6-.36.86.31.49.35.75.44.47.48.73.14.52.19.78-.15.56-.11.82.24.5.29.76-.3.59-.25.85-.05.55,0,.81.1.52.14.78.27.49.32.75.5.45.55.71-.45.62-.41.88.6.43.65.69-.19.58-.14.83-.25.59-.2.85.38.47.43.73.43.46.47.72-.15.57-.1.82.34.47.39.73-.03.55.02.81-.43.63-.38.88.63.41.68.67.04.54.09.79.15.51.2.76.17.5.22.75c.07.35-.19.88-.12,1.21-.01-.27-.17-.68-.18-.95s.02-.54,0-.81-.08-.53-.09-.8.55-.56.54-.83-.24-.53-.25-.8-.15-.53-.16-.8.25-.55.24-.82-.31-.53-.32-.79-.09-.53-.1-.8-.06-.54-.07-.8.28-.55.27-.82-.1-.53-.11-.8-.25-.53-.26-.8-.2-.53-.21-.8-.01-.54-.02-.81.07-.54.06-.81.67-.56.66-.83-.55-.52-.56-.79.51-.56.5-.83-.64-.51-.65-.78.27-.55.26-.82-.11-.53-.12-.8-.36-.52-.37-.79.14-.54.13-.81.49-.56.48-.83-.09-.53-.1-.8-.23-.53-.24-.8.12-.54.11-.81.18-.54.17-.81-.42-.52-.43-.79.03-.54.02-.81.06-.54.05-.81-.43-.52-.44-.79.2-.55.19-.81.25-.55.24-.82.08-.54.07-.81-.61-.51-.62-.78.35-.55.34-.82.25-.55.24-.82-.01-.54-.02-.81-.34-.52-.35-.79.31-.55.29-.82-.59-.52-.6-.78.12-.54.11-.81-.03-.54-.04-.81.24-.55.23-.82.15-.54.14-.81-.17-.53-.18-.8-.39-.52-.4-.79.32-.55.31-.82-.6-.51-.61-.78.71-.57.7-.83-.56-.52-.57-.78-.18-.53-.2-.8-.02-.54-.04-.81.27-.55.26-.82.48-.56.47-.82-.07-.54-.08-.8-.63-.51-.64-.78.58-.56.57-.83-.59-.51-.61-.78.12-.54.11-.81.32-.55.31-.82,0-.54-.01-.81-.61-.51-.62-.78-.09-.53-.1-.8.67-.56.66-.83-.74-.51-.75-.78.47-.56.46-.82.26-.55.25-.82-.71-.51-.72-.78.07-.54.06-.81.5-.56.49-.83-.12-.53-.13-.8-.01-.54-.02-.81-.1-.53-.11-.8.05-.54.04-.81-.47-.52-.48-.79-.06-.54-.07-.8.3-.57.29-.83c-.26-.05-.58.17-.84.12s-.53,0-.79-.04-.42-.55-.68-.6-.5-.18-.75-.23-.54.07-.8.03-.51-.11-.76-.16-.52-.06-.77-.11-.46-.41-.71-.45-.56.2-.82.16-.55.15-.8.11-.51-.64-.76-.68Z"/><path class="cls-1" d="m50.89,61.79s.12.02.17,0c0,0,.09-.3.09-.3,0-.02-.14.19-.14.17-.26.08-.69-.45-.95-.38s-.32.85-.59.93-.73-.52-.99-.45-.45.42-.71.49-.6-.08-.86,0-.48.37-.75.44c.24-.07.45-.29.69-.36s.62.4.86.33.39-.45.63-.52.52.02.76-.04.44-.25.68-.32.46-.17.7-.24c.11-.03.31.26.42.23Z"/><path class="cls-1" d="m41.37,63.92c-.01-.26-.1-.31-.11-.57s.71-.56.7-.82-.73-.49-.74-.75.28-.54.26-.8.01-.53,0-.79-.2-.23-.22-.49c-.22.15-.32-.02-.54.13s-.63.03-.85.18-.45.29-.67.44-.14.74-.36.89-.72-.11-.94.04-.4.36-.62.51-.43.32-.65.47-.08.83-.3.98-.58.09-.8.24-.58.1-.8.25-.43.32-.65.47-.26.57-.48.72-.64,0-.86.16-.62.03-.85.18.02.98-.2,1.13-.86-.31-1.08-.16-.29.52-.51.67-.18.26-.4.41c.25-.07.21-.32.46-.4s.59.16.84.09.53-.06.78-.13.57.08.82,0,.36-.67.61-.74.65.39.91.32.47-.26.73-.33.5-.17.75-.24.41-.49.66-.56.45-.36.7-.43.71.59.96.52.48-.24.73-.31.55,0,.8-.07.45-.33.71-.4.4-.52.65-.59.29-.15.54-.23Z"/><path class="cls-5" d="m120.35,53.31c-.27.01-.53-.28-.8-.26s-.53.29-.8.31-.54.07-.81.09-.55-.21-.82-.19-.54.18-.81.2-.56-.44-.83-.42-.54,0-.81,0-.53.34-.8.35-.55-.15-.82-.14-.47.3-.74.31c-.18.2-.59.11-.77.31s0,.73-.18.93-.58.2-.76.4-.22.53-.4.73-.18.56-.37.76-.43.34-.61.54-.39.37-.57.57-.86-.05-1.04.15-.23.52-.41.72-.2.55-.38.75-.34.42-.52.62-.66.14-.84.34-.26.5-.44.7-.44.33-.63.53.07.79-.12.99-.67.12-.85.32-.46.31-.64.51-.16.58-.34.78-.07.67-.25.87-.89-.07-1.07.13.06.79-.12.99-.46.31-.64.51-.31.44-.49.64-.69.1-.87.31-.16.59-.34.79-.53.25-.71.45-.14.6-.32.8-.25.5-.43.7-.64.15-.82.35-.12.61-.31.82-.27.48-.45.68-.55.23-.73.43-.61.18-.79.38-.06.67-.24.87-.62.17-.8.37-.05.69-.23.89-.53.25-.71.45-.07.67-.25.87-.45.32-.63.52-.73.07-.91.27-.4.36-.59.56.15.86-.03,1.06-.79.02-.97.22-.42.35-.6.55-.02.71-.21.91-.53.04-.71.24c-.22-.15-.59.18-.81.03s-.11-.79-.34-.94-.37-.41-.59-.56-.85.3-1.07.15-.08-.84-.3-.99-.71.1-.93-.05-.57-.1-.8-.25-.26-.58-.48-.72-.59-.08-.81-.23-.36-.42-.58-.57-.17-.7-.4-.85-.81.24-1.03.09-.04-.89-.27-1.04-.52-.18-.74-.33-.59-.08-.81-.23-.29-.53-.51-.68-.72.11-.94-.04-.43-.32-.65-.46-.55-.15-.77-.29-.21-.65-.43-.8-.65.01-.87-.14-.14-.74-.36-.89-.76.18-.98.03-.3-.51-.52-.66-.5-.22-.72-.37-.27-.56-.49-.71-.71.1-.94-.05-.37-.41-.59-.56-.27-.55-.49-.7-.39-.38-.61-.53-.56-.12-.79-.27-.33-.47-.55-.62-.37-.4-.59-.55-.56-.12-.78-.27-.68.05-.9-.09-.07-.85-.29-1-.75.15-.97,0-.47-.25-.69-.4-.11-.79-.33-.94-.63-.03-.85-.18-.51-.2-.73-.35-.12-.77-.34-.92-.46-.27-.68-.42-.8.23-1.02.08-.26-.57-.48-.72-.4-.36-.62-.51-.57.13-.79-.02c-.24.07-.44-.24-.68-.17s-.44.28-.68.35-.49.13-.73.2-.46.22-.7.29-.45.22-.7.29c-.24.08-.48.17-.72.25s-.59-.14-.83-.06c0,0-.02-.05-.02-.05-.05.01-.1-.01-.15,0-.11.04-.23.03-.34.07,0,0,.1.38.1.37-.24.07-.51-.02-.75.05s-.39.43-.63.49-.59-.29-.83-.22-.56-.17-.8-.11-.35.59-.59.66-.44.26-.68.32c-.25.07-.56-.03-.81.05s-.54.03-.8.11-.4.53-.65.6-.5.17-.76.24-.51.15-.76.22-.67-.54-.93-.46c0-.02.07.31.07.29-.25.07-.55-.01-.81.06s-.45.36-.7.43-.44.38-.69.45-.56-.04-.81.03-.52.1-.77.17-.58-.13-.83-.06-.44.38-.69.45-.4.51-.66.58-.58-.12-.83-.05-.55-.02-.81.05-.53.06-.78.13-.56-.05-.81.03-.48.25-.73.32-.53.07-.78.14-.39.55-.65.62-.77.1-1.02.17c.22-.15.52-.61.74-.76s.68.04.9-.11.44-.3.66-.45.37-.41.59-.56.51-.2.73-.35.35-.44.57-.59.58-.09.8-.24.16-.72.38-.87.65.01.87-.14.55-.15.77-.3.46-.28.68-.43.34-.45.56-.6.28-.54.5-.69.76.17.98.02.09-.82.31-.97.76.16.98.01.06-.86.28-1.01.9.11,1.12-.04c-.02-.31-.39-.73-.4-1.04s-.03-.49-.05-.8c-.24.12-.32.22-.56.34s-.44.32-.68.43-.64-.1-.88.02-.44.33-.68.44-.43.33-.67.45-.4.4-.64.52-.75-.32-.99-.21-.24.74-.48.85-.54.12-.78.24-.61-.03-.85.08-.25.71-.49.82-.54.1-.78.22-.46.27-.7.38-.57.05-.81.17-.63-.08-.87.03-.48.24-.72.36-.43.34-.67.45-.47.26-.71.37-.46.28-.7.4-.34.52-.59.63-.41.38-.65.49-.82-.48-1.06-.36-.18.85-.43.97-.44.31-.68.43-.62-.07-.87.05-.63-.08-.87.04-.43.34-.67.45-.32.56-.57.67-.57.04-.81.16-.3.61-.54.73-.52.15-.76.27-.74-.3-.98-.18-.19.84-.43.96-.62-.06-.86.06-.36.49-.6.61-.67-.16-.91-.05-.35.5-.59.62-.44.33-.68.44-.48.24-.72.35-.8-.44-1.04-.32-.18.87-.42.98-.61-.04-.85.07-.5.2-.74.31-.32.56-.57.67-.64-.09-.88.02-.63-.07-.87.05-.49.22-.73.34-.22.45-.46.57c.3.23.15.57.52.69s.39.06.75.18.37.11.73.24.58-.48.94-.35.28.37.64.49.28.35.65.48.37.1.73.23.47-.18.83-.05.25.46.61.59.26.44.62.56.64-.64,1-.51.17.36.27.73.02.17-.23.47-.02.49-.27.78-.22.32-.47.62-.49.1-.73.39-.32.24-.57.54-.42.15-.68.45.16.65-.09.95-1.12.22-.98.58.67.17,1.06.24.39.05.78.12.46-.28.85-.21.43-.15.82-.07.25.82.64.89.41-.03.8.04.36.22.76.29.43-.12.82-.04.47-.32.86-.24.61-.04.75.33,0,.51-.24.85-.78-.05-1.02.28-.08.45-.32.79,0,.51-.24.84-.06.47-.3.8-.56.11-.8.44-.2.37-.44.71-.81.31-.71.71c.09.38.67-.17,1.03-.02s.11.78.47.93.5-.2.86-.05.39.07.76.21.46-.09.82.05.23.47.6.62.25.43.61.58.37.14.73.28.74-.51,1.05-.26c-.11.23-.77.51-.87.73s.51.79.41,1.02-.31.41-.42.64-.32.4-.43.63-.66.25-.76.47.31.7.21.93-.71.22-.82.45-.01.68-.12.91c.22-.15.5-.42.72-.57s.47-.26.69-.41.33-.47.56-.62.47-.26.69-.41.72.14.95,0,.43-.32.65-.46.49-.22.72-.36.36-.44.58-.58.15-.78.37-.92.64.02.87-.12.59-.06.82-.19.52-.18.75-.32.33-.49.56-.63.6-.03.83-.17.08-.92.31-1.06.53-.16.76-.3.69.12.92-.01.58-.07.81-.2.21-.72.44-.85.66.08.89-.05.49-.21.73-.34.42-.36.65-.49.27-.63.51-.75.77.3,1.01.17.13-.89.37-1.02.81.37,1.05.25.35-.49.59-.62.59-.03.83-.15.38-.44.62-.56.28-.65.52-.77c.22-.11.7.27.92.15s.3-.52.52-.63.52-.08.75-.19c.24-.12.42-.35.65-.46s.46-.27.69-.38.67.17.9.06.49-.19.73-.3.14-.93.38-1.05.66.16.89.05.32-.57.56-.68.46-.26.7-.37.57-.03.8-.14.54-.08.78-.19.39-.41.63-.51.62.11.86,0,.4-.4.64-.5.48-.21.72-.31.63.13.87.03.44-.29.68-.39.36-.48.61-.58.59.07.83-.03.39-.54.63-.64c.26.03.58-.09.83-.06s.48.33.74.35.49.24.75.26.52,0,.77.03.56-.41.82-.39.75.19,1.01.22c.02.27-.46.81-.44,1.08s.32.52.33.78.3.52.32.78-.27.56-.25.82.18.53.2.79-.46.57-.44.84-.03.54,0,.81.7.49.72.76-.47.57-.45.84-.13.55-.11.81.72.49.74.76-.65.58-.63.85.8.48.82.75-.5.57-.49.84.06.53.08.8.41.51.43.78-.5.57-.48.84.24.52.26.79-.17.55-.15.82-.03.54,0,.81.53.5.55.77-.11.55-.09.81-.07.54-.05.81.57.5.59.77-.38.56-.36.83.18.53.2.79.14.53.16.8-.42.57-.4.84.58.5.6.77-.64.58-.62.85.84.48.86.75-.53.58-.51.84-.15.55-.13.82.24.52.26.79-.03.54-.01.81.26.52.28.79-.06.54-.04.81.07.53.09.8.22.52.24.79-.49.57-.47.84.07.53.09.8.73.49.75.75-.14.55-.12.82.17.53.19.79-.45.57-.43.84.48.5.5.77-.58.58-.56.85.66.49.68.76-.14.55-.12.82.07.53.09.8.1.53.12.8.19.52.21.79-.67.59-.66.85.14.53.16.8.32.52.34.78.22.52.24.79-.49.57-.47.84.28.52.29.79.47.51.48.77.1.53.12.8-.13.55-.11.81-.02.54,0,.81-.24.56-.22.82.41.51.43.78-.19.55-.17.82.3.52.32.79-.59.58-.57.85.14.53.16.8.35.51.37.78-.4.57-.38.83.24.52.26.79-.2.55-.18.82.57.5.59.77-.16.55-.14.82.46.51.48.77-.25.56-.23.82.13.53.15.8.06.53.08.8-.56.58-.54.84.13.53.15.8.42.51.44.78.2.52.22.79-.22.55-.21.82-.03.54-.01.81.05.53.06.8.32.52.34.78.06.53.08.8.16.53.18.79-.52.57-.5.84.6.5.62.76,0,.54.02.81-.38.56-.36.83-.13.55-.11.81.05.53.07.8.13.53.15.8.02.54.04.8-.02.54,0,.81-.13.55-.12.82.36.51.38.78.27.52.29.79-.45.57-.43.84.27.52.28.79.4.51.42.78.1.53.12.8-.2.55-.19.82.2.52.22.79-.35.56-.33.83-.1.55-.08.81.05.53.07.8.22.52.24.79.45.51.47.77-.51.57-.5.84.55.5.57.77-.25.56-.23.82-.31.56-.29.83.33.52.35.78.37.51.39.78-.22.55-.2.82.28.52.3.79-.1.54-.08.81-.5.57-.48.84.57.5.59.77-.03.54-.01.81.09.53.1.8.1.53.12.8-.36.56-.34.83.58.5.6.77,0,.54.02.81.09.53.11.8-.53.58-.52.84.26.52.28.79.16.53.18.79-.23.55-.21.82.32.52.34.78.11.53.13.8.08.53.09.8-.27.56-.25.82.12.53.14.8.27.52.28.79.21.52.23.79.03.54.05.8-.05.54-.03.81-.66.58-.64.85.57.5.59.77-.49.57-.47.84.65.49.67.76-.25.56-.23.82.13.53.15.8.38.51.4.78-.13.55-.11.81-.48.57-.46.84.11.53.13.8.25.52.26.79-.1.5-.08.77c-.14.24-.43.33-.57.56s.07.67-.07.9-.32.45-.45.68-.35.43-.48.66.08.68-.06.91-.47.36-.6.59-.51.33-.64.57-.36.42-.5.65.24.77.1,1-.6.28-.73.52-.5.34-.64.57-.28.47-.42.7,0,.63-.13.87-.56.31-.69.54.22.76.08.99-.4.4-.54.63-.26.48-.4.71-.5.34-.64.57-.42.38-.56.62-.14.55-.28.78.05.66-.09.89-.57.3-.71.53.23.76.09,1-.9.11-1.04.34.19.74.06.98-.13.55-.27.79-.27.47-.41.71-.52.33-.66.56c0,0-.49-.03-.49-.03.02.39.06.39.08.79s.62.37.64.77-.59.42-.57.82.59.37.61.77-.13.4-.11.8-.33.41-.31.81,0,.4.01.8.61.37.62.77.09.39.1.79-.67.43-.65.82.73.37.75.77-.47.42-.46.81-.26.41-.25.8.71.37.72.77-.08.4-.06.8-.5.42-.49.82-.04.53.16.88.39.3.73.53.38.17.72.4.3.29.64.52.59-.14.93.09.36.2.7.43.16.51.5.74.27.21.68.18.04-.28.32-.56.61.05.89-.23.34-.22.63-.5.16-.4.44-.68.3-.27.58-.55.26-.3.55-.58.51-.05.79-.34-.06-.71.34-.76c.37-.05.42-.01.74.19s.04.65.36.85.49-.08.81.12.24.33.56.53.58-.22.9-.02.35.15.67.35.31.22.63.42.11,1.02.49.95c.41-.08.31-.47.58-.78s.35-.24.62-.55.26-.32.53-.63.3-.29.57-.6.24-.34.52-.65.01-.54.29-.85.19-.67.6-.75c.39-.08.48.22.82.42s.06.7.4.89.58-.22.92-.02.34.19.68.39.35.18.69.38.1.62.45.81.45.02.79.22.4.45.79.37.45-.26.68-.58-.17-.61.06-.93.66-.02.89-.34-.09-.55.14-.87.35-.24.58-.56.1-.41.33-.74.09-.42.32-.74.63-.04.86-.36-.11-.57.28-.62.55-.26.87,0,.13.5.46.75.31.27.63.52.39.16.71.41.12.51.45.76.49.03.82.28.05.61.37.86.33.24.66.49.45.26.86.21c.38-.05.25-.27.46-.59s-.12-.54.09-.86.38-.21.59-.53.47-.15.68-.46-.19-.58.02-.9.2-.33.41-.65.18-.34.39-.66.72,0,.93-.31-.17-.74.21-.8.32.24.62.49.43.1.72.35-.05.66.24.91.71-.24,1.01.01.19.37.49.62.03.57.33.82.66-.17.96.08.33.21.63.47-.04.73.35.68.23-.23.47-.55.26-.3.5-.63.16-.38.4-.7.12-.41.36-.73.66,0,.9-.33-.16-.62.08-.94.37-.23.61-.55.14-.4.38-.72.22-.23.62-.26.06.15.32.45.37.19.63.48.5.08.76.37.04.49.3.78.15.39.41.69.5.08.76.37.1.44.36.74.28.31.63.5c.15-.21.52-.3.67-.51s.06-.6.21-.81.66-.18.81-.39.16-.52.31-.74-.05-.67.1-.89.3-.43.45-.64.3-.43.45-.64.74-.12.89-.34-.04-.9.11-1.11c.22.15.57.45.78.6s.19.65.41.8.52.18.73.33.64,0,.85.16.44.29.65.45.3.5.51.65.28.53.49.68.81-.23,1.02-.08.32.84.53.99c-.02-.26-.21-.73-.23-.99s.14-.53.12-.8-.56-.49-.58-.75.69-.57.67-.83-.43-.5-.45-.76.35-.55.33-.81-.52-.49-.54-.75.55-.56.53-.82-.11-.52-.13-.78-.65-.48-.67-.74.32-.55.3-.81-.17-.51-.19-.77.23-.54.21-.8-.32-.5-.34-.76-.03-.52-.04-.78.26-.54.24-.8-.56-.49-.57-.75-.05-.52-.07-.78.09-.53.07-.79-.24-.51-.26-.77.67-.57.65-.83-.1-.4-.12-.66c.16-.37-.08-.47.13-.81s.46-.19.67-.53.1-.41.31-.75-.02-.48.19-.82-.03-.49.18-.83.51-.16.71-.5.11-.4.32-.75.72-.04.92-.38-.17-.57.04-.92.28-.3.49-.64.3-.28.51-.62.31-.28.51-.62.32-.27.53-.61-.28-.64-.07-.98.31-.28.52-.62.23-.33.44-.67.13-.39.34-.73.03-.45.24-.79.72-.03.93-.38-.34-.68-.13-1.02.69-.05.9-.4.16-.38.36-.72-.19-.59.02-.93.65-.08.86-.42-.16-.57.05-.91.75-.02.96-.36.19-.36.4-.7-.45-.75-.24-1.09.54-.15.75-.5.59-.18.74-.55c-.01-.27-.07-.68-.08-.95s.11-.54.09-.81-.35-.52-.36-.79-.13-.53-.15-.8-.15-.53-.17-.79.54-.56.52-.83-.19-.53-.2-.79-.03-.53-.04-.8.07-.54.06-.81-.65-.5-.66-.77.43-.56.42-.82-.31-.52-.32-.79.05-.54.04-.8.03-.54.01-.8.26-.55.25-.81-.35-.52-.37-.78.33-.55.31-.82-.21-.52-.23-.79-.01-.53-.02-.8-.42-.51-.44-.78-.06-.53-.07-.8-.09-.53-.1-.8-.11-.53-.12-.8.16-.54.15-.81-.03-.53-.04-.8-.22-.52-.23-.79.2-.54.19-.81.15-.54.13-.81.3-.55.29-.82-.22-.52-.23-.79-.17-.53-.19-.79-.34-.52-.36-.79.17-.54.16-.81-.15-.53-.17-.79.55-.56.54-.83-.17-.53-.19-.79-.26-.52-.27-.79.42-.56.4-.82-.21-.52-.22-.79-.34-.52-.35-.79-.25-.52-.27-.79.03-.54.02-.8.68-.57.67-.83-.56-.51-.57-.77-.11-.53-.12-.8.59-.56.58-.83-.75-.5-.76-.77-.11-.53-.12-.8.56-.56.55-.83-.57-.51-.59-.77.04-.54.03-.8.57-.56.55-.83-.71-.5-.72-.77.1-.54.09-.81.59-.56.57-.83-.71-.5-.72-.77-.03-.53-.05-.8.23-.55.22-.81.45-.56.44-.82-.72-.5-.73-.77.25-.55.24-.81-.12-.53-.13-.8.19-.54.17-.81.04-.54.02-.8-.47-.51-.49-.78.59-.56.57-.83-.06-.53-.07-.8-.48-.51-.49-.78.25-.55.23-.81.06-.54.04-.8,0-.55-.02-.82c-.05-.25-.67-.41-.73-.67s-.1-.51-.15-.78.23-.58.17-.84.19-.57.14-.83-.73-.39-.78-.65.36-.61.31-.87-.06-.52-.11-.79-.62-.42-.66-.68.3-.59.25-.86-.14-.51-.19-.77.32-.59.27-.86-.11-.52-.15-.78-.81-.39-.85-.66.36-.6.31-.86-.25-.49-.29-.75.25-.58.2-.84-.6-.43-.65-.69-.06-.53-.1-.79.35-.59.31-.86-.74-.41-.78-.68.11-.56.07-.82.02-.54-.02-.8.24-.57.2-.83-.57-.45-.61-.71.46-.61.42-.87-.18-.51-.22-.77-.37-.48-.41-.74.04-.54,0-.81.04-.55,0-.81.05-.55.01-.81-.61-.46-.64-.73c-.04-.27.42-.6.38-.86s.09-.55.05-.81-.17-.52-.2-.78-.38-.49-.42-.75-.3-.5-.33-.76.29-.58.26-.84-.3-.51-.33-.77-.07-.54-.1-.8.35-.59.32-.85-.23-.52-.26-.78-.27-.51-.3-.77.07-.55.04-.81.17-.56.13-.82-.29-.51-.33-.77-.18-.52-.21-.78-.11-.53-.14-.79-.24-.51-.27-.77.37-.58.33-.84-.57-.47-.6-.73.66-.62.62-.88-.39-.49-.42-.75.05-.55.02-.81-.3-.5-.34-.76.2-.57.16-.83-.46-.48-.5-.73.2-.58.15-.83.22-.59.17-.84-.46-.46-.51-.72c-.06-.27-.45-.45-.51-.7-.06-.27.2-.6.13-.85-.07-.26.1-.59.02-.84s-.63-.36-.72-.6-.06-.54-.16-.78.2-.69.08-.92-.31-.46-.44-.69-.83-.1-.97-.32-.17-.5-.34-.71-.18-.53-.36-.73-.57-.16-.77-.35c-.17-.16.03-.8-.2-.98-.19-.16-.6-.07-.84-.24-.21-.15-.26-.57-.5-.72-.22-.13-.73.22-.98.09-.23-.12-.33-.5-.58-.61-.23-.11-.45-.3-.7-.4-.24-.1-.62.17-.88.08-.24-.08-.37-.58-.63-.66-.25-.07-.57.08-.84.01-.25-.06-.45-.41-.72-.46-.25-.05-.6.37-.87.33s-.52,0-.79-.04-.52.04-.8.02-.47-.75-.75-.77-.54.21-.82.2-.53.25-.8.25-.52.07-.8.08-.55-.45-.82-.44-.49.66-.76.67-.56-.37-.83-.34-.49.42-.76.45-.55-.15-.82-.12-.5.21-.77.25-.58-.33-.85-.29-.45.51-.71.56-.52.08-.78.14-.65-.51-.91-.45-.4.68-.66.74-.48.27-.74.34-.64-.38-.91-.31-.53.07-.79.14-.56-.03-.82.05-.4.55-.66.63-.62-.19-.88-.11-.49.22-.75.3-.39.54-.65.63-.56,0-.82.09-.57-.05-.83.04c.25-.09.57.09.82,0s.39-.49.64-.58.62.17.87.08.57.01.82-.08.52-.13.77-.21.26-.88.51-.96.57.01.82-.07.67.31.92.22.48-.23.73-.32.29-.78.54-.87.63.19.88.1.5-.19.75-.28.39-.49.64-.57.61.12.86.03.46-.31.71-.39.44-.36.69-.45.56-.01.81-.1.53-.09.78-.18.49-.22.74-.31.53-.1.78-.18.6.09.85,0,.46-.29.71-.38.54-.06.79-.15.38-.53.63-.62.63.19.88.1.48-.23.73-.32.41-.43.66-.52.57.02.82-.07.56-.02.81-.11.44-.34.7-.43.5-.18.75-.27.55-.03.8-.12.43-.37.69-.46.43-.38.68-.46.64.22.89.13.55-.05.8-.13.37-.56.62-.65.53-.09.78-.18.47-.37.72-.46c.25.04.51.28.77.32s.52,0,.78.03.49.23.74.27.59-.4.85-.35.51.05.77.1.4.73.65.77.54-.07.79-.02.55-.11.8-.07.46.36.72.41.61-.4.87-.35.5.2.75.25c.27.05.51.31.78.37s.56.08.83.14.56.07.84.12.55.1.83.16.53.19.81.25.53.2.81.26.55.16.82.22c.26.06.53.08.79.15s.56-.05.82.01.51.17.77.24.49.24.75.3.47.32.73.38.49.24.75.31.55.02.81.09.54.06.8.12.46.34.72.41.64-.31.89-.24.41.55.66.62.52.11.78.18.6-.15.85-.08.43.44.69.52.59-.13.85-.06.56,0,.81.07.52.12.78.2.43.43.68.51.45.35.7.43.69-.44.95-.36.46.31.72.39.57-.04.83.04.31.8.56.88.66-.32.92-.23.48.26.73.34.5.17.76.26.56,0,.81.08.42.43.67.52.57-.01.82.07.33.67.57.76.5.19.74.28.6-.12.85-.03.49.21.74.3c-.18-.22-.05-.7-.23-.93s-.73-.16-.9-.38-.49-.34-.67-.57.01-.74-.16-.97-.26-.53-.43-.75-.37-.44-.54-.67-.49-.15-.67-.38c.22-.32.31-.15.63-.37s.3-.26.62-.49.44-.06.76-.28.2-.39.52-.62.36-.17.68-.39.38-.14.7-.37.04-.62.36-.85.33-.21.66-.44.32.03.33-.36.34-.57.03-.84-.72.2-1.02-.07.03-.67-.28-.94-.56.01-.87-.26-.08-.54-.39-.81-.51-.05-.82-.32-.13-.48-.44-.75-1.12.05-1.07-.37.5-.42.86-.58.48.1.84-.06.5.13.86-.03.32-.26.68-.42.33-.24.69-.41.25-.4.62-.57.4-.09.76-.25.56.27.92.11.18-.57.55-.73.31.05.36-.34,0-.08-.3-.31-.25-.31-.56-.54-.47-.02-.78-.25.1-.79-.21-1.02-.76.38-1.07.15.03-.69-.28-.92-.42-.09-.73-.32-.61-.03-.6-.41.45.08.77-.13.07-.6.4-.81.42-.06.74-.27.2-.39.53-.6.33-.2.65-.41.34-.19.66-.4.35-.17.67-.38.32-.21.65-.42.17-.45.49-.66.57.17.9-.04.1-.56.43-.77.31-.07.55-.37c-.26-.06-.23.08-.49.03s-.58.15-.84.09-.53-.05-.79-.11-.5-.2-.76-.26-.49-.23-.75-.29-.4-.63-.66-.69-.68.6-.94.54-.5-.2-.76-.26-.43-.53-.69-.59-.6.23-.86.18-.39-.66-.65-.72-.64.42-.9.37-.51-.16-.77-.22-.54-.02-.8-.08-.43-.53-.69-.59-.65.44-.91.38-.4-.64-.66-.7-.46-.37-.72-.43-.54-.03-.8-.09-.52-.13-.78-.19-.65.46-.91.4-.46-.39-.72-.45-.53-.05-.79-.11-.44-.46-.7-.52-.64.39-.9.33-.46-.39-.72-.45-.59.2-.85.14-.5-.22-.76-.28-.49-.27-.75-.33-.44-.49-.7-.55-.56.04-.82-.02-.61.29-.87.23-.49-.25-.75-.31-.42-.57-.68-.63-.54-.04-.8-.1-.5-.19-.76-.25-.57.1-.83.04-.53-.09-.79-.15-.58.15-.84.09-.54-.05-.8-.11-.52-.11-.78-.17-.4-.65-.66-.71-.5-.19-.76-.25-.68.58-.94.52-.45-.43-.71-.49-.44-.45-.7-.51-.61.27-.87.21-.53-.09-.79-.15-.45-.42-.71-.48-.57.1-.83.04-.47-.36-.73-.42-.49-.24-.75-.3-.65.43-.91.37-.26-.26-.52-.32c.24.11.11.45.35.57s.5.17.74.28.54.09.78.2.64-.13.88-.01.23.74.47.85.51.15.75.26.4.38.64.49.77-.4,1.01-.28.37.45.61.56.27.65.51.77.5.17.74.28.79-.44,1.03-.33.47.23.71.35.48.22.72.33.32.54.56.65.31.56.55.67.46.27.69.38.7-.25.94-.14.53.12.77.23.44.31.67.42.53.11.77.23.44.31.67.42.52.13.76.24.13.94.37,1.05.56.04.8.15.49.2.73.31.72-.28.95-.16.34.5.58.62.4.29.63.41c-.26-.04-.49,0-.75-.04s-.49-.29-.75-.33-.6.48-.86.45-.51-.14-.77-.18-.49-.31-.75-.35-.5-.23-.76-.27-.5-.24-.76-.28-.59.38-.85.34-.5-.25-.76-.29-.54.07-.8.04-.49-.26-.76-.3-.52-.12-.78-.15-.5-.21-.76-.25-.59.44-.85.4-.51-.14-.77-.18-.47-.45-.73-.48-.51-.15-.77-.19-.57.27-.83.23-.49-.27-.75-.31-.54.03-.8,0-.48-.35-.74-.39-.58.35-.84.32-.54.09-.8.05-.5-.25-.76-.29-.53,0-.79-.04-.5-.23-.76-.26-.48-.34-.74-.37-.56.36-.82.32Z"/><path class="cls-7" d="m110.76,80.92c.32.26.19.17.21.58s.35.39.38.81.31.76.04,1.07c-.29.34-.66.1-1.1.16s-.45.04-.89.1-.61-.54-1.02-.36c.24.17.38.79.59.97.22.18.88-.11,1.07.08.2.2.29.54.46.75.18.22.19.57.33.8.14.24.51.36.62.61s-.19.67-.1.92.47.42.54.68.25.52.3.79-.53.6-.51.87c.02.31.33.59.32.9s-.32.57-.36.87.22.66.14.95c-.07.27.03.61-.06.86-.1.26-.56.36-.69.6-.13.25-.25.48-.41.69-.17.22-.51.25-.73.46-.2.19,0,.89-.25,1.07-.22.16-.89.04-1.15.19.24.13.67.34.89.49s.66.04.87.21.35.46.54.65-.08.77.09.98.75.12.89.35c.14.23.27.49.39.74s.11.55.21.81.45.44.52.71-.06.58-.02.86-.28.57-.26.85c.02.25-.01.48-.02.72s.52.53.5.77.09.55.04.79-.41.43-.48.67-.12.5-.22.72c-.11.26-.48.39-.62.63s.06.74-.11.96-.66.17-.87.36-.15.75-.38.91c-.19.13-.53.14-.77.25-.21.1-.67-.36-.92-.27-.22.08-.39.3-.65.37-.23.06-.34.66-.59.72-.24.05-.56-.25-.81-.2-.24.04-.53-.26-.79-.22-.38.05-.32.46-.71.52s-.37.16-.75.21-.44-.38-.82-.33-.37.16-.75.21-.34.39-.72.44-.45-.47-.83-.41-.37.12-.75.17-.31.56-.69.61-.43-.33-.82-.28-.39-.02-.78.03-.53.68-.82.42c-.31-.28-.04-.51-.07-.93s-.29-.41-.32-.83.03-.54.29-.88c.23-.31.34-.42.72-.48s.48.7.86.65.35-.29.73-.34.36-.17.75-.23.43.32.81.27.28-.82.66-.88.41.19.79.14.35-.26.73-.31.39.02.77-.03.39-.01.77-.07.37-.18.75-.23c.31-.04.65.28.92.23.31-.05.67.23.94.17.32-.07.48-.6.73-.68.32-.11.53-.27.73-.4.21-.13.31-.32.48-.5s.17-.4.3-.62c.13-.2.4-.28.5-.52.12-.27.1-.54.16-.83s.62-.5.64-.8c.02-.29-.07-.61-.1-.92-.02-.29-.54-.49-.59-.77s.55-.73.47-1-.59-.39-.72-.64-.36-.42-.52-.65c-.15-.22.09-.75-.08-.94s-.35-.47-.55-.63-.84.32-1.07.2-.2-.81-.44-.9c-.23-.08-.6.29-.89.25-.24-.04-.49-.17-.77-.18-.25-.01-.52-.23-.8-.22-.25,0-.5.33-.78.35-.26.02-.51.14-.78.17-.26.03-.55-.16-.82-.12-.38.05-.42-.28-.8-.23s-.3.58-.68.63-.43-.39-.81-.34-.39-.1-.77-.05-.29.71-.66.76-.39-.05-.77,0-.44-.4-.82-.35-.59.8-.87.54c-.31-.28.26-.59.23-1.01s-.25-.4-.28-.81,0-.33.26-.66.17-.16.56-.21.43.23.82.18.34-.47.73-.52.37-.21.76-.26.4,0,.79-.05.44.27.83.22.35-.36.75-.41.41.07.8.01.44.24.83.19.38-.15.78-.2c.27-.04.56.08.8.04.27-.04.53-.15.77-.2.27-.05.56-.02.8-.07.28-.07.33-.81.55-.88.28-.1.83.45,1.01.34.22-.13,0-.88.18-1.05s.64-.09.79-.31c.14-.21.22-.47.34-.71.12-.27-.1-.64-.03-.94s.07-.54.09-.85c.02-.29-.02-.54-.04-.86-.02-.28.26-.57.21-.84s.05-.59-.04-.85-.51-.38-.63-.63-.28-.43-.44-.67c-.15-.22.16-.79,0-.98s-.82.1-1.01-.06-.3-.39-.53-.52-.33-.47-.58-.56c-.25-.09-.57.04-.88-.02-.27-.04-.54.12-.86.1-.27-.01-.54-.04-.84-.03-.28,0-.55.07-.85.1-.28.03-.58-.12-.88-.08-.41.05-.43-.14-.84-.08s-.38.27-.78.32-.46-.37-.87-.32-.42-.08-.83-.02-.4.13-.8.19-.33.65-.73.71-.48-.45-.89-.4-.62.74-.93.48.51-.62.48-1.03-.6-.38-.63-.79-.11-.5.15-.83.39-.07.79-.13.36-.41.76-.47.41.02.81-.03.4-.05.81-.11.44.19.84.13.44.21.84.16.35-.42.76-.47.38-.21.78-.27.41.02.82-.04.43.15.83.1.43.15.83.09.36-.39.77-.44.43.16.84.1.43.12.83.07.37-.29.77-.35.39-.15.8-.21.45.25.85.19.31-.57.72-.65c.32-.07.36.21.68.47Z"/><path class="cls-7" d="m114.35,133.85c-.26.32-.16.21-.56.27s-.36.38-.76.43-.39.12-.79.17-.41-.02-.82.04-.41.03-.81.09-.47-.45-.87-.39-.41.03-.81.08-.31.71-.72.77-.43-.11-.83-.05-.43-.13-.83-.08-.37.32-.77.38-.46-.39-.87-.33-.36.37-.77.42-.39.19-.79.24-.48-.55-.89-.49-.36.36-.77.42-.44-.22-.85-.17-.36.39-.77.44-.66.52-.98.26.26-.61.23-1.02-.05-.41-.08-.82-.18-.28.09-.59c.29-.33.14-.61.58-.67s.52.5.96.44.47-.1.88-.28c-.21-.18-.64-.23-.83-.42s-.31-.48-.49-.69.11-.77-.04-.99-.75-.14-.89-.38-.26-.49-.38-.74c-.12-.26-.13-.57-.23-.84s-.46-.46-.55-.74.04-.61-.02-.89.24-.61.2-.9-.03-.55-.05-.84c-.02-.26-.57-.49-.57-.75s-.15-.54-.14-.79.34-.51.36-.76.02-.52.07-.78.36-.45.42-.7-.3-.63-.22-.87.54-.36.64-.6-.23-.68-.12-.91.39-.4.52-.62.78-.11.92-.33c.15-.22.16-.5.31-.7s-.1-.76.07-.95.61-.13.8-.3.59-.07.79-.22.17-.63.38-.77.4-.35.63-.46.62.2.87.11.43-.25.68-.31.43-.44.69-.47c.27-.04.57.46.84.46s.51-.07.78-.04.62-.43.88-.37.41.51.67.61.44.27.69.4.64-.03.87.12.42.35.63.53.59.18.79.38c.19.2.14.64.31.86s.65.23.81.45-.34.86-.2,1.11.46.36.58.61.33.45.43.72-.19.62-.11.89.89.35.95.63-.14.6-.11.88.27.54.29.82c.02.25-.04.52-.04.77s-.04.52-.05.76.1.53.07.77-.43.46-.47.7-.43.4-.5.64.31.6.24.84c-.09.28-.14.58-.25.85s-.17.58-.31.83-.17.6-.33.84-.5.38-.68.61-.46,0-.65.23c.35.08.31.47.66.42s.34-.14.69-.18.29-.54.64-.58.27.27.53.51c.3.28.35.16.37.57s.13.39.18.8c.04.33-.15.32-.41.64Zm-1.62-9.55c-.02-.26-.32-.51-.36-.76s-.4-.45-.46-.7-.18-.46-.27-.71-.1-.49-.2-.73-.19-.46-.32-.68c-.15-.26.11-.79-.06-1.02s-.37-.51-.58-.72-.86.09-1.1-.09-.36-.45-.62-.59c-.25-.13-.4-.41-.65-.51s-.57.09-.84.04-.48-.52-.75-.53-.53.32-.8.36c-.28.04-.49.22-.77.3s-.76-.37-1.02-.24-.36.55-.6.71c-.23.16-.64.12-.86.32-.19.17-.15.59-.32.78s-.17.5-.32.71-.6.2-.74.41-.24.46-.35.69-.43.39-.52.63.46.71.39.96-.68.38-.73.64.07.56.04.82.3.54.3.8-.11.51-.09.78c.02.27-.53.6-.49.86s.62.43.68.68.11.5.2.75.06.53.17.78.47.34.6.57c.15.27.13.6.29.83.17.25.1.71.29.92s.43.48.66.65.78-.1,1.04.04c.25.13.52.09.77.18s.42.44.69.49.53.02.81.03.56.25.85.21c.26-.03.41-.52.65-.59s.6.23.83.13.23-.63.45-.75.48-.11.69-.26.79.13.97-.05.25-.49.42-.69-.14-.72,0-.94c.16-.24.6-.29.73-.54s.57-.38.68-.64-.19-.68-.11-.96.04-.56.1-.84.52-.5.55-.79-.06-.59-.06-.88.15-.59.13-.88Z"/><path class="cls-7" d="m114.71,138.95c.32.27.19.18.22.6s.35.4.38.83.31.72.06,1.07c-.22.3-.61.12-.99.17s-.38.03-.75.08-.55-.54-.89-.38c.22.15.35.76.54.91.2.16.84-.16,1.01.01.19.18.26.5.42.69s.17.53.3.74c.16.26.55.42.67.69s-.21.71-.14,1,.42.54.44.84c.02.25.14.55.11.81-.03.25-.67.39-.73.66-.06.24.18.55.09.81-.34-.05-.14-.42-.43-.59s-.47.11-.76-.07-.53.03-.75-.23c.06-.24.43-.61.46-.82.04-.26.03-.51.02-.7-.02-.28.15-.65.07-.92s-.8-.26-.95-.51c-.13-.24.17-.78-.02-1-.16-.19-.48-.27-.69-.43-.19-.15-.58.02-.81-.1-.22-.11-.38-.3-.63-.38-.23-.08-.34-.71-.6-.76-.21-.04-.55.46-.85.44-.23-.01-.47-.03-.75-.02-.24,0-.49-.11-.77-.09-.24.01-.47.32-.74.34-.24.02-.51-.15-.78-.12-.24.03-.54-.29-.81-.26-.25.03-.51.03-.77.06-.37.05-.3.58-.67.63s-.35.2-.72.25-.41-.25-.78-.2-.36.09-.74.14-.41-.22-.78-.17-.31.5-.68.55-.45,0-.73-.26c-.31-.29-.48-.33-.51-.76s.13-.43.1-.86.21-.3.47-.63.14-.07.54-.12.33-.61.73-.66.45.3.85.24.45.28.85.23.35-.47.75-.52.39-.16.79-.21.46.38.86.32.39-.16.79-.21.36-.39.76-.44.47.46.88.41.39-.13.8-.18.34-.56.74-.62.46.33.86.27.41.02.82-.03.36-.4.76-.46.41-.02.82-.08.37-.32.78-.37.46.31.86.23c.32-.07.3-.11.61.15Z"/><path class="cls-7" d="m114.81,160.23c-.31-.11-.31.03-.55-.2s-.47,0-.7-.24-.46-.23-.59-.54c.16-.26.39-.77.52-1.02.14-.27.27-.5.38-.76.11-.28.68-.4.76-.67.08-.29.17-.61.2-.89.03-.3-.62-.59-.64-.88-.02-.25.12-.46.06-.69-.06-.24.04-.51-.07-.72s-.45-.23-.61-.41c-.22-.24-.16-.76-.4-.87-.27-.13-.6.13-.9.17-.27.04-.38.22-.63.39-.21.15-.83-.09-1.02.15-.15.19-.06.63-.22.94-.12.23-.5.39-.62.7-.1.25.1.65,0,.95-.09.26,0,.6-.09.9-.08.25-.52.37-.6.6-.09.25-.15.49-.24.72-.1.25-.4.38-.5.6-.11.24.39.76.28.97-.12.24-.74.18-.86.38-.15.23-.15.51-.3.68-.21.24-.22.71-.46.89-.25.19-.62.27-.89.38s-.69-.37-1-.33c-.25.03-.45.58-.69.57s-.51-.07-.75-.13-.43-.27-.65-.38-.59-.01-.79-.17c-.19-.14-.26-.47-.44-.65-.2-.21-.1-.65-.27-.89s-.25-.47-.38-.74-.72-.34-.81-.62-.31-.56-.36-.86c-.05-.28.21-.63.19-.93-.02-.28-.07-.56-.07-.83s.29-.53.32-.81-.37-.62-.32-.89.5-.45.58-.72c.08-.25-.29-.67-.19-.9s.36-.44.48-.67.77-.14.91-.36-.1-.43.07-.62c.32.12.56-.23.81,0s.02.49.27.72.04.31.2.61c-.16.21.07.29-.06.5-.14.22-.17.49-.28.71-.12.24-.62.31-.7.54s-.07.55-.12.79.24.55.22.81-.54.52-.52.78c.02.31.15.65.21.92.07.3.66.4.78.66s-.02.72.17.94c.17.19.33.44.51.56.2.14.58-.07.8-.01s.42.1.66.07c.29-.04.39-.35.64-.51.23-.15.62-.06.82-.31.12-.15-.09-.53.04-.78.1-.19.89-.09.99-.34.09-.21-.04-.53.05-.77.08-.22.05-.49.13-.74.08-.22.51-.34.59-.59.09-.29-.55-.81-.46-1.07.1-.28.44-.48.55-.73.12-.28.05-.64.17-.89.14-.28.35-.52.49-.75.17-.27.4-.51.57-.7.21-.23.39-.57.63-.74.25-.18.73-.03,1-.14s.61.16.92.12c.29-.04.53-.5.8-.48.28.03.61.04.87.13s.59.18.82.35c.22.15.58.27.78.49.18.19.22.57.37.79s.38.44.49.69-.29.67-.22.93c.07.25.21.47.26.74.04.25.56.47.58.75.02.28-.68.58-.7.86s.37.6.32.88,0,.6-.07.88-.66.37-.76.65-.28.47-.4.73.42.85.28,1.11-.49.01-.65.26Z"/><path class="cls-7" d="m87.38,63.85c.32.26.19.17.21.58s.35.39.38.81.31.76.04,1.07c-.29.34-.66.1-1.1.16s-.45.04-.89.1-.61-.54-1.02-.36c.24.17.38.79.59.97.22.18.88-.11,1.07.08.2.2.29.54.46.75.18.22.19.57.33.8.14.24.51.36.62.61s-.19.67-.1.92.47.42.54.68.25.52.3.79-.53.6-.51.87c.02.31.33.59.32.9s-.32.57-.36.87.22.66.14.95c-.07.27.03.61-.06.86-.1.26-.56.36-.69.6-.13.25-.25.48-.41.69-.17.22-.51.25-.73.46-.2.19,0,.89-.25,1.07-.22.16-.89.04-1.15.19.24.13.67.34.89.49s.66.04.87.21.35.45.54.65-.08.77.09.98.75.12.89.35c.14.23.27.49.39.74s.11.55.21.81.45.44.52.71-.06.59-.02.86-.28.57-.26.85c.02.25-.01.48-.02.72s.52.53.5.77.09.55.04.79-.41.43-.48.67-.12.5-.22.72c-.11.26-.48.39-.62.63s.06.74-.11.96-.66.17-.87.36-.15.75-.38.91c-.19.13-.53.14-.77.25-.21.1-.67-.36-.92-.27-.22.08-.39.3-.65.37-.23.06-.34.66-.59.72-.24.05-.56-.25-.81-.2-.24.04-.53-.26-.79-.22-.38.05-.32.46-.71.52s-.37.16-.75.21-.44-.38-.82-.33-.37.16-.75.21-.34.39-.72.44-.45-.47-.83-.41-.37.12-.75.17-.31.56-.69.61-.43-.33-.82-.28-.39-.02-.78.03-.53.68-.82.42c-.31-.28-.04-.51-.07-.93s-.29-.41-.32-.83.03-.54.29-.88c.23-.31.34-.42.72-.48s.48.7.86.65.35-.29.73-.34.36-.17.75-.23.43.32.81.27.28-.82.66-.88.41.19.79.14.35-.26.73-.31.39.02.77-.03.39-.01.77-.07.37-.18.75-.23c.31-.04.65.28.92.23.31-.05.67.23.94.17.32-.07.48-.6.73-.68.32-.11.53-.27.73-.4.21-.13.31-.32.49-.5s.17-.4.3-.62c.13-.2.4-.28.5-.52.12-.27.1-.54.16-.83s.62-.5.64-.8c.02-.29-.07-.61-.1-.92-.02-.29-.54-.49-.59-.77s.56-.73.47-1-.59-.39-.72-.64-.36-.42-.52-.65c-.15-.22.09-.75-.08-.94s-.35-.47-.55-.63-.84.32-1.07.2-.2-.81-.44-.9c-.23-.08-.6.29-.89.25-.24-.04-.49-.17-.77-.18-.25-.01-.52-.23-.8-.22-.25,0-.5.33-.78.35-.26.02-.51.14-.78.17-.26.03-.55-.16-.82-.12-.38.05-.42-.28-.8-.23s-.3.58-.68.63-.43-.39-.81-.34-.39-.1-.77-.05-.29.71-.66.76-.39-.05-.77,0-.44-.4-.82-.35-.59.8-.87.54c-.31-.28.26-.59.23-1.01s-.25-.4-.28-.81,0-.33.26-.66.17-.16.56-.21.43.23.82.18.34-.47.73-.52.37-.21.76-.26.4,0,.79-.05.44.27.83.22.35-.36.75-.41.41.07.8.01.44.24.83.19.38-.15.78-.2c.27-.04.56.08.8.04.27-.04.53-.15.77-.2.27-.05.56-.02.8-.07.28-.07.33-.81.55-.88.28-.1.83.45,1.01.34.22-.13,0-.88.18-1.05s.64-.09.79-.31c.14-.21.22-.47.34-.71.12-.27-.1-.64-.03-.94s.07-.54.09-.85c.02-.29-.02-.54-.04-.86-.02-.28.26-.57.21-.84s.05-.59-.04-.85-.51-.38-.63-.63-.28-.43-.44-.67c-.15-.22.16-.79,0-.98s-.82.1-1.01-.06-.3-.39-.53-.52-.33-.47-.58-.56c-.25-.09-.57.04-.88-.01-.27-.04-.54.12-.86.1-.27-.01-.54-.04-.84-.03-.28,0-.55.07-.85.1-.28.03-.58-.12-.88-.08-.41.05-.43-.14-.84-.08s-.38.27-.78.32-.46-.37-.87-.32-.42-.08-.83-.02-.4.13-.8.19-.33.65-.73.71-.48-.45-.89-.4-.62.74-.93.48.51-.62.48-1.03-.6-.38-.63-.79-.11-.5.15-.83.39-.07.79-.13.36-.41.76-.47.41.02.81-.03.4-.05.81-.11.44.19.84.13.44.21.84.16.35-.42.76-.47.38-.21.78-.27.41.02.82-.04.43.15.83.1.43.15.83.09.36-.39.77-.44.43.16.84.1.43.12.83.07.37-.29.77-.35.39-.15.8-.21.45.25.85.19.31-.57.72-.65c.32-.07.36.21.68.47Z"/><path class="cls-7" d="m89.68,97.66c.32.26.18.17.21.58s.35.39.38.81.3.73.05,1.06-.63.11-1.03.16-.4.03-.8.09-.47-.45-.86-.39-.4.03-.8.08-.31.71-.7.76-.42-.11-.82-.05-.42-.13-.82-.08-.36.32-.76.38-.46-.39-.86-.33c-.26.03-.46.38-.69.42-.26.04-.47.21-.7.25-.26.05-.63-.5-.85-.44-.27.06-.43.43-.65.49-.27.09-.63-.07-.81.02-.24.13-.3.56-.51.73s-.24.48-.42.68-.63.18-.77.41c-.14.22-.25.48-.36.73-.1.23-.42.41-.49.65s.51.65.46.9-.64.4-.66.66.12.52.12.78.35.48.37.74c.02.25-.07.48-.04.72.03.25-.49.6-.44.83.06.24.64.34.72.56.08.23.15.45.25.66s.12.49.25.68c.14.21.5.21.65.38.16.18.19.47.37.61s.22.59.43.69.48.25.71.32c.19.05.53-.44.85-.43.22,0,.45-.15.73-.16.23-.01.49.27.77.25.24-.02.49-.09.76-.12.24-.03.53.21.8.17.4-.05.34-.5.73-.56s.45.33.85.28.33-.53.73-.58.42.11.82.05.48.55.87.49.38-.21.78-.26.32-.6.72-.66.45.3.85.24.26-.12.56.15.32.15.35.57.13.42.16.84-.05.36-.32.69-.23.06-.65.12-.37.39-.79.45-.49-.46-.91-.4-.41.13-.83.18-.35.56-.76.62-.47-.32-.89-.27-.43-.02-.85.04-.37.4-.79.46-.43.03-.85.08c-.28.04-.53.33-.79.36-.28.03-.59-.29-.85-.28-.29.01-.57.38-.83.38-.29,0-.51-.78-.76-.81-.29-.03-.56.16-.82.1-.28-.07-.57-.03-.8-.13-.23-.1-.26-.53-.47-.66s-.86.37-1.06.21-.23-.53-.4-.71-.51-.26-.66-.46-.24-.47-.37-.69c-.13-.22-.23-.5-.34-.75s-.33-.46-.42-.72c-.08-.24.19-.62.13-.88-.06-.25.23-.57.18-.84s-.54-.45-.57-.72-.12-.52-.14-.8c-.02-.28-.11-.56-.12-.83s-.15-.57-.14-.84.23-.56.26-.82c.03-.28-.03-.58.02-.85s.62-.43.7-.68.07-.54.17-.79-.24-.71-.12-.94.86-.13,1.01-.35-.04-.68.12-.88.28-.5.47-.68.73.05.94-.11c.22-.16.46-.21.72-.35.24-.13.19-.93.47-1.04.25-.1.74.42,1.02.34.26-.08.42-.58.71-.64.27-.06.58-.01.87-.06.27-.05.59.12.88.08.41-.06.37-.36.78-.42s.4-.15.81-.21.44.16.85.11.45.28.86.22.34-.58.75-.64.47.38.88.33.43.1.84.04.31-.68.72-.76c.33-.07.36.15.68.42Z"/><path class="cls-7" d="m91.2,120.09c.32.26.19.17.21.58s.35.39.38.81.31.77.03,1.08c-.31.34-.68.1-1.13.16s-.46.04-.92.1-.62-.53-1.05-.36c.21.16.33.79.52.96s.85-.11,1.04.08.25.52.42.73.18.54.32.76.52.32.65.56c.12.24-.16.67-.06.92s.49.39.57.65.28.49.34.76-.49.63-.45.9.37.48.39.75c.02.27-.25.54-.26.81s.32.55.29.82.13.58.08.85-.49.44-.57.7-.15.51-.25.76c-.12.28-.45.43-.59.68-.15.27.24.89.06,1.12s-.81.1-1.02.3-.33.51-.57.68c-.2.14-.27.58-.53.71-.23.11-.54.12-.8.22-.24.09-.66-.39-.93-.31-.25.07-.37.65-.64.71-.25.06-.52.09-.8.14-.26.04-.54-.04-.82,0-.39.05-.36.33-.75.39s-.42-.14-.81-.08-.44-.29-.84-.24-.4.02-.79.07-.32.59-.72.64-.37.21-.77.26-.44-.25-.83-.19-.39.1-.79.15-.43-.21-.83-.16-.67.74-.97.49.25-.65.23-1.07-.51-.38-.53-.8-.11-.68.16-1,.64.46,1.04.41.39-.21.79-.27.33-.61.74-.66.45.3.86.24.45.28.86.23.35-.47.76-.52.39-.16.8-.21.47.38.88.32.39-.16.8-.21c.25-.03.44-.4.67-.44.25-.04.58.44.8.4.26-.04.49-.16.7-.21.26-.06.38-.61.59-.67.28-.08.62.21.8.13.24-.1.52-.16.72-.29.22-.13.22-.57.4-.73s.37-.31.52-.51.04-.51.16-.74c.13-.24.53-.35.62-.62.08-.26-.23-.59-.18-.87.04-.27.82-.48.83-.78,0-.27-.24-.57-.26-.87-.02-.29-.18-.56-.23-.83s.24-.66.17-.93-.91-.26-1.02-.52-.01-.59-.16-.83-.46-.32-.64-.54c-.16-.2-.25-.41-.43-.58-.18-.18-.32-.35-.51-.5s-.44-.15-.66-.27-.27-.55-.5-.63-.41-.49-.66-.54c-.23-.04-.57.39-.9.39-.25,0-.52.07-.83.08-.26.01-.52.12-.82.14-.27.02-.52.2-.82.23-.27.03-.57-.13-.86-.09-.4.05-.39.15-.79.21s-.47-.47-.87-.41-.39.14-.79.2-.34.54-.74.6-.5-.64-.9-.59-.35.47-.75.53-.64.44-.96.18.42-.6.39-1.01.05-.42.03-.84-.99-.71-.73-1.03.73.45,1.13.4.34-.49.75-.55.42.05.82,0,.43.16.83.11.36-.36.77-.42.39-.15.79-.2.43.16.83.11.45.28.85.22.33-.58.74-.64.46.38.87.33.42.1.83.05.32-.71.72-.77.42.05.82,0,.46.39.87.34.34-.55.74-.6.45.31.86.25.38-.28.78-.33.48.35.89.26c.32-.07.23-.41.55-.15Z"/><path class="cls-7" d="m91.2,160.96c-.28-.22-.35-.08-.53-.39s-.46-.14-.65-.45-.38-.33-.46-.68c.17-.2.45-.64.6-.86s.31-.4.44-.63.7-.22.82-.45.25-.49.35-.73-.45-.7-.38-.95.29-.44.34-.7.28-.47.31-.74-.22-.53-.2-.8.46-.51.46-.77-.33-.51-.34-.78c-.02-.26-.17-.49-.2-.74s.53-.61.48-.86-.41-.45-.48-.69.11-.59.03-.83-.5-.36-.61-.59-.41-.35-.54-.57.04-.64-.11-.84-.35-.39-.52-.58c-.2-.21-.26-.59-.47-.77-.22-.19-.84.19-1.08.05s-.24-.77-.5-.87-.6-.04-.88-.09-.57.26-.86.25-.53-.1-.81-.06c-.29.04-.72-.46-.99-.37s-.37.7-.63.83-.5.25-.74.42-.53.24-.75.44c-.19.18-.17.55-.34.75s-.47.26-.62.48-.59.25-.72.48-.29.46-.4.71.3.68.21.93c-.1.27-.02.57-.09.85s-.42.49-.47.78-.03.57-.06.86-.3.57-.3.86.46.56.48.85c.02.28-.34.59-.31.87s.55.46.61.73-.04.56.04.83-.4.74-.29,1,.38.48.51.72.75.2.9.43.03.65.2.87.13.66.33.86.71.13.93.31c-.03.38-.06.41-.21.76s-.55.18-.7.53.08.41-.17.7c-.21-.14-.39-.04-.58-.2s-.01-.7-.19-.88-.37-.29-.53-.48-.71-.08-.85-.28.05-.62-.07-.84-.16-.45-.27-.68c-.11-.23-.53-.32-.63-.56s-.15-.49-.24-.74-.41-.42-.48-.67.21-.58.15-.84-.46-.44-.5-.7.68-.6.65-.86-.29-.48-.3-.74c-.02-.28-.16-.55-.16-.82s.37-.54.38-.81-.75-.6-.73-.87.3-.54.34-.81-.11-.6-.06-.87.2-.54.27-.81.2-.53.3-.79.08-.58.2-.83.57-.35.7-.59.56-.29.71-.53c.14-.22-.1-.68.04-.88s.27-.46.43-.65.29-.45.47-.63.3-.48.49-.64.55-.17.76-.31.41-.37.63-.48.67.26.91.18.43-.24.68-.3.41-.59.67-.63c.3-.04.64.64.93.64s.6-.4.89-.36.62-.02.91.06.38.67.65.78.45.3.71.45c.23.13.87-.36,1.08-.2s.02.83.22,1.01.7.05.88.25.27.48.44.69.13.55.28.78.54.3.67.54c.13.23.33.44.44.69s0,.58.1.83-.15.6-.07.86.66.38.72.64-.32.61-.28.87-.07.53-.04.8.71.47.73.74c.02.25-.08.52-.07.77s-.45.5-.46.75.48.53.46.78-.41.46-.45.71.15.53.1.78c-.05.28-.48.47-.55.74-.07.28.07.6,0,.86-.08.27-.44.43-.54.68-.1.27.17.68.05.92-.11.22-.1.53-.23.74s-.33.4-.47.6-.56.18-.72.37,0,.22-.19.39Z"/><path class="cls-7" d="m100.24,164.99c.32.27.19.17.22.59s.35.39.38.81.3.73.05,1.06-.63.11-1.02.16-.4.03-.79.08-.46-.45-.85-.39-.4.03-.79.08-.31.71-.7.76-.42-.11-.81-.06-.42-.13-.81-.08-.36.32-.75.37-.46-.39-.85-.33-.35.36-.75.42-.33.04-.69.21c.21.17.08.31.28.48s.6.13.78.33.14.57.31.78.59.22.73.44.47.36.59.59c.12.23-.1.64,0,.89s.21.48.29.73-.08.55-.02.81.76.4.8.66-.49.59-.47.86c.02.27.19.53.18.79s.33.57.3.84-.18.54-.23.81-.68.37-.76.63.34.68.23.93c-.12.28-.27.56-.42.81-.15.27-.42.45-.6.69s-.18.67-.4.87-.59.27-.83.44c-.2.14-.6-.03-.85.09-.23.11-.46.17-.73.26-.24.09-.33.68-.6.75-.25.07-.48.29-.76.34-.25.05-.58-.19-.86-.14-.26.04-.52.13-.8.17-.39.05-.43-.21-.82-.16s-.33.5-.73.55-.45-.33-.84-.28-.33.53-.72.58-.42-.11-.81-.05-.47-.55-.87-.49-.37.21-.77.26-.32.6-.72.66-.44-.3-.84-.24-.25.11-.56-.15-.32-.14-.35-.55-.13-.41-.16-.82.06-.35.32-.67.22-.06.62-.11.36-.39.77-.44.48.46.88.41.4-.13.8-.18.34-.56.74-.62.46.32.87.27.42.02.83-.04.36-.4.77-.46.41-.02.82-.08c.32-.04.58-.35.86-.39.32-.05.67.24.94.18.33-.06.54-.48.79-.55.36-.09.89.53,1.1.44.24-.11.38-.45.58-.58.22-.14.35-.39.54-.56s.66-.12.81-.32-.37-.83-.25-1.05c.13-.24.44-.37.53-.64.08-.26-.07-.54-.03-.83.04-.27.13-.5.14-.8,0-.27.04-.53.02-.82-.02-.29-.18-.52-.23-.79s.25-.62.17-.88.14-.68.03-.93-.66-.3-.8-.54-.35-.41-.53-.63c-.16-.2-.37-.31-.55-.48-.18-.18-.43-.2-.63-.35s-.26-.43-.48-.55-.45-.12-.68-.2-.33-.65-.58-.7c-.22-.04-.54.02-.87.02-.25,0-.51.5-.82.51-.26.01-.59-.67-.89-.64-.27.02-.51.47-.8.51-.27.03-.53.19-.83.23-.4.05-.47-.46-.87-.41s-.41-.03-.81.03-.3.8-.7.86-.49-.59-.89-.53-.34.49-.75.55-.42-.05-.82,0-.4.19-.71-.07-.28-.28-.31-.69-.12-.41-.15-.82-.09-.53.17-.86.45.27.84.22.32-.58.71-.63.45.38.85.33.41.1.81.05.31-.71.7-.76.41.05.8,0,.45.4.85.34.33-.55.72-.6.44.31.84.26.36-.28.76-.33.44.32.83.27.36-.27.76-.32.43.23.83.18.34-.47.73-.52.37-.21.76-.26.4,0,.79-.05.44.27.83.22.35-.36.75-.41.41.07.8.01.44.24.83.19.38-.15.78-.2.42.1.81.05.39-.11.78-.17.41.04.8,0,.3-.74.7-.79.53.69.92.6c.31-.07.2-.52.5-.27Z"/><path class="cls-1" d="m120.67,52.77c.26.04.17.59.43.62s.53,0,.79.03.56-.21.82-.18.52.05.79.09.46.5.72.54.55-.12.81-.08.55-.12.81-.09.56-.2.82-.16.43.71.69.74.57-.29.83-.26.51.17.77.21.52.07.78.11.54-.08.8-.04.44.62.71.66.57-.28.83-.24.51.19.77.22.54-.03.8,0,.48.35.74.39.56-.2.82-.16.57-.25.83-.21.53.01.79.05.51.15.77.18.52.1.78.13.45.57.71.61.52.1.78.14.61-.58.87-.55.5.24.76.27.47.28.73.31c-.24-.11-.58.04-.82-.07s-.28-.63-.52-.74-.61.05-.85-.06-.53-.11-.77-.22-.21-.78-.45-.89-.61.05-.85-.06-.35-.48-.59-.59-.62.07-.86-.04-.56-.04-.8-.16-.31-.57-.55-.69-.48-.21-.72-.32-.37-.44-.61-.55-.76.38-1,.26-.23-.73-.47-.85-.54-.08-.78-.2-.62.08-.86-.03-.43-.33-.66-.44-.22-.75-.46-.87-.71.26-.94.14-.47-.24-.7-.36-.42-.34-.66-.45-.6.03-.83-.09-.39-.4-.63-.51-.32-.54-.56-.66-.46-.26-.69-.38-.71.26-.94.14-.54-.09-.78-.2-.34-.5-.58-.61-.49-.19-.73-.3c-.23-.11-.35-.47-.58-.58s-.35.15-.59.04c0,.28-.26.31-.25.59s.49.55.49.83-.15.56-.15.84-.6.57-.59.84.17.55.17.83.57.55.57.82-.34.56-.34.84-.33.56-.33.84.68.29.69.56Z"/><path class="cls-4" d="m40.39,43.89c.18.15.84-.19,1.09,0,.2.16.36.39.61.56.22.15.17.74.42.89.23.14.53.2.78.33.24.13.49.26.76.39.25.11.68.11.95.22-.26-.11-.53-.45-.78-.57-.26-.13-.72.14-.95.02-.26-.14-.53-.26-.76-.39-.25-.15-.32-.59-.53-.73-.26-.17-.66-.1-.85-.25-.3-.23-.62-.35-.74-.46Z"/><path class="cls-4" d="m58.65,44.26s0,.21-.05.23c.15.05.15.67.45.74.2.05.56-.46.82-.41.22.04.38.22.64.25-.22-.04-.35-.28-.57-.33s-.42-.13-.63-.2-.44-.22-.65-.3Z"/><path class="cls-4" d="m74.15,36.73c-.23.01-.25.13-.49.13s-.42-.02-.65-.05c-.03.2-.29.33-.35.6-.05.22.37.67.3.92.19-.45.18-.88.24-1.07.08-.01.11-.34.45-.44.19-.05.24,0,.49-.09Z"/><path class="cls-4" d="m107.08,9.95c-.26.02-.47.58-.74.6s-.51.23-.78.25-.55-.27-.82-.25-.53,0-.8.01-.53.06-.79.08-.55-.18-.81-.16-.53.08-.79.1-.51.21-.78.23-.54-.16-.81-.14-.53-.01-.8,0-.52.11-.79.13-.52.11-.79.13-.5.37-.77.39-.53.02-.79.04-.52.14-.78.16-.56-.3-.82-.28-.53-.03-.8,0-.49.47-.76.49-.56-.3-.82-.28-.5.38-.76.4-.57-.53-.84-.51-.5.4-.76.42-.53,0-.8.02-.5.43-.76.45-.54-.15-.81-.13-.51.25-.78.27-.46-.27-.72-.25c.24,0,.39-.05.65-.03s.48.12.73.15.5.02.75.06.48.14.73.19c.25.06.54.03.81.09.25.06.41.55.67.62s.74-.63,1-.55.46.38.71.48.31.68.56.78.73-.28.97-.16.35.49.57.64.74-.05.95.13.32.51.5.71.19.56.34.79-.07.62.04.87c.1.24.67.3.74.55s-.09.57-.04.82.16.5.18.76.27.53.27.79-.22.52-.25.78-.54.42-.6.67.03.52-.05.76-.19.46-.3.69-.12.5-.25.73-.34.38-.49.59-.38.32-.56.52.04.76-.15.93-.33.45-.54.61-.65.03-.87.17c.16.21.47.35.61.58s.04.59.17.82.07.54.18.78.15.48.24.73.58.37.65.63-.16.57-.12.83.4.48.42.74.12.54.12.8-.37.52-.39.79-.32.47-.36.74-.06.49-.12.75.19.58.11.83-.43.38-.53.63-.21.45-.33.69c-.13.24.02.62-.12.84s-.1.61-.26.81-.32.47-.5.66-.46.33-.66.5-.4.39-.61.54c-.22.16-.46.32-.68.45-.23.15-.65-.04-.88.08-.25.13-.35.56-.58.66-.26.11-.59.03-.82.11-.28.1-.63-.18-.85-.12-.39.1-.74.47-.85.49.08.27.39.53.44.8s.22.54.25.81.19.57.2.84-.53.55-.55.82.33.6.28.87-.15.55-.22.82-.67.36-.77.62-.13.51-.25.76,0,.61-.14.85.04.71-.13.93-.44.4-.63.6-.5.3-.71.49-.59.14-.82.3-.19.76-.43.9c-.23.13-.55.16-.79.26s-.63-.17-.88-.1-.52,0-.78.06-.46.42-.72.44-.53-.05-.79-.05-.55.25-.81.22-.44-.6-.7-.65-.47-.15-.73-.22-.54.02-.78-.08-.63.12-.87,0-.32-.52-.54-.66-.46-.2-.68-.36c-.06.27-.29.47-.37.73s-.4.42-.5.68.4.78.27,1.03-.34.47-.49.7-.33.46-.5.68-.42.39-.6.6-.14.67-.34.86-.85-.12-1.07.05-.38.39-.61.54-.33.54-.57.67-.5.27-.76.38-.66-.21-.92-.13-.47.33-.74.39c-.27.06-.51.29-.78.32s-.55.32-.83.33-.53-.64-.81-.67-.59.31-.86.26-.52-.21-.79-.28-.53-.15-.79-.25-.58-.06-.82-.18-.22-.73-.46-.87-.64.02-.87-.14-.36-.41-.57-.59-.48-.28-.67-.48-.16-.57-.34-.78-.55-.25-.71-.48-.45-.17-.59-.41c-.22.09-.26.25-.55.35-.24.08-.54.09-.82.17-.25.06-.54.11-.81.16-.26.05-.6-.41-.88-.37-.26.03-.52.03-.8.04-.27.01-.53.68-.81.67s-.55-.19-.83-.21-.52-.25-.8-.3-.6.16-.87.09c-.25-.06-.38-.57-.63-.65s-.6.12-.84.02-.55-.1-.78-.21-.17-.78-.4-.91-.6,0-.82-.15-.25-.52-.46-.68-.61-.07-.81-.24-.53-.21-.72-.39-.09-.64-.26-.83-.35-.37-.52-.58-.13-.54-.28-.76-.85-.06-.99-.28.21-.73.08-.96-.39-.38-.51-.61-.54-.33-.65-.57-.1-.53-.2-.78.37-.68.29-.93-.67-.34-.74-.59.02-.44-.04-.69c.01.27-.03.45-.01.72s.31.53.32.81-.16.56-.15.83-.32.56-.31.84-.01.55,0,.82.56.52.58.79.18.54.19.81-.27.56-.26.83.07.54.09.82-.24.56-.23.83.48.52.49.8-.36.57-.35.84.5.52.52.8-.13.55-.12.83-.58.58-.57.85.18.54.2.81.58.52.6.79c.02.31-.32.64-.31.95s-.31.64-.3.95c.01.26.44.5.45.76s.13.52.14.78-.41.54-.4.81.13.52.14.78.36.51.38.77-.5.55-.48.81c0,.02.41.3.41.32.25-.07.39-.65.64-.72s.62.22.87.14.53-.08.78-.15.41-.49.66-.56.52-.12.77-.19.43-.4.69-.48c.26-.08.62.17.89.09s.42-.51.69-.59.74.57,1.01.5.46-.38.72-.46.49-.27.76-.35.63.2.9.13c.24-.07.27-.89.51-.96s.56.09.8.02c.24-.07.42-.34.66-.41s.5-.07.74-.15.49-.1.73-.18.44-.27.69-.34.59.21.83.14c.22.15.25.59.47.74s.7-.08.92.07.48.24.7.39.49.23.71.38.52.18.75.33.33.46.55.61.5.22.72.37.15.73.37.88.49.22.71.37.72-.11.94.04.05.88.27,1.03.68-.05.9.1.51.2.73.35.15.73.37.88.4.37.62.52.87-.33,1.09-.18.08.84.3.98.69-.07.91.08.38.39.6.54.32.48.54.63.62.04.84.19.5.22.72.37.32.48.54.63.26.58.48.72.74-.14.96,0,.2.66.42.81.36.43.58.58.81-.25,1.03-.1.38.39.61.54.19.67.41.82.72-.12.94.03.24.6.46.75.57.11.79.26.23.61.45.76.57.12.79.27.28.54.5.69.68-.05.9.1.53.17.75.32.41.35.63.5.26.57.48.72.62.04.84.19.37.4.6.55.28.55.5.7.5.22.72.37.35.43.58.58.48.25.7.4.65.44.87.59c.18-.2.08-.99.26-1.19s.9.09,1.08-.11-.18-.89,0-1.09.66-.13.84-.33.32-.44.5-.64.11-.62.29-.83.34-.42.52-.62.33-.43.51-.63.59-.19.78-.39.49-.28.68-.48.11-.63.29-.83.33-.43.51-.63.8,0,.98-.21-.13-.84.05-1.04.46-.31.64-.51.56-.22.74-.42.21-.54.39-.74.22-.52.41-.72.38-.38.56-.58.33-.43.51-.63.5-.28.68-.48.5-.27.69-.47.2-.54.39-.74.68-.11.86-.31.46-.31.64-.51.3-.45.48-.65-.09-.8.1-1,.74-.06.92-.26.05-.68.23-.88.82.01,1-.19-.07-.79.11-.99.52-.26.7-.46.34-.42.52-.62.09-.64.27-.84.42-.35.6-.55.36-.4.54-.6.54-.24.72-.44.56-.22.74-.42.09-.65.27-.85.24-.51.42-.71.42-.35.6-.55.51-.26.7-.46.51-.26.69-.46.11-.62.29-.82.52-.26.7-.46.42-.22.6-.42c.27-.01.44-.24.71-.25s.54-.13.81-.14.56.28.83.27.52-.58.79-.59.55.04.82.03.56.28.83.26.53-.29.8-.31.54-.07.81-.09.55.21.82.19.39-.11.66-.13c0-.28.39-.41.39-.69s.02-.56.02-.83-.33-.55-.33-.83.16-.56.16-.84-.3-.55-.3-.83.37-.56.36-.84-.5-.55-.5-.83.29-.56.28-.84-.2-.55-.2-.83c0-.27-.25-.54-.25-.81s.08-.54.08-.81.03-.54.03-.81.67-.55.66-.82-.19-.54-.2-.81-.23-.54-.23-.81-.04-.54-.05-.81.39-.55.38-.82-.15-.54-.16-.81.1-.54.1-.81-.59-.53-.59-.8.41-.55.41-.82.12-.54.12-.81-.28-.54-.28-.81-.41-.53-.41-.81.7-.55.69-.82-.58-.53-.59-.8.12-.54.11-.81-.08-.54-.08-.81.43-.55.43-.82-.29-.54-.29-.81.22-.55.21-.82-.31-.54-.31-.81-.16-.54-.17-.81.36-.55.36-.82-.33-.54-.33-.81-.13-.54-.13-.81.24-.55.24-.82.33-.55.32-.82-.42-.53-.42-.81.34-.55.34-.83c-.01-.13-.47-.37-.54-.75-.04-.23.12-.54.04-.83-.06-.24-.52-.38-.61-.65-.08-.24-.06-.52-.16-.78-.1-.24.25-.69.13-.94-.11-.24-.19-.52-.33-.76s-.86-.1-1.01-.33.17-.77,0-.99-.29-.48-.47-.69-.69-.08-.89-.27-.12-.68-.33-.86-.74.1-.97-.06c-.23-.16-.15-.81-.38-.95-.25-.15-.45-.41-.7-.53-.26-.13-.81.42-1.06.32-.27-.11-.32-.82-.58-.9-.27-.08-.68.31-.94.25-.28-.06-.58.12-.85.08-.29-.04-.52-.4-.78-.42-.3-.02-.57.23-.83.23-.31,0-.58-.14-.82-.12-.37.03-.71-.47-.88-.45Z"/><path class="cls-4" d="m81.47,12.07s.07.04.09.05c.07-.01.29.05.36.03-.09,0-.36-.08-.45-.08Z"/><path class="cls-2" d="m49.97,54.46c.27.07.61-.21.88-.16s.51.33.78.36.57-.5.84-.49c.28,0,.56.8.83.78.28-.01.53-.42.8-.45.28-.03.57.03.83-.02.28-.05.56-.1.81-.17.28-.07.54-.2.78-.28.29-.1.58-.41.8-.5.14.24.1.7.26.93s.52.29.7.5.49.27.68.47.4.34.61.52.41.32.64.48.25.6.49.74.59.05.83.16.39.46.65.56.44.48.71.55.63-.24.9-.19.56-.19.83-.17.52.36.8.36.53-.2.8-.23.49-.24.76-.3c.27-.06.56.04.82-.04s.69.26.95.16.58-.15.82-.28.11-.91.35-1.06.72.07.94-.1.6-.19.8-.38-.1-.87.08-1.08.92.03,1.08-.19-.18-.79-.03-1.03.65-.27.78-.52-.03-.62.07-.88.08-.54.16-.81.29-.64.35-.92c.21.16.39.67.61.8s.55.11.79.23.41.4.65.5.47.32.72.39.57-.01.83.04.54.03.8.06.54.25.8.25.54-.21.8-.23.57.13.83.07.33-.81.58-.88.56.09.8-.02.4-.33.63-.46c.24-.13.4-.34.62-.5s.92.26,1.12.08-.12-.91.07-1.12.41-.33.58-.56.73-.18.87-.41.34-.47.46-.72.27-.52.37-.78-.5-.73-.43-1,.7-.41.74-.68.27-.55.29-.83-.44-.58-.45-.86.39-.59.36-.86-.56-.48-.61-.75.34-.54.26-.8c.11-.02.13.11.53,0,.22-.06.3-.71.59-.8.23-.08.73.49,1,.38.23-.1.24-.73.49-.85.23-.12.78.31,1.02.16.22-.14.03-.89.25-1.05s.82.18,1.03,0,.49-.3.67-.5-.05-.75.12-.97.15-.52.3-.75.54-.28.67-.52c.12-.23.28-.45.38-.7s.18-.5.26-.75.37-.46.43-.71.08-.54.11-.8-.1-.55-.08-.81.23-.53.23-.8.04-.55.01-.82-.13-.54-.18-.8-.17-.52-.24-.77-.45-.42-.54-.67-.16-.49-.26-.74-.3-.42-.42-.66.05-.63-.09-.85-.2-.35-.36-.57c.22-.14.11-.52.32-.67s.62-.06.81-.23.12-.6.29-.79.79-.04.94-.25,0-.64.13-.86.29-.43.4-.67-.16-.6-.08-.85.34-.42.4-.67-.1-.52-.07-.77.31-.47.31-.73.12-.52.09-.77.02-.53-.03-.78-.16-.5-.23-.75-.12-.51-.23-.75c-.11-.25-.32-.45-.46-.68s.02-.73-.16-.93-.93.18-1.14,0-.26-.5-.48-.65-.2-.74-.44-.87-.73.26-.98.15-.4-.44-.66-.53-.65.27-.91.19-.47-.3-.73-.37-.48-.33-.73-.39c-.27-.06-.46-.49-.71-.54-.25-.06-.6.39-.84.35s-.46-.31-.7-.35-.51.02-.75,0-.51.21-.75.2c-.27,0-.52-.2-.78-.2-.27,0-.56-.46-.81-.44-.27.02-.54.2-.79.22-.27.03-.55.05-.79.08-.28.04-.52.2-.76.25-.07.01-.17-.06-.24-.05-.01,0-.18.48-.19.49.04.02.61-.29.96-.05.18.12.48.2.69.38.18.15.13.6.31.79.17.17.48.25.64.46.15.2.07.55.2.78.12.21.07.49.16.73s.12.44.18.7c.06.24.53.4.56.66.03.27-.26.55-.27.82s.26.58.21.85-.06.58-.15.83-.54.36-.67.61-.49.3-.64.52-.28.4-.47.61-.13.6-.34.78-.57.1-.8.25-.43.25-.68.37-.37.51-.63.6c.06.15.39.36.49.71.06.22.19.48.25.77.05.24,0,.53.05.81.03.25.1.52.12.79.02.25.02.53.02.81,0,.26-.38.51-.4.78-.02.26.3.56.25.83s-.28.48-.35.75-.47.4-.56.65.02.54-.09.79c-.1.25.01.59-.11.81s-.15.54-.29.75-.18.54-.34.75-.73.09-.9.28-.08.65-.27.83-.43.33-.63.49-.74-.11-.95.03c-.22.15-.39.33-.6.46-.23.14-.32.5-.54.61-.24.12-.32.61-.54.71-.26.11-.56.11-.78.19-.25.09-.53.01-.72.07-.35.1-.74-.06-.82-.04-.06.2.29.79.1,1.24-.09.21-.31.42-.44.67-.11.22-.58.26-.72.5-.12.21-.37.35-.52.57-.14.21-.02.61-.18.82-.15.2-.38.35-.56.55s-.15.57-.34.76-.74-.04-.93.14-.4.28-.61.44-.3.45-.52.59-.25.58-.48.71c-.24.14-.63,0-.87.1s-.46.32-.71.41-.57,0-.83.08-.57-.1-.83-.04-.42.77-.68.8c-.28.04-.57-.01-.83,0-.28.02-.57,0-.83,0-.28,0-.56-.1-.82-.12-.28-.02-.6.3-.86.27-.25-.03-.38-.72-.6-.76-.26-.05-.5-.02-.7-.07-.3-.08-.61.13-.76.08-.03-.01.04,0,.01-.02-.16.1-.6-.13-.88.04-.2.12-.32.41-.58.54-.21.11-.36.41-.61.52-.23.1-.37.47-.62.57-.23.09-.71-.41-.96-.32-.24.08-.37.51-.63.59-.24.07-.53.04-.79.1s-.5.11-.77.16-.49.24-.76.27-.56-.49-.83-.47-.49.38-.76.38-.51-.11-.78-.13-.52.08-.79.05-.47-.33-.73-.38c-.26-.04-.56.18-.81.13s-.6.19-.85.13-.54-.09-.78-.17-.49-.25-.72-.34c-.27-.11-.53-.24-.77-.36-.26-.12-.29-.7-.52-.83-.26-.14-.47-.29-.7-.43-.25-.15-.85.25-1.06.1-.25-.17-.39-.48-.59-.63-.25-.19-.32-.52-.5-.67.06.26.39.42.46.67s-.28.63-.2.88.47.39.56.63.31.43.41.67-.33.74-.22.97.52.33.64.56.03.6.17.82.57.26.72.47.47.29.63.5.04.65.21.84.38.38.56.56.23.54.42.72.83-.17,1.03-.01.09.77.3.91.53.16.76.29.61-.05.85.07.41.32.65.42.29.74.54.82.57-.02.83.04Z"/></svg>