<?xml version="1.0" encoding="UTF-8"?><svg id="gode" xmlns="http://www.w3.org/2000/svg" width="180" height="280" viewBox="0 0 180 280"><defs><style>.cls-1{fill:#f39323;stroke:#f39323;stroke-miterlimit:10;stroke-width:1.16px;}.cls-2{fill:#0d71b9;}.cls-2,.cls-3{stroke-width:0px;}.cls-3{fill:#30358c;}</style></defs><path class="cls-2" d="m71.43,209.97c-.15.18-.18.31-.33.5s.14.73-.02.91-.51.19-.66.37-.33.34-.48.53-.57.14-.73.32-.16.48-.31.66-.31.36-.46.54-.16.48-.31.66-.11.52-.27.7-.47.22-.62.41-.3.36-.45.55-.61.1-.76.28.22.8.06.98-.59.12-.74.3-.35.33-.5.51,0,.61-.16.79-.84-.09-.99.1.21.79.05.97-.33.34-.48.52-.58.13-.73.31,0,.62-.15.8-.71.02-.86.2-.12.51-.28.7-.16.48-.31.66-.57.14-.72.32-.47.22-.63.4.1.7-.05.88-.43.26-.58.44-.22.43-.37.61-.57.14-.72.32.09.7-.06.88c0,0-.52-.19-.52-.19,0,.36.1.36.1.72s.55.37.54.73-.54.36-.54.72-.12.36-.13.72.68.37.68.73-.59.35-.59.71.13.36.12.72.1.36.1.72.23.36.22.72-.47.36-.47.72.41.37.41.73-.06.36-.07.72-.14.36-.14.72.31.37.3.73-.15.36-.15.72-.2.36-.2.73-.38.51-.21.83.44.16.73.35.15.4.45.59.69-.43.98-.24.24.27.53.46.12.45.41.64.42,0,.71.18.29.2.58.38.24.27.54.46.19.76.54.75.4-.33.7-.53.24-.29.54-.5.21-.33.51-.53.34-.14.64-.34.17-.39.47-.59.22-.32.52-.53.58.21.88,0,.44,0,.74-.2.03-.72.39-.73.39.08.7.26.37.09.69.28.07.6.38.79.41.03.72.21.3.21.62.39.47-.08.79.11.33.16.65.34-.02.75.3.94.45-.09.82-.11.36.01.64-.21.25-.27.53-.49.45-.01.74-.24,0-.59.28-.82.22-.3.51-.53.41-.07.7-.29.18-.36.47-.59.35-.13.72-.16c.34-.04.31,0,.61.17s.12.5.42.67.64-.43.94-.26.25.25.56.42.02.69.32.86.63-.43.94-.26-.03.77.28.94.43-.06.73.11.41,0,.71.16.24.66.59.61.09-.56.34-.81.57.08.82-.16.2-.29.44-.54.04-.45.29-.7.43-.06.68-.31.01-.49.27-.73.22-.28.47-.53.61.12.86-.13.28-.22.53-.46-.07-.85.29-.87.19.54.48.75.35.13.64.33.13.43.42.64.64-.28.93-.08-.06.7.23.91.5-.08.79.13.3.2.59.41.25.27.54.48.23.29.53.5.62-.25.92-.04,0,.61.36.57.25-.13.51-.4.53,0,.79-.27.15-.37.4-.64-.02-.53.24-.8.43-.1.69-.37.42-.12.68-.39-.16-.67.1-.94.19-.34.44-.61.43-.07.8-.09.33-.03.62.2.35.15.65.38.06.53.35.76.62-.2.91.03-.16.8.13,1.03.5-.03.79.2.12.45.42.68.31.21.61.44.66-.24.96,0,.02.6.4.59c.35,0,.5.13.76-.11s-.15-.68.11-.93.27-.23.52-.47.28-.22.53-.47.18-.33.44-.58.25-.25.51-.5.42-.08.68-.32.59.1.85-.14-.2-.73.07-.98.37-.06.73-.06,0,.29.25.55.36.15.61.4.64-.12.89.13-.25.75,0,1.01.26.25.51.51.63-.11.88.14.2.31.45.57.32.19.58.45.07.44.39.61c.16-.16.35-.24.52-.4s.32-.33.48-.5.47-.18.63-.34.39-.26.55-.43-.02-.68.14-.84.32-.34.48-.5.5-.15.67-.31.16-.49.33-.66.71.06.87-.1.06-.68.23-.85c.19.13.55.12.75.25s.29.41.48.54.42.22.61.35.42.21.62.34.44.18.63.31.15.63.34.75.29.41.49.54.49.11.68.24.45.17.64.3.27.44.46.57.47-.08.67.04c0-.24.28-.37.28-.61s-.4-.47-.4-.71-.19-.47-.2-.71.71-.49.7-.73-.03-.48-.04-.71-.4-.47-.41-.7-.35-.47-.36-.71.07-.48.06-.72.52-.49.52-.73-.58-.46-.58-.7.48-.49.47-.73.09-.48.09-.72-.01-.48-.02-.71-.33-.47-.34-.71.28-.48.27-.72-.25-.47-.25-.71-.03-.48-.04-.71.07-.48.06-.72-.24-.47-.25-.71.48-.49.47-.73-.1-.47-.1-.71-.14-.39-.15-.63c.19-.31.29-.2.52-.47s-.12-.59.12-.86.33-.19.57-.47.18-.32.42-.6.29-.23.53-.5.47-.07.71-.34.37-.16.61-.43-.19-.65.05-.93.69.13.93-.15-.02-.5.22-.77.4-.13.64-.4.32-.2.56-.47-.2-.65.04-.92.16-.34.4-.61.27-.24.51-.52.73.16.97-.11-.25-.71-.01-.98.47-.07.71-.34.09-.4.33-.68.28-.24.52-.51.46-.08.7-.36.08-.41.32-.69.43-.11.67-.38.34-.18.59-.46-.18-.65.06-.92.18-.32.42-.6.28-.24.52-.51.4-.14.64-.41.33-.2.57-.47.33-.2.57-.48.18-.33.42-.61.54-.19.67-.53-.31-.46-.32-.82.28-.36.27-.72.04-.36.03-.71-.08-.36-.08-.71.11-.36.11-.72-.34-.35-.35-.71-.06-.36-.06-.71-.24-.35-.25-.71.35-.36.34-.72.32-.36.31-.72-.41-.35-.41-.71.2-.36.19-.72-.3-.35-.3-.71-.05-.36-.06-.71-.08-.36-.09-.71,0-.36,0-.71.26-.36.26-.72-.36-.35-.36-.71.25-.36.25-.72-.04-.36-.04-.72-.15-.36-.15-.71.4-.36.4-.72-.01-.36-.02-.72-.3-.35-.3-.71.22-.36.21-.72.07-.36.06-.72-.38-.35-.39-.71.41-.36.41-.72-.13-.36-.13-.72.1-.36.1-.72.07-.36.06-.72-.03-.36-.03-.72.02-.36.01-.72-.17-.36-.17-.72,0-.36,0-.72-.28-.36-.28-.72-.02-.36-.03-.72-.07-.36-.07-.72.17-.36.17-.72-.15-.36-.15-.72.45-.37.44-.72-.2-.36-.2-.72-.3-.35-.3-.71.5-.37.49-.72-.4-.35-.41-.71.46-.37.46-.72-.38-.35-.38-.71.12-.36.11-.72.24-.36.23-.72,0-.36,0-.72-.66-.35-.66-.71.59-.37.59-.72-.02-.36-.03-.72-.57-.35-.58-.71.5-.37.49-.72-.3-.35-.3-.71.39-.36.39-.72-.37-.35-.38-.71.11-.36.11-.72-.19-.36-.19-.71.15-.36.14-.72-.3-.35-.31-.71.61-.37.6-.73-.5-.35-.51-.71.36-.36.36-.72-.24-.36-.25-.71.02-.36.02-.72,0-.36,0-.72.29-.36.29-.72-.19-.36-.2-.72.05-.36.04-.72-.46-.35-.47-.71.06-.36.06-.72.28-.36.28-.72-.1-.36-.11-.72.16-.36.15-.72.07-.36.06-.72-.44-.35-.45-.71.41-.37.4-.73-.3-.36-.31-.72-.09-.36-.09-.72.29-.36.29-.72-.36-.35-.36-.71.34-.36.34-.72-.39-.35-.39-.71.62-.37.61-.73-.33-.35-.34-.71.02-.36.01-.72-.26-.36-.26-.71.43-.37.43-.72-.42-.35-.43-.71-.06-.36-.07-.72.2-.36.2-.72-.22-.36-.22-.72-.06-.36-.07-.72.57-.37.57-.73-.36-.35-.37-.71.17-.36.16-.72-.19-.36-.19-.72.01-.36,0-.72-.12-.36-.13-.72.38-.37.38-.73.04-.36.04-.72-.5-.35-.5-.71.38-.37.37-.73.16-.36.15-.72.01-.36,0-.72-.01-.36-.02-.72-.54-.35-.55-.71.1-.36.09-.72.14-.36.13-.72-.15-.36-.16-.72.39-.37.38-.72-.47-.35-.48-.71.34-.36.33-.72.05-.36.04-.72-.26-.36-.27-.72.1-.36.09-.72-.25-.36-.26-.72.61-.37.6-.73-.69-.35-.69-.71.55-.37.55-.73-.35-.36-.35-.72.09-.36.08-.72-.21-.36-.21-.72.56-.37.56-.73-.73-.35-.74-.71.49-.36.48-.72-.41-.35-.41-.71.52-.37.51-.72-.42-.35-.42-.71-.16-.36-.17-.72.33-.36.33-.73-.24-.36-.25-.72.31-.37.3-.73-.23-.36-.24-.72-.03-.36-.03-.72.26-.36.25-.72-.39-.35-.4-.71.12-.36.11-.72.46-.37.46-.72-.36-.35-.37-.71.26-.36.26-.72-.55-.35-.56-.71.18-.36.18-.72-.09-.36-.1-.72.32-.36.32-.72-.15-.36-.15-.72.27-.36.27-.72-.5-.35-.51-.71.37-.37.37-.73,0-.36,0-.72-.14-.36-.15-.72-.3-.36-.31-.72.13-.36.12-.72.45-.37.44-.73-.08-.36-.08-.72.02-.36.01-.72-.49-.35-.49-.71.48-.37.48-.73.13-.36.13-.72-.43-.36-.44-.72.02-.36.01-.72-.31-.36-.32-.72.66-.37.66-.73,0-.36,0-.72-.04-.36-.05-.72-.33-.36-.33-.72.23-.37.22-.73-.05-.36-.06-.72-.52-.35-.52-.72,0-.36,0-.72.08-.36.08-.72.46-.37.46-.73-.38-.36-.39-.72.57-.37.57-.73-.18-.36-.18-.72-.14-.36-.14-.72-.25-.36-.25-.72.01-.36,0-.72.08-.36.07-.73-.23-.36-.23-.72.11-.36.1-.73-.1-.36-.11-.73.29-.37.28-.73,0-.36,0-.73-.27-.36-.28-.72.5-.37.5-.74-.24-.36-.25-.73.09-.37.09-.73-.19-.35-.26-.71c-.16-.17-.02-.54-.18-.71s-.25-.41-.42-.58-.85.15-1.01-.02.21-.86.05-1.03-.43-.24-.59-.42-.63-.06-.79-.23-.19-.48-.35-.65-.23-.43-.4-.6-.17-.49-.34-.66-.39-.29-.55-.46-.7.01-.87-.16-.21-.45-.38-.63-.37-.31-.53-.48,0-.65-.17-.82-.66-.02-.83-.19-.43-.24-.59-.42-.34-.33-.51-.5-.09-.57-.25-.75-.16-.51-.32-.68-.29-.38-.45-.55-.82.13-.98-.05-.3-.37-.47-.54-.01-.65-.17-.82-.64-.04-.81-.21.09-.74-.08-.91-.32-.35-.48-.52-.46-.22-.63-.39-.33-.34-.5-.51-.42-.25-.59-.42-.52-.16-.68-.33.05-.7-.12-.87-.66-.03-.82-.2-.33-.44-.49-.61c-.04-.23.27-.59.24-.82s.09-.49.06-.72-.53-.4-.56-.63-.11-.46-.14-.69.08-.49.04-.72.18-.5.15-.74.04-.48,0-.72-.69-.37-.73-.61.53-.56.5-.79-.11-.46-.14-.69-.52-.4-.56-.63.31-.52.27-.76-.58-.39-.61-.62.03-.48,0-.72-.08-.47-.11-.7-.14-.46-.18-.69.05-.48.01-.72.31-.63.28-.86c-.2-.13-.47-.33-.67-.46s-.53-.06-.73-.18-.42-.23-.62-.35-.24-.51-.44-.64-.5-.1-.7-.23-.37-.3-.58-.42-.57.02-.77-.11-.31-.14-.51-.27c-.19.14-.6-.27-.8-.13s-.25.46-.45.6-.37.29-.57.43-.13.63-.33.77-.67-.12-.86.01-.11.67-.3.81-.37.29-.57.43-.57-.16-.76-.02c-.35-.07-.25-.22-.57-.37s-.44.1-.75-.05-.44.11-.76-.04-.22-.37-.54-.52-.13-.56-.45-.71-.38-.03-.69-.18-.44.1-.76-.05-.2-.4-.52-.55-.37-.05-.69-.2-.31.16-.66.19-.28-.12-.57.09-.35.12-.64.32-.48-.06-.77.14-.11.45-.4.66-.07.52-.36.72-.69-.37-.99-.16-.11.47-.4.67-.19.82-.55.83-.42-.4-.72-.59-.38-.07-.67-.26-.23-.29-.53-.48-.12-.47-.42-.66-.49.1-.79-.09-.09-.52-.4-.71-.19-.37-.49-.56-.45-.44-.81-.43-.24.63-.53.83-.42.02-.71.22-.3.2-.59.4-.07.52-.36.72-.28.22-.57.42-.42.03-.71.23-.51-.1-.8.11-.02.63-.38.62-.26-.2-.56-.41-.15-.44-.45-.66-.38-.12-.68-.33-.37-.13-.68-.34-.42-.06-.73-.28-.19-.38-.5-.6-.29-.51-.67-.53c-.34-.02-.11.67-.4.86s-.45-.06-.73.12-.23.27-.52.45-.33.12-.61.3-.39.02-.68.21-.16.39-.45.57-.22.29-.51.48-.5-.14-.79.04-.17.23-.52.22c-.37-.01-.24-.09-.55-.3s-.5.08-.81-.12-.2-.38-.51-.58-.5.08-.82-.12-.31-.22-.62-.42.05-.77-.27-.97-.46.08-.84.07-.45-.2-.77,0-.11.53-.42.72-.43,0-.74.2-.27.27-.58.46-.2.38-.52.57-.53-.15-.84.04-.38.09-.7.29-.11.72-.48.71-.42-.11-.74-.32-.27-.28-.59-.48-.42-.05-.74-.25-.37-.12-.69-.33-.3-.23-.63-.43-.32-.21-.64-.42-.08-.68-.46-.69-.43,0-.74.19,0,.7-.31.89-.52-.14-.83.05-.27.26-.58.45-.16.43-.48.63-.36.11-.68.3-.52-.14-.83.06-.18.42-.55.42-.23-.23-.54-.42-.37-.09-.68-.27-.48.09-.79-.1-.11-.51-.42-.7-.16-.44-.47-.63-.6.28-.91.09-.02-.66-.33-.85-.46.06-.82.06-.38-.05-.66.16,0,.59-.28.79-.36.1-.64.3-.52-.13-.8.08-.36.1-.64.31,0,.59-.29.79-.39.07-.67.27-.72-.02-.87.29.07.53.08.9.59.35.6.71-.33.37-.32.73.04.36.05.72-.21.37-.2.73.56.35.57.72.03.36.04.73-.65.38-.64.74.59.35.6.71-.16.37-.15.74.27.36.28.72-.71.38-.7.75.56.35.57.72-.53.38-.52.74.47.35.48.72.07.36.08.73-.2.37-.19.74.38.36.39.72-.43.38-.42.75.33.36.34.73c0,0-.29.05-.29.05.17.18.58.12.75.3s.34.35.51.52.07.6.24.77.58.12.75.3.02.65.18.83.24.44.41.62.73-.02.89.16.1.57.27.75.34.35.5.53.14.53.31.71.7,0,.87.18.45.24.62.42.33.35.5.53.3.39.47.56.06.61.23.79.17.5.34.68.55.15.71.33.45.24.62.42.02.65.19.82.69.02.86.2.11.57.27.74.15.52.32.7.45.25.61.42.37.32.53.5.62.09.78.26.08.59.24.77.53.17.7.34-.03.7.14.87.67.04.84.21.54.33.71.5c0,.24.06.6.06.84s-.63.49-.63.73.41.47.41.71.16.48.17.72-.62.49-.62.73.3.48.3.72-.25.48-.24.72.19.48.19.72,0,.48,0,.72.14.48.14.72-.12.48-.11.72.2.48.2.72-.27.48-.27.72-.13.48-.13.72.52.47.52.71-.52.49-.52.73,0,.48,0,.72.24.48.24.72-.14.48-.13.72.59.47.59.71-.57.49-.57.73.23.48.23.72-.06.48-.05.72.32.48.32.72-.35.48-.34.72-.05.48-.04.72-.15.48-.15.72.51.47.52.71-.06.48-.05.72-.31.48-.31.72.16.48.16.72.28.48.28.72.12.48.12.72-.65.49-.65.73.58.47.58.71-.58.49-.58.73.65.47.65.71.08.48.08.72-.02.48-.01.72-.69.49-.69.73.67.47.68.71-.15.48-.15.72-.48.49-.47.73.04.48.04.72.02.48.02.72.37.47.38.71.26.48.27.72-.49.49-.49.73.5.47.5.71,0,.48,0,.72-.19.48-.19.72.19.48.19.72-.56.49-.56.73.06.48.06.72.26.48.26.72-.17.48-.17.72.02.48.02.72.16.48.16.72.28.48.29.72-.3.48-.3.72-.24.48-.24.72.48.47.49.71-.13.48-.13.72-.31.48-.31.72.3.48.3.72-.17.48-.17.72-.17.48-.17.72.72.47.72.71-.3.48-.3.72-.3.48-.3.72-.11.48-.1.72.68.47.69.71-.27.48-.26.72.02.48.02.72-.2.48-.19.72-.07.48-.06.72.1.48.1.72.01.48.02.72.4.47.41.71.09.48.09.72-.33.48-.32.72-.23.48-.23.72.6.47.6.71-.28.48-.28.72.04.48.05.72-.26.48-.25.72.23.48.23.72-.45.49-.45.73.33.48.34.71.09.48.09.72.21.48.22.72-.43.49-.42.73.34.48.34.71-.01.48,0,.72-.07.48-.07.72.16.48.17.72.19.48.2.72-.28.48-.28.72.12.48.13.72-.48.49-.48.73.39.47.39.71.24.48.24.72-.21.48-.21.72-.47.49-.47.73.46.47.46.71-.17.48-.17.72-.04.48-.04.72.07.48.07.72.14.48.14.72-.25.48-.24.72.45.47.45.71-.01.48-.01.72-.21.48-.2.72-.23.48-.23.72.28.48.29.72.22.48.22.72.03.48.03.72-.65.49-.65.73.1.48.11.72.26.48.27.72.33.48.34.71-.55.49-.54.73.37.47.38.71-.29.48-.29.72-.14.48-.14.72.47.47.47.71-.19.48-.19.72-.16.48-.16.72.12.48.12.72-.23.48-.23.72.23.48.23.72.11.48.11.72.31.48.31.72-.03.48-.03.72-.12.48-.11.72-.13.48-.13.72-.16.48-.16.72.3.48.3.72-.11.48-.1.72.16.48.16.72.21.48.21.72-.71.49-.71.73.58.47.59.71-.18.48-.18.72-.05.48-.04.72-.26.48-.26.72.68.47.68.71-.08.48-.08.72-.37.48-.36.72.01.48.02.72.06.48.06.72-.05.48-.05.72.45.47.45.71-.19.48-.19.72-.15.48-.15.72-.06.48-.05.72.28.48.28.72-.16.48-.16.72-.36.48-.36.72.25.48.25.72.26.48.27.72.25.48.25.72-.4.49-.4.72.09.48.09.72.03.48.03.72-.22.48-.21.72.29.48.29.72-.18.48-.17.72.18.48.19.72-.35.48-.35.72.2.48.2.72.2.48.2.72-.49.49-.49.73.17.48.17.72.13.48.13.72-.28.48-.28.72.69.47.7.71-.29.48-.29.72-.37.48-.36.72.43.47.43.71-.22.48-.22.72.04.48.05.72.15.48.15.72-.03.48-.02.72.22.48.23.72-.1.48-.1.72-.06.48-.06.72-.34.48-.34.72.37.47.37.71.16.48.16.72-.51.37-.51.61Z"/><path class="cls-3" d="m57.62,226.62c.15-.18.11-.2.26-.38s.26-.4.42-.58.65-.08.8-.26-.11-.71.04-.89.3-.37.45-.55.6-.12.75-.3.56-.15.71-.33-.08-.68.07-.86.67-.06.82-.24.08-.55.23-.73.38-.3.53-.48.04-.59.19-.77.26-.4.41-.58.78.03.93-.15.2-.45.36-.63.15-.49.3-.68.51-.19.66-.37.02-.6.17-.78.38-.29.54-.48.49-.21.64-.39-.14-.73.02-.91.3-.36.45-.55.62-.1.77-.28.48-.21.63-.4.22-.44.37-.62.28-.38.43-.56.5-.2.65-.38-.01-.63.14-.81.3-.36.45-.55.19-.46.34-.64.75-.14.9-.32c0-.24-.42-.59-.42-.83s-.15-.48-.15-.72.02-.48.02-.72.18-.48.17-.72.05-.48.05-.72-.37-.47-.37-.71.19-.48.19-.72.36-.48.36-.72.04-.48.04-.72-.61-.47-.61-.71.6-.49.6-.73-.37-.47-.37-.71.06-.48.06-.72.09-.48.09-.72.02-.48.02-.72,0-.48,0-.72-.39-.47-.4-.71.07-.48.07-.72-.16-.48-.17-.72.66-.49.65-.73-.27-.48-.28-.72-.11-.48-.12-.72.34-.48.34-.72.07-.48.07-.72-.67-.47-.68-.71.52-.49.52-.73-.47-.47-.47-.71.1-.48.1-.72-.1-.48-.11-.72.05-.48.05-.72-.21-.48-.21-.72-.01-.48-.02-.72.28-.48.27-.72.12-.48.11-.72.2-.48.19-.72-.44-.47-.45-.71.04-.48.04-.72.25-.48.25-.72.01-.48,0-.72-.49-.47-.49-.71.08-.48.07-.72.64-.49.64-.73-.37-.47-.37-.71.19-.48.19-.72-.39-.47-.4-.71-.1-.48-.1-.72.51-.49.51-.73.02-.48.02-.72-.13-.48-.13-.72-.1-.48-.1-.72-.39-.47-.39-.71.3-.48.3-.72-.21-.48-.21-.72.44-.49.44-.73.13-.48.13-.72-.12-.48-.12-.72.08-.48.07-.72-.41-.47-.41-.71-.19-.48-.19-.72.19-.48.19-.72.24-.48.24-.72-.49-.47-.49-.71.45-.49.44-.73-.44-.47-.44-.71.41-.49.4-.73-.34-.47-.35-.71-.19-.48-.19-.72.5-.49.5-.73.06-.48.06-.72-.58-.47-.58-.71.27-.48.27-.72.15-.48.14-.72.26-.48.26-.72.02-.48.02-.72-.73-.47-.73-.71.14-.48.14-.72-.08-.48-.09-.72.54-.49.53-.73-.19-.48-.19-.72-.11-.48-.11-.72.29-.48.28-.72-.45-.47-.46-.71-.1-.48-.1-.72.05-.48.04-.72-.05-.48-.05-.72.46-.49.45-.73-.17-.48-.18-.72-.27-.48-.27-.72.46-.49.46-.73.09-.48.09-.72-.55-.47-.55-.71.29-.48.29-.72-.41-.47-.41-.71.58-.49.57-.73-.4-.47-.4-.71-.16-.48-.16-.72.1-.48.1-.72.06-.48.05-.72-.12-.48-.13-.72,0-.48,0-.72.07-.48.07-.72-.15-.48-.15-.72-.06-.48-.06-.72.48-.49.47-.73-.21-.48-.21-.72,0-.48,0-.72-.24-.48-.24-.72-.11-.48-.12-.72.39-.49.39-.72-.21-.48-.21-.72.42-.49.41-.73.08-.48.08-.72-.1-.48-.11-.72.05-.48.05-.72-.57-.47-.57-.71.61-.49.6-.73-.17-.48-.17-.72-.22-.48-.23-.72.02-.48.01-.72.02-.48.02-.72.13-.48.12-.72.09-.48.09-.72-.48-.47-.48-.71-.1-.48-.11-.72.11-.48.1-.72.51-.49.5-.73-.21-.48-.22-.72-.4-.47-.4-.71.37-.48.37-.72-.49-.47-.5-.71.7-.49.7-.73-.6-.47-.6-.71.14-.48.14-.72.09-.48.09-.72-.35-.47-.35-.71-.02-.48-.03-.72.3-.48.29-.72-.33-.48-.33-.71.68-.49.67-.73-.47-.47-.47-.71-.23-.48-.23-.72.6-.49.6-.73-.51-.47-.51-.71-.01-.48-.01-.72.15-.48.14-.72-.14-.48-.14-.72.11-.48.11-.72.09-.48.08-.72-.06-.48-.07-.72.3-.48.29-.72-.19-.48-.19-.72.08-.48.07-.72-.42-.47-.42-.71.49-.49.48-.73-.35-.47-.35-.71.51-.49.51-.73-.59-.47-.59-.71.14-.48.14-.72-.23-.48-.24-.72.4-.49.4-.72.02-.48.01-.72-.21-.48-.22-.72.39-.49.39-.72-.23-.48-.24-.72-.35-.47-.35-.71-.07-.48-.07-.72.12-.48.12-.72.15-.48.14-.72.39-.49.39-.72-.61-.47-.62-.71.14-.48.13-.72-.32-.48-.32-.72.75-.49.74-.73-.6-.47-.6-.71.48-.49.48-.73-.5-.47-.51-.71.26-.48.26-.72.21-.48.21-.72.1-.48.09-.72-.6-.47-.6-.71.07-.48.07-.72.51-.49.5-.73,0-.48,0-.72-.3-.48-.3-.72.19-.48.19-.72-.46-.47-.47-.71.32-.48.32-.72-.5-.47-.51-.71.63-.49.63-.73.04-.48.04-.72-.07-.58-.07-.82c-.17-.18-.62-.22-.79-.4s-.15-.53-.32-.7-.29-.4-.45-.58-.73.02-.89-.16-.1-.57-.27-.75-.6-.1-.77-.28,0-.67-.17-.84-.44-.25-.61-.43-.41-.28-.58-.46-.07-.6-.24-.78-.35-.34-.51-.52-.72.01-.89-.16.14-.8-.03-.97-.38-.31-.55-.48-.27-.42-.43-.59-.34-.34-.51-.52-.52-.18-.68-.36-.64-.06-.81-.24.04-.71-.12-.88-.37-.32-.54-.5-.37-.31-.54-.49-.21-.47-.37-.65-.77.06-.94-.12.14-.8-.02-.98-.35-.34-.52-.52-.63-.07-.8-.25-.43-.27-.59-.44.09-.75-.07-.93-.81.1-.98-.08-.04-.28-.2-.46c-.12.21-.41.02-.53.23s-.3.38-.42.59-.2.44-.33.65-.28.39-.4.6-.22.43-.34.64-.29.39-.41.59-.21.43-.33.64.06.59-.07.8-.32.37-.44.58-.01.55-.14.76-.34.36-.46.57-.71.15-.83.35.05.59-.07.79-.29.39-.41.6-.33.36-.45.57-.41.32-.53.52.37.77.25.98-.32.37-.44.58-.28.4-.4.6-.76.12-.88.32-.14.48-.26.69.15.65.03.85-.66.17-.78.38.25.62.13.83c0,.24-.27.41-.27.65s.36.47.37.71-.11.48-.11.72-.09.48-.08.72.07.48.07.72-.33.48-.32.72.11.48.11.72-.17.48-.17.72.15.48.15.72.07.48.07.72.38.47.39.71-.03.48-.02.72-.42.49-.42.73.2.48.21.72-.44.49-.44.73.61.47.62.71-.09.48-.09.72-.02.48-.02.72.1.48.11.72.16.48.16.72-.23.48-.23.72-.31.48-.31.72-.1.48-.1.72.11.48.11.72.46.47.47.71.11.48.11.72-.15.48-.15.72-.51.49-.5.73.56.47.56.71-.41.49-.4.73.48.47.48.71-.37.48-.36.72-.04.48-.04.72.43.47.43.71-.61.49-.61.73.49.47.49.71-.23.48-.23.72.43.47.43.71.02.48.03.72-.6.49-.59.73.59.47.59.71-.25.48-.25.72.13.48.14.72-.17.48-.16.72.29.48.29.72-.27.48-.27.72-.11.48-.11.72-.17.48-.16.72.1.48.11.72.5.47.5.71-.38.48-.37.72.38.47.38.71-.11.48-.11.72-.31.48-.31.72-.09.48-.09.72.2.48.21.72,0,.48,0,.72-.14.48-.14.72.4.47.41.71-.49.49-.49.73-.08.48-.07.72.46.47.46.71.08.48.09.72-.01.48,0,.72.13.48.14.72-.06.48-.06.72-.12.48-.11.72-.39.49-.39.72.58.47.58.71.03.48.03.72-.43.49-.43.73-.19.48-.18.72.67.47.68.71-.26.48-.26.72-.05.48-.05.72.27.48.28.72-.48.49-.48.73-.05.48-.04.72-.12.48-.12.72.47.47.47.71-.17.48-.17.72-.15.48-.15.72-.05.48-.05.72.25.48.25.72.25.48.26.72-.19.48-.19.72.01.48.02.72.02.48.02.72-.3.48-.3.72.63.47.64.71-.67.49-.66.73.53.47.53.71-.02.48-.02.72-.21.48-.21.72.44.47.44.71-.24.48-.24.72.09.48.1.72-.03.48-.03.72-.09.48-.08.72.05.48.05.72.27.48.27.72-.18.48-.17.72-.25.48-.25.72-.24.48-.23.72.53.47.53.71-.09.48-.09.72,0,.48,0,.72-.41.49-.4.73.33.48.33.71-.13.48-.13.72.22.48.22.72.24.48.24.72-.52.49-.52.73-.17.48-.17.72.55.47.56.71-.2.48-.2.72-.06.48-.06.72-.21.48-.21.72.59.47.59.71.14.48.15.72-.57.49-.56.73-.04.48-.04.72.04.48.05.72.41.47.42.71-.33.48-.33.72.4.47.41.71.04.48.05.72.09.48.09.72-.01.48,0,.72-.06.48-.06.72-.14.48-.13.72-.15.48-.14.72-.02.48-.01.72.29.48.29.72-.47.49-.47.73.18.48.19.72-.2.48-.2.72.06.48.06.72-.03.48-.02.72-.13.48-.12.72.65.47.66.71-.07.48-.06.72-.44.49-.43.73.62.47.62.71-.27.48-.27.72-.19.48-.18.72.41.47.41.71-.27.48-.27.72-.15.48-.15.72.07.48.07.72-.03.48-.03.72.3.48.3.72.15.48.16.72-.11.48-.11.72.04.48.04.72.04.48.04.72-.21.48-.2.72-.38.48-.38.72.02.48.02.72.48.47.49.71-.52.49-.52.73.72.47.73.71-.37.48-.36.72.06.48.06.72-.38.48-.38.72.26.48.27.72-.28.48-.28.72.36.47.36.71-.04.48-.04.72-.12.48-.12.72-.17.48-.17.72,0,.48,0,.72.26.48.27.72.5.47.51.71-.05.48-.05.72-.09.48-.08.72,0,.48,0,.72-.14.48-.14.72.33.48.33.71-.13.48-.13.72-.36.48-.35.72.19.48.2.72-.12.48-.11.72.1.48.11.72,0,.48,0,.72.07.48.07.72.21.48.21.72-.6.49-.59.73.65.47.65.71-.71.49-.71.73.24.51.24.75c.11.21.55.3.66.51s.29.39.4.61.23.42.34.63-.3.71-.18.92.27.4.39.61.34.36.46.58.25.41.36.63.1.49.21.71.45.3.56.52-.06.58.05.79.66.19.78.4.08.5.19.72.5.28.62.49.22.43.33.64-.21.66-.09.87.76.14.87.35-.3.71-.18.92.23.43.34.64.15.47.26.68.81.11.92.33.17.45.29.67.25.41.36.62-.1.6.02.81.24.42.36.63.1.49.22.7.66.19.77.4.26.41.38.62-.04.29.07.5Z"/><path class="cls-3" d="m76.44,208.66c.26-.08.76.07.91-.2.08-.11.14-.36.43-.45.25-.04.27-.06.48-.16.41-.18.88.03,1.25-.14.4-.24.92-.09,1.34-.17.18-.07.37-.14.55-.15.35-.09.8.28.91.55.07.18.26.25,0,.09-.2-.04-.05-.02-.1-.04,0,0-.03,0,.11-.08.13-.08.35-.15.49-.16.17-.02.18-.02.26-.03.09-.02.41-.07.53-.08-.1-.01-.26.08-.28.1.25-.7,1.26-.94,1.87-.44.09.06.01-.01-.06-.03,0,0-.07-.02-.07-.02.16-.02.53.03.64.07.07.01.01,0,.05,0,.42-.11.78-.24,1.29-.1.51.2.28.1.19.08-.11-.02-.4.1-.45.17-.07.07-.05.04.01-.06.08-.21.64-.71,1.04-.69.19-.02.48-.02.66,0,.16.03-.06-.06.61.03.27.05.53.21.53.21.01,0-.15-.07-.2-.07-.04,0-.06,0,.06,0,.14-.04.75.13.71.13-.32-.07.28-.03.46.02.58.19.11.02.13.05-.15-.01-.43.12-.51.21-.07.07-.04.02.1-.14.13-.16.49-.45.88-.52.12-.03.28-.03.41-.03.14-.04.84.18.76.17-.06-.03-.17-.05-.17-.05,0,0-.02,0-.09,0,.28-.19,1.1-.28,1.57-.08.37.15.08.02-.02.01,0,0-.03,0-.03,0h.07c.14-.02.43,0,.56,0,.22-.04.77.04.91.11.06.01-.09-.02-.09-.02-.04,0,.07,0-.11,0-.11.01-.27.06-.39.13-.25.15-.28.25-.25.19.07-.18.66-.74,1.05-.79.32-.1.74-.06,1.06-.03.48-.07,1.18.26,1.38.49.12.11.07.03-.15-.08-.14-.06-.29-.1-.43-.1.17-.02.55.03.68.04,0,0,.04,0,.04,0-.06,0-.14,0-.25.04-.22.05-.41.23-.35.18.06-.14.86-.61,1.22-.56.33-.05.92.09,1.12.21.1.04-.12-.06-.21-.06-.04,0-.08,0-.09,0,0,0,.01,0,0,0-.01,0-.13.03.02-.02.16-.05.42-.1.58-.11.1-.01.52-.03.85.1.37.13.59.32.52.27-.33-.18-.66-.23-1.1.03-.23.16-.24.22-.15.1.14-.25.95-.75,1.43-.7,0,0-.07,0-.07,0-.07,0-.27.09-.11.02.46-.28,1.55-.24,1.92,0-.08-.04-.24-.06-.27-.06.52-.1.95-.14,1.48.01.25.09.16.05.06.03-.05,0-.08-.01-.1-.01,0,0-.04,0,0,0,.36-.03.91.14,1.14.31.19.13.06.01-.14-.05-.26-.06-.25-.07-.59,0-.36.09-.59.36-.62.4.16-.36.93-1.01,1.64-.97.06,0,.25,0,.32,0,.09.01.35.03.44.02.71-.06,1.46.57,1.68.97-.14-.28-.97-.6-1.41-.36-.4.16-.55.41-.56.43.81-1.54,2.78-1.31,3.38-.11-.06-.1-.46-.39-.85-.4-.31-.04-.72.14-.89.31-.16.16-.15.18-.08.07.09-.24.9-.91,1.41-.89.08,0,.23-.02.31-.01.82.04.43.04.41.06.41-.18.91-.24,1.34-.15.5.06,1.12.68,1.23.93.05.09.07.09-.05-.04-.09-.13-.58-.39-.92-.35-.35-.01-.8.29-.86.41-.1.13-.08.11-.02.01.16-.42.99-1.09,1.64-1.02.44-.04,1.1.26,1.31.48.18.17.18.15,0,.03-.42-.25-.89-.19-1.23.08-.11.1-.04.02.21-.19.26-.22.76-.4,1.08-.39.3-.04.86.09,1.15.26.04.02,0,0-.05-.02-.11-.05-.33-.05-.26-.05.54-.07,1.36.49,1.52.8,0,0-.18-.2-.5-.29-.16-.04-.25-.05-.41-.03-.27-.02-.79.36-.78.44.19-.38.8-.98,1.47-.99.18-.01.06,0,.09,0h-.04s-.09.03-.13.04c-.04.02-.08.03-.04.02.04-.02.15-.07.28-.11.6-.17,1.03-.16,1.59.1.27.15.27.15.12.08-.14-.06-.32-.06-.3-.05.03,0,0,0-.01.01.37-.14,1.35-.15,1.75.17.15.09,0,0-.14-.03-.14-.02-.16-.01-.19,0-.03,0-.19.06-.13.04.07-.03.39-.16.61-.17.57-.14,1.42.27,1.64.65.08.11.09.09-.07-.03-.36-.3-1.05-.14-1.24.15.61-1.02,2.23-1.13,2.83.11-.02-.03-.26-.26-.57-.29-.25-.05-.64.11-.75.26-.12.13-.09.14-.06.08.19-.38.6-.9,1.28-.96.34-.03-.09.05.42-.05.43-.07.9-.04,1.28.2.2.13.19.12.07.07-.05-.02-.12-.03-.15-.03-.03,0-.12,0,.08,0,.27,0,.65.16.82.31.17.14.2.18.1.11-.12-.06-.26-.09-.36-.07-.2,0-.46.19-.48.25-.04.06,0,.03.06-.07.07-.09.17-.29.48-.5.33-.21.74-.24,1.02-.16.42.06.9.63.78.55-.06-.06-.28-.13-.37-.11.13,0,.08.02.42-.03.32-.03.67,0,.96.1.02,0,.07.01.17.01l.53.02c.14,0,.06,0-.01.04-.08.03-.11.09-.02.01.21-.26.93-.45,1.3-.23.36.17.46.41.56.58,0,0-.14-.09-.23-.08-.04,0,.07.01.07.01-.02.01.46-.12.65-.08.2,0,.48.06.56.07.04.01.19.01.14.02-.02,0-.07.05-.03.03.29-.36,1.01-.47,1.42-.1.02.03.17.04.23.03.04,0,.18-.07.31-.09.42-.06.15.12.61-.22.26-.15.61-.1.8.1.16.19.19.29.27.31.27.02.71.17.99.11.15-.05.33-.15.51-.12-.19.01-.3.13-.46.23-.39.16-.68.08-1.09.14-.4-.01-.46-.46-.71-.28-.03,0-.16.3-.51.39-.33.06-.19.03-.42.15-.26.18-.84.14-1.09-.01-.03,0-.03,0-.07.01-.05.05.14-.08-.08.14-.09.1-.3.24-.49.27-.63.1-.66-.08-1.24.17-.59.2-1.08-.09-1.37-.51-.03-.04-.03,0,.08.07.08.04.16.06.24.05.07,0,.15-.07.1-.02-.03.04-.2.22-.44.32-.24.1-.5.1-.53.11-.34.03-.93.1-1.25,0-.22.02-.57.14-.85.14-.39.07-.98-.33-1.14-.55-.02-.01.1.12.27.16.11.04.34.03.52-.08.16-.11.17-.16.15-.1-.03.05-.07.17-.23.36-.49.66-1.58.6-2.11.09.03.04.24.13.34.13.11,0-.07,0-.18,0-.16.04-.85-.3-.79-.29.05.04.22.09.27.09.04,0-.04.01-.01.01.03,0-.03.02-.23.07-.12.03-.25.04-.37.05-.02,0-.12,0,0,0,.3-.01.57-.25.6-.3-.44,1.23-2.11,1.4-2.84.14-.02-.03,0,.05.23.21.11.07.29.12.42.13.15,0,.23,0,.37-.05.28-.1.4-.28.4-.26-.56,1.08-2.09,1.17-2.82.19-.04-.05.05.11.31.22.15.06.29.08.42.08.04,0,.2-.06.11-.02-.39.17-.81.26-1.34.17-.31-.05-.62-.24-.62-.24,0,0,.21.09.29.09.12,0,.02,0,.05,0-.41.13-.89.2-1.47,0-.32-.13-.46-.24-.35-.17.22.12.46.11.61.05-.15.08-.47.2-.67.22,0,0-.17.02-.17.02-.02,0-.18,0-.04,0,.31,0,.68-.26.74-.36.09-.1.06-.08-.01.05-.08.11-.22.39-.65.67-.7.51-1.94.15-2.31-.4-.12-.14-.16-.17-.04-.05.1.12.5.3.73.28-.13.04-.86-.1-1.06-.25-.04-.02,0,0,.06.03.15.05.25.06.33.06.14.01.47-.1.6-.22.12-.1.07-.05-.17.17-.24.21-.74.41-1.07.42-.45.11-1.38-.33-1.55-.58.03.07.49.29.71.25.34.05.91-.34.96-.48-.67,1.41-2.62,1.46-3.36.09-.03-.06-.03,0,.18.18.24.2.74.35,1.06.2.04-.02-.28.14-.55.19-.52.1-.76.03-1.16.03,0,0,.1,0,.1,0,.27.02.8-.36.8-.43-.08.17-.62.78-1.02.86-.87.37-1.97-.18-2.34-.92-.02.07.55.48.83.46.19.02.36,0,.55-.05.41-.14.59-.4.6-.43.03-.04-.01.03-.13.21-.68,1.16-2.53,1.16-3.22,0-.07-.12-.1-.13.02,0,.09.13.55.38.88.35-.09,0-.49-.02-.65-.04-.12,0,.08,0,.14-.02.35-.05.67-.33.71-.4-.04.1-.53.73-1.14.86-.52.21-1.49-.09-1.71-.31.05.05.38.16.52.14-.16,0-.3,0-.48-.04-.28-.05-.53-.16-.44-.13.08.02.2.04.2.03-.54.08-1.04.14-1.59-.07-.25-.1-.13-.05,0-.02.13.02.15.01.19.01.04,0,.22-.05.21-.06-.03.04-.74.26-.94.22.02,0,.2-.01.32-.06.29-.09.47-.31.44-.28-.02,0-.14.22-.52.46-.75.44-1.47.35-2.1-.02-.22-.15-.14-.07.06,0,.3.09.34.05.4.03-.43.18-1.45.14-1.82-.12.13.06.4.09.63-.01.22-.08.36-.24.27-.15-.07.07-.4.35-.79.46-.38.12-.89.08-1.2,0-.5.03-1.08-.22-1.4-.57-.04,0,.4.24.57.21.03,0,.11,0,.05,0-.19,0-.56-.04-.67-.06-.08,0,.07,0,.21-.04.13-.03.28-.11.37-.18.18-.15.17-.19.11-.1-.06.19-.83.8-1.25.77-.42.04-.66-.01-.97-.11-.1-.03.04,0,.06,0,0,0,.03,0,0,0-.22,0-.49-.02-.67-.05-.19,0-.39-.01-.59-.07-.28-.08-.48-.2-.39-.16.15.04.2.04.31,0,.08-.04,0,0-.25.08-.5.11-.81.1-1.3-.06-.38-.15.02,0,.15-.07.39-.07.67-.52.2,0-.2.2-.65.41-.98.41-.23,0-.41,0-.66-.08-.25-.08-.31-.12-.22-.09.05.01.16,0,.04,0-.16,0-.41-.03-.61-.11-.24-.09-.12-.04-.05-.05.04,0-.07,0-.2-.01-.23-.01-.56-.13-.7-.23-.14-.09-.04-.02.06,0,.32.02-.25,0-.43-.05-.08-.02-.07-.02-.12-.03h-.04s-.04,0,.03,0c.08,0,.2-.05.28-.1.17-.12.18-.19.15-.14-.04.04-.11.17-.3.36-.37.39-1.05.47-1.56.23-.22-.11-.23-.12-.16-.1.06.02.12,0,.08,0h-.08s-.2.04-.36.05c-.31.03-.71,0-.95-.13-.07-.02-.28,0-.4-.05-.25-.06-.47-.23-.52-.28-.07-.05.02,0,.09.01.08,0,.16-.01.25-.06.13-.07.14-.14.11-.1-.03.03-.09.13-.24.29-.13.15-.46.34-.73.33-.22,0-.25-.01-.51,0-.09,0-.25,0-.26,0-.03,0,.02-.02,0-.02-.01,0-.19.1-.37.14-.21.03-.24.07-.61-.01-.44-.18-.5-.43-.63-.71-.06-.16-.05-.08.07-.05.05.02.14,0,.07,0-.19-.02-.24.04-.47.06-.37.05-.7-.12-1.05-.13-.11,0-.41.1-.55.08-.37,0-.66-.18-1-.13-.11.03-.44.08-.54.05-.13-.02-.37.41-.6.41-.3,0-.52-.09-.8-.1h0Z"/><path class="cls-3" d="m76.16,72.18c.33-.01.79-.29,1.07,0,.25.26.27.45.62.24.11-.1.47-.17.55-.18.13-.06.24-.18.44-.23.22-.08.59-.04.77.09.09.05.1.05.12.04,0,0,.07-.02.03-.02-.08.04-.05-.01.13-.27.09-.12.3-.27.51-.29.26-.06.65.04.81,0,.24-.07.76.17.7.13,0,0,0-.01.04-.02.47-.08.71-.1,1.23-.2.45-.05.99-.16,1.46-.1.52-.04.61.03,1.18-.01.44.02.75-.08,1.18-.11.01,0-.05,0-.08,0-.02,0,.15-.1.37-.16.2-.06.41-.07.5-.07,2.24-.07,2.12.55,3.82,0,.42-.07.74-.09,1.18.07.25.11.28.13.17.07-.28-.12-.62.02-.8.18-.08.08-.05.04.07-.11.11-.15.46-.45.86-.54.54-.21,1.47.17,1.72.52.06.06,0-.04-.23-.15-.21-.1-.5-.08-.33-.09l.16-.02c.12-.02.35-.04.49-.04-.04,0-.1,0-.18.02-.16.03-.36.17-.3.13.54-.56,1.78-.63,2.38-.11.14.11.06.02-.13-.06-.35-.12-.59-.04-.82.1-.05.05.12-.13.45-.29.14-.09.71-.19.75-.18-.01,0-.14.02-.19.04-.06.03.18-.1.44-.16.18-.05.36-.06.53-.07.37-.03.67-.1,1.06-.04.33.04.73.26.83.34.13.09-.04-.05-.23-.1-.09-.03-.18-.03-.23-.04,0,0-.04,0-.04,0,.3-.03.83.1,1.04.22.15.07-.05-.04-.17-.05-.2-.04-.36,0-.58.07-.37.16-.49.38-.51.39-.01.03.02-.05.13-.22.07-.2.77-.83,1.28-.84.33-.08,1,.05,1.18.14-.15-.04-.2-.07-.43-.01-.14.04-.28.13-.07,0,.39-.22.94-.31,1.39-.22.51.04,1.16.67,1.27.93.06.11.09.14.02.05-.04-.08-.38-.38-.79-.41-.34-.04-.62.06-.87.23-.21.17-.21.22-.14.12.07-.08.22-.34.64-.6.78-.39,1.08-.26,1.62-.19.13.03,0,0,0,0,.05,0,.31-.01.38-.01.07,0,.54-.03.2,0-.12.02-.28.11-.1.02.6-.36,1.77-.26,2.25.15-.09-.09-.55-.21-.72-.14-.13.03-.3.13-.12.03.17-.1.55-.22.79-.24.12-.03.75-.04,1.18.22.43.25.59.5.66.58.06.09.07.06-.12-.1-.15-.15-.63-.27-.73-.24,0,0,.53,0,.53,0,.02,0,.16,0,.15,0-.18-.01-.54.15-.6.22-.06.06.11-.13.46-.31.64-.29.94-.21,1.48-.19.12,0,.16-.01.46.02.4.04.86.32,1.01.47.17.16.18.15,0,.03-.43-.29-1.04-.19-1.38.13-.13.13-.1.11.03-.05.13-.24.91-.74,1.4-.7.06,0,0,0,.02,0-.02,0-.05,0-.1.01-.09.01-.27.1-.11.03.6-.23,1-.35,1.81-.03.42.21.6.47.67.53.07.09.02,0-.21-.15-.11-.06-.27-.12-.41-.14-.06,0-.12-.01-.18-.01,0,0,.11,0,.11,0,.17,0,.45.04.63.09.19.06.07.02.02.02-.14,0,.15,0,.25,0h.29s.14,0,.14,0c0,0-.07.01-.07.01-.07,0-.25.09-.16.05.53-.29,1.2-.22,1.79-.18.44-.03.76-.1,1.28.05.29.1.46.2.35.15-.09-.04-.24-.06-.27-.05-.09-.03-.6.22-.09-.02.53-.25,1.1-.17,1.56-.1.14,0,.34.01.53.05.21.05.19.05.16.04-.01,0-.01,0-.01,0,.06,0-.08,0-.11.01-.23.03-.5.22-.54.28-.05.06-.01.01.14-.16.16-.23.76-.59,1.2-.57,0,0,.1,0,.1,0,0,0,.15,0,.15,0l.48.03c.05,0-.12.01-.23.07-.13.07-.14.09.07-.05.21-.13.56-.24.79-.24.05,0,.39-.02.62.07.26.08.45.23.57.35.44.49.41.67.45.69-.01,0-.03-.1-.33-.26-.15-.07-.34-.1-.48-.09-.2-.03-.65.28-.62.34.54-1.04,1.95-1.23,2.64-.21.05.08.05.04-.09-.05-.14-.11-.44-.14-.51-.11-.28.03-.58.38-.1-.05.54-.46,1.59-.3,1.97.18-.02-.02-.2-.1-.3-.1-.09,0-.11,0-.23.05-.1.05-.14.1-.02.01.42-.4,1.43-.38,1.83,0,.06.04-.07-.03-.14-.03-.08,0-.19.02-.29.07-.15.08-.18.16-.15.13.03-.03.09-.13.25-.29.19-.23.67-.4,1.02-.35.09,0,.38-.04.6-.02.34,0,.69.18.81.32-.04-.02-.12-.02-.12-.01.21-.05.79.22.86.36,0,0-.1-.03-.12-.02-.02,0,.09,0,.1.01.03,0,.07,0,.21-.03.2-.04.36-.03.55-.02.04,0,.43-.08.59-.05.05,0-.11.1.24-.1.77-.25.96.06,1.27.03.28,0,.56.27.67.45.03.05.02.04.01.05,0,0,.02.02.02.02.02.04.11-.12.37-.28.11-.08.35-.08.36-.07.04,0,.06,0,.11-.02.08-.06.35-.27.58-.23.22,0,.44.17.53.25.1.09.27.07.45.12.17.05.32.12.5.12-.17.03-.35,0-.51,0-.15,0-.34.07-.55-.02-.2-.1-.27-.13-.41-.11-.17.03-.36.41-.64.42-.16.02-.1.02-.13.04-.33.58-.92.66-1.43.11-.03,0,.01.03.02.03-.22.04-.53-.02-.73.01-.03,0-.02.02-.01.02,0,0-.05.06-.2.15-.15.09-.34.14-.48.15-.19.02-.12.03-.42.11-.12.03-.26.04-.34.05-.4.15-1.01.29-1.41,0-.15-.1-.2-.13-.16-.09.03.03.14.05.11.05-.17.01-.42-.02-.61-.12-.33-.19-.28-.13-.11-.08-.12.01-.16.03-.41.07-.1.02-.27.03-.28.03.12,0,.31-.1.34-.14.04-.04.01,0-.06.11-.33.62-1.34.79-1.91.36-.11-.07-.02,0,.06.03.09.02.09.03.16.02.07,0,.21-.08.19-.06-.41.47-1.45.55-1.93.11-.15-.12-.18-.13-.09-.06.25.14.46.13.69-.02-.26.42-1.27.76-1.92.29-.29-.19-.4-.37-.45-.42-.05-.06-.04-.01.11.1.17.11.38.16.61.11.28-.06.45-.25.47-.28-.47,1.13-2.06,1.26-2.69.17-.15-.27-.28-.42-.09-.18.06.06.18.16.36.22.16.06.4.05.37.05.06,0,.24-.05.31-.09.07-.05-.07.09-.36.22-.27.13-.61.16-.73.16l-.54.02h-.1s-.06,0-.03.01c.05,0,.1,0,.15-.02.37-.04.75-.56.32-.03-.15.19-.57.48-.97.53-.22.06-.89-.01-.98-.05.02,0,.05.01.03.01-.07,0-.25,0-.4,0-.27-.02-.21-.03-.32-.02.03,0,.16-.01.26-.06-.29.25-1.28.42-1.82.15-.27-.12-.25-.1-.12-.05.11.04.24.04.2.04-.37.05-.77.11-1.2.07-.14,0-.11,0-.22,0-.02,0,.02,0,.05,0,.05,0,.25-.07.19-.05-.35.23-1.13.27-1.6.3-.06,0-.25.02-.47,0-.28-.03-.67-.14-.35-.08-.52.09-1.38-.43-1.55-.73-.04-.06.02.06.29.2.48.19.57.13.82.05,0,0-.33.16-.59.21-.14.03-.32.04-.4.05.28,0,.65-.18.81-.37-.64.99-2.22,1.11-3.01.23.02.04.33.23.56.25.34.02.02.01-.05.01-.1,0-.36-.01-.46-.01-.06,0,.25-.01.42-.11.19-.1.24-.17.05,0-.3.27-.96.48-1.42.44,0,0-.49,0-.49,0h-.04c-.62.06-1.4-.46-1.64-.84-.03-.05.02.07.29.23.52.24.7.17.99.06-.16.14-1.01.37-1.39.28-.31-.02-.75-.21-.9-.33-.17-.12-.04,0,.17.06.34.08.41.05.64-.04.03-.02-.28.15-.57.21-.28.06-.53.06-.56.06-.13,0-.38,0-.51,0-.23.02-.74-.03-.88-.08-.03,0,.06,0,.05,0-.14,0,.3.01.57-.17.27-.17.32-.29.29-.24-.81,1.26-2.67,1.12-3.31-.18-.01-.04-.01.03.22.21.27.22.82.34,1.15.14.06-.04-.23.15-.53.23-.57.14-.95.1-1.43-.06-.17-.06,0,0,.08,0,.11.02.34-.01.5-.08.38-.16.51-.39.52-.4-.12.28-.73,1-1.39,1.05-.39.1-1.15-.1-1.34-.24-.02,0,.21.08.29.07.02,0,.05,0,.07,0-.19,0-.36-.01-.58-.07-.35-.09-.67-.34-.67-.34-.04-.02.21.12.37.13.07.01.16.01.16,0,0,0-.09,0-.09,0l-.53.02c-.16,0-.04,0,.02-.02.09-.02.18-.07-.03.02-.21.09-.51.14-.69.15-.16,0-.05,0,0,0,.07-.01.16-.04.24-.08.17-.09.22-.15.03,0-.62.49-1.71.49-2.35-.08.15.11.5.22.77.1.17-.06.32-.19.21-.11-.11.15-.85.48-1.18.43,0,0-.09,0-.09,0h-.18c-.42.01-.51.12-1.18-.11-.38-.17-.57-.4-.63-.46-.05-.07.02.04.24.13.24.09.37.09.58.04.23-.05.44-.25.44-.27-.36.53-1.29.91-2.02.6-.58-.26-.2-.09-.06-.11-.02,0-.06,0-.06,0,.07-.01-.55.09-.66.07-.03,0,0,0,.02-.02.02-.01-.16.05-.36.08-.38.05-.65.04-1.01-.06-.28-.06.23-.01-.32-.05-.2-.01-.52-.12-.62-.18-.14-.06.1.02.13,0-.19,0-.55-.05-.67-.1-.07-.02.09-.02-.26-.03-.2-.01-.32-.04-.47-.06-.09,0-.04,0,0-.02.05-.02.08-.04-.1.03-.27.11-.55.12-.81.11-.23.02-.89.02-1.13-.04-.16-.02-.42-.01-.62-.06-.25-.05-.1-.05-.37-.06-.17,0-.37-.04-.53-.08-.61-.05-1.29-.02-1.95-.03,0,0-.29,0-.29,0-.12,0-.3-.02-.47-.09-.37-.17-.16-.12-.27-.15-.2,0-.56-.09-.59-.11-.02-.01-.14-.02-.12-.03.03,0,.09-.06.07-.05-.05-.01-.16.3-.59.43-.33.08-.62-.05-.81-.21-.06-.04-.05-.05-.08-.06-.02-.01-.09-.02-.13-.02-.04,0-.06,0-.15.04-.09.04-.23.1-.35.1-.27,0-.25-.02-.44.04-.21.05-.42.12-.69-.05-.19-.18-.22-.35-.3-.47-.15-.25-.62-.09-.89-.16h0Z"/><path class="cls-3" d="m64.2,224.21c.39,0,.46.64.82.47.13-.07.18-.25.27-.41.2-.45.7-.18,1.02-.18.2-.04.42.15.52.31.38.55.42-.15.72-.39.11-.09.28-.09.34-.1,0,0,.53-.04.53-.04.15-.04.5.04.61.15.06.03.1.04.16.05.02,0,.24,0,.35.07.46.38.38.41.5.23.08-.12.09-.33.4-.53.59-.23.65.23,1.09.14.1,0,.33-.1.54-.1.19-.05.58.11.63.15.14.03.29,0,.44.02.1.01.38.04.43.02,0,.02.02-.03.23-.26.11-.1.3-.19.46-.19.39-.07.71.47.78.54-.13-.03.15-.01.28-.04.69-.08.12.09.76-.39.32-.17.67-.1.92.06.21.11,0,.05.28.06.43.05.86.05,1.3.04,0-.01-.09.03-.08.03.04,0,.06-.23.42-.49.2-.14.51-.11.74-.12.2.02.27-.07.71.04.19.07.3.18.35.22.05.03.01,0,0,0-.07,0,.17-.02.34.04.19.06.32.17.37.2.05.03.01,0,.01,0,.05,0-.07,0-.11.04-.04.06.04-.1.22-.35.09-.13.34-.3.58-.3.19-.02.44.06.59.18.27.26.31.29.2.23-.14-.02.43,0,.45,0,0,0,.22,0,.22,0,.03-.01-.1.03-.09.04.01.04.06-.22.48-.47.24-.1.42-.1.62-.05.21.06.38.2.44.27.08.08.09.08.06.06-.03-.02-.11-.01.02-.02.22-.01.47-.06.7-.06.24-.03.63.22.71.34.06.07.07.06.03.04-.05-.02-.09-.01.04-.02l.53-.03c.18-.01-.04,0-.08.06-.05.04-.01.02.01-.04.26-.76,1.15-.98,1.67-.31.05.06.05.04,0,.01-.03,0-.05-.01-.07-.01.1-.01.04,0,.16-.05.35-.2,1.05-.14,1.31.17.05.04,0,0-.03,0,0,0-.05,0-.12.03-.06.04-.04.04,0-.03.05-.06.11-.19.29-.33.24-.21.62-.19.89-.18,0,0,.24,0,.24,0,.3-.06.77.15.9.35.14.15.06.04-.02.04,0,0-.04,0-.09,0-.12.03-.15.1-.13.07.07-.04.06-.29.5-.6.29-.19.8-.11,1.05.03.09.04-.05,0,.32.03.13.01.29.05.33.06.18.03.4-.01.66.12.18.1.27.19.29.19-.03,0-.05-.05-.18.03-.03.03,0,0,.07-.09.43-.63,1.3-.53,1.67.12,0,0-.11-.06-.15-.05.13,0,.09,0,.42-.08.11-.02.32-.03.3-.03,0,0-.05.02-.02,0,.02,0,.14-.12.32-.21.39-.16.7-.07,1.05,0,0,0,.47,0,.63.08.1.04.1,0,.45.04.15.02.29.07.32.08.03,0,.06.01.12.01.01-.01-.12.04-.12.05.14-.18.18-.31.48-.47.23-.11.44-.11.66-.04.47.2.55.49.54.44,0-.02-.15-.04-.08-.03.15-.02.5.09.61.13.2.03.41-.07.64-.09,0,0,.19-.01.17,0-.02,0-.04.03.03-.03.09-.11.47-.3.68-.28,0,0,.04,0,.04,0,.01,0-.01.01.07-.04.24-.16.6-.25.94-.14.2.06.34.2.39.25.06.06.05.03.02.03-.04,0,0,0,.03,0,.01,0,0,.01.08-.04.24-.2.74-.19,1.03-.19.26,0,.52-.05.79.13.16.11.24.21.27.24.04.04,0,0-.02,0-.04,0,.05,0,.07,0,.03,0,.04,0,.17-.06.16-.08.44-.09.55-.1-.04.02.38-.22.63-.19.38-.02.55.14.81.13.18-.02.48.13.59.2,0,0,.06.01.1,0,.13-.02.2-.14.43-.19.38-.06.34-.01.5-.07.48-.12.7-.07,1.17-.12.17,0,.09,0,.39-.11.14-.05.26-.06.39-.05.16,0,.36.08.46.18.23.22.22.23.23.22.02,0,0,0,0,0,0,0,.05-.05.11-.13.09-.16.46-.48.85-.3.36.21.37.43.46.54.03.06.07.09.05.08,0,0-.02,0-.03,0,.18-.01.26-.22.49-.27.4-.13.71.12,1.06.07.1-.05.38-.21.53-.2.21-.05.56.11.64.2.07.06.21.07.27.04.07,0,.2-.25.49-.31.23-.06.52.06.65.18.12.1.16.05.45.12.41.19.44.43.79.12.06-.06.16-.14.28-.17.13-.04.22-.01.26-.03.12-.01.21-.19.44-.28.2-.07.45-.01.59.13.14.13.23.17.44.17.21.02.34.18.49.22.39.17.52-.42.87-.41-.38.03-.4.64-.89.5-.2-.04-.33-.18-.48-.17-.15.03-.42-.04-.53-.16-.4-.27-.46.07-.84.25-.54.02-.42.47-1.01.41-.26-.03-.41-.23-.49-.23-.05-.01-.39.02-.56-.13-.39-.22-.32-.07-.7.21-.25.14-.52.11-.74-.02-.22-.14-.29-.15-.48-.05-.25.2-.67.24-.97.16-.21-.03-.32-.08-.47.07-.18.19-.57.33-.83.17-.2-.07-.46-.57-.49-.58.05.04.05-.04-.04.09-.33.57-.98.53-1.35.06-.04-.01-.12,0-.15.02-.25.18-.74.18-1.12.24-.24.02-.3,0-.43.06-.17.09-.57.1-.54.1-.35.28-.92.32-1.29.07-.08-.03-.24,0-.41-.03-.32-.08-.27-.08-.42-.08-.11.01,0,0-.36.16-.22.08-.35.04-.49.1-.19.11-.48.19-.78.14-.25-.02-.51-.28-.6-.36,0,.02.1.03.02.02-.18,0-.57.02-.72.03-.24.15-.59.31-.96.2-.2-.05-.36-.18-.43-.24-.08-.07-.07-.05-.04-.04.04,0,.02,0-.01,0-.12.09-.47.25-.69.24,0,0,0,0,0,0,.02,0,.04-.03-.03.03-.3.29-.55.24-.95.33-.28.1-.83.08-1.08-.05-.16-.01-.49-.02-.67-.19-.28-.27-.35-.35-.24-.27.06.07.28-.11.16,0-.04.05-.1.16-.24.3-.31.32-.84.25-1.2.14-.53.02-.49-.1-1.02-.1-.22-.01-.32-.08-.48-.08-.15.04.12-.09-.14.09-.18.15-.49.21-.73.22-.02,0-.39.12-.62.11-.35.04-.72-.3-.86-.52-.04-.05-.03-.01.05.02.09.03.11.02.18,0,.11-.1.05.02-.26.31-.46.36-1.05.16-1.32-.1.01.01.1.02,0,.02-.14.02-.46-.05-.58-.07-.26.02-.59-.05-.79-.17-.08,0,.08-.01.11-.04.14-.12.02,0-.12.24-.08.11-.25.32-.54.39-.37.13-.86-.15-1.02-.38-.05-.06-.03-.02.03,0,.17.02-.07,0-.09,0,0,0-.29-.01-.29-.01h-.23c-.12,0,.08-.02.08-.05.04-.03,0,0-.05.07-.06.08-.15.22-.36.35-.23.13-.47.13-.64.1-.2-.03-.41-.16-.49-.24-.09-.08-.1-.07-.06-.06.04.01.05,0,0,0-.11.02-.28.13-.49.14-.31.09-.83-.14-.96-.35-.16-.18-.02.01.12-.06.22-.13.08-.07,0,.13-.05.09-.11.23-.3.38-.18.18-.59.2-.58.18-.34-.01-.61.09-1.02-.05-.21-.09-.33-.23-.39-.29-.1-.1,0-.01.03-.02,0,0-.07,0-.09,0-.46.06-1.05.14-1.39-.3-.06-.06-.04-.02,0-.02.03,0,.03.01.11-.01.1-.09.02.02-.23.3-.12.14-.43.23-.58.22-.36,0-.49,0-.91-.04-.48-.13-.61-.48-.61-.43.07.06.23-.01.23-.03-.04.01-.07.22-.39.51-.4.3-.93.12-1.17-.11,0,0,.06,0-.18-.02-.18-.02-.38-.14-.47-.22-.09-.08-.11-.09-.09-.08.1,0-.19,0-.34,0,0,0-.27,0-.27,0-.03,0-.12,0-.1,0,.02,0,.05-.01.06-.02.05-.07-.04.08-.24.33-.1.13-.38.25-.55.23-.44,0-.91,0-1.34-.09-.04,0-.19,0-.36-.04-.21-.05-.33-.18-.42-.21-.05,0-.03,0-.02-.01,0-.05-.07.15-.4.36-.18.09-.37.08-.42.08-.32,0-.65.13-1-.07-.3-.22-.34-.43-.39-.46-.02-.02.03,0,.03,0-.02,0,0,0-.02,0-.09.12-.34.38-.57.4-.3.03-.39,0-.62-.03-.2-.02-.41,0-.61-.08-.26-.12-.21-.12-.37-.12-.2-.04-.73.27-1.2-.08-.26-.14-.17-.21-.42.21-.08.23-.52.42-.76.27-.27-.15-.34-.35-.4-.38-.04-.02,0-.02-.16-.03-.28,0-.45-.28-.73-.24,0,0-.53,0-.53,0-.11,0-.13,0-.16.02-.2.16-.19.49-.57.6-.29.06-.48-.2-.55-.34-.1-.16-.15-.25-.31-.24-.35.02-.68-.31-.91.04-.1.13-.16.33-.35.42-.46.16-.47-.53-.86-.55h0Z"/><path class="cls-1" d="m126.01,104.42c.27.26.24.26.25.64s-.26.38-.25.76.56.61.3.88-.51.2-.89.21-.39-.25-.77-.24-.39-.16-.77-.15-.41-.03-.77.07c.2.13.63.02.81.16.19.14.38.32.55.46.18.16-.02.73.14.89.17.17.51.16.66.33.15.18.5.24.63.43.14.22.02.6.14.82s.35.41.44.65-.27.61-.21.86.05.47.08.72.67.45.67.7c0,.28-.48.54-.51.81s-.22.48-.29.75.45.72.34.98c-.1.25-.78.2-.91.42-.13.23.32.83.16,1.03s-.71.06-.9.24c-.16.14-.3.29-.5.42-.18.12-.19.54-.4.65-.19.1-.61-.25-.83-.15-.2.09-.4.45-.63.54.22.11.38.49.58.61s.35.29.54.43.65-.08.83.07.27.42.43.58.25.41.4.59.7.09.83.28c.15.22-.05.65.07.88s.35.41.44.65.27.47.33.72-.3.58-.26.83.56.47.56.73c0,.23-.63.44-.65.66s.69.55.65.77-.61.33-.68.54-.31.34-.4.54-.02.47-.14.66c-.12.19-.29.32-.43.49s-.14.47-.3.62-.38.23-.57.36-.34.28-.54.39-.32.36-.53.45c-.2.09-.58-.29-.83-.22-.22.07-.41.15-.66.2-.22.05-.34.72-.58.76-.23.04-.5-.1-.74-.07-.23.03-.46.17-.71.19-.23.02-.5-.42-.75-.41-.23.01-.46.43-.71.44-.37,0-.38-.56-.75-.55s-.35.59-.72.6-.37-.16-.74-.15-.37.04-.74.05-.37.07-.74.08-.37.15-.74.16-.39-.65-.76-.64-.37.11-.74.12-.36.28-.73.28-.37.18-.74.19-.38-.48-.75-.47-.37.23-.74.24-.68.6-.94.33-.15-.58-.16-.97.14-.39.13-.78-.19-.59.07-.87.48.2.84.19.36-.35.73-.36.38.2.75.2.36-.25.73-.26.38.57.75.56.37-.11.74-.12.36-.3.73-.31.38.39.75.38.36-.2.73-.21.38.21.75.2.36-.5.73-.51.38.18.75.17.36-.4.73-.41c.28,0,.54.25.8.24.28-.01.53-.12.78-.14.28-.02.53-.07.77-.1.29-.04.65.46.88.41.3-.06.58-.23.78-.31.23-.1.31-.54.51-.68s.27-.4.44-.58.5-.21.63-.43c.14-.23.33-.46.42-.72s.15-.54.19-.81c.04-.26-.21-.54-.22-.82,0-.27-.05-.51-.1-.77s-.21-.46-.3-.71.28-.7.15-.94-.71-.16-.87-.38c-.13-.18-.23-.34-.38-.5s-.04-.59-.21-.73-.28-.41-.46-.53-.41-.23-.61-.32-.45-.11-.67-.18c-.2-.07-.43-.15-.67-.21-.21-.05-.43-.14-.67-.18-.21-.03-.43-.22-.67-.25-.22-.02-.48.26-.72.24-.22-.01-.46.19-.69.18-.22,0-.44-.46-.68-.46-.22,0-.46.21-.69.21-.22,0-.45.34-.68.35-.34,0-.34.07-.69.07s-.35-.22-.69-.21-.34.16-.69.17-.35-.35-.7-.34-.35-.12-.69-.11-.34.02-.69.03-.34.18-.69.19-.34.39-.68.4-.36-.5-.71-.5-.63.67-.88.42c-.26-.27.18-.56.17-.94s.31-.39.3-.76-.55-.43-.3-.71c.23-.26.3-.3.64-.31s.35.23.7.22.34-.24.69-.25.35.12.7.11.36.49.7.48.33-.51.68-.52.35.05.69.04.35-.05.69-.06.34-.07.69-.08.36.36.7.35.34-.51.68-.52.35.03.7.02.35-.06.7-.07c.25,0,.51.52.74.51.25-.01.49-.23.72-.24.26-.02.49-.15.72-.17.26-.02.53.2.75.17.27-.04.46-.34.68-.38.27-.06.46-.18.65-.25.25-.09.43-.22.64-.36s.58-.07.77-.25.29-.43.44-.65c.15-.23.08-.55.18-.81s0-.5.03-.78c.04-.26.06-.47.05-.76,0-.26.05-.48,0-.74s.5-.68.42-.93-.65-.3-.78-.53.14-.72-.01-.93c-.13-.18-.72,0-.86-.15s-.11-.5-.28-.64-.4-.2-.58-.33-.51.06-.71-.05-.31-.31-.52-.39c-.2-.08-.29-.6-.53-.66-.22-.05-.48-.04-.73-.08-.22-.04-.49.12-.74.1-.23-.02-.45-.17-.7-.19-.23-.01-.46-.21-.71-.22-.23,0-.48.36-.72.36-.23,0-.47-.04-.72-.04-.37,0-.37-.07-.75-.06s-.36.39-.73.4-.38-.2-.75-.19-.38-.24-.75-.23-.37-.09-.75-.08-.36.56-.73.57-.38-.34-.76-.33-.38-.24-.75-.23-.38,0-.75.01-.45.58-.73.32.3-.37.29-.74-.54-.36-.55-.74-.12-.53.13-.81.41-.04.78-.05.37.23.74.22.37.15.74.14.36-.15.73-.16.36-.35.72-.36.37.31.74.3.35-.54.71-.55.38.67.75.66.35-.51.72-.52.36-.16.73-.17.37-.01.73-.02.37.26.74.25.38.45.74.44.37-.05.73-.06.35-.57.72-.58.38.55.75.54.35-.54.72-.55.37.12.74.11.38.31.74.3.37,0,.73,0,.35-.56.72-.57.37-.08.74-.08.43.67.8.61c.33-.05.32-.45.58-.19Z"/><path class="cls-1" d="m127.24,152.86c-.25.27-.25.24-.61.25s-.37-.26-.74-.25-.36.34-.72.35-.36.14-.73.15-.37-.25-.74-.24-.37-.16-.73-.15-.36.06-.73.07-.35.44-.72.45-.37,0-.73,0-.38-.55-.75-.54-.36.27-.73.28-.36.26-.73.26-.37-.28-.74-.27-.36.15-.73.15-.38-.45-.75-.44-.37-.05-.74-.04-.35.63-.72.63-.38-.47-.75-.46-.37-.14-.74-.13-.35.64-.72.65-.38-.63-.75-.62-.35.72-.72.73-.38-.49-.75-.49-.36.34-.63.08-.31-.25-.32-.62.49-.39.48-.76-.5-.39-.24-.66.3.22.68.21.38.05.76.04.37-.47.75-.48.41.22.77.12c-.19-.14-.28-.46-.45-.61s-.69.04-.85-.12-.05-.61-.2-.78-.4-.27-.54-.46-.35-.33-.47-.53.13-.6.02-.81c-.1-.2-.65-.18-.74-.39s.42-.63.35-.84-.85-.22-.9-.43.41-.55.38-.77.11-.44.09-.67-.22-.42-.23-.64c0-.24.06-.47.07-.7s-.17-.49-.14-.72.15-.46.2-.69.08-.47.14-.69-.01-.51.08-.73.63-.23.73-.44.18-.41.31-.61-.28-.75-.14-.95.43-.29.58-.47.23-.45.4-.62c.17-.18.66-.02.84-.18s.11-.64.3-.78.72.18.92.05.12-.75.33-.87.52-.07.74-.17.44-.21.68-.29.45-.2.69-.26.46-.25.7-.29.56.59.81.56.46-.13.7-.14c.24,0,.48-.27.72-.26s.5-.14.74-.11.39.55.63.6.51-.11.74-.05.59-.23.82-.15.49.14.71.24.38.36.59.48.39.3.59.44.23.49.42.64.59.05.77.22c.18.17.2.49.36.67s.51.21.66.39-.18.72-.04.92.33.33.45.54.48.29.58.5-.19.58-.11.8.32.38.38.61-.11.49-.07.73.56.39.59.63-.15.49-.14.73c0,.23.4.47.39.69s-.29.45-.32.67.02.47-.02.69-.08.46-.15.68-.66.25-.74.46-.08.42-.18.63c-.1.21.1.57-.02.77s-.13.48-.27.67-.48.22-.63.4-.35.29-.52.46-.32.32-.5.47-.26.19-.45.33c.4.08.36-.04.77-.05s.4-.12.81-.13.42.51.82.5.71-.73,1.02-.47c.28.24.09.61.1.98s-.43.4-.37.77c.05.34.25.35,0,.62Zm-1.68-8.91c0-.25-.31-.47-.34-.71s.19-.53.14-.77-.44-.38-.52-.61-.28-.38-.39-.6.01-.54-.12-.75c-.13-.21-.13-.51-.28-.71s-.36-.35-.53-.53-.63-.01-.82-.17-.34-.29-.55-.43-.12-.74-.34-.85c-.22-.12-.56,0-.79-.09s-.53.06-.77-.01-.4-.4-.64-.45-.5.06-.75.04-.49-.49-.74-.48c-.25,0-.54-.03-.78,0s-.38.68-.63.74-.61-.33-.85-.24-.55.05-.77.16-.15.78-.36.91c-.22.13-.78-.26-.98-.12s.05.86-.13,1.02-.71-.01-.88.17-.31.41-.46.61.02.6-.1.81c-.12.21-.67.22-.77.44s0,.54-.08.77-.32.44-.36.68-.14.5-.16.75.43.51.44.75c0,.25-.11.5-.08.74s-.02.52.04.75.6.32.68.56-.19.59-.08.82.34.37.46.59c.13.21.33.35.47.55s-.02.66.14.83.69-.01.87.14,0,.81.2.95.79-.38,1.01-.26c.22.12.22.69.45.79s.44.35.68.41.55-.06.8-.02.5.13.76.15.51-.18.76-.19c.24,0,.48.07.71.04s.47-.09.7-.14.42-.26.64-.33.63.31.84.22.45-.23.66-.35.07-.78.27-.92.46-.13.64-.28.25-.39.42-.56c.16-.17.65-.04.8-.21s-.05-.61.07-.8.74-.11.84-.32-.33-.66-.25-.87.31-.37.36-.59.07-.44.11-.67,0-.45.01-.68.32-.45.31-.69Z"/><path class="cls-1" d="m127.35,157.33c.27.27.24.27.25.65s-.26.39-.25.78.55.58.31.88c-.2.25-.46.21-.78.22s-.33-.25-.65-.24-.33-.16-.65-.15-.36-.05-.66.07c.23.15.7.05.9.21.22.16.44.37.63.54.21.18,0,.77.18.96.18.2.55.24.69.45.12.18.46.25.55.44s-.07.52,0,.72.26.38.3.59-.4.45-.39.67c0,.23-.07.38-.12.62-.04.22.49.6.4.83-.08.21-.36.11-.48.33-.37-.08-.18-.29-.5-.48s-.64.36-.97.17.02-.59-.24-.86c.09-.21-.44-.23-.39-.41.06-.23.58-.36.57-.54,0-.27-.08-.58-.17-.84-.08-.25-.51-.34-.66-.58-.14-.22.08-.74-.11-.95-.15-.16-.47-.19-.65-.33-.17-.13-.28-.43-.48-.54-.19-.1-.39-.27-.6-.36-.2-.08-.58.26-.8.19-.21-.07-.38-.26-.61-.32-.21-.05-.45-.2-.74-.24-.23-.03-.53.44-.81.42-.23-.02-.46-.42-.73-.43-.24-.01-.5.11-.77.11-.24,0-.5.08-.76.08-.24,0-.5-.42-.76-.42-.25,0-.5.51-.76.51-.25,0-.52-.62-.78-.61-.37,0-.35.76-.73.77s-.38-.52-.76-.51-.38-.17-.75-.16-.37.2-.74.21-.37-.05-.75-.04-.37.21-.74.22-.38-.08-.75-.07-.44.33-.71.07-.16-.34-.17-.73.48-.4.47-.78-.4-.24-.14-.53c.25-.27.1-.54.47-.55s.37.16.74.15.36-.13.73-.14.38.45.74.44.36-.42.72-.43.38.56.74.55.35-.59.71-.6.37.16.73.15.37-.04.73-.05.37-.07.73-.08.36-.15.73-.16.38.65.75.64.36-.11.73-.12.36-.28.73-.28.36-.18.73-.19.38.48.75.47.36-.23.73-.24.36-.41.73-.42.37-.07.73-.08.37.14.74.13.37.04.74.03.38.25.75.24.34-.3.7-.36c.33-.06.4.06.66.32Z"/><path class="cls-1" d="m126.09,176.8c-.32-.14-.4,0-.66-.23s-.08-.43-.33-.67-.61.03-.78-.28c.16-.17.22-.63.36-.8.15-.18.48-.2.6-.39.13-.2.39-.31.49-.5.11-.21.15-.45.23-.65.08-.22-.29-.52-.26-.74s.07-.38.06-.6c0-.24.51-.53.46-.75s-.39-.36-.51-.56-.42-.2-.59-.37c-.16-.16-.11-.5-.29-.61-.19-.12-.41-.07-.62-.13s-.38-.54-.6-.53c-.3,0-.73.05-1.01.17-.26.11-.19.8-.44,1.01-.14.12-.64-.04-.79.16-.12.16-.39.27-.52.48-.11.17.31.69.2.9-.1.18-.77.08-.88.28-.1.19.43.71.33.92-.11.22-.67.21-.77.41-.12.22-.21.43-.33.63-.13.22.05.6-.08.8-.14.21-.68.12-.81.3-.15.2-.15.49-.3.66-.17.19-.45.19-.62.32-.2.15-.39.21-.61.32s-.24.63-.47.71-.51.01-.75.05-.48-.04-.73-.03c-.23,0-.49.49-.71.47s-.41-.44-.63-.49-.48,0-.69-.07-.47-.1-.67-.21-.15-.58-.34-.72-.68.1-.84-.06c-.17-.17.14-.76,0-.94s-.89.05-1.01-.15.24-.66.15-.88.01-.46-.05-.69-.28-.39-.32-.62.02-.45,0-.69c0-.25-.2-.5-.18-.75s.14-.48.19-.73.08-.49.16-.73.01-.53.12-.77c.1-.23.64-.21.77-.42s.21-.4.36-.6-.18-.8-.01-.98.61-.26.8-.42c.33.14.39.16.66.39s-.02.58.26.81.68-.11.86.2c-.18.17-.8.19-.95.37-.17.18.13.74,0,.93-.15.2-.41.3-.52.5-.12.22-.18.44-.26.66s-.08.46-.12.69.09.44.1.68c0,.22-.63.51-.59.71.04.21.21.45.29.64s.42.29.54.47.37.22.52.38c.19.2.1.75.31.89.23.14.61.08.86.14s.53-.3.79-.3c.22,0,.34-.08.54-.13s.39.03.58-.07.35-.15.51-.3c.14-.13.48-.12.64-.33.12-.16-.04-.54.1-.76.11-.18.41-.26.53-.48.1-.19,0-.5.11-.72.1-.2.72-.15.83-.37.1-.21.11-.45.22-.64.11-.21-.03-.55.08-.74.12-.21.58-.18.7-.36.13-.2.1-.48.23-.65.15-.19.44-.2.59-.35.17-.17,0-.68.16-.81.2-.15.51-.13.72-.24s.3-.58.53-.66.56.11.8.07.48-.15.73-.16c.26,0,.53-.01.77.01s.37.61.61.68.45.06.67.16.6-.09.8.06.5.2.68.37c.18.18.18.54.33.74s.22.45.34.67.21.44.28.69.39.43.43.69.09.52.09.78c0,.23.11.5.08.74s-.58.37-.63.6.38.61.29.83-.22.44-.32.65-.56.23-.68.43c-.12.19-.37.29-.51.48s-.25.37-.41.55-.05.36-.21.53Z"/><path class="cls-1" d="m100.29,86.78c.27.26.24.26.25.64s-.26.38-.25.76.56.61.3.88-.51.2-.89.21-.39-.25-.77-.24-.39-.16-.77-.15-.41-.03-.77.07c.2.13.63.02.81.16.19.14.38.32.55.46.18.16-.02.73.14.89.17.17.51.16.66.33.15.18.5.24.63.43.14.22.02.6.14.82s.35.41.44.65-.27.61-.21.86.05.47.08.72.67.45.67.7c0,.28-.48.54-.51.81s-.22.48-.29.75.45.72.34.98-.78.2-.91.42c-.13.23.32.83.16,1.03s-.71.06-.9.24c-.16.14-.3.29-.5.42-.18.12-.19.54-.4.65-.19.1-.61-.25-.83-.15-.2.09-.4.45-.63.54.22.11.38.49.58.61s.35.29.54.43.65-.08.83.07.27.42.43.58.25.41.4.59.7.09.83.28c.15.22-.05.65.07.88s.35.41.44.65.27.47.33.72-.3.58-.26.83.56.47.56.73c0,.23-.63.44-.65.66s.69.55.65.77-.61.33-.68.54-.31.34-.4.54-.02.47-.14.66c-.12.19-.29.32-.43.49s-.14.47-.3.62-.38.23-.57.36-.34.28-.54.39-.32.36-.53.45c-.2.09-.58-.29-.83-.22-.22.07-.41.15-.66.2-.22.05-.34.72-.58.76-.23.04-.5-.1-.74-.07-.23.03-.46.17-.71.19-.23.02-.5-.42-.75-.41-.23.01-.46.43-.71.44-.37,0-.38-.56-.75-.55s-.35.59-.72.6-.37-.16-.74-.15-.37.04-.74.05-.37.07-.74.08-.37.15-.74.16-.39-.65-.76-.64-.37.11-.74.12-.36.28-.73.28-.37.18-.74.19-.38-.48-.75-.47-.37.23-.74.24-.68.6-.94.33-.15-.58-.16-.97.14-.39.13-.78-.19-.59.07-.87.48.2.84.19.36-.35.73-.36.38.2.75.2.36-.25.73-.26.38.57.75.56.37-.11.74-.12.36-.3.73-.31.38.39.75.38.36-.2.73-.21.38.21.75.2.36-.5.73-.51.38.18.75.17.36-.4.73-.41c.28,0,.54.25.8.24.28-.01.53-.12.78-.14.28-.02.53-.07.77-.1.29-.04.65.46.88.41.3-.06.58-.23.78-.31.23-.1.31-.54.51-.68s.27-.4.44-.58.5-.21.63-.43c.14-.23.33-.46.42-.72s.15-.54.19-.81c.04-.26-.21-.54-.22-.82,0-.27-.06-.51-.1-.77s-.21-.46-.3-.71.28-.7.15-.94-.71-.17-.87-.38c-.13-.18-.23-.34-.38-.5s-.04-.59-.21-.73-.28-.41-.46-.53-.41-.23-.61-.32-.45-.11-.67-.18c-.2-.07-.43-.15-.67-.21-.21-.05-.43-.14-.67-.18-.21-.03-.43-.22-.67-.25-.22-.02-.48.26-.72.24-.22-.01-.46.19-.69.18-.22,0-.44-.46-.68-.46-.22,0-.46.21-.69.21-.22,0-.45.34-.68.35-.34,0-.34.07-.69.07s-.35-.22-.69-.21-.34.16-.69.17-.35-.35-.7-.34-.35-.12-.69-.11-.34.02-.69.03-.34.18-.69.19-.34.39-.68.4-.36-.5-.71-.5-.63.67-.88.42c-.26-.27.18-.56.17-.94s.31-.39.3-.76-.55-.43-.3-.71c.23-.26.3-.3.64-.31s.35.23.7.22.34-.24.69-.25.35.12.7.11.36.49.7.48.33-.51.68-.52.35.05.69.04.35-.05.69-.06.34-.07.69-.08.36.36.7.35.34-.51.68-.52.35.03.7.02.35-.06.7-.07c.25,0,.51.52.74.51.25-.01.49-.23.72-.24.26-.02.49-.15.72-.17.26-.02.53.2.75.17.27-.04.46-.34.68-.38.27-.06.46-.18.65-.25.25-.09.43-.22.65-.36s.58-.07.77-.25.29-.43.44-.65c.15-.23.08-.55.18-.81s0-.5.03-.78c.04-.26.06-.47.05-.76,0-.26.05-.48,0-.74s.5-.68.42-.93-.65-.3-.78-.53.14-.72-.01-.93c-.13-.18-.72,0-.87-.15s-.12-.5-.28-.64-.4-.2-.58-.33-.51.06-.71-.05-.31-.31-.52-.39c-.2-.08-.29-.6-.53-.66-.22-.05-.48-.04-.73-.08-.22-.04-.49.12-.74.1-.23-.02-.45-.17-.7-.19-.23-.01-.46-.21-.71-.22-.23,0-.48.36-.72.36-.23,0-.47-.04-.72-.04-.37,0-.37-.07-.75-.06s-.36.39-.73.4-.38-.2-.75-.19-.38-.24-.75-.23-.37-.09-.75-.08-.36.56-.73.57-.38-.34-.76-.33-.38-.24-.75-.23-.38,0-.75.01-.45.58-.73.32.3-.37.29-.75-.54-.36-.55-.74-.12-.53.13-.81.41-.04.78-.05.37.23.74.23.37.15.74.14.36-.15.73-.16.36-.35.72-.36.37.31.74.3.35-.54.71-.55.38.67.75.66.35-.51.72-.52.36-.16.73-.17.37-.01.73-.02.37.26.74.25.38.45.74.44.37-.05.73-.06.35-.57.72-.58.38.55.75.54.35-.54.72-.55.37.12.74.11.38.31.74.3.37,0,.73,0,.35-.56.72-.57.37-.08.74-.08.43.67.8.61c.33-.05.32-.44.58-.19Z"/><path class="cls-1" d="m101.07,117.61c.27.27.25.26.26.64s-.26.38-.25.76.56.61.3.88-.5.2-.88.21-.38-.25-.75-.24-.38-.16-.75-.15-.37.06-.75.07-.36.44-.74.45-.37,0-.75,0-.39-.55-.76-.54-.37.27-.74.28-.37.26-.74.26-.38-.28-.76-.27-.37.15-.75.16c-.24,0-.49-.45-.71-.44-.24,0-.48-.04-.71-.03-.25.01-.44.65-.65.66-.25.02-.52-.43-.74-.4-.25.03-.52-.08-.73-.05-.26.05-.34.71-.52.77-.26.09-.76-.39-1-.27s-.1.87-.31,1.03-.74-.04-.92.16-.34.44-.49.67c-.13.19.07.56-.03.77s-.65.25-.72.47.05.51.01.74-.26.45-.28.69-.08.49-.08.72c0,.23.48.44.5.66.03.23-.07.48-.02.69s.02.48.1.69.62.21.72.41-.11.58.02.76c.15.21.42.32.6.5s.42.27.63.42.21.64.44.76.65-.26.9-.18c.18.06.3.72.59.76.21.03.52-.7.79-.68.22.01.43.55.69.56.23,0,.47.19.72.19.23,0,.48-.19.73-.19.23,0,.48.06.73.05.37,0,.37-.21.74-.22s.37.08.75.07.37-.04.74-.05.37-.18.74-.19.39.48.76.47.37-.04.75-.05.36-.65.73-.66.38.16.75.15.37-.13.75-.14.39.45.76.44.62-.63.89-.37-.5.54-.49.92.59.37.6.76.1.52-.16.81c-.24.27-.39.06-.75.07s-.36.07-.72.08-.36.15-.71.16-.38-.65-.74-.64-.36.11-.72.12-.35.28-.71.28-.36.18-.71.19-.37-.48-.73-.47-.36.23-.72.24-.35.41-.71.42-.36.07-.72.08-.37-.14-.73-.13c-.24,0-.48-.04-.71-.04s-.47-.26-.7-.27c-.24,0-.49.33-.72.31-.24-.01-.46-.25-.69-.27-.24-.02-.51.19-.73.15-.24-.04-.36-.65-.58-.7-.24-.05-.46,0-.68-.07-.23-.07-.54.12-.74.04-.24-.11-.29-.57-.51-.7s-.53-.1-.74-.25-.24-.47-.43-.65-.72-.02-.89-.22-.17-.52-.31-.75c-.13-.21-.61-.24-.71-.47s.03-.57-.05-.81-.24-.45-.3-.7-.13-.49-.17-.74.48-.55.46-.8-.12-.46-.12-.72c0-.26-.36-.5-.35-.74,0-.26-.12-.53-.1-.77s.31-.47.35-.71.17-.47.24-.7.15-.47.24-.69-.02-.57.1-.79c.13-.23.27-.48.42-.69s.26-.51.44-.7.73,0,.93-.16.11-.75.34-.89.5-.25.74-.37c.2-.1.58.17.82.08.21-.08.47,0,.71-.06.22-.06.43-.12.68-.17.23-.04.44-.17.68-.21.23-.03.46-.05.71-.08.23-.03.47,0,.71-.01.23-.02.47.13.72.12s.46-.32.7-.32c.35,0,.35-.23.7-.23s.36.44.72.43.35-.22.7-.23.34-.34.7-.35.35-.07.71-.08.36.22.71.21.35-.16.7-.17.36.35.71.34.36.12.71.11.35-.02.71-.03.37-.13.72-.19c.32-.05.33-.25.58,0Z"/><path class="cls-1" d="m101.58,138.05c.27.26.24.26.25.64s-.26.38-.25.76.56.62.3.88-.52.2-.91.21-.4-.25-.79-.24-.4-.16-.8-.15-.42-.03-.8.07c.19.13.62.03.79.17s.36.32.52.47-.05.72.11.88.5.16.64.33.49.22.62.4.02.54.13.74c.13.22.36.39.47.61s-.24.62-.16.86.08.46.13.7.7.38.73.63-.43.53-.42.78c0,.25-.15.46-.17.71s.58.57.53.81-.72.32-.8.55.5.72.39.94-.67.21-.8.42c-.13.21-.24.4-.38.58s-.05.6-.22.77-.67-.05-.86.09-.25.42-.46.55-.48.05-.7.15-.43.12-.69.2c-.23.07-.35.57-.61.63-.24.05-.52-.03-.78,0-.24.04-.5-.03-.77,0-.24.03-.46.55-.72.57-.25.02-.53-.35-.8-.34-.25.01-.5.15-.77.16-.35,0-.34.1-.69.11s-.36-.41-.7-.4-.34.51-.68.52-.36-.62-.71-.61-.33.76-.68.77-.36-.52-.71-.51-.35-.17-.7-.16-.34.2-.69.21-.35-.05-.7-.05-.34.21-.69.22-.35-.08-.7-.07-.35.04-.7.05-.54.4-.78.15c-.26-.27.45-.47.44-.84s-.04-.38-.05-.76-.84-.66-.59-.94c.23-.26.57.06.91.05s.35-.13.7-.14.36.45.71.44.34-.42.69-.43.36.56.71.55.34-.59.68-.6.35.16.7.15.35-.04.7-.05.35-.07.7-.08.35-.15.7-.16.37.65.72.64.35-.11.7-.12c.24,0,.46-.28.67-.29.24,0,.46-.19.67-.2.24-.01.5.47.71.45.24-.02.46-.26.66-.28.25-.02.42-.45.62-.48.26-.04.44-.13.61-.18.26-.07.53.01.76-.08.25-.1.48-.15.7-.28.23-.13.59-.07.78-.24s.11-.58.27-.79c.15-.21.46-.3.57-.53s-.04-.53.02-.79c.06-.24.68-.4.7-.67.02-.25-.07-.54-.07-.81,0-.23-.31-.43-.34-.65s.32-.54.26-.75-.32-.4-.4-.6,0-.53-.1-.73-.65-.13-.78-.32-.12-.47-.27-.64c-.15-.17-.58-.05-.75-.2s-.15-.49-.33-.63-.41-.19-.6-.3-.38-.2-.59-.29-.22-.69-.43-.77-.49-.06-.71-.11c-.19-.04-.49.27-.75.24-.21-.02-.44.11-.69.09-.21-.01-.43-.27-.67-.28-.22,0-.44-.08-.69-.08-.22,0-.45,0-.69,0-.22,0-.45.26-.69.27-.22,0-.45.03-.69.04-.36,0-.35.12-.71.13s-.37-.51-.73-.5-.34.54-.7.55-.36-.02-.72-.02-.37-.38-.72-.37-.36-.15-.72-.14-.36.02-.72.03-.36.1-.72.11-.35.31-.6.05.09-.27.08-.64.15-.38.14-.76-.59-.41-.34-.69.3-.2.67-.21.38.44.74.43.36-.22.73-.23.36-.34.72-.35.36-.07.73-.08.37.22.73.21.36-.16.72-.17.37.35.74.34.37.12.74.11.37-.02.73-.03.36-.18.73-.19.36-.39.72-.4.38.5.75.49.36-.49.72-.5.37.25.74.25.38.31.74.3.36-.28.73-.29.36-.32.73-.33.37.23.74.22.36-.24.73-.25.37.12.74.11.38.49.75.48.35-.46.71-.52c.33-.05.38-.05.65.21Z"/><path class="cls-1" d="m99.08,175.22c-.28-.21-.39-.1-.59-.39s.03-.44-.16-.74-.6-.12-.69-.46c.2-.16.35-.59.52-.76s.52-.16.68-.34.45-.27.6-.47.24-.44.36-.65-.16-.61-.06-.84.19-.41.27-.64.68-.31.73-.55-.16-.53-.12-.77-.19-.49-.18-.74.3-.47.3-.72c0-.25-.16-.48-.18-.72s.39-.57.35-.8-.05-.53-.12-.76-.73-.27-.83-.5.23-.65.12-.87-.13-.53-.27-.73-.79-.02-.95-.21.14-.8-.04-.98c-.17-.17-.82.2-1,.06s-.07-.69-.26-.82-.42-.24-.63-.35-.56.11-.78.03-.29-.63-.52-.69-.51.07-.75.03-.46-.25-.7-.27-.49-.08-.73-.07c-.26,0-.49.48-.74.51s-.52-.06-.77,0-.53.04-.77.12-.27.64-.5.75-.62-.12-.84.01c-.22.13-.35.39-.55.54s-.33.38-.51.56-.67.08-.83.27.09.7-.05.91-.81.12-.93.34c-.1.2.48.71.4.92s-.65.23-.71.44-.3.4-.34.62.1.48.07.7-.11.45-.12.67.19.45.2.67c0,.25-.07.5-.04.74s.09.49.14.73.27.44.33.67-.31.64-.22.86.23.47.35.68.79.1.92.31.13.48.28.67.39.28.56.46.03.67.21.83.7.2.9.35c-.08.35-.7.06-.89.37s.31.61.12.92-.25.31-.53.53c-.22-.14-.5-.25-.7-.41s-.44-.27-.63-.45-.48-.26-.65-.45.18-.8.03-1-.36-.33-.5-.54-.48-.29-.6-.51c-.11-.21-.37-.36-.46-.58s.28-.61.2-.84-.35-.37-.42-.6-.5-.37-.55-.61-.15-.48-.18-.71.09-.5.07-.74.02-.48.01-.73c0-.23.25-.47.26-.69s-.32-.49-.3-.72.26-.44.3-.67-.16-.51-.11-.73.67-.3.74-.52.04-.45.12-.67-.09-.54,0-.74.56-.22.67-.42.07-.48.2-.67.43-.23.58-.41-.09-.67.07-.84c.17-.18.47-.22.64-.39s.11-.63.29-.78.55-.1.75-.23.37-.34.58-.46.43-.25.65-.35.64.32.87.24.4-.22.64-.28.38-.46.62-.5.46-.23.71-.25.5.2.74.2c.24,0,.47.06.71.07s.47.02.7.05.52-.19.75-.14.48.08.71.15.51.04.73.12.25.65.46.75.67-.26.88-.15c.21.12.42.28.61.41s.17.59.36.73.26.41.44.57.34.3.5.47.37.28.52.47.27.37.41.57.21.41.33.62c.13.22.09.49.2.72s.47.32.56.55.38.4.45.64-.3.59-.24.83.31.43.34.68.4.46.42.71.09.51.1.76c0,.23-.22.47-.23.7s.12.48.1.7-.41.41-.45.64-.2.41-.26.64-.1.43-.16.65c-.08.25,0,.54-.08.78-.09.25.16.64.05.87s-.69.24-.81.46.13.71-.02.91-.51.23-.67.42-.55.12-.73.28-.18.52-.38.67-.26.2-.47.33Z"/><path class="cls-1" d="m109.43,179.55c.27.27.24.26.25.64s-.26.38-.25.76.56.59.31.88c-.24.26-.49.2-.84.21s-.36-.25-.71-.24-.36-.16-.71-.15-.35.06-.71.07-.34.44-.7.45-.36,0-.71,0-.37-.55-.73-.54-.35.27-.7.28-.35.25-.7.26-.36-.28-.72-.27-.35.15-.71.15-.37-.45-.73-.44-.36-.05-.72-.04-.29.52-.64.62c.19.14.16.22.33.36s.24.4.41.55.77-.14.93.02-.17.76-.02.93.85-.07.97.11-.17.66-.06.85c.13.22.25.41.35.64s.52.33.6.57-.34.6-.28.84.28.43.31.68-.14.49-.14.74c0,.25-.06.46-.08.71s.4.54.36.78-.24.45-.32.69-.25.42-.36.64.21.68.08.9c-.13.21-.59.19-.74.38s-.21.46-.38.62-.3.4-.49.55-.62-.07-.82.05-.18.68-.4.78-.67-.4-.94-.32c-.23.07-.28.86-.55.92-.24.05-.59-.42-.86-.37-.24.04-.51-.1-.77-.07-.24.03-.47.24-.74.26-.25.02-.5-.03-.77-.02-.25.01-.5.22-.76.23-.35,0-.35-.08-.7-.07s-.35.04-.69.05-.34.18-.69.19-.36-.48-.71-.47-.35.04-.69.05-.33.65-.68.66-.35-.16-.7-.15-.35.13-.69.14-.36-.45-.71-.44-.34.42-.69.43-.36-.56-.71-.55-.34.59-.69.6-.5.09-.74-.16c-.26-.27-.05-.41-.06-.79s-.07-.38-.08-.75-.34-.66-.09-.95c.23-.26.57.55.92.55s.35-.11.7-.12.34-.28.69-.28.34-.18.69-.19.36.48.71.47.34-.23.69-.24.34-.41.69-.42.35-.07.7-.08.35.14.71.13.35.04.7.03.36.25.71.24.34-.35.7-.36c.24,0,.47.2.69.19.24,0,.45-.26.67-.27.24-.01.5.55.72.54.24-.02.47-.13.68-.15.25-.02.45-.34.65-.37.26-.04.58.31.76.26.26-.07.47-.34.71-.43.25-.1.61-.03.83-.16.23-.13.17-.7.36-.86s.5-.23.66-.43c.15-.2-.06-.6.05-.84s.43-.35.49-.6c.06-.24.02-.49.04-.76.02-.25.01-.49,0-.76,0-.23.52-.51.49-.72s-.16-.46-.22-.68-.47-.33-.55-.54-.31-.33-.42-.52-.01-.5-.14-.69-.22-.4-.37-.57c-.15-.17-.32-.34-.48-.49s-.5-.1-.68-.23-.36-.23-.56-.35-.42-.11-.63-.21-.21-.66-.43-.73-.57.37-.79.32c-.19-.04-.38-.11-.64-.14-.21-.02-.39-.43-.64-.45-.21-.01-.44-.18-.69-.19-.22,0-.45,0-.69,0-.22,0-.45.08-.69.09-.22,0-.45,0-.69,0-.22,0-.46-.04-.7-.04-.36,0-.36-.15-.72-.14s-.35.31-.71.32-.35.23-.71.23-.37-.44-.73-.43-.35.22-.71.23-.35.34-.71.35-.36.07-.72.08-.37-.22-.73-.21-.62.36-.88.1.29-.53.28-.91.12-.38.11-.76-.35-.29-.1-.57c.24-.27.16-.09.52-.1s.35-.39.71-.4.37.5.73.5.35-.49.7-.5.37.26.72.25.37.31.73.3.35-.28.71-.29.35-.32.71-.33.36.23.72.22.35-.24.71-.25.36.12.72.11.37.49.73.48.35-.51.7-.52.36.05.72.04.36-.05.72-.06.35-.07.71-.08.37.36.72.35.34-.51.7-.52.36.03.72.02.36-.06.72-.07.37.52.73.51.35-.21.71-.22.36-.13.71-.14.37.24.73.23.35-.27.71-.28.36-.08.72-.08.36-.04.72-.05.37.27.73.26.36-.09.72-.09.35-.22.71-.23.36-.17.72-.18.36,0,.72-.01.33.13.69.07c.33-.05.4.13.66.39Z"/></svg>