<?xml version="1.0" encoding="UTF-8"?><svg id="uuid-564f91a7-aa67-43b4-a588-d498d5261201" xmlns="http://www.w3.org/2000/svg" width="420" height="250" viewBox="0 0 420 250"><defs><style>.uuid-f4ae93ef-0cad-4d5d-9c99-d3c10bd0d747{fill:#feef61;}.uuid-f4ae93ef-0cad-4d5d-9c99-d3c10bd0d747,.uuid-d0261ee2-c761-47dc-9f81-624c2a1ba2e8,.uuid-8613cac6-23fe-4bb9-8694-4e994162e118,.uuid-ecfbde2d-bc7c-4cd0-a25c-8836026e9616,.uuid-c8fe9479-58fc-4d7a-8f41-4f684194a5a7,.uuid-6f55ce6e-2618-4d3d-a66f-1de848f40e26,.uuid-34ad4398-0f94-484d-8f89-a817b0b205f5,.uuid-e13c1221-44e5-422b-8921-e7fc10ab01d1,.uuid-103d86c6-e7b6-46d4-96a1-f69df9cef604,.uuid-b1c933e2-1895-43d6-a5e2-42daf92abf0a{stroke-width:0px;}.uuid-d0261ee2-c761-47dc-9f81-624c2a1ba2e8{fill:#8fafdd;}.uuid-8613cac6-23fe-4bb9-8694-4e994162e118{fill:#fbc349;}.uuid-ecfbde2d-bc7c-4cd0-a25c-8836026e9616{fill:#ec6535;}.uuid-c8fe9479-58fc-4d7a-8f41-4f684194a5a7{fill:#f9b03d;}.uuid-6f55ce6e-2618-4d3d-a66f-1de848f40e26{fill:#8c181d;}.uuid-34ad4398-0f94-484d-8f89-a817b0b205f5{fill:#c9152a;}.uuid-e13c1221-44e5-422b-8921-e7fc10ab01d1{opacity:.33;}.uuid-e13c1221-44e5-422b-8921-e7fc10ab01d1,.uuid-103d86c6-e7b6-46d4-96a1-f69df9cef604{fill:#0d71b9;}.uuid-b1c933e2-1895-43d6-a5e2-42daf92abf0a{fill:#f39323;}</style></defs><path class="uuid-ecfbde2d-bc7c-4cd0-a25c-8836026e9616" d="m153.25,180.69c6.49,10.82,9.54,15.9,9.54,15.9,0,0,0,0,0,0,0,0,0,0,0,0,29.44,16.41,45.54,16,45.54,16,17.83-.46,32.68-9.79,42.52-15.98,0,0,.01,0,.01,0,3.18-5.3,6.36-10.6,9.54-15.9-35.72,0-71.44-.01-107.16-.02Z"/><path class="uuid-b1c933e2-1895-43d6-a5e2-42daf92abf0a" d="m127.1,161.75c9.66,10.04,14.21,14.76,14.21,14.76,0,0,0,0,0,0,0,0,0,0,0,0,43.85,15.23,67.85,14.85,67.85,14.85,26.57-.42,48.68-9.09,63.34-14.83,0,0,.02,0,.02,0,4.74-4.92,9.47-9.84,14.21-14.76-53.21,0-106.42-.01-159.64-.02Z"/><path class="uuid-c8fe9479-58fc-4d7a-8f41-4f684194a5a7" d="m92.26,147.78c13.68,8.64,20.11,12.71,20.11,12.71,0,0,0,0,.01,0,0,0,.01,0,.01,0,62.05,13.11,96.01,12.78,96.01,12.78,37.59-.36,68.88-7.82,89.63-12.77,0,0,.02,0,.02,0,6.7-4.24,13.4-8.47,20.11-12.71-75.3,0-150.6-.01-225.9-.02Z"/><path class="uuid-103d86c6-e7b6-46d4-96a1-f69df9cef604" d="m313.39,100.09c-5.26-10-15.46-26.26-33.6-40.85-15.54-12.5-30.83-18.89-40.95-22.22-2.76,5.08-5.52,10.17-8.28,15.25-7.55.44-15.1.87-22.66,1.31-2.47,3.92-4.94,7.84-7.41,11.76-4.21-2.03-8.42-4.07-12.63-6.1-3.05,3.34-6.1,6.68-9.15,10.02-6.68-2.47-13.36-4.94-20.04-7.41-3.63,4.07-7.26,8.13-10.89,12.2-5.23-3.05-10.46-6.1-15.68-9.15-4.35,3.98-9.44,9.29-14.38,16.12-5.03,6.95-8.52,13.56-10.95,19.01,22.19,6.77,51.02,13.21,85.02,14.97,51.25,2.66,93.45-6.39,121.61-14.92Z"/><path class="uuid-34ad4398-0f94-484d-8f89-a817b0b205f5" d="m369.92,120.71c-9.9-4.97-18.94-5.37-23.37-5.28-2.59-2.99-7.98-8.39-16.58-11.81-6.81-2.71-12.87-3.08-16.58-3.02-68.87-.02-137.75-.03-206.62-.05-3.71-.06-9.77.31-16.58,3.02-8.6,3.42-13.99,8.82-16.58,11.81-3-.23-8.65-.22-14.7,2.68-2.8,1.34-4.96,2.95-6.54,4.36-1.31,1.45-2.61,2.9-3.92,4.36-2.58.05-5.16.1-7.75.15-1.24.86-2.62,1.95-4.02,3.34-2.22,2.21-3.75,4.43-4.79,6.23,46.23,11.51,108.32,22.22,181.91,21.86,70.15-.34,129.58-10.65,174.46-21.81-2.55-3.63-8.3-10.79-18.34-15.83Z"/><path class="uuid-103d86c6-e7b6-46d4-96a1-f69df9cef604" d="m346.02,115.01c-2.59-2.99-7.98-8.39-16.58-11.81-6.81-2.71-12.87-3.08-16.58-3.02-24.48,7.49-60.2,15.5-103.76,15.44-43.13-.06-78.52-8.03-102.87-15.49-3.71-.06-9.77.31-16.58,3.02-8.6,3.42-13.99,8.82-16.58,11.81,35.87,7.83,81.6,14.58,134.77,14.74,54.69.16,101.63-6.72,138.18-14.69Z"/><path class="uuid-d0261ee2-c761-47dc-9f81-624c2a1ba2e8" d="m312.93,99.93c-4.7-9.21-12.61-21.98-25.5-34.34-18.22-17.46-37.49-25.53-48.77-29.26l11.7,23.41h-29.26c-2.6,7.15-5.2,14.31-7.8,21.46-6.5.65-13.01,1.3-19.51,1.95-5.2,2.6-10.4,5.2-15.61,7.8-6.5-4.55-13.01-9.1-19.51-13.66-7.15,3.9-14.31,7.8-21.46,11.7l-5.85-23.41c-4.25,4.11-8.98,9.28-13.66,15.61-4.96,6.72-8.66,13.14-11.41,18.68,24.17,7.53,59.56,15.67,102.79,15.74,43.74.08,79.52-8.12,103.84-15.69Z"/><path class="uuid-8613cac6-23fe-4bb9-8694-4e994162e118" d="m56.01,133.06c2.91,5.11,10.94,5.71,16.33,3.56,5.42-2.16,10.78-8.17,9.39-13.82-1.56-6.31-10.93-9.83-17.85-6.99-6.79,2.78-11.07,11.63-7.86,17.26Z"/><path class="uuid-f4ae93ef-0cad-4d5d-9c99-d3c10bd0d747" d="m59.56,125.06c1.32,3.29,7.51,4.35,11.26,1.81,2.51-1.69,4.49-5.36,3.22-8.05-1.49-3.15-6.82-3.66-10.26-1.81-2.94,1.59-5.31,5.34-4.22,8.05Z"/><path class="uuid-b1c933e2-1895-43d6-a5e2-42daf92abf0a" d="m56.01,133.06c.38.6.99,1.45,1.94,2.26,4.05,3.48,10.31,2.94,14.39,1.3,4.15-1.66,9.05-5.66,9.54-10.96.11-1.19-.02-2.19-.16-2.87-.19.79-2.15,8.46-9.9,11.72-8.1,3.4-15.23-1.08-15.81-1.46Z"/><path class="uuid-8613cac6-23fe-4bb9-8694-4e994162e118" d="m364.87,133.12c-2.91,5.11-10.94,5.71-16.33,3.56-5.42-2.16-10.78-8.17-9.39-13.82,1.56-6.31,10.93-9.83,17.85-6.99,6.79,2.78,11.07,11.63,7.86,17.26Z"/><path class="uuid-f4ae93ef-0cad-4d5d-9c99-d3c10bd0d747" d="m361.32,125.13c-1.32,3.29-7.51,4.35-11.26,1.81-2.51-1.69-4.49-5.36-3.22-8.05,1.49-3.15,6.82-3.66,10.26-1.81,2.94,1.59,5.31,5.34,4.22,8.05Z"/><path class="uuid-b1c933e2-1895-43d6-a5e2-42daf92abf0a" d="m364.87,133.12c-.38.6-.99,1.45-1.94,2.26-4.05,3.48-10.31,2.94-14.39,1.3-4.15-1.66-9.05-5.66-9.54-10.96-.11-1.19.02-2.19.16-2.87.19.79,2.15,8.46,9.9,11.72,8.1,3.4,15.23-1.08,15.81-1.46Z"/><path class="uuid-8613cac6-23fe-4bb9-8694-4e994162e118" d="m274.71,143.53c-1.37,5.72-8.91,8.54-14.68,7.98-5.81-.56-12.63-4.83-12.87-10.66-.26-6.49,7.75-12.49,15.19-11.7,7.29.78,13.88,8.08,12.36,14.38Z"/><path class="uuid-f4ae93ef-0cad-4d5d-9c99-d3c10bd0d747" d="m269.07,136.84c-.35,3.53-6,6.27-10.31,4.88-2.88-.93-5.8-3.89-5.33-6.83.55-3.44,5.53-5.42,9.35-4.6,3.26.7,6.59,3.65,6.3,6.55Z"/><path class="uuid-b1c933e2-1895-43d6-a5e2-42daf92abf0a" d="m274.71,143.53c-.2.69-.55,1.67-1.23,2.71-2.92,4.47-9.08,5.69-13.46,5.26-4.45-.44-10.26-2.91-12.22-7.86-.44-1.11-.59-2.11-.65-2.8.4.71,4.43,7.53,12.78,8.49,8.72,1.01,14.32-5.28,14.78-5.81Z"/><path class="uuid-8613cac6-23fe-4bb9-8694-4e994162e118" d="m138.09,143.08c1.37,5.72,8.91,8.54,14.68,7.98,5.81-.56,12.63-4.83,12.87-10.66.26-6.49-7.75-12.49-15.19-11.7-7.29.78-13.88,8.08-12.36,14.38Z"/><path class="uuid-f4ae93ef-0cad-4d5d-9c99-d3c10bd0d747" d="m143.72,136.39c.35,3.53,6,6.27,10.31,4.88,2.88-.93,5.8-3.89,5.33-6.83-.55-3.44-5.53-5.42-9.35-4.6-3.26.7-6.59,3.65-6.3,6.55Z"/><path class="uuid-b1c933e2-1895-43d6-a5e2-42daf92abf0a" d="m138.09,143.08c.2.69.55,1.67,1.23,2.71,2.92,4.47,9.08,5.69,13.46,5.26,4.45-.44,10.26-2.91,12.22-7.86.44-1.11.59-2.11.65-2.8-.4.71-4.43,7.53-12.78,8.49-8.72,1.01-14.32-5.28-14.78-5.81Z"/><path class="uuid-e13c1221-44e5-422b-8921-e7fc10ab01d1" d="m114.62,98.79c63.4.34,126.8.67,190.2,1.01-24.64,6.51-58.93,12.82-100,12.06-36.54-.68-67.28-6.75-90.2-13.07Z"/><path class="uuid-6f55ce6e-2618-4d3d-a66f-1de848f40e26" d="m298.21,145.51c1.76-1.9,5.32-5.26,10.89-7.41,6.04-2.33,11.34-2.05,13.94-1.74-4.92-6.53-13.53-8.05-19.17-4.36-4.15,2.72-6.33,8.03-5.66,13.51Z"/><path class="uuid-c8fe9479-58fc-4d7a-8f41-4f684194a5a7" d="m123.38,170.78c-6.68,3.05-13.36,6.1-20.04,9.15l7.84,5.23c-11.33,7.12-22.66,14.23-33.98,21.35,16.7-7.41,33.4-14.81,50.1-22.22-4.07-1.31-8.13-2.61-12.2-3.92,2.76-3.19,5.52-6.39,8.28-9.59Z"/><path class="uuid-c8fe9479-58fc-4d7a-8f41-4f684194a5a7" d="m287.45,170.98c10.37,7.05,20.75,14.1,31.12,21.15-7.41-.73-14.81-1.45-22.22-2.18,9.51,7.27,19.01,14.54,28.52,21.8-12.76-7.89-25.52-15.78-38.27-23.66,4.85-.69,9.7-1.37,14.55-2.06l-13.7-15.05Z"/></svg>