<?xml version="1.0" encoding="UTF-8"?><svg id="uuid-b498de83-bf03-48f5-b6cb-373e2fc9e452" xmlns="http://www.w3.org/2000/svg" width="380" height="380" viewBox="0 0 380 380"><defs><style>.uuid-f54fb8ee-7396-4c5d-8654-5b9fe232b0c0{fill:#ec6535;stroke-width:0px;}</style></defs><path class="uuid-f54fb8ee-7396-4c5d-8654-5b9fe232b0c0" d="m175.04,25.12c-.04.23.8,1.08.73,1.44-.05.26-.85.41-.92.74-.05.27-.62.46-.69.77-.06.28.82.77.75,1.08-.06.28-.88.4-.95.7-.07.28-.43.5-.51.8-.07.28.93.84.86,1.14-.07.28-.77.42-.85.71s.55.76.47,1.05-.06.61-.14.9-1.59.17-1.67.47.52.77.44,1.06-1.09.3-1.18.59-.17.56-.26.86,1.25,1.01,1.15,1.3-1.5.15-1.59.44,1.44,1.09,1.34,1.38-1.82.02-1.92.31-.09.59-.19.88,0,.63-.11.91.95.97.85,1.26-.36.51-.46.79-.64.4-.74.68-.61.4-.71.68-.01.63-.12.91-.09.6-.2.88-.97.25-1.09.52,1.2,1.13,1.09,1.41-.52.43-.63.71-.62.38-.74.66.51.87.39,1.15-.74.33-.86.6-.91.24-1.03.52.88,1.06.75,1.33-1.58-.08-1.71.19.59.94.46,1.21-.18.58-.31.85-.26.54-.39.81-.93.2-1.06.47.77,1.06.63,1.33-1.1.11-1.23.37.2.78.06,1.05.22.8.08,1.07-.63.34-.77.61-.78.26-.92.52-.23.56-.38.82.16.78,0,1.04-.5.41-.65.67-.22.57-.37.83-.62.33-.78.58-.08.66-.23.91-.44.43-.6.69.28.9.12,1.15-.7.27-.86.52-.06.69-.22.94-.34.5-.51.75-1,.05-1.17.3-1.21-.11-1.38.14.45,1.04.27,1.29-.41.44-.59.69-.02.73-.2.97-1.28-.2-1.46.04,1.09,1.57.91,1.81-1.45-.35-1.64-.11.18.9,0,1.13-1.18-.17-1.37.07.53,1.19.34,1.43-.36.49-.55.72-1.03-.07-1.22.16-.7.19-.89.42-.5.35-.7.58-.34.49-.54.71-.08.72-.28.95-.05.76-.25.98-.08.74-.29.96-.9-.02-1.11.2-.88-.02-1.09.2-.07.76-.28.97-.11.73-.32.94.06.92-.15,1.13-1.18-.34-1.4-.13-.62.21-.84.42-.24.61-.46.82-.53.3-.75.51-.67.15-.89.35-.5.33-.72.54.2,1.12-.03,1.32-.16.74-.39.93-.8-.01-1.03.18,0,.93-.24,1.13-.54.3-.78.49-.76.02-.99.21-.04.93-.27,1.12-.61.2-.85.38-.67.11-.91.3-.94-.25-1.18-.07.2,1.28-.05,1.46-1.44-.97-1.68-.8.11,1.2-.13,1.37-.42.45-.67.62-.72.02-.97.18-.44.42-.69.59-.56.24-.81.4-.3.65-.56.81-1.03-.52-1.29-.36-.11.97-.37,1.12-.53.29-.79.44-.44.44-.7.59-.72-.05-.98.1-.12,1.01-.39,1.15-.81-.22-1.08-.07-.93-.47-1.2-.32,0,1.26-.28,1.4-.37.6-.64.74-.47.41-.74.55-1-.66-1.28-.53-.29.79-.56.93c-.27.13-.36.66-.63.79s-1.03-.78-1.3-.65-.48.39-.76.52-.3.82-.57.94-.48.43-.75.55-.49.4-.77.52-.71-.14-.99-.03-1-.89-1.28-.78.11,1.96-.17,2.06-.92-.7-1.2-.6-.59.13-.88.23-.24,1.12-.52,1.22-.85-.6-1.14-.51-.38.77-.66.87-.93-.9-1.22-.81-.17,1.46-.45,1.55-.88-.8-1.17-.72-.25,1.29-.54,1.38-1.08-1.54-1.37-1.46-.09,1.94-.38,2.02-1.09-1.69-1.38-1.62-.13,1.88-.43,1.96-1.03-1.63-1.32-1.55-.17,1.88-.46,1.95-.94-1.37-1.24-1.31-.49.56-.78.62-.45.77-.75.83-.53.46-.82.52-.76-.72-1.06-.67-.47.81-.76.86-.66-.23-.95-.18-.47.88-.76.93-.85-1.44-1.14-1.39-.57.23-.87.28-.58.17-.88.21-.46,1.15-.75,1.19-.61.01-.91.05-.73-1.07-1.03-1.03-.49,1.08-.79,1.12-.64-.26-.93-.23-.57.38-.87.4-.67-.79-.97-.77-.52,1.12-.82,1.14-.66-.72-.96-.7-.56.79-.86.81-.66-.93-.96-.92-.62-.39-.92-.38-.57,1.04-.87,1.05-.62-.62-.92-.61-.6.2-.9.2-.61-.58-.91-.58-.6.69-.9.69-.61.79-.91.79-.6-.76-.9-.77-.58-.84-.88-.84-.61.25-.91.24-.62.46-.92.45-.56-.83-.86-.84-.63.48-.92.46-.67,1.04-.97,1.02-.56-.66-.86-.68-.56-.55-.86-.58-.61.14-.91.12-.63.24-.92.21-.49-1.1-.78-1.13-.79,1.64-1.08,1.61-.48-1.12-.78-1.16-.59-.13-.88-.17-.62.09-.91.05-.54-.45-.83-.49-.67.41-.96.36-.44-1.04-.73-1.08-.61.05-.9,0c-.3-.05-.62.06-.91,0-.3-.05-.75.76-1.04.7-.3-.06-.54-.36-.82-.42.21.18.69.09.93.3.21.19.6.21.83.42.21.19.04.82.27,1.03.21.2.47.36.69.57.21.2.56.27.79.48.21.2.58.25.8.47s.11.74.33.95.45.39.66.61-.26,1.09-.05,1.31.75.09.96.31.94-.08,1.15.14.52.34.72.56.24.59.45.81.53.32.74.55.2.62.41.85.78.11.98.33.51.35.71.58-.51,1.23-.31,1.46.82.07,1.02.3.32.51.51.74.98-.04,1.17.19-.21.95-.02,1.18-.24.96-.05,1.2,1.23-.23,1.42,0-.48,1.14-.29,1.37,1.17-.16,1.35.08.74.19.92.43-.12.85.06,1.09.41.44.59.68-.53,1.14-.35,1.38,1.34-.24,1.52,0-.4,1.02-.22,1.27,1.17-.1,1.34.15-.53,1.1-.36,1.35,1.39-.24,1.56.01-.8,1.27-.63,1.52.45.41.62.66,1.42-.22,1.58.03.32.51.48.77-.38.96-.22,1.21.94.11,1.11.37-1.1,1.4-.94,1.65.45.42.6.68,1.39-.15,1.54.11-.6,1.06-.45,1.32.78.23.94.49-.47.96-.32,1.22.8.23.94.49.55.38.69.64.04.66.18.93.77.26.91.53-.46.93-.32,1.19.69.31.83.58,1.23.04,1.37.31-.54.95-.4,1.22-.46.9-.33,1.17.22.55.35.82.48.43.61.7,1.26.06,1.39.33.19.57.32.85.76.31.88.59-.73.99-.61,1.27.03.64.15.92.74.33.86.6-.4.82-.28,1.1.7.35.82.63,0,.65.11.93-.13.7-.02.98,1.73-.04,1.84.24-1.46,1.21-1.35,1.49,1.9-.08,2.01.2-1.61,1.24-1.51,1.53,1.61.05,1.71.33.6.43.7.71-1.21,1.06-1.11,1.35.4.49.5.78.5.47.59.75.49.47.58.76-.61.83-.52,1.11.15.58.24.87.52.46.61.75.18.57.26.86-.21.68-.13.97.47.49.55.78.43.5.51.79.54.48.62.77.69.45.76.74-.27.69-.19.99-1.05.88-.98,1.17,1.4.29,1.47.58.49.51.56.81-1.19.88-1.13,1.18-.01.61.05.91.7.47.76.76.02.61.08.91.34.55.39.85-.14.64-.09.94-.72.74-.67,1.04,1.29.39,1.34.69.8.48.85.78-1.08.78-1.03,1.08.51.53.56.83-.07.62-.02.92-.44.67-.4.97.77.51.81.82c.04.3-.8.7-.76,1s.65.53.69.83.44.56.47.86.1.6.13.9.21.59.24.89.23.59.25.89.18.6.21.9-1.25.7-1.23,1,.28.58.3.88,1.03.55,1.05.85-1.53.68-1.51.99.33.58.35.89,1.12.56,1.13.86-.66.63-.65.93.42.59.42.89.67.6.67.9-1.06.62-1.06.92-.08.6-.08.9.25.6.25.9-.05.6-.05.9.96.62.95.92-1.22.58-1.23.88.91.63.9.93-1.51.55-1.53.85-.22.59-.23.89,1.75.69,1.73.99-1.72.5-1.74.8,1.58.71,1.55,1.01.22.63.19.93-1.34.5-1.36.8.87.68.85.98-.55.56-.58.86-.51.56-.54.86.89.71.86,1.01-.25.58-.29.88-.13.6-.17.9-.54.54-.58.84.09.62.05.92-.81.49-.86.79,1.28.8,1.24,1.1-.37.56-.42.86-.37.55-.42.85-.79.48-.84.77.21.65.15.94-.29.56-.34.86.72.76.67,1.05-1.54.31-1.6.6.47.71.41,1,.48.72.42,1.01-.91.42-.98.71.1.64.03.93.42.72.35,1.01-.24.57-.31.86-.78.43-.85.72.07.64,0,.93-.58.47-.66.76-.03.61-.11.9,1.14.94,1.06,1.23-.57.47-.65.76-.44.5-.52.79.52.79.43,1.07-1.4.2-1.49.49.46.78.37,1.06.57.82.48,1.11-.6.44-.69.73-.25.56-.34.84-.77.38-.87.66-.53.45-.63.73.43.79.33,1.07-1.2.2-1.3.48.08.67-.03.95,0,.64-.1.92.25.74.14,1.02.27.76.16,1.04-.73.36-.84.63-.36.51-.47.78-.27.54-.38.81.11.7,0,.98-.57.41-.69.68-.8.31-.92.58.32.8.19,1.08-.8.3-.93.57.49.89.36,1.16-.98.2-1.11.47-.28.53-.41.8-.07.63-.2.9.12.73-.02,1,.26.81.13,1.07-1.55-.12-1.69.14,1.07,1.24.93,1.5-1.67-.21-1.81.05.18.78.04,1.04-.66.32-.8.58-.3.52-.44.77,1.19,1.37,1.05,1.63-.99.13-1.14.38c-.15.26-.49.42-.64.67-.16.26-.66.31-.81.56-.16.26.3.89.15,1.14-.16.27.11.79-.05,1.03-.16.26-1.59-.28-1.74-.04-.17.27-.17,1.44-.32,1.68.25-.15.83-1.06,1.09-1.21s1.11.71,1.37.55-.18-1.49.08-1.64.56-.23.82-.38.43-.45.69-.6.4-.5.67-.65.68,0,.95-.15,1.08.72,1.34.57.49-.35.75-.49-.21-1.63.06-1.77.57-.2.84-.34.79.21,1.06.07,1.01.63,1.27.49.04-1.22.3-1.36.3-.73.57-.86.62-.09.89-.23,1.15.97,1.42.83.05-1.23.32-1.36.41-.51.68-.65.68.02.95-.11.74.17,1.01.04.01-1.36.28-1.49.82.32,1.09.2.39-.57.67-.7.62-.08.9-.2.9.55,1.17.42.71.14.98.02-.15-1.81.12-1.93,1.3,1.47,1.57,1.35-.1-1.72.17-1.84,1.03.9,1.31.78.29-.83.57-.95.69.11.97,0,.36-.68.64-.79.59-.14.86-.25.5-.35.78-.46.74.24,1.02.13.38-.67.66-.78.61-.06.89-.17.91.73,1.19.62.22-1.1.5-1.21.81.47,1.09.37.48-.42.76-.52.55-.23.83-.34.42-.59.7-.7.85.61,1.13.51.03-1.71.32-1.81.48-.44.77-.53,1.02,1.13,1.3,1.03.5-.37.79-.46.19-1.33.48-1.42.89.81,1.18.72.48-.45.77-.54.35-.87.64-.96.77.46,1.06.37.75.4,1.04.32.73.35,1.01.26.37-.85.66-.93.28-1.18.57-1.26.61-.05.9-.13.92,1.06,1.21.98.61-.02.9-.1.6-.06.89-.14.6-.06.89-.14.18-1.66.47-1.74.51-.44.8-.51.97,1.41,1.26,1.34.29-1.29.58-1.36.53-.36.82-.43.72.44,1.01.37.56-.25.85-.32.74.57,1.04.51.54-.31.83-.38.44-.76.74-.83.57-.19.86-.26.67.27.96.21.66.24.95.18.55-.3.84-.36.57-.19.86-.25.68.39.98.33.41-1.05.7-1.11.79.98,1.08.92.58-.12.88-.17.55-.31.85-.36.45-.94.74-.99.64.2.94.15.67.38.96.34.52-.55.82-.6.6-.02.9-.06.62.09.92.05.44-1.15.74-1.19.68.52.98.48.54-.45.84-.49.62.11.92.07.7.8,1,.76.53-.6.83-.64.52-.73.82-.77.7.85,1,.82.61.05.91.02.52-.85.81-.88.61.07.91.04.64.41.94.38.52-.95.82-.98.61.04.91.02.73,1.56,1.03,1.54.49-1.45.79-1.47.69,1.28.99,1.26.58-.36.88-.38.61.11.91.1.56-.69.86-.71.62.44.92.42.54-1.18.84-1.19.65.98.95.97.6.08.9.07.59-.16.9-.17.6-.08.9-.09.6-.17.9-.18.59-.57.89-.58.62,1.31.92,1.3.59-.66.89-.66.61.79.91.79.6-.11.9-.11.6-1.27.91-1.27.6.7.91.7.6.36.91.36c.3,0,.6.15.9.15s.61-.37.9-.36.63-1.06.93-1.06.59.36.89.37.58.62.88.63.61-.17.91-.16.62-.46.92-.44.54,1.28.84,1.29.66-1.14.96-1.12.56.7.86.71.65-.82.95-.8.53,1.09.83,1.11.67-1.03.97-1.01.6,0,.9.03.61-.09.91-.06.52,1.01.82,1.04.67-.75.97-.72.63-.23.92-.2.47,1.4.77,1.43.67-.72.97-.69.56.43.86.46.57.3.87.34.7-.82.99-.78.58.22.88.25.53.58.83.62.64-.28.94-.24.44,1.27.73,1.31.6.01.9.05.73-.87,1.02-.83.59.1.89.14.66-.35.96-.3.58.17.88.22.61,0,.9.05.66-.3.95-.25.56.28.86.33.59.15.88.2.52.5.82.55.57.24.86.3.5.61.79.67.56.24.86.3.66-.24.95-.18.45.79.74.85.96-1.69,1.25-1.63.59.14.88.2.36,1.19.66,1.26.78-.75,1.07-.68.31,1.37.6,1.44.56.22.86.29.72-.44,1.01-.38.45.69.74.76.85-.96,1.14-.89.38.97.67,1.04.66-.16.95-.08.53.34.82.41.79-.65,1.08-.57.16,1.74.45,1.82.68-.23.97-.15.79-.62,1.08-.54.44.65.73.73.58.16.87.24.44.62.73.71.67-.17.96-.08.97-1.13,1.25-1.04.37.87.65.96.69-.19.97-.1.16,1.49.45,1.58.81-.56,1.09-.47.5.4.79.49.49.42.78.52.63,0,.91.1.83-.58,1.11-.48.26,1.1.54,1.2.86-.66,1.15-.56.4.68.68.78.68-.12.96-.02.7-.16.98-.06.54.28.82.39.12,1.39.4,1.5,1.11-1.23,1.39-1.13.55.26.83.37.48.43.76.54.12,1.34.4,1.45,1.12-1.19,1.39-1.08.43.55.71.66.52.33.79.44.54.28.81.39.45.48.72.6.09,1.32.37,1.43.92-.64,1.2-.53.18,1.1.45,1.21.98-.76,1.26-.64.26.89.53,1.02.82-.38,1.09-.25.64.04.91.16.7-.08.97.04-.06,1.55.21,1.68.68-.04.94.09,1.09-.9,1.36-.78.43.49.7.62.56.22.83.35.4.55.67.68.21.94.47,1.07,1.08-.81,1.34-.67-.01,1.35.25,1.49.69-.03.95.11.19.93.46,1.07,1.25-1.1,1.51-.96.43.47.7.61,0,1.27.26,1.41.43.46.69.6,1.37-1.26,1.63-1.11.23.82.49.97.43.45.69.6.02,1.18.27,1.33.74-.09.99.05.82-.24,1.08-.09.55.24.8.39.83-.23,1.08-.08.13.97.38,1.12.09,1.02.34,1.17.82-.2,1.07-.04.97-.44,1.22-.29.33.6.58.76-.07,1.24.18,1.4,1.07-.59,1.32-.43.63.13.88.29.24.73.49.88.17.83.41.99,1.2-.74,1.44-.58.02.91.26,1.07c-.14-.25-.51-.29-.66-.57-.14-.25-.69-.3-.84-.57-.14-.25.64-1.01.49-1.28-.14-.26-.12-.6-.26-.87s-1.3,0-1.44-.26,1.16-1.25,1.02-1.53-.23-.54-.37-.81-.95-.19-1.09-.46-.67-.34-.8-.61-.77-.29-.9-.57,1.29-1.27,1.16-1.54-1.23-.08-1.36-.36-.53-.42-.65-.69.49-.87.36-1.15-.2-.56-.32-.84.41-.82.29-1.1-.53-.42-.65-.69-1.25-.12-1.37-.4-.49-.45-.61-.73.71-.93.6-1.22-.87-.29-.98-.57-.28-.53-.38-.81-.65-.39-.76-.67.91-.98.8-1.26-1.21-.19-1.31-.47,1.09-1.03.98-1.31-1.21-.2-1.31-.48.06-.66-.04-.94-.8-.36-.9-.64-.3-.53-.39-.82,1.38-1.09,1.28-1.37-.6-.43-.69-.71.26-.71.17-.99-1.59-.13-1.68-.42.85-.89.77-1.17.33-.72.24-1.01-1.06-.31-1.14-.6-.09-.6-.17-.89-.95-.36-1.03-.64.89-.87.81-1.16.08-.64,0-.93-.01-.61-.09-.9-.56-.47-.64-.76-.45-.5-.52-.8-.03-.61-.1-.9.74-.79.67-1.08-1.28-.32-1.35-.61.03-.62-.04-.91.55-.73.48-1.02-1.04-.39-1.1-.69.12-.64.06-.93.87-.78.81-1.08-1.36-.35-1.41-.64.97-.79.91-1.08-1.58-.32-1.64-.62-.18-.58-.23-.87,1-.77.95-1.07-1.03-.44-1.08-.74,1.05-.77,1.01-1.06-.9-.47-.95-.77.63-.69.59-.99.11-.61.07-.91-.47-.54-.51-.84-1.18-.46-1.21-.76,1.24-.75,1.2-1.05-.34-.56-.37-.86-.7-.53-.73-.83,1.42-.74,1.39-1.04-.56-.55-.59-.84-.18-.58-.2-.88.24-.62.22-.92-1.37-.5-1.4-.8.03-.61.01-.91.43-.63.41-.93.67-.64.65-.94-.03-.6-.04-.9-.94-.56-.95-.86.41-.62.4-.92-.23-.59-.24-.9.55-.61.54-.91-1.32-.58-1.32-.88,1.31-.62,1.3-.92.58-.6.57-.9-1.31-.6-1.31-.9.21-.6.21-.9.14-.6.15-.9-.36-.61-.35-.91,1.27-.57,1.28-.87-.45-.61-.44-.91-1.11-.65-1.1-.95-.23-.62-.22-.92,1.63-.52,1.65-.82-.71-.64-.69-.94-.31-.62-.29-.93,0-.61.03-.91,1.5-.49,1.52-.79-.4-.63-.37-.93-.75-.67-.72-.97,1.12-.5,1.15-.8.09-.59.12-.89-1.57-.78-1.54-1.08,1.5-.44,1.53-.74-1.09-.74-1.05-1.04-.35-.66-.31-.96.88-.49.93-.79-.14-.63-.1-.93,1.41-.41,1.45-.71c.04-.3-1.26-.8-1.21-1.1s.5-.53.55-.83.27-.56.32-.86.55-.51.6-.81.42-.53.47-.83.14-.58.19-.88-1.53-.9-1.47-1.2.13-.59.19-.89.74-.46.8-.76-.77-.78-.71-1.07.28-.56.34-.85.63-.48.69-.77.56-.49.63-.78-.74-.79-.67-1.09.93-.39,1-.69-.79-.82-.71-1.11.1-.6.17-.89,1.98-.1,2.06-.39-.16-.66-.08-.95.53-.47.61-.76-.5-.76-.41-1.05.78-.39.87-.68-1.51-1.07-1.42-1.36,1.72-.11,1.81-.39-1.41-1.07-1.32-1.35.34-.53.43-.81.65-.42.74-.71.67-.41.77-.69.8-.36.9-.64-1.23-1.06-1.13-1.34.84-.34.94-.62.16-.58.26-.86-.18-.7-.07-.99.36-.51.46-.79.35-.51.46-.79.78-.34.89-.62-.62-.89-.51-1.17,1.43-.07,1.54-.35-1.58-1.29-1.46-1.57.32-.52.43-.8.85-.3.97-.57,1.16-.15,1.28-.42-.24-.76-.12-1.03-.7-.97-.58-1.24.19-.58.32-.85,1.14-.14,1.26-.41.38-.48.51-.75-.05-.69.08-.96.11-.61.24-.88.1-.62.24-.89,1.09-.13,1.22-.39-.84-1.1-.71-1.37.05-.66.19-.92.55-.4.69-.66,1.55.14,1.69-.13-.88-1.16-.74-1.42.17-.6.31-.86,1.75.28,1.9.02.28-.53.42-.79-.34-.88-.19-1.14.3-.52.45-.78-.2-.82-.05-1.08,1.21.02,1.36-.24-.3-.88-.14-1.13.43-.44.58-.7.86-.18,1.01-.43,0-.7.16-.96.52-.38.68-.63.16-.61.32-.86-.22-.86-.06-1.11.04-.7.21-.94.85-.16,1.01-.41.22-.58.38-.83.21-.58.38-.83.09-.67.26-.91,1.23.13,1.4-.12-.07-.78.11-1.03.81-.16.98-.4-.18-.87,0-1.11.73-.2.91-.44.48-.38.66-.62-.84-1.39-.66-1.63,1.38.3,1.56.06-.25-.96-.07-1.19,1.38.32,1.57.09-.8-1.4-.61-1.63.81-.12,1-.35.52-.35.7-.58-.16-.91.02-1.14.29-.55.48-.77.49-.37.69-.6,1.39.4,1.59.17-.37-1.11-.18-1.33.46-.4.66-.62.41-.45.61-.67.66-.22.86-.44.97.07,1.17-.15-.76-1.51-.56-1.73,1.25.34,1.45.12.13-.7.34-.91.87,0,1.07-.22-.12-.94.09-1.16.11-.74.31-.95.16-.68.37-.89.79-.06,1-.27.23-.62.44-.83.19-.67.4-.87,1.25.43,1.47.23.49-.36.7-.57.11-.76.32-.96.54-.3.76-.5c.22-.21.83.02,1.04-.18.23-.21-.2-1.11.02-1.31.23-.21.18-.72.39-.91.23-.21.39-.48.6-.67.23-.2.57-.28.78-.46.24-.2,1.89-.13,2.1-.31-.24.08-1.61.04-1.93.15-.26.09-.14,1.44-.45,1.53-.27.08-.65-.11-.95-.01-.27.08-.73-.39-1.03-.3-.27.08-.57.14-.87.23-.28.08-.68-.24-.97-.16-.28.08-.34,1.01-.63,1.09-.28.08-.63-.07-.93.01s-.41.82-.7.89-.56.22-.86.29-.66-.19-.96-.12-.86-1.09-1.16-1.03-.64-.17-.94-.11-.26,1.61-.56,1.68-.84-1.14-1.14-1.08-.38,1.13-.68,1.18-.66-.28-.96-.22-.49.63-.79.68-.5.64-.8.69-.63-.14-.93-.09-.75-.91-1.04-.87-.5.65-.8.69-.57.23-.87.27-.58.17-.88.21-.56.31-.86.34-.78-1.49-1.08-1.46-.51.72-.81.76-.58.18-.88.21-.5,1.01-.8,1.04-.7-1.12-1-1.1-.61-.18-.91-.16-.6-.09-.9-.07-.57.37-.87.39-.6-.07-.9-.05-.56.58-.86.6-.64-.9-.94-.89-.58.4-.88.41-.58.48-.88.49-.58.64-.89.65-.62-1.53-.92-1.53-.58,1.89-.88,1.9-.6-.42-.91-.42-.59-.78-.9-.78-.59-.62-.89-.62-.61.6-.91.6-.58-.66-.88-.67-.59-.02-.89-.03-.62.48-.92.46-.58-.38-.88-.39-.57-.34-.87-.36-.69,1.34-.99,1.32-.61.13-.91.1-.57-.41-.87-.44-.56-.43-.86-.46-.6.02-.9-.01-.54-.55-.84-.58-.65.48-.95.44-.61.07-.91.03-.54-.45-.84-.49-.69.6-.98.55-.44-1.13-.73-1.18-.78,1.11-1.07,1.06-.54-.42-.84-.47-.46-.86-.75-.91-.62.06-.91,0-.51-.49-.81-.55-.92,1.54-1.21,1.48-.43-.89-.73-.95-.5-.54-.79-.61-.7.4-1,.34-.35-1.14-.64-1.21-.56-.19-.86-.26-.63.08-.92,0-.49-.49-.78-.57-.74.45-1.03.37-.82.72-1.11.64-.32-1.08-.61-1.16-.6-.08-.89-.17-.94,1.01-1.22.92-.54-.3-.83-.39-.28-1.09-.57-1.18-.49-.42-.78-.52-.59-.11-.88-.21-.78.4-1.06.3-.35-.8-.64-.9-.88.66-1.17.56-.4-.65-.68-.76-.37-.71-.65-.82-.94.73-1.22.62-.38-.67-.66-.79-.74.2-1.01.08-.08-1.35-.36-1.47-.52-.3-.8-.42-.7.11-.98,0-.72.13-.99,0-.89.48-1.17.35-.16-1.09-.43-1.22-.39-.57-.66-.7-.62-.1-.89-.24-.61-.13-.88-.26-.33-.67-.6-.81-.82.27-1.09.12c-.27-.14-.87.33-1.13.19s-.48-.39-.74-.54-.61-.15-.88-.3.39-1.92.13-2.06-1.46,1.32-1.72,1.17-.43-.48-.68-.63-.22-.8-.48-.96-.61-.16-.86-.32-.06-1.04-.31-1.2-.49-.34-.74-.51-.33-.59-.58-.75-1.2.73-1.45.57-.27-.68-.52-.85-.4-.48-.65-.65-1.1.52-1.34.35.29-1.45.04-1.63-1.17.6-1.42.42-.49-.37-.73-.54.12-1.17-.12-1.35-.35-.52-.59-.7-1.12.47-1.36.29-.03-.94-.26-1.12,0-.97-.23-1.15-.59-.22-.82-.41-.84.08-1.07-.11-.35-.52-.57-.71-.36-.5-.59-.69-.44-.41-.66-.6-1.03.26-1.25.06.25-1.17.03-1.37-.5-.33-.72-.54-.58-.25-.8-.45-.68-.15-.9-.35-.9.07-1.11-.14-.39-.47-.6-.68-.22-.64-.43-.85.49-1.32.28-1.54-1.35.48-1.56.27-.37-.48-.58-.7.42-1.22.21-1.43-.55-.3-.76-.52-.69-.18-.89-.4-1.31.37-1.51.14-.08-.74-.28-.96.66-1.37.47-1.59-1.29.32-1.48.09.15-.91-.05-1.14-.14-.65-.33-.89-1.48.44-1.67.2-.25-.57-.44-.81-.01-.76-.2-.99.43-1.09.25-1.33-1.19.16-1.37-.08-.19-.61-.37-.85-.3-.53-.48-.77.26-.93.08-1.17-.83-.14-1-.38-.53-.36-.7-.61-1.17.08-1.34-.17.26-.91.09-1.16-.61-.32-.78-.57.15-.82-.01-1.07-.89-.14-1.05-.4,0-.71-.17-.96-.53-.38-.69-.63.15-.8,0-1.05.13-.78-.02-1.04-.06-.66-.21-.91-.9-.16-1.05-.42.22-.82.07-1.08-.73-.27-.88-.53-.38-.47-.53-.73-.86-.21-1-.48.2-.79.06-1.05-1.22-.04-1.36-.3.86-1.13.72-1.39.1-.72-.03-.99-1.05-.14-1.19-.41-.72-.32-.85-.59-.01-.66-.14-.93-.68-.35-.8-.62,1.08-1.16.95-1.43-1.63.09-1.76-.18-.11-.61-.23-.88-.08-.63-.2-.9.99-1.09.88-1.36-.97-.24-1.08-.52-1.04-.23-1.15-.5,1.17-1.13,1.06-1.4-.9-.29-1.01-.57-.99-.27-1.09-.55.74-.93.64-1.21-1.03-.26-1.13-.54-.28-.54-.38-.82,1.19-1.06,1.09-1.34-.08-.6-.18-.88-.58-.43-.67-.71-.31-.53-.4-.8-.7-.41-.78-.69-.47-.49-.56-.77c-.09-.29.73-.85.65-1.13-.09-.29-.97-.34-1.05-.62-.08-.29.97-.9.9-1.18-.08-.3-.77-.42-.85-.69-.08-.3-.61-.47-.68-.75-.08-.31-.4-.54-.46-.81-.08-.32,1.45-.99,1.39-1.25-.08-.33-1.04-.78-1.09-1.02Z"/></svg>