<?xml version="1.0" encoding="UTF-8"?><svg id="uuid-13a80a75-14f4-41ac-92ea-13735e874c42" xmlns="http://www.w3.org/2000/svg" width="15mm" height="15mm" viewBox="0 0 42.52 42.52"><defs><style>.uuid-0c0de8c4-38f0-4833-a737-3f78a4c50a5f{fill:#5ab67a;stroke-width:0px;}</style></defs><path class="uuid-0c0de8c4-38f0-4833-a737-3f78a4c50a5f" d="m19.67,6.44l-11.41,5.52c-.13.06-.22.2-.22.34l-.02,2.03c0,.28.29.47.55.35l8.4-3.94c.26-.12.55.07.55.35l-.06,5.84-8.49.09c-.28,0-.51.24-.51.52v.84c.01.28.24.51.53.51l8.4-.09v.04c-.11.05-.32.2-.63.43l-8.02,6.11c-.13.1-.2.25-.2.41v1.3c.02.43.51.66.85.4l8.02-6.38-.04,4.36c-.04,4.39-1.47,6.28-4.58,6.25-1.59-.02-3.19-1.02-4.42-3.07-.14-.23-.45-.26-.63-.06l-1.26,1.44c-.1.12-.13.29-.05.43,1.52,2.9,4.01,4.24,6.39,4.26,5.45.05,7.33-3.99,7.38-8.95v-3.29s0-2.11,0-2.11v-1.61s0-1.87,0-1.87V6.78c0-.29-.29-.47-.55-.35Z"/><path class="uuid-0c0de8c4-38f0-4833-a737-3f78a4c50a5f" d="m21.47,6.44l11.41,5.52c.13.06.22.2.22.34l.02,2.03c0,.28-.29.47-.55.35l-8.4-3.94c-.26-.12-.55.07-.55.35l.06,5.84,8.49.09c.28,0,.51.24.51.52v.84c-.01.28-.24.51-.53.51l-8.4-.09v.04c.11.05.32.2.63.43l8.02,6.11c.13.1.2.25.2.41v1.3c-.02.43-.51.66-.85.4l-8.02-6.38.04,4.36c.04,4.39,1.47,6.28,4.58,6.25,1.59-.02,3.19-1.02,4.42-3.07.14-.23.45-.26.63-.06l1.26,1.44c.1.12.13.29.05.43-1.52,2.9-4.01,4.24-6.39,4.26-5.45.05-7.33-3.99-7.38-8.95v-3.29s0-2.11,0-2.11v-1.61s0-1.87,0-1.87V6.78c0-.29.29-.47.55-.35Z"/><path class="uuid-0c0de8c4-38f0-4833-a737-3f78a4c50a5f" d="m18.32,16.94l3.62.09c.12,0,.22.24.22.52v.84c0,.28-.1.51-.23.51l-3.58-.09"/></svg>