<?xml version="1.0" encoding="UTF-8"?><svg id="uuid-88eda84d-677c-4362-9cdf-aa7084bed828" xmlns="http://www.w3.org/2000/svg" width="300" height="140" viewBox="0 0 300 140"><defs><style>.uuid-7a5ff1a2-ea4e-46e8-aa16-945ba4379bc6{fill:#0071bc;}.uuid-7a5ff1a2-ea4e-46e8-aa16-945ba4379bc6,.uuid-b68e4d42-3abc-4cdd-acad-9c953068c1d4{stroke-width:0px;}.uuid-38da5ddb-f02b-4b28-bf70-2ebec457926b{fill:#f7931e;stroke:#f7931e;stroke-miterlimit:10;stroke-width:1.65px;}.uuid-b68e4d42-3abc-4cdd-acad-9c953068c1d4{fill:#2e3192;}</style></defs><g id="uuid-04b186c8-313e-4a7f-8d65-71d147c34a65"><path class="uuid-7a5ff1a2-ea4e-46e8-aa16-945ba4379bc6" d="m249.17,103.5c.23.19.53.13.76.32s1.09-.35,1.31-.16-.35,1.32-.12,1.51.63.18.85.38.75.04.97.24-.44,1.43-.21,1.62.42.42.65.61,1.4-.72,1.63-.53.37.48.6.67-.34,1.31-.11,1.51,1.32-.63,1.55-.43.76.03.99.22-.78,1.82-.55,2.02,1.35-.67,1.58-.47-.47,1.47-.25,1.66.6.22.82.41.79,0,1.02.19,1.25-.55,1.48-.35.12.77.35.97.25.62.48.81-.18,1.13.04,1.32,1.17-.45,1.4-.26.02.89.25,1.08.19.7.41.89,1.48-.82,1.71-.63.35.51.58.7.28.59.51.78.58.24.8.43,0,.92.22,1.12,1.06-.32,1.29-.13.49.34.72.54-.09,1.02.14,1.21.26.61.49.8.14.75.37.94.43.41.66.61c0,0,.5-1.02.5-1.02.46,0,.45.71.9.72s.45.5.91.5.46.13.91.14.48-.98.94-.98.45.41.91.41.47-.5.92-.49.46-.1.92-.09.45.4.91.4.46-.03.92-.02.47-.4.93-.39.45.61.91.62.46.26.92.27.46.11.92.12.48-1.32.94-1.31.45.33.91.34.46.29.92.3.47-.48.93-.47.44,1.39.9,1.4.07-1.38.48-1.59-.13-.02.11-.39.24-.37.48-.74,1.26.29,1.5-.08-.1-.59.15-.96.32-.32.57-.69.28-.34.52-.71.24-.37.49-.74-.22-.68.02-1.05-.08-.58.17-.96.4.25.4-.19.78-.47.53-.86-.09-.5-.34-.88-.59-.16-.84-.55.26-.73,0-1.11-.08-.5-.33-.89-1.41.38-1.66,0,.66-1,.41-1.38-1.22.26-1.48-.13.54-.92.28-1.3-.21-.15-.22-.62.19-.09.43-.49.49-.25.73-.65.24-.4.48-.8-.98-1.14-.74-1.54,1.08.11,1.32-.29-.15-.64.09-1.04-.22-.68.03-1.08.12-.48.36-.88.54-.22.79-.62,1.19-.15,1.16-.62-.35-.56-.63-.92-.96.17-1.24-.2.5-.97.21-1.33-.87.1-1.15-.26.5-.97.22-1.33-1.42.52-1.7.16.15-.7-.14-1.06-.31-.35-.59-.71-.41-.38-.45-.84-.48-.8-.26-1.2.15-.43.37-.82,1.16.14,1.38-.25-.78-.96-.56-1.35,1.76.48,1.98.08.14-.44.36-.83-.68-.89-.46-1.28,1.23.18,1.45-.22-.24-.65-.02-1.04.55-.21.78-.6-.14-.66-.2-1.1-.84.23-1.16-.09-.26-.38-.57-.7-.11-.52-.42-.85.66-1.25.34-1.58-1.05.37-1.36.05.1-.72-.21-1.05.09-.71-.22-1.03-.72.06-1.03-.27-.07-.55-.39-.88-.49-.16-.8-.49-.07.09-.09-.36.05.16.32-.21-.96-1.27-.68-1.65.1-.5.38-.88,1.09.22,1.37-.16-.02-.59.25-.97.48-.23.75-.61.38-.3.66-.68-.44-.89-.17-1.27.74-.04,1.02-.42.14-.48.42-.86,1.14.24,1.42-.14-.8-.68-.82-1.15c-.02-.43.33-.2.02-.5s-.2-.41-.51-.71-.32-.29-.63-.59-.5-.11-.81-.41.15-.78-.15-1.08-.2-.41-.51-.71-.4-.2-.71-.5.13-.76-.18-1.06-1.17.58-1.48.28-.16-.46-.47-.76.34-.24.32-.67-.54-.19-.26-.53-.63-1.07-.35-1.41,1.81.89,2.09.54-.43-.9-.15-1.25.16-.44.43-.78.8.07,1.07-.27-.73-1.15-.46-1.49.22-.38.5-.73.72.01,1-.33.01-.56.29-.9.88.14,1.16-.21.66-.42.64-.86-.38-.52-.69-.86-.44-.22-.75-.56-.32-.33-.63-.67.08-.7-.24-1.03-.3-.35-.61-.69-.88.19-1.19-.15-.64-.03-.95-.37-.18-.46-.49-.8-.1-.54-.41-.88.48-1.07.17-1.41-.84.46-.83,0-.24-.39.09-.7-.12-.79.21-1.11.24-.41.57-.73.54-.1.88-.42.49-.16.82-.47.27-.38.6-.7.09-.57.42-.89.35-.3.68-.62,1.53.92,1.86.59-.09-.87.13-1.27c-.21-.21-.6-.48-.81-.7s.02-.85-.18-1.07-.48-.36-.69-.58-.44-.41-.64-.62-.86,0-1.07-.21-.2-.64-.4-.85-.75-.1-.96-.32.49-1.3.28-1.52-.63-.22-.84-.43-1.05.19-1.26-.03.44-.67.23-.88c.17-.25.36,0,.53-.24s.17-.62.34-.87-.11-.81.06-1.06-.32-.95-.15-1.2,1.74.44,1.91.19-.89-1.33-.72-1.58.42-.45.59-.7,1.1,0,1.27-.24-.84-1.3-.67-1.55.62-.32.79-.57.19-.6.36-.86,1.88-.52,2.05-.78c-.3,0-1.49.2-1.79.21s-.6,0-.89.01-.58,1.05-.88,1.06-.6-.23-.9-.22-.6-.52-.9-.51-.59.52-.89.52-.61-1.02-.91-1.02-.6-.46-.9-.45-.58,1.27-.87,1.27-.6-.38-.9-.38-.61-.81-.91-.8-.6.04-.89.04-.57,1.72-.87,1.73-.61-.93-.91-.93-.58.97-.88.97-.61-.94-.91-.94-.58.91-.88.91-.61-1.08-.91-1.08-.6.03-.89.04-.58,1.22-.87,1.22-.63-1.86-.92-1.85-.58,1.29-.87,1.3-.6-.15-.9-.14-.61-.85-.91-.85-.83,1.1-1.13,1.1c-.38-.23-.19-.58-.53-.87s0-.67-.33-.96-1.08.54-1.41.24.21-.91-.12-1.2-.75.18-1.09-.12-.29-.34-.62-.64-.23-.41-.56-.71-.16-.49-.49-.79-.52-.09-.85-.39-.53-.08-.86-.37.22-.92-.11-1.22-.99.44-1.32.14.41-1.13.08-1.43-.42-.2-.76-.49.02-.7-.31-1-1.18.65-1.51.35-.24-.4-.57-.7.16-.85-.17-1.14-.63.04-.96-.26-.07-.59-.4-.89-.33-.3-.66-.59-.92.36-1.26.06-.44-.18-.77-.48.33-1.04,0-1.34-.25-.39-.58-.69-.29-.35-.62-.65-.89.32-1.22.02-.45-.16-.79-.46.36-1.08.03-1.38-.44-.18-.78-.48-.68.09-1.02-.21-.04-.62-.38-.92-.53-.07-.87-.37-.31-.33-.64-.63.3-1.01-.04-1.31-1.16.62-1.5.32.01-.77-.41-.93-.47.42-.92.42-.45-.79-.9-.79-.45.66-.9.66-.45-.96-.9-.96-.44,1.61-.89,1.61-.45-.19-.9-.19-.45-.16-.9-.16-.45-.58-.9-.58-.45.6-.9.6-.45-.51-.9-.51-.45-.23-.9-.23-.45.24-.9.25-.45-.79-.9-.79-.45-.13-.9-.13-.44,1.83-.89,1.83-.45-.43-.9-.43-.45-.96-.9-.96-.44.89-.89.89-.45-.09-.9-.09-.45-.35-.9-.34-.45-.37-.9-.37-.44,1.13-.89,1.14-.45-.94-.9-.94-.45-.49-.9-.48-.44,1.49-.89,1.49-.45-.27-.89-.26-.45.33-.89.33-.45-1.04-.9-1.04-.45-.26-.89-.26-.44.77-.89.77-.45-.4-.9-.39-.44.98-.89.98-.45.07-.89.07-.45-1.22-.9-1.22-.45.21-.89.21-.45-.87-.9-.86-.44.89-.89.89-.45.26-.89.26-.45-1.04-.9-1.04-.44.77-.89.77-.45-.77-.9-.77-.44,1.78-.89,1.78-.45-.57-.9-.57-.45-1.22-.9-1.22-.45.37-.89.37-.45-.47-.9-.46-.45.28-.89.28-.45.62-.89.62-.44.73-.89.73-.45-.9-.9-.9-.45.23-.9.24-.45-.54-.9-.54-.45-.1-.9-.1-.45.05-.9.06-.44,1.6-.89,1.6-.45.02-.9.02-.45-.42-.9-.42-.45.32-.9.32-.45,0-.9,0-.45.06-.9.06-.46-.94-.91-.94-.45.89-.9.89-.45.05-.9.05-.45.08-.9.09-.45-.94-.9-.93-.45-.22-.9-.22-.45.89-.89.89-.45.13-.9.14-.45-.22-.9-.22-.45-.17-.9-.17-.45-.94-.9-.94-.45.38-.9.38-.45.65-.89.66-.45-.77-.9-.77-.45.67-.89.67-.45.23-.9.23-.45-.16-.9-.16-.45-.54-.9-.54-.45.59-.89.59-.45-1.23-.9-1.23-.44,1.01-.89,1.01-.45-.61-.9-.61-.45.33-.9.33-.45-.76-.9-.76-.44,1.27-.89,1.27-.45.29-.9.29-.46-1.63-.9-1.62-.45.27-.9.28-.45-.07-.9-.07-.45.55-.89.55-.44.85-.89.85-.46-1.25-.9-1.25-.45-.12-.9-.12-.45.8-.89.81-.45.08-.9.08-.46-1.12-.9-1.12-.44,1.34-.89,1.34-.45.19-.9.19-.46-1.08-.91-1.07-.45.38-.9.38-.45-.3-.9-.3-.45.58-.9.59-.45.59-.9.59-.46-1.58-.91-1.58-.44,1.24-.9,1.24-.45-.49-.9-.49-.45-.34-.9-.34-.45.13-.9.13-.45.45-.9.45-.45.4-.9.4-.45.16-.9.16-.46-1.61-.91-1.6-.45.7-.9.7-.44,1.1-.89,1.1-.46-1.7-.91-1.7-.44,1.71-.89,1.72-.45.02-.9.02-.45-.72-.9-.72-.45-.29-.9-.29-.45.83-.9.83-.45-.21-.9-.21-.45-.52-.9-.52-.46-1.05-.91-1.05-.45.92-.9.92-.45-.07-.9-.07-.45.64-.9.64-.46-1.03-.91-1.03-.45.11-.9.11-.45.58-.9.58-.45.73-.9.73-.46-1.7-.91-1.7-.45.95-.9.95-.45-.21-.9-.2-.45-.65-.9-.64-.45-.25-.9-.25-.44,1.82-.89,1.82-.45-.88-.9-.88-.45,1.03-.9,1.04-.46-1.68-.91-1.68-.45.74-.9.74-.45.8-.9.8-.45-.15-.9-.15-.45.12-.9.12-.46-1.4-.91-1.4-.45.35-.9.35-.45.34-.9.34-.45,0-.9,0-.45.34-.9.34-.45.18-.9.19-.45-.78-.91-.78-.45-.32-.9-.32-.45.99-.9.99-.45.15-.9.15-.46-1.11-.91-1.11-.45.09-.9.09-.44,1.23-.9,1.23-.46-1.33-.91-1.33-.44,1.28-.9,1.28-.45-.27-.9-.27-.46-.75-.91-.74-.45.23-.9.23-.45.87-.9.87-.46-1.26-.91-1.26-.45-.32-.9-.32-.44.97-.89.97-.45-.3-.9-.3-.45.49-.9.49-.45.25-.9.25-.45.15-.9.16-.45-1.04-.9-1.04-.45.32-.9.32-.45-.91-.9-.91-.44,1.23-.89,1.24-.45.08-.9.09-.45-.64-.9-.63-.45-.75-.91-.75-.45.29-.9.29-.45-.05-.9-.05-.45,1.06-.9,1.06-.45-.68-.91-.68-.45-.47-.9-.46-.45,1.05-.9,1.05-.45.12-.9.12-.46-1.2-.91-1.19-.44,1.76-.89,1.77-.45-.68-.91-.68-.45-.19-.91-.19-.46-.94-.91-.93-.45,1.32-.9,1.32-.45.35-.9.35-.46-.89-.91-.88-.45.57-.9.57-.45-.54-.91-.53-.45.85-.9.85-.45-.26-.91-.26-.46-.84-.91-.84-.45-.12-.9-.12-.45-.06-.91-.05-.45.51-.9.52-.45.15-.91.15-.45-.03-.91-.03-.46-.79-.91-.79-.45,1.08-.9,1.08-.46-1.05-.91-1.05-.45-.16-.9-.16-.45.09-.9.1-.45.53-.91.53-.45.97-.9.97-.46-1.44-.91-1.44-.45,1.54-.9,1.54-.46-1.19-.91-1.19-.46-.38-.91-.37-.44,1.6-.9,1.61-.46-1.53-.92-1.53-.45.6-.91.6-.46-.92-.92-.92-.43,1.05-.88,1.13c-.22.21-.32.4-.54.61s-.85-.03-1.07.18-.05.83-.27,1.03-1.24-.44-1.45-.23-.28.58-.49.79.69,1.61.47,1.82-1.1-.3-1.32-.09-.97-.16-1.19.05.68,1.6.46,1.81-1.45-.67-1.67-.46.05.93-.17,1.13.2,1.09-.02,1.29-1.02-.21-1.24,0-.94-.12-1.15.09.03.91-.19,1.12-.47.37-.69.58-.14.73-.36.93-.6.24-.82.45-1.24-.44-1.46-.23-.13.74-.35.95-.69.15-.9.35-.44.41-.66.61.32,1.22.1,1.43-1.14-.34-1.36-.13.55,1.46.33,1.67-1.56-.78-1.78-.57.21,1.11,0,1.31-.66.17-.88.38-.49.35-.71.56-.14.73-.36.94-.87-.05-1.09.16-.1.77-.32.98.33,1.23.11,1.43-.5.35-.72.55-1.36-.57-1.58-.36-.47.37-.69.58-.28.39-.5.59c-.3.04-.52-.37-.82-.32s-.54.46-.84.51-.57.27-.87.32-.46,1.02-.76,1.06-.59.15-.89.2-.82-1.47-1.12-1.43-.56.35-.86.39-.44,1.21-.74,1.26-.6.06-.9.1-.63-.11-.92-.07-.71-.7-1.01-.66-.59.13-.89.17-.41,1.38-.71,1.42-.59.1-.89.15-.78-1.22-1.08-1.18-.42,1.3-.72,1.34-.61,0-.91.04-.63-.11-.92-.07-.72-.8-1.02-.76-.33.8-.62.84c-.16.25.3.7.13.95s-.52.38-.68.63-1.36-.16-1.52.09.17.82.01,1.08.29.9.12,1.15-.35.49-.51.74-.44.43-.6.68-.9.14-1.06.39-.18.5-.34.75c.17.25-.55,1.01-.38,1.26s1.26-.14,1.43.1.12.65.29.89,1.12-.05,1.29.2-.38.99-.21,1.24,1,.04,1.17.28-.27.91-.1,1.16-.38.99-.21,1.24,1.34.12,1.51.36c-.09.45-.39.41-.59.82s.24.62.04,1.03-.6.22-.8.63-.06.48-.25.89.36.68.16,1.09-1.81-.36-2,.05.13.57-.07.98.28.64.08,1.05-.33.35-.53.76-.09.46-.29.88-.26.34-.23.79.14.32.39.69.46.23.72.6-.25.72,0,1.09.33.32.58.69-.34.78-.09,1.15,1.63-.58,1.88-.21-1.03,1.26-.78,1.63.49.21.75.58.36.01.36.47.66.58.42.96-.09.48-.33.86-1.39-.36-1.63.02-.35.31-.6.68.23.68,0,1.06-.37.3-.62.67-.66.11-.91.49.16.64-.08,1.02.68.58.68,1.03-.03.07.22.43.38.28.64.65-1.03,1.26-.77,1.63,1.25-.32,1.5.05.66.09.91.46-.79,1.09-.54,1.46,1.24-.31,1.49.06-.73,1.05-.48,1.43.3.03.28.48.94.84.67,1.22-.97-.13-1.25.24.59,1,.31,1.38-1.64-.62-1.92-.24.04.61-.23.99.55.98.28,1.36-.7.07-.97.45-.62.2-.65.66c-.03.43-.44.76-.21,1.13s1.45-.39,1.68-.02-.7.95-.47,1.32.34.3.57.67-.04.54.19.91,1.15-.2,1.38.17-.34.73-.11,1.1.23.37.46.74-.04.54.19.91.95.05.93.49c-.02.47-.05.55-.31.94s-.42.28-.68.67.37.8.12,1.19-1.54-.46-1.8-.07.97,1.2.71,1.59-1.46-.4-1.72,0,.92,1.16.66,1.56-1.73-.11-1.74.36.2.8.44,1.2,1.31-.24,1.55.16.19.43.43.83-.55.87-.31,1.27.35.33.59.73.76.09,1.01.49.64.16.88.56-.31.73-.07,1.14-.34.36-.35.83.34.29.08.69-.27.39-.53.78-.65.14-.9.54,1.09,1.26.83,1.66-.62.16-.87.56-.19.44-.44.84-1.12-.16-1.38.24.18.59.17,1.06-.54.69-.3,1.08,1.31-.26,1.55.14.19.42.43.82.38.31.62.7.08.49.32.89-.33.74-.09,1.14.99-.06,1.23.34.15.45.4.85.31.7.31,1.16-.34.6-.58.98-.42.28-.67.67-.98-.07-1.22.32-.04.52-.28.9.48.84.24,1.23-1.21-.22-1.45.17.53.88.29,1.27-.63.15-.87.54-1.15.47-1.14.93,1.02.42,1.28.78.86-.07,1.11.29-.63.99-.38,1.35-.07.59.19.95,1.45-.49,1.7-.13-.79,1.1-.53,1.46.56.14.82.5.32.32.57.68.45.11.85.31.32.79.77.78.44-.6.89-.61.44-.55.89-.56.46.67.91.67.46.74.91.73.42-1.64.87-1.65.47.92.92.91.45.16.9.15.44-.51.89-.52.46.6.91.59.46.62.91.61.42-1.52.87-1.53.47,1.02.92,1.02.44-.51.89-.51.45-.16.9-.17.45.03.9.02.46.31.91.3.45-.33.9-.34.45-.24.9-.25.47,1.09.92,1.08.43-1.3.89-1.31.47,1.01.93,1.01.44-1.04.89-1.05c0,0-.28.24-.28.24.22-.2.1-.76.32-.96s.49-.34.71-.54,1.49.74,1.71.54.11-.75.33-.95.37-.48.58-.68.43-.41.64-.61.74-.08.95-.28.48-.36.69-.56.09-.77.31-.97.57-.25.79-.45.29-.56.51-.76-.04-.92.18-1.12.32-.53.53-.73,1.4.64,1.62.44-.22-1.11,0-1.31,1.25.48,1.46.28-.3-1.19-.08-1.39.91.12,1.13-.08-.48-1.4-.27-1.6.54-.29.75-.49,1.33.57,1.55.37.6-.22.82-.42.37-.47.59-.67-.39-1.3-.17-1.5.22-.63.44-.83,1.09.31,1.31.1-.26-1.15-.04-1.35.87.07,1.09-.13.68-.14.9-.34.54-.29.75-.49.05-.82.27-1.02,1.19.42,1.41.22-.25-1.14-.03-1.34.75-.06.97-.26.17-.7.39-.9c.3,0,.61-.18.91-.18s.6.61.9.61.6-.48.9-.48.6.93.9.93.6-.32.9-.32.6.34.9.34.6-.77.9-.77.6-.44.9-.44.6-.07.9-.08.6.95.9.95.6.35.9.35.6-.51.9-.51.6.34.9.34.6-.39.9-.39.6-.8.9-.8.6-.58.9-.58.61,1.96.91,1.96.6,0,.9,0,.59-1.87.89-1.87.61,1.72.91,1.72.6-.55.9-.55.6.05.9.05.6.65.9.64.6-.46.9-.46.6.43.9.43.6-.36.9-.36.59-1.24.89-1.24.6.55.9.55.6,1.04.9,1.03.59-1.67.89-1.68.61,1.57.91,1.57.6-.64.9-.64.59-1.07.89-1.07.61,1.57.91,1.57.59-1.53.89-1.53.6,1,.9,1,.59-1.04.89-1.04.61,1.55.91,1.55.6.14.9.14.6-.33.9-.33.59-1.14.89-1.15.6.84.9.84.6.7.9.7.59-1.03.89-1.03.6.06.9.06.6-.68.9-.69.6.07.9.06.6-.08.9-.08.6,1.04.9,1.03.6.35.9.35.6.02.9.02.6-.99.9-.99.6.3.9.3.6.72.9.72.6-1,.9-1,.6.48.9.48.6.38.9.38.59-1.61.89-1.61.6,1.05.9,1.05.6-.88.9-.88.6-.03.9-.03.6.4.9.4.6,0,.9,0,.6-.09.9-.1.6-.44.9-.44.61,1.2.91,1.2.6.33.9.33.59-1.48.89-1.49.61,1.77.91,1.77.6-.43.9-.43.6-.17.9-.17.6-.74.9-.75.6-.37.9-.37.6.48.9.48.61,1.28.91,1.28.59-1.6.89-1.6.6.04.9.03.6.04.9.04.6.5.9.5.6-.65.9-.65.61,1.72.91,1.72.6-.09.9-.09.6.04.9.04.6-.22.9-.22.59-1.15.89-1.15.61,1.26.91,1.26.6-.44.9-.44.6-.94.9-.94.6-.33.9-.33.6.71.9.71.6.43.9.43.6.2.9.2.6-.77.9-.77.6.34.9.34.6-.44.9-.44.6.57.9.57.6-.31.9-.31.6.14.9.14.6-.15.9-.15.6-.41.9-.42.61,1.25.91,1.25.6-.92.9-.92.6.45.9.45.6-.29.9-.3.6-.97.9-.97.61,1.07.9,1.07.6.14.9.14.59-1.05.89-1.05.61,1.22.91,1.22.6.04.9.03.6-1.02.89-1.02.61,1.16.91,1.15.6-.39.9-.39.6.46.9.46.6-.45.9-.45.6.24.9.24.6-.14.9-.14.6-.52.9-.52.61,1.09.91,1.09.59-1.21.89-1.21.6.7.9.7.59-1.06.89-1.06.61,1.61.91,1.6.6-.92.9-.92.6-.6.9-.61.61,1.52.91,1.51.6-.63.9-.63.59-1.06.89-1.06.6.56.9.56.6-.69.9-.69.6,1.02.9,1.01.6.57.9.57.6-.22.9-.22.6-.97.9-.97.6-.6.9-.6.6.67.9.67.61,1.11.91,1.11.6.09.9.09.59-1.4.89-1.4.6.05.9.05.6-.18.9-.18.6-.2.9-.2.61,1.2.91,1.2.6-.95.9-.96.61,1.58.91,1.58.59-1.96.89-1.97.61,1.18.91,1.18.59-1.1.89-1.1.61,1.33.91,1.33.6-.54.9-.54.6-.38.9-.38.6-.55.9-.55.61,1.15.91,1.15.6-.32.9-.32.6.49.9.49.6-.68.9-.68.6.29.9.28.6-.44.9-.44.6-.25.9-.25.6.84.9.84.6.65.9.64.6-.14.9-.14.6-.92.9-.93.6.08.9.08.6,1,.9,1,.59-1.39.89-1.39.61,1.33.91,1.33.6.03.9.03.6-.84.9-.85.6-.74.9-.74.61,1.21.91,1.21.6-.63.9-.63.6-.73.9-.73.6.09.9.09.6.14.9.14.6.98.9.98.6-.29.9-.29.6.92.9.92.59-1.2.89-1.2.6.49.9.48.6.52.9.52.6-.51.9-.51.6.43.9.43.6-.94.9-.94.6-.07.9-.08.6-.22.9-.23.6.27.9.27.6.7.9.7.59-1.03.89-1.03.6.35.9.34.6.3.9.3.6.36.9.35.6-.33.9-.33.6-.79.9-.79.6.52.9.52.6.99.9.99.6-.2.9-.2.6-.75.9-.75.6.14.9.14.6-.06.9-.06.6-.29.9-.3.6.56.9.55.6-.22.9-.23.6.83.9.83.59-1.72.89-1.72.61,1.91.91,1.91.59-1.99.89-2,.61,1.15.91,1.15.6-.63.9-.63.6-.36.9-.36.61,1.51.91,1.51.6-.02.9-.02.6-.05.9-.05.6.16.9.16.6.03.9.03.6-.13.9-.13.49-.42.79-.42Z"/><path class="uuid-b68e4d42-3abc-4cdd-acad-9c953068c1d4" d="m273.93,123.64c-.23-.19-1.16-.72-1.39-.92s-.31-.56-.53-.75-.25-.62-.48-.82-.44-.4-.67-.6-1.24.53-1.47.34-.49-.34-.72-.53-.11-.79-.34-.98.07-1-.16-1.19-.77-.02-.99-.21-1.05.31-1.28.12-.1-.79-.33-.99-.85.08-1.08-.12-.35-.5-.58-.7-.09-.81-.32-1-.49-.34-.72-.54-.8.02-1.03-.18-.79,0-1.02-.19.32-1.29.09-1.48-.98.24-1.21.04-.6-.22-.82-.41.36-1.33.13-1.52-.5-.33-.73-.52-.67-.14-.89-.33-.14-.76-.36-.95-1.25.54-1.47.35-.35-.5-.58-.7-.11-.79-.34-.98-.66-.15-.88-.34-.57-.25-.8-.44.38-1.36.15-1.55-.46-.38-.69-.57-.82.04-1.04-.15-.66-.15-.88-.34.15-1.09-.07-1.29-.72-.46-.94-.65c-.3,0-.84,1.52-1.14,1.52s-.61-1.09-.91-1.09-.6,1.01-.9,1.01-.61-1.54-.91-1.54-.59,1.32-.89,1.32-.6-.85-.9-.84-.6-.68-.9-.68-.59,1.37-.89,1.37-.61-1.33-.91-1.33-.6.26-.9.26-.6,0-.9,0-.59,1.39-.89,1.39-.6-1.02-.9-1.01-.6.25-.9.25-.6-.7-.9-.69-.6.46-.9.46-.6.17-.9.17-.59,1.04-.89,1.04-.6-.17-.9-.17-.61-1.41-.91-1.41-.59,1.68-.89,1.68-.6-.3-.9-.3-.61-1.31-.91-1.3-.6.01-.9.01-.59,1.35-.89,1.35-.6-.49-.9-.48-.6.23-.9.24-.61-1.35-.91-1.35-.6.77-.9.78-.6.68-.9.69-.6.22-.9.22-.61-1.53-.91-1.53-.6,0-.9,0-.6.38-.9.38-.6.19-.9.19-.6.67-.9.67-.6.23-.9.23-.6-.09-.9-.09-.61-1.25-.91-1.24-.59,1.27-.89,1.27-.6-.66-.9-.65-.6.73-.9.73-.61-1.49-.91-1.49-.6.99-.9.99-.6-1.04-.9-1.04-.59,1.09-.89,1.1-.6-.57-.9-.57-.59,1.08-.89,1.08-.6-.18-.9-.18-.6-.97-.9-.97-.59,1.4-.89,1.4-.61-1.1-.91-1.09-.6.15-.9.15-.6-.57-.9-.56-.6.7-.9.7-.6-1.01-.9-1-.6-.06-.9-.06-.59,1.06-.89,1.06-.6-.89-.9-.89-.59,1.36-.89,1.36-.6-.38-.9-.38-.6-.94-.9-.94-.6.47-.9.48-.6.76-.9.76-.6.16-.9.16-.61-1.07-.9-1.07-.6-.54-.9-.54-.6.72-.9.72-.59,1.16-.89,1.16-.6-.47-.9-.46-.6-.83-.9-.83-.6,0-.9,0-.6-.3-.9-.29-.6,1.01-.9,1.01-.6.49-.9.49-.6-.58-.9-.58-.61-1.13-.91-1.13-.59,1.28-.89,1.28-.6-.18-.9-.18-.6.45-.9.46-.61-1.61-.91-1.6-.6.91-.9.91-.6.02-.9.02-.6-.23-.9-.23-.6.52-.9.52-.6.08-.9.08-.6-.81-.9-.81-.59,1.13-.89,1.13-.6-.48-.9-.48-.6-.55-.9-.55-.6.26-.9.26-.6.58-.9.58-.6-.13-.9-.13-.6.54-.9.55-.6-.15-.9-.15-.61-1.41-.91-1.41-.59,1.66-.89,1.66-.6-.37-.9-.37-.6-.59-.9-.59-.6.95-.9.96-.6.05-.9.05-.61-1.44-.91-1.44-.59,1.25-.89,1.25-.6.15-.9.15-.6-.45-.9-.45-.61-1.41-.91-1.4-.6.23-.9.23-.6.97-.9.97-.6-.15-.9-.15-.6.77-.9.77-.6-.14-.9-.13-.6.09-.9.09-.6-.1-.9-.1-.61-1.38-.91-1.38-.59,1.65-.89,1.65-.6-.59-.9-.59-.6-.89-.9-.89-.59,1.05-.89,1.05-.6.23-.9.24-.61-1.14-.91-1.14-.6.26-.9.26-.59,1.04-.89,1.04-.6-.65-.9-.65-.6.47-.9.47-.6-.95-.9-.95-.6-.03-.9-.03-.59,1.09-.89,1.1-.6-.65-.9-.65-.61-1.14-.91-1.14-.59,1.27-.89,1.27-.6-.6-.9-.6-.6-.51-.9-.51-.59,1.61-.89,1.61-.6-.74-.9-.74-.6.45-.9.45-.6.03-.9.03-.6-.57-.9-.57-.6.73-.9.74-.61-1.23-.91-1.23-.6-.32-.9-.32-.59,1.79-.89,1.8-.6-.72-.9-.72-.6-.31-.9-.31-.6-.75-.9-.75-.59,1.07-.89,1.07-.6-.16-.9-.16-.6-.98-.9-.98-.59,1.81-.89,1.81-.6-.99-.9-.99-.6-.51-.9-.51-.6.64-.9.65-.6.4-.9.4-.6-.9-.9-.9-.6-.03-.9-.02-.6.8-.9.8-.6-1.05-.9-1.05-.59,1.43-.89,1.43-.6-.07-.9-.07-.6-.28-.9-.28-.6.16-.9.17-.61-1.13-.91-1.12-.6.43-.9.44-.6-.48-.9-.48-.6.19-.9.19-.59,1.31-.89,1.31-.6-.33-.9-.33-.6-1.04-.9-1.04-.6-.28-.9-.28-.6.64-.9.64-.6.43-.9.43-.6-.09-.9-.09-.6-.65-.9-.65-.59,1.36-.89,1.36-.6.27-.9.28-.61-1.82-.91-1.82-.6.95-.9.95-.6-.6-.9-.6-.6.02-.9.02-.6-.4-.9-.4-.6.7-.9.7-.6.06-.9.06-.6.31-.9.31-.6,0-.9,0-.6-.31-.9-.31-.6-.29-.9-.29-.6.11-.9.11-.6-.24-.9-.24-.6-.31-.9-.31-.6.03-.9.03-.6.77-.9.77-.6-.02-.9-.02-.6-.06-.9-.06-.6-.43-.9-.43-.59,1.42-.89,1.42-.61-1.37-.91-1.37-.6.65-.9.65-.6-.65-.9-.64-.59,1.56-.89,1.56-.6-.27-.9-.27-.6-.96-.9-.96-.59,1.25-.89,1.25-.61-1.58-.91-1.58-.6.17-.9.17-.6-.48-.9-.48-.6-.06-.9-.06-.6.98-.9.98-.6.96-.9.96-.6-.05-.9-.05-.6-.88-.9-.88-.6.33-.9.33-.6-.37-.9-.37-.6-.43-.9-.43-.6.84-.9.84-.6.16-.9.16-.61-1.41-.91-1.41-.6.44-.9.44-.58.51-.88.52c-.22.2-1.05-.28-1.26-.08s-.34.5-.56.7-.36.48-.58.68-.01.86-.23,1.06-.05.82-.26,1.02-1.2-.43-1.42-.23.44,1.35.23,1.55-.73.08-.95.28-.24.61-.46.81-.22.63-.44.83-1.63-.9-1.85-.7.04.91-.18,1.12-.12.74-.34.94-.14.72-.36.92-.73.09-.94.29-.4.44-.62.64-.97-.18-1.19.02.13,1.02-.08,1.22-.78.02-1,.23-.66.16-.88.36-.2.66-.42.86-.16.7-.38.9-1.27-.5-1.49-.3.4,1.31.18,1.51-.63.19-.85.39-.39.45-.61.65-.68.14-.89.34.02.9-.19,1.1-.81,0-1.03.19-.76.05-.98.25-.37.47-.59.67.04.92-.18,1.12-.26.59-.48.79-1.38-.62-1.6-.42.63,1.09.41,1.29c.26.16.19.26.45.41s.11,1.01.37,1.16.61.17.87.33.85-.24,1.11-.08.64.12.9.27-.07,1.3.19,1.45,1-.49,1.26-.34.55.27.81.43.04,1.12.3,1.28,1.38-1.12,1.64-.97.28.71.54.87-.17,1.48.09,1.63.83-.2,1.09-.05,1.06-.58,1.32-.43.5.34.76.5.67.05.94.21.25.77.51.93.06,1.08.32,1.23.35.6.61.75,1.38-1.12,1.64-.97.25.77.51.92-.07,1.3.19,1.46.85-.24,1.11-.09.48.39.74.54.35.6.61.75.69.03.95.19.74-.22,1-.07c.3,0,.51.13.81.13s.6-.19.9-.19.61,1.24.91,1.24.6-.59.9-.59.6-.44.9-.44.6-.62.9-.62.6-.21.9-.21.61,1.64.91,1.64.6-.11.9-.11.6.33.9.33.6-.68.9-.68.6.4.9.4.6-.95.9-.95.61,1.11.91,1.11.6-.2.9-.2.6-.21.9-.22.59-1.33.89-1.34.6.8.9.8.6.07.9.07.6-.33.9-.33.61,1.25.91,1.25.6-.96.9-.97.6.28.9.27.6-.61.9-.61.61,1.33.91,1.33.6-.33.9-.33.6-.18.9-.18.6.15.9.15.59-1.1.89-1.1.61,1.36.91,1.36.6-.7.9-.7.6-.37.9-.37.6-.68.9-.68.6.34.9.34.6.54.9.54.6-.22.9-.22.6.07.9.07.6.68.9.68.6-.98.9-.98.61,1.29.91,1.28.59-1.58.89-1.58.61,1.25.91,1.25.59-1.06.89-1.07.6-.14.9-.14.6.45.9.45.6.61.9.6.6-.83.9-.83.6-.42.9-.42.61,1.54.91,1.54.6-.9.9-.9.6.4.9.4.6.53.9.53.59-1.38.89-1.39.61,1.44.91,1.44.6-.41.9-.41.6.13.9.12.59-1.52.89-1.52.6.96.9.96.6.11.9.11.6-.88.9-.88.6.31.9.3.6.83.9.83.6-.22.9-.22.6-.17.9-.18.6.74.9.74.6-.54.9-.54.6-.98.9-.98.61,1.57.91,1.57.6-.28.9-.28.6-.6.9-.6.6-.58.9-.58.6.77.9.77.6-.69.9-.69.6.91.9.91.59-1.08.89-1.08.6.84.9.84.6-.19.9-.2.6-.54.9-.54.6-.1.9-.1.61,1.15.91,1.15.6-.61.9-.61.6.49.9.49.6.44.9.43.59-1.66.89-1.67.61,1.51.91,1.51.59-1.4.89-1.4.6.86.9.86.6-.83.9-.83.6.25.9.25.6.4.9.4.6.09.9.08.6.27.9.27.6.08.9.07.6.39.9.39.6-.3.9-.3.6-.08.9-.08.6-.05.9-.05.6-1.01.9-1.01.6.3.9.3.61,1.12.91,1.12.59-1.66.89-1.66.6.03.9.02.6.14.9.14.61,1.34.91,1.33.6-.84.9-.84.6.95.9.94.59-1.53.89-1.53.6-.01.9-.01.6,1,.9,1,.59-1.03.89-1.03.61,1.73.91,1.73.6-.94.9-.94.6-.1.9-.1.6.43.9.43.59-1.07.89-1.07.6.04.9.04.6-.13.9-.13.6.62.9.62.6.38.9.38.6.38.9.38.6-.61.9-.61.6-.75.9-.75.6.06.9.06.6.89.9.89.6.23.9.22.6-1.02.89-1.03.6-.08.9-.08.61,1.1.91,1.1.59-1.25.89-1.25.6,0,.9,0,.6.27.9.26.6.03.9.02.6.01.9,0,.6.28.9.28.6.59.9.59.6-.52.9-.52.6.83.9.83.6.24.9.24.6-.98.9-.99.6-.8.9-.8.6.17.9.17.61,1.67.91,1.67.59-1.39.89-1.39.61,1.12.91,1.12.6-1,.9-1,.6-.39.9-.39.6.89.9.89.6-.15.9-.15.6-.08.9-.08.6.85.9.85.59-1.32.89-1.32.6.88.9.88.59-1.12.89-1.12.6.03.9.03.6.61.9.61.6-.51.9-.51.6,1.02.9,1.02.59-1.26.89-1.26.61,1.52.91,1.52.6-.21.9-.21.6-.82.9-.82.6.83.9.83.6-.96.9-.96.61,1.12.91,1.12.6-.94.9-.94.61,1.14.91,1.13.59-1.57.89-1.57.6.94.9.94.6-.55.9-.56.6.93.9.93.6.26.9.26.6-.36.9-.36.6-.28.9-.28.6-.65.9-.65.6.77.9.77.6.37.9.37.59-1.15.89-1.16.6-.03.9-.03.6-.43.9-.43.61,1.25.91,1.24.6.11.9.11.6-.11.9-.11.6.54.9.54.6-.95.9-.95.6-.04.9-.04.6.48.9.48.59-1.47.89-1.47.61,1.86.91,1.85.6-1.01.9-1.01.61,1.11.91,1.1.6-.14.9-.14.6-.31.9-.32.6-.45.9-.45.6-.96.9-.97.6.99.9.99.6.49.9.49.6.06.9.06.59-1.17.89-1.17.6-.43.9-.43.6.71.9.71.6.36.9.36.6.4.9.4.6.13.9.13.6-.31.9-.31.6.29.9.29.6-.94.9-.94.6.69.9.68.6-.86.9-.87.6-.13.9-.13.6.72.9.72.6.46.9.46.59-1.07.89-1.07.61,1.14.91,1.14.6-.39.9-.4.6-1.01.9-1.01.6.49.9.49.58.11.88.11c.27-.14.34-.6.6-.73s.95.52,1.21.38.07-1.15.34-1.29.94.51,1.21.37-.06-1.4.21-1.54.78.19,1.04.05.4-.53.66-.67.72.08.98-.06.27-.77.54-.91.88.4,1.15.26.29-.74.55-.88.47-.4.73-.54.92.47,1.19.33.61-.14.87-.28.08-1.13.35-1.27,1.08.77,1.35.63.2-.9.47-1.04.91.45,1.18.31.07-1.15.34-1.29.89.41,1.16.27.11-1.08.37-1.22,1.03.67,1.29.53.05-1.19.31-1.33.88.39,1.14.25.67,0,.94-.15.22-.88.48-1.02.93.49,1.2.35.52-.3.78-.44.11-1.08.37-1.22.22-.88.48-1.02.57-.2.83-.34,1.79.5,2.06.36Z"/><path class="uuid-b68e4d42-3abc-4cdd-acad-9c953068c1d4" d="m246.41,96.53c0-.34-.4-.44-.45-.83-.1-.31.19-.62.18-.9,0-.39-.15-.99.05-1.3.08-.12.17-.18.25-.24.16-.11.3-.18.42-.25.12-.06.19-.17.14-.11-.02.07-.01-.04-.02-.14,0-.26.07-.5.03-.72,0,0,0,.04,0,.06.02.05.02.07.04.09,0,.02-.01,0-.06,0-.29-.13-.9-.12-1.26-.46-.32-.3-.24-.62-.35-.97-.05-.3-.11-.39-.04-.75.14-.43.4-.57.69-.73,0,0,.43-.21.43-.21.1-.03.17-.17-.01.06-.03.06-.07.15-.06.23-.02-.28.11-.64.28-.83.22-.25.31-.33.23-.25-.03.04-.06.13-.07.17-.01.1.02.25.08.33.02.07.14.17.13.17.09.07-.03,0-.15,0-.72-.2-1.77-.1-1.96-1.3-.04-.25.05-.71.15-.91.04-.13-.02.04-.01-.03-.04-.8.66-1.23,1.23-1.51.04-.02.05-.04,0-.02-.03.02-.18.12-.25.37-.07.42-.03.06-.03-.09.02-.18.09-.41.16-.55.15-.32.01-.05.02-.02-.03.26.15.59.32.71.14.1-.03,0-.21-.03-.97-.17-1.92-1.15-1.33-2.26.28-.64,1.25-.9,1.62-1.09-.45.24-.58,1.06-.26,1.49.04.07.1.14.16.19.29.24.19.13.1.13-.59-.16-1.04-.13-1.63-.6-.74-.57-.75-1.8-.08-2.39.38-.36.93-.55,1.36-.68,0,0,.4-.13.4-.13.09-.03.19-.1.02,0-.24.1-.55.64-.55.96,0,.1,0,.18,0,.12-.01.01.02.11-.01.03-.08-.19-.18-.68-.17-.9,0,.32.13.49.24.65-.36-.28-.73-1-.71-1.53-.02.38.24.87.54,1.06.03.03.09.06.1.07.03.02.01.01-.02,0-.89-.18-2.18-.74-2.08-2.22.22-1.4,1.18-1.62,2.03-1.97.04-.02.03-.02,0,0-.05.02-.07.04-.13.08-.69.48-.72,1.67-.13,2.15.1.09.11.09.06.06-.04-.02-.15-.08-.32-.2-1.27-.82-1.2-2.78,0-3.59.22-.13.03-.16-.26.4-.14.34-.17.65-.02,1,.06.13.1.17,0,.04-.94-1.37-.29-2.96,1.04-3.54.06-.03.05-.04,0,0-.07.05-.21.13-.41.44-.14.22-.24.59-.22.83,0,.19.05.4.16.59.08.15.13.19.04.09-.28-.26-.66-1.18-.6-1.6-.04-.24.11-1.02.22-1.18.02-.06-.03.07-.04.15l-.02.1v.03c-.03.73.56,1.33.69,1.37.3.19.2.1.12.1-.61-.2-.64-.07-1.45-.56-1.12-.7-1.35-2.55-.2-3.61.12-.12.15-.15.07-.07-.46.42-.49,1.48-.04,1.94.12.14.16.16.09.11-1.42-1.05-1.24-3.3.34-4.05.36-.18.55-.24.69-.3.14-.05.23-.1.11-.04-.1.04-.25.17-.34.26-.05.05-.1.11-.19.24-.56.78-.31,2.03.49,2.52.37.18-.28-.08-.3-.07-2.58-.85-2.31-4.03.16-4.73.28-.08.45-.21.12-.02-1.12.74-.95,2.63.21,3.17.08.04-.02,0-.16-.03-.33-.09-.95-.27-1.3-.54-.29-.23-.9-.68-1.03-1.73-.02-.22-.02-.26,0-.11,0,.06.04.18.02.12-.21-.64-.29-1.35-.05-2.06.11-.35.31-.65.38-.74.07-.1-.01,0-.1.2-.09.2-.12.42-.12.53-.03-.33.22-1.23.67-1.63.33-.4,1.12-.76,1.49-.87.33-.13,0,0-.11.1-1.01.75-.91,2.5.15,3.12.07.04.08.05.13.07-2.26-.54-3.05-3.02-1.33-4.64,0,0-.13.11-.27.37-.28.48-.24,1.17,0,1.55-.98-1.43-.46-3.38,1.17-4.08.16-.06.17-.15-.22.21-.67.58-.71,2.08.07,2.73.27.24.34.25.4.28.03.01.01,0-.03,0-2.89-.81-2.72-4.03-.62-4.97-.22.08-.78.96-.72,1.41,0,.19,0,.06,0,.05v-.1c-.01-.23.07-.76.06-.69,0,0,0,.02,0,0,0,0,0-.02,0-.03-.07.58.55,1.48.91,1.6-1.73-.62-2.35-2.51-1.54-3.95-.06.13-.1.34-.11.44,0,.02,0,.09,0,.11,0-.33.12-.93.31-1.22.43-.77,1.1-1.11,1.82-1.38-.28.14-.59.46-.76.82-.31.55-.22,1.5.19,1.91.05.05-.04-.03-.23-.28-.3-.36-.55-1.07-.55-1.58,0-.09,0,.03,0,.03,0,0,.01.11.01.11.02.15.1.41.19.55.09.14.08.13-.06-.07-.14-.2-.33-.59-.39-.93-.13-.82-.05-.72-.08-.95,0,0,0-.45,0-.45,0-.29-.01.09.08.29.13.31-.26-.53-.27-.97-.01-.12-.02-.22-.02-.32,0,.12.04.28.09.42.08.19-1-1.8.54-3.26.46-.39.6-.46.37-.28-.82.71-.65,2.32.3,2.83,0,0-.26-.13-.26-.13-1.48-.68-2.04-2.9-.63-4.13.29-.29,1.01-.63,1.23-.69-.54.28-1,1.15-.87,1.85.25,1.07.6,1.18.98,1.44.14.06-.03-.01-.19-.05-.39-.1-.98-.3-1.41-.64-.55-.39-.93-1.19-.92-1.83,0,.03,0,.11.04.23.02.11.09.25.05.14-.11-.2-.28-.85-.27-1.16-.09-.75.47-1.77,1.09-2.1.41-.29.92-.4,1.29-.51,0,0,.41-.1.41-.1.07-.01.19-.07,0,.03-.18.11-.36.25-.51.46-.72.86-.32,2.44.62,2.79,0,0-.36-.1-.36-.1-.35-.08-.99-.29-1.35-.57-1.34-.86-1.29-3.15.39-3.96.3-.16.46-.21.46-.21-.02.02-.04.01-.22.17-.46.39-.69,1.25-.44,1.78.08.23.24.41.27.44-.31-.23-.83-1.2-.78-1.76,0-.23,0-.48.05-.73.07-.4.04-.14.05-.2.01-.27-.05-.43-.05-.82,0,0,0-.08,0-.08,0-.03,0-.02,0,.04-.03.36.37,1.02.57,1.11.13.07-.03.01-.47-.34-.4-.26-.89-1.24-.8-1.85.02-.51-.01-1.49.21-1.85-.02.09-.02.14-.01.17,0-.27.08-.75.24-1.03.35-.65.8-.89,1.17-1.08-.57.38-.76,1.45-.28,2.06.09.14.23.26.28.3.27.19.2.1.08.06-1.53-.48-2.26-2.06-1.35-3.47-.04.07-.09.24-.09.33,0,.11,0,.13,0,.2,0,.14.25.59.03.17-.17-.3-.28-.78-.27-1.13-.04-1.12.97-1.89,1.77-2.09-.29.17-.58.63-.59,1.05,0,.03,0,.18,0,.08,0-.09,0-.17.02-.26.02-.45.44-1.11.69-1.29.3-.23.3-.3.05.06-.28.45-.16,1.11.16,1.44.29.28.28.18.11.12-.37-.19-.65-.35-1-.86-.17-.26-.28-.66-.28-.96,0,0,0,.06,0,.06,0,.09.06.26.13.37.07.11.11.14.03.05-.23-.19-.56-1.03-.51-1.37,0,.1.04.31.13.46.23.32.25.28-.08-.04-1.07-1.23-.34-2.83,1.11-3.18-.15.08-.49.55-.45.93,0,0,0-.1,0-.1-.01-.44.33-1.05.59-1.27.26-.22.1-.15-.02.2-.07.45-.01.12-.03.06,0-.07-.02-.32-.02-.52,0-.29,0-.12.05-.05.02.04,0,0-.06-.16-.07-.16-.13-.38-.14-.56-.04-.59.01-.62.04-1.1,0-.17,0-.34.06-.53.07-.29.25-.56.4-.71.3-.28.39-.34.26-.19-.07.1-.14.32-.12.42,0,0,0-.04,0-.04,0,0,0-.06,0-.06,0-.03,0-.04,0-.09-.03-.15-.09-.6-.05-.76,0,0,.02.02,0-.04-.06-.13-.14-.62-.12-.79-.03.25.26.61.29.6.15.09.03,0-.07-.03-.47-.19-.65-.16-1.2-.58-.22-.14-.43-.63-.4-.93-.02-.24.14-.69.26-.85.03-.05.02-.02.02,0,0,.01,0,.04.01-.03,0-.15.03-.35.1-.53.07-.18.18-.33.23-.4.06-.07.05-.06.04-.03-.01.04-.01.08,0,.07,0,.05,0-.12.02-.21.02-.11.06-.23.11-.33.23-.43.5-.53.56-.58.09-.08-.07.11-.04.22,0,.09.05.21.1.25.04.04.04.03.01,0-.07-.06-.22-.12-.44-.3-.23-.12-.49-.66-.43-.92.02-.18-.09-.6-.06-.83-.04-.3.32-.84.41-.86.05-.06.03.02.06-.05,0-.03.06.03-.04-.1-.09-.09-.33-.38-.34-.67,0-.26.01-.25-.02-.38-.04-.11-.11-.38-.1-.57,0-.19.01-.23-.02-.35-.09-.24-.23-.71.04-.98.35-.31.84-.29,1.22-.41,1.03-.26-.37-.59-.31-1.08.06.34.44.34.71.54.14.1.3.31.16.55-.35.44-1.01.44-1.37.78.01.04.03-.1.03.01.02.13.05.16.14.33.1.17.13.44.14.56.02.13.04.15.12.33.09.16.12.49.13.54.52.31.73,1.1.29,1.62-.15.19-.1.17-.08.15.04.24.15.45.19.78,0,.03,0,.14.01.11,0-.04,0-.08-.02-.12-.03-.08-.08-.11-.05-.11.99.28,1.39,1.41.54,2.14-.18.14-.19.21-.09.07.02-.03.04-.07.04-.11.01-.02,0-.11,0,.02,0,.15-.02.35-.1.53-.07.18-.17.31-.2.37-.04.06-.01.04,0,0,.02-.04.03-.07.03-.07,0,.09,0,.27-.03.44-.03.17-.11.35-.15.43-.04.09-.03.08-.02.06.01-.03.02-.04.02-.02,0-.09-.02-.23-.07-.31-.03-.1-.14-.2-.15-.22-.14-.11-.02-.04.08-.03l.45.1c.48.09,1.28.5,1.29,1.33.06.12.14.31.18.52.05.26.03.42.11.63.05.18.08.43.09.62.01.32-.09.71-.28.97-.31.4-.5.5-.41.45.08-.04.22-.35.2-.49,0,0,0,.12,0,.12v.51c0,.08.03.34.03.25,0-.02-.01-.09-.02-.11,0-.02.05.08.13.26.23.68.12.82.23,1.27.02.32.09.49-.05.99-.09.31-.28.57-.41.71-.44.47.04,0,.04-.25,0,0,.01-.1.01-.1v-.05c.04.96-.78,1.56-1.52,1.87-.03.02-.02.02.03,0,.08-.06.22-.13.39-.5.16-.39.07-.84-.16-1.1-.13-.09.18.03.55.63.17.29.24.66.25.91,0-.07,0-.2-.06-.33-.05-.14-.13-.23-.1-.2.02.03.17.17.31.42.18.32.26.66.27.99.01-.16-.08-.49-.18-.63-.34-.45-.39-.35-.25-.32,1.64.64,1.81,2.63.49,3.63.03-.02.17-.15.26-.37.07-.15.1-.32.1-.48.04.5-.31,1.23-.74,1.53-.38.28-.6.38-.97.55.13-.06.36-.2.55-.69.07-.18.1-.41.07-.61,0-.09-.06-.24-.09-.29.43.61.55,1.73.15,2.46-.27.5,0,.07,0-.14.04-.24-.02-.49-.13-.74-.24-.45-.4-.52-.5-.6-.14-.08-.04-.03.11.01,2.08.59,2.35,3.17.4,4.18-.06.04-.06.04,0,0,.17-.03.58-.7.57-1,0,0,0-.13,0-.13,0-.07,0-.07,0-.03,0,.24,0,.47-.07.75-.11.39-.11.45-.06.17,0-.16.01.16.01.31v.44s.01.1.01.1c0-.13-.02-.29-.07-.46-.11-.34-.34-.59-.42-.66-.2-.15-.08-.08.3.18.45.29.98,1.15.95,1.84.04.3.11.73.09,1.07.02.27-.11.89-.07.69,0-.01,0,.05,0,0,0-.08-.01-.16-.04-.28-.04-.21-.18-.47-.26-.56-.08-.1-.06-.08.08.07.24.22.63.92.66,1.37.08.38-.04,1.16-.31,1.55-.28.54-1.09,1-1.43,1.14,0,0,.12-.05.28-.22.51-.39.69-1.62.19-2.25-.16-.25-.43-.48-.68-.6.28.08.81.15,1.19.32,1.64.58,2.1,2.79.75,3.91-.64.55-1.42.66-2.03.87.56-.19,1.1-1.09,1.02-1.78,0-.03,0-.08-.02-.13-.02-.11-.08-.26-.06-.21.12.2.33.98.3,1.27.02-.31-.22-1.02-.53-1.28-.15-.16-.35-.3-.49-.36,1.23.24,2.75,1.04,2.56,2.9-.08,1.09-1.19,1.94-2,2.19,1-.52,1.19-2.2.31-2.95-.19-.17-.26-.2-.26-.2,1.81.7,2.33,3.02.91,4.34-.46.4-.6.47-.37.29.25-.16.64-.98.55-1.41.02-.13-.23-.7.01-.13.14.36.21.75.21,1.1,0,0,0-.08,0-.08.01-.13-.23-.69.02-.09.22.55.2,1.12.2,1.69-.01.08.04.49-.03-.02-.04-.18-.16-.44-.21-.5.16.14.6,1.12.56,1.52,0,.04,0,.2,0,.15,0-.09-.01-.17-.04-.3-.04-.23-.19-.52-.29-.64,1.3,1.38.9,3.76-1.38,4.47.54-.22,1.01-1.16.95-1.65,0,.38-.07.8-.23,1.18-.12.27-.19.38-.13.28.19-.39.17-.84.01-1.27-.23-.56-.5-.75-.64-.86-.25-.16-.16-.09.04-.01.13.06.26.12.51.28.49.22,1.28,1.36,1.2,2.15.02.15-.05.8-.06.84.1,1.03-.81,2.16-1.55,2.46-.11.06-.13.07-.12.07.13-.07.53-.44.64-.76.45-.82-.01-2.15-.83-2.5-.07-.03.05.02.24.09,2.58.83,2.56,3.99.25,4.96-.06.03-.08.04-.02,0,.34-.22.63-.6.74-1.07.11-.55.09-.56-.04-1.01-.07-.18-.15-.29-.08-.18.51.76.65,1.99.15,2.87-.21.39-.45.63-.55.73-.11.1-.1.1.02-.04.12-.13.29-.46.33-.73.16-.76-.27-1.64-.87-1.97-.35-.16.36.13.35.12,1.61.53,2.38,2.58,1.22,3.95-.37.52-1.41.96-1.73,1.02.06-.03.17-.11.23-.15.44-.3.74-1.09.7-1.48.06.42-.3,1.44-.55,1.69-.03.04.09-.13.16-.33.08-.27.09-.41.06-.6,0-.06-.05-.18-.02-.09.09.21.19.77.18,1.06-.02-.86-.61-1.45-.97-1.61.2.06,1.19.31,1.72.86,1.04.93.89,2.8-.26,3.58-.41.32-.92.47-1.26.58-.1.02-.19.08.03-.05,1.06-.66,1-2.53-.12-3.07.31.09,1.3.49,1.67,1.04,1.22,1.68-.07,3.49-1.71,3.81.74-.38,1.13-1.7.51-2.42-.14-.18-.21-.21-.15-.17,1.26.92,1.28,2.97.07,3.9.22-.2.46-.78.4-1.16-.09-.83-.58-1.17-.71-1.27-.32-.19-.21-.1-.14-.09l.44.14c.73.24,1.73.63,1.93,2.06.05.47-.07.98-.22,1.33-.04.1.01-.03.02-.11.02-.09.01-.15.01-.16.04-.12-.2-.74-.27-.76,1.09,1.22.69,3.14-.81,3.76-.17.06-.24.16.06-.11.41-.38.57-1.24.23-1.66.42.61.65,1.49.29,2.35-.42.85-.89,1-.91,1.05.41-.36.59-1.12.24-1.7-.16-.26-.31-.35-.34-.38-.05-.03-.02,0,.07.05.78.38,1.45,1.61,1.02,2.58-.27.8-1.18,1.26-1.91,1.42-.1.02-.19.09.03-.06.92-.72.47-2.03-.1-2.29.6.19,1.18.4,1.61.94.23.3.37.7.37,1.07,0-.03-.01-.11-.02-.14-.02-.14-.11-.35-.19-.44-.08-.1-.09-.1,0,0,.28.2.67,1.07.62,1.47,0,.04,0,.03,0,0,0-.02-.03-.08,0,0,.16.47.21,1.16-.04,1.65-.13.31-.47.62-.66.73-.64.38-.8.3-1.34.45,0,0-.32.07-.32.07-.04,0-.02,0,0-.02.44-.23.69-1.04.43-1.52-.07-.15-.2-.34-.3-.41-.32-.22-.19-.08.07-.02.61.23.69.1,1.44.68,1.05,1.05.24,2.51-1.02,2.75,0,0-.39.11-.39.11-.13.04.03-.05.05-.07.48-.4.38-1.32-.12-1.55.6.25,1.57.57,1.65,1.5,0,.05.01.14.01.16,0,0,0,.06,0,.06v.12c0,.34-.3.89-.3.84,0,0,.02-.08.02-.11-.08.59-.2.78-.6,1.11-.26.22-.6.28-.78.37-.03,0,0,0,.06-.07.07-.06.21-.35.18-.5.01.24-.11.69-.22.87-.03.06-.02.03-.02.01,0-.03,0,.02-.01-.02,0-.25-.17-.48-.3-.55-.05-.03-.03,0,0,.01.42.18.98.24,1.52.62.46.3.52,1.09.21,1.5-.24.34-.43.43-.41.42,0-.01.04-.08.05-.13,0-.03,0-.05,0-.05,0,.16-.04.33-.12.46-.47.66-.73.53-1.18.73-.12.01-.12.12,0-.15.03-.23,0-.01,0,0,0,.06,0,.11,0,.17.02.13.04.38.03.55,0,.1,0-.02-.03-.08-.01-.05-.07-.1-.07-.1.22.19,1.24.36,1.36.94.02.08.03.17.02.24,0,.25-.1.5-.14.7-.02.06,0,.1-.05.33-.22.59-.98.5-1.1.75-.02.35-.1.61-.12.94-.03.36-.35.51-.34.86-.05.27.33.5.27.84h0Z"/><path class="uuid-b68e4d42-3abc-4cdd-acad-9c953068c1d4" d="m54.7,95.16c-.27-.41-1.15-.26-1.63-.46-.2-.05-.45-.27-.39-.5.03-.26.23-.41.35-.5.13-.09.26-.17.33-.24.08-.1.03-.04.02-.1-.03-.09-.04-.09-.13-.2-.1-.1-.25-.37-.27-.58-.03-.18,0-.04-.06-.11-.76-.43-.74-1.32-.05-1.77.12-.09.11-.14.05-.05-.02.05-.02.08-.03.03,0-.02-.02-.02-.02-.02.01.02-.15-.14-.26-.44-.08-.26-.09-.44-.08-.7.1-.61.08-.39.05-.72-.04-.19-.1-.48-.11-.66-.02-.12,0-.36.06-.53.19-.49.5-.62.62-.73.14-.09.21-.17.11-.08-.05.04-.11.18-.12.28,0,.1,0-.02,0-.04,0,0,0-.13,0-.13v-.46c0-.08-.04-.32-.02-.13.03.15.13.23-.06.04-.48-.42-.59-1.43-.12-1.91.23-.29.67-.48.84-.62-.1,0-.33.45-.28.64,0,.14.06.29.1.38.14.22.2.24.23.27.04.03-.07-.02-.2-.05-.13-.04-.29-.08-.54-.18-1.45-.66-1.09-2.28-.04-2.88-.08.01-.3.43-.27.59,0,.07,0,.02,0,0-.03-.28.06-.72.02-.83-.04.04.13.38.04.24-.13-.12-.4-.74-.39-1.06-.02-.24-.02-.23-.04-.35-.14-.54-.09-1.44.38-1.92.29-.31.31-.36.13-.13-.08.12-.14.31-.15.43-.04.28.12.72.32.91.32.3.27.19.21.2-2.26-.33-2.77-2.58-.94-3.7.15-.08.23-.18,0,.02-.13.1-.37.55-.34.84,0,.08,0-.07,0-.1.01-.29.09-.57.23-.83.47-.72.83-.79.99-.92.17-.09.26-.15.13-.07-.38.27-.56.79-.47,1.29.02.14.09.3.14.41.23.41.45.5.49.54.22.1-.22-.04-.23-.03-1.92-.25-2.85-2.06-1.58-3.64.05-.06-.01,0-.09.13-.08.14-.13.33-.14.46v.08c-.04-.5.28-1.22.7-1.55.29-.26.83-.52,1.09-.63,0,0,0,0-.09.05-.1.08-.26.16-.48.59-.08.18-.15.44-.13.66-.04.33.27.91.44,1.03.21.17.11.1-.16-.06-.71-.42-1.16-1.35-1.06-2.24,0-.15.04-.35.06-.46.02-.11.01-.09,0-.06,0,.04-.01.03-.01,0,0,.05,0,.19.02.27.01.34.46.92.63.99.13.08.03.03-.17-.06-.45-.23-.82-.41-1.2-1.06-.28-.47-.3-1.13-.25-1.4.05-.39.24-.81.45-1.08.42-.51.64-.61.48-.5-.34.28-.57,1.09-.31,1.56.07.16.15.25.1.19-.41-.47-.68-1.42-.55-2.07.03-.23.12-.54.2-.72.2-.43-.03.03-.03.19,0,0,0,.1,0,.1,0,.09,0-.17.02-.31.02-.16.05-.32.1-.46.31-.91,1.11-1.35,1.6-1.56.12-.05.2-.12-.04.03-.19.06-.7.84-.66,1.29,0,.08,0,.12,0,.08,0-.24,0-.53.04-.78,0-.02,0-.07,0-.09,0,.03,0-.08,0,.06-.05.58.61,1.41.88,1.48,0,0,.12.06.12.06-.42-.1-1.57-.35-1.98-.83-.93-.79-.94-2.4-.24-3.31.05-.07-.03.03-.11.2-.08.18-.11.36-.11.48-.03.22.09.63.2.8-1.1-1.46-.4-3.37.99-3.98-.3.14-.76.96-.7,1.43-.02-.12.03-.7.05-.8,0,.02,0-.09,0,0-.04.39.37,1.13.64,1.29.08.03-.18-.04-.69-.59-.25-.28-.52-.78-.59-1.24-.02-.1-.04-.34-.04-.39,0,.15.06.37.12.5-.93-1.69-.04-3.46,1.74-4,.06,0,.09-.11-.35.26-.15.15-.26.3-.37.51-.11.22-.21.55-.2.86,0-.11,0-.45.08-.74.07-.31.23-.63.31-.77.08-.14.04-.09-.02.06-.1.25-.13.46-.11.69.03.53.35,1.11.76,1.39.12.08.15.09.13.08-.04-.03-.2-.07-.6-.3-1.38-.77-1.68-2.79-.62-4.01.07-.09,0-.02-.1.16-.13.24-.2.53-.2.79,0,0,0-.14,0-.14-.02-.58.38-1.42.73-1.74.42-.4.54-.48.28-.24-.11.12-.32.43-.4.75-.04.17-.06.3-.05.44,0-.13-.03-.53-.03-.7,0-.06-.02-.29.01.05-.02.26.37.91.46.95-.4-.31-.94-1.19-.95-1.82,0,0-.01-.13-.01-.13,0-.01,0-.16,0-.06-.06.52.52,1.39.8,1.5.23.14.16.09,0,.03-.17-.09-.45-.12-1.06-.66-.38-.3-.83-1.23-.78-1.86,0-.27.05-.68.11-.91.03-.12.02-.07,0-.01,0,.06,0,.09,0,.1-.03-.55.23-1.33.54-1.7.42-.53.02-.08-.07.26-.06.17-.07.31-.08.47,0,0,0,.06,0,.06,0,.05,0-.08,0-.11-.05-.66.54-1.71,1.01-2.01.15-.12.21-.16.17-.13-.03.03-.15.12-.32.38-.25.4-.36.97-.19,1.38-.07-.1-.29-.89-.27-1.1,0-.04-.02-.35,0,.06,0,.44.57,1.22.8,1.3.12.07.12.06.1.06-.34-.14-.93-.4-1.37-.94-1.23-1.5-.28-3.55,1.31-4.08-.25.18-.47.3-.74.91-.13.39-.18.75-.04,1.14.05.11.05.11-.04-.08-.19-.42-.28-.93-.26-1.42-.04-.45.39-1.41.66-1.67-.3.37-.44,1.31.02,1.87.1.13.12.14.02.03-.1-.11-.32-.36-.48-.71-.18-.38-.25-.78-.26-1.12,0,0,0,.05,0,.05,0,.24.21.75.32.86-.4-.39-.82-1.41-.68-2.16.04-.41.23-.89.46-1.2.47-.59.73-.7.55-.57-.19.16-.52.81-.48,1.18,0,.06,0,.01,0-.04-.06-.6.44-1.59.85-1.91.11-.1.1-.1.01,0-.15.14-.38.67-.37.96-.08.57.41,1.38.69,1.52.3.2.25.13.14.1-.13-.06-.33-.11-.76-.38-1.21-.69-1.5-2.57-.59-3.61.22-.27.39-.4.45-.45.07-.06.06-.05-.04.05-.34.32-.52,1.13-.31,1.52.05.12.09.18.02.05-.18-.27-.37-1.02-.34-1.37-.01-.25.05-.74.12-.96.03-.14-.01.1,0,.08-.04.27.28.96.47,1.08.06.05.04.03-.07-.06-.91-.67-1.27-2.32-.48-3.29.3-.48,1.03-.83,1.37-.96.09-.02.11-.1-.21.19-.21.13-.55.83-.49,1.27,0,.13.13.52.19.58.03.03-.06-.09-.19-.33-.24-.46-.32-1-.27-1.49,0-.47.43-1.25.42-1.19,0,0-.08.17-.11.3-.16.73.3,1.44.78,1.67-2.24-.66-2.7-3.23-.6-4.35.16-.06.13-.12-.17.21-.16.19-.32.57-.32.88,0,.13,0,.05,0,.03,0-.22.03-.53.08-.72.02-.11.02-.09.02-.08,0,.01,0,0,0-.02,0,0,0-.02,0-.02,0,.05,0,.17.03.25.04.17.1.36.2.51.38.52.51.43.42.42-1.34-.5-2.12-2.22-1-3.44.36-.43.92-.62,1.31-.76.07,0,.11-.1-.22.22-.36.34-.53,1.23-.11,1.65-.27-.22-.65-1.06-.61-1.49,0-.13,0,.04.01.13.02.35.41.82.52.86.1.06.11.06.1.05-.14-.05-.6-.27-.86-.46-1.44-1.08-.8-3.09.86-3.46,0,0,.31-.09.31-.09.01,0,.01,0-.07.06-.15.14-.35.32-.42.61-.09.18-.07.58-.07.39,0-.2.03-.46.09-.66.09-.32.05-.11.06-.15,0,0,0-.01,0-.02,0,.06.03.32.1.44.15.33.32.43.38.48.14.08.05,0-.07-.04-.59-.18-1.51-.9-1.44-1.8,0-.05.05.12-.02-.17-.07-.3-.08-.59-.07-.8,0-.21.08-.64.12-.73.01-.04.01-.01.02-.02,0,0,0-.06.01-.04-.02.08.16.43.16.37-.01-.02-.1-.12-.22-.31-.12-.18-.21-.44-.24-.66-.09-.52.06-1.06.31-1.44,0-.01-.05.15-.04.19,0,.05,0,.03,0-.05,0-.9.93-1.4,1.47-1.54,0,.01-.03.01-.14.15-.03.04-.12.17-.13.28-.03.07-.04.19-.03.27.02-.28-.08-.6-.05-.88-.03.12.18.52.28.51,0-.02-.14-.09-.36-.23-.33-.16-.71-.76-.67-1.18,0-.04.06.11.04.06-.04-.06-.26-.51-.25-.79,0-.1-.01-.08,0-.26,0-.36.34-.81.56-.93.25-.16.41-.21.53-.26.11-.03.2-.11.09.01-.04.05-.13.24-.1.35,0-.17.04-.36.12-.54.11-.26.29-.39.42-.52,0,0-.05.16-.02.18,0,.08.13.21.06.12-.05-.07-.3-.22-.46-.6-.07-.16-.08-.41-.08-.46.02-.21-.01-.24-.05-.58-.01-.21,0-.36.01-.51l.04-.44.02-.21c0-.06,0-.02.01.02.01.03.03.07.05.08.06.04-.02-.05-.13-.1-.11-.06-.25-.12-.42-.22-.14-.08-.45-.29-.47-.7-.01-.26.16-.55.31-.66,0,0,.25-.2.25-.2.01-.01.02-.03.03-.06,0-.36.3-.7.28-1.01-.03-.21-.35-.55-.27-.82.07-.58.86-.41.97-.91.04.45-.69.53-.7.91.03.32.33.38.42.72.11.26-.03.73-.07.94.09.4-.16.77-.37.96-.06.09-.03.07-.02.11,0-.11-.05-.11.06-.07.39.12.92.23,1.1.76.03.11.04.23.04.23l.02.22c.02.21.04.62.08.79.03.09.16.5.16.7.01.09.01-.02,0-.04-.04-.1-.04-.08.12.04.15.09.47.46.49.84.06.31-.09.77-.28.98-.18.21-.19.25-.12.15.03-.05.04-.1.04-.12.02.25-.11.59-.25.74-.3.34-.49.39-.63.48-.3.13-.28.26-.08-.02.04-.07.06-.15.07-.23,0-.11,0-.02,0-.05.03.01-.06-.17.06,0,.14.18.28.63.28.88.02-.11-.06-.3-.12-.39-.06-.09-.1-.11-.08-.11.02,0,.16.06.4.19.35.17.77.76.73,1.2.02.11.02.1.05.2.16.48.17,1.18-.18,1.57-.31.37-.7.57-.99.7-.09.04-.17.13.01-.02.09-.08.26-.33.26-.6,0-.1,0,.01,0,.04.01.28-.1.72-.23.92-.06.12-.06.13-.03.08.03-.05.05-.13.05-.16,0-.02.01-.04,0-.13,0-.17-.22-.43-.04-.22.46.48.58,1.33.42,1.96-.04.19,0,.05,0,.13,0,.08.02.07.02.05,0-.01.15.44.16.68,0,0,.01.19.01.19.06-.28-.3-.85-.44-.89-.11-.07-.01-.02.12.01.14.06.33.09.71.33.18.14.46.33.67.8.13.31.14.58.14.85.01.25-.11.74-.09.7.01,0,.02-.06.02-.02,0-.12,0,.35-.09.6-.19.53-.53.81-.7.93-.34.22-.69.38-.96.47-.11.04-.2.09-.11.05.06-.04.17-.07.39-.39.09-.15.18-.36.2-.61.08-.48-.33-1.09-.58-1.21.04.01.18.06.41.15.63.21,1.34,1.03,1.32,1.79,0-.17-.09-.44-.18-.56-.06-.09-.06-.08.04.02.69.7.79,2.11.05,2.82-.53.52-.77.54-.97.65-.18.08-.31.13-.33.15,0,0,0,.01.1-.05.04-.03.1-.07.2-.18.55-.53.49-1.7-.16-2.14-.15-.11-.07-.05.11.02.17.11.57.16,1.11.92.13.21.23.46.27.71.08.39.04.81-.02,1.21.09.4-.18,1.14-.46,1.45-.48.56-.78.63-.87.71-.11.03-.02.13.36-.39.3-.46.3-1.22-.03-1.69-.12-.18-.19-.25-.3-.34-.29-.22-.25-.15-.16-.14.31.08.91.35,1.23.67.75.58.93,2.1.35,2.97-.16.31.13-.21.11-.39.03-.21-.03-.44-.13-.65-.06-.11-.06-.11.04.04.2.29.41.88.41,1.29.08.64-.34,1.47-.68,1.75-.54.48-.78.52-.96.62-.16.07-.26.13-.15.07.13-.07.26-.19.41-.38.4-.52.45-1.35.09-1.87-.13-.2-.24-.29-.24-.29.26.22.64.53.85,1.04.17.35.22.88.21,1.02.02.19-.06.78-.11.93-.01.08.02-.13.02-.1.03-.06-.1-.51-.13-.53.35.67.53,1.27.31,2.17-.14.56-.59,1.1-.91,1.35.22-.11.57-.86.49-1.29-.03-.55-.36-1.09-.77-1.36-.19-.11-.11-.06.03-.02,1.89.56,2.59,2.96.97,4.42.16-.06.49-.81.45-1.03,0,0,0-.08,0-.08,0-.03,0-.06,0,.01.05.61-.4,1.54-.78,1.85-.38.33-.37.37-.07.02.4-.5.42-1.42.03-1.9-.07-.1-.05-.07.08.09.31.35.61,1.12.6,1.66,0,.02,0-.03,0-.04,0-.14-.05-.4-.15-.61-.25-.44-.37-.52.07,0,.76.95.63,2.62-.17,3.45-.03.03.08-.08.17-.29.19-.42.21-.8.05-1.18.86,1.62,0,3.35-1.5,3.91.02-.01.15-.08.32-.26.83-.76.63-2.43-.35-2.95-.11-.06,0,0,.21.09.5.25.89.43,1.35,1.15.16.28.27.58.32.91.05.48.02.24.03.28,0-.05-.01-.14-.04-.25-.03-.1-.06-.17,0-.02.1.23.22.69.23.98.13.8-.4,1.94-1,2.35-.15.12-.2.16-.17.14.03-.03.15-.11.32-.38.18-.24.29-.78.27-.96.04.56-.29,1.42-.61,1.77-.14.17-.16.2-.09.1.15-.17.35-.7.32-.99.02.23-.06.87-.13,1.05,0,.02.02-.08.02-.12.04-.55-.31-1.2-.58-1.42-.4-.34-.4-.26-.31-.24.11.06.32.1.78.41.25.18.6.43.9,1.06.14.29.22.63.23.96,0,.12,0-.01,0,0,0-.32-.18-.74-.35-.96-.12-.16-.18-.19-.11-.13.34.25.89,1.13.91,1.67.06.62.02.31.04.64,0,0,.02.5.02.5.07.64-.28,1.56-.68,1.94-.46.46-.59.52-.37.33.22-.19.52-.86.48-1.24,0,.08-.02.26-.02.34.01.43-.43,1.32-.66,1.54.42-.5.4-1.51-.02-2.05-.25-.35-.41-.42-.5-.48-.16-.09-.04-.02.18.08.23.1.66.37.91.64.88.84.89,2.42.26,3.34,0-.01.1-.2.14-.37.04-.14.04-.34.04-.31-.01.69-.29,1.3-.75,1.75-.85.7-.85.54-1.4.79.3-.2.53-.3.82-1.01.13-.37.16-.8,0-1.17-.05-.09-.03-.06.08.16.15.31.25.76.26,1.11,0,0,0,.08,0,.08,0,.03,0,.06,0,0,0-.08-.01-.15-.02-.23-.04-.32-.25-.68-.4-.85-.32-.33-.32-.26-.01-.06.16.13.4.31.65.68.47.65.5,1.58.37,2.27,0,.43-.11.91-.32,1.28-.32.62-1.01,1.01-1.29,1.15.42-.23.9-1.11.71-1.76,0-.19-.41-.81-.07-.28.59.86.51,2.33-.13,3.11.46-.7.11-1.92-.67-2.33-.04-.02-.08-.04-.12-.06-.02-.01-.05-.01-.01,0,1.43.32,2.9,1.09,2.62,3.08,0,0-.04.25-.04.25v.05s0,.13,0,.13c.02,1.1-1.07,2.01-1.76,2.21-.12.04-.19.1.04-.06.1-.09.36-.29.53-.77.03-.11.07-.23.08-.35.02-.1,0-.33,0-.2,0,.1,0,.2-.02.31-.01.45-.38,1.17-.31,1,.18-.34.04-.96-.15-1.16.21.17.57,1.08.55,1.41.1.64-.28,1.56-.7,1.91-.37.32-.39.37-.16.09.12-.16.25-.44.28-.69.04-.13.02-.64-.19-.98-.18-.33-.4-.47-.45-.51-.1-.06-.09-.05-.07-.04.06.04.23.09.61.33.51.24,1.15,1.27,1.05,1.96.01.21-.07.66-.12.82,0,.03,0-.03,0-.03,0-.01,0,0,0,0,0,0,0,.04,0-.06.01-.35-.33-.95-.58-1.06-.03,0,.14.05.56.42,1.44,1.38.52,3.42-1.1,3.76.3-.21.55-.58.6-1,0-.06.01-.11.01-.17,0-.09,0-.06,0-.02v.19c0,.41-.38,1.14-.62,1.35-.05.05,0,0,.08-.14.07-.14.12-.33.12-.45,0-.07.03-.02-.04-.43-.08-.44-.5-.86-.72-.94-.03-.01-.04,0,0,0,.05.02.18.06.31.1,2.28.42,2.85,3.02.57,3.99-.09,0,0,.08.32-.39.1-.17.15-.38.16-.57,0-.01,0-.14,0-.05.02.47-.29,1.1-.55,1.33-.43.41-.62.44-.71.5-.11.02.06.06.32-.46.05-.13.08-.27.09-.4,0-.21-.02-.43-.11-.61-.17-.38-.41-.5-.45-.53-.14-.07-.06,0,.04.02.59.26.67.11,1.41.77.29.3.5.86.44,1.31-.02.26-.12.6-.27.84-.32.48-.56.59-.46.5.04-.05.13-.19.17-.34.05-.13.03-.35.03-.22,0,.12-.01.14,0,.31.02.17.02.47.01.52.02-.03-.14-.37-.1-.26.03.05.14.22.22.43.13.34.15.68.12.97,0,.18-.08.49-.1.61,0,.2-.02.41-.1.61-.13.5-.73.9-.93.99.39-.36.28-1.05-.04-1.3-.11-.09-.12-.08-.12-.08.47.21,1.04.34,1.42.97.37.52.08,1.5-.4,1.78-.25.22-.55.27-.71.36-.02,0,0,0,.07-.09.16-.17.23-.58.04-.73,0,.02.32.31.43.74.09.47.03.53.02.73l-.05.41s-.02.26-.02.26c.02.48-.6,1.03-.86,1.1-.12.05-.08.08.01-.13.02-.05.02-.1.02-.14,0-.06,0,.03,0,.04v.15c0,.07.03.29.03.48,0,.17,0,.36-.05.6-.07.28-.12.35-.13.38-.02.03-.01.12-.04.15-.03-.02.01.04.14.32.1.31.13.5.03.86-.15.37-.41.5-.52.58-.14.07-.18.12-.15.06.01-.07-.02-.05-.03-.06-.02.01.07.09.23.25.07.08.16.2.21.34.02.07.04.14.04.2,0,.08,0,.13,0,.13,0,.08-.02.08.06.21.09.12.21.39.19.59.04.18-.15.56-.34.63-.16.1-.3.14-.42.2-.12.05-.18.1-.19.13,0,.04-.02-.02-.01.02.02.03.06.06.12.09.4.28,1.31.27,1.49.78h0Z"/><path class="uuid-b68e4d42-3abc-4cdd-acad-9c953068c1d4" d="m270.63,114.09c.02-.32-.29-.55-.28-.89-.09-.26-.49-.29-.76-.36-.93-.16-1.4-.55-.4-1.19.4-.42-.36-.5-.59-.8-.14-.17-.14-.39-.08-.6.14-.34.33-.42.24-.75-.02-.1-.11-.19-.2-.39-.18-.56.01-.93-.03-1.5.06-.34.16-.54.08-.83-.56-1.11.13-1.28.94-1.57.13-.05.26-.13.27-.14-.05.09-.02.03-.06,0-.03-.05-.18-.12-.34-.31-.19-.19-.21-.56-.2-.68,0-.26.07-.56.04-.72-.19-.15-.61-.28-.71-.76-.14-.51.39-.89.56-1.04,0,0,.02.08.02.08.03.01-.1-.06-.23-.11-.26-.11-.76-.33-.79-.77-.11-.43.4-.86.63-.96.13-.07.17-.15.12-.07,0,.02-.01.03,0,.05-.03-.25.09-.62.09-.83,0-.02-.02-.2.05-.38.05-.24.49-.6.58-.66,0,0-.02.02-.02.04-.02-.05.02.22.08.22-.41-.2-1.44-.16-1.72-.82-.04-.1-.06-.25-.05-.35-.02-.35.32-.71.38-.8-.02-.37.3-.7.57-.82.24-.1.58-.25.74-.33-.01,0-.07.06-.09.2-.02.12.07.26.09.26-.24-.07-.71-.22-1.02-.42-.13-.1-.32-.28-.36-.58-.07-.38.15-.76.32-.92.17-.16.15-.18.12-.11-.01.14-.02-.22.03-.43.06-.26.07-.26.07-.37v-.08s.01.09.02.13c.05.1.08.11.07.1-.03-.02-.16-.08-.32-.14-.63-.19-1.17-1.08-.45-1.67.39-.31.91-.38,1.19-.5.12-.04.25-.1.24-.1,0,.01-.11.05-.16.31-.03.21.13.38.14.39-.4-.15-.83-.14-1.32-.53-.74-.72-.05-1.59.65-1.8.37-.14.2-.2.11.12,0,.02,0,.1,0,.08,0-.17.03-.33.11-.48.22-.42.48-.51.56-.59.05-.03.06-.05.04-.03-.02.02-.07.11-.07.17-.02.11.06.31.13.37.06.06.06.04.02.03-.26-.15-1.04-.2-1.36-.73-.17-.23-.21-.63-.09-.9.39-.7.69-.62,1.07-.86.01,0,.01-.02-.05.06-.07.1-.11.23-.07.41.17.35.2.22.09.21-.47-.21-.84-.2-1.19-.72-.24-.38-.16-.95.1-1.29.22-.27.28-.32.21-.23-.02.04-.03.1-.03.1-.04-.73.79-1.13,1.1-1.25-.05.03-.13.17-.13.32-.03.28.22.5.21.48-.97-.25-2.49-.37-1.95-2.03.05-.16.03-.08.04-.19-.04-.24.15-.77.31-.92.14-.19.02-.02.03,0-.04-.02.09.28.09.24-.63-.38-.98-1.41-.26-1.96.5-.36.92-.38,1.35-.57-.31.18-.25.76-.05.89.12.09,0,0-.11-.02-.48-.18-.65-.1-1.18-.53-.18-.16-.42-.55-.3-.99.05-.23.15-.34.25-.47.4-.39.88-.46,1.32-.61.12-.04.25-.09.23-.09-.3.17-.27.75-.07.9.13.11.02.02-.09,0-.25-.1-.56-.16-.8-.31-1.13-.71-.53-1.93.55-2.22.39-.16.06-.09.01.26,0,.17,0,0,0,0,0-.08.02-.52.03-.61,0,0,0-.18,0-.18,0,.03.01.1.04.15.08.11.02.05-.22-.21-.44-.51-.3-1.19-.22-1.56.03-.08-.03-.04.06-.56.09-.31.25-.49.44-.69,0-.01-.03.04-.05.1-.02.03-.01.15-.01.01v-.5c.01-.07.01-.25.01-.31,0,0,0,.03,0,.07.05.17.16.22,0,.09-.23-.15-.54-.62-.53-.95-.03-.31.06-.68.2-.92.1-.2.02-.02.04-.07-.02.11.13.38.18.39-.14-.07-.49-.19-.7-.34-.17-.1-.49-.43-.52-.77-.01-.07-.03-.24-.02-.15.15.26-.24-.22-.32-.6-.03-.18-.06-.3,0-.6.05-.44.63-.84.82-.94.03-.02,0,0-.05.06-.05.05-.08.26-.07.23,0,0-.02-.43-.02-.43,0,0-.02-.47-.02-.47-.02-.1.02.02-.06-.21-.1-.38-.16-.42-.07-.98.11-.32.33-.51.45-.59.24-.19.54-.25.79-.37.1-.01.18-.16-.01.09-.16.24-.01.68.17.77-.56-.23-1.48-.18-1.93-.89-.33-.51.06-1.25.49-1.41.44-.23.97-.3,1.31-.44.02,0-.06.01-.16.21-.12.35-.02.44.08.55-.02-.02-.17-.09-.4-.26-.23-.11-.52-.69-.48-.9,0,.06.12.18-.05,0-.18-.15-.39-.68-.36-.92,0-.4-.09-1.2.08-1.6.05-.22-.02.02.06-.46.15-.58.7-.76,1.08-.95.01,0,0-.02-.05.07-.07.07-.08.28-.07.31,0,.07.06.15.08.17.02.02,0,0-.05-.03-.11-.04-.68-.49-.7-.91,0,0-.02-.16-.02-.16v-.03s0-.05,0-.05c-.1-.18-.22-.58-.21-.82,0,.01,0,.03,0,.05,0,.07.06.15.08.17.04.02-.07-.05-.28-.19-.17-.1-.43-.45-.46-.72-.04-.31,0-.24-.07-.53-.15-.42-.03-1.18.21-1.42.03-.05,0,.02.02-.04-.02-.03.07.11-.04-.04-.13-.13-.33-.56-.31-.83-.01-.38.28-.69.39-.75.41-.34,1.24-.37,1.57-.55.01,0-.11.04-.15.31-.03.2.13.34.13.34-.38-.18-.86-.2-1.3-.57-.4-.32-.33-1.07.11-1.33.39-.28.73-.28,1.03-.45,0,0-.1.1-.09.25-.04-.08-.36-.41-.36-.76-.06-.25.12-.76.34-.9.19-.16.3-.23.28-.22,0,0-.02.06-.02.07,0,.01,0-.02,0,0,.03.03-.01-.02-.2-.23-.08-.11-.16-.27-.19-.42-.02-.08-.02-.15-.03-.22,0,0,0,.04.01.07.08.12.04.03-.08-.02-.95-.35-1.11-1.35-.21-1.86.13-.08.09-.09.08-.02,0,.05,0-.04,0-.06,0-.03,0-.03-.03-.07-.04-.06-.22-.38-.22-.62-.01-.27,0-.18-.03-.26-.06-.06-.3-.54-.26-.78-.01-.08-.21-.15-.36-.47-.15-.31-.1-.71.12-.93.28-.3.56-.33.72-.45,0,.01-.02.05-.01.07-.04-.33.25-.78.16-1.03,0-.04-.17-.22-.23-.49-.03-.13-.04-.21-.03-.37-.02-.32.43-.67.58-.76.07-.07.04-.02.05-.08,0-.02,0-.04-.12-.15-.1-.09-.34-.27-.39-.56-.08-.24.07-.61.25-.74.2-.18.36-.2.42-.34,0,.02.01.03,0,.04.03.01-.1-.08-.22-.13l-.44-.16c-.16-.07-.33-.11-.52-.35-.18-.32-.06-.55.07-.75.3-.33.35-.21.38-.67.04-.21.17-.38.2-.46.04-.09.04-.26.03-.24-.04-.05-.18-.12-.31-.17l-.44-.17c-.15-.07-.34-.13-.46-.37-.11-.28.11-.52.26-.59.25-.18.6-.2.77-.4.04-.04.03-.2-.02-.31-.05-.11-.18-.23-.25-.41-.07-.37-.03-.6-.08-.96,0-.14-.02-.35.11-.49.23-.25.61-.3.63-.62.03-.31-.1-.61-.08-.92,0,.31.15.6.15.92-.01.38-.45.48-.6.7-.15.24,0,.57.02.86.02.16,0,.32.06.43.04.12.16.2.26.37.08.17.15.36.03.58-.13.18-.29.25-.44.32-.28.11-.59.31-.51.38.21.25.9.23,1.21.58.17.23.12.42.06.66-.08.21-.15.29-.15.4,0,.16,0,.39-.12.55-.15.23-.39.35-.36.48.05.07.42.17.72.27.16.07.35.09.55.37.28.49-.22.88-.52,1.1-.06.07-.03.04-.03.1.14.17.52.35.57.75.07.26-.1.63-.27.75-.42.35-.36.21-.08.7.26.53-.01.95-.04,1.36.03.57-.64.81-.9,1,0,0,.03-.05.03-.08,0,0,0,.02,0,.02-.01,0,.07.06.25.26.08.1.17.25.2.39.07.31-.05.18.18.52.14.18.17.6.17.64.02.11.24.41.26.6.02.14.04.21.02.41-.05.46-.56.74-.65.82.02-.04.02-.03.01-.1,0-.05-.06-.11-.04-.1,0,.01.14.08.29.15.15.09.41.15.61.58.05.09.05.28.07.3.65.57.55,1.41-.16,1.87-.03.07.05-.11.03-.06.02.02-.04-.06.09.1.15.13.33.52.31.8,0,.3-.18.54-.31.64-.31.26-.79.38-1.07.53-.01,0,.03-.02.03-.03.04-.04.05-.08.07-.16.03-.14-.06-.34-.1-.35.5.2,1.62.24,1.6,1.22-.19,1.03-1.36.91-1.9,1.22-.03.02.18-.14.16-.37.02.05-.05-.09.03.02.09.08.35.5.34.79.07.26-.15.84-.25.97,0,.25.14.55.13.85,0,.08,0,.04,0,0,0-.03-.02-.07-.03-.1-.03-.06-.06-.08-.04-.06.19.07.74.53.75.94,0,0,.02.22.02.22.07.14.23.53.22.75,0,0,0,.09,0,.09,0-.02,0-.03,0-.05,0-.03-.02-.08-.03-.1-.09-.14-.06-.07.1.02.51.28.84,1.02.46,1.59-.25.38-.67.51-.94.67,0,0,.09-.06.12-.2.03-.23.01,0,.01.09,0,.19-.12.5-.11.64,0,0,.04.91.04.91.03.06-.07-.16-.02-.08.05.04.39.4.42.78,0,.05.01.08.01.13,0,.04,0,.1,0,.05.01-.07-.1-.27-.12-.27.87.36,1.34,1.5.32,2.1-.43.25-.99.32-1.32.48.21-.09.32-.65.07-.88-.1-.1-.1-.07-.07-.07.13.05.45.12.78.2,1.2.18,1.82,1.36.69,2.13-.22.12-.51.25-.73.33-.11.01-.08.15.09-.21.06-.3.02-.11.03-.12.15.32.2.76.2,1.2,0,0,.02.5.02.5.06.32-.27.92-.56,1.07,0,0-.29.19-.29.19.02-.01.08-.09.11-.21.02-.14,0-.1,0-.13-.02-.07-.09-.16.12.12.14.19.24.5.24.75,0,.08,0-.03,0-.05,0-.04-.02-.08-.03-.12-.18-.3-.18-.19-.07-.16.38.14,1,.42,1.12.97.13.33-.06,1.01-.2,1.17-.02.04,0,0,0,0,0-.03,0,.03,0-.02,0-.04-.04-.14-.07-.18-.03-.04-.03-.04.01,0,.29.19.63.69.6,1.1-.02.56.11,1.33-.34,1.8-.21.22-.15.2-.1.06.02-.22.02.14-.02.37-.05.29-.06.27-.06.36.01.21-.01-.1-.08-.12-.05-.02.17.09.4.48.1.19.15.42.16.6,0,0,0,.28,0,.28-.02.28-.02.46-.04.78-.04.71-.91,1.03-1.35,1.2.13-.08.28-.46.13-.7-.22-.32-.18-.16-.08-.16.47.18.62.12,1.15.55.35.26.45,1.07.04,1.45-.4.4-.88.47-1.33.61-.18.03-.32.16-.17.03.25-.21.16-.75-.01-.85-.12-.1,0,0,.1.02l.44.14c.46.1,1.22.63,1.05,1.34-.13.83-1.25,1.01-1.72,1.18,0,.01.23-.22.19-.46,0-.04-.02-.13-.06-.19-.09-.1-.02-.03.21.16.25.17.49.78.42,1.08,0,.35-.3.79-.36.84-.04.09.04-.14.02-.06.02.24-.09.64-.15.8,0,0,0,.04,0,.04,0,0,0,.03,0,.03,0,0,0,.02,0,0,0-.04,0-.07,0-.11-.11-.34-.22-.34-.23-.36,0,0,.02.01.07.03.46.15.98.17,1.53.52.13.06.48.42.45.86,0,.31-.17.59-.32.73-.29.27-.49.32-.63.4-.14.05-.23.13-.16.07.05-.04.13-.19.12-.33,0,.15-.03.37-.12.56-.2.38-.42.51-.38.49.09-.11.04-.31-.02-.41-.19-.22-.1-.08,0-.07.51.2,1.01.3,1.24.96.23.75-.51,1.28-1.04,1.46-.11.03-.14.14.01-.11.1-.18-.04-.53-.15-.56.19.08.93.26,1.25.6.5.46.24,1.38-.3,1.67-.27.17-.1.11-.08-.06,0-.11,0,.08-.02.15-.11.66-.84.86-1.19,1.03.08-.06.18-.33.08-.51-.01-.06-.1-.14-.1-.15-.09-.06.04.02.15.05.42.15.64.14,1.1.47.14.1.38.42.33.79-.06.43-.3.57-.42.68-.44.32-1.06.33-1.38.5-.03,0,0,.03.08-.11.07-.12.08-.29.01-.41-.12-.15-.06-.05.06,0,.45.16,1.06.57.96,1.22,0,.21-.09.51-.11.55-.03.1.02.06-.06.5-.11.38-.39.58-.43.63-.06.06.02-.01,0-.09-.03-.15-.1-.21-.11-.21.38.19.67.18,1.1.54.13.1.3.4.26.67-.02.3-.21.48-.33.59-.25.18-.42.23-.58.29-.17.08-.37.13-.42.16.03-.04.08-.14.07-.21.04.35-.28.79-.41.89,0,0,0,.02,0,0,0-.04,0-.08-.02-.12-.03-.08-.15-.15-.02-.08.45.17.97.19,1.47.59.33.31.23.85-.02,1.11-.2.21-.35.28-.4.33-.02.02-.01.01,0-.01,0-.03,0-.05,0,.08,0,.19-.07.46-.09.54-.04.16,0,.36-.07.52-.19.49-.58.53-.76.7,0-.02.02-.05.01-.08,0-.05-.04-.09-.04-.08.19.13.57.23.83.53.23.26.2.7,0,.96-.18.23-.35.3-.41.37-.07.06-.02.01-.04.03-.02-.03-.02,0,.1.08.11.08.31.16.47.44.2.38.03.77.02,1.12,0,.19-.01.16.01.21.03.06.17.14.33.33.14.2.28.51.02.86-.21.21-.38.24-.54.31-.3.1-.64.18-.78.28-.04.02,0,0-.01-.03,0,.06,0,.12.01.17,0,.09.1.22.15.44.09.34-.04.74-.12,1.01.01.35-.16.94-.07,1.28.02.09.15.25.2.45.04.19.04.38-.05.58-.15.32-.36.37-.24.67.19.2.6.29.71.65.06.21-.06.45-.21.54-.28.19-.59.33-.51.53.33.39,1.37.26,1.58.83-.04.31.25.56.21.89h0Z"/><path class="uuid-38da5ddb-f02b-4b28-bf70-2ebec457926b" d="m92.28,61.89c.26-.33.01-.65.37-.87s.37-.21.72-.43.81.51,1.17.29.19.07.6,0c.16.28.65-.63.82-.37.17.28.1.67.28.92.19.27.3.55.49.79.2.25.34.53.55.75.22.24.32.58.54.78.24.22.95-.24,1.2-.06.26.19.05,1.04.32,1.18.28.15.82-.43,1.11-.34s.43.56.73.61.57.12.89.12c.28,0,.59.44.87.4s.61.04.88-.03.37-.68.63-.78.18-.78.42-.92c.24-.13.84.42,1.05.27s.25-.5.44-.68.14-.51.3-.72,1.45.3,1.58.07c.17-.29-.25-.94-.14-1.25s.16-.67.21-1,.2-.68.19-1.01c0-.3-.86-.48-.91-.78s.62-.76.52-1.05-.65-.35-.8-.61c-.14-.25-.8-.11-.98-.36-.16-.22.12-.77-.08-1-.18-.21-.52-.27-.74-.49-.19-.2.22-1.03,0-1.24-.2-.2-.29-.55-.52-.76-.21-.19-1.22.52-1.45.32-.22-.19-.07-.81-.31-1.01-.22-.18.19-1.2-.05-1.38s-.95.26-1.19.08,0-1-.25-1.17c-.24-.18-1.36.84-1.59.67-.24-.18-.49-.35-.72-.52-.24-.18-.59-.23-.81-.4-.24-.19-.06-.9-.28-1.08-.24-.2.04-.98-.17-1.16-.24-.2-.69-.11-.89-.29-.24-.22-.72-.13-.9-.32-.24-.24-1.06.03-1.21-.17-.19-.25.92-1.41.76-1.67s-1.52.16-1.66-.12.77-1.02.66-1.31-.96-.34-1.03-.64.88-.76.84-1.07-1.58-.51-1.58-.82c0-.29,1.71-.5,1.73-.78s-.73-.61-.68-.88-.86-.83-.78-1.1,1.91.1,2.02-.16-.55-.83-.41-1.07c.14-.25,0-.66.17-.89s1.17.28,1.36.07-.54-1.3-.33-1.48.99.37,1.22.2.34-.41.59-.55c.25-.14.62.06.88-.06s.19-1.06.46-1.15.52-.4.81-.46.6-.21.89-.24.64,1.09.93,1.09c.32,0,.7-1.6,1.01-1.57s.48,1.35.79,1.4.58.12.88.21.72-.2,1.01-.08.78-.1,1.05.05c.25.14.24.76.5.94.23.16,1.02-.32,1.26-.12.22.18-.03.96.2,1.17.21.2,0,.81.22,1.03.2.21,1.2-.3,1.41-.07.19.22.66.25.85.49.18.23-.01,1.31.17,1.56-.23.36-1.02-.35-1.36-.09s.47,1.3.13,1.56-1.43-1.12-1.77-.85.29,1.07-.13,1.2c-.2-.26-.09-.67-.28-.9-.21-.25-.16-.74-.36-.96-.22-.25-1.66.72-1.87.51-.24-.24.61-1.63.39-1.81-.27-.22-1.29.73-1.53.59-.3-.17-.5-.25-.81-.36s-.5-.25-.84-.31-.57-.45-.91-.44c-.32,0-.69-.62-.98-.57-.31.05-.69.12-.96.22s-.66.25-.92.42-.22.76-.44.98c-.21.21-.91.06-1.07.29s.93,1.12.82,1.39-.3.34-.35.63-1.5.46-1.49.76c0,.37.24.86.32,1.22s1.47.25,1.63.59c.12.26.2.43.39.71.17.24.46.29.68.55.2.22-.21,1,.03,1.23.14.13.31.4.64.66.21.16.13.77.41.98.22.17.82-.12,1.09.07.23.17,1.03-.41,1.29-.22.24.17.16.8.43.99.24.17.69.07.96.26.26.18.14.89.38,1.07s.74.07.98.26c.25.2-.29,1.38-.06,1.57.25.2.46.4.69.59.24.21.7.14.92.34.24.22.61.26.82.47.23.23.28.59.48.81.22.24,1.29-.25,1.47-.02.2.25-.73,1.32-.56,1.56.17.26.82.18.97.43s1.14.14,1.27.4-.2.8-.1,1.08-.7.83-.63,1.12.6.47.64.76.5.58.5.88c0,.3.55.68.53.98s-.31.65-.37.94-1.26.32-1.34.61-.63.32-.75.6.92,1.08.77,1.34.01.77-.16,1.02-1.19-.14-1.39.09-.69.11-.9.33c-.22.23.06.95-.17,1.15s.08,1.23-.17,1.4-1.55-1.32-1.82-1.18-.31.62-.6.74-.25,1.14-.55,1.23-.78-.55-1.09-.48-.62-.27-.94-.23-.56.06-.88.06c-.29,0-.54.38-.82.36s-.46-.59-.74-.63-.61.45-.88.39-.76.61-1.03.53-.11-1.3-.37-1.41-1.25,1.3-1.5,1.17.36-1.76.12-1.92c-.25-.16-1.02.46-1.27.27s-.85.02-1.08-.19.79-1.63.58-1.86-.75-.08-.95-.32-.33-.47-.51-.72-1.02,0-1.19-.27-.06-.68-.22-.95-.16-.39-.32-.66Z"/><path class="uuid-38da5ddb-f02b-4b28-bf70-2ebec457926b" d="m121.07,33.39c.26-.31.25-.49.65-.5s.4.01.8,0,.42.85.82.85-.13-.24.14.06c.31.34,1.25-.14,1.26.32s-.27.47-.26.93-.07.47-.06.93-.07.47-.06.93-.17.47-.16.93.81.45.81.91-.83.48-.82.94.76.45.76.92-.41.47-.4.94-.42.45-.1.79c.29.31.27.39.69.38s.43.13.85.12.42-.55.84-.56.42-.65.84-.66.44.78.87.78.74-.49,1.04-.18c.32.34.34.63.35,1.09s-1.35.49-1.34.95,1.02.45.72.79c-.28.32-.29,0-.71,0s-.43-.11-.85-.11-.41.84-.84.84-.44-.78-.87-.77-.42.47-.85.48.08.05-.21.36-.32-.17-.31.28.22.44.23.89-.87.46-.86.9-.19.45-.19.89,1.2.42,1.21.87-.57.45-.56.9-1.05.46-1.04.91.79.43.8.88-.79.46-.78.9,1.49.42,1.5.87.02.44.03.89.18.44.19.88-.66.45-.65.9-.78.46-.77.9.37.44.38.89.4.44.41.88.81.43.81.88-1.57.47-1.57.92,1.39.42,1.4.87-1.12.46-1.11.91.8.43.81.88-1.02.46-1.01.91,1.53.42,1.54.87-1.7.48-1.69.92,1.13.44.84.78c-.26.3-.27.97-.67.98s-.43-1.84-.83-1.84-.39.85-.79.86-.67.58-.95.29c-.3-.32,1.05-.59,1.04-1.04s-1.3-.42-1.3-.87.91-.46.9-.9-.15-.44-.16-.89.34-.45.33-.89-.91-.43-.92-.87-.25-.44-.26-.89-.11-.44-.11-.89,1.14-.46,1.13-.91-1.61-.42-1.62-.86,1.28-.47,1.27-.91-.01-.44-.02-.89-.43-.44-.43-.88-.42-.44-.43-.88.53-.45.52-.9-.87-.43-.88-.88.73-.46.73-.9.56-.46.56-.9-1.09-.43-1.1-.87-.35-.44-.35-.88.52-.45.51-.9.92-.46.91-.91-1.31-.43-1.32-.87,1.75-.48,1.75-.93-.58-.62-.9-.94-.5-.31-.93-.3-.44-.35-.88-.34-.41,1.71-.85,1.72-.47-1.6-.91-1.59-1.09,1.47-1.4,1.16c-.32-.33-.23-.97-.24-1.43s.08-.47.07-.93.12-.79.44-1.13c.29-.32.65.56,1.09.55s.44.03.88.02.44.03.88.02.43-.5.87-.51,1.02.76,1.32.43c.31-.34-1.24-.85-1.25-1.31s.16-.47.15-.93,1.43-.49,1.42-.95-.18-.46-.19-.93-1.36-.44-1.37-.91.02-.46,0-.93-.2-.46-.21-.93.83-.48.82-.95.15-.48.09-.94c-.06-.43-.21-.45.09-.81Z"/><path class="uuid-38da5ddb-f02b-4b28-bf70-2ebec457926b" d="m159.03,42.08c.3.33.51.31.52.75s-.01.45,0,.89-.85.46-.84.91-.36.45-.36.9,1.48.42,1.49.87-.27.45-.26.9-.07.45-.06.89-.07.45-.06.89-.17.45-.16.9.81.43.81.88-.83.46-.82.91.76.43.76.88-.41.45-.4.9-.05.45-.04.9-.46.45-.45.9-.13.45-.12.89.55.44.56.88.65.44.66.89-.78.46-.78.91.25.44.26.89.27.44.28.89-1.35.47-1.34.92.66.44.67.88.06.45.06.89-.11.45-.11.9.84.44.84.89-.78.46-.77.91.71.72.42,1.06c-.26.3-.57.73-.97.74s-.41-.55-.8-.55-.39.22-.79.23-.29-.47-.56-.76c-.3-.31.29-.21.28-.63s-1.2-.41-1.21-.84.57-.44.56-.87,1.05-.45,1.04-.88-.68-.49-.81-.9c-.18.22-1.27-.16-1.46.05s.71,1.42.52,1.62-.42.43-.62.61-.34.53-.56.7-.87-.17-1.09-.01-.87-.35-1.11-.21-.27.58-.52.71c-.28.15-.39.63-.68.75s-.34.99-.64,1.09-1.03-1.34-1.34-1.26-.34,1.49-.65,1.54-.76-1.03-1.08-1.01-.58.84-.9.84c-.31,0-.59-1.03-.89-1.04s-.74,1.47-1.05,1.44-.34-1.77-.64-1.83-.74.65-1.04.56-.93.79-1.21.68.13-1.93-.15-2.06-.89.51-1.16.36-.71-.02-.96-.19.15-1.23-.09-1.42-1.28.63-1.52.43.17-1.08-.05-1.3c-.21-.21-.49-.29-.68-.51s-.09-.63-.27-.86-1.07.09-1.23-.14-.53-.37-.68-.62-.39-.48-.52-.74.79-.99.68-1.26-1.72.02-1.81-.25,1.05-.94.98-1.22-.14-.54-.19-.82-.51-.49-.55-.78-.48-.55-.5-.84.5-.61.5-.9c0-.32-.86-.67-.85-.98s.78-.6.82-.9.64-.52.7-.83-.93-.86-.85-1.16-.13-.76-.03-1.05.72-.44.85-.73,1.1-.16,1.24-.44-.82-1.21-.66-1.47,1.79.47,1.98.22-.32-1-.12-1.24.62-.26.83-.49c.22-.23.66-.17.89-.37s-.64-1.71-.41-1.9,1.46.9,1.71.72-.22-1.5.05-1.65.58-.34.86-.48.65-.2.93-.31.74.13,1.03.04.76.47,1.06.4.58-.09.89-.13.58-.04.9-.07.58-.53.89-.54c.33,0,.62.64.94.65s.78-1.34,1.1-1.29.67.27.98.34.26,1.54.57,1.63.61.02.91.14,1.15-.98,1.44-.84c.25.13.54.31.78.46s.63.17.87.34-.03,1.02.19,1.2.36.44.57.64.01.75.21.96.81.01.99.24-.59.24-.42.47c.1-.45.52-.24.51-.7s-.36-.45-.36-.91.64-.47.63-.93-.39-.46-.4-.92.78-.08,1.07-.44c.25-.3-.19.29.21.28s.39-.36.79-.37.43-.18.82-.24c.35-.06.35-.38.62-.09Zm-12.7,2.35c-.29,0-.54.57-.83.6s-.55.05-.83.1-.77-.71-1.05-.64-.73-.16-1-.06.04,1.57-.22,1.7-.61,0-.86.15c-.25.15-.52.24-.75.41s-.5.29-.71.48-.54.27-.74.48.24.93.06,1.16-1.01-.05-1.17.2.35.85.21,1.11c-.14.26-.63.31-.75.57s-.27.5-.37.78-.63.43-.7.71-.27.57-.32.86.46.65.44.95.62.56.62.86c0,.3-.77.6-.74.89s.31.54.37.83.37.48.46.76-1.11,1-1,1.28.84.32.97.59.32.51.47.77c.15.26.22.58.38.82s1-.04,1.19.19-.2.96,0,1.17.74.06.96.25.8-.17,1.04,0,.15.77.4.91c.25.14.57.06.83.18s.19,1.03.46,1.13.52.38.8.46.8-1.04,1.08-.99.47.65.75.67.58,1.08.87,1.08c.29,0,.59-.81.88-.84s.75.71,1.03.65.25-1.57.53-1.65.51-.17.78-.27.42-.36.69-.49.81.34,1.06.19c.25-.15.94.34,1.18.17s.28-.67.5-.85.18-.69.38-.89-.23-.93-.04-1.15,1.62.48,1.78.24-.88-1.21-.74-1.46c.14-.26,1.28-.04,1.4-.31s-.52-.84-.43-1.12,1.16-.32,1.23-.61-1.38-.85-1.34-1.15,1.77-.43,1.78-.73-.76-.65-.77-.95c0-.3-1.04-.52-1.06-.81s1.77-.83,1.72-1.12-.95-.46-1.02-.74-.48-.48-.58-.75.8-1,.68-1.27-1.42.04-1.56-.22.46-1.01.28-1.25-.5-.42-.69-.64-.17-.71-.39-.92c-.21-.21-1.05.25-1.27.07s-.58-.16-.82-.32-.5-.22-.75-.36,0-1.3-.27-1.42-1.11,1.28-1.38,1.18-.17-1.4-.45-1.47-.59-.12-.88-.16-.62.35-.92.33-.57-.33-.87-.33Z"/><path class="uuid-38da5ddb-f02b-4b28-bf70-2ebec457926b" d="m165.35,41.97c.27-.31.26-.5.67-.5s.41.01.82,0,.43.85.84.85-.11-.23.17.08c.31.33,1.24-.16,1.25.3s-.27.46-.26.92-.07.46-.06.92-.19.44-.06.88c.17-.26.21-.45.38-.69.18-.25-.24-1-.06-1.22.2-.24,1.04.08,1.24-.13.22-.22-.05-.99.17-1.18.24-.2.77-.08,1.01-.25.26-.17.57-.29.84-.43s.73.17,1.01.08.57-.03.86-.08.53-.62.83-.62c.32,0,.82-.6,1.16-.53.31.06.48.94.8,1.06.3.12.85.3,1.16.46-.05.4-.01.58-.22.92s-1.37-.35-1.57-.01.36.68.15,1.02-.02.43-.33.68c-.3-.12-.44-.36-.69-.43-.32-.08-.67.7-.92.7-.29,0-.63-.74-.91-.67s-.39.6-.65.72c-.25.12-.1.76-.35.93-.23.16-.74-.15-.96.05-.23.21-.23.53-.43.79-.19.24-1.08,0-1.24.29-.15.26-.49.5-.63.8-.12.28.88,1,.77,1.32-.1.29-.74.4-.82.72-.06.24-1.16.35-1.21.68-.04.26.7.68.67.99-.03.27-.85.51-.87.81-.02.27,1.44.65,1.43.96-.01.28-.01.56-.02.86,0,.28.16.57.15.87,0,.28-.68.56-.68.86,0,.28-.79.57-.78.87s.37.58.37.88.4.57.41.87c0,.47.81.46.82.92s-1.57.5-1.57.97,1.39.45,1.4.92-1.12.49-1.11.96.8.46.81.92-1.02.49-1.01.96,1.53.45,1.54.92-1.7.5-1.69.97,1.14.47.84.83c-.26.31-.28.97-.69.98s-.44-1.84-.85-1.84-.4.85-.81.86-.68.59-.96.29c-.31-.32,1.04-.6,1.04-1.04s-1.3-.42-1.3-.87.91-.46.9-.91-.15-.44-.16-.89.34-.45.33-.9-.91-.43-.92-.88-.25-.44-.26-.89-.11-.44-.11-.89,1.14-.46,1.13-.91-1.61-.42-1.62-.87,1.28-.47,1.27-.91-.01-.45-.02-.89-.43-.44-.43-.89-.42-.44-.43-.89.53-.45.52-.9-.87-.43-.88-.88.73-.46.73-.9.56-.46.56-.9-1.09-.43-1.1-.88-.35-.44-.35-.89.52-.46.51-.91.92-.46.91-.91-1.31-.43-1.32-.87,1.75-.48,1.75-.92-.87-.43-.87-.88.29-.45.28-.9.39-.55.33-.99c-.06-.41-.89-.34-.59-.68Z"/><path class="uuid-38da5ddb-f02b-4b28-bf70-2ebec457926b" d="m183.4,32.38c.26-.31.25-.49.65-.5s.4.01.8,0,.42.85.82.85-.13-.24.14.06c.31.34,1.25-.14,1.26.32s-.27.47-.26.93-.07.47-.06.93-.07.47-.06.93-.17.47-.16.93.81.45.81.91-.83.48-.82.94.76.45.76.92-.41.47-.4.94-.42.45-.1.79c.29.31.27.39.69.38s.43.13.85.12.42-.55.84-.56.42-.65.84-.66.44.78.87.78.74-.49,1.04-.18c.32.34.34.63.35,1.09s-1.35.49-1.34.95,1.02.45.72.79c-.28.32-.29,0-.71,0s-.43-.11-.85-.11-.41.84-.84.84-.44-.78-.87-.77-.42.47-.85.48.08.05-.21.36-.32-.17-.31.28.22.44.23.89-.87.46-.86.9-.19.45-.19.89,1.2.42,1.21.87-.57.45-.56.9-1.05.46-1.04.91.79.43.8.88-.79.46-.78.9,1.49.42,1.5.87.02.44.03.89.18.44.19.88-.66.45-.65.9-.78.46-.77.9.37.44.38.89.4.44.41.88.81.43.81.88-1.57.47-1.57.92,1.39.42,1.4.87-1.12.46-1.11.91.8.43.81.88-1.02.46-1.01.91,1.53.42,1.54.87-1.7.48-1.69.92,1.13.44.84.78c-.26.3-.27.97-.67.98s-.43-1.84-.83-1.84-.39.85-.79.86-.67.58-.95.29c-.3-.32,1.05-.59,1.04-1.04s-1.3-.42-1.3-.87.91-.46.9-.9-.15-.44-.16-.89.34-.45.33-.89-.91-.43-.92-.87-.25-.44-.26-.89-.11-.44-.11-.89,1.14-.46,1.13-.91-1.61-.42-1.62-.86,1.28-.47,1.27-.91-.01-.44-.02-.89-.43-.44-.43-.88-.42-.44-.43-.88.53-.45.52-.9-.87-.43-.88-.88.73-.46.73-.9.56-.46.56-.9-1.09-.43-1.1-.87-.35-.44-.35-.88.52-.45.51-.9.92-.46.91-.91-1.31-.43-1.32-.87,1.75-.48,1.75-.93-.58-.62-.9-.94-.5-.31-.93-.3-.44-.35-.88-.34-.41,1.71-.85,1.72-.47-1.6-.91-1.59-1.09,1.47-1.4,1.16c-.32-.33-.23-.97-.24-1.43s.08-.47.07-.93.12-.79.44-1.13c.29-.32.65.56,1.09.55s.44.03.88.02.44.03.88.02.43-.5.87-.51,1.02.76,1.32.43c.31-.34-1.24-.85-1.25-1.31s.16-.47.15-.93,1.43-.49,1.42-.95-.18-.46-.19-.93-1.36-.44-1.37-.91.02-.46,0-.93-.2-.46-.21-.93.83-.48.82-.95.15-.48.09-.94c-.06-.43-.21-.45.09-.81Z"/><path class="uuid-38da5ddb-f02b-4b28-bf70-2ebec457926b" d="m200.26,61.45c.39,0,.88-.47,1.22-.34s.75.42,1.03.7c.28.27-.22,1.03-.07,1.36s-.2.51-.19.91c0,.39,1.37.96,1.24,1.29s-.66.65-.93.93c-.27.28-.7.5-1.03.64s-.78.17-1.18.17-.75-.23-1.09-.37-1.2.24-1.48-.04c-.28-.27.1-1.16-.04-1.49s-.96-.66-.97-1.06c0-.4.49-.87.62-1.21s.44-.71.71-.99.83-.11,1.16-.26.6-.25.99-.26Zm1.01-29.72c.31.33.51.31.52.76s-.01.45,0,.9-.85.46-.84.92-.36.46-.36.91,1.48.43,1.49.88-.27.46-.26.91-.07.45-.06.91-.07.45-.06.9-.17.45-.16.91.81.44.81.89-.83.47-.82.92.76.44.76.89-.41.46-.4.91-.05.45-.04.91-.46.46-.45.91-.13.45-.12.9.55.44.56.89.65.44.66.89-.78.47-.78.92.25.45.26.9.27.45.28.9-1.35.48-1.34.93.66.44.67.89.06.45.07.9-.11.45-.11.91.84.44.84.89-.78.47-.77.92.47.45.48.9.73,1.16.43,1.5c-.28.31-1.08-.25-1.49-.25s-.41.22-.83.23-.43-.87-.85-.86-.16.28-.44-.02c-.31-.33-1.05-.07-1.06-.52s.57-.46.56-.91,1.05-.47,1.04-.92-.79-.44-.8-.89.79-.46.78-.92-1.49-.43-1.5-.88-.02-.45-.03-.9-.18-.45-.19-.9.66-.46.65-.91.78-.46.77-.92-.37-.45-.38-.9-.4-.45-.41-.9-.81-.44-.81-.89,1.57-.48,1.57-.93-1.39-.43-1.4-.88,1.12-.47,1.11-.92-.8-.44-.81-.89,1.02-.47,1.01-.92-1.53-.43-1.54-.88,1.7-.48,1.69-.93-.79-.44-.8-.89-1.03-.44-1.03-.89,1.84-.48,1.83-.94-.85-.44-.86-.89-.34-.45-.35-.9,1.1-.47,1.09-.93-1.3-.43-1.3-.89.91-.47.9-.93-.56-.3-.26-.65c.28-.31.14.47.55.46s.4-.91.82-.92.36-.18.77-.25c.37-.06.47.23.76.53Z"/></g></svg>