<?xml version="1.0" encoding="UTF-8"?><svg id="uuid-d36fd3ed-c2b7-4125-aadb-9b4adf03f666" xmlns="http://www.w3.org/2000/svg" width="2137" height="1306.5" viewBox="0 0 2137 1306.5"><defs><style>.uuid-8d835b1c-58ea-4898-85d9-ecfff368b0ca{fill:#f7c81e;stroke-width:0px;}</style></defs><path class="uuid-8d835b1c-58ea-4898-85d9-ecfff368b0ca" d="m2136.58,1223.04c.15-6.59-.4-26.72-11.11-47.62-8.61-16.81-20.02-27.42-27-33-6.11-5.68-18.34-18.72-23-39-9.14-39.78,19.19-71,22-74,8.13-8.46,20.39-23.81,26-46,13.47-53.28-23.71-97.11-28-102-16.3-18.6-18.87-21.82-28-41-11.72-24.62-14.15-48.21-14.28-64.73.05-84.66.09-169.32.14-253.98.88-13.97,3.83-34.04,13.91-55.47,9.12-19.41,13.3-24.23,28-41,4.29-4.89,41.47-48.72,28-102-5.61-22.19-17.87-37.54-26-46-2.81-3-31.14-34.22-22-74,4.66-20.28,16.89-33.32,23-39,6.98-5.58,18.39-16.19,27-33,4.42-8.63,11.53-25.62,11.11-47.62.34-10.7-.86-39.79-23.19-61.54-2.77-2.7-5.64-5.06-8.56-7.12-.12-.09-.24-.17-.36-.25-.52-.36-1.04-.72-1.56-1.07-18.44-12.34-38.7-13.74-48.38-13.61-22.73-.79-40.31,6.53-49.14,11.06-16.81,8.61-27.42,20.02-33,27-1.51,1.62-3.55,3.68-6.1,5.91-5.72,3.65-11.57,7.52-17.53,11.65-4.56,2.2-9.67,4.13-15.37,5.44-39.78,9.14-71-19.19-74-22-8.46-8.13-23.81-20.39-46-26-53.28-13.47-97.11,23.71-102,28-9.12,8.65-22.64,19.42-41,28-35.13,16.42-67.96,14.56-80,14-80.94-3.74-962.61-3.82-1043.65-.08-12.04.56-44.87,2.42-80-14-18.36-8.58-31.88-19.35-41-28-4.89-4.29-48.72-41.47-102-28-22.19,5.61-37.54,17.87-46,26-3,2.81-34.22,31.14-74,22-5.71-1.31-10.82-3.23-15.37-5.44-5.96-4.13-11.81-8-17.53-11.65-2.54-2.23-4.59-4.29-6.1-5.91-5.58-6.98-16.19-18.39-33-27C122.67,6.48,105.09-.85,82.36-.06c-9.68-.13-29.94,1.27-48.38,13.61-.52.35-1.04.7-1.56,1.07-.12.09-.24.17-.36.25-2.91,2.07-5.78,4.42-8.56,7.12C1.17,43.75-.03,72.85.31,83.54c-.42,22,6.68,38.99,11.11,47.62,8.61,16.81,20.02,27.42,27,33,6.11,5.68,18.34,18.72,23,39,9.14,39.78-19.19,71-22,74-8.13,8.46-20.39,23.81-26,46-13.47,53.28,23.71,97.11,28,102,14.7,16.77,18.88,21.59,28,41,11.49,24.44,13.58,51.94,13.91,55.47,2.69,29.59,4.22,124.83.14,253.98-.65,9.62-3.18,39.58-14.28,64.73-4.58,10.37-10.18,19.04-10.18,19.04-4.04,6.15-8.85,11.73-17.82,21.96-4.29,4.89-41.47,48.72-28,102,5.61,22.19,17.87,37.54,26,46,2.81,3,31.14,34.22,22,74-4.66,20.28-16.89,33.32-23,39-6.98,5.58-18.39,16.19-27,33-4.42,8.63-11.53,25.62-11.11,47.62-.34,10.7.86,39.79,23.19,61.54,2.77,2.7,5.64,5.06,8.56,7.12.12.09.24.17.36.25.52.36,1.04.72,1.56,1.07,18.44,12.34,38.7,13.74,48.38,13.61,22.73.79,40.31-6.53,49.14-11.06,16.81-8.61,27.42-20.02,33-27,1.51-1.62,3.55-3.68,6.1-5.91,5.72-3.65,11.57-7.52,17.53-11.65,4.56-2.2,9.67-4.13,15.37-5.44,39.78-9.14,71,19.19,74,22,8.46,8.13,23.81,20.39,46,26,53.28,13.47,97.11-23.71,102-28,9.12-8.65,22.64-19.42,41-28,35.13-16.42,67.96-14.56,80-14,80.95,3.74,963.08,3.83,1044.13.08,12.03-.56,44.87-2.42,80,14,18.36,8.58,31.88,19.35,41,28,4.89,4.29,48.72,41.47,102,28,22.19-5.61,37.54-17.87,46-26,3-2.81,34.22-31.14,74-22,5.71,1.31,10.82,3.23,15.37,5.44,5.96,4.13,11.81,8,17.53,11.65,2.54,2.23,4.59,4.29,6.1,5.91,5.58,6.98,16.19,18.39,33,27,8.83,4.52,26.41,11.85,49.14,11.06,9.68.13,29.94-1.27,48.38-13.61.52-.35,1.04-.7,1.56-1.07,0,0,.18-.13.36-.25.43-.31,30.73-25.02,31.75-68.67Zm-376.02-263.71c-229.71-63.11-485.29,1.31-692.18,165.08-206.91-163.83-462.54-228.29-692.28-165.16,13.35-101.31-11.4-209.29-69.17-305.8,57.94-96.6,82.77-204.74,69.41-306.19,229.62,63.09,485.09-1.26,691.94-164.89,206.87,163.69,462.39,228.07,692.04,164.97-13.36,101.45,11.47,209.59,69.41,306.19-57.77,96.5-82.52,204.48-69.17,305.8Z"/></svg>