<?xml version="1.0" encoding="UTF-8"?><svg id="uuid-aa5c1c67-3dec-4e9a-8abe-4db6bb356897" xmlns="http://www.w3.org/2000/svg" width="220" height="316.37" viewBox="0 0 220 316.37"><defs><style>.uuid-86061215-2258-45b7-8cde-316a8f19dd86{fill:#feef61;}.uuid-86061215-2258-45b7-8cde-316a8f19dd86,.uuid-05d5db11-7271-4a4d-9447-d83420679977,.uuid-32728762-f438-4232-8e40-4fcd59bb41b2,.uuid-584a937d-bfaf-4453-ad2d-088ade64d0bf,.uuid-ee9340f9-a0d3-47d2-9ddb-10d0ba00bb56,.uuid-de13b72f-f3ab-4d47-b33a-e94c9d8f1ab7,.uuid-de38ece6-76f6-4251-9273-24b4f4302195,.uuid-31bb79a4-f1da-407a-af04-748f4c6a6308{stroke-width:0px;}.uuid-05d5db11-7271-4a4d-9447-d83420679977{fill:#8fafdd;}.uuid-32728762-f438-4232-8e40-4fcd59bb41b2{fill:#fbc349;}.uuid-584a937d-bfaf-4453-ad2d-088ade64d0bf{fill:#ec6535;}.uuid-ee9340f9-a0d3-47d2-9ddb-10d0ba00bb56{fill:#f9b03d;}.uuid-2b2486f3-e3bf-4b64-81c8-ed37233f4513{opacity:.33;}.uuid-de13b72f-f3ab-4d47-b33a-e94c9d8f1ab7{fill:#c9152a;}.uuid-4f88462a-b2cf-4a0d-98ba-1aa984b5e85e{fill:none;stroke:#5ab67a;stroke-miterlimit:10;stroke-width:4px;}.uuid-de38ece6-76f6-4251-9273-24b4f4302195{fill:#0d71b9;}.uuid-31bb79a4-f1da-407a-af04-748f4c6a6308{fill:#f39323;}</style></defs><path class="uuid-4f88462a-b2cf-4a0d-98ba-1aa984b5e85e" d="m57.33,75.71c.16-.14.19-.46.39-.64.17-.14.37-.28.57-.45.17-.15.44-.21.64-.37.18-.15.3-.38.49-.54.18-.14.62.02.81-.13.18-.14.36-.3.56-.45.19-.14.2-.51.4-.66s.4-.26.6-.4.37-.3.57-.44.39-.28.59-.42.39-.27.59-.41.44-.21.64-.34.29-.42.49-.56.61.07.82-.07.39-.27.6-.4.28-.45.49-.58.38-.29.59-.42.42-.23.63-.36.34-.37.55-.49.44-.2.65-.32.39-.29.6-.41.47-.14.69-.25.5-.09.71-.21.5-.08.71-.19.32-.43.53-.54.35-.36.57-.47.47-.15.68-.25.37-.34.59-.45.63.2.85.1.31-.47.53-.57.42-.23.64-.33.51-.02.73-.12.42-.23.64-.33.5-.03.73-.12.46-.14.68-.23.38-.34.61-.42.51-.01.73-.1.41-.27.63-.36.48-.09.71-.17.41-.27.64-.35.5-.03.72-.11.34-.5.57-.58.56.16.79.09.41-.3.64-.37.4-.35.63-.42.48-.09.71-.16.47-.13.7-.19.53.11.76.05.46-.16.69-.22.42-.32.66-.37.52.09.75.04.5.04.74,0,.44-.22.68-.26.46-.13.7-.18.49,0,.73-.05.44-.27.68-.31.51.14.75.1.42-.43.66-.46.53.3.77.27.44-.32.68-.35.46-.2.7-.23.52.27.76.24.48-.08.72-.1.47-.14.71-.16.47-.16.71-.18.49.12.74.11.48-.1.72-.12.49.08.73.07.48-.17.72-.18.49.03.73.02.49.1.73.1.48-.22.72-.22.49.06.73.06.48.25.73.25.49-.45.74-.45c.24,0,.48.08.72.08s.48.04.72.05.48.16.71.18.47.22.71.23.48-.05.72-.03.47.16.71.18.49-.13.73-.11.48.05.72.07.46.19.7.22.51-.26.75-.23.46.19.7.22.45.25.69.28.54-.34.77-.31.44.31.68.35.44.26.68.3.48.03.72.07.51-.11.74-.07.48.08.71.12.48.04.72.09.43.31.66.36.55-.25.78-.19.39.45.62.5.53-.13.76-.07.4.38.63.45.51-.03.74.03.46.16.69.22.4.34.63.41.55-.17.78-.11.42.28.65.35.53-.06.75.01.37.4.6.48.47.1.7.18.4.3.63.39.58-.18.8-.1.33.48.55.57.44.19.66.28.56-.1.78-.01.38.35.6.44.39.31.61.4.49.08.71.17.38.32.6.42.5.06.72.16.38.32.59.42.44.18.66.29.47.13.68.23.54-.01.76.09.36.35.57.46.32.43.53.54.47.14.68.25.53.04.74.16.47.16.67.27.28.49.48.61.5.09.71.22.41.25.62.37.31.41.52.53.45.18.65.31.32.39.52.52.6-.05.8.08.29.43.49.56.46.18.65.31.42.23.62.36.34.36.53.49.33.36.52.5.57.04.76.18.38.3.57.44.13.63.31.77c.19.15.49.16.67.3.19.15.26.45.44.59.19.15.65-.03.82.12.19.16.28.43.45.57.19.16.5.17.66.32.19.17.17.52.33.66.04.24.23.43.26.66s-.09.5-.05.74.02.48.06.72.31.44.35.67-.22.52-.18.76.15.46.19.7.35.43.39.67.02.48.06.72.08.47.12.71.06.48.1.71-.12.51-.08.74,0,.49.03.72.07.48.11.71.32.43.36.67.21.45.25.69.13.47.17.7-.2.52-.16.76.22.45.26.69.22.45.26.69-.18.52-.14.75.35.43.38.67-.08.5-.04.74-.14.51-.1.75.33.43.37.67-.03.49,0,.73-.04.49,0,.73.24.45.28.68.29.44.33.68,0,.49.04.72-.28.53-.24.77.12.47.16.7.03.48.07.72.1.47.14.71.26.44.3.68.05.48.09.72-.08.5-.05.74.22.45.26.69.21.45.25.69-.09.5-.05.74.06.48.1.71-.03.49,0,.73.29.44.33.68.2.45.24.69-.22.52-.18.76.31.44.34.67.23.45.27.69-.08.5-.04.74.26.44.3.68.08.47.12.71-.17.51-.13.75,0,.49.04.72,0,.49.05.72.5.4.54.64-.33.54-.29.78.35.43.39.67-.25.53-.21.77.55.4.59.63-.09.5-.05.74-.09.5-.05.74.42.42.46.65-.27.53-.23.77.09.47.13.71.28.44.32.68-.14.51-.1.75.22.45.26.69-.1.5-.06.74.31.44.35.67-.07.5-.03.74-.08.5-.04.74.19.46.23.69.22.45.26.69.04.48.08.72.26.44.3.68.13.47.17.7.08.47.12.71.09.47.13.71-.15.51-.11.75.23.45.26.69,0,.49.04.72-.18.52-.14.75.42.42.46.65-.09.5-.05.74.19.46.23.69.16.46.19.7-.06.5-.02.73-.05.5-.01.73.38.42.42.66,0,.49.04.72-.21.52-.17.76.18.46.22.69.32.43.36.67.11.47.15.71,0,.49.04.72.11.47.15.71.03.48.07.72-.14.51-.1.75.22.45.26.69.02.48.06.72.06.48.1.71.11.47.15.71.14.46.18.7-.09.5-.05.74.41.42.45.66-.25.53-.21.77.34.43.38.67-.16.51-.12.75.33.43.37.67.13.47.17.7-.05.5,0,.73-.04.49,0,.73-.07.5-.03.74.2.45.24.69-.03.49.01.73.31.44.35.67-.21.52-.18.76.35.43.39.67-.09.5-.05.74.2.45.24.69.26.44.3.68-.25.53-.21.77.42.42.46.65-.3.54-.26.77.11.47.15.71.34.43.38.67.11.47.15.71,0,.49.04.72,0,.49.04.72.3.44.33.68-.32.54-.28.78.09.47.13.71.43.42.47.65-.1.5-.06.74.16.46.2.7-.12.51-.08.74.04.48.08.72.1.47.13.71,0,.49.05.72.39.42.43.66-.23.53-.19.76.23.45.27.69.35.43.39.67-.26.53-.22.77.1.47.13.71.08.47.12.71.2.45.24.69.09.47.12.71.12.47.16.7-.11.5-.07.74.14.46.18.7.07.48.1.71.24.45.28.68-.24.53-.2.76.28.44.31.68-.01.49.02.73.22.45.26.69-.16.51-.12.75.23.45.27.69.15.46.19.7-.16.51-.12.75.18.46.22.69.06.48.1.71.23.45.27.69.09.47.13.71-.09.5-.05.74.14.46.18.7.31.44.35.67.05.48.09.72-.23.52-.19.76.46.41.5.65,0,.49.04.72.06.48.1.71-.05.49,0,.73.24.45.28.68.05.48.09.72-.14.51-.1.75.24.45.28.68.12.47.15.71-.07.5-.03.74.07.48.11.71.2.45.24.69-.21.52-.17.76.31.44.34.67.02.48.06.72.03.48.07.72.05.48.09.72.33.43.37.67.12.47.16.7-.04.49,0,.73.03.48.07.72.18.46.22.69.08.47.12.71.14.46.18.7-.14.51-.1.75.24.45.28.68.03.48.07.72-.06.5-.02.73.21.45.25.69.12.47.16.7-.12.51-.08.74.06.48.1.71.43.42.47.65-.01.49.03.73-.1.5-.06.74,0,.49.04.72.2.45.24.69.1.47.14.71-.04.49,0,.73.21.45.25.69.12.47.16.7.23.45.27.69-.11.51-.07.74-.04.49,0,.73.41.42.45.66-.05.5-.01.73-.27.53-.23.77.23.45.27.69.35.43.39.67-.27.53-.24.77.18.46.22.69.27.44.31.68.05.48.09.72-.12.51-.08.74.22.45.26.69.03.48.07.72-.09.5-.05.74.13.47.17.7.25.44.29.68,0,.49.03.73-.06.5-.02.73.36.43.4.66-.15.51-.11.75.02.48.06.72.01.49.05.72.39.42.43.66-.12.51-.08.74.29.44.32.68-.2.52-.16.76.28.44.32.68.13.47.17.7.16.46.19.7.05.48.09.72.11.47.15.71-.23.52-.19.76.46.41.5.65.1.47.14.71-.35.54-.31.78.41.42.45.66-.25.53-.21.77.31.44.35.67.23.45.27.69-.29.53-.25.77.07.48.11.71.31.44.35.67.19.46.23.69-.28.53-.24.77.37.43.41.66.04.48.08.72.07.48.11.71.19.45.23.69-.24.53-.2.76.29.44.33.68-.15.51-.11.75.26.44.3.68-.16.51-.12.75.22.45.26.69-.02.49.02.73.49.41.53.64-.05.5-.01.73-.02.49.02.73.16.46.2.7.02.48.06.72-.03.49,0,.73.2.45.24.69-.16.51-.12.75.34.43.38.67-.19.52-.15.76.26.44.29.68.24.45.28.68.12.47.16.7.08.47.12.71-.07.5-.03.74.22.45.26.69-.06.5-.02.73-.21.52-.17.76.27.44.31.68.3.44.34.67-.1.5-.06.74-.08.5-.04.74.02.48.06.72.43.42.47.65-.29.53-.25.77.55.4.59.63-.24.53-.21.76,0,.49.03.73.35.43.39.67-.1.5-.06.74.09.47.13.71.14.46.18.7.26.44.3.68-.25.53-.21.77.17.46.21.7-.01.49.03.73.19.46.23.69.19.46.23.69-.19.52-.15.75.36.43.4.66.21.45.25.69-.35.54-.31.78.31.46.35.7c-.22.08-.55-.03-.77.06s-.38.35-.6.43-.47.1-.7.19-.42.23-.64.31-.4.29-.62.37-.44.16-.67.24-.46.12-.69.2-.53-.08-.76,0-.45.15-.68.23-.45.15-.67.23-.46.11-.69.19-.31.56-.53.64-.54-.1-.76-.03-.45.14-.68.21-.47.09-.7.17-.43.2-.66.27-.49.04-.71.11-.39.35-.62.42-.39.34-.62.41-.47.09-.7.16-.48.07-.71.14-.46.13-.69.2-.43.21-.66.28-.55-.17-.78-.1-.42.24-.65.31-.42.25-.65.31-.45.16-.68.22-.48.06-.71.12-.51-.07-.74,0-.38.42-.61.48-.51-.05-.74,0-.45.16-.68.22-.44.19-.67.25-.42.29-.65.36-.5-.02-.73.04-.51-.07-.74-.01-.39.41-.62.47-.54-.2-.77-.14-.44.19-.68.25-.42.28-.66.34-.48.05-.71.1-.48.05-.71.1-.41.35-.64.41-.55-.27-.79-.21-.4.41-.63.47-.48.06-.71.11-.52-.13-.75-.08-.42.29-.66.34-.46.11-.7.16-.45.18-.68.23-.53-.19-.76-.15-.41.39-.64.43-.51-.14-.75-.09-.44.25-.67.3-.51-.12-.74-.07-.39.49-.63.54-.5-.06-.73-.02-.49,0-.72.04-.46.13-.7.18-.5-.09-.74-.05-.45.18-.69.22-.43.3-.67.34-.46.13-.7.17-.5-.07-.73-.04-.47.1-.71.14-.5-.1-.74-.06-.49-.03-.73,0-.42.42-.66.46-.47.13-.7.16-.48,0-.72.03-.46.14-.7.18-.5-.14-.74-.11-.5-.15-.74-.12-.44.34-.67.38-.47.09-.71.12-.48.05-.72.08-.46.15-.7.18-.51-.26-.75-.23-.43.42-.67.45-.49-.1-.73-.07-.5-.13-.73-.1-.48-.02-.72,0-.45.28-.69.3-.49-.06-.73-.03-.47.11-.71.13-.48.05-.72.07-.47.17-.7.19-.47.1-.71.12-.49-.05-.73-.03-.49-.09-.73-.07-.49-.15-.73-.13-.45.47-.69.49-.5-.22-.74-.2-.46.32-.7.33-.51-.38-.75-.37-.46.39-.7.41-.49-.23-.73-.22-.49-.1-.73-.09-.46.36-.7.38-.48.06-.72.07-.48-.01-.72,0-.49-.2-.73-.19-.47.17-.72.18-.49-.23-.73-.22-.47.44-.71.45-.49-.29-.73-.28-.47.25-.71.25-.49-.37-.73-.37-.48.17-.72.17-.48.28-.72.29-.49-.07-.73-.07-.49-.32-.73-.32-.48,0-.73,0-.48.22-.73.23-.49-.03-.73-.03-.49-.05-.73-.05c-.24,0-.48,0-.73,0s-.49.21-.73.21-.48-.34-.72-.34-.49.25-.73.25-.48-.19-.72-.19-.49.33-.73.32-.48-.37-.72-.38-.49.26-.73.25-.48-.08-.72-.09-.48-.19-.72-.2-.49.31-.74.3-.48-.24-.72-.25-.48-.02-.72-.03-.48,0-.72-.02-.49.17-.73.15-.48,0-.73-.01-.47-.24-.71-.25-.49.12-.73.1-.46-.33-.71-.35-.5.18-.74.16-.48-.02-.72-.04-.5.15-.74.13-.45-.48-.69-.5-.51.34-.75.32-.47-.21-.71-.22-.47-.23-.71-.25-.5.13-.74.11-.46-.24-.7-.26-.52.42-.76.4-.47-.16-.71-.18-.45-.32-.69-.34-.49.1-.73.07-.47-.11-.71-.13-.48-.08-.72-.11-.49.04-.73.01-.49.08-.73.05-.45-.29-.69-.32-.49.04-.73.02-.48-.06-.72-.09-.51.16-.75.13-.43-.47-.66-.5-.49.02-.73-.01-.47-.09-.71-.12-.5.07-.74.04-.45-.24-.69-.28-.53.32-.77.28-.42-.45-.66-.48-.47-.11-.71-.14-.47-.1-.71-.14-.54.33-.78.29-.44-.31-.67-.35-.52.16-.75.12-.44-.28-.68-.32-.44-.31-.67-.35-.52.19-.76.15-.42-.36-.66-.4-.49.01-.73-.03-.52.14-.75.1-.41-.42-.65-.46-.53.19-.76.14-.44-.27-.67-.32-.52.16-.76.11-.48-.08-.71-.13-.49,0-.73-.04-.46-.18-.69-.23-.44-.25-.67-.3-.44-.24-.68-.29-.52.1-.75.05-.5,0-.73-.05-.44-.23-.68-.29-.5,0-.73-.05-.39-.46-.62-.51-.53.15-.76.09-.42-.31-.66-.37-.55.21-.78.15-.47-.1-.71-.16-.44-.24-.67-.3-.49-.03-.72-.09-.46-.16-.69-.22-.45-.17-.69-.23-.38-.44-.61-.5-.57.26-.8.2-.37-.49-.6-.55-.56.22-.79.16-.4-.37-.63-.43-.43-.25-.66-.32-.46-.13-.69-.2-.57.25-.8.18-.37-.45-.6-.52-.46-.13-.69-.2-.47-.1-.7-.16-.5,0-.73-.07-.4-.34-.63-.41-.5,0-.73-.07-.48-.09-.7-.16-.42-.27-.65-.34-.51,0-.73-.07-.42-.26-.65-.33-.47-.11-.7-.18-.45-.16-.68-.23-.44-.19-.67-.27-.54.1-.77.02-.41-.28-.64-.36-.39-.35-.61-.43-.55.11-.77.04-.48-.09-.7-.17-.44-.2-.66-.28-.4-.32-.62-.4-.45-.16-.68-.24-.48-.07-.71-.16-.38-.36-.6-.44-.44-.18-.66-.26-.51,0-.73-.08-.4-.3-.62-.38-.52.02-.74-.06-.45-.15-.67-.23-.53-.2-.74-.29c.03-.24.19-.55.22-.79s.16-.46.19-.7-.13-.5-.1-.74.18-.46.21-.7.12-.47.15-.71-.12-.5-.09-.74.27-.45.31-.69.21-.46.24-.69-.19-.51-.15-.75.32-.44.36-.68-.34-.53-.31-.77.47-.42.5-.66.03-.48.06-.72.11-.47.15-.71-.29-.53-.26-.76.03-.48.06-.72.15-.46.19-.7.27-.45.3-.69.15-.46.18-.7-.03-.49,0-.73.05-.48.09-.72.03-.48.07-.72.05-.48.09-.72.27-.45.3-.69-.28-.52-.25-.76.23-.45.26-.69.03-.48.06-.72.02-.48.05-.72.11-.47.14-.71-.1-.5-.07-.74.45-.42.49-.66.05-.48.08-.72.04-.48.08-.72-.33-.53-.3-.77.25-.45.28-.69.24-.45.27-.69-.3-.53-.27-.77.39-.43.42-.67-.02-.49.01-.73-.09-.5-.06-.74.29-.45.32-.68-.06-.49-.03-.73.36-.44.39-.67-.24-.52-.2-.76.33-.44.36-.68.01-.48.05-.72-.14-.51-.11-.74.26-.45.29-.69-.23-.52-.19-.75.4-.43.43-.67-.1-.5-.06-.74.2-.46.23-.7-.05-.49-.02-.73.09-.47.13-.71.17-.46.2-.7.11-.47.14-.71-.19-.51-.16-.75.05-.48.08-.72.06-.48.1-.71.11-.47.14-.71.23-.45.27-.69-.25-.52-.22-.76.15-.46.18-.7.34-.44.37-.68-.06-.49-.02-.73-.05-.49-.02-.73.2-.46.23-.7-.16-.51-.12-.75.04-.48.07-.72.34-.44.37-.68.2-.46.23-.7.02-.48.05-.72-.2-.51-.17-.75.06-.48.09-.71.01-.48.04-.72.42-.43.46-.66-.22-.52-.19-.75.05-.48.08-.72.24-.45.28-.69.19-.46.22-.7-.33-.53-.29-.77.17-.46.2-.7.41-.43.44-.67-.33-.53-.29-.77.21-.46.24-.69.21-.46.24-.69-.18-.51-.14-.75.13-.47.16-.71-.06-.49-.03-.73.11-.47.15-.71.35-.44.38-.67-.23-.52-.19-.75.03-.48.07-.72.36-.43.4-.67-.16-.51-.13-.75.19-.46.23-.7.23-.45.26-.69-.23-.52-.19-.75.16-.46.19-.7.02-.48.06-.72,0-.48.04-.72.3-.44.33-.68-.28-.52-.24-.76.53-.41.56-.65-.24-.52-.2-.76.24-.45.27-.69-.22-.52-.19-.75.05-.48.08-.72.05-.48.08-.72.36-.44.39-.67.16-.46.19-.7,0-.49.02-.72-.06-.49-.02-.73-.07-.49-.03-.73.18-.46.21-.7.29-.44.33-.68-.03-.49,0-.73.1-.47.13-.71-.22-.52-.19-.75.22-.45.25-.69-.14-.5-.11-.74.13-.47.17-.7.14-.47.18-.7.4-.43.43-.67,0-.49.02-.72.11-.47.15-.71-.18-.51-.15-.75.18-.46.22-.7-.2-.51-.16-.75.13-.47.16-.71.11-.47.14-.71.18-.46.22-.7-.03-.49,0-.73.14-.47.17-.7-.17-.51-.14-.75.25-.45.28-.69.2-.46.23-.7-.14-.51-.11-.74.4-.43.43-.67-.08-.5-.05-.73-.05-.49-.01-.73-.07-.49-.03-.73.41-.43.45-.67-.34-.53-.3-.77.27-.45.3-.69-.13-.5-.09-.74.21-.46.24-.69-.08-.5-.05-.74.38-.43.41-.67-.18-.51-.15-.75.37-.43.41-.67.09-.47.12-.71-.13-.5-.1-.74.12-.47.15-.71.21-.46.25-.69-.2-.51-.17-.75.17-.46.2-.7.07-.48.1-.71-.04-.49-.01-.73.21-.46.25-.69.08-.47.11-.71-.1-.5-.07-.74.11-.47.15-.71.02-.48.05-.72.38-.43.41-.67.06-.48.09-.72-.08-.5-.05-.73.27-.45.3-.69-.26-.52-.23-.76.05-.48.08-.72.25-.45.28-.69.18-.46.22-.7-.17-.51-.14-.75.01-.48.04-.72.41-.43.45-.67-.02-.49.02-.73-.11-.5-.07-.74,0-.49.02-.72.1-.47.13-.71.08-.47.12-.71.19-.46.22-.7.17-.46.21-.7.07-.48.1-.71-.25-.52-.22-.76.31-.44.34-.68-.1-.5-.06-.74-.06-.49-.03-.73.43-.43.46-.66-.28-.52-.25-.76.17-.46.2-.7.18-.46.21-.7,0-.48.04-.72.09-.47.13-.71.2-.46.23-.7-.19-.51-.16-.75,0-.48.04-.72.28-.45.31-.68.05-.48.08-.72-.07-.49-.03-.73,0-.48.04-.72-.02-.49.02-.73.31-.44.34-.68.18-.46.22-.7-.18-.51-.14-.75.07-.48.1-.71.19-.46.22-.7.12-.47.16-.71.1-.47.14-.71.07-.48.1-.71.1-.47.14-.71,0-.49.03-.72.22-.45.26-.69-.29-.53-.26-.76.37-.43.4-.67-.2-.51-.17-.75,0-.49.02-.72.16-.46.19-.7.11-.47.14-.71.2-.46.23-.7-.25-.52-.22-.76.28-.45.31-.68.15-.46.19-.7-.01-.49.02-.73.08-.47.11-.71-.09-.5-.05-.74.03-.48.06-.72.33-.44.36-.68-.01-.49.02-.73.23-.45.26-.69-.05-.49-.02-.73-.12-.5-.09-.74.18-.46.22-.7.16-.46.2-.7-.04-.49,0-.73.16-.46.2-.7.07-.48.1-.71.16-.46.2-.7-.12-.5-.09-.74.05-.48.08-.72-.04-.49-.01-.73.17-.46.2-.7.33-.44.36-.68.12-.47.15-.71.07-.48.1-.71-.24-.52-.21-.76.37-.43.4-.67-.39-.54-.36-.78.47-.42.5-.66-.11-.5-.07-.74.2-.46.23-.7.02-.48.05-.72-.15-.51-.12-.74.16-.46.19-.7.08-.47.11-.71-.08-.5-.05-.73.26-.45.29-.69.15-.46.18-.7.15-.46.18-.7,0-.49.03-.72.07-.48.1-.71-.12-.5-.09-.74.36-.43.4-.67-.18-.51-.15-.75.34-.44.38-.68.07-.48.1-.71.07-.48.1-.71-.29-.53-.26-.76.03-.48.06-.72.14-.47.17-.7.25-.45.28-.69-.22-.52-.19-.75.26-.45.3-.69.11-.47.14-.71.12-.47.15-.71-.24-.52-.21-.76.13-.47.17-.7.26-.45.3-.69-.03-.49,0-.73.07-.48.1-.71.16-.46.19-.7.04-.48.08-.72-.06-.49-.02-.73.4-.43.43-.67-.24-.52-.2-.76.13-.47.16-.71.3-.44.34-.68-.39-.54-.36-.78.22-.46.25-.69.03-.48.06-.72.15-.46.19-.7.06-.48.09-.72.2-.46.23-.7-.09-.5-.06-.74.27-.45.3-.69-.13-.5-.09-.74.35-.44.38-.67.01-.48.04-.72.08-.47.11-.71-.14-.5-.1-.74.08-.47.12-.71.08-.47.12-.71-.12-.5-.09-.74.43-.43.46-.66.11-.47.14-.71-.13-.5-.1-.74.2-.46.23-.7-.07-.49-.04-.73Z"/><path class="uuid-584a937d-bfaf-4453-ad2d-088ade64d0bf" d="m78.55,86.22c.13.22.16.61.28.82s.36.37.49.58c.13.22.52.28.65.49.13.22.22.46.35.67.13.22.29.41.42.62.13.22-.07.63.06.83.13.22.51.28.64.49.13.22.37.38.49.58.14.23,0,.6.12.8.14.23.51.29.63.49.14.23.02.6.13.79.15.25.25.48.35.66.25.42.6.4.6.4,0,0-.11.18-.11.18,0,0,.13-.22.13-.22.22.12.23.6.44.72s.48.15.69.27.55.01.76.13.37.34.59.45.42.25.64.36.35.39.57.5.6-.1.81.01.32.46.54.56.46.18.67.29.41.28.63.38.55-.04.77.06.38.35.6.45.45.2.67.29.42.26.64.36.5.07.72.16.47.13.7.21.44.22.66.31.52,0,.74.08.33.52.55.6.58-.17.8-.1.35.49.57.57.57-.17.8-.1.37.46.59.53.46.18.69.24c.24.07.56-.16.78-.09.24.07.47.14.7.2.24.06.42.34.65.39.24.06.49.08.71.13.25.05.51-.04.74,0,.25.05.5-.02.73.03.25.05.46.24.68.28.25.04.46.28.68.31.26.04.52-.07.73-.05.28.03.52.05.72.07.47.03.72.14.72.14.24,0,.47-.41.71-.42s.49.08.73.06.48-.06.72-.09.51.2.75.17.46-.25.7-.28.52.13.75.09.42-.39.66-.44.48-.09.71-.14.46-.15.7-.21.48-.08.72-.14.51.03.75-.04.4-.34.63-.42.47-.13.7-.2.48-.09.71-.18.46-.16.69-.25.47-.13.7-.22.53.01.76-.08.43-.25.65-.35.36-.39.58-.49.56.05.78-.06.34-.41.56-.52.49-.12.7-.23.5-.09.72-.21.35-.39.56-.51.34-.39.55-.51.55,0,.76-.13.47-.16.68-.28.24-.56.45-.68.58.02.78-.11.37-.33.57-.46.41-.27.61-.4.34-.37.54-.5.52-.09.72-.21c0,0-.08-.12-.08-.12.13-.21.14-.5.27-.71s.4-.34.53-.55.41-.33.54-.55-.09-.63.04-.85.45-.31.58-.52.29-.41.42-.62.15-.49.28-.7.38-.35.51-.56.39-.35.52-.56-.06-.62.07-.83.47-.3.6-.51.15-.49.28-.7.22-.41.35-.62c-.24,0-.45,0-.69,0s-.48-.08-.72-.08-.48.08-.72.08-.48.06-.72.06-.48-.27-.72-.27-.48.32-.72.32-.48-.25-.72-.25-.48.25-.72.25-.48-.03-.72-.03-.48.12-.72.12-.48-.02-.72-.02-.48-.38-.72-.38-.48.12-.72.12-.48.02-.72.02-.48,0-.72,0-.48-.11-.72-.11-.48-.01-.72-.01-.48.12-.72.12-.48-.05-.72-.05-.48.05-.72.05-.48.17-.72.17-.48.04-.72.04-.48-.35-.72-.35-.48.24-.72.24-.48-.29-.72-.29-.48.26-.72.26-.48-.17-.72-.17-.48.33-.72.33-.48-.04-.72-.04-.48-.32-.72-.32-.48-.06-.72-.06-.48.02-.72.02-.48.3-.72.3-.48.08-.72.08-.48-.24-.72-.24-.48.25-.72.25-.48-.16-.72-.16-.48-.09-.72-.09-.48-.04-.72-.04-.48.14-.72.14-.48-.27-.72-.27-.48.25-.72.25-.48-.11-.72-.11-.48.1-.72.1-.48.04-.72.04-.48-.15-.72-.15-.48.12-.72.12-.48-.23-.72-.23-.48.08-.72.08-.48-.08-.72-.08-.48.19-.72.19-.48.11-.72.11-.48.02-.72.02-.48-.23-.72-.23-.48-.09-.72-.09-.48.12-.72.12-.48-.08-.72-.08-.48.09-.72.09-.48.19-.72.19-.48.14-.72.14-.48-.48-.72-.48-.48,0-.72,0-.48.46-.72.46-.48-.42-.72-.42-.48.13-.72.13-.48-.01-.72-.01-.48-.16-.72-.16-.48.11-.72.11-.48-.11-.72-.11-.48.09-.72.09-.48.3-.72.3-.48-.14-.72-.14-.48-.25-.72-.25-.48.41-.72.41-.48-.39-.72-.39-.48.16-.72.16-.48.26-.72.26-.59-.26-.83-.26Z"/><path class="uuid-31bb79a4-f1da-407a-af04-748f4c6a6308" d="m65.09,76.42c.17.17.14.39.31.56s.4.28.56.45c.17.18.45.24.62.41s.2.48.36.65.45.24.62.41c.17.18.38.31.54.48.17.18.31.38.47.54.17.18.24.44.4.6.17.18.44.25.6.41.17.18.12.56.28.72.17.18.52.18.67.34.18.18.23.46.38.62.18.19.41.31.55.46.19.2.22.5.36.64.33.34.66.26.66.26,0,0,.03-.06.03-.06,0,0-.13.38-.13.38.23.08.47.09.7.17s.45.17.67.25.5.03.73.1.52-.04.75.03.36.44.59.52.45.18.68.25.52-.04.75.03.47.13.69.2.38.41.61.48.56-.17.78-.1.47.1.7.17.39.39.61.46.49.05.72.12.44.21.67.27.5,0,.73.06.5,0,.73.06.36.5.59.56.54-.17.77-.1.43.24.66.3.44.2.67.26.47.09.7.15.49.01.72.07.49.02.72.08.47.08.7.13.37.49.6.55.51-.06.74,0,.53-.15.76-.1.38.51.61.56.56-.31.79-.26.47.09.7.14.43.27.66.32.45.16.68.21.51-.11.74-.06.46.14.69.18.45.21.68.25.43.34.66.38.51-.14.74-.1.47.09.7.13.5-.08.73-.05.44.32.67.35c.24.03.48.04.71.07s.5-.08.72-.05c.24.03.5-.12.72-.09.24.03.43.47.66.49.24.03.5-.18.73-.16.25.02.48.1.7.12.25.02.47.2.69.22.25.02.48.1.7.11.26.02.52-.41.73-.4.28.01.5.24.7.24.46.01.7-.24.7-.24.24,0,.49.4.72.4s.47-.19.71-.2.47-.21.7-.23.48.01.71,0,.47-.06.71-.07.5.31.74.29.47-.12.71-.15.47-.12.7-.15.48-.05.71-.08.47-.13.7-.16.47-.1.7-.13.5.13.73.09.49,0,.72-.03.44-.31.67-.35.46-.11.7-.15.52.19.75.14.47-.11.7-.15.41-.38.64-.43.53.23.76.18.4-.4.63-.45.48-.04.71-.09.51.07.74.02.45-.16.68-.22.41-.32.64-.38.54.18.77.12.48-.04.71-.11.4-.35.63-.42.48-.06.71-.12.42-.25.65-.31.44-.19.66-.26.45-.17.67-.24.53.1.76.03.43-.22.66-.29.52.06.75,0,.36-.44.58-.51.44-.17.67-.25.5,0,.72-.09.51.01.73-.06.42-.23.65-.31.45-.15.67-.23.36-.41.58-.49.5-.01.73-.09.49-.06.7-.14.35-.41.57-.49.43-.2.65-.28.55.1.77.02.28-.57.5-.66.5-.02.71-.1c0,0,.02.05.02.05.17-.17.5-.18.66-.36s.1-.57.26-.74.27-.4.43-.57.49-.19.65-.36.23-.44.4-.61.43-.25.59-.42.18-.49.35-.66.38-.3.54-.47.48-.2.64-.37.35-.32.52-.49.34-.33.51-.5.24-.43.4-.6.3-.37.47-.54.34-.34.5-.51.5-.39.67-.56c-.24,0-.63.17-.87.17s-.48-.26-.72-.26-.48-.04-.72-.04-.48.02-.72.02-.48.13-.72.13-.48.24-.72.24-.48-.35-.72-.35-.48.37-.72.37-.48-.29-.72-.29-.48-.09-.72-.09-.48.39-.72.39-.48-.37-.72-.37-.48.15-.72.15-.48-.23-.72-.23-.48.28-.72.28-.48.01-.72.01-.48-.15-.72-.15-.48.14-.72.14-.48-.28-.72-.28-.48.06-.72.06-.48.4-.72.4-.48-.24-.72-.24-.48-.19-.72-.19-.48.4-.72.4-.48-.36-.72-.36-.48.17-.72.17-.48.23-.72.23-.48-.21-.72-.21-.48-.18-.72-.18-.48.17-.72.17-.48-.01-.72-.01-.48.11-.72.11-.48-.06-.72-.06-.48-.29-.72-.29-.48.11-.72.11-.48-.09-.72-.09-.48,0-.72,0-.48.27-.72.27-.48-.25-.72-.25-.48.35-.72.35-.48-.4-.72-.4-.48.23-.72.23-.48-.08-.72-.08-.48-.02-.72-.02-.48.11-.72.11-.48-.15-.72-.16-.48.12-.72.12-.48.27-.72.27-.48-.02-.72-.02-.48-.33-.72-.33-.48-.01-.72-.01-.48.02-.72.02-.48-.1-.72-.1-.48.09-.72.09-.48.05-.72.05-.48.23-.72.23-.48.02-.72.02-.48-.38-.72-.38-.48.07-.72.07-.48.28-.72.28-.48,0-.72,0-.48-.05-.72-.05-.48-.19-.72-.19-.48.01-.72.01-.48.32-.72.32-.48,0-.72,0-.48-.32-.72-.32-.48.3-.72.3-.48-.02-.72-.02-.48-.05-.72-.05-.48-.22-.72-.22-.48.19-.72.19-.48.14-.72.14-.48-.06-.72-.06-.48-.3-.72-.3-.48.14-.72.14-.48.18-.72.18-.48,0-.72,0-.48-.03-.72-.03-.48-.17-.72-.17-.48.03-.72.03-.48-.26-.72-.26-.48.27-.72.27-.48-.07-.72-.07-.48.23-.72.23-.48-.21-.72-.21-.48.2-.72.2-.48-.18-.72-.18-.48-.21-.72-.21-.48.28-.72.28-.48-.05-.72-.05-.48.12-.72.12-.48-.11-.72-.11-.48.04-.72.04-.48.15-.72.15-.48-.44-.72-.44-.48.09-.72.09-.48.13-.72.13-.48-.04-.72-.04-.48.03-.72.03-.48.04-.72.04-.48-.02-.72-.02-.48.06-.72.06-.48-.15-.72-.15-.48.02-.72.02-.48-.18-.72-.18-.48.41-.72.41-.48-.38-.72-.38-.48.07-.72.07-.48-.01-.72-.01-.48.24-.72.24-.48.05-.72.05-.48-.33-.72-.33-.48-.03-.72-.03-.48.14-.72.14-.38.13-.62.13Z"/><path class="uuid-ee9340f9-a0d3-47d2-9ddb-10d0ba00bb56" d="m46.64,69.04c.21.13.61.19.81.32s.32.42.52.55.38.33.58.45.51.12.71.25.3.44.51.57.42.26.62.39c.21.13.54.08.74.21.21.13.51.13.71.25.21.13.41.28.61.41.21.13.28.49.48.61.21.14.46.21.65.34.22.14.55.07.75.19.22.14.26.52.46.64.22.14.46.21.65.33.23.14.5.18.68.3.24.15.27.57.44.67.41.26.67.42.67.42,0,0,.09-.35.09-.35,0,0,0,.03,0,.03.24.05.41.39.65.44s.54-.22.78-.17.5-.02.74.03.38.55.62.6.54-.23.78-.19.41.44.64.48.49.04.72.09.5-.03.74.02.53-.2.77-.15.45.21.69.26.46.17.7.21.43.33.67.37.53-.17.76-.13.45.25.68.29.46.19.7.23.55-.29.78-.25.47.12.71.17.47.15.7.19.49.04.72.08.45.25.69.29.52-.14.75-.1.48.07.72.11.44.28.68.32.47.15.71.19.46.19.7.23.48.09.72.13.53-.21.77-.17.45.25.69.28.46.19.7.23.48.1.72.14.52-.17.76-.13.47.17.71.2.5-.05.74-.02.49.04.72.08.47.16.71.2.48.06.72.09.5-.03.73,0,.46.21.7.24.47.13.71.16.48.09.72.12.52-.26.76-.23.47.14.71.17.47.13.71.16.5-.06.73-.03.44.39.68.42.53-.36.77-.33.48.06.72.08.48.05.72.08.45.35.69.37.49-.05.73-.02.48.07.72.1.48.06.72.08.48.05.72.07.49-.09.73-.07.49-.05.72-.03.48.06.72.08.46.3.7.32.48.09.71.11.49-.06.73-.04c.25.02.48.19.71.2s.48.09.72.1c.25.02.51-.31.74-.29.25.01.47.3.7.31.25.01.5-.26.73-.25.25.01.48.26.71.27.25.01.49.08.72.09.26,0,.49.03.72.03.26,0,.5.08.71.09.28,0,.52,0,.72.01.47,0,.71-.35.71-.35.24,0,.48.23.72.23s.48-.12.72-.12.48-.14.72-.15.48-.05.72-.05.48.07.72.06.49.16.73.15.48-.02.72-.03.47-.23.71-.24.49.22.73.21.47-.21.71-.22.49.22.73.2.46-.38.7-.39.49.1.73.09.48-.04.72-.06.48,0,.72-.01.47-.24.71-.25.48-.06.72-.08.5.22.74.2.45-.32.69-.35.52.38.76.36.48-.07.72-.1.45-.3.69-.33.51.23.75.2.47-.18.7-.21.49.04.73,0,.46-.23.7-.26.45-.24.69-.27.48-.04.72-.08.49,0,.72-.03.52.26.76.23.44-.31.68-.35.5.07.73.03.5.06.73.03.46-.21.69-.25.49,0,.72-.03.47-.13.7-.17.49.02.73-.02.47-.09.71-.13.41-.45.65-.49.46-.13.7-.17.52.16.75.12.46-.17.69-.22.48-.03.72-.07.48-.06.71-.1.43-.3.66-.35.5.05.73,0,.46-.13.7-.18.52.16.76.11.4-.46.63-.51.5.04.73,0,.48-.06.71-.11.47-.1.7-.15.45-.17.69-.22.5.06.73,0,.48-.07.71-.12.46-.14.69-.19.5.05.73,0,.4-.4.63-.45.48-.05.71-.11.52.12.75.06.42-.29.65-.35.4-.38.63-.44.58.36.81.3.41-.32.64-.38.46-.15.68-.2.49.05.72,0c0,0-.11-.29-.11-.29.21-.13.4-.27.61-.4s.49-.14.69-.27.37-.33.57-.46.51-.1.72-.23.42-.25.62-.38.41-.26.62-.39.39-.3.6-.43.41-.26.62-.39.48-.15.69-.28.41-.26.62-.39.31-.42.52-.55.35-.35.56-.48.44-.22.64-.35.45-.2.66-.33.55-.04.76-.17.35-.36.56-.49.33-.36.53-.49c-.24,0-.46.17-.7.17s-.48.03-.72.03-.48-.08-.72-.08-.48-.06-.72-.06-.48.02-.72.02-.48.08-.72.08-.48,0-.72,0-.48-.42-.72-.42-.48.2-.72.2-.48.05-.72.05-.48-.15-.72-.15-.48.02-.72.02-.48,0-.72,0-.48.15-.72.15-.48-.07-.72-.07-.48.11-.72.11-.48-.31-.72-.31-.48.07-.72.07-.48.22-.72.22-.48-.23-.72-.23-.48-.04-.72-.04-.48.05-.72.05-.48.13-.72.13-.48.2-.72.2-.48-.41-.72-.41-.48.36-.72.36-.48-.02-.72-.02-.48-.22-.72-.22-.48.35-.72.35-.48-.08-.72-.08-.48.04-.72.04-.48-.44-.72-.44-.48.18-.72.18-.48,0-.72,0-.48.25-.72.25-.48-.06-.72-.06-.48-.13-.72-.13-.48.12-.72.12-.48-.25-.72-.25-.48-.11-.72-.11-.48.31-.72.31-.48-.1-.72-.1-.48-.2-.72-.2-.48,0-.72,0-.48.42-.72.42-.48-.23-.72-.23-.48.23-.72.23-.48-.23-.72-.23-.48.22-.72.22-.48-.27-.72-.27-.48,0-.72,0-.48.29-.72.29-.48-.46-.72-.46-.48.31-.72.31-.48-.04-.72-.04-.48-.21-.72-.21-.48.28-.72.28-.48-.08-.72-.08-.48-.12-.72-.12-.48.27-.72.27-.48-.2-.72-.2-.48.15-.72.15-.48-.01-.72-.01-.48-.04-.72-.04-.48-.06-.72-.06-.48.07-.72.07-.48.07-.72.07-.48-.2-.72-.2-.48.24-.72.24-.48-.27-.72-.27-.48.03-.72.03-.48-.13-.72-.13-.48.31-.72.31-.48-.03-.72-.03-.48-.18-.72-.18-.48.11-.72.11-.48-.1-.72-.1-.48,0-.72,0-.48.22-.72.22-.48.04-.72.04-.48-.24-.72-.24-.48-.03-.72-.03-.48-.02-.72-.02-.48.2-.72.2-.48.04-.72.04-.48-.26-.72-.26-.48.04-.72.04-.48.13-.72.13-.48-.11-.72-.11-.48.07-.72.07-.48-.01-.72-.01-.48-.23-.72-.23-.48.3-.72.3-.48-.1-.72-.1-.48.1-.72.1-.48-.19-.72-.19-.48.16-.72.16-.48-.23-.72-.23-.48.39-.72.39-.48-.05-.72-.05-.48-.04-.72-.04-.48-.14-.72-.14-.48.15-.72.15-.48-.12-.72-.12-.48-.06-.72-.06-.48.06-.72.06-.48-.19-.72-.19-.48-.03-.72-.03-.48.45-.72.45-.48-.11-.72-.11-.48-.24-.72-.24-.48.22-.72.22-.48-.02-.72-.02-.48-.09-.72-.09-.48-.09-.72-.09-.48.28-.72.28-.48-.23-.72-.23-.48-.12-.72-.12-.48.36-.72.36-.48-.07-.72-.07-.48.08-.72.08-.48-.25-.72-.25-.48-.06-.72-.06-.48.19-.72.19-.48-.1-.72-.1-.48.24-.72.24-.48.02-.72.02-.48-.3-.72-.3-.48.05-.72.05-.48-.21-.72-.21-.48.22-.72.22-.48.06-.72.06-.48-.26-.72-.26-.48.19-.72.19-.48-.19-.72-.19-.48.43-.72.43-.48-.14-.72-.14-.48-.3-.72-.3-.48.09-.72.09-.48-.11-.72-.11-.48.07-.72.07-.48.15-.72.15-.48.18-.72.18-.48-.22-.72-.22-.48.06-.72.06-.48-.13-.72-.13-.48-.03-.72-.03-.48.01-.72.01-.48.39-.72.39-.48,0-.72,0-.48-.1-.72-.1-.48.08-.72.08-.48,0-.72,0-.48.01-.72.01-.48-.23-.72-.23-.48.22-.72.22-.48.01-.72.01-.48.02-.72.02-.48-.23-.72-.23-.48-.06-.72-.06-.48.22-.72.22-.48.03-.72.03-.48-.05-.72-.05-.61-.18-.85-.18Z"/><path class="uuid-de13b72f-f3ab-4d47-b33a-e94c9d8f1ab7" d="m191.72,54.67c-.21-.11-.46-.13-.67-.23s-.48-.09-.69-.18-.33-.44-.54-.52-.4-.29-.61-.37-.45-.15-.67-.23-.47-.1-.69-.17-.45-.14-.67-.21-.42-.26-.65-.31-.47-.09-.7-.14-.48-.07-.7-.11-.53.27-.76.23-.45-.13-.68-.17c-.24-.03-.46-.14-.68-.17-.24-.03-.46-.2-.69-.22-.24-.02-.49.16-.71.15-.24-.01-.48,0-.7,0-.25,0-.48-.11-.69-.11-.25,0-.54.1-.75.1-.14-.16-.37-.35-.55-.54-.15-.16-.35-.3-.52-.48-.16-.16-.06-.6-.24-.78-.17-.16-.47-.18-.66-.35-.17-.15-.19-.5-.38-.66-.18-.15-.46-.19-.65-.34s-.34-.34-.54-.48-.34-.34-.54-.48-.39-.27-.6-.41-.56,0-.77-.13-.41-.23-.63-.34-.36-.34-.57-.45-.34-.39-.56-.49-.49-.1-.71-.19-.53.02-.75-.07c-.23-.09-.42-.3-.64-.38s-.52-.02-.75-.1-.46-.18-.69-.25-.45-.26-.68-.32-.49-.1-.73-.15-.51.03-.75-.02-.51.04-.74,0c-.25-.04-.45-.35-.69-.38-.25-.03-.52.15-.75.13-.26-.02-.5.02-.74,0-.26-.01-.49-.32-.72-.33-.26,0-.46.03-.69.03-.1-.22-.25-.37-.35-.58s-.1-.48-.21-.7-.48-.3-.59-.51-.18-.44-.3-.65-.11-.48-.22-.69-.3-.38-.41-.59-.27-.4-.39-.6.03-.57-.09-.78-.25-.41-.37-.62-.37-.34-.49-.54-.32-.37-.45-.57-.07-.53-.2-.73-.28-.39-.41-.59-.58-.18-.72-.38-.05-.55-.19-.74-.48-.25-.62-.44.02-.61-.12-.8-.54-.19-.69-.38-.12-.51-.27-.7-.16-.48-.31-.67-.56-.17-.71-.35-.05-.58-.2-.76-.36-.33-.51-.51-.31-.36-.47-.55-.57-.14-.73-.31-.14-.52-.3-.7-.37-.31-.53-.49-.21-.47-.37-.64-.41-.27-.58-.44-.37-.31-.54-.48-.52-.16-.69-.32-.31-.36-.49-.53-.11-.58-.29-.74-.63-.02-.81-.18-.31-.37-.48-.53-.15-.56-.33-.71-.37-.31-.55-.47-.58-.05-.76-.21-.29-.39-.48-.54-.41-.25-.6-.4-.18-.56-.37-.7-.5-.14-.69-.28-.48-.15-.68-.29-.42-.24-.61-.38-.18-.58-.37-.72-.4-.27-.6-.41-.45-.19-.65-.32-.43-.22-.63-.35-.49-.12-.69-.25-.44-.2-.64-.33-.4-.27-.6-.39-.26-.51-.47-.62-.57.03-.78-.08-.34-.37-.55-.49-.5-.07-.72-.18-.26-.55-.47-.66-.54,0-.75-.11-.32-.44-.53-.54-.55.03-.76-.07-.38-.33-.59-.43-.54.05-.76-.05-.42-.23-.64-.32-.35-.41-.57-.5-.57.14-.79.05-.35-.42-.57-.51-.46-.13-.69-.22-.4-.29-.63-.37-.51,0-.74-.07-.38-.39-.6-.46-.45-.16-.68-.23-.53.11-.76.04-.4-.35-.63-.41-.55.19-.78.13-.44-.21-.67-.27-.41-.34-.64-.4-.49,0-.73-.05-.51.07-.74.02-.47-.06-.71-.11-.42-.35-.65-.4-.45-.22-.68-.26-.5.09-.74.05-.52.2-.75.16-.45-.18-.69-.22-.45-.27-.68-.3-.48-.06-.71-.09-.47-.13-.71-.15-.5.2-.74.17-.49.08-.72.06-.47-.18-.7-.19-.46-.31-.7-.32c-.24-.01-.49.29-.73.28s-.48-.06-.72-.07-.48.1-.72.09-.48-.4-.71-.4-.48.22-.72.22-.48,0-.72.01-.48-.05-.72-.04-.47.14-.71.15-.48.04-.72.06-.49-.17-.73-.15-.46.31-.7.33-.49-.08-.72-.05-.49-.09-.73-.06-.47.12-.71.14-.46.2-.69.23-.48.03-.72.07-.45.2-.69.24-.48.04-.71.08-.53-.26-.77-.21-.4.49-.63.53-.49,0-.72.05-.5-.04-.73,0-.41.33-.65.39-.46.12-.69.18-.55-.23-.78-.17-.38.42-.61.48-.45.16-.68.23-.49.03-.72.09-.56-.19-.79-.12-.44.2-.67.27-.38.37-.61.45-.47.12-.69.2-.39.34-.61.42-.46.13-.68.22-.44.19-.66.28-.45.15-.67.24-.57-.13-.79-.04-.28.56-.5.65-.5.06-.71.16-.53,0-.74.1-.32.43-.54.54-.4.26-.62.37-.55-.04-.77.07-.4.28-.61.39-.3.45-.51.56-.5.09-.7.21-.36.33-.57.45-.53.04-.74.16-.42.24-.62.36-.27.48-.47.6-.49.12-.69.25-.56.02-.76.16-.23.52-.43.66-.48.15-.68.28-.47.17-.66.31-.16.6-.36.74-.49.13-.69.28-.32.37-.51.52-.38.3-.56.44-.46.18-.65.33-.26.44-.45.59-.56.07-.74.23-.42.25-.6.41-.08.64-.25.8-.48.18-.65.34-.41.26-.58.43-.48.19-.65.36-.17.52-.34.69-.37.31-.54.47-.51.17-.68.34-.02.65-.19.82-.51.18-.67.35-.42.27-.58.44-.21.46-.37.64-.25.42-.4.6-.48.22-.64.4-.32.36-.47.54-.16.49-.31.68-.5.21-.65.4-.02.59-.17.78-.31.37-.45.56-.34.34-.49.53-.25.41-.39.6-.5.23-.64.42-.19.45-.33.65-.37.33-.5.53-.23.43-.36.63,0,.57-.12.78-.33.36-.45.56-.47.27-.59.48-.31.38-.43.58-.11.49-.23.7-.15.47-.26.68-.25.41-.37.62-.37.35-.48.56.07.58-.04.79-.16.46-.26.67-.61.23-.72.45,0,.54-.11.76c-.23,0-.49-.15-.75-.14-.23,0-.48.01-.74.03-.24.01-.49-.07-.75-.05-.24.02-.47.21-.72.24-.24.03-.48.07-.73.11s-.47.15-.72.19-.48.09-.72.14-.49.03-.74.09-.5.05-.74.12-.47.16-.7.24-.49.1-.73.18-.49.1-.73.19c-.23.09-.45.19-.67.29s-.37.37-.58.47-.44.2-.65.31-.43.21-.64.32-.47.15-.68.27-.23.55-.43.67-.59-.02-.78.12-.31.41-.5.55-.48.17-.67.31-.14.6-.31.75c-.19.16-.41.26-.58.42-.18.16-.52.15-.68.31-.18.17-.13.56-.29.72-.18.18-.62.08-.77.25-.17.19-.27.37-.41.53-.21,0-.4-.13-.65-.13-.22,0-.46-.01-.7,0-.22,0-.45.26-.69.27-.22.01-.44.26-.68.28-.23.02-.45.03-.69.06-.23.03-.48-.16-.72-.12s-.44.15-.68.19-.47-.01-.71.04-.48-.01-.71.04-.41.3-.64.36-.44.15-.67.22-.55-.2-.77-.13-.41.24-.64.32-.4.27-.62.36-.52-.04-.74.05-.42.21-.64.3-.42.22-.64.32-.36.34-.57.45c-.22.11-.36.34-.57.45s-.55-.01-.76.11-.25.51-.45.64-.46.16-.66.29-.36.32-.55.45-.34.33-.53.47-.64-.06-.83.08-.27.43-.45.58-.29.39-.47.54-.29.39-.46.55-.42.25-.59.41-.33.34-.49.51c-.17.17-.47.21-.63.38-.17.18-.17.49-.33.66-.16.18-.41.28-.56.46-.16.19-.37.33-.51.5-.15.2-.23.44-.36.61-.15.2-.2.38-.32.55.23.06.34.37.58.42s.54-.18.77-.12.45.18.68.24.47.1.7.15.44.2.68.25.5-.05.74,0,.43.24.67.3.44.22.67.28.47.09.7.14.5-.06.74,0,.48.05.71.1.39.44.63.49.54-.23.78-.17.45.17.69.22.42.3.66.35.48.06.71.11.5-.05.74,0,.48.05.71.1.41.37.65.42.52-.12.75-.08.47.09.71.14.42.32.66.37.55-.3.79-.26.45.21.68.26.4.42.64.47.5-.05.74,0,.52-.16.76-.11.47.1.7.15.48.02.72.06.45.22.68.26.43.3.67.35.46.17.69.21.55-.31.78-.27.45.21.69.26.42.36.66.41.5-.07.74-.03.47.11.71.15.46.16.7.21.49,0,.72.05.5-.06.73-.02.47.12.7.16.48.03.72.07.42.38.66.42.5-.06.74-.02.49-.03.73.01.5-.07.74-.03.48.02.72.06.41.47.65.51.48.05.71.09.46.15.7.19.5-.09.74-.06.46.17.7.2.51-.16.75-.12.44.34.67.37.48.02.72.05.48.02.72.05.52-.26.76-.22.45.26.69.29.47.08.71.12.49-.01.72.02.44.37.67.4.51-.17.75-.14.47.13.71.16.5-.09.73-.06.44.38.68.41.49-.02.73,0,.48.01.72.04.47.1.71.12.51-.21.75-.18.44.39.68.41.5-.11.74-.09.49-.03.73,0,.5-.11.74-.09.47.13.71.16.46.18.7.21.48,0,.72.02.48.07.72.09.46.21.7.24.5-.19.74-.17.45.36.69.38.52-.34.76-.31.45.35.69.37.5-.21.74-.19.48.01.72.03.47.15.71.17.47.19.71.21.5-.16.74-.14.49-.06.73-.04.45.41.69.43.5-.18.74-.16.47.13.71.15.47.17.71.18.5-.3.74-.29.46.39.7.4.49-.07.73-.05.48.06.72.08.5-.34.75-.32.47.27.71.28.48.06.72.07.49-.19.73-.17.48.1.72.12.47.23.71.24.48-.03.73-.01.48-.02.73,0,.47.21.72.22.49-.11.73-.1.49-.22.73-.21.47.4.71.41.49-.05.73-.04.49-.13.73-.12.49-.12.73-.11.48.21.72.21.49-.15.73-.14.48.24.72.25.49-.25.73-.24.48.22.72.23.48-.03.73-.03.49-.12.73-.11.48-.01.73,0,.48.29.72.3.49-.14.73-.13.48.13.72.13.48.11.72.12.49-.4.73-.4.48.37.72.38.49-.34.73-.33.48.22.73.22.49-.2.73-.2.49.06.73.06.49.1.73.1.49.02.73.02.49.07.73.07.49.02.73.02c.24,0,.48.09.72.09s.48-.08.72-.08.48-.02.72-.03.48-.02.72-.02.48-.25.72-.26.48.07.72.06.49.27.73.26.47-.41.71-.42.48,0,.72,0,.48.02.72.02.49.32.73.31.48-.22.72-.22.49.22.73.21.47-.39.71-.4.48-.02.72-.03.49.23.73.22.47-.27.71-.28.5.4.74.4.47-.25.71-.26.48-.04.72-.05.49.09.73.07.47-.28.71-.29.48-.01.72-.02.48-.05.72-.07.49.13.73.12.49.07.73.06.49.07.73.05.47-.17.71-.19.47-.21.71-.22.48-.01.72-.03.49.19.73.17.48.03.72,0,.46-.28.7-.3.48-.05.72-.07.5.24.74.22.46-.34.7-.36.48-.03.72-.05.48.03.72.01.48-.03.72-.05.48-.03.72-.05.48.03.72.01.49.11.73.09.47-.17.71-.19.5.16.74.14.48.02.72,0,.46-.28.7-.3.46-.24.7-.26.48,0,.72-.02.52.36.76.34.45-.38.68-.41.51.23.74.2.45-.29.69-.32.47-.14.71-.17.5.17.74.14.48-.09.72-.11.48-.07.72-.1.5.15.74.13.44-.37.68-.4.5.16.74.13.45-.33.69-.35.48-.05.72-.08.5.09.73.06.46-.18.7-.21.51.19.75.16.44-.36.68-.4.53.31.76.28.47-.11.71-.14.45-.26.69-.29.5.14.74.11.45-.3.68-.33.51.21.75.17.44-.29.68-.33.52.21.75.17.42-.45.66-.48.51.16.75.12.46-.2.69-.24.51.16.75.12.49,0,.72-.04.46-.16.7-.2.46-.14.7-.18.45-.23.69-.27.5.11.74.07.49.01.73-.02.43-.35.67-.39.47-.08.71-.12.46-.18.69-.22.52.22.76.18.48-.05.71-.09.47-.11.7-.15.5.05.73,0,.43-.31.67-.35.47-.09.71-.14.49.03.73-.01.41-.44.64-.48.55.36.79.32.43-.33.66-.37.52.18.76.13.47-.12.7-.17.46-.16.69-.21.45-.2.69-.24.43-.32.66-.37.52.15.75.1.49.02.73-.02.47-.08.71-.13.41-.37.65-.42.45-.2.68-.25.5.07.74.03.49-.01.72-.06.49,0,.72-.05.47-.07.71-.12.45-.17.68-.22.48-.03.72-.08.42-.33.65-.38.5.06.74,0,.42-.31.66-.36.46-.13.69-.19.51.07.74.01.49,0,.72-.05.41-.36.64-.41.53.17.76.11.44-.2.67-.26.41-.35.64-.4.49,0,.72-.05.47-.08.7-.14.44-.2.67-.25.51.1.74.04.4-.35.63-.4.56.05.79,0c-.12-.18-.52-.26-.67-.47-.13-.18-.17-.44-.32-.64-.14-.18-.34-.31-.5-.5-.15-.17-.22-.42-.38-.6-.15-.17-.41-.25-.57-.43-.16-.17-.18-.47-.35-.64s-.42-.24-.59-.41-.36-.3-.54-.46-.21-.47-.39-.63-.33-.34-.52-.49-.51-.11-.7-.26-.2-.52-.39-.66-.48-.13-.68-.27-.28-.43-.48-.56-.53-.05-.73-.18-.31-.41-.52-.53-.52-.04-.73-.15-.37-.31-.59-.42Z"/><path class="uuid-de38ece6-76f6-4251-9273-24b4f4302195" d="m179.68,52.02c-.14-.16-.6-.36-.78-.55-.15-.16-.19-.45-.37-.63-.16-.16-.26-.41-.44-.58-.17-.16-.38-.28-.57-.45-.17-.15-.31-.37-.5-.53-.18-.15-.6,0-.8-.16s-.21-.5-.41-.64-.32-.37-.52-.51-.55-.03-.75-.16-.43-.2-.64-.32-.31-.41-.52-.52-.37-.32-.59-.43-.56.07-.78-.04-.41-.24-.63-.34-.38-.34-.6-.43c-.23-.09-.4-.36-.63-.44s-.53,0-.76-.08-.55.1-.78.03-.4-.44-.64-.5-.54.14-.78.09-.45-.28-.69-.32-.51.01-.74-.02c-.25-.04-.46-.36-.7-.39-.25-.03-.51.03-.75,0-.26-.02-.52.22-.75.21-.26-.01-.5-.11-.73-.11-.26,0-.48.1-.71.1-.23.07-.5-.06-.73.01s-.42.28-.65.35-.43.23-.66.3-.49.04-.72.11-.48.06-.71.13-.47.1-.7.16-.52-.07-.75,0-.43.24-.67.3-.45.18-.68.25-.47.09-.71.15-.46.14-.69.2-.47.1-.7.16-.38.45-.62.51-.57-.3-.8-.24-.47.11-.7.17-.39.44-.62.49-.51-.08-.75-.03-.49.01-.73.07-.43.27-.67.32-.49,0-.73.05-.41.36-.65.41-.54-.23-.77-.18-.43.28-.67.32-.49.01-.72.06-.42.37-.65.41-.48.04-.72.09-.54-.25-.77-.2-.41.41-.65.45-.51-.13-.75-.08-.49-.04-.73,0-.47.1-.71.15-.46.17-.7.21-.46.14-.7.18-.48.07-.71.11-.43.33-.67.37-.52-.18-.76-.14-.45.26-.69.3-.5-.08-.74-.04-.48.04-.72.07-.45.26-.69.29-.5-.09-.74-.06-.45.28-.69.31-.53-.31-.77-.28-.47.15-.71.18-.49-.02-.73,0-.43.47-.67.49-.51-.19-.75-.17-.45.27-.7.29-.51-.26-.75-.24-.47.17-.71.2-.48.05-.72.07-.49-.06-.73-.04-.49-.04-.73-.01-.47.14-.71.16-.47.14-.72.16-.46.29-.7.31-.49-.02-.73,0-.49-.06-.73-.04-.48.02-.73.04-.48,0-.73.01-.48.12-.72.13-.49-.19-.74-.17-.47.3-.71.31-.5-.33-.74-.32-.47.44-.71.45-.49.02-.73.03-.49-.17-.74-.16-.49.01-.73.02-.49-.19-.73-.18-.48.19-.72.2-.49-.21-.73-.2-.48.31-.73.32-.49-.12-.73-.12-.49-.02-.73-.02-.49-.04-.74-.03-.49.26-.74.26c-.24,0-.48-.37-.72-.37s-.48.08-.72.08-.48.32-.72.31-.48.03-.72.02-.47-.47-.71-.48-.48.06-.72.05-.48.09-.72.08-.49.19-.73.18-.48,0-.72,0-.47-.22-.71-.23-.49.13-.73.12-.47-.28-.71-.29-.49.17-.73.16-.48.03-.72.02-.46-.38-.7-.39-.49.12-.73.11-.48.03-.72.01-.47-.22-.7-.23-.51.39-.75.37-.45-.36-.69-.37-.47-.17-.71-.19-.5.27-.74.25-.49.06-.73.04-.47-.15-.71-.17-.48-.08-.72-.1-.46-.2-.7-.22-.49.03-.73,0-.46-.21-.7-.24-.49.03-.73,0-.5.11-.74.08-.45-.27-.69-.3-.47-.15-.7-.18-.54.39-.77.36-.48-.07-.71-.11-.44-.33-.68-.36-.49.01-.72-.02-.44-.3-.68-.33-.47-.09-.71-.13-.48-.02-.72-.05-.54.32-.77.28-.45-.25-.68-.29-.51.11-.74.07-.46-.16-.7-.2-.48-.02-.72-.06-.47-.1-.7-.14-.47-.12-.7-.16-.48-.04-.72-.08-.41-.44-.64-.48-.49.04-.73,0-.47-.11-.7-.16-.5.07-.74.02-.44-.24-.67-.29-.52.13-.75.08-.43-.29-.66-.34-.46-.13-.7-.18-.44-.25-.67-.31-.56.29-.79.24-.45-.21-.68-.26-.4-.41-.63-.46-.54.19-.77.13-.44-.23-.67-.28-.46-.14-.69-.2-.52.12-.75.06-.36-.51-.59-.57-.55.23-.78.17-.39-.38-.62-.44-.42-.28-.65-.34-.55.19-.78.13-.39-.37-.62-.43-.54.16-.77.09-.43-.24-.65-.3-.39-.36-.61-.43-.58.29-.81.23-.44-.17-.67-.24-.43-.22-.66-.29-.46,0-.68-.07c-.23,0-.44-.38-.7-.38-.23,0-.47.36-.73.37-.24.01-.51-.37-.76-.35-.24.02-.45.37-.7.39-.24.03-.52-.23-.77-.19s-.49.06-.74.11-.46.2-.7.26-.48.08-.73.14-.51.02-.75.09-.48.13-.72.21-.43.28-.67.36-.49.11-.72.2c-.23.09-.35.42-.57.51s-.4.27-.61.37-.51.04-.72.15-.42.23-.63.34-.4.27-.6.39-.57,0-.77.13-.16.63-.35.77-.64-.06-.83.08-.28.44-.46.58-.32.38-.49.53c-.19.16-.36.32-.54.47-.18.16-.38.3-.55.46-.18.17-.52.17-.68.33-.18.18-.23.47-.38.63-.17.19-.29.39-.43.55.23.05.49-.07.73-.01s.47.07.7.12.45.17.68.22.48.02.72.06.38.53.61.58.54-.25.77-.21.4.41.64.46.48,0,.72.05.44.24.67.28.49,0,.72.04.51-.12.74-.08.44.25.67.3.48.03.71.07.48.02.72.06.49-.02.72.02.43.3.66.35.46.13.7.17.48.01.72.06.44.23.68.28.49-.05.73,0,.44.25.68.29.52-.23.76-.19.45.2.69.24.46.14.7.18.52-.23.75-.19.43.33.66.37.48,0,.72.03.47.06.71.1.44.25.68.28.47.05.71.08.45.18.69.21.54-.36.77-.33.44.28.68.31.48,0,.72.03.49-.06.73-.03.45.23.69.26.48,0,.72.03.47.1.7.13.47.05.71.08.45.25.69.28.47.07.71.1.49-.04.72,0,.44.3.68.33.51-.25.75-.22.45.23.69.26.47.08.71.1.48-.01.72.01.48.04.71.07.46.17.7.2.51-.29.75-.27.45.25.69.28.45.28.69.3.52-.35.76-.33.47.14.7.17.45.33.69.35.49-.13.73-.11.47.07.71.09.5-.19.74-.17.46.18.7.2.48-.04.72-.02.47.1.71.12.45.3.69.32.47.05.71.07.51-.37.75-.35.47.11.71.13.48-.04.72-.02.46.25.7.26.48.05.71.07.49-.12.73-.11.48-.02.72,0,.46.33.7.34.47.1.71.11.49-.2.73-.19.47.12.71.13.47.17.71.18.48.02.72.03.49-.09.73-.08.49-.23.73-.21.48.05.72.06.47.12.71.13.47.17.71.18.48-.02.72-.01.49-.23.73-.22.47.26.71.27.48-.03.72-.03.48.11.72.12.48-.08.72-.08.48-.08.72-.07.48.15.72.16.48.13.72.14.49-.26.73-.25.48.14.72.15.48-.05.72-.05.48.04.72.04.48-.12.72-.12.48.27.72.28.48-.07.73-.06.48.07.73.07.49-.28.73-.28c.24,0,.48.2.72.2s.48.02.72.02.48-.23.72-.23.48.29.72.29.48-.1.72-.1.48-.27.72-.27.49.33.73.32.48.03.72.02.48-.28.72-.28.48-.04.72-.04.48.02.72.02.48-.1.72-.11.48.05.72.05.49.26.73.25.48-.04.72-.04.48-.22.72-.22.48-.08.72-.09.49.23.73.22.49.09.73.08.48-.15.72-.16.48-.05.72-.06.48-.02.72-.03.47-.28.71-.29.49.1.73.09.48.03.72.01.48-.11.72-.12.49.18.73.17.47-.24.71-.26.48-.11.72-.13.49.04.73.02.48-.02.72-.03.5.22.74.2.48,0,.72-.02.46-.37.7-.39.48-.05.72-.07.5.26.74.24.49.09.73.07.45-.47.69-.48.48.01.72,0,.5.22.74.2.49.02.73,0,.45-.36.69-.38.51.31.75.29.44-.45.68-.47.52.41.76.38.48-.08.72-.1.47-.15.71-.17.45-.39.68-.41.51.3.75.28.46-.23.7-.25.5.1.73.08.47-.12.71-.15.5.17.74.14.47-.14.71-.17.48,0,.72-.04.43-.43.67-.46.49.06.73.04.46-.18.7-.21.52.27.76.24.44-.37.68-.4.52.28.76.25.43-.42.67-.45.47-.1.71-.13.49.01.72-.02.52.26.76.23.43-.36.67-.4.49.05.73.02.47-.13.7-.17.51.16.75.12.43-.36.67-.4.51.14.75.1.48-.05.72-.09.44-.31.68-.34.48-.01.72-.05.52.21.76.17.46-.17.7-.21.46-.15.7-.19.47-.08.71-.12.47-.13.7-.17.47-.13.7-.17.5.08.74.04.44-.29.67-.33.52.2.76.16.41-.45.64-.5.46-.13.7-.17.55.36.79.32.4-.5.63-.54.52.16.75.11.45-.19.69-.24.48-.07.71-.11.47-.11.7-.15.44-.26.67-.31.47-.09.7-.14.48-.05.71-.1.51.1.74.05.41-.37.64-.42.48-.03.71-.08.45-.16.68-.21.52.17.76.12.49.04.72-.01.65-.19.87-.24Z"/><path class="uuid-05d5db11-7271-4a4d-9447-d83420679977" d="m162.35,44.13c-.1-.22-.46-.48-.57-.69s-.17-.45-.27-.67-.07-.5-.18-.71-.24-.42-.36-.63-.32-.38-.43-.59-.07-.51-.19-.72-.21-.44-.32-.65-.46-.29-.58-.5-.2-.44-.32-.65-.15-.47-.27-.68-.49-.26-.61-.46-.2-.44-.33-.64-.24-.42-.37-.62-.24-.42-.37-.61-.07-.54-.21-.73-.6-.16-.74-.36.05-.63-.09-.83-.56-.18-.7-.37-.02-.59-.17-.78-.31-.37-.45-.56-.51-.2-.66-.39-.3-.37-.45-.56-.3-.37-.45-.56-.42-.27-.57-.45-.26-.41-.42-.59-.2-.47-.36-.64-.43-.26-.59-.43-.22-.45-.39-.62-.24-.44-.41-.61-.51-.17-.68-.34-.34-.34-.51-.51-.25-.43-.42-.6-.55-.11-.73-.27-.37-.3-.55-.46-.14-.56-.32-.72-.41-.26-.59-.41-.36-.32-.54-.47-.37-.3-.56-.46-.44-.22-.63-.36-.28-.42-.47-.57-.37-.31-.56-.45-.56-.05-.76-.19-.21-.53-.4-.67-.4-.27-.59-.41-.45-.19-.65-.33-.33-.37-.52-.51-.37-.31-.57-.44-.54-.05-.74-.18-.33-.38-.53-.5-.35-.35-.55-.48-.57.02-.78-.1-.4-.26-.61-.38-.36-.34-.57-.45-.31-.43-.52-.54-.57.05-.78-.06-.37-.32-.58-.43-.34-.39-.56-.49-.51-.04-.73-.14-.48-.09-.7-.19-.42-.22-.64-.32-.42-.22-.64-.32-.35-.4-.57-.49-.43-.21-.65-.3-.49-.06-.71-.15-.41-.27-.63-.35-.51,0-.74-.08-.38-.37-.6-.45-.45-.16-.68-.24-.47-.1-.7-.17-.49-.04-.72-.11-.47-.11-.7-.17-.39-.36-.62-.43-.52.09-.75.03-.5.03-.73-.03-.41-.31-.65-.37-.51.06-.74,0-.48-.02-.72-.07-.38-.51-.62-.56-.52.14-.75.09-.45-.21-.68-.25-.5.06-.73.02-.46-.12-.7-.15-.44-.33-.67-.36-.5.11-.74.08-.46-.2-.7-.23-.47-.09-.71-.12-.51.33-.75.31-.45-.35-.69-.37-.48,0-.72-.01-.48-.09-.72-.11c-.24-.01-.48-.09-.72-.1s-.49.22-.73.21-.48.19-.72.19-.48-.06-.72-.06-.48.02-.72.02-.48-.03-.72-.03-.47.11-.71.12-.49-.37-.73-.36-.47.18-.71.19-.47.14-.71.16-.47.14-.71.16-.51-.33-.75-.31-.48,0-.72.02-.44.37-.68.4-.52-.27-.75-.24-.47.13-.7.17-.49-.02-.73.01-.45.22-.69.26-.49,0-.72.04-.42.35-.66.4-.49,0-.72.04-.42.3-.66.35-.5-.06-.74,0-.53-.15-.76-.09-.47.12-.7.18-.42.27-.66.34-.5,0-.73.07-.46.14-.69.21-.46.13-.69.21-.43.23-.66.31-.47.1-.7.17-.4.31-.63.39-.46.12-.69.21-.43.22-.65.31-.48.09-.7.17-.46.14-.68.23-.44.19-.66.28-.43.21-.65.3-.37.34-.59.44-.49.08-.71.18-.43.22-.64.32-.34.39-.56.5-.58-.08-.79.03-.24.58-.45.7-.54,0-.75.12-.5.08-.71.2-.22.58-.43.7-.59-.07-.8.05-.42.24-.62.37-.39.28-.6.4-.28.45-.48.58-.34.36-.54.49-.48.14-.68.27-.32.38-.52.51-.4.26-.59.4-.53.08-.72.22-.44.22-.63.36-.43.22-.62.37-.23.49-.42.64-.51.13-.7.28-.29.41-.47.56-.31.38-.49.53-.37.31-.55.46-.4.27-.58.43-.5.16-.67.32-.17.53-.35.69-.3.38-.47.55-.41.27-.58.43-.37.31-.54.48-.42.26-.58.43-.35.33-.51.5-.31.37-.47.54-.17.5-.33.67-.33.34-.49.52-.4.29-.55.47-.41.28-.56.46-.28.39-.43.57-.35.33-.5.52-.06.57-.21.75-.39.3-.54.49-.48.23-.63.42-.36.33-.5.53.06.64-.08.83-.52.22-.66.41-.08.52-.22.72-.3.37-.44.57-.37.33-.5.53-.22.43-.35.63-.3.37-.43.58-.35.35-.48.55-.2.44-.33.64-.15.47-.27.68-.22.42-.34.63-.13.47-.24.68-.32.37-.43.58-.42.32-.53.54-.05.51-.16.73-.04.51-.14.73-.26.29-.36.51c.23.07.33.2.56.27s.49.02.72.09.48.04.71.11.36.45.59.51.48.06.71.13.42.27.65.34.48.04.71.11.51-.05.74.02.4.35.63.41.48.04.71.1.42.28.65.34.56-.27.8-.21.4.34.64.4.47.08.7.14.41.31.65.37.48.07.71.12.47.1.7.15.44.21.68.26.56-.3.79-.25.45.17.68.23.48.04.71.09.41.35.64.4.45.19.68.24.46.12.69.17.51-.13.75-.08.46.11.7.16.47.08.7.13.47.1.7.14.48.02.72.06.4.45.64.49.48.06.71.1.53-.27.77-.23.43.29.67.33.46.16.69.2.49-.05.73-.01.47.07.71.11.46.15.7.19.5-.08.73-.04.49-.05.73-.01.42.46.65.49.52-.23.75-.2.46.19.69.23.48,0,.72.04.46.15.7.18.5-.14.74-.11.46.15.7.17.49-.06.73-.04.45.23.69.26.48.02.72.04.46.2.7.23.5-.19.74-.16.46.25.7.27.49-.15.73-.12.45.37.69.39.5-.27.74-.25.47.09.71.11.47.17.71.19.49-.07.73-.06.48-.04.72-.02.47.17.71.19.49-.19.73-.18.46.28.7.3.48.08.72.09.48.07.72.09.49-.1.73-.09.48.08.72.09.48.13.72.14.48.03.72.04.49-.38.73-.38.47.42.71.43.48-.08.73-.08.48.12.72.12.49-.16.73-.15.48-.03.73-.02.49-.14.73-.14.49.3.73.3c.24,0,.48-.03.72-.03s.48-.1.72-.1.48-.28.72-.28.48.33.72.32.48-.16.72-.16.48.22.72.21.48-.03.72-.03.47-.3.71-.31.49.23.73.22.47-.26.71-.27.48.14.72.13.48-.06.72-.07.47-.13.71-.14.5.32.73.31.48-.07.71-.09.47-.25.7-.26.48-.07.71-.09.49.1.72.08.47-.08.71-.1.48,0,.72-.01.46-.26.7-.28.48-.03.71-.05.5.26.74.24.45-.29.69-.32.49.11.73.08.45-.3.69-.32.48-.02.72-.04.48-.04.72-.07.48,0,.72-.02.49.02.72,0,.47-.1.71-.13.49.06.73.03.47-.07.71-.11.47-.1.71-.13.46-.15.7-.18.52.23.75.2.45-.26.68-.29.46-.13.7-.17.5.11.74.08.48,0,.72-.05.47-.07.71-.11.44-.29.67-.33.45-.24.68-.28.46-.14.7-.18.55.36.78.32.47-.1.7-.15.45-.18.69-.22.46-.12.7-.16.42-.33.66-.38.46-.12.7-.16.49.03.73-.02.5.06.73.01.49,0,.72-.05.46-.15.69-.2.39-.43.63-.48.54.2.77.15.48-.06.71-.11.47-.11.7-.16.43-.24.67-.3.46-.15.69-.2.43-.26.66-.32.45-.17.68-.23.55.23.78.17.41-.32.64-.38.49,0,.72-.06.5.02.73-.04.39-.4.61-.46.54.15.77.09.48-.07.7-.13.38-.42.6-.48.42-.25.65-.32.48-.04.71-.11.42-.26.64-.32.46-.12.68-.19.48-.04.7-.11.46-.1.69-.17.66.02.88-.05Z"/><path class="uuid-32728762-f438-4232-8e40-4fcd59bb41b2" d="m27.66,61.46c.12.21.24.47.4.65s.41.32.6.48.57.04.77.17.31.43.53.53.45.2.68.27.52-.1.76-.05.45.18.69.21.48.04.72.05.48.02.72,0,.49,0,.72-.02.47-.14.7-.19.43-.22.66-.29.54.1.76.01c.22-.09.44-.19.66-.31s.37-.33.58-.45.56-.04.76-.18.17-.57.35-.73.39-.28.56-.45.4-.29.55-.47.3-.38.44-.58.23-.43.35-.64.07-.49.16-.71.5-.34.56-.57-.15-.52-.13-.76-.05-.45-.07-.7-.05-.44-.11-.68c-.06-.23.12-.52.03-.73s-.18-.44-.31-.64-.23-.42-.38-.6-.5-.15-.68-.31-.35-.28-.54-.42-.4-.2-.6-.31-.23-.56-.45-.65-.55.13-.77.05-.34-.48-.57-.54-.46-.16-.69-.2-.5.12-.73.1-.47-.14-.7-.14-.47.09-.7.11-.46.11-.69.15-.5-.05-.72.01-.42.25-.63.34c-.23.09-.37.34-.59.46s-.51.1-.71.24-.3.41-.49.57-.3.37-.48.55-.6.12-.76.31-.1.55-.24.75-.38.34-.5.55.02.55-.08.77-.51.32-.58.56.12.54.06.78-.2.46-.23.7-.28.49-.27.74.16.5.21.74.04.52.12.75.16.5.28.71Z"/><path class="uuid-86061215-2258-45b7-8cde-316a8f19dd86" d="m29.73,57.17c.09.23.06.56.23.74.16.17.43.28.65.41.2.12.44.23.68.31.22.08.45.24.7.29s.51-.03.76-.02.5,0,.74-.03.52.07.76,0,.41-.35.64-.45.55-.04.75-.18c.19-.13.22-.47.39-.63s.31-.32.46-.51.26-.37.38-.57.25-.39.33-.6.32-.41.35-.64-.06-.49-.08-.71-.01-.5-.12-.71c-.11-.23-.4-.34-.57-.52s-.27-.47-.5-.59-.47-.23-.71-.3-.53.1-.78.07-.49-.18-.74-.17-.52-.05-.77,0-.43.34-.67.42-.48.13-.69.25c-.21.11-.54.07-.74.22s-.34.38-.51.55-.4.33-.54.53.04.6-.06.81-.6.31-.66.54c-.06.24-.11.55-.1.79s.35.46.44.69Z"/><path class="uuid-31bb79a4-f1da-407a-af04-748f4c6a6308" d="m27.59,61.45c.11.18.37.42.57.65.15.18.3.45.52.63.18.16.55.09.75.21s.4.27.61.37.4.33.63.4.47.18.7.23.53-.3.77-.27.46.09.7.09.48.14.72.12.46-.21.69-.25.52.14.75.08.49-.07.72-.14c.24-.07.39-.36.6-.45.22-.09.39-.27.61-.38s.59.09.8-.04.35-.36.55-.5.49-.16.68-.31.4-.3.57-.47.19-.5.35-.68.27-.4.41-.6.17-.45.29-.66.2-.42.29-.65.38-.38.44-.62.14-.48.16-.72c.03-.27-.11-.54-.12-.77-.02-.29.06-.6.02-.8-.02.09-.33.33-.44.66-.06.19.14.51.03.75-.08.2-.53.24-.64.46-.1.19-.07.46-.2.67-.11.19-.22.39-.36.59-.13.18-.24.39-.39.57s-.4.24-.57.41-.17.47-.35.63-.4.23-.59.37-.38.24-.58.37-.35.31-.56.42-.5,0-.72.09c-.23.1-.37.38-.59.45s-.46.14-.69.2-.51-.15-.74-.11-.45.19-.69.21-.48.14-.72.14-.5.09-.73.06c-.24-.03-.45-.29-.68-.34-.24-.05-.54.17-.76.11-.24-.06-.39-.42-.61-.49-.24-.08-.5-.07-.71-.15-.25-.1-.38-.38-.56-.47-.34-.17-.87-.06-.93-.1Z"/><path class="uuid-32728762-f438-4232-8e40-4fcd59bb41b2" d="m189.27,61.38c-.12.21-.2.45-.36.63s-.26.44-.44.6-.34.4-.55.53-.56,0-.78.09-.44.17-.68.25-.47.09-.71.14-.44.34-.68.36-.49.14-.73.14-.49-.3-.73-.31-.52.27-.76.24-.49-.13-.72-.18-.46-.23-.68-.29-.49-.1-.71-.19c-.22-.09-.51-.09-.72-.2s-.3-.46-.51-.59-.34-.34-.54-.49-.54-.09-.73-.25-.24-.46-.41-.63-.56-.16-.71-.34-.14-.52-.28-.72-.45-.31-.56-.52.16-.62.06-.84-.26-.4-.33-.63-.42-.42-.45-.66-.02-.52,0-.76.4-.43.46-.67c.06-.23.04-.46.14-.67s.1-.47.23-.67.42-.25.58-.43.31-.32.48-.47.35-.27.54-.41.3-.37.5-.49.34-.37.55-.46.5-.01.72-.09.43-.17.66-.23.43-.21.66-.25.46-.15.69-.17.48.21.71.21.47-.14.7-.12.47.05.7.1.4.31.62.38.56-.2.78-.11c.23.09.43.27.65.39s.36.36.56.5.52.13.71.29.18.54.35.71.57.16.72.34.03.6.16.8.47.29.59.5.24.44.34.66-.12.57-.04.8.19.44.24.67.38.43.4.67-.17.5-.18.74.29.53.25.77-.12.51-.21.74-.44.35-.56.57Z"/><path class="uuid-86061215-2258-45b7-8cde-316a8f19dd86" d="m187.48,57.23c-.09.23-.32.36-.49.54-.16.17-.2.52-.42.66-.2.12-.5.11-.74.2-.22.08-.45.21-.7.25s-.49.22-.74.23-.49-.35-.73-.38-.45-.14-.69-.2-.62.3-.85.2-.35-.43-.56-.56c-.19-.13-.53-.11-.7-.27s-.06-.58-.2-.77-.27-.36-.38-.56-.54-.28-.62-.49.21-.55.18-.77-.38-.47-.35-.7.21-.47.31-.68c.11-.23.19-.54.36-.72s.47-.28.69-.4.45-.29.7-.37.52-.08.77-.11.51.3.76.31.47.06.72.1.52-.07.75.01.47.16.69.28c.21.11.41.25.61.4s.55.14.72.32.28.44.42.64.19.48.3.69.14.48.2.71c.06.24.09.48.09.72s0,.5-.08.72Z"/><path class="uuid-31bb79a4-f1da-407a-af04-748f4c6a6308" d="m189.25,61.38c-.11.18-.18.43-.38.66-.15.18-.32.39-.54.58-.18.16-.45.2-.65.33s-.32.43-.54.53-.44.24-.67.31-.5.04-.73.09-.48.12-.72.15-.49-.22-.73-.22-.47,0-.71-.02-.47-.06-.7-.1-.49.02-.72-.03-.55.15-.77.08c-.24-.07-.43-.29-.64-.38-.22-.09-.4-.29-.62-.4s-.33-.37-.55-.49-.56,0-.76-.15-.23-.49-.42-.65-.46-.2-.63-.37-.29-.39-.45-.57-.51-.22-.65-.42-.29-.41-.4-.63.12-.59.03-.81-.46-.36-.52-.59-.04-.49-.06-.74c-.03-.27-.18-.55-.17-.78.02-.29.39-.47.43-.67.02.09-.14.3-.02.64.06.19.14.41.25.65.08.2.3.36.41.58.1.19.13.44.26.65.11.19.36.31.5.5.13.18.12.48.27.67s.31.35.47.52.26.41.44.57.46.17.65.32.4.23.6.36.42.18.64.29.38.27.6.36c.23.1.44.23.66.3s.45.25.67.3.54-.28.78-.24.45.37.68.38.5.15.73.14.47-.37.7-.39c.24-.03.5.07.73.03.24-.05.44-.25.66-.3.24-.06.54.07.75,0,.24-.08.44-.26.64-.34.25-.1.44-.26.62-.35.34-.17.51-.29.57-.33Z"/><path class="uuid-32728762-f438-4232-8e40-4fcd59bb41b2" d="m142,66.8c-.06.24-.19.41-.28.63s.18.64.04.84-.55.19-.71.37-.21.47-.39.63-.43.23-.63.37-.45.18-.66.29-.34.42-.56.51-.43.28-.66.36-.52-.04-.76.01-.51-.13-.75-.09-.46.09-.7.11-.47.23-.71.23-.5.11-.74.08c-.24-.02-.51.04-.75,0s-.42-.35-.66-.41-.47-.11-.7-.2-.53,0-.75-.11-.25-.58-.46-.7-.39-.26-.59-.39-.66.08-.85-.07-.22-.5-.39-.66-.35-.34-.5-.53-.4-.32-.52-.53-.25-.44-.34-.66-.12-.48-.17-.72-.06-.48-.07-.73c0-.23.05-.46.08-.69s.22-.41.28-.64-.17-.56-.07-.77.21-.44.33-.64.55-.18.7-.36.13-.49.3-.66.44-.2.62-.35.23-.46.42-.6.46-.14.67-.26.27-.49.48-.59.48-.1.7-.18.46-.11.68-.18.48.02.71-.02.45-.12.68-.15.46-.1.69-.1.47-.04.71-.02c.24.03.45.27.69.32s.56-.17.79-.1.41.33.63.43.36.37.57.49.38.28.58.42.48.16.67.31.56.12.73.3.12.56.28.75.45.28.59.48.29.41.41.62.07.52.16.74.28.42.34.66.15.48.17.72-.13.49-.15.74-.13.45-.19.69Z"/><path class="uuid-86061215-2258-45b7-8cde-316a8f19dd86" d="m139.21,63.35c-.02.24-.28.39-.39.61-.11.21-.06.51-.23.7-.16.18-.22.5-.43.65-.19.14-.62-.08-.84.03s-.36.36-.59.44-.44.3-.68.34-.51-.05-.76-.04-.47-.15-.72-.18-.54.17-.77.1c-.22-.07-.42-.21-.63-.32s-.42-.21-.61-.35-.2-.47-.36-.64-.62-.08-.76-.27.02-.57-.07-.78-.15-.41-.19-.63-.19-.44-.15-.67c.04-.25.08-.51.2-.73s.37-.34.55-.52c.17-.17.28-.44.5-.58s.52-.07.75-.17.47-.08.72-.14.43-.43.67-.45.52.04.76.05.45.33.69.38c.23.05.51-.1.74,0s.33.39.55.51.63-.07.82.09.27.45.43.63.43.31.55.52c.13.22.03.53.1.75s.17.45.15.7Z"/><path class="uuid-31bb79a4-f1da-407a-af04-748f4c6a6308" d="m142.38,66.86c-.06.2-.29.47-.42.74-.1.22-.36.37-.52.61-.13.2-.09.54-.24.72s-.33.38-.51.53-.56.05-.76.18-.25.52-.47.63-.43.24-.66.33-.49.1-.72.17-.48.11-.71.15-.5-.05-.73-.02-.47.18-.71.2-.48-.25-.72-.26c-.25,0-.5.31-.73.29-.23-.02-.48-.04-.73-.09s-.48-.09-.72-.15-.4-.36-.63-.43-.54.06-.77-.03-.4-.31-.61-.42-.44-.22-.64-.35-.26-.46-.45-.61-.35-.31-.52-.48-.32-.33-.47-.52-.6-.18-.72-.39.03-.56-.06-.78c-.1-.26-.04-.52-.1-.74-.07-.29-.53-.54-.55-.74.04.08.34.38.55.67.11.16.29.32.46.52.13.16.17.45.34.63.15.16.47.18.64.34.16.15.29.36.47.51.17.14.51.06.71.2s.26.42.47.54.44.15.65.25.44.12.66.2.32.48.55.55.49-.03.72.02.44.21.68.24c.24.03.5-.04.74-.03s.48-.24.71-.26.47-.07.7-.1.5.08.73.03.43-.24.65-.31.43-.19.65-.28c.23-.09.43-.19.64-.3.22-.11.43-.19.63-.31.22-.13.53-.08.72-.21.21-.15.42-.28.59-.41.21-.17.51-.21.66-.35.28-.26.49-.62.54-.67Z"/><path class="uuid-32728762-f438-4232-8e40-4fcd59bb41b2" d="m70.71,66.62c.06.24,0,.53.1.75s.49.28.63.49.03.59.19.77.45.24.64.4.36.32.57.46.34.4.56.51.46.2.68.29.57-.15.8-.08.45.14.69.2.46.12.7.16.46.16.7.18.48-.16.72-.16.51.46.75.43c.24-.02.44-.35.68-.4s.48-.05.72-.11.43-.22.66-.3.4-.26.62-.36.57.07.79-.05.33-.4.53-.54.33-.36.52-.51.31-.35.49-.52.54-.15.69-.34.27-.41.39-.62.35-.38.44-.6.07-.5.13-.74.28-.47.29-.72c0-.23-.19-.48-.22-.71s.01-.49-.05-.72-.27-.4-.37-.62-.32-.35-.44-.55-.2-.41-.35-.6-.22-.42-.39-.59-.22-.46-.4-.61-.41-.25-.61-.39-.48-.12-.68-.24-.35-.35-.56-.45-.52.03-.74-.05-.37-.37-.59-.44-.49.03-.72-.01-.46-.02-.69-.04-.45.09-.69.09-.47-.25-.7-.23c-.24.03-.5,0-.74.05s-.45.22-.69.29-.47.16-.69.26-.51.09-.73.21-.27.49-.48.63-.48.17-.67.33-.46.23-.63.4-.1.57-.26.76-.42.29-.55.49-.44.31-.56.53.04.56-.06.79-.25.42-.31.66-.1.47-.12.71.01.48.03.72-.08.5-.03.74Z"/><path class="uuid-86061215-2258-45b7-8cde-316a8f19dd86" d="m73.56,63.13c.02.24.05.55.17.77.11.21.38.36.55.55.16.18.37.32.57.47.19.14.49.11.71.23s.36.39.59.47.51-.02.75.02.47.05.71.06.5.26.74.22.54.02.77-.06c.22-.07.36-.37.57-.48s.32-.33.51-.47.41-.21.58-.37.3-.35.43-.53.32-.35.42-.55.38-.4.42-.63-.22-.49-.26-.72c-.04-.25-.14-.46-.26-.68s-.29-.37-.47-.55c-.17-.17-.23-.5-.44-.64s-.52-.09-.75-.19-.42-.3-.67-.36-.51.02-.76,0-.49.13-.73.14-.53-.27-.77-.21c-.23.05-.5.07-.73.17s-.28.53-.49.65-.38.26-.57.41-.64.02-.8.2-.24.47-.36.67c-.13.22-.25.45-.31.67s-.15.51-.12.75Z"/><path class="uuid-31bb79a4-f1da-407a-af04-748f4c6a6308" d="m70.65,66.62c.06.2.37.38.49.66.1.22-.09.62.07.86.13.2.3.41.46.59s.58.1.76.26.24.47.44.6.4.29.61.4.54-.04.76.05.32.53.55.6.52-.06.75-.01.45.26.69.3.49.08.73.09.49-.33.73-.34c.25,0,.51.38.74.36.23-.02.48-.12.72-.16s.48-.09.72-.15.34-.54.57-.62.44-.15.66-.25.58.11.8,0,.27-.49.47-.62.48-.14.67-.29.25-.43.42-.6.61-.1.76-.29.26-.43.38-.65.13-.48.22-.71c.1-.26.32-.47.37-.69.07-.29-.05-.59-.03-.79-.04.08-.18.31-.38.6-.11.16-.4.23-.57.43-.13.16-.31.3-.48.48-.15.16-.2.42-.38.59-.16.15-.4.21-.59.36-.17.14-.29.36-.49.49s-.23.51-.43.63-.54-.04-.76.06-.37.31-.59.39-.45.11-.68.17-.42.26-.65.3-.47,0-.71.03c-.24.03-.5-.23-.73-.22s-.47.08-.71.07-.46-.14-.69-.17-.5.08-.73.03-.55.14-.77.07-.32-.55-.53-.64c-.23-.09-.56.07-.77-.04-.22-.11-.39-.31-.59-.42-.22-.13-.37-.33-.56-.46-.21-.15-.46-.21-.64-.35-.21-.17-.39-.33-.54-.47-.28-.26-.52-.46-.57-.51Z"/><path class="uuid-de38ece6-76f6-4251-9273-24b4f4302195" d="m149.77,26.41c-.15-.15-.36-.06-.54-.24-.16-.16-.02-.65-.21-.82-.17-.16-.42-.24-.61-.41-.17-.16-.27-.41-.46-.57-.17-.16-.48-.17-.67-.33-.18-.15-.5-.14-.69-.3-.18-.15-.24-.45-.43-.61s-.48-.17-.67-.32-.2-.51-.39-.66-.41-.26-.6-.41-.44-.21-.64-.36-.28-.43-.47-.57-.31-.39-.51-.54-.5-.13-.7-.27-.53-.08-.73-.22-.26-.47-.46-.61-.32-.38-.53-.52-.42-.24-.63-.37-.53-.06-.74-.19-.26-.48-.47-.61-.57.03-.78-.09-.46-.16-.67-.28-.21-.61-.42-.72-.64.17-.85.05-.25-.54-.47-.65-.39-.28-.61-.39-.41-.26-.62-.37-.5-.07-.72-.18-.37-.34-.59-.44-.61.18-.83.08-.45-.17-.67-.26-.31-.49-.54-.58-.45-.18-.67-.28-.43-.23-.65-.32-.49-.08-.71-.16-.44-.21-.66-.3-.43-.21-.66-.29-.52.04-.75-.04-.47-.1-.7-.18-.48-.06-.71-.13-.41-.29-.64-.36-.46-.14-.69-.21-.51.04-.74-.03-.43-.25-.67-.31-.47-.1-.71-.16-.43-.27-.67-.33-.52.1-.76.05-.45-.21-.68-.26-.47-.11-.71-.15-.47-.13-.7-.17-.49,0-.73-.04-.48-.05-.72-.08-.5.06-.74.03-.43-.39-.67-.42-.49.04-.74.01-.48-.12-.72-.15-.48-.12-.72-.14-.5.13-.75.12c-.2-.02-.44-.13-.7-.14-.22-.01-.46.07-.71.06-.22-.01-.46.15-.71.14-.23,0-.46-.06-.71-.07-.23,0-.46-.27-.71-.28-.23,0-.47-.09-.71-.09-.23,0-.47.23-.71.24s-.48-.27-.72-.26-.46.22-.71.23-.46.23-.7.25-.5-.35-.74-.34-.44.43-.68.45-.48-.06-.72-.04-.46.14-.69.16-.49-.13-.72-.1-.49-.16-.73-.13-.43.31-.67.35-.44.23-.68.26-.52-.29-.76-.25-.45.18-.69.23-.43.27-.67.31-.48,0-.72.04-.49-.04-.73,0-.45.16-.68.22-.48.01-.72.07-.39.42-.62.48-.47.08-.7.14-.44.2-.67.26-.53-.12-.76-.05-.4.31-.63.38-.44.16-.67.23-.55-.17-.78-.09-.39.33-.62.4-.5,0-.73.08-.47.11-.69.2-.39.32-.61.41-.53-.06-.76.03-.31.5-.54.59-.47.12-.69.21-.5.05-.72.15-.32.46-.53.56-.43.2-.65.3-.46.13-.68.23-.56-.06-.78.05-.31.45-.52.56-.39.29-.6.4-.49.1-.7.21-.4.27-.61.39-.58-.04-.79.08c-.21.12-.4.27-.61.39s-.3.44-.51.56-.53.06-.73.18-.28.46-.48.59-.44.2-.64.33-.29.44-.49.57-.62-.06-.82.08-.15.62-.35.76-.43.22-.63.36-.61-.02-.8.12-.12.64-.31.78-.53.1-.71.25-.31.39-.49.53-.54.09-.73.24-.23.48-.41.63-.37.3-.55.45-.27.42-.44.58-.49.17-.66.33-.31.37-.49.53-.32.35-.5.52-.27.41-.44.57-.39.28-.56.45-.47.21-.63.38-.34.33-.51.51-.26.41-.43.58-.47.22-.63.4-.03.62-.19.79-.47.22-.63.4-.4.29-.55.47-.43.27-.58.45-.04.59-.19.78-.35.33-.5.52-.5.22-.65.4-.27.4-.41.59-.29.38-.43.57-.14.49-.28.68-.25.41-.39.6-.29.38-.42.58-.5.24-.63.44-.19.45-.32.65-.21.44-.34.63-.15.48-.27.68-.42.31-.54.51-.17.46-.28.67-.24.42-.36.62-.23.42-.34.63c-.12.21-.1.49-.21.69-.12.21-.54.26-.65.46-.12.22.02.56-.09.76-.11.22-.17.45-.28.66-.11.22-.19.44-.29.64-.11.23-.39.51-.49.71.14-.17.34-.51.5-.7.15-.17.49-.19.65-.38.15-.17.31-.35.48-.53.15-.17.29-.37.45-.55.16-.17.17-.48.34-.66.16-.17.4-.27.57-.44s.13-.53.3-.7.51-.17.68-.34.14-.53.31-.71.44-.23.61-.4.54-.12.72-.29.18-.5.36-.66.37-.3.55-.46.37-.3.55-.47.42-.24.6-.41.39-.28.57-.43.22-.48.4-.64.49-.16.68-.31.34-.34.52-.49.35-.32.54-.47.41-.25.6-.4.24-.47.43-.62.31-.39.5-.53.43-.22.62-.37.33-.35.53-.5.35-.33.55-.48.58,0,.78-.14.28-.42.48-.56.45-.19.65-.32.28-.43.48-.56.46-.17.66-.3.34-.35.54-.48.61.07.81-.06.34-.36.54-.49.29-.44.5-.56.45-.18.66-.3.42-.23.63-.35.43-.2.64-.32.41-.25.62-.37.36-.34.57-.46.43-.21.65-.32.58.07.79-.04.41-.24.63-.35.44-.18.66-.29.27-.53.49-.63.38-.33.59-.43.63.21.85.11.35-.39.57-.49.46-.14.68-.24.45-.16.67-.25.4-.29.62-.38.44-.19.66-.28.39-.31.62-.4.52.03.75-.06.51,0,.74-.08.44-.19.66-.28.44-.2.66-.28.38-.37.61-.44.49-.05.72-.12.5-.01.73-.08.43-.23.66-.3.47-.09.71-.16.48-.06.71-.13.41-.33.64-.4.41-.34.64-.4.48-.08.71-.14.53.11.76.05.41-.37.64-.42.47-.13.71-.18.47-.12.71-.17c.23-.05.52.14.75.09s.45-.2.68-.25.45-.19.69-.23.53.21.76.17.44-.27.68-.3.45-.25.68-.29.48-.07.71-.11.5.12.74.09.49.04.73,0,.5.12.73.09.47-.11.71-.13.48-.02.72-.05.44-.45.68-.47.51.39.75.37.46-.3.7-.31.49.08.73.07.47-.26.71-.27.48.01.72,0,.48,0,.72,0,.48-.06.72-.06.48.04.72.04.48-.07.72-.07.48.08.72.08.48-.15.72-.15.48.17.72.17.47.3.71.31.5-.38.74-.37.47.19.71.21.47.22.71.23.51-.39.75-.37.47.19.71.21.45.3.69.32.48-.01.72.01.48,0,.72.03.51-.19.74-.16.43.44.66.47.48.04.71.07.5-.08.73-.05.46.18.69.22.47.11.7.15.54-.31.78-.27.44.28.67.32.45.2.68.25.47.08.71.12.44.22.67.27.54-.23.77-.18.42.31.65.37.54-.18.77-.12.39.42.62.48.44.2.67.26.45.16.68.22.53-.11.76-.05.43.26.66.33.44.22.67.28.56-.19.79-.12.44.22.66.29.39.34.62.42.45.17.67.25.44.2.66.28.46.15.68.23.45.16.67.24.43.22.65.31.6-.21.81-.13.44.2.66.28.42.23.64.32.44.19.65.28.42.25.63.34.33.44.54.54.54-.04.76.05.37.35.58.45.42.23.63.33c.22.11.55-.02.75.08.22.11.41.26.61.37.22.11.38.33.58.43.22.11.52.06.72.17.22.12.42.25.61.36.23.12.26.21.45.32Z"/><g class="uuid-2b2486f3-e3bf-4b64-81c8-ed37233f4513"><path class="uuid-de38ece6-76f6-4251-9273-24b4f4302195" d="m58.42,43.44c.24,0,.52-.15.76-.15s.48-.08.72-.08.48.03.72.04.48.37.72.37.48-.23.72-.23.48.27.72.27.48-.06.72-.05.48-.14.72-.14.48-.21.72-.21.48.39.72.39.48,0,.72,0,.48-.3.72-.3.48.15.72.15.48.18.72.18.48-.16.72-.16.48-.02.72-.02.48-.1.72-.1.48.17.72.17.48-.16.72-.16.48.08.72.08.48.18.72.18.48-.15.72-.15.48-.23.72-.23.48.29.72.3.48-.18.72-.18.48-.07.72-.06.48.04.72.05.48.22.72.23.48-.31.72-.31.48,0,.72,0,.48.32.72.33.48-.23.72-.23.48.17.72.17.48.12.72.12.48-.02.72-.02.48-.03.72-.03.48,0,.72,0,.48.06.72.06.48-.14.72-.14.48.17.72.17.48-.28.72-.28.48.08.72.08.48.2.72.2.48.04.72.04.48-.27.72-.27.48-.11.72-.1.48.43.72.43.48-.44.72-.44.48.1.72.11.48-.06.72-.06.48.14.72.15.48.02.72.03.48.11.72.12.48-.16.72-.15.48.18.72.18.48-.27.72-.27.48.02.72.02.48.33.72.33.48-.01.72-.01.48-.39.72-.39.48.32.72.32.48.03.72.03.48-.26.72-.26.48.2.72.2.48-.06.72-.06.48-.23.72-.22.48.26.72.26.48,0,.72,0,.48-.17.72-.17.48.39.72.39.48,0,.72,0,.48-.22.72-.22.48.23.72.23.48-.18.72-.18.48-.22.72-.22.48.24.72.24.48.07.72.07.48,0,.72,0,.48-.28.72-.28.48.32.72.32.48-.03.72-.03.48,0,.72,0,.48-.28.72-.28.48.15.72.15.48.03.72.03.48,0,.72.01.48.11.72.11.48,0,.72,0,.48,0,.72,0,.48,0,.72,0,.48.03.72.03.48,0,.72,0,.48-.21.72-.21.48.06.72.06.48.02.72.02.48-.04.72-.04.48.3.72.3.48,0,.72,0,.48-.4.72-.4.48.04.72.04.48.03.72.04.48.23.72.23.48.08.72.08.48-.38.72-.38.48-.03.72-.02.48.45.72.45.48-.43.72-.43.48.23.72.23.48-.21.72-.21.48.39.72.39.48-.25.72-.25.48-.15.72-.15.48.12.72.13.48-.1.72-.1.48,0,.72,0,.48.21.72.21.48-.23.72-.23.48.19.72.2.48.03.72.04.48.2.72.2.48-.07.72-.06.48-.33.72-.32.48.28.72.28.48,0,.72,0,.48.15.72.15.48-.12.72-.11.48.08.72.09.48-.29.72-.29.48-.06.72-.06.48.29.72.29.48-.27.72-.27.48,0,.72,0,.48.01.72.01.48.31.72.31.48-.13.72-.13.48-.06.72-.06.48.13.72.13.69-.13.93-.13c-.23.06-.73-.07-.96-.01s-.4.38-.63.44-.46.14-.69.2-.53-.16-.77-.11-.39.41-.63.47-.45.17-.69.23-.53-.16-.77-.11-.47.09-.71.15-.48.06-.71.11-.42.33-.65.39-.51-.1-.75-.05-.38.52-.61.57-.47.1-.71.15-.53-.17-.76-.12-.47.08-.71.13-.46.16-.69.21-.46.16-.69.21-.47.09-.71.14-.49-.01-.73.03-.49-.02-.73.03-.44.23-.68.27-.46.15-.7.2-.48.01-.72.05-.46.17-.7.21-.47.1-.71.14-.49-.03-.73,0-.5-.11-.74-.07-.43.35-.67.39-.5-.09-.74-.06-.45.25-.69.28-.47.1-.71.14-.47.11-.71.14-.53-.34-.77-.31-.45.27-.69.31-.46.19-.7.22-.5-.15-.74-.12-.45.27-.69.3-.51-.18-.75-.16-.45.32-.69.34-.48.02-.72.05-.48.08-.72.1-.5-.13-.74-.11-.47.18-.71.2-.49-.03-.73,0-.49-.08-.73-.06-.47.1-.72.12-.48,0-.72.01-.46.36-.7.37-.5-.18-.74-.16-.49-.16-.74-.14-.47.16-.71.17-.49-.14-.73-.12-.47.2-.71.21-.48.09-.72.1-.48,0-.73.01-.48.08-.72.09-.49-.21-.73-.2-.48.12-.72.13-.48-.04-.73-.03-.48.22-.72.22-.48.11-.72.12-.49-.13-.73-.12-.48.22-.72.23-.49-.08-.73-.08-.48.03-.73.03-.49-.24-.73-.24-.48.28-.73.28-.49.02-.73.02-.49-.28-.73-.28-.49.26-.73.25-.49-.28-.73-.28-.49.05-.74.05-.49.06-.74.06c-.24,0-.48-.17-.72-.17s-.49.26-.73.25-.48-.04-.73-.05-.48-.09-.72-.1-.48-.24-.72-.25-.49.1-.73.09-.48-.11-.72-.12-.49.03-.73.02-.48-.13-.72-.14-.5.22-.74.2-.5.16-.74.15-.48-.1-.72-.12-.46-.37-.7-.39-.51.31-.75.29-.46-.33-.7-.35-.49.02-.73,0-.51.26-.75.24-.47-.22-.71-.24-.46-.29-.7-.32-.48-.05-.72-.08-.52.34-.76.32-.49-.02-.73-.04-.47-.22-.71-.24-.46-.27-.7-.29-.5.13-.74.1-.5.1-.74.07-.45-.29-.69-.32-.47-.11-.71-.14-.52.25-.76.22-.44-.39-.68-.42-.47-.11-.71-.14-.53.28-.77.25-.45-.25-.69-.29-.49.03-.73,0-.48-.08-.72-.11-.46-.16-.7-.2-.48-.07-.72-.1-.49.01-.73-.03-.45-.26-.68-.3-.48-.07-.71-.11-.46-.14-.7-.18-.54.31-.78.26-.47-.14-.71-.18-.44-.3-.67-.34-.46-.17-.7-.22-.5.03-.74-.01-.44-.28-.67-.32-.55.28-.78.23-.44-.25-.68-.3-.43-.28-.67-.33-.45-.2-.68-.25-.57.37-.81.32-.43-.3-.66-.35-.48-.07-.71-.13-.44-.22-.67-.28-.52.09-.75.03-.48-.06-.72-.11-.44-.24-.67-.29-.48-.06-.71-.12-.47-.11-.7-.17-.43-.26-.66-.32-.5.02-.74-.04-.47-.1-.7-.16-.36-.51-.59-.57-.57.27-.8.2-.45-.32-.67-.38Z"/></g></svg>