<?xml version="1.0" encoding="UTF-8"?><svg id="uuid-6ef63d88-315f-4532-8810-ed27beb9a01a" xmlns="http://www.w3.org/2000/svg" width="210" height="320" viewBox="0 0 210 320"><defs><style>.uuid-1e2955d6-2617-4c38-a36f-c87c3388901b{fill:#5ab67a;stroke-width:0px;}</style></defs><path class="uuid-1e2955d6-2617-4c38-a36f-c87c3388901b" d="m53.32,77.89c.3,0,.86.55,1.16.55s.6.01.9.01.6-.26.9-.26.6-.22.9-.22.6.26.9.26.6-.49.9-.49.6-.02.9-.02.6.46.9.46.6.36.9.36.6.03.9.03.6-.11.9-.11.6-.63.9-.63.6.82.9.82.6-.53.9-.53.6.25.9.25.6.29.9.29.6-.62.9-.62.6-.06.9-.06.6.07.9.07.6.58.9.58.6-.16.9-.16.6.17.9.17.6-.3.9-.3.6.05.9.05.6-.35.9-.35.6.09.9.09.6-.43.9-.43.6.77.9.77.6-.45.9-.44.6-.28.9-.28.6.89.9.89.6-.01.9-.01.6-.07.9-.07.6-.65.9-.65.6.22.9.22.6.2.9.2.6.36.9.36.6-.7.9-.7.6.27.9.27.6-.44.9-.44.6.11.9.11.6.28.9.28.6-.25.9-.25.6-.23.9-.23.6.24.9.24.6.52.9.52.6-.21.9-.21.6-.53.9-.53.6.8.9.8.6-.24.9-.24.6-.4.9-.4.6.36.9.36.6-.21.9-.21.6.3.9.3.6-.03.9-.03.6.17.9.17.6-.37.9-.37.6.12.9.12.6.26.9.26.6-.48.9-.48.6.58.9.58.6-.71.9-.71.6.48.9.48.6-.11.9-.11.6-.11.9-.11.6-.2.9-.2.6.09.9.09.6-.23.9-.23.6.17.9.17.6-.23.9-.23.6.2.9.2.6.14.9.14.6-.24.9-.24.6.48.9.48.6-.33.9-.33.6.37.9.37.6-.45.9-.45.6,0,.9,0,.6-.16.9-.16.6.73.9.73.6.02.9.02.6-.26.9-.26.6-.43.9-.43.6.57.9.57.6.07.9.07.6.11.9.11.6-.03.9-.03.6-.7.9-.7.6.23.9.23.6.16.9.16.6-.24.9-.24.6.38.9.38.6-.08.9-.08.6-.43.9-.43.6.62.9.62.6-.7.9-.7.6.44.9.44.6,0,.9,0,.6.36.9.36.6-.17.9-.17.6.09.9.09.6-.03.9-.03.6-.63.9-.63.6.55.9.55.6-.6.9-.6.6.32.9.32.6.04.9.04.78-.16,1.08-.16c.05.3-.56.88-.51,1.18s.61.51.66.81.2.58.25.87-.11.63-.06.92-.18.64-.13.93.48.53.52.83.3.56.35.86,0,.61.05.91-.26.65-.21.95.36.55.41.85,0,.61.06.9-.25.65-.2.95.27.56.32.86.11.59.15.89-.17.64-.12.93.57.51.62.81.17.58.22.88-.1.63-.05.92.48.53.53.83.19.58.24.87-.02.61.03.91.33.55.38.85-.54.7-.49.99.26.57.31.86.01.61.06.9.02.61.07.9.15.58.2.88-.14.63-.1.93.38.55.43.84.48.53.53.83.2.58.25.87-.62.71-.57,1.01.55.52.6.82.4.54.44.84.05.6.1.9-.05.62,0,.91-.32.66-.27.96-.14.63-.09.93.41.54.46.84.13.59.18.88.12.59.17.89-.3.66-.26.96.75.48.8.78-.25.65-.2.95.65.5.7.8-.38.67-.33.97.46.53.51.83-.14.63-.09.93.54.52.59.82-.85.75-.8,1.05.74.49.79.78-.42.68-.37.98,0,.61.05.91.11.59.16.89.92.46.97.75-.26.65-.21.95.29.56.34.86-.3.66-.25.96.33.55.38.85.26.57.31.86.06.6.11.9-.21.64-.16.94.22.57.27.87.02.61.07.9-.06.62-.01.92.61.51.66.8.09.59.14.89.16.58.21.88.15.58.2.88-.48.69-.43.98.78.48.83.78-.22.65-.17.94.24.57.29.87-.39.67-.34.97.75.48.8.78-.36.67-.31.96.38.55.43.84-.55.7-.5,1,.79.48.84.77.13.59.18.88-.28.66-.23.95.35.55.4.85-.27.65-.23.95,0,.61.05.91-.08.62-.03.92.37.55.42.85.29.56.34.86-.01.61.04.91.61.51.66.8-.27.65-.22.95-.16.64-.11.93.06.6.11.9.77.48.82.78-.38.67-.33.97-.15.63-.1.93.27.56.32.86.57.52.62.81-.67.72-.62,1.02.94.45.99.75.04.6.09.9.16.58.2.88-.65.72-.6,1.01.76.48.81.78-.32.66-.27.96.54.52.59.82-.39.67-.34.97-.24.65-.19.95.13.59.18.88.2.58.25.87.46.53.51.83-.25.65-.2.95.84.47.89.77-.55.7-.5,1,.5.53.55.82.24.57.29.87-.57.7-.52,1,.32.56.37.85-.04.62.01.91.06.6.1.9.18.58.23.88.11.59.16.89.54.52.59.82-.39.67-.34.97.4.54.45.84-.03.61.02.91-.23.65-.18.94.18.58.23.88.04.6.08.9-.06.62,0,.92.4.54.45.84.67.5.72.79-.04.62,0,.91-.05.62,0,.91.12.59.17.89.04.6.09.9.43.54.48.84-.14.63-.09.93.08.6.13.89-.13.63-.08.93-.17.64-.12.93.21.57.26.87.41.54.46.84-.4.67-.35.97.33.55.38.85-.09.62-.04.92.46.53.51.83.52.52.57.82-.36.67-.31.96.16.58.21.88.58.51.63.81-.88.76-.83,1.05.37.55.42.84.28.56.33.86.48.53.53.83-.07.62-.02.92.32.56.36.85-.57.7-.52,1-.07.62-.02.92.7.49.75.79.06.6.11.9-.12.63-.07.92.66.5.71.8-.33.66-.28.96.15.59.19.88.17.58.22.88-.5.69-.45.99.67.5.72.8-.46.69-.41.98.35.55.4.85.28.56.33.86.57.51.62.81-.79.74-.74,1.04.9.46.95.76-.08.62-.03.92.02.61.07.9-.19.64-.14.94.62.51.67.8-.05.62,0,.91.16.58.21.88-.65.72-.6,1.01.77.48.81.78-.16.64-.12.93-.3.66-.25.95.47.53.52.83,0,.61.05.91.73.49.77.79-.49.69-.44.99.71.49.76.79-.66.72-.62,1.02.64.5.69.8.28.56.33.86-.01.61.04.91-.37.67-.33.97-.23.65-.18.94.69.5.73.79-.25.65-.2.95-.15.63-.1.93.97.45,1.01.75.13.59.18.88-.65.72-.6,1.01.59.51.64.81.34.55.39.85-.22.65-.18.94-.42.68-.37.98.15.58.2.88.46.53.51.83.05.6.1.9.32.56.37.85-.46.69-.42.98.55.52.6.82.11.59.16.89.08.6.13.89-.13.63-.08.93.16.58.21.88.47.53.52.83.29.56.34.86-.48.69-.43.98.36.55.41.85.37.55.42.84-.61.71-.56,1.01.22.57.27.87.35.55.4.85.13.59.18.88.33.55.38.85-.25.65-.2.95.24.57.29.87-.09.62-.04.92-.25.65-.2.95.37.55.42.84-.02.61.03.91.23.57.28.87.08.6.13.89.54.52.59.82.27.56.32.86-.31.66-.26.96.18.58.23.88.18.58.23.88-.57.7-.52,1,.11.59.16.89.84.47.89.77-.11.63-.07.92-.24.65-.19.94.71.49.76.79-.68.72-.63,1.02.51.53.55.82-.09.62-.05.92.42.65.47.95c-.28.11-.86-.28-1.15-.18s-.43.55-.71.65-.48.41-.76.52-.59.1-.87.2-.6.06-.89.17-.58.14-.86.24-.47.44-.75.54-.64-.03-.92.07-.43.57-.71.67-.51.33-.8.42-.75-.36-1.03-.27-.64-.06-.93.03-.27,1.07-.56,1.16-.75-.38-1.03-.29-.66-.14-.95-.05-.54.24-.83.33-.34.9-.63.99-.74-.4-1.03-.31-.61.04-.89.12-.33.98-.62,1.06-.57.18-.86.26-.71-.31-1-.23-.59.08-.88.16-.6.06-.89.14-.54.27-.83.34-.51.4-.8.48-.62-.02-.91.05-.68-.24-.97-.16-.52.38-.81.45-.56.22-.85.29-.54.31-.83.39-.6.04-.9.11-.46.63-.75.7-.64-.11-.93-.04-.74-.53-1.03-.46-.57.17-.86.24-.39.99-.68,1.05-.59.09-.88.16-.64-.13-.93-.07-.51.46-.8.52-.66-.24-.95-.18-.51.46-.8.52-.63-.11-.92-.05-.72-.59-1.01-.53-.54.35-.83.41-.53.41-.82.46-.52.49-.81.55-.69-.47-.98-.42-.49.67-.78.72-.75-.83-1.04-.78-.58.15-.87.2-.52.53-.81.58-.55.32-.85.36-.7-.59-.99-.54-.55.37-.84.41-.62-.14-.92-.09-.59.09-.88.13-.47.95-.77.99-.71-.76-1-.72-.59.11-.88.15-.56.32-.86.36-.52.65-.82.69-.68-.67-.98-.63-.5.84-.8.87-.6.04-.89.07-.6,0-.9.03-.67-.68-.97-.65-.6-.02-.9,0-.52.8-.82.83-.61-.06-.9-.03-.62-.21-.92-.19-.58.19-.88.22-.59.13-.89.15-.6.04-.9.06-.64-.6-.94-.58-.55.76-.85.78-.59.25-.89.26-.63-.49-.93-.47-.59.1-.89.12-.59.16-.89.17-.59.29-.89.31-.62-.5-.92-.49-.58.4-.88.41-.61-.23-.91-.22-.61-.4-.91-.4-.57.88-.87.89-.62-.59-.92-.58-.6.19-.9.2-.6.02-.9.02-.6.07-.9.07-.6-.24-.91-.24-.6.39-.91.39-.61.29-.91.29c-.3,0-.6-.86-.9-.87s-.6,0-.9,0-.6.13-.9.13-.6.07-.9.06-.6-.32-.9-.32-.61.58-.91.57-.6.07-.9.06-.59-.26-.89-.27-.59-.27-.89-.28-.61.16-.91.15-.6-.14-.9-.16-.59-.27-.89-.29-.61.13-.91.11-.61.19-.91.17-.58-.33-.88-.35-.62.28-.92.26-.59-.23-.89-.25-.64.56-.94.54-.56-.53-.86-.55-.65.53-.94.51-.53-.95-.82-.97-.63.29-.93.26-.64.44-.94.42-.58-.28-.88-.31-.59-.16-.89-.19-.61.07-.91.04-.6-.03-.9-.07-.55-.48-.85-.52-.66.51-.96.47-.55-.45-.85-.49-.66.43-.96.39-.51-.75-.81-.79-.64.25-.93.21-.63.18-.93.14-.52-.59-.82-.64-.59-.08-.89-.13-.61.05-.91,0-.56-.3-.86-.34-.66.37-.96.32-.6-.05-.9-.09-.59-.11-.89-.16-.58-.2-.87-.25-.54-.43-.83-.48-.69.44-.98.38-.47-.77-.77-.82-.64.17-.93.12-.64.14-.93.09-.58-.15-.88-.21-.51-.52-.8-.57-.54-.35-.83-.41-.64.16-.94.1-.61,0-.9-.06-.53-.37-.82-.44-.66.21-.95.14-.55-.29-.84-.36-.68.28-.97.21-.48-.6-.77-.66-.64.1-.93.03-.5-.51-.79-.58-.59-.1-.88-.17-.73.45-1.02.38-.48-.55-.77-.63-.48-.54-.77-.61-.61-.02-.9-.1-.61-.05-.89-.13-.77.56-1.06.48-.5-.45-.79-.52-.52-.37-.81-.45-.52-.37-.81-.45-.62-.02-.9-.1-.68.19-.96.1-.48-.5-.76-.58-.68.2-.97.11-.44-.61-.73-.69-.57-.19-.85-.28-.64.04-.92-.05-.67.15-.96.06-.37-.82-.66-.91-.5-.39-.79-.48-.69.17-.97.08-.71.24-.99.15-.31-.95-.59-1.05-.73.3-1.01.2-.69.16-.97.06-.43-.57-.71-.67-.44-.56-.71-.65-.64.01-.92-.09-.55-.23-.83-.33-.64.02-.92-.08-.67.09-.95-.01-.42-.57-.7-.67-.41-.59-.69-.7-.79.42-1.07.31-.15-.65-.42-.75c.04-.3-.12-.4-.08-.7s-.34-.65-.29-.95.28-.57.32-.86.07-.6.12-.89.03-.6.08-.9.73-.5.78-.8-.41-.66-.37-.96.2-.58.24-.87-.39-.66-.35-.96.59-.52.63-.82-.04-.61,0-.91.4-.55.44-.85-.58-.69-.54-.98.65-.51.7-.81-.34-.65-.3-.95.06-.6.11-.89.03-.6.07-.9.39-.55.43-.85-.32-.65-.28-.95.65-.51.7-.81-.56-.68-.51-.98.39-.55.43-.85-.15-.63-.11-.92.76-.5.8-.8-.48-.67-.43-.97.3-.56.34-.86.19-.58.23-.88.21-.58.26-.87.02-.6.06-.9-.23-.64-.19-.93.4-.55.44-.85-.5-.68-.46-.97.65-.52.69-.81.33-.56.37-.86-.04-.61,0-.91-.45-.67-.41-.97-.08-.62-.04-.91.6-.52.64-.82-.45-.67-.41-.97,1.03-.46,1.07-.76-.76-.71-.72-1.01.75-.5.79-.8-.66-.7-.62-1,.35-.56.39-.85.1-.59.15-.89.42-.55.46-.84-.1-.62-.06-.92.19-.58.23-.88-.14-.63-.1-.92.19-.58.23-.88.22-.58.26-.87.24-.57.28-.87-.41-.66-.37-.96.76-.5.8-.8-.51-.68-.46-.97.64-.52.69-.81,0-.61.04-.9.03-.6.07-.9-.64-.7-.6-.99.82-.49.86-.79-.29-.65-.25-.94-.07-.62-.03-.91.16-.58.2-.88.37-.55.41-.85-.39-.66-.35-.96.52-.53.56-.83-.07-.61-.02-.91.41-.55.45-.85.02-.6.06-.9.22-.58.26-.87-.45-.67-.41-.97.49-.54.53-.83.16-.58.2-.88.26-.57.3-.87-.12-.62-.08-.92.07-.6.11-.89-.41-.66-.37-.96.76-.5.8-.8-.49-.67-.45-.97-.27-.64-.23-.94.25-.57.29-.87.21-.58.25-.87.5-.54.54-.83-.65-.7-.6-.99.79-.49.84-.79-.26-.64-.22-.94.1-.59.14-.89.23-.57.27-.87-.32-.65-.28-.95.18-.58.23-.88.71-.51.75-.8-.63-.69-.59-.99.73-.5.77-.8.13-.59.17-.88.03-.6.07-.9,0-.61.03-.9-.02-.61.02-.91-.07-.62-.03-.91-.25-.64-.21-.94.47-.54.51-.84-.04-.61,0-.91.04-.6.08-.9.59-.52.63-.82-.24-.64-.2-.94-.41-.66-.37-.96.58-.53.62-.82.31-.56.36-.86-.6-.69-.56-.99.87-.48.91-.78-.59-.69-.54-.98.13-.59.17-.88.38-.55.42-.85.33-.56.37-.86-.29-.65-.25-.94.38-.55.42-.85-.15-.63-.11-.92.52-.53.56-.83-.69-.7-.65-1,0-.61.03-.9.74-.5.78-.8-.44-.67-.4-.96.8-.49.85-.79-.69-.7-.65-1,.7-.51.74-.8-.06-.61-.01-.91-.31-.65-.27-.95-.02-.61.02-.91.13-.59.17-.88.68-.51.72-.81-.63-.69-.59-.99.56-.53.6-.83-.35-.65-.31-.95.97-.47,1.01-.77-.35-.65-.31-.95.3-.56.35-.86.12-.59.16-.89-.67-.7-.63-1,.3-.56.34-.86-.04-.61,0-.91.26-.57.3-.87.61-.52.65-.82.22-.57.26-.87.05-.6.09-.9-.01-.61.03-.9-.2-.63-.16-.93.06-.6.1-.89.33-.56.37-.86-.29-.65-.25-.94-.2-.63-.16-.93.62-.52.66-.82.09-.59.13-.89-.43-.67-.39-.96.26-.57.3-.87.06-.6.1-.89.74-.5.78-.8-.13-.62-.09-.92-.22-.64-.17-.93,0-.6.05-.9.59-.52.63-.82-.31-.65-.26-.95.26-.57.3-.87-.23-.64-.19-.94.18-.58.22-.88-.03-.61.01-.91-.07-.61-.02-.91.74-.5.78-.8-.07-.61-.02-.91.03-.6.07-.9-.18-.63-.14-.93.15-.58.2-.88-.23-.64-.19-.94.73-.5.78-.8.07-.6.11-.89.19-.58.23-.88.16-.58.2-.88-.49-.67-.45-.97.01-.6.05-.9.77-.5.81-.8-.52-.68-.48-.98.03-.6.07-.9.3-.56.34-.86-.04-.61,0-.91-.04-.61,0-.91.19-.58.23-.88.05-.6.1-.9.22-.57.26-.87.3-.56.34-.86-.03-.61.02-.91.33-.56.38-.86-.35-.65-.31-.95.09-.59.13-.89-.3-.65-.26-.95.85-.49.89-.78.19-.58.23-.88.01-.6.06-.9-.39-.66-.35-.96.31-.56.36-.86.16-.58.2-.88.34-.56.38-.86.03-.6.07-.9.13-.59.17-.88-.02-.61.02-.91-.69-.7-.65-1,.04-.6.08-.9.15-.58.19-.88.42-.55.47-.84,0-.61.04-.9.03-.6.07-.9-.05-.61-.01-.91.46-.54.5-.84-.48-.67-.43-.97,1.04-.46,1.09-.76-.65-.7-.61-.99.69-.51.73-.81-.21-.64-.17-.93.24-.57.28-.87-.18-.63-.14-.93-.3-.65-.26-.94.86-.49.9-.78-.7-.7-.66-1,.31-.56.36-.86.28-.57.32-.86.31-.56.35-.86.29-.57.33-.86-.72-.71-.68-1,.83-.49.88-.79.11-.59.15-.89-.15-.63-.11-.92.24-.57.28-.87-.15-.63-.11-.92.04-.6.08-.9-.2-.63-.16-.93-.04-.61,0-.91.73-.5.77-.8-.22-.64-.18-.93.46-.54.5-.84-.63-.69-.59-.99.16-.58.2-.88.71-.51.75-.8-.23-.64-.19-.94.19-.58.24-.88-.1-.62-.06-.92-.16-.63-.12-.93.12-.59.16-.89-.16-.63-.11-.92.31-.82.35-1.12Z"/></svg>