<?xml version="1.0" encoding="UTF-8"?><svg id="uuid-a51dd31b-28bb-457a-84df-e48148540e3c" xmlns="http://www.w3.org/2000/svg" width="170" height="170" viewBox="0 0 170 170"><defs><style>.uuid-98d52bd1-7841-47c1-bd41-c6a0224938df{fill:#f7c81e;stroke-width:0px;}</style></defs><g id="uuid-b87e5309-a7e2-4056-8d1e-43e0d96ad451"><path class="uuid-98d52bd1-7841-47c1-bd41-c6a0224938df" d="m145.47,127.62c-.89-.11-.74-1.37-1.62-1.48s-1,.86-1.89.76-.77-1.05-1.66-1.16-1.01.88-1.89.77-.75-1.26-1.64-1.36-.9-.02-1.79-.12-.93.21-1.81.11-.99.78-1.88.67-.7-1.66-1.59-1.76-1.02,1.01-1.91.91-.77-1.09-1.66-1.2-.93.27-1.82.17-.99.74-1.88.64-.89-.09-1.78-.2-.74-1.36-1.63-1.46-.91.04-1.79-.07-1.01.87-1.89.76-.92.15-1.81.05-.89-.07-1.78-.17-.87-.28-1.76-.38-.79-.94-1.69-1.05-.87-.27-1.77-.38c-.51-.06-1.1.57-1.59.67s-1.1.07-1.54.33-.4,1.06-.74,1.45c-.59.67-1.6-.22-2.19.45s-.48.77-1.07,1.44-.11,1.1-.7,1.77-1.1.22-1.69.89-.21,1.01-.8,1.68-.44.8-1.03,1.47.23,1.39-.37,2.06-1.76-.35-2.35.32.12,1.3-.47,1.97-.55.71-1.14,1.38-.26.97-.85,1.64-1.1.23-1.69.9-1.19.14-1.78.81.31,1.47-.28,2.14-1.3.05-1.89.73-.32.91-.91,1.58-.92.39-1.51,1.06.39,1.53-.21,2.21-1.05.27-1.64.94-.97.34-1.56,1.02-.4.84-1,1.52-.39.85-.99,1.53c-.41.47-1.01.79-1.51,1.05-.53.28-1.09,1.18-1.67,1.24s-1.31-.73-1.88-.89-.75-.99-1.23-1.34-1.91.12-2.24-.39c-.3-.47.07-1.45-.05-2.06-.17-.88.65-1.04.47-1.92s-1.78-.56-1.96-1.43.11-.93-.07-1.81,1.26-1.16,1.09-2.04-.68-.78-.85-1.66.29-.97.12-1.85-.46-.82-.64-1.7-1.25-.67-1.42-1.54.28-.97.11-1.84-.86-.74-1.04-1.62,1.37-1.18,1.19-2.06-1.05-.71-1.22-1.58-.21-.87-.39-1.75-.63-.79-.8-1.66.63-1.04.46-1.92.6-1.03.42-1.91-1.22-.67-1.4-1.55-.79-.76-.97-1.64,1.47-1.2,1.29-2.08-1.35-.65-1.53-1.53-.43-.83-.6-1.71,0-.92-.17-1.8c-.1-.51-.68-.63-.93-1.07s-.12-.94-.5-1.28-.88-.08-1.36-.28c-.82-.35-.79-.42-1.61-.77s-.76-.5-1.58-.85-.27-1.63-1.09-1.98-.72-.6-1.54-.95-1.44,1.09-2.26.73-.56-.96-1.38-1.31-1.08.26-1.91-.1-.66-.72-1.48-1.08-.45-1.21-1.27-1.56-.93-.11-1.75-.46-.97,0-1.8-.35-1.09.27-1.92-.08-.84-.3-1.66-.65-.68-.68-1.5-1.04-.53-1.03-1.35-1.39-.87-.23-1.7-.59-.84-.31-1.67-.66-.61-.85-1.44-1.2-1.27.68-2.09.32-.59-.91-1.41-1.26-1.26.66-2.09.3-.58-.92-1.41-1.28c-.57-.25-.74-1.05-1.14-1.44-.43-.42-.53-.9-.77-1.43s-1.36-.9-1.39-1.49,1.39-.95,1.58-1.51-.63-1.57-.24-2.04c.36-.43,1.03-.7,1.57-1.01.78-.44.74-.5,1.52-.94s1.35.58,2.12.14.67-.63,1.45-1.07.14-1.58.93-2.01.86-.3,1.64-.73.84-.34,1.62-.77.71-.56,1.49-1,.92-.18,1.7-.62,1.28.45,2.06.02-.09-2,.69-2.44,1.46.77,2.24.34.72-.55,1.5-.99.43-1.06,1.21-1.49,1.17.27,1.95-.17.38-1.16,1.16-1.6,1.45.76,2.23.32.48-.97,1.27-1.41.93-.18,1.71-.62.13-1.6.91-2.04.92-.19,1.7-.63.92-.2,1.7-.64.83-.37,1.61-.81c.45-.25,1.59.13,1.93-.24s.85-1.04,1.05-1.5-1.12-1.41-1.07-1.93c.08-.89,1.06-.8,1.14-1.69s.44-.86.52-1.74-1.24-1.01-1.15-1.9.55-.85.63-1.74.5-.85.59-1.74.65-.84.73-1.73-.38-.93-.3-1.82-.24-.92-.16-1.81.77-.83.85-1.72-1.19-1.01-1.11-1.9,1.11-.8,1.19-1.69-.76-.97-.68-1.86.47-.86.55-1.75.59-.84.67-1.73-.89-.98-.8-1.87-.43-.94-.35-1.83,1.54-.76,1.63-1.65-1.12-1.01-1.04-1.9.57-.85.65-1.74,1-.81,1.09-1.7.03-.9.11-1.8-1.19-1.01-1.1-1.91c.06-.62.65-1.18.89-1.68.27-.54.11-1.64.54-2.03s1.51-.17,2.05-.37,1.19.14,1.78.14.85.55,1.41.78c.52.21.74.39,1.2.81.66.61,1.52-.32,2.17.28s.01,1.3.67,1.91.86.38,1.52.99.72.54,1.38,1.15.51.77,1.16,1.38.86.39,1.51,1,.11,1.2.77,1.8.72.55,1.37,1.15,1.1.13,1.76.74.41.88,1.06,1.49.95.3,1.6.9.37.92,1.02,1.53,1.03.2,1.68.81.22,1.08.87,1.69,1.74-.55,2.39.05-.34,1.68.32,2.29.92.32,1.58.93.4.88,1.06,1.49,1.37-.16,2.03.45.56.72,1.22,1.33.1,1.22.76,1.83,1.49-.28,2.15.33c.38.35-.14,2.1.32,2.31s1.41-1.05,1.91-1,.82-.09,1.32-.21c.87-.2.9-.06,1.77-.25s1.2,1.26,2.07,1.07.64-1.22,1.51-1.41.7-.95,1.58-1.14,1.13.94,2,.74.79-.57,1.66-.77.94.09,1.81-.11.71-.92,1.58-1.12,1.16,1.09,2.04.9.67-1.08,1.55-1.28.91-.03,1.78-.22,1.07.66,1.94.47.75-.74,1.62-.94.69-1.01,1.56-1.21,1.02.46,1.9.26.65-1.17,1.53-1.36,1.24,1.44,2.12,1.24.55-1.66,1.42-1.85.97.22,1.84.02,1.11.85,1.99.65.47-2,1.35-2.2,1.11.85,1.99.65c.61-.14,1.04.57,1.59.65.6.09,1.51-.96,2-.67s1.29.63,1.65,1.08.02,1.45.2,2.01-.31,1.07-.34,1.67c-.04.56.81,1.33.55,1.9-.37.81-.18.9-.56,1.71s-1.69.2-2.07,1.01-.44.78-.81,1.59.05,1.01-.32,1.82-.85.6-1.22,1.41-.27.86-.64,1.67.03,1-.35,1.81.12,1.04-.25,1.86-1.27.4-1.64,1.21.61,1.27.23,2.08.27,1.11-.1,1.92-.99.53-1.37,1.34-.43.78-.81,1.6-.48.76-.85,1.58.14,1.05-.24,1.86-.16.91-.53,1.73-1.87.12-2.25.94.84,1.38.47,2.19-1.57.26-1.94,1.08,1.02,1.46.64,2.27-1.47.31-1.85,1.13.77,1.35.39,2.16c-.22.47-1.43.57-1.49,1.07s.57.99.68,1.49-.75,1.47-.48,1.92c.46.77.96.47,1.41,1.24s.59.69,1.05,1.45-.2,1.16.26,1.92,2.05-.18,2.51.59-.84,1.54-.39,2.31.86.53,1.32,1.3-.28,1.2.18,1.97.88.52,1.33,1.29.86.53,1.31,1.3-.21,1.16.25,1.94.34.84.8,1.61,2.01-.15,2.47.62-.51,1.34-.06,2.11,1.22.31,1.68,1.08-.76,1.49-.3,2.26.93.49,1.39,1.26.47.76.93,1.53-.03,1.06.43,1.83.25.9.7,1.67,1.89-.08,2.35.7-.26,1.2.2,1.97,1.21.33,1.67,1.1c.32.53.7,1.33.79,1.88.1.59-1.52,1.16-1.64,1.72s1.09,1.73.77,2.22-1.92-.23-2.4.12-.47,1.36-1.05,1.5c-.54.14-1.23.85-1.84.78Z"/></g></svg>